<svg xmlns="http://www.w3.org/2000/svg" width="82.676" height="89.43" viewBox="0 0 82.676 89.43">
  <g id="Exp-2.-FL" transform="translate(-32.686 -20.832)">
    <g id="Grupo_1043819" data-name="Grupo 1043819" transform="translate(32.686 20.833)">
      <path id="Trazado_773396" data-name="Trazado 773396" d="M251.13,265.066H229.582v18.659H244.8a6.332,6.332,0,0,0,6.331-6.332Z" transform="translate(-173.485 -195.482)" fill="#c6ced2" fill-rule="evenodd"/>
      <path id="Trazado_773397" data-name="Trazado 773397" d="M249.338,262.086a1.187,1.187,0,0,0-1.187-1.187H226.6a1.187,1.187,0,0,0-1.187,1.187v18.659a1.187,1.187,0,0,0,1.187,1.187h15.217a7.519,7.519,0,0,0,7.518-7.518V262.086Zm-2.374,1.187v11.14a5.144,5.144,0,0,1-5.144,5.144h-14.03V263.273Z" transform="translate(-170.505 -192.502)" fill="#1c3d57" fill-rule="evenodd"/>
      <path id="Trazado_773398" data-name="Trazado 773398" d="M99.987,25H36.853v80.724a6.332,6.332,0,0,0,6.331,6.332h63.134a6.331,6.331,0,0,1-6.331-6.332Z" transform="translate(-35.666 -23.813)" fill="#e9ebec" fill-rule="evenodd"/>
      <path id="Trazado_773399" data-name="Trazado 773399" d="M99.987,304.99H36.853v.952a6.331,6.331,0,0,0,6.331,6.331h63.134a6.331,6.331,0,0,1-6.331-6.331Z" transform="translate(-35.666 -224.031)" fill="#c6ced2" fill-rule="evenodd"/>
      <g id="Grupo_1043818" data-name="Grupo 1043818">
        <path id="Trazado_773400" data-name="Trazado 773400" d="M103.593,110.263s1.115-2.086,0-2.347v-.027h-.254a5.144,5.144,0,0,1-5.144-5.144V22.02a1.187,1.187,0,0,0-1.187-1.187H33.873a1.187,1.187,0,0,0-1.187,1.187v80.724a7.519,7.519,0,0,0,7.519,7.518Zm-5.737-2.374H40.2a5.144,5.144,0,0,1-5.144-5.144V23.207H95.82v79.537A7.489,7.489,0,0,0,97.856,107.888Z" transform="translate(-32.686 -20.833)" fill="#1c3d57" fill-rule="evenodd"/>
        <path id="Trazado_773401" data-name="Trazado 773401" d="M82,87.014h8.769a1.187,1.187,0,1,0,0-2.374H82a1.187,1.187,0,1,0,0,2.374Z" transform="translate(-67.098 -66.461)" fill="#1c3d57" fill-rule="evenodd"/>
        <path id="Trazado_773402" data-name="Trazado 773402" d="M82,116.671H97.848a1.187,1.187,0,1,0,0-2.374H82a1.187,1.187,0,1,0,0,2.374Z" transform="translate(-67.098 -87.668)" fill="#1c3d57" fill-rule="evenodd"/>
        <path id="Trazado_773403" data-name="Trazado 773403" d="M82,146.328h8.769a1.187,1.187,0,1,0,0-2.374H82a1.187,1.187,0,1,0,0,2.374Z" transform="translate(-67.098 -108.876)" fill="#1c3d57" fill-rule="evenodd"/>
        <path id="Trazado_773404" data-name="Trazado 773404" d="M82,175.985h25.156a1.187,1.187,0,1,0,0-2.374H82a1.187,1.187,0,1,0,0,2.374Z" transform="translate(-67.098 -130.083)" fill="#1c3d57" fill-rule="evenodd"/>
        <path id="Trazado_773405" data-name="Trazado 773405" d="M82,205.642h25.156a1.187,1.187,0,0,0,0-2.374H82a1.187,1.187,0,1,0,0,2.374Z" transform="translate(-67.098 -151.291)" fill="#1c3d57" fill-rule="evenodd"/>
        <path id="Trazado_773406" data-name="Trazado 773406" d="M82,235.3h25.156a1.187,1.187,0,1,0,0-2.374H82a1.187,1.187,0,1,0,0,2.374Z" transform="translate(-67.098 -172.499)" fill="#1c3d57" fill-rule="evenodd"/>
        <path id="Trazado_773407" data-name="Trazado 773407" d="M82,264.957h25.156a1.187,1.187,0,1,0,0-2.374H82a1.187,1.187,0,1,0,0,2.374Z" transform="translate(-67.098 -193.706)" fill="#1c3d57" fill-rule="evenodd"/>
      </g>
      <path id="Trazado_773408" data-name="Trazado 773408" d="M216.055,148.467l-10.72-6.189L198.451,154.2a1.583,1.583,0,0,0,1.284,2.372l4.355.24,2.386,3.652a1.583,1.583,0,0,0,2.7-.074Z" transform="translate(-151.072 -107.677)" fill="#fabf40" fill-rule="evenodd"/>
      <path id="Trazado_773409" data-name="Trazado 773409" d="M214.1,146.081a1.187,1.187,0,0,0-.434-1.622l-10.72-6.189a1.187,1.187,0,0,0-1.622.434l-6.884,11.924a2.77,2.77,0,0,0,2.247,4.151l3.755.207,2.057,3.149a2.77,2.77,0,0,0,4.718-.13Zm-2.65-.159-6.291,10.9a.4.4,0,0,1-.674.019l-2.385-3.652a1.187,1.187,0,0,0-.929-.536l-4.355-.24a.4.4,0,0,1-.321-.593l6.291-10.9Z" transform="translate(-148.092 -104.697)" fill="#1c3d57" fill-rule="evenodd"/>
      <path id="Trazado_773410" data-name="Trazado 773410" d="M256.168,148.467l10.72-6.189,6.884,11.924a1.583,1.583,0,0,1-1.284,2.372l-4.355.24-2.385,3.652a1.583,1.583,0,0,1-2.7-.074Z" transform="translate(-192.496 -107.677)" fill="#fabf40" fill-rule="evenodd"/>
      <path id="Trazado_773411" data-name="Trazado 773411" d="M252.595,144.459a1.187,1.187,0,0,0-.434,1.622L259.044,158a2.77,2.77,0,0,0,4.718.13l2.057-3.149,3.755-.207a2.77,2.77,0,0,0,2.247-4.151L264.936,138.7a1.187,1.187,0,0,0-1.622-.434Zm2.215,1.463,8.664-5,6.291,10.9a.4.4,0,0,1-.321.593l-4.355.24a1.186,1.186,0,0,0-.929.536l-2.385,3.652a.4.4,0,0,1-.674-.019Z" transform="translate(-189.516 -104.697)" fill="#1c3d57" fill-rule="evenodd"/>
      <circle id="Elipse_4970" data-name="Elipse 4970" cx="16.528" cy="16.528" r="16.528" transform="translate(47.794 10.71)" fill="#3bc192"/>
      <path id="Trazado_773412" data-name="Trazado 773412" d="M213.985,54.257A17.715,17.715,0,1,0,231.7,71.972,17.723,17.723,0,0,0,213.985,54.257Zm0,2.374a15.341,15.341,0,1,1-15.341,15.341,15.348,15.348,0,0,1,15.341-15.341Z" transform="translate(-149.664 -44.734)" fill="#1c3d57" fill-rule="evenodd"/>
      <path id="Trazado_773413" data-name="Trazado 773413" d="M233.722,85.047a1,1,0,0,1,1.741,0l2.6,4.659,5.233,1.03a1,1,0,0,1,.538,1.656L240.2,96.3l.637,5.3a1,1,0,0,1-1.408,1.023l-4.839-2.243-4.839,2.243a1,1,0,0,1-1.408-1.023l.637-5.3-3.628-3.909a1,1,0,0,1,.538-1.656l5.233-1.03Z" transform="translate(-170.271 -66.386)" fill="#e9ebec" fill-rule="evenodd"/>
      <path id="Trazado_773414" data-name="Trazado 773414" d="M229.705,81.49l-2.329,4.178-4.693.924A2.184,2.184,0,0,0,221.5,90.22l3.254,3.506-.572,4.749a2.184,2.184,0,0,0,3.086,2.243l4.34-2.011,4.34,2.011a2.184,2.184,0,0,0,3.086-2.243l-.572-4.749,3.254-3.506a2.184,2.184,0,0,0-1.179-3.628l-4.693-.924L233.52,81.49a2.184,2.184,0,0,0-3.815,0Zm1.907,1.454,2.43,4.36a1.187,1.187,0,0,0,.808.587l4.9.964-3.4,3.659a1.186,1.186,0,0,0-.308.949l.6,4.956-4.529-2.1a1.186,1.186,0,0,0-1,0l-4.529,2.1.6-4.956a1.186,1.186,0,0,0-.308-.949l-3.4-3.659,4.9-.964a1.187,1.187,0,0,0,.808-.587Z" transform="translate(-167.291 -63.407)" fill="#1c3d57" fill-rule="evenodd"/>
    </g>
  </g>
</svg>
