<svg xmlns="http://www.w3.org/2000/svg" width="190" height="168" viewBox="0 0 190 168">
  <g id="Grupo_1043981" data-name="Grupo 1043981" transform="translate(-1020 -32814.172)">
    <rect id="Rectángulo_355915" data-name="Rectángulo 355915" width="190" height="168" rx="12" transform="translate(1020 32814.172)" fill="#fabf40"/>
    <g id="Grupo_1043980" data-name="Grupo 1043980">
      <g id="presupuesto" transform="translate(406.125 32185.371)">
        <g id="Grupo_1043846" data-name="Grupo 1043846" transform="translate(665 655.8)">
          <g id="Grupo_1043820" data-name="Grupo 1043820" transform="translate(0.921 8.407)">
            <path id="Trazado_773415" data-name="Trazado 773415" d="M769.579,1043.65H700.647a3.848,3.848,0,0,1-3.848-3.848V950.047a3.847,3.847,0,0,1,3.848-3.848h68.931a3.847,3.847,0,0,1,3.848,3.848V1039.8A3.849,3.849,0,0,1,769.579,1043.65Z" transform="translate(-696.8 -946.2)" fill="#c3d9ff"/>
          </g>
          <g id="Grupo_1043821" data-name="Grupo 1043821" transform="translate(0.921 8.407)">
            <path id="Trazado_773416" data-name="Trazado 773416" d="M773.423,950.04V1039.8a3.841,3.841,0,0,1-3.842,3.842H700.647a3.847,3.847,0,0,1-3.848-3.848,3.8,3.8,0,0,1,3.8-3.8h61.329a3.847,3.847,0,0,0,3.848-3.848V950a3.824,3.824,0,0,1,7.649.035Z" transform="translate(-696.8 -946.201)" fill="#e0ebff"/>
          </g>
          <g id="Grupo_1043822" data-name="Grupo 1043822" transform="translate(8.836 15.135)">
            <path id="Trazado_773417" data-name="Trazado 773417" d="M1028.816,1178.6H985.1l-14.9,15.833v65.674a2.418,2.418,0,0,0,2.339,2.487h58.454V1180.78A2.175,2.175,0,0,0,1028.816,1178.6Z" transform="translate(-970.2 -1178.6)" fill="#fff"/>
          </g>
          <g id="Grupo_1043823" data-name="Grupo 1043823" transform="translate(8.836 15.138)">
            <path id="Trazado_773418" data-name="Trazado 773418" d="M1031,1180.88v81.811H972.539a2.414,2.414,0,0,1-2.339-2.487v-.675a3.719,3.719,0,0,1,3.72-3.72h45.62a4.568,4.568,0,0,0,4.568-4.568v-68.5a4.038,4.038,0,0,1,4.039-4.039h.669a2.18,2.18,0,0,1,2.18,2.18Z" transform="translate(-970.2 -1178.7)" fill="#dde3f0"/>
          </g>
          <g id="Grupo_1043824" data-name="Grupo 1043824" transform="translate(1.529 9.015)">
            <path id="Trazado_773419" data-name="Trazado 773419" d="M719.027,977.3a1.228,1.228,0,0,1-1.227-1.228V970.24a3.043,3.043,0,0,1,3.04-3.04h1.28a1.228,1.228,0,0,1,0,2.455h-1.28a.584.584,0,0,0-.585.582v5.834A1.229,1.229,0,0,1,719.027,977.3Z" transform="translate(-717.8 -967.2)" fill="#fff"/>
          </g>
          <g id="Grupo_1043825" data-name="Grupo 1043825" transform="translate(0 7.487)">
            <path id="Trazado_773420" data-name="Trazado 773420" d="M748.875,1013.692H668.958a3.961,3.961,0,0,1-3.958-3.958V918.357a3.961,3.961,0,0,1,3.958-3.958h25.314a.921.921,0,1,1,0,1.841H668.958a2.119,2.119,0,0,0-2.116,2.116v91.374a2.119,2.119,0,0,0,2.116,2.116h79.915a.922.922,0,0,1,0,1.844Z" transform="translate(-665 -914.4)" fill="#25417a"/>
          </g>
          <g id="Grupo_1043826" data-name="Grupo 1043826" transform="translate(76.623 40.36)">
            <path id="Trazado_773421" data-name="Trazado 773421" d="M3312.621,2073.286a.919.919,0,0,1-.92-.92v-21.545a.921.921,0,1,1,1.841,0v21.545A.921.921,0,0,1,3312.621,2073.286Z" transform="translate(-3311.7 -2049.9)" fill="#25417a"/>
          </g>
          <g id="Grupo_1043827" data-name="Grupo 1043827" transform="translate(48.272 7.487)">
            <path id="Trazado_773422" data-name="Trazado 773422" d="M2361.672,934.752a.919.919,0,0,1-.921-.921V918.358a2.119,2.119,0,0,0-2.116-2.116H2333.32a.921.921,0,1,1,0-1.841h25.314a3.961,3.961,0,0,1,3.958,3.958v15.474A.919.919,0,0,1,2361.672,934.752Z" transform="translate(-2332.4 -914.4)" fill="#25417a"/>
          </g>
          <g id="Grupo_1043828" data-name="Grupo 1043828" transform="translate(29.272 0.924)">
            <path id="Trazado_773423" data-name="Trazado 773423" d="M1694.2,692.312h-3.176a4.975,4.975,0,0,0-9.924,0h-3.176a1.82,1.82,0,0,0-1.821,1.821v11.656a1.82,1.82,0,0,0,1.821,1.821h16.273a1.821,1.821,0,0,0,1.821-1.821V694.133A1.814,1.814,0,0,0,1694.2,692.312Z" transform="translate(-1676.1 -687.7)" fill="#fffd94"/>
          </g>
          <g id="Grupo_1043829" data-name="Grupo 1043829" transform="translate(29.275 5.532)">
            <path id="Trazado_773424" data-name="Trazado 773424" d="M1696.118,848.724v11.655a1.824,1.824,0,0,1-1.824,1.824h-16.27a1.824,1.824,0,0,1-1.824-1.824,2.166,2.166,0,0,1,2.166-2.165H1690.3a1.824,1.824,0,0,0,1.824-1.824v-7.316a2.173,2.173,0,0,1,2.174-2.174A1.824,1.824,0,0,1,1696.118,848.724Z" transform="translate(-1676.2 -846.9)" fill="#ffd773"/>
          </g>
          <g id="Grupo_1043830" data-name="Grupo 1043830" transform="translate(29.744 6.001)">
            <path id="Trazado_773425" data-name="Trazado 773425" d="M1693.628,869.388a1.228,1.228,0,0,1-1.228-1.227v-3.277a1.786,1.786,0,0,1,1.783-1.783h1.28a1.228,1.228,0,1,1,0,2.455h-.605v2.606A1.232,1.232,0,0,1,1693.628,869.388Z" transform="translate(-1692.4 -863.1)" fill="#fff"/>
          </g>
          <g id="Grupo_1043831" data-name="Grupo 1043831" transform="translate(28.354 0)">
            <path id="Trazado_773426" data-name="Trazado 773426" d="M1663.415,677.556h-16.273a2.746,2.746,0,0,1-2.742-2.745V663.156a2.748,2.748,0,0,1,2.742-2.745h2.383a5.894,5.894,0,0,1,11.505,0h2.383a2.748,2.748,0,0,1,2.745,2.745v11.656A2.742,2.742,0,0,1,1663.415,677.556Zm-16.273-15.3a.9.9,0,0,0-.9.9v11.656a.9.9,0,0,0,.9.9h16.273a.9.9,0,0,0,.9-.9V663.156a.9.9,0,0,0-.9-.9h-3.176a.92.92,0,0,1-.918-.854,4.052,4.052,0,0,0-8.083,0,.922.922,0,0,1-.918.854Z" transform="translate(-1644.4 -655.8)" fill="#25417a"/>
          </g>
          <g id="Grupo_1043832" data-name="Grupo 1043832" transform="translate(32.737 12.177)">
            <path id="Trazado_773427" data-name="Trazado 773427" d="M1807.872,1078.241h-11.152a.921.921,0,0,1,0-1.841h11.152a.921.921,0,0,1,0,1.841Z" transform="translate(-1795.8 -1076.4)" fill="#25417a"/>
          </g>
          <g id="Grupo_1043833" data-name="Grupo 1043833" transform="translate(7.915 14.215)">
            <path id="Trazado_773428" data-name="Trazado 773428" d="M998.128,1232.636H941.144a2.748,2.748,0,0,1-2.745-2.745v-66.337a.921.921,0,0,1,.269-.651l15.833-15.833a.92.92,0,0,1,.651-.269h4.606a.921.921,0,1,1,0,1.841h-4.224l-15.295,15.292v65.958a.9.9,0,0,0,.9.9h56.986a.921.921,0,1,1,0,1.841Z" transform="translate(-938.4 -1146.8)" fill="#25417a"/>
          </g>
          <g id="Grupo_1043834" data-name="Grupo 1043834" transform="translate(68.711 40.357)">
            <path id="Trazado_773429" data-name="Trazado 773429" d="M3039.321,2077.262a.919.919,0,0,1-.921-.921V2050.72a.921.921,0,0,1,1.841,0v25.621A.923.923,0,0,1,3039.321,2077.262Z" transform="translate(-3038.4 -2049.8)" fill="#25417a"/>
          </g>
          <g id="Grupo_1043835" data-name="Grupo 1043835" transform="translate(48.272 14.215)">
            <path id="Trazado_773430" data-name="Trazado 773430" d="M2353.76,1160.424a.919.919,0,0,1-.921-.921v-9.962a.9.9,0,0,0-.9-.9h-18.615a.921.921,0,0,1,0-1.841h18.615a2.749,2.749,0,0,1,2.745,2.745v9.962A.921.921,0,0,1,2353.76,1160.424Z" transform="translate(-2332.4 -1146.8)" fill="#25417a"/>
          </g>
          <g id="Grupo_1043836" data-name="Grupo 1043836" transform="translate(7.915 14.215)">
            <path id="Trazado_773431" data-name="Trazado 773431" d="M952.667,1164.474H939.321a.921.921,0,1,1,0-1.841h13.346a1.569,1.569,0,0,0,1.566-1.566v-13.346a.921.921,0,1,1,1.841,0v13.346A3.411,3.411,0,0,1,952.667,1164.474Z" transform="translate(-938.4 -1146.8)" fill="#25417a"/>
          </g>
          <g id="Grupo_1043837" data-name="Grupo 1043837" transform="translate(30.499 46.561)">
            <path id="Trazado_773432" data-name="Trazado 773432" d="M1751.1,2265.941h-31.683a.921.921,0,0,1,0-1.841H1751.1a.921.921,0,0,1,0,1.841Z" transform="translate(-1718.5 -2264.1)" fill="#25417a"/>
          </g>
          <g id="Grupo_1043838" data-name="Grupo 1043838" transform="translate(30.497 39.242)">
            <path id="Trazado_773433" data-name="Trazado 773433" d="M1737.088,2013.141h-17.767a.921.921,0,0,1,0-1.841h17.767a.921.921,0,1,1,0,1.841Z" transform="translate(-1718.4 -2011.3)" fill="#25417a"/>
          </g>
          <g id="Grupo_1043839" data-name="Grupo 1043839" transform="translate(14.447 39.241)">
            <path id="Trazado_773434" data-name="Trazado 773434" d="M1168.444,2020.422a.915.915,0,0,1-.663-.284l-3.518-3.659a.921.921,0,0,1,1.329-1.277l2.834,2.947,5.964-6.586a.92.92,0,1,1,1.364,1.236l-6.627,7.316a.919.919,0,0,1-.669.3A.019.019,0,0,1,1168.444,2020.422Z" transform="translate(-1164.006 -2011.261)" fill="#25417a"/>
          </g>
          <g id="Grupo_1043840" data-name="Grupo 1043840" transform="translate(30.499 64.198)">
            <path id="Trazado_773435" data-name="Trazado 773435" d="M1751.1,2875.141h-31.683a.921.921,0,0,1,0-1.841H1751.1a.921.921,0,0,1,0,1.841Z" transform="translate(-1718.5 -2873.3)" fill="#25417a"/>
          </g>
          <g id="Grupo_1043841" data-name="Grupo 1043841" transform="translate(30.497 56.879)">
            <path id="Trazado_773436" data-name="Trazado 773436" d="M1737.088,2622.341h-17.767a.921.921,0,0,1,0-1.841h17.767a.921.921,0,1,1,0,1.841Z" transform="translate(-1718.4 -2620.5)" fill="#25417a"/>
          </g>
          <g id="Grupo_1043842" data-name="Grupo 1043842" transform="translate(14.447 56.878)">
            <path id="Trazado_773437" data-name="Trazado 773437" d="M1168.444,2629.622a.915.915,0,0,1-.663-.284l-3.518-3.659a.921.921,0,0,1,1.329-1.277l2.834,2.947,5.964-6.586a.92.92,0,1,1,1.364,1.236l-6.627,7.316a.92.92,0,0,1-.669.3A.019.019,0,0,1,1168.444,2629.622Z" transform="translate(-1164.006 -2620.461)" fill="#25417a"/>
          </g>
          <g id="Grupo_1043843" data-name="Grupo 1043843" transform="translate(30.499 81.835)">
            <path id="Trazado_773438" data-name="Trazado 773438" d="M1744.613,3484.341h-25.193a.921.921,0,1,1,0-1.841h25.193a.921.921,0,1,1,0,1.841Z" transform="translate(-1718.5 -3482.5)" fill="#25417a"/>
          </g>
          <g id="Grupo_1043844" data-name="Grupo 1043844" transform="translate(30.497 74.516)">
            <path id="Trazado_773439" data-name="Trazado 773439" d="M1737.088,3231.541h-17.767a.921.921,0,0,1,0-1.841h17.767a.921.921,0,1,1,0,1.841Z" transform="translate(-1718.4 -3229.7)" fill="#25417a"/>
          </g>
          <g id="Grupo_1043845" data-name="Grupo 1043845" transform="translate(14.444 74.518)">
            <path id="Trazado_773440" data-name="Trazado 773440" d="M1168.347,3238.919a.916.916,0,0,1-.663-.284l-3.52-3.656a.921.921,0,1,1,1.329-1.277l2.834,2.947,5.964-6.586a.92.92,0,0,1,1.364,1.236l-6.627,7.316a.92.92,0,0,1-.669.3A.017.017,0,0,1,1168.347,3238.919Z" transform="translate(-1163.906 -3229.761)" fill="#25417a"/>
          </g>
        </g>
        <g id="Grupo_1043859" data-name="Grupo 1043859" transform="translate(718.153 681.796)">
          <g id="Grupo_1043847" data-name="Grupo 1043847" transform="translate(0.918 0.922)">
            <path id="Trazado_773441" data-name="Trazado 773441" d="M2543.07,1599.96l-10.37-7.183,10.373-7.177Z" transform="translate(-2532.7 -1585.6)" fill="#fff"/>
          </g>
          <g id="Grupo_1043848" data-name="Grupo 1043848" transform="translate(44.986 0.928)">
            <path id="Trazado_773442" data-name="Trazado 773442" d="M4054.906,1585.8h3.99a3.192,3.192,0,0,1,3.19,3.193l0,7.976a3.192,3.192,0,0,1-3.193,3.19H4054.9Z" transform="translate(-4054.9 -1585.8)" fill="#fffd94"/>
          </g>
          <g id="Grupo_1043849" data-name="Grupo 1043849" transform="translate(11.485 0.928)">
            <path id="Trazado_773443" data-name="Trazado 773443" d="M2897.7,1585.8h33.7v14.359h-33.7Z" transform="translate(-2897.7 -1585.8)" fill="#ff8a90"/>
          </g>
          <g id="Grupo_1043850" data-name="Grupo 1043850" transform="translate(45.183 4.917)">
            <path id="Trazado_773444" data-name="Trazado 773444" d="M4068.689,1723.6v7.183a3.193,3.193,0,0,1-3.19,3.19h-3.8v-7.183h3.8A3.189,3.189,0,0,0,4068.689,1723.6Z" transform="translate(-4061.7 -1723.6)" fill="#ffd773"/>
          </g>
          <g id="Grupo_1043851" data-name="Grupo 1043851" transform="translate(11.485 8.102)">
            <path id="Trazado_773445" data-name="Trazado 773445" d="M2931.2,1840.788h.191v.006l-33.7-.012V1833.6l33.5.012Z" transform="translate(-2897.7 -1833.6)" fill="#ff7078"/>
          </g>
          <g id="Grupo_1043852" data-name="Grupo 1043852" transform="translate(45.18 8.108)">
            <path id="Trazado_773446" data-name="Trazado 773446" d="M4061.606,1833.8l-.006.006v-.006Z" transform="translate(-4061.6 -1833.8)" fill="#ff8a90"/>
          </g>
          <g id="Grupo_1043853" data-name="Grupo 1043853" transform="translate(0.918 0.922)">
            <path id="Trazado_773447" data-name="Trazado 773447" d="M2543.07,1599.96l-10.37-7.183,10.373-7.177Z" transform="translate(-2532.7 -1585.6)" fill="#fff"/>
          </g>
          <g id="Grupo_1043854" data-name="Grupo 1043854" transform="translate(12.006 1.446)">
            <path id="Trazado_773448" data-name="Trazado 773448" d="M2916.928,1608.876a1.228,1.228,0,0,1-1.228-1.227v-2.721a1.226,1.226,0,0,1,1.228-1.228h3.28a1.228,1.228,0,0,1,0,2.455h-2.053v1.494A1.228,1.228,0,0,1,2916.928,1608.876Z" transform="translate(-2915.7 -1603.7)" fill="#fff"/>
          </g>
          <g id="Grupo_1043855" data-name="Grupo 1043855" transform="translate(10.561 0.002)">
            <path id="Trazado_773449" data-name="Trazado 773449" d="M2900.422,1570.012l-33.7-.012a.919.919,0,0,1-.921-.921l0-14.359a.934.934,0,0,1,.269-.651.916.916,0,0,1,.651-.269l33.7.012a.919.919,0,0,1,.921.921l0,14.36a.932.932,0,0,1-.269.651A.921.921,0,0,1,2900.422,1570.012Zm-32.781-1.85,31.86.012,0-12.518-31.86-.012Z" transform="translate(-2865.8 -1553.8)" fill="#25417a"/>
          </g>
          <g id="Grupo_1043856" data-name="Grupo 1043856" transform="translate(0 0)">
            <path id="Trazado_773450" data-name="Trazado 773450" d="M2512.288,1569.946a.906.906,0,0,1-.524-.165L2501.4,1562.6a.921.921,0,0,1,0-1.514l10.373-7.177a.921.921,0,1,1,1.048,1.514l-9.279,6.421,9.276,6.424a.922.922,0,0,1-.527,1.679Z" transform="translate(-2501 -1553.743)" fill="#25417a"/>
          </g>
          <g id="Grupo_1043857" data-name="Grupo 1043857" transform="translate(44.069 0.01)">
            <path id="Trazado_773451" data-name="Trazado 773451" d="M4028.11,1570.3h-3.989a.921.921,0,1,1,0-1.841h3.989a2.273,2.273,0,0,0,2.27-2.27l0-7.976a2.274,2.274,0,0,0-2.27-2.273h-3.99a.921.921,0,0,1,0-1.841h3.99a4.111,4.111,0,0,1,4.111,4.111l0,7.976A4.116,4.116,0,0,1,4028.11,1570.3Z" transform="translate(-4023.2 -1554.1)" fill="#25417a"/>
          </g>
          <g id="Grupo_1043858" data-name="Grupo 1043858" transform="translate(15.9 7.187)">
            <path id="Trazado_773452" data-name="Trazado 773452" d="M3074.148,1803.841h-23.027a.921.921,0,0,1,0-1.841h23.027a.921.921,0,0,1,0,1.841Z" transform="translate(-3050.2 -1802)" fill="#25417a"/>
          </g>
        </g>
        <g id="Grupo_1043867" data-name="Grupo 1043867" transform="translate(725.567 716.896)">
          <g id="Grupo_1043860" data-name="Grupo 1043860" transform="translate(0.924 0.927)">
            <circle id="Elipse_4971" data-name="Elipse 4971" cx="21.916" cy="21.916" r="21.916" fill="#fffd94"/>
          </g>
          <g id="Grupo_1043861" data-name="Grupo 1043861" transform="translate(4.697 4.755)">
            <path id="Trazado_773453" data-name="Trazado 773453" d="M2954.825,2961.843a21.939,21.939,0,0,1-35.525-1.048,21.918,21.918,0,0,0,30.5-30.4c.339.22.669.46.993.712A21.917,21.917,0,0,1,2954.825,2961.843Z" transform="translate(-2919.3 -2930.4)" fill="#ffd773"/>
          </g>
          <g id="Grupo_1043862" data-name="Grupo 1043862" transform="translate(3.988 3.525)">
            <path id="Trazado_773454" data-name="Trazado 773454" d="M2896.048,2899a1.208,1.208,0,0,1-.582-.148,1.227,1.227,0,0,1-.5-1.662,21.793,21.793,0,0,1,1.861-2.875,21,21,0,0,1,7.756-6.262,1.228,1.228,0,0,1,1.048,2.221,18.565,18.565,0,0,0-6.855,5.538,19.131,19.131,0,0,0-1.65,2.545A1.233,1.233,0,0,1,2896.048,2899Z" transform="translate(-2894.821 -2887.936)" fill="#fff"/>
          </g>
          <g id="Grupo_1043863" data-name="Grupo 1043863" transform="translate(0 0)">
            <path id="Trazado_773455" data-name="Trazado 773455" d="M2779.863,2811.852a22.883,22.883,0,1,1,3.017-.2A23.076,23.076,0,0,1,2779.863,2811.852Zm.09-43.837a21.343,21.343,0,0,0-2.773.182,20.907,20.907,0,1,0,2.773-.182Z" transform="translate(-2757.07 -2766.169)" fill="#25417a"/>
          </g>
          <g id="Grupo_1043864" data-name="Grupo 1043864" transform="translate(14.554 10.927)">
            <path id="Trazado_773456" data-name="Trazado 773456" d="M3271.554,3167.429h-6.934a4.823,4.823,0,0,1-4.817-4.817v-2.223a.921.921,0,1,1,1.841,0v2.223a2.976,2.976,0,0,0,2.973,2.973h6.934a2.978,2.978,0,0,0,2.976-2.973v-3.2a2.976,2.976,0,0,0-2.976-2.973h-6.934a4.823,4.823,0,0,1-4.817-4.817v-3.2a4.823,4.823,0,0,1,4.817-4.817h6.934a4.823,4.823,0,0,1,4.817,4.817v2.154a.921.921,0,0,1-1.841,0v-2.154a2.976,2.976,0,0,0-2.976-2.973h-6.934a2.976,2.976,0,0,0-2.973,2.973v3.2a2.979,2.979,0,0,0,2.973,2.976h6.934a4.823,4.823,0,0,1,4.817,4.817v3.2A4.82,4.82,0,0,1,3271.554,3167.429Z" transform="translate(-3259.8 -3143.6)" fill="#25417a"/>
          </g>
          <g id="Grupo_1043865" data-name="Grupo 1043865" transform="translate(21.922 32.915)">
            <path id="Trazado_773457" data-name="Trazado 773457" d="M3515.221,3910.132a.919.919,0,0,1-.92-.921v-5.191a.921.921,0,1,1,1.841,0v5.191A.921.921,0,0,1,3515.221,3910.132Z" transform="translate(-3514.3 -3903.1)" fill="#25417a"/>
          </g>
          <g id="Grupo_1043866" data-name="Grupo 1043866" transform="translate(21.922 5.739)">
            <path id="Trazado_773458" data-name="Trazado 773458" d="M3515.221,2971.432a.919.919,0,0,1-.92-.921v-5.191a.921.921,0,1,1,1.841,0v5.191A.921.921,0,0,1,3515.221,2971.432Z" transform="translate(-3514.3 -2964.4)" fill="#25417a"/>
          </g>
        </g>
      </g>
    </g>
  </g>
</svg>
