<svg xmlns="http://www.w3.org/2000/svg" width="143" height="143" viewBox="0 0 143 143">
  <g id="Grupo_1043921" data-name="Grupo 1043921" transform="translate(-1079 -3740)">
    <g id="Grupo_1043882" data-name="Grupo 1043882" transform="translate(0 601)">
      <g id="Elipse_4759" data-name="Elipse 4759" transform="translate(1079 3139)" fill="#fff8e8" stroke="#452d9e" stroke-width="1">
        <circle cx="71.5" cy="71.5" r="71.5" stroke="none"/>
        <circle cx="71.5" cy="71.5" r="71" fill="none"/>
      </g>
    </g>
    <g id="adn_1_" data-name="adn (1)" transform="translate(1118 3778.957)">
      <path id="Trazado_773580" data-name="Trazado 773580" d="M15.751,346.049c0,5.122-7.751,5.133-7.751,0,0-6.023,2.521-10.416,7.352-13.942a4.39,4.39,0,0,1,7.42,4.454C18.5,339.047,15.751,341.186,15.751,346.049Z" transform="translate(-6.905 -285.268)" fill="#ffa4b8"/>
      <path id="Trazado_773581" data-name="Trazado 773581" d="M18.539,343.939c-4.656,3.526-6.98,7.884-6.98,13.666a3.854,3.854,0,0,0,.608,2.083A3.874,3.874,0,0,1,8,355.826c0-6.023,2.521-10.416,7.352-13.942a37.548,37.548,0,0,0,3.187,2.056Z" transform="translate(-6.905 -295.045)" fill="#ffbfcb"/>
      <path id="Trazado_773582" data-name="Trazado 773582" d="M37.545,166.872c0,5.132-7.751,5.122-7.751,0C29.795,154.53,8,157.3,8,138.989c0-5.937,2.45-10.369,7.352-13.941,3.24-4.678,10.246-.742,7.42,4.453-4.508,2.623-7.021,4.773-7.021,9.488,0,12.328,21.795,9.711,21.795,27.884Z" transform="translate(-6.905 -106.092)" fill="#b2a3fa"/>
      <path id="Trazado_773583" data-name="Trazado 773583" d="M23.31,126.132a4.551,4.551,0,0,0-3.3,2.063c-10.01,7.293-9.334,20.241-1.459,26.771C13.218,151.861,8,147.947,8,138.988c0-5.937,2.45-10.37,7.352-13.941A4.392,4.392,0,0,1,23.31,126.132Z" transform="translate(-6.905 -106.091)" fill="#c0b3ff"/>
      <path id="Trazado_773584" data-name="Trazado 773584" d="M128.13,12.1c0,5.938-2.451,10.369-7.352,13.942a4.353,4.353,0,0,1-7.42-4.454c4.273-2.486,7.021-4.625,7.021-9.488,0-5.129,7.751-5.127,7.751,0Z" transform="translate(-97.489 -7.09)" fill="#b2a3fa"/>
      <path id="Trazado_773585" data-name="Trazado 773585" d="M121.739,11.679a1.893,1.893,0,0,1,2.366,2.954c-3.26,2.768,2.18,6.331-8.283,12.417a4.705,4.705,0,0,0-.3,2.9,4.239,4.239,0,0,1-2.168-5.775c4.274-2.486,7.021-4.626,7.021-9.488A3.681,3.681,0,0,1,121.739,11.679Z" transform="translate(-97.49 -9.674)" fill="#c0b3ff"/>
      <path id="Trazado_773586" data-name="Trazado 773586" d="M37.545,39.8c0,6.066-2.568,10.46-7.352,13.941-.018.005-.037.01-.055.014-2.378-1.688-5-3.02-7.355-4.424,0-.014-.007-.029-.01-.042,4.509-2.623,7.021-4.773,7.021-9.488C29.795,27.315,8,30.312,8,11.918a3.875,3.875,0,1,1,7.751,0C15.751,24.124,37.545,21.724,37.545,39.8Z" transform="translate(-6.905 -6.905)" fill="#ffa4b8"/>
      <path id="Trazado_773587" data-name="Trazado 773587" d="M126.227,209.239c0,4.4-2.189,6.568-6.148,8.969-1.385-.813-2.6-1.453-4.159-2.356,4.509-2.623,7.021-4.773,7.021-9.488a8.263,8.263,0,0,0-1.671-5.342c3.2,2.13,4.957,4.279,4.957,8.216Z" transform="translate(-100.051 -173.467)" fill="#ffbfcb"/>
      <path id="Trazado_773588" data-name="Trazado 773588" d="M11.285,14.793A15.765,15.765,0,0,0,15.48,25.951c-.042-.029-.085-.06-.127-.09C10.458,22.293,8,17.865,8,11.918a3.876,3.876,0,0,1,7.629-.971A3.873,3.873,0,0,0,11.285,14.793Z" transform="translate(-6.905 -6.905)" fill="#ffbfcb"/>
      <path id="Trazado_773589" data-name="Trazado 773589" d="M353.573,350.824c1.213-3.035,5.8-1.32,4.623,1.726a9.224,9.224,0,1,1-11.925-11.925c3-1.158,4.786,3.4,1.726,4.623a4.29,4.29,0,1,0,5.576,5.576Z" transform="translate(-293.773 -293.798)" fill="#ffe773"/>
      <path id="Trazado_773590" data-name="Trazado 773590" d="M342.978,350.765a9.244,9.244,0,0,0,4.4,7.422,9.224,9.224,0,0,1-1.1-17.561,2.3,2.3,0,0,1,2.93.991C346.087,342.367,342.767,346.175,342.978,350.765Z" transform="translate(-293.773 -293.8)" fill="#fff0a6"/>
      <g id="Grupo_1043920" data-name="Grupo 1043920" transform="translate(0 0.043)">
        <path id="Trazado_773591" data-name="Trazado 773591" d="M31.736,5.195c0-6.236-9.214-6.733-9.909-.559H9.909C9.214-1.539,0-1.04,0,5.195A17.034,17.034,0,0,0,6.657,19.136,17.036,17.036,0,0,0,0,33.078,17.035,17.035,0,0,0,6.657,47.02,17.036,17.036,0,0,0,0,60.962c0,6.236,9.214,6.733,9.909.559H21.827c.695,6.175,9.909,5.676,9.909-.559a17.034,17.034,0,0,0-6.657-13.941,17.036,17.036,0,0,0,6.657-13.942,17.035,17.035,0,0,0-6.657-13.941A17.036,17.036,0,0,0,31.736,5.195ZM10.073,6.826h11.6c-.476,2.854-2.323,4.512-5.8,6.586-3.328-1.982-5.288-3.667-5.794-6.586ZM2.19,60.962A15.008,15.008,0,0,1,8.468,48.377c1.618,1.113,3.315,2.059,4.981,2.986,4.8,2.676,7.6,4.4,8.214,7.968h-11.6a6.826,6.826,0,0,1,2.152-3.965A1.1,1.1,0,0,0,10.7,53.788a9.4,9.4,0,0,0-2.95,7.174c0,3.68-5.561,3.676-5.561,0Zm27.355,0c0,3.68-5.561,3.675-5.561,0,0-5.938-3.6-8.243-9.47-11.513C8.459,46.077,2.19,42.367,2.19,33.078A15.008,15.008,0,0,1,8.468,20.493c6.254,4.3,12.643,5.7,13.268,11.49H10a7.013,7.013,0,0,1,2.511-4.769,1.1,1.1,0,0,0-1.46-1.633,9.3,9.3,0,0,0-3.3,7.5c0,5.251,2.869,7.573,7.529,10.411,4.841,2.948,14.266,6.239,14.266,17.472ZM10,34.174H21.741c-.328,3.19-2.184,4.922-5.875,7.122C12.341,39.2,10.351,37.428,10,34.174Zm19.546-1.1a15.008,15.008,0,0,1-6.278,12.585c-1.728-1.188-3.513-2.165-5.233-3.127,3.379-2.143,5.951-4.625,5.951-9.459C23.985,19.755,2.19,22.8,2.19,5.195c0-3.68,5.561-3.675,5.561,0,0,13.1,21.795,10.473,21.795,27.883Zm-6.278-15.3c-1.7-1.169-3.459-2.137-5.233-3.127,3.76-2.384,5.951-4.94,5.951-9.459,0-3.68,5.561-3.675,5.561,0A15.008,15.008,0,0,1,23.268,17.78Z" transform="translate(0 -0.224)"/>
        <path id="Trazado_773592" data-name="Trazado 773592" d="M345.654,343.447a3.195,3.195,0,1,1-4.152-4.152c4.4-1.758,1.821-8.339-2.527-6.661a10.318,10.318,0,1,0,13.34,13.34C354.014,341.57,347.391,339.1,345.654,343.447Zm4.618,1.739a8.128,8.128,0,1,1-10.508-10.508,1.372,1.372,0,0,1,.926,2.584,5.385,5.385,0,1,0,7,7A1.372,1.372,0,0,1,350.272,345.185Z" transform="translate(-286.871 -286.87)"/>
        <path id="Trazado_773593" data-name="Trazado 773593" d="M254.74,186.632a1.1,1.1,0,1,0,0,2.19h11.826v6.107a1.1,1.1,0,1,0,2.19,0v-14.4a1.1,1.1,0,1,0-2.19,0v6.107Z" transform="translate(-218.923 -154.873)"/>
        <path id="Trazado_773594" data-name="Trazado 773594" d="M248.644,313.731l-3.126-3.427a1.1,1.1,0,0,0-.809-.357h-8.549a1.1,1.1,0,1,0,0,2.19h8.066l2.8,3.07a1.1,1.1,0,0,0,1.618-1.476Z" transform="translate(-202.886 -267.524)"/>
        <path id="Trazado_773595" data-name="Trazado 773595" d="M236.16,134.725h8.549a1.1,1.1,0,0,0,.809-.357l3.126-3.427a1.1,1.1,0,1,0-1.618-1.476l-2.8,3.07H236.16a1.1,1.1,0,1,0,0,2.19Z" transform="translate(-202.886 -111.44)"/>
        <path id="Trazado_773596" data-name="Trazado 773596" d="M349.571,16.96h11.708a1.1,1.1,0,0,0,0-2.19H350.666V1.138a1.1,1.1,0,0,0-2.19,0V15.865A1.1,1.1,0,0,0,349.571,16.96Z" transform="translate(-300.772 -0.043)"/>
        <path id="Trazado_773597" data-name="Trazado 773597" d="M387.333,71.2h3.8a1.1,1.1,0,1,0,0-2.19h-3.8a1.1,1.1,0,0,0,0,2.19Z" transform="translate(-333.365 -59.57)"/>
        <path id="Trazado_773598" data-name="Trazado 773598" d="M387.333,31.2H392.5a1.1,1.1,0,0,0,0-2.19h-5.169a1.1,1.1,0,0,0,0,2.19Z" transform="translate(-333.365 -25.046)"/>
        <path id="Trazado_773599" data-name="Trazado 773599" d="M384.226,233.138a1.1,1.1,0,0,0,1.1,1.1H393.8a1.1,1.1,0,0,0,0-2.19h-8.479A1.1,1.1,0,0,0,384.226,233.138Z" transform="translate(-331.628 -200.284)"/>
        <path id="Trazado_773600" data-name="Trazado 773600" d="M385.321,190.459h5.458a1.1,1.1,0,1,0,0-2.19h-5.458a1.1,1.1,0,0,0,0,2.19Z" transform="translate(-331.628 -162.502)"/>
        <path id="Trazado_773601" data-name="Trazado 773601" d="M393.517,275.818h-8.2a1.1,1.1,0,0,0,0,2.19h8.2a1.1,1.1,0,0,0,0-2.19Z" transform="translate(-331.628 -238.067)"/>
      </g>
    </g>
  </g>
</svg>
