<svg xmlns="http://www.w3.org/2000/svg" width="143" height="143" viewBox="0 0 143 143">
  <g id="Grupo_1043912" data-name="Grupo 1043912" transform="translate(4545.5 7989)">
    <g id="Elipse_4764" data-name="Elipse 4764" transform="translate(-4545.5 -7989)" fill="#fff8e8" stroke="#452d9e" stroke-width="1">
      <circle cx="71.5" cy="71.5" r="71.5" stroke="none"/>
      <circle cx="71.5" cy="71.5" r="71" fill="none"/>
    </g>
    <g id="jeringuilla" transform="translate(-4516.412 -7964.964)">
      <g id="Grupo_1043910" data-name="Grupo 1043910" transform="translate(16.975 12.577)">
        <g id="Grupo_1043908" data-name="Grupo 1043908" transform="translate(0 0)">
          <path id="Trazado_773547" data-name="Trazado 773547" d="M241.819,174.062,236.2,183.8l-10.938-6.332-4.977,8.621,5.744,3.317-2.486,4.306a4.983,4.983,0,0,0,1.824,6.806l2.157,1.246-2.491,4.315a4.983,4.983,0,0,0,1.824,6.806l9.285,5.36a9.965,9.965,0,0,0,3.211,1.176l11.355,1.48,7.538,4.352h9.14V200.33l-3.6-2.08-7.752-12.036a9.965,9.965,0,0,0-3.135-2.85l-3.7-2.139,2.919-5.057a1.661,1.661,0,0,0-.608-2.269l-2.877-1.661A4.983,4.983,0,0,0,241.819,174.062Z" transform="translate(-200.672 -150.343)" fill="#f9c88c"/>
          <path id="Trazado_773548" data-name="Trazado 773548" d="M342,186.214a9.965,9.965,0,0,0-3.135-2.85l-3.7-2.139,2.919-5.057a1.661,1.661,0,0,0-.608-2.269l-2.877-1.661a4.983,4.983,0,0,0-6.806,1.824l-3.744,6.485a4.983,4.983,0,0,0,1.811,6.8l4.874,2.827-2.053,3.556a8.3,8.3,0,0,0,3.04,11.344l21.639,12.474V200.331l-3.6-2.08Z" transform="translate(-286.642 -150.344)" fill="#f9c88c"/>
          <path id="Trazado_773549" data-name="Trazado 773549" d="M350.145,198.481l-5.8,10.051-10.965-6.33a4.988,4.988,0,0,1-1.824-6.806l3.71-6.427-7.742-4.491a1.663,1.663,0,0,1-.6-2.265l5.488-9.506a1.66,1.66,0,0,1,1.406-.828,4.983,4.983,0,0,0-6.026,2.188l-3.744,6.485a4.983,4.983,0,0,0,1.811,6.8l4.874,2.827-2.053,3.556a8.3,8.3,0,0,0,3.04,11.344l10.294,8.762,11.345,3.712V200.335Z" transform="translate(-286.642 -150.348)" fill="#ffe7e2"/>
          <path id="Trazado_773550" data-name="Trazado 773550" d="M135.465,58.661,128,71.584l-25.8-14.9,1.455-7.775,6.006-5.148Z" transform="translate(-102.204 -43.766)" fill="#a7eed4"/>
          <path id="Trazado_773551" data-name="Trazado 773551" d="M132.588,104.505l-5.8,10.046-23.936-13.82-.648,3.462,25.8,14.9,7.461-12.923Z" transform="translate(-102.204 -91.271)" fill="#69bdc6"/>
          <g id="Grupo_1043907" data-name="Grupo 1043907" transform="translate(16.395 5.756)">
            <path id="Trazado_773552" data-name="Trazado 773552" d="M249.467,290.75a4.972,4.972,0,0,0-1.82-6.792l-8.621-4.978-2.481,4.3a4.983,4.983,0,0,0,1.824,6.806l2.158,1.246,2.148,1.241A4.972,4.972,0,0,0,249.467,290.75Z" transform="translate(-230.07 -245.67)" fill="#ffcec4"/>
            <path id="Trazado_773553" data-name="Trazado 773553" d="M256.3,363.976a4.972,4.972,0,0,0-1.82-6.792L248,353.442l-2.481,4.3a4.983,4.983,0,0,0,1.824,6.806l2.166,1.251A4.972,4.972,0,0,0,256.3,363.976Z" transform="translate(-237.552 -307.765)" fill="#ffcec4"/>
            <path id="Trazado_773554" data-name="Trazado 773554" d="M212.381,209.251a4.983,4.983,0,0,1-6.806,1.824l-2.167-1.251a4.983,4.983,0,0,1,4.983-8.63l2.167,1.251A4.983,4.983,0,0,1,212.381,209.251Z" transform="translate(-200.916 -180.246)" fill="#ffcec4"/>
            <path id="Trazado_773555" data-name="Trazado 773555" d="M246.691,90.635a4.983,4.983,0,0,1-6.1-3.523l-.647-2.416a4.983,4.983,0,0,1,9.626-2.579l.647,2.416A4.983,4.983,0,0,1,246.691,90.635Z" transform="translate(-233.317 -78.422)" fill="#ffcec4"/>
          </g>
          <path id="Trazado_773556" data-name="Trazado 773556" d="M0,0H5.1V13.825H0Z" transform="matrix(0.866, 0.5, -0.5, 0.866, 38.021, 18.928)" fill="#a7eed4"/>
          <path id="Trazado_773557" data-name="Trazado 773557" d="M0,0H3.859V5.1H0Z" transform="matrix(0.5, -0.866, 0.866, 0.5, 31.109, 30.903)" fill="#69bdc6"/>
        </g>
        <g id="Grupo_1043909" data-name="Grupo 1043909" transform="translate(49.661 40.26)">
          <path id="Trazado_773558" data-name="Trazado 773558" d="M455.189,292.887l-4.343-6.718-2.092,1.353,4.669,7.222,3.863,2.23,1.246-2.157Z" transform="translate(-440.857 -286.169)"/>
          <path id="Trazado_773559" data-name="Trazado 773559" d="M0,0H2.491V2.491H0Z" transform="matrix(0.5, -0.866, 0.866, 0.5, 0, 18.558)"/>
        </g>
      </g>
      <g id="Grupo_1043911" data-name="Grupo 1043911" transform="translate(0 6.365)">
        <path id="Trazado_773560" data-name="Trazado 773560" d="M55.847,80.419A8.691,8.691,0,0,1,53.066,79.4l-2.813-1.624a6.212,6.212,0,0,0,.667-11.1l-.041-.024a6.212,6.212,0,0,0,1.486-10.563l1.807-3.13-2.157-1.246-1.77,3.066-6.213-3.6-1.053-.608a6.232,6.232,0,0,0,3.727-6.449l6.218,3.59a6.18,6.18,0,0,0,2.655,3.005l3.778,2.153L57.931,55.34a9.561,9.561,0,0,0,3.5,13.046l3.054,1.763,1.246-2.157-3.054-1.763a7.059,7.059,0,0,1-2.584-9.642l2.679-4.641-5.953-3.392a3.737,3.737,0,0,1-1.381-5.112L59.2,36.918a3.741,3.741,0,0,1,5.1-1.368L67.522,37.4l-3.731,6.517,4.784,2.762a8.662,8.662,0,0,1,2.726,2.47l1.88,2.934,2.1-1.344-1.931-3.011a11.137,11.137,0,0,0-3.527-3.206L67.195,43l3.727-6.531-5.371-3.078a6.219,6.219,0,0,0-5.446-.377L54.542,29.8l-3.174,5.5-3.16-1.825,6.7-11.611-2.157-1.246-1.517,2.627L50.823,21.7A6.224,6.224,0,0,0,39.606,19.9L24.3,11.057,18.289,16.2,1.246,6.365,0,8.522l17.043,9.84-1.455,7.775,10.436,6.025,1.246-2.157-8.908-5.143,1.212-6.477,5-4.288,2.394,1.382-1.849,3.2,2.157,1.246,1.849-3.2,2.253,1.3-3.089,5.35,2.157,1.246,3.089-5.35,2.108,1.217L33.8,23.69l2.157,1.246,1.849-3.2.87.5a6.191,6.191,0,0,0,.116,2.693l.647,2.417a6.219,6.219,0,0,0,6.8,4.567l-3.915,6.782L29.409,31.24,28.163,33.4l7.743,4.47a6.229,6.229,0,0,0-.667,11.122l5.39,3.1-1.863,3.227a6.228,6.228,0,0,0,2.28,8.508l1.079.623-1.868,3.236a6.228,6.228,0,0,0,2.28,8.508l9.284,5.36a11.178,11.178,0,0,0,3.613,1.323L66.6,84.334l7.323,4.228L75.171,86.4l-7.754-4.477Zm-.393-47.212,2.259,1.3-5.667,9.815-2.259-1.3ZM41.844,26.7,41.2,24.284a3.737,3.737,0,1,1,7.219-1.935l.647,2.417A3.737,3.737,0,0,1,41.844,26.7Zm5.116,8.935,3.16,1.825-2.492,4.317-3.16-1.825ZM38.885,48.206l-2.4-1.374a3.737,3.737,0,0,1,3.736-6.473l2.423,1.416a3.735,3.735,0,0,1-3.759,6.431Zm2.038,8.357,1.858-3.218L50.324,57.7A3.727,3.727,0,0,1,46.6,64.154l-4.306-2.486A3.741,3.741,0,0,1,40.923,56.563Zm5.024,18.723-2.167-1.251a3.737,3.737,0,0,1-1.368-5.1l1.858-3.218,5.4,3.119a3.727,3.727,0,0,1-3.727,6.455Z" transform="translate(0 -6.365)"/>
        <path id="Trazado_773561" data-name="Trazado 773561" d="M455.189,292.887l-4.343-6.718-2.092,1.353,4.669,7.222,3.863,2.23,1.246-2.157Z" transform="translate(-374.221 -239.697)"/>
        <path id="Trazado_773562" data-name="Trazado 773562" d="M0,0H2.491V2.491H0Z" transform="matrix(0.5, -0.866, 0.866, 0.5, 66.636, 65.031)"/>
      </g>
    </g>
  </g>
</svg>
