<svg xmlns="http://www.w3.org/2000/svg" width="131" height="122" viewBox="0 0 131 122">
  <g id="Grupo_1043978" data-name="Grupo 1043978" transform="translate(4791 7892)">
    <rect id="Rectángulo_355601" data-name="Rectángulo 355601" width="131" height="122" rx="12" transform="translate(-4791 -7892)" fill="#fff8e8"/>
    <g id="telemedicina" transform="translate(-4772.677 -7877.677)">
      <path id="Trazado_771100" data-name="Trazado 771100" d="M23.349,129.241a4.984,4.984,0,0,1-4.979-4.979v-45.1a4.984,4.984,0,0,1,4.979-4.979H93.275a4.984,4.984,0,0,1,4.979,4.979v45.1a4.984,4.984,0,0,1-4.979,4.979Z" transform="translate(-11.634 -47.117)" fill="#cecece"/>
      <g id="Grupo_1042659" data-name="Grupo 1042659" transform="translate(76.175 27.072)">
        <path id="Trazado_771101" data-name="Trazado 771101" d="M214.43,74.189h-5.465a4.984,4.984,0,0,1,4.979,4.979v45.1a4.984,4.984,0,0,1-4.979,4.979h5.465a4.984,4.984,0,0,0,4.979-4.979v-45.1A4.984,4.984,0,0,0,214.43,74.189Z" transform="translate(-208.965 -74.189)" fill="#e2e2e2"/>
      </g>
      <g id="Grupo_1042660" data-name="Grupo 1042660" transform="translate(6.736 27.072)">
        <path id="Trazado_771102" data-name="Trazado 771102" d="M23.835,124.263v-45.1a4.984,4.984,0,0,1,4.979-4.979H23.349a4.984,4.984,0,0,0-4.979,4.979v45.1a4.984,4.984,0,0,0,4.979,4.979h5.465A4.984,4.984,0,0,1,23.835,124.263Z" transform="translate(-18.37 -74.189)" fill="#afafaf"/>
      </g>
      <path id="Trazado_771103" data-name="Trazado 771103" d="M100.534,86.1v41.922a3.5,3.5,0,0,1-3.5,3.5H30.281a3.5,3.5,0,0,1-3.5-3.5V86.1a3.5,3.5,0,0,1,3.5-3.5H97.033a3.5,3.5,0,0,1,3.5,3.5Z" transform="translate(-16.979 -52.462)" fill="#bae9d9"/>
      <g id="Grupo_1042661" data-name="Grupo 1042661" transform="translate(74.589 30.136)">
        <path id="Trazado_771104" data-name="Trazado 771104" d="M210.075,82.6H204.61a3.5,3.5,0,0,1,3.5,3.5v41.922a3.5,3.5,0,0,1-3.5,3.5h5.465a3.5,3.5,0,0,0,3.5-3.5V86.1a3.5,3.5,0,0,0-3.5-3.5Z" transform="translate(-204.61 -82.598)" fill="#3bc192"/>
      </g>
      <g id="Grupo_1042662" data-name="Grupo 1042662" transform="translate(9.8 30.136)">
        <path id="Trazado_771105" data-name="Trazado 771105" d="M32.244,128.021V86.1a3.5,3.5,0,0,1,3.5-3.5H30.281a3.5,3.5,0,0,0-3.5,3.5v41.922a3.5,3.5,0,0,0,3.5,3.5h5.465A3.5,3.5,0,0,1,32.244,128.021Z" transform="translate(-26.779 -82.598)" fill="#3bc192"/>
      </g>
      <path id="Trazado_771106" data-name="Trazado 771106" d="M52.143,225.295H8.667l1.112,2.559a6.315,6.315,0,0,0,5.791,3.8H88.717a6.315,6.315,0,0,0,5.791-3.8l1.112-2.559Z" transform="translate(-5.466 -143.17)" fill="#cecece"/>
      <g id="Grupo_1042663" data-name="Grupo 1042663" transform="translate(77.785 82.125)">
        <path id="Trazado_771107" data-name="Trazado 771107" d="M220.288,225.295l-1.112,2.559a6.315,6.315,0,0,1-5.791,3.8h5.465a6.315,6.315,0,0,0,5.791-3.8l1.112-2.559Z" transform="translate(-213.384 -225.295)" fill="#e2e2e2"/>
      </g>
      <g id="Grupo_1042664" data-name="Grupo 1042664" transform="translate(3.2 82.125)">
        <path id="Trazado_771108" data-name="Trazado 771108" d="M15.243,227.854l-1.112-2.559H8.666l1.112,2.559a6.315,6.315,0,0,0,5.791,3.8h5.465A6.315,6.315,0,0,1,15.243,227.854Z" transform="translate(-8.666 -225.295)" fill="#afafaf"/>
      </g>
      <path id="Trazado_771109" data-name="Trazado 771109" d="M82.442,225.295l1.537,1.963a3.169,3.169,0,0,0,2.5,1.215H111.6a3.169,3.169,0,0,0,2.5-1.215l1.538-1.963Z" transform="translate(-52.363 -143.17)" fill="#fabf40"/>
      <g id="Grupo_1042667" data-name="Grupo 1042667" transform="translate(22.251 0.615)">
        <path id="Trazado_771110" data-name="Trazado 771110" d="M113.953,89.531H77L80.83,63.365h29.292Z" transform="translate(-71.154 -40.851)" fill="#707070"/>
        <path id="Trazado_771111" data-name="Trazado 771111" d="M60.955,148.777h48.852V128.383a18.642,18.642,0,0,0-18.642-18.642H79.6a18.642,18.642,0,0,0-18.642,18.642v20.394Z" transform="translate(-60.955 -70.331)" fill="#cecece"/>
        <circle id="Elipse_4771" data-name="Elipse 4771" cx="4.076" cy="4.076" r="4.076" transform="translate(5.809 18.438)" fill="#f9c88c"/>
        <circle id="Elipse_4772" data-name="Elipse 4772" cx="4.076" cy="4.076" r="4.076" transform="translate(34.892 18.438)" fill="#f9c88c"/>
        <path id="Trazado_771112" data-name="Trazado 771112" d="M118.75,97.684h-.535a5.188,5.188,0,0,1-5.188-5.188V82.376a5.188,5.188,0,0,1,5.188-5.188h.535a5.188,5.188,0,0,1,5.188,5.188V92.5A5.188,5.188,0,0,1,118.75,97.684Z" transform="translate(-94.056 -49.638)" fill="#f9c88c"/>
        <path id="Trazado_771113" data-name="Trazado 771113" d="M102.628,45.217A14.542,14.542,0,0,1,88.086,30.675V25.314a14.542,14.542,0,1,1,29.083,0v5.362A14.541,14.541,0,0,1,102.628,45.217Z" transform="translate(-78.201 -7.419)" fill="#f9c88c"/>
        <g id="Grupo_1042665" data-name="Grupo 1042665" transform="translate(17.236 23.321)">
          <circle id="Elipse_4773" data-name="Elipse 4773" cx="1.408" cy="1.408" r="1.408" fill="#3f3679"/>
          <circle id="Elipse_4774" data-name="Elipse 4774" cx="1.408" cy="1.408" r="1.408" transform="translate(11.565)" fill="#3f3679"/>
        </g>
        <g id="Grupo_1042666" data-name="Grupo 1042666" transform="translate(9.885 0)">
          <path id="Trazado_771114" data-name="Trazado 771114" d="M104.915,102.66l-4.649,2.873,3.065,6.273-2.346,1.9,9.386,15.537Z" transform="translate(-95.828 -65.83)" fill="#12263f"/>
          <path id="Trazado_771115" data-name="Trazado 771115" d="M133.455,102.66l4.649,2.873-3.065,6.273,2.346,1.9L128,129.241Z" transform="translate(-113.458 -65.83)" fill="#12263f"/>
          <path id="Trazado_771116" data-name="Trazado 771116" d="M161.636,48.885h-1.729l-1.869-8.3h3.6Z" transform="translate(-132.552 -26.371)" fill="#12263f"/>
          <path id="Trazado_771117" data-name="Trazado 771117" d="M88.086,24.083H90.4l1.758-6.424a26.654,26.654,0,0,0,25.3.46,1.588,1.588,0,0,0,.885-1.418,15.132,15.132,0,1,0-30.264,0Z" transform="translate(-88.086 -1.569)" fill="#12263f"/>
        </g>
        <circle id="Elipse_4775" data-name="Elipse 4775" cx="1.774" cy="1.774" r="1.774" transform="translate(36.124 59.034)" fill="#63bce7"/>
      </g>
      <circle id="Elipse_4776" data-name="Elipse 4776" cx="9.703" cy="9.703" r="9.703" transform="translate(73.335 0.614)" fill="#3bc192"/>
      <g id="Grupo_1042668" data-name="Grupo 1042668" transform="translate(80.305 0.614)">
        <path id="Trazado_771118" data-name="Trazado 771118" d="M223.032,1.568a9.706,9.706,0,0,0-2.732.393,9.7,9.7,0,0,1,0,18.62,9.7,9.7,0,1,0,2.732-19.013Z" transform="translate(-220.3 -1.568)" fill="#3bc192"/>
      </g>
      <path id="Trazado_771119" data-name="Trazado 771119" d="M222.96,15.741h-2.93a.431.431,0,0,1-.431-.431v-2.93a.431.431,0,0,0-.431-.431h-3.393a.431.431,0,0,0-.431.431v2.93a.431.431,0,0,1-.431.431h-2.93a.431.431,0,0,0-.431.431v3.393a.431.431,0,0,0,.431.431h2.93a.431.431,0,0,1,.431.431v2.93a.431.431,0,0,0,.431.431h3.393a.431.431,0,0,0,.431-.431v-2.93a.431.431,0,0,1,.431-.431h2.93a.431.431,0,0,0,.431-.431V16.172a.431.431,0,0,0-.431-.431Z" transform="translate(-134.432 -7.552)" fill="#e1f6ef"/>
      <circle id="Elipse_4777" data-name="Elipse 4777" cx="9.703" cy="9.703" r="9.703" transform="translate(0.614 0.614)" fill="#fabf40"/>
      <g id="Grupo_1042669" data-name="Grupo 1042669" transform="translate(0.614 0.614)">
        <path id="Trazado_771120" data-name="Trazado 771120" d="M7.033,11.271A9.705,9.705,0,0,1,14,1.961a9.7,9.7,0,1,0,0,18.62A9.705,9.705,0,0,1,7.033,11.271Z" transform="translate(-1.568 -1.568)" fill="#fabf40"/>
      </g>
      <g id="Grupo_1042671" data-name="Grupo 1042671" transform="translate(0.068 0.068)">
        <path id="Trazado_771121" data-name="Trazado 771121" d="M23.36,15.741h-2.93A.431.431,0,0,1,20,15.31v-2.93a.431.431,0,0,0-.431-.431H16.173a.431.431,0,0,0-.431.431v2.93a.431.431,0,0,1-.431.431H12.38a.431.431,0,0,0-.431.431v3.393A.431.431,0,0,0,12.38,20h2.93a.431.431,0,0,1,.431.431v2.93a.431.431,0,0,0,.431.431h3.393A.431.431,0,0,0,20,23.359v-2.93A.431.431,0,0,1,20.429,20h2.93a.431.431,0,0,0,.431-.431V16.172a.431.431,0,0,0-.431-.431Z" transform="translate(-7.62 -7.62)" fill="#e1f6ef"/>
        <g id="Grupo_1042670" data-name="Grupo 1042670" transform="translate(0)">
          <path id="Trazado_771122" data-name="Trazado 771122" d="M7.6,252.932H.614a.546.546,0,0,0,0,1.093H7.6a.546.546,0,0,0,0-1.093Z" transform="translate(-0.068 -160.806)" fill="#2f2f2f"/>
          <path id="Trazado_771123" data-name="Trazado 771123" d="M241.287,252.932H234.3a.546.546,0,1,0,0,1.093h6.987a.546.546,0,0,0,0-1.093Z" transform="translate(-148.615 -160.806)" fill="#2f2f2f"/>
          <path id="Trazado_771124" data-name="Trazado 771124" d="M100.892,252.932H30.657a.546.546,0,0,0,0,1.093h70.235a.546.546,0,0,0,0-1.093Z" transform="translate(-19.165 -160.806)" fill="#2f2f2f"/>
          <path id="Trazado_771125" data-name="Trazado 771125" d="M92.74,87.935H86.963a6.855,6.855,0,0,0,2.58-3.033l1.112-2.559a.547.547,0,0,0-.5-.764H84.926a5.514,5.514,0,0,0,2.24-4.432v-45.1a5.531,5.531,0,0,0-5.525-5.525h-17.3a4.613,4.613,0,0,0-2.578-7.984v-.893a2.123,2.123,0,0,0,1.181-1.9,15.679,15.679,0,1,0-31.357,0v2.8a4.613,4.613,0,0,0-2.577,7.984h-17.3a5.531,5.531,0,0,0-5.525,5.525v45.1a5.515,5.515,0,0,0,2.24,4.432H3.2a.547.547,0,0,0-.5.764L3.812,84.9a6.852,6.852,0,0,0,2.58,3.033H.614a.546.546,0,0,0,0,1.093H92.74a.546.546,0,0,0,0-1.093ZM63.9,64.718a.546.546,0,0,0-.546.546v13.25H47.224V64.179l9.308-15.407a.546.546,0,0,0-.124-.708L54.4,46.44l2.587-5.294a18.312,18.312,0,0,1,2.194.713,6.04,6.04,0,0,1,.422,2.21v15.1a2.321,2.321,0,1,0,1.093,0v-15.1a7.146,7.146,0,0,0-.192-1.624A18.023,18.023,0,0,1,70.557,58.668V78.515H64.444V65.265a.547.547,0,0,0-.547-.547Zm-34.439,0a.546.546,0,0,0-.546.546v13.25H22.8V58.667A18.031,18.031,0,0,1,32.852,42.446a7.139,7.139,0,0,0-.192,1.623v9.453a3.876,3.876,0,0,0-3.327,3.83V60.68a.546.546,0,0,0,1.093,0V57.353a2.78,2.78,0,1,1,5.561,0V60.68a.546.546,0,0,0,1.093,0V57.353a3.876,3.876,0,0,0-3.327-3.83V44.069a6.038,6.038,0,0,1,.422-2.21,18.269,18.269,0,0,1,2.194-.714l2.587,5.295-2.008,1.624a.546.546,0,0,0-.124.708l9.307,15.406V78.515H30V65.265A.546.546,0,0,0,29.458,64.718ZM13.3,78.515a2.958,2.958,0,0,1-2.955-2.955V33.638A2.958,2.958,0,0,1,13.3,30.683H30.269l-1.975,13.49a19.139,19.139,0,0,0-6.589,14.495V78.515H13.3ZM63.576,43A19.1,19.1,0,0,0,60,41.011a7.179,7.179,0,0,0-5.786-4.077,15.146,15.146,0,0,0,7.044-9.184c.028,0,.056,0,.085,0ZM57.269,40.09a.536.536,0,0,0-.2-.237L54.1,38.021A6.07,6.07,0,0,1,58.361,40.4C58,40.289,57.638,40.185,57.269,40.09Zm-3.9,6.927,1.976,1.6-7.5,12.412,4.66-22.706,3.562,2.2-2.847,5.829A.546.546,0,0,0,53.373,47.017Zm-6.7,14.291L44.093,48.716a5.705,5.705,0,0,0,2.317.491h.535a5.7,5.7,0,0,0,2.317-.491ZM40.129,46.352l-2.848-5.829,3.563-2.2L45.5,61.027l-7.5-12.412,1.976-1.6a.546.546,0,0,0,.148-.665Zm-3.843-6.5a.534.534,0,0,0-.2.237q-.554.143-1.093.315a6.069,6.069,0,0,1,4.258-2.384ZM49.55,47.312a4.608,4.608,0,0,1-2.6.8H46.41a4.607,4.607,0,0,1-2.6-.8l-1.872-9.121a15.031,15.031,0,0,0,9.489,0Zm11.123-28.8v4.073h-.745l-.846-3.757c.527-.2,1.056-.416,1.591-.657Zm-2.627.689.912,4.05a.546.546,0,0,0,.533.426h1.182v.2a14,14,0,1,1-27.99,0v-.2h1.771a.546.546,0,0,0,.527-.4l1.571-5.743A27.561,27.561,0,0,0,58.045,19.2ZM39.14,36.934a7.179,7.179,0,0,0-5.787,4.079,19.085,19.085,0,0,0-3.809,2.163l2.261-15.441c.1.007.193.014.291.015a15.149,15.149,0,0,0,7.044,9.184ZM60.149,60.2a1.228,1.228,0,1,1-1.228,1.228A1.229,1.229,0,0,1,60.149,60.2Zm4.673-16.234L62.877,30.683H80.053a2.958,2.958,0,0,1,2.955,2.955V75.559a2.958,2.958,0,0,1-2.955,2.955h-8.4V58.667a19.135,19.135,0,0,0-6.828-14.706Zm-.073-20.833a3.533,3.533,0,0,1-2.585,3.4,3.8,3.8,0,0,1-.605.115l-.052,0a15.087,15.087,0,0,0,.26-2.773V19.646a3.533,3.533,0,0,1,2.983,3.483ZM32.682,15.747a14.586,14.586,0,0,1,29.171,0,1.036,1.036,0,0,1-.583.929,26.325,26.325,0,0,1-24.763-.43.547.547,0,0,0-.823.315l-1.647,6.022H32.682V15.747Zm-4.076,7.382a3.532,3.532,0,0,1,2.983-3.483v4.225a15.088,15.088,0,0,0,.26,2.773,3.533,3.533,0,0,1-3.243-3.515ZM7.282,77.146v-45.1a4.437,4.437,0,0,1,4.432-4.432h19l-.289,1.971H13.3a4.052,4.052,0,0,0-4.048,4.048V75.559A4.052,4.052,0,0,0,13.3,79.607H80.053A4.052,4.052,0,0,0,84.1,75.559V33.638a4.052,4.052,0,0,0-4.048-4.048H62.717l-.289-1.971H81.64a4.437,4.437,0,0,1,4.432,4.432v45.1a4.437,4.437,0,0,1-4.432,4.432H11.714a4.437,4.437,0,0,1-4.432-4.432Zm54.871,5.525-.845,1.08a2.608,2.608,0,0,1-2.066,1.006H34.113a2.608,2.608,0,0,1-2.065-1.006l-.846-1.08ZM10.1,87.935a5.766,5.766,0,0,1-5.29-3.469l-.78-1.794H29.813l1.374,1.754a3.7,3.7,0,0,0,2.926,1.425h25.13a3.693,3.693,0,0,0,2.926-1.425l1.373-1.754H89.321l-.78,1.794a5.766,5.766,0,0,1-5.29,3.469Z" transform="translate(-0.068 -0.068)" fill="#2f2f2f"/>
          <path id="Trazado_771126" data-name="Trazado 771126" d="M127.046,74.371a.546.546,0,0,0,.546-.546V71.466a.546.546,0,1,0-1.093,0v2.358A.546.546,0,0,0,127.046,74.371Z" transform="translate(-80.437 -45.107)" fill="#2f2f2f"/>
          <path id="Trazado_771127" data-name="Trazado 771127" d="M109.689,60.222H105.7a.546.546,0,0,0,0,1.093h3.99a.546.546,0,1,0,0-1.093Z" transform="translate(-66.867 -38.306)" fill="#2f2f2f"/>
          <path id="Trazado_771128" data-name="Trazado 771128" d="M137.441,61.315h3.99a.546.546,0,0,0,0-1.093h-3.99a.546.546,0,1,0,0,1.093Z" transform="translate(-87.045 -38.306)" fill="#2f2f2f"/>
          <path id="Trazado_771129" data-name="Trazado 771129" d="M124.833,87.392a2.665,2.665,0,0,1-4.019,0,.547.547,0,1,0-.822.721,3.758,3.758,0,0,0,5.662,0,.547.547,0,0,0-.822-.721Z" transform="translate(-76.214 -55.459)" fill="#2f2f2f"/>
          <path id="Trazado_771130" data-name="Trazado 771130" d="M209.917,20.568a10.249,10.249,0,1,0-10.249-10.249A10.261,10.261,0,0,0,209.917,20.568Zm0-19.406a9.156,9.156,0,1,1-9.156,9.156A9.167,9.167,0,0,1,209.917,1.162Z" transform="translate(-126.948 -0.069)" fill="#2f2f2f"/>
          <path id="Trazado_771131" data-name="Trazado 771131" d="M211.024,19.59h2.816v2.816a.979.979,0,0,0,.978.978h3.393a.979.979,0,0,0,.978-.978V19.59H222a.979.979,0,0,0,.978-.978V15.219a.979.979,0,0,0-.978-.978h-2.816V11.426a.979.979,0,0,0-.978-.978h-3.393a.979.979,0,0,0-.978.978v2.816h-2.816a.979.979,0,0,0-.978.978v3.393A.98.98,0,0,0,211.024,19.59Zm.116-4.256h2.816a.979.979,0,0,0,.978-.978V11.54H218.1v2.816a.979.979,0,0,0,.978.978h2.816V18.5h-2.816a.979.979,0,0,0-.978.978v2.816h-3.163V19.475a.979.979,0,0,0-.978-.978h-2.816Z" transform="translate(-133.545 -6.666)" fill="#2f2f2f"/>
          <path id="Trazado_771132" data-name="Trazado 771132" d="M10.317,20.568A10.249,10.249,0,1,0,.068,10.318,10.261,10.261,0,0,0,10.317,20.568Zm0-19.406a9.156,9.156,0,1,1-9.156,9.156A9.167,9.167,0,0,1,10.317,1.162Z" transform="translate(-0.068 -0.069)" fill="#2f2f2f"/>
          <path id="Trazado_771133" data-name="Trazado 771133" d="M11.425,19.59H14.24v2.816a.979.979,0,0,0,.978.978h3.393a.979.979,0,0,0,.978-.978V19.59H22.4a.979.979,0,0,0,.978-.978V15.219a.979.979,0,0,0-.978-.978H19.589V11.426a.979.979,0,0,0-.978-.978H15.218a.979.979,0,0,0-.978.978v2.816H11.425a.979.979,0,0,0-.978.978v3.393a.979.979,0,0,0,.978.978Zm.115-4.256h2.816a.979.979,0,0,0,.978-.978V11.54H18.5v2.816a.979.979,0,0,0,.978.978H22.29V18.5H19.475a.979.979,0,0,0-.978.978v2.816H15.334V19.475a.979.979,0,0,0-.978-.978H11.54Z" transform="translate(-6.666 -6.666)" fill="#2f2f2f"/>
        </g>
      </g>
    </g>
  </g>
</svg>
