<svg xmlns="http://www.w3.org/2000/svg" width="131" height="122" viewBox="0 0 131 122">
  <g id="Grupo_1043979" data-name="Grupo 1043979" transform="translate(4791 7514)">
    <rect id="Rectángulo_355605" data-name="Rectángulo 355605" width="131" height="122" rx="12" transform="translate(-4791 -7514)" fill="#fff8e8"/>
    <g id="igualdad" transform="translate(-4779.109 -7508.703)">
      <g id="Grupo_1042674" data-name="Grupo 1042674" transform="translate(7.5 47.025)">
        <path id="Trazado_771134" data-name="Trazado 771134" d="M40.135,421.615H7.5v-8.952a7.252,7.252,0,0,1,5.36-7l8.057-2.177h5.8l8.057,2.177a7.252,7.252,0,0,1,5.36,7Z" transform="translate(-7.5 -371.936)" fill="#e7e0ff"/>
        <path id="Trazado_771135" data-name="Trazado 771135" d="M85.153,384.834h0a2.9,2.9,0,0,1-2.9-2.9v-4.714h5.8v4.714A2.9,2.9,0,0,1,85.153,384.834Z" transform="translate(-68.835 -350.386)" fill="#f6a96c"/>
        <path id="Trazado_771136" data-name="Trazado 771136" d="M55.988,290.346v9.791a7.615,7.615,0,0,0,7.615,7.615h0a7.615,7.615,0,0,0,7.615-7.615v-9.791Z" transform="translate(-47.285 -279.105)" fill="#fed2a4"/>
        <path id="Trazado_771137" data-name="Trazado 771137" d="M88.158,290.346v9.791a7.616,7.616,0,0,1-4.9,7.113,7.592,7.592,0,0,0,2.72.5h0a7.615,7.615,0,0,0,7.615-7.615v-9.791Z" transform="translate(-69.665 -279.105)" fill="#ffbd86"/>
        <path id="Trazado_771138" data-name="Trazado 771138" d="M39.825,245.483h2.9v-2.9s8.66-.1,11.723-3.626a5.5,5.5,0,0,0,3.507,3.626v2.9h2.9v-7.252a10.516,10.516,0,0,0-10.516-10.516h0a10.516,10.516,0,0,0-10.516,10.516v7.252Z" transform="translate(-34.023 -227.715)" fill="#12263f"/>
        <path id="Trazado_771139" data-name="Trazado 771139" d="M87.64,227.715h0a10.535,10.535,0,0,0-2.357.269,10.517,10.517,0,0,1,8.159,10.247v3.347a4.976,4.976,0,0,0,1.813,1v2.9h2.9v-7.252A10.516,10.516,0,0,0,87.64,227.715Z" transform="translate(-71.322 -227.715)" fill="#b0c0d2"/>
        <path id="Trazado_771140" data-name="Trazado 771140" d="M143.372,316.351h-2.531v-5.8h2.531a2.9,2.9,0,0,1,2.9,2.9h0A2.9,2.9,0,0,1,143.372,316.351Z" transform="translate(-116.909 -295.682)" fill="#f6a96c"/>
        <path id="Trazado_771141" data-name="Trazado 771141" d="M28.624,316.351h2.531v-5.8H28.624a2.9,2.9,0,0,0-2.9,2.9h0A2.9,2.9,0,0,0,28.624,316.351Z" transform="translate(-22.452 -295.682)" fill="#f6a96c"/>
      </g>
      <g id="Grupo_1042676" data-name="Grupo 1042676" transform="translate(64.068 47.025)">
        <rect id="Rectángulo_355606" data-name="Rectángulo 355606" width="21.032" height="19.581" transform="translate(5.802 18.856)" fill="#facfbc"/>
        <g id="Grupo_1042675" data-name="Grupo 1042675" transform="translate(0)">
          <path id="Trazado_771142" data-name="Trazado 771142" d="M355.306,421.615H322.671v-8.952a7.252,7.252,0,0,1,5.36-7l8.057-2.177h5.8l8.057,2.177a7.252,7.252,0,0,1,5.36,7v8.952Z" transform="translate(-322.671 -371.936)" fill="#3bc192"/>
          <path id="Trazado_771143" data-name="Trazado 771143" d="M382.148,381.934V377.22h-5.8v4.714l-4.61,1.246a7.614,7.614,0,0,0,15.022,0Z" transform="translate(-362.93 -350.386)" fill="#f6a96c"/>
          <path id="Trazado_771144" data-name="Trazado 771144" d="M371.159,290.346v9.791a7.615,7.615,0,0,0,7.615,7.615h0a7.615,7.615,0,0,0,7.615-7.615v-9.791Z" transform="translate(-362.456 -279.105)" fill="#fed2a4"/>
          <path id="Trazado_771145" data-name="Trazado 771145" d="M403.328,290.346v9.791a7.616,7.616,0,0,1-4.9,7.113,7.593,7.593,0,0,0,2.72.5h0a7.615,7.615,0,0,0,7.615-7.615v-9.791Z" transform="translate(-384.835 -279.105)" fill="#ffbd86"/>
          <path id="Trazado_771146" data-name="Trazado 771146" d="M365.512,237.3c1.653,4.433,7.615,5.284,7.615,5.284l2.9,2.9v-7.252a10.516,10.516,0,0,0-21.032,0v7.252l2.9-2.9S363.859,241.732,365.512,237.3Z" transform="translate(-349.194 -227.716)" fill="#facfbc"/>
          <path id="Trazado_771147" data-name="Trazado 771147" d="M402.81,227.715a10.536,10.536,0,0,0-2.357.269h0a10.517,10.517,0,0,1,8.159,10.247v3.9a12.141,12.141,0,0,0,1.813.451l2.9,2.9v-7.252A10.516,10.516,0,0,0,402.81,227.715Z" transform="translate(-386.492 -227.715)" fill="#ffe9e0"/>
          <path id="Trazado_771148" data-name="Trazado 771148" d="M458.543,316.351h-2.531v-5.8h2.531a2.9,2.9,0,0,1,2.9,2.9h0A2.9,2.9,0,0,1,458.543,316.351Z" transform="translate(-432.08 -295.682)" fill="#f6a96c"/>
          <path id="Trazado_771149" data-name="Trazado 771149" d="M343.795,316.351h2.531v-5.8h-2.531a2.9,2.9,0,0,0-2.9,2.9h0A2.9,2.9,0,0,0,343.795,316.351Z" transform="translate(-337.623 -295.682)" fill="#f6a96c"/>
        </g>
      </g>
      <circle id="Elipse_4782" data-name="Elipse 4782" cx="22.301" cy="22.301" r="22.301" transform="translate(29.801 7.5)" fill="#fabf40"/>
      <path id="Trazado_771150" data-name="Trazado 771150" d="M179.737,24.921a22.3,22.3,0,0,1-30.566,30.565,22.3,22.3,0,1,0,30.566-30.565Z" transform="translate(-116.243 -14.294)" fill="#ffe5ad"/>
      <path id="Trazado_771151" data-name="Trazado 771151" d="M214.427,91.353H198.109a2.72,2.72,0,0,1-2.72-2.72h0a2.72,2.72,0,0,1,2.72-2.72h16.318a2.72,2.72,0,0,1,2.72,2.72h0A2.719,2.719,0,0,1,214.427,91.353Z" transform="translate(-154.167 -64.34)" fill="#f2fbff"/>
      <path id="Trazado_771152" data-name="Trazado 771152" d="M214.427,151.962H198.109a2.72,2.72,0,0,1-2.72-2.72h0a2.72,2.72,0,0,1,2.72-2.72h16.318a2.72,2.72,0,0,1,2.72,2.72h0A2.719,2.719,0,0,1,214.427,151.962Z" transform="translate(-154.167 -114.071)" fill="#f2fbff"/>
      <path id="Trazado_771153" data-name="Trazado 771153" d="M20.916,403.48l-8.057,2.179a7.251,7.251,0,0,0-5.359,7v8.953H26.265" transform="translate(0 -324.908)" fill="none" stroke="#000" stroke-linecap="round" stroke-linejoin="round" stroke-miterlimit="10" stroke-width="1.2"/>
      <path id="Trazado_771154" data-name="Trazado 771154" d="M114.58,403.48l8.057,2.179a7.251,7.251,0,0,1,5.359,7v8.953h-7.589" transform="translate(-87.861 -324.908)" fill="none" stroke="#000" stroke-linecap="round" stroke-linejoin="round" stroke-miterlimit="10" stroke-width="1.2"/>
      <path id="Trazado_771155" data-name="Trazado 771155" d="M88.053,384.274v3.448a2.9,2.9,0,0,1-2.9,2.9h0a2.9,2.9,0,0,1-2.9-2.9v-3.448" transform="translate(-61.334 -309.149)" fill="none" stroke="#000" stroke-linecap="round" stroke-linejoin="round" stroke-miterlimit="10" stroke-width="1.2"/>
      <path id="Trazado_771156" data-name="Trazado 771156" d="M55.988,310.549v6.165a7.615,7.615,0,0,0,7.615,7.615h0a7.615,7.615,0,0,0,7.615-7.615v-6.165" transform="translate(-39.785 -248.657)" fill="none" stroke="#000" stroke-linecap="round" stroke-linejoin="round" stroke-miterlimit="10" stroke-width="1.2"/>
      <path id="Trazado_771157" data-name="Trazado 771157" d="M55.988,293.972s8.66-.1,11.723-3.626a5.5,5.5,0,0,0,3.507,3.626" transform="translate(-39.785 -232.08)" fill="none" stroke="#000" stroke-linecap="round" stroke-linejoin="round" stroke-miterlimit="10" stroke-width="1.2"/>
      <path id="Trazado_771158" data-name="Trazado 771158" d="M60.857,242.583v-4.351a10.516,10.516,0,0,0-10.516-10.516h0a10.516,10.516,0,0,0-10.516,10.516v4.351" transform="translate(-26.524 -180.691)" fill="none" stroke="#000" stroke-linecap="round" stroke-linejoin="round" stroke-miterlimit="10" stroke-width="1.2"/>
      <path id="Trazado_771159" data-name="Trazado 771159" d="M143.372,316.351h-2.531v-5.8h2.531a2.9,2.9,0,0,1,2.9,2.9h0A2.9,2.9,0,0,1,143.372,316.351Z" transform="translate(-109.409 -248.657)" fill="none" stroke="#000" stroke-linecap="round" stroke-linejoin="round" stroke-miterlimit="10" stroke-width="1.2"/>
      <path id="Trazado_771160" data-name="Trazado 771160" d="M28.624,316.351h2.531v-5.8H28.624a2.9,2.9,0,0,0-2.9,2.9h0A2.9,2.9,0,0,0,28.624,316.351Z" transform="translate(-14.952 -248.657)" fill="none" stroke="#000" stroke-linecap="round" stroke-linejoin="round" stroke-miterlimit="10" stroke-width="1.2"/>
      <line id="Línea_166" data-name="Línea 166" y1="4.714" transform="translate(12.939 91.989)" fill="none" stroke="#000" stroke-linecap="round" stroke-linejoin="round" stroke-miterlimit="10" stroke-width="1.2"/>
      <line id="Línea_167" data-name="Línea 167" y1="4.714" transform="translate(34.696 91.989)" fill="none" stroke="#000" stroke-linecap="round" stroke-linejoin="round" stroke-miterlimit="10" stroke-width="1.2"/>
      <line id="Línea_168" data-name="Línea 168" y1="12.785" transform="translate(90.901 67.664)" fill="none" stroke="#000" stroke-linecap="round" stroke-linejoin="round" stroke-miterlimit="10" stroke-width="1.2"/>
      <line id="Línea_169" data-name="Línea 169" y2="12.785" transform="translate(69.87 67.664)" fill="none" stroke="#000" stroke-linecap="round" stroke-linejoin="round" stroke-miterlimit="10" stroke-width="1.2"/>
      <path id="Trazado_771161" data-name="Trazado 771161" d="M336.086,403.48l-8.057,2.179a7.251,7.251,0,0,0-5.359,7v8.953h16.078" transform="translate(-258.602 -324.908)" fill="none" stroke="#000" stroke-linecap="round" stroke-linejoin="round" stroke-miterlimit="10" stroke-width="1.2"/>
      <path id="Trazado_771162" data-name="Trazado 771162" d="M429.75,403.48l8.057,2.179a7.251,7.251,0,0,1,5.359,7v8.953H432.891" transform="translate(-346.463 -324.908)" fill="none" stroke="#000" stroke-linecap="round" stroke-linejoin="round" stroke-miterlimit="10" stroke-width="1.2"/>
      <path id="Trazado_771163" data-name="Trazado 771163" d="M371.736,410.426a7.614,7.614,0,0,0,15.022,0" transform="translate(-298.862 -330.608)" fill="none" stroke="#000" stroke-linecap="round" stroke-linejoin="round" stroke-miterlimit="10" stroke-width="1.2"/>
      <line id="Línea_170" data-name="Línea 170" y1="3.448" transform="translate(77.485 75.125)" fill="none" stroke="#000" stroke-linecap="round" stroke-linejoin="round" stroke-miterlimit="10" stroke-width="1.2"/>
      <line id="Línea_171" data-name="Línea 171" y2="3.448" transform="translate(83.286 75.125)" fill="none" stroke="#000" stroke-linecap="round" stroke-linejoin="round" stroke-miterlimit="10" stroke-width="1.2"/>
      <path id="Trazado_771164" data-name="Trazado 771164" d="M371.159,310.549v6.165a7.615,7.615,0,0,0,7.615,7.615h0a7.615,7.615,0,0,0,7.615-7.615v-6.165" transform="translate(-298.388 -248.657)" fill="none" stroke="#000" stroke-linecap="round" stroke-linejoin="round" stroke-miterlimit="10" stroke-width="1.2"/>
      <path id="Trazado_771165" data-name="Trazado 771165" d="M376.028,242.583v-4.351a10.516,10.516,0,0,0-10.516-10.516h0A10.516,10.516,0,0,0,355,238.232v4.351" transform="translate(-285.127 -180.691)" fill="none" stroke="#000" stroke-linecap="round" stroke-linejoin="round" stroke-miterlimit="10" stroke-width="1.2"/>
      <path id="Trazado_771166" data-name="Trazado 771166" d="M458.543,316.351h-2.531v-5.8h2.531a2.9,2.9,0,0,1,2.9,2.9h0A2.9,2.9,0,0,1,458.543,316.351Z" transform="translate(-368.012 -248.657)" fill="none" stroke="#000" stroke-linecap="round" stroke-linejoin="round" stroke-miterlimit="10" stroke-width="1.2"/>
      <path id="Trazado_771167" data-name="Trazado 771167" d="M343.795,316.351h2.531v-5.8h-2.531a2.9,2.9,0,0,0-2.9,2.9h0A2.9,2.9,0,0,0,343.795,316.351Z" transform="translate(-273.555 -248.657)" fill="none" stroke="#000" stroke-linecap="round" stroke-linejoin="round" stroke-miterlimit="10" stroke-width="1.2"/>
      <line id="Línea_172" data-name="Línea 172" y1="4.714" transform="translate(69.507 91.989)" fill="none" stroke="#000" stroke-linecap="round" stroke-linejoin="round" stroke-miterlimit="10" stroke-width="1.2"/>
      <line id="Línea_173" data-name="Línea 173" y1="4.714" transform="translate(91.264 91.989)" fill="none" stroke="#000" stroke-linecap="round" stroke-linejoin="round" stroke-miterlimit="10" stroke-width="1.2"/>
      <path id="Trazado_771168" data-name="Trazado 771168" d="M371.159,286.393s5.962-.851,7.615-5.284c1.653,4.433,7.615,5.284,7.615,5.284" transform="translate(-298.388 -224.501)" fill="none" stroke="#000" stroke-linecap="round" stroke-linejoin="round" stroke-miterlimit="10" stroke-width="1.2"/>
      <path id="Trazado_771169" data-name="Trazado 771169" d="M172.608,17.429a22.3,22.3,0,1,1-4.184-4.681" transform="translate(-101.949)" fill="none" stroke="#000" stroke-linecap="round" stroke-linejoin="round" stroke-miterlimit="10" stroke-width="1.2"/>
      <path id="Trazado_771170" data-name="Trazado 771170" d="M214.427,91.353H198.109a2.72,2.72,0,0,1-2.72-2.72h0a2.72,2.72,0,0,1,2.72-2.72h16.318a2.72,2.72,0,0,1,2.72,2.72h0A2.719,2.719,0,0,1,214.427,91.353Z" transform="translate(-154.167 -64.34)" fill="none" stroke="#000" stroke-linecap="round" stroke-linejoin="round" stroke-miterlimit="10" stroke-width="1.2"/>
      <path id="Trazado_771171" data-name="Trazado 771171" d="M214.427,151.962H198.109a2.72,2.72,0,0,1-2.72-2.72h0a2.72,2.72,0,0,1,2.72-2.72h16.318a2.72,2.72,0,0,1,2.72,2.72h0A2.719,2.719,0,0,1,214.427,151.962Z" transform="translate(-154.167 -114.071)" fill="none" stroke="#000" stroke-linecap="round" stroke-linejoin="round" stroke-miterlimit="10" stroke-width="1.2"/>
    </g>
  </g>
</svg>
