<svg xmlns="http://www.w3.org/2000/svg" width="85" height="79" viewBox="0 0 85 79">
  <g id="Grupo_1043978" data-name="Grupo 1043978" transform="translate(-180 -10227)">
    <rect id="Rectángulo_355677" data-name="Rectángulo 355677" width="85" height="79" rx="12" transform="translate(180 10227)" fill="#ffb086"/>
    <g id="Grupo_1042975" data-name="Grupo 1042975" transform="translate(-11.936 0.322)">
      <circle id="Elipse_4802" data-name="Elipse 4802" cx="26" cy="26" r="26" transform="translate(208 10240.032)" fill="#de422c"/>
      <path id="Trazado_771653" data-name="Trazado 771653" d="M25.539,46A25.69,25.69,0,0,0,8.98,52.023,25.806,25.806,0,0,0,45.322,88.365,25.806,25.806,0,0,0,25.539,46Z" transform="translate(208.494 10194.193)" fill="#e5786e"/>
      <path id="Trazado_771656" data-name="Trazado 771656" d="M30.836,69.915,29.959,66.4a9.171,9.171,0,0,0-17.794,0l-.877,3.516L5.03,68.348,5.9,64.835a15.616,15.616,0,0,1,30.3,0l.881,3.513Z" transform="translate(212.97 10209.771)" fill="#f1f1f1"/>
      <path id="Trazado_771662" data-name="Trazado 771662" d="M6,50h6.452v6.452H6Z" transform="translate(215.129 10203.097)" fill="#f1f1f1"/>
      <path id="Trazado_771663" data-name="Trazado 771663" d="M12,50h6.452v6.452H12Z" transform="translate(228.484 10203.097)" fill="#f1f1f1"/>
      <path id="Trazado_771669" data-name="Trazado 771669" d="M12.165,66.4a9.171,9.171,0,0,1,17.794,0l.877,3.516,6.258-1.568-.871-3.513a15.616,15.616,0,0,0-30.3,0l-.89,3.513,6.258,1.568Z" transform="translate(212.97 10209.771)"/>
      <path id="Trazado_771670" data-name="Trazado 771670" d="M30.032,103.065A29.032,29.032,0,1,0,1,74.032a29.032,29.032,0,0,0,29.032,29.032Zm0-51.613A22.581,22.581,0,1,1,7.452,74.032,22.581,22.581,0,0,1,30.032,51.452Z" transform="translate(204 10191.968)"/>
      <path id="Trazado_771676" data-name="Trazado 771676" d="M6,50h6.452v6.452H6Z" transform="translate(215.129 10203.097)"/>
      <path id="Trazado_771677" data-name="Trazado 771677" d="M12,50h6.452v6.452H12Z" transform="translate(228.484 10203.097)"/>
    </g>
  </g>
</svg>
