<svg xmlns="http://www.w3.org/2000/svg" width="72" height="72" viewBox="0 0 72 72">
  <g id="Grupo_1043876" data-name="Grupo 1043876" transform="translate(-774 -11286.433)">
    <circle id="Elipse_4807" data-name="Elipse 4807" cx="36" cy="36" r="36" transform="translate(774 11286.433)" fill="#3bc192"/>
    <g id="familia" transform="translate(235.478 10658.355)">
      <path id="Trazado_771950" data-name="Trazado 771950" d="M3259.328,685.6a3.232,3.232,0,0,0-3.228,3.228v3.445a3.232,3.232,0,0,0,3.228,3.228h1.086a3.232,3.232,0,0,0,3.228-3.228v-3.445a3.232,3.232,0,0,0-3.228-3.228Z" transform="translate(-2672.381 -44.528)" fill="#ffedeb"/>
      <path id="Trazado_771951" data-name="Trazado 771951" d="M1152.228,685.6a3.232,3.232,0,0,0-3.228,3.228v3.445a3.232,3.232,0,0,0,3.228,3.228h1.087a3.232,3.232,0,0,0,3.228-3.228v-3.445a3.232,3.232,0,0,0-3.228-3.228Z" transform="translate(-591.998 -44.528)" fill="#ffedeb"/>
      <path id="Trazado_771952" data-name="Trazado 771952" d="M1154.372,686.379a1.272,1.272,0,0,0,.624-.389,2.86,2.86,0,0,0-1.681-.489h-1.087a3.232,3.232,0,0,0-3.228,3.228v3.445a3.193,3.193,0,0,0,.554,1.792c.03.044.289-.393.3-.415a2.156,2.156,0,0,0,.274-.663c.01-.154-.027-.321-.027-.478v-2.581a3.231,3.231,0,0,1,3.227-3.228,2.628,2.628,0,0,0,.9-.17C1154.272,686.417,1154.32,686.4,1154.372,686.379Z" transform="translate(-591.998 -44.429)" fill="#fff"/>
      <path id="Trazado_771953" data-name="Trazado 771953" d="M2106.09,685.7a.138.138,0,0,1-.129.093.136.136,0,0,1-.129-.093,2.537,2.537,0,0,0-4.931.841c0,3.411,4.7,7.217,5.067,7.278.356-.062,5.054-3.875,5.054-7.278a2.537,2.537,0,0,0-4.931-.841Z" transform="translate(-1531.828 -42.948)" fill="#ff9c9c"/>
      <path id="Trazado_771954" data-name="Trazado 771954" d="M2106.09,685.7a.138.138,0,0,1-.129.093.136.136,0,0,1-.129-.093,2.537,2.537,0,0,0-4.931.841c0,3.411,4.7,7.217,5.067,7.278.356-.062,5.054-3.875,5.054-7.278a2.537,2.537,0,0,0-4.931-.841Z" transform="translate(-1531.828 -42.948)" fill="#e3dff1"/>
      <path id="Trazado_771955" data-name="Trazado 771955" d="M2517.745,731.2a3.386,3.386,0,0,0-.913,1.69,17.286,17.286,0,0,1-.8,2.5,15.22,15.22,0,0,1-1.917,3.53,1.9,1.9,0,0,0-.321.545c-.076.245-.04.56.233.567.422.011,1.059-.794,1.34-1.07a15.051,15.051,0,0,0,1.038-1.1c1.049-1.262,2.241-2.929,2.241-4.722A2.536,2.536,0,0,0,2517.745,731.2Z" transform="translate(-1939.456 -89.55)" fill="#c0b4ea"/>
      <g id="Grupo_1043009" data-name="Grupo 1043009" transform="translate(569.075 641.05)">
        <path id="Trazado_771956" data-name="Trazado 771956" d="M2550.5,684.68a3.577,3.577,0,0,0,.335-.207,1.918,1.918,0,0,0,.312-.319,1.822,1.822,0,0,0-.905-.153c-.539,0-2.325.479-1.818,1.328a.479.479,0,0,0,.413.268.978.978,0,0,0,.6-.274,4.713,4.713,0,0,1,.913-.56Z" transform="translate(-2542.661 -683.999)" fill="#fff"/>
        <path id="Trazado_771957" data-name="Trazado 771957" d="M2102.291,688.062a2.642,2.642,0,0,1,2.218-3.046l.034,0a.471.471,0,0,0,.161-.9,2.53,2.53,0,0,0-1.572-.15,2.609,2.609,0,0,0-1.959,2.851c.214,2.223,2.258,4.547,3.686,5.851A9.372,9.372,0,0,1,2102.291,688.062Z" transform="translate(-2101.16 -683.901)" fill="#fff"/>
      </g>
      <path id="Trazado_771958" data-name="Trazado 771958" d="M2275.2,2634.734v2.634a2.437,2.437,0,0,0,2.434,2.434h.83a2.437,2.437,0,0,0,2.434-2.434v-2.634a2.436,2.436,0,0,0-2.434-2.434h-.83A2.436,2.436,0,0,0,2275.2,2634.734Z" transform="translate(-1703.918 -1966.546)" fill="#ffedeb"/>
      <path id="Trazado_771959" data-name="Trazado 771959" d="M2761.56,1767.537a2.813,2.813,0,0,0,2.81-2.81v-3.017a2.812,2.812,0,0,0-2.81-2.81h-.951a2.813,2.813,0,0,0-2.81,2.81v3.017a2.813,2.813,0,0,0,2.81,2.81Z" transform="translate(-2180.399 -1104.22)" fill="#ffedeb"/>
      <path id="Trazado_771960" data-name="Trazado 771960" d="M1912.271,3356.008a6.287,6.287,0,0,0-6.21-4.608H1903.7a6.4,6.4,0,0,0-5.7,3.331,6.574,6.574,0,0,0-.6,1.67l-.128,3.935a4.583,4.583,0,0,0,.232,2.308,1.979,1.979,0,0,0,1.7.988h11.347a1.964,1.964,0,0,0,1.962-1.961v-.889Z" transform="translate(-1330.749 -2676.528)" fill="#c0ffa1"/>
      <path id="Trazado_771961" data-name="Trazado 771961" d="M1974.336,3443.287a6.41,6.41,0,0,0-.51-1.277,6.168,6.168,0,0,0-1.992-2.21,5.995,5.995,0,0,1,.852,1.836l.244,4.773v.889a1.961,1.961,0,0,1-1.962,1.961h-7.862a4.21,4.21,0,0,0-2.994,1.24l-.013.013a1.961,1.961,0,0,0,1.173.4h11.346a1.961,1.961,0,0,0,1.962-1.961v-.889Z" transform="translate(-1392.813 -2763.807)" fill="#98e374"/>
      <g id="Grupo_1043010" data-name="Grupo 1043010" transform="translate(566.552 674.872)">
        <path id="Trazado_771962" data-name="Trazado 771962" d="M1910.961,3351.4H1908.6a6.4,6.4,0,0,0-5.7,3.331,6.562,6.562,0,0,0-.6,1.67l-.1,3.026.011.011h1.125l.063-1.937a6.522,6.522,0,0,1,.6-1.67,6.4,6.4,0,0,1,5.7-3.331h2.365a6.577,6.577,0,0,1,4.028,1.354A6.464,6.464,0,0,0,1910.961,3351.4Z" transform="translate(-1902.2 -3351.399)" fill="#fff"/>
      </g>
      <path id="Trazado_771963" data-name="Trazado 771963" d="M1228.04,2569.654a2.713,2.713,0,0,1-2.709-2.709v-2.634a2.711,2.711,0,0,1,1.617-2.477,8.957,8.957,0,0,0-1.251-.545,6.037,6.037,0,0,0-2.025-.316l-3.515.009a6.1,6.1,0,0,0-2.029.327,8.633,8.633,0,0,0-5.112,4.847c-1.054,2.482-.877,5.257-.877,7.868a6.083,6.083,0,0,0,6.076,6.076h3.264a2.111,2.111,0,0,0,0-4.222h-2.85a2.219,2.219,0,0,1-2.216-2.216V2571.8a.137.137,0,1,1,.274,0v1.857a1.944,1.944,0,0,0,1.941,1.941h2.15a6.562,6.562,0,0,1,6.494-4.883h1.122v-1.065Z" transform="translate(-654.324 -1896.122)" fill="#bae9d9"/>
      <g id="Grupo_1043011" data-name="Grupo 1043011" transform="translate(558.85 679.796)">
        <path id="Trazado_771964" data-name="Trazado 771964" d="M1303.423,3739.8a2.113,2.113,0,0,1-2.069,2.531h-3.264a6.042,6.042,0,0,1-3.39-1.036,6.075,6.075,0,0,0,5.04,2.686H1303a2.111,2.111,0,0,0,.42-4.18Z" transform="translate(-1294.7 -3739.8)" fill="#e1f6ef"/>
      </g>
      <g id="Grupo_1043012" data-name="Grupo 1043012" transform="translate(557.803 664.849)">
        <path id="Trazado_771965" data-name="Trazado 771965" d="M1213.238,2575.024c0-2.612-.176-5.386.877-7.869a8.631,8.631,0,0,1,5.112-4.847,6.111,6.111,0,0,1,2.029-.327l3.515-.009a6.164,6.164,0,0,1,1.523.17,2.759,2.759,0,0,1,.653-.41,8.985,8.985,0,0,0-1.251-.545,6.037,6.037,0,0,0-2.025-.316l-3.515.009a6.116,6.116,0,0,0-2.029.327,8.634,8.634,0,0,0-5.112,4.847c-1.054,2.483-.877,5.257-.877,7.869a6.07,6.07,0,0,0,2.367,4.808A6.049,6.049,0,0,1,1213.238,2575.024Z" transform="translate(-1212.127 -2560.871)" fill="#fff"/>
      </g>
      <path id="Trazado_771966" data-name="Trazado 771966" d="M2509.229,2570.142a2.617,2.617,0,0,1,0-5.234h.932a9.041,9.041,0,0,0-4.473-3.492,6.112,6.112,0,0,0-2.029-.327l-3.515-.009a5.975,5.975,0,0,0-2.025.316,8.919,8.919,0,0,0-1.251.545,2.711,2.711,0,0,1,1.616,2.478v2.632a2.713,2.713,0,0,1-2.71,2.71h-.475v1.065h1.242a6.568,6.568,0,0,1,6.5,4.883h2.152a1.944,1.944,0,0,0,1.941-1.941v-1.857a.137.137,0,0,1,.274,0v1.857a2.219,2.219,0,0,1-2.216,2.217h-2.85a2.111,2.111,0,0,0,0,4.222h3.264a6.083,6.083,0,0,0,6.075-6.076v-3.989Z" transform="translate(-1921.228 -1896.228)" fill="#bae9d9"/>
      <g id="Grupo_1043013" data-name="Grupo 1043013" transform="translate(579.536 673.912)">
        <path id="Trazado_771967" data-name="Trazado 771967" d="M2935.463,3275.7v2.338a6.075,6.075,0,0,1-6.076,6.076h-.785a3.454,3.454,0,0,0-2.276.823c-.044.039-.087.079-.127.118a2.1,2.1,0,0,0,1.575.708h3.264a6.075,6.075,0,0,0,6.075-6.076V3275.7Z" transform="translate(-2926.2 -3275.7)" fill="#e1f6ef"/>
      </g>
      <g id="Grupo_1043014" data-name="Grupo 1043014" transform="translate(575.642 664.85)">
        <path id="Trazado_771968" data-name="Trazado 771968" d="M2620.329,2562.939a4.114,4.114,0,0,1,1.122-.544,6.013,6.013,0,0,1,2.025-.316l3.515.009a6.118,6.118,0,0,1,2.029.327,8.94,8.94,0,0,1,2.768,1.6,9,9,0,0,0-3.867-2.7,6.1,6.1,0,0,0-2.029-.327l-3.515-.009a5.972,5.972,0,0,0-2.024.316,8.856,8.856,0,0,0-1.252.545A2.733,2.733,0,0,1,2620.329,2562.939Z" transform="translate(-2619.1 -2560.98)" fill="#fff"/>
      </g>
      <path id="Trazado_771969" data-name="Trazado 771969" d="M602.914,1612.876a2.343,2.343,0,0,0,0-4.686h-3.143a2.433,2.433,0,0,1-2.431-2.431v-5.63a.137.137,0,1,1,.274,0v5.63a2.158,2.158,0,0,0,2.155,2.155h1.878a9.31,9.31,0,0,1,4.714-3.75,6.418,6.418,0,0,1,2.119-.344l2.174-.005v-.987h-.9a3.088,3.088,0,0,1-3.085-3.085v-3.018a3.087,3.087,0,0,1,3.085-3.085h.642c-.233-.181-.472-.356-.72-.515a9.935,9.935,0,0,0-1.978-.978,6.223,6.223,0,0,0-2.116-.35h-4.317a6.169,6.169,0,0,0-2.09.343,9.948,9.948,0,0,0-6.573,9.344v4.675a6.721,6.721,0,0,0,6.714,6.714Z" transform="translate(-42.652 -939.238)" fill="#ffec82"/>
      <g id="Grupo_1043015" data-name="Grupo 1043015" transform="translate(551.167 669.037)">
        <path id="Trazado_771970" data-name="Trazado 771970" d="M698.5,2891.2a2.334,2.334,0,0,1-2.259,2.953h-3.6a6.679,6.679,0,0,1-3.847-1.216,6.708,6.708,0,0,0,5.5,2.867h3.6a2.342,2.342,0,0,0,.61-4.6Z" transform="translate(-688.8 -2891.2)" fill="#ffc782"/>
      </g>
      <g id="Grupo_1043016" data-name="Grupo 1043016" transform="translate(549.95 652.562)">
        <path id="Trazado_771971" data-name="Trazado 771971" d="M593.9,1607.262v-4.675a9.949,9.949,0,0,1,6.573-9.344,6.183,6.183,0,0,1,2.089-.342h4.317a6.217,6.217,0,0,1,2.116.35,10.044,10.044,0,0,1,.929.393h.668c-.233-.181-.472-.356-.72-.515a9.926,9.926,0,0,0-1.978-.978,6.223,6.223,0,0,0-2.116-.35h-4.317a6.172,6.172,0,0,0-2.09.342,9.948,9.948,0,0,0-6.573,9.344v4.675a6.706,6.706,0,0,0,2.551,5.262A6.677,6.677,0,0,1,593.9,1607.262Z" transform="translate(-592.8 -1591.8)" fill="#fff"/>
      </g>
      <path id="Trazado_771972" data-name="Trazado 771972" d="M1726.81,1758.9a2.813,2.813,0,0,0-2.81,2.81v3.017a2.813,2.813,0,0,0,2.81,2.81h.951a2.813,2.813,0,0,0,2.81-2.81v-3.017a2.813,2.813,0,0,0-2.81-2.81Z" transform="translate(-1159.707 -1104.22)" fill="#ffedeb"/>
      <path id="Trazado_771973" data-name="Trazado 771973" d="M3259.328,685.6a3.232,3.232,0,0,0-3.228,3.228v3.445a3.232,3.232,0,0,0,3.228,3.228h1.086a3.232,3.232,0,0,0,3.228-3.228v-3.445a3.232,3.232,0,0,0-3.228-3.228Z" transform="translate(-2672.381 -44.528)" fill="#ffedeb"/>
      <path id="Trazado_771974" data-name="Trazado 771974" d="M3332,769.2a3.314,3.314,0,0,0-1,2.365v1.6a3.228,3.228,0,0,1-3.228,3.228h-.233a2.178,2.178,0,0,0-1.544.638,3.215,3.215,0,0,0,2.342,1.013h1.087a3.228,3.228,0,0,0,3.228-3.228v-3.446A2.837,2.837,0,0,0,3332,769.2Z" transform="translate(-2741.395 -127.068)" fill="#f1cfca"/>
      <path id="Trazado_771975" data-name="Trazado 771975" d="M1258.4,771.008v2.154a3.228,3.228,0,0,1-3.228,3.228h-.072a1.468,1.468,0,0,0-1.233.7,1.231,1.231,0,0,1-.169.217,2.707,2.707,0,0,0,2.036.73h1.087a3.228,3.228,0,0,0,3.228-3.228v-3.444a2.95,2.95,0,0,0-.843-2.168A2.557,2.557,0,0,0,1258.4,771.008Z" transform="translate(-695.37 -127.068)" fill="#f1cfca"/>
      <path id="Trazado_771976" data-name="Trazado 771976" d="M2275.2,2634.734v2.634a2.437,2.437,0,0,0,2.434,2.434h.83a2.437,2.437,0,0,0,2.434-2.434v-2.634a2.436,2.436,0,0,0-2.434-2.434h-.83A2.436,2.436,0,0,0,2275.2,2634.734Z" transform="translate(-1703.918 -1966.546)" fill="#ffedeb"/>
      <path id="Trazado_771977" data-name="Trazado 771977" d="M2313.148,2651.4a2.419,2.419,0,0,1,.222,1.009v2.633a2.437,2.437,0,0,1-2.434,2.434h-.831a2.394,2.394,0,0,1-.7-.105,2.438,2.438,0,0,0,2.214,1.427h.831a2.437,2.437,0,0,0,2.434-2.434v-2.634A2.44,2.44,0,0,0,2313.148,2651.4Z" transform="translate(-1737.685 -1985.404)" fill="#f1cfca"/>
      <path id="Trazado_771978" data-name="Trazado 771978" d="M2761.56,1767.537a2.813,2.813,0,0,0,2.81-2.81v-3.017a2.812,2.812,0,0,0-2.81-2.81h-.951a2.813,2.813,0,0,0-2.81,2.81v3.017a2.813,2.813,0,0,0,2.81,2.81Z" transform="translate(-2180.399 -1104.22)" fill="#ffedeb"/>
      <path id="Trazado_771979" data-name="Trazado 771979" d="M2831.332,1822.7a2.748,2.748,0,0,0-.8,1.944v1.425a2.825,2.825,0,0,1-.956,2.111c-.69.606-1.594.638-2.385,1.046-.047.024-.77.463-.705.526a2.792,2.792,0,0,0,1.934.776h.951a2.81,2.81,0,0,0,2.81-2.81V1824.7A2.789,2.789,0,0,0,2831.332,1822.7Z" transform="translate(-2248.206 -1167.211)" fill="#f1cfca"/>
      <path id="Trazado_771980" data-name="Trazado 771980" d="M1726.81,1758.9a2.813,2.813,0,0,0-2.81,2.81v3.017a2.813,2.813,0,0,0,2.81,2.81h.951a2.813,2.813,0,0,0,2.81-2.81v-3.017a2.813,2.813,0,0,0-2.81-2.81Z" transform="translate(-1159.707 -1104.22)" fill="#ffedeb"/>
      <path id="Trazado_771981" data-name="Trazado 771981" d="M1797.613,1836.8a3.316,3.316,0,0,0-.985,2.356v.833a2.81,2.81,0,0,1-2.81,2.81,1.28,1.28,0,0,0-.9.374l-.415.415a2.793,2.793,0,0,0,2.016.861h.951a2.809,2.809,0,0,0,2.81-2.81v-3.018A2.428,2.428,0,0,0,1797.613,1836.8Z" transform="translate(-1227.339 -1181.132)" fill="#f1cfca"/>
      <g id="Grupo_1043017" data-name="Grupo 1043017" transform="translate(564.293 641.072)">
        <path id="Trazado_771982" data-name="Trazado 771982" d="M3260.414,685.6h-1.086a3.228,3.228,0,0,0-3.228,3.228v3.445a3.2,3.2,0,0,0,.395,1.533,2.412,2.412,0,0,0,.706-1.7v-2.174a3.228,3.228,0,0,1,3.228-3.228h.091a2.187,2.187,0,0,0,1.546-.64A3.21,3.21,0,0,0,3260.414,685.6Z" transform="translate(-3236.674 -685.6)" fill="#fff"/>
        <path id="Trazado_771983" data-name="Trazado 771983" d="M2276.2,2638.467v-2.634a2.437,2.437,0,0,1,2.434-2.434h.83a2.412,2.412,0,0,1,1.079.256,2.437,2.437,0,0,0-2.18-1.355h-.831a2.436,2.436,0,0,0-2.434,2.434v2.634a2.437,2.437,0,0,0,1.355,2.179A2.432,2.432,0,0,1,2276.2,2638.467Z" transform="translate(-2268.113 -2607.618)" fill="#fff"/>
        <path id="Trazado_771984" data-name="Trazado 771984" d="M2761.56,1758.9h-.951a2.809,2.809,0,0,0-2.81,2.81v3.017a3.368,3.368,0,0,0,.439,1.5,1.433,1.433,0,0,0,.1-.113,2.609,2.609,0,0,0,.561-1.66v-1.648a2.814,2.814,0,0,1,1.7-2.584c.346-.148.717-.21,1.073-.33l.056-.019a3.069,3.069,0,0,0,1.113-.659A2.783,2.783,0,0,0,2761.56,1758.9Z" transform="translate(-2744.692 -1745.292)" fill="#fff"/>
        <path id="Trazado_771985" data-name="Trazado 771985" d="M1727.761,1758.9h-.951a2.81,2.81,0,0,0-2.81,2.81v3.018a2.793,2.793,0,0,0,.332,1.312,2.621,2.621,0,0,0,.767-1.852v-1.377a2.813,2.813,0,0,1,2.81-2.81,2.23,2.23,0,0,0,.956-.448,5.378,5.378,0,0,0,.422-.363A3.1,3.1,0,0,0,1727.761,1758.9Z" transform="translate(-1724 -1745.291)" fill="#fff"/>
      </g>
      <path id="Trazado_771986" data-name="Trazado 771986" d="M855.21,3210.115h-2.33a6.358,6.358,0,0,1-6.351-6.351v-3.989h-.875a6.938,6.938,0,0,1-3.554-.975v9.1a2.855,2.855,0,0,0,2.852,2.852H855.21Z" transform="translate(-288.989 -2525.863)" fill="#ffec82"/>
      <g id="Grupo_1043018" data-name="Grupo 1043018" transform="translate(554.099 683.24)">
        <path id="Trazado_771987" data-name="Trazado 771987" d="M929.792,4012.412a6.308,6.308,0,0,1-3.432-1.012h-4.067a3.239,3.239,0,0,0-2.292.95,2.83,2.83,0,0,0,1.864.7h10.259v-.638Z" transform="translate(-920 -4011.4)" fill="#ffc782"/>
      </g>
      <path id="Trazado_771988" data-name="Trazado 771988" d="M3132.483,3199.974v3.989a6.358,6.358,0,0,1-6.351,6.351H3123.8v.638h10.26a2.855,2.855,0,0,0,2.851-2.852V3199a6.944,6.944,0,0,1-3.554.975Z" transform="translate(-2541.76 -2526.061)" fill="#ffec82"/>
      <path id="Trazado_771989" data-name="Trazado 771989" d="M3135.262,3199.608v6.741a2.855,2.855,0,0,1-2.852,2.852h-2.847a6.31,6.31,0,0,1-3.432,1.012H3123.8v.638h10.26a2.855,2.855,0,0,0,2.851-2.851v-9.1A6.892,6.892,0,0,1,3135.262,3199.608Z" transform="translate(-2541.76 -2525.962)" fill="#ffc782"/>
      <path id="Trazado_771990" data-name="Trazado 771990" d="M2992.493,1591.9h-4.317a6.217,6.217,0,0,0-2.116.35,9.854,9.854,0,0,0-1.978.978c-.248.158-.486.333-.719.515H2984a3.088,3.088,0,0,1,3.085,3.085v3.018a3.088,3.088,0,0,1-3.085,3.085h-.9v.986l2.176.005a6.372,6.372,0,0,1,2.119.344,9.307,9.307,0,0,1,4.714,3.75h1.878a2.158,2.158,0,0,0,2.155-2.156v-5.629a.137.137,0,1,1,.274,0v5.629a2.433,2.433,0,0,1-2.431,2.431h-3.143a2.343,2.343,0,0,0,0,4.686h3.6a6.721,6.721,0,0,0,6.713-6.714v-4.675a9.949,9.949,0,0,0-6.573-9.344A6.137,6.137,0,0,0,2992.493,1591.9Z" transform="translate(-2402.843 -939.337)" fill="#ffec82"/>
      <g id="Grupo_1043019" data-name="Grupo 1043019" transform="translate(580.519 653.634)">
        <path id="Trazado_771991" data-name="Trazado 771991" d="M3004.944,1676.4q-.215.124-.425.256c-.247.158-.486.333-.719.515h.641a3.073,3.073,0,0,1,1.194.241A3.115,3.115,0,0,0,3004.944,1676.4Z" transform="translate(-3003.8 -1676.4)"/>
        <path id="Trazado_771992" data-name="Trazado 771992" d="M3496.249,1740.4a9.929,9.929,0,0,1,2.15,6.155v4.675a6.714,6.714,0,0,1-6.713,6.714h-.463a3.96,3.96,0,0,0-2.812,1.258l-.01.011a1.722,1.722,0,0,0,1.338.382h3.6a6.714,6.714,0,0,0,6.713-6.714v-4.675A9.952,9.952,0,0,0,3496.249,1740.4Z" transform="translate(-3482.255 -1739.588)" fill="#ffc782"/>
      </g>
      <g id="Grupo_1043020" data-name="Grupo 1043020" transform="translate(580.521 652.562)">
        <path id="Trazado_771993" data-name="Trazado 771993" d="M3006.04,1594.034a9.944,9.944,0,0,1,1.656-.784,6.219,6.219,0,0,1,2.116-.35h4.317a6.181,6.181,0,0,1,2.09.342,9.868,9.868,0,0,1,3.083,1.8,9.9,9.9,0,0,0-4.183-2.9,6.179,6.179,0,0,0-2.09-.342h-4.317a6.223,6.223,0,0,0-2.116.35,9.867,9.867,0,0,0-1.978.978c-.247.159-.485.333-.719.515h.642A3.09,3.09,0,0,1,3006.04,1594.034Z" transform="translate(-3003.9 -1591.8)" fill="#fff"/>
        <path id="Trazado_771994" data-name="Trazado 771994" d="M3636.238,2785.988h.269a9.422,9.422,0,0,0-1.007-.988A9.487,9.487,0,0,1,3636.238,2785.988Z" transform="translate(-3627.492 -2769.871)" fill="#fff"/>
      </g>
      <path id="Trazado_771995" data-name="Trazado 771995" d="M842.222,3209.843a3.178,3.178,0,0,0,.931-2.247V3199H842v10.56A1.117,1.117,0,0,0,842.222,3209.843Z" transform="translate(-288.89 -2526.061)" fill="#fff"/>
      <g id="Grupo_1043021" data-name="Grupo 1043021" transform="translate(568.521 640.5)">
        <path id="Trazado_771996" data-name="Trazado 771996" d="M2063.11,651.415c-.793,0-5.61-4.25-5.61-7.827a25.37,25.37,0,0,0,8.134-3.089,3.092,3.092,0,0,1,3.087,3.089C2068.721,647.165,2063.9,651.415,2063.11,651.415Zm-2.523-10.09a2.266,2.266,0,0,0-2.263,2.263c0,2.985,3.948,6.513,4.785,6.974.837-.463,4.786-4,4.786-6.974a2.262,2.262,0,0,0-4.4-.749.412.412,0,0,1-.779,0A2.262,2.262,0,0,0,2060.587,641.325Z" transform="translate(-2057.5 -640.5)" fill="#2f2f2f"/>
      </g>
      <g id="Grupo_1043022" data-name="Grupo 1043022" transform="translate(552.56 672.281)">
        <path id="Trazado_771997" data-name="Trazado 771997" d="M812.4,3160.258H802a3.405,3.405,0,0,1-3.4-3.4v-9.344a.412.412,0,0,1,.824,0v9.344a2.58,2.58,0,0,0,2.576,2.576h10.4a.413.413,0,0,1,0,.825Z" transform="translate(-798.6 -3147.1)" fill="#40002b"/>
      </g>
      <g id="Grupo_1043023" data-name="Grupo 1043023" transform="translate(556.453 640.522)">
        <path id="Trazado_771998" data-name="Trazado 771998" d="M1110.564,653.2h-1.087a3.782,3.782,0,0,1-3.777-3.778v-3.445a3.783,3.783,0,0,1,3.777-3.778h1.087a3.782,3.782,0,0,1,3.777,3.778v3.445A3.782,3.782,0,0,1,1110.564,653.2Zm-1.087-10.176a2.957,2.957,0,0,0-2.953,2.953v3.445a2.957,2.957,0,0,0,2.953,2.953h1.087a2.957,2.957,0,0,0,2.953-2.953v-3.445a2.957,2.957,0,0,0-2.953-2.953Z" transform="translate(-1105.7 -642.2)" fill="#40002b"/>
      </g>
      <g id="Grupo_1043024" data-name="Grupo 1043024" transform="translate(549.4 652.013)">
        <path id="Trazado_771999" data-name="Trazado 771999" d="M560.262,1570.676h-3.6a7.272,7.272,0,0,1-7.264-7.264v-4.675a10.5,10.5,0,0,1,6.938-9.863,6.721,6.721,0,0,1,2.276-.374h4.317a6.765,6.765,0,0,1,2.3.383,10.417,10.417,0,0,1,2.088,1.032,10.6,10.6,0,0,1,1.088.8.412.412,0,0,1-.53.631,9.772,9.772,0,0,0-1-.738,9.594,9.594,0,0,0-1.923-.95,5.93,5.93,0,0,0-2.022-.333h-4.317a5.926,5.926,0,0,0-2,.326,9.675,9.675,0,0,0-6.392,9.086v4.675a6.446,6.446,0,0,0,6.438,6.438h3.6a2.068,2.068,0,0,0,0-4.136H557.12a2.709,2.709,0,0,1-2.706-2.706v-5.63a.412.412,0,1,1,.824,0v5.63a1.882,1.882,0,0,0,1.88,1.88h3.143a2.893,2.893,0,0,1,0,5.785Z" transform="translate(-549.4 -1548.5)" fill="#2f2f2f"/>
      </g>
      <g id="Grupo_1043025" data-name="Grupo 1043025" transform="translate(563.743 654.13)">
        <path id="Trazado_772000" data-name="Trazado 772000" d="M1684.911,1725.238h-.951a3.364,3.364,0,0,1-3.36-3.36v-3.018a3.364,3.364,0,0,1,3.36-3.36h.951a3.364,3.364,0,0,1,3.36,3.36v3.018A3.363,3.363,0,0,1,1684.911,1725.238Zm-.951-8.912a2.538,2.538,0,0,0-2.535,2.534v3.018a2.538,2.538,0,0,0,2.535,2.534h.951a2.538,2.538,0,0,0,2.535-2.534v-3.018a2.538,2.538,0,0,0-2.535-2.534Z" transform="translate(-1680.6 -1715.5)" fill="#40002b"/>
      </g>
      <g id="Grupo_1043026" data-name="Grupo 1043026" transform="translate(557.264 673.363)">
        <path id="Trazado_772001" data-name="Trazado 772001" d="M1179.49,3243.563h-3.264a6.633,6.633,0,0,1-6.626-6.625v-4.126a.412.412,0,1,1,.824,0v4.126a5.806,5.806,0,0,0,5.8,5.8h3.264a1.837,1.837,0,1,0,0-3.674h-2.85a2.494,2.494,0,0,1-2.491-2.491v-1.858a.412.412,0,1,1,.824,0v1.858a1.669,1.669,0,0,0,1.667,1.667h2.85a2.662,2.662,0,0,1,0,5.324Z" transform="translate(-1169.6 -3232.4)" fill="#2f2f2f"/>
      </g>
      <g id="Grupo_1043027" data-name="Grupo 1043027" transform="translate(558.656 664.301)">
        <path id="Trazado_772002" data-name="Trazado 772002" d="M1279.869,2522.615a.408.408,0,0,1-.219-.063.413.413,0,0,1-.13-.568,9.59,9.59,0,0,1,4.9-3.928,6.678,6.678,0,0,1,2.21-.359l3.515-.009a6.617,6.617,0,0,1,2.206.345,9.48,9.48,0,0,1,1.6.727.413.413,0,1,1-.41.717,8.658,8.658,0,0,0-1.464-.664,5.862,5.862,0,0,0-1.916-.3h-.018l-3.515.009a5.825,5.825,0,0,0-1.937.312,8.766,8.766,0,0,0-4.477,3.589A.41.41,0,0,1,1279.869,2522.615Z" transform="translate(-1279.456 -2517.687)" fill="#2f2f2f"/>
      </g>
      <g id="Grupo_1043028" data-name="Grupo 1043028" transform="translate(576.85 654.13)">
        <path id="Trazado_772003" data-name="Trazado 772003" d="M2718.71,1725.238h-.951a3.364,3.364,0,0,1-3.36-3.36v-3.018a3.364,3.364,0,0,1,3.36-3.36h.951a3.364,3.364,0,0,1,3.36,3.36v3.018A3.364,3.364,0,0,1,2718.71,1725.238Zm-.951-8.912a2.538,2.538,0,0,0-2.535,2.534v3.018a2.538,2.538,0,0,0,2.535,2.534h.951a2.538,2.538,0,0,0,2.535-2.534v-3.018a2.538,2.538,0,0,0-2.535-2.534Z" transform="translate(-2714.4 -1715.5)" fill="#40002b"/>
      </g>
      <g id="Grupo_1043029" data-name="Grupo 1043029" transform="translate(578.448 673.364)">
        <path id="Trazado_772004" data-name="Trazado 772004" d="M2846.325,3243.663h-3.264a2.661,2.661,0,0,1,0-5.323h2.85a1.669,1.669,0,0,0,1.667-1.667v-1.858a.412.412,0,0,1,.824,0v1.858a2.494,2.494,0,0,1-2.491,2.491h-2.85a1.837,1.837,0,0,0,0,3.674h3.264a5.807,5.807,0,0,0,5.8-5.8v-4.126a.412.412,0,0,1,.824,0v4.126A6.631,6.631,0,0,1,2846.325,3243.663Z" transform="translate(-2840.4 -3232.5)" fill="#40002b"/>
      </g>
      <g id="Grupo_1043030" data-name="Grupo 1043030" transform="translate(574.899 664.301)">
        <path id="Trazado_772005" data-name="Trazado 772005" d="M2574.808,2522.624a.414.414,0,0,1-.35-.193,8.763,8.763,0,0,0-4.477-3.589,5.856,5.856,0,0,0-1.937-.312l-3.514-.009a5.922,5.922,0,0,0-1.935.3,8.647,8.647,0,0,0-1.464.664.413.413,0,1,1-.409-.716,9.559,9.559,0,0,1,1.6-.728,6.707,6.707,0,0,1,2.207-.345l3.514.009a6.691,6.691,0,0,1,2.21.359,9.589,9.589,0,0,1,4.9,3.928.41.41,0,0,1-.131.568A.4.4,0,0,1,2574.808,2522.624Z" transform="translate(-2560.513 -2517.697)" fill="#2f2f2f"/>
      </g>
      <g id="Grupo_1043031" data-name="Grupo 1043031" transform="translate(583.168 640.522)">
        <path id="Trazado_772006" data-name="Trazado 772006" d="M3217.565,653.2h-1.086a3.783,3.783,0,0,1-3.778-3.778v-3.445a3.783,3.783,0,0,1,3.778-3.778h1.086a3.783,3.783,0,0,1,3.779,3.778v3.445A3.784,3.784,0,0,1,3217.565,653.2Zm-1.086-10.176a2.956,2.956,0,0,0-2.953,2.953v3.445a2.957,2.957,0,0,0,2.953,2.953h1.086a2.957,2.957,0,0,0,2.953-2.953v-3.445a2.957,2.957,0,0,0-2.953-2.953Z" transform="translate(-3212.7 -642.2)" fill="#2f2f2f"/>
      </g>
      <g id="Grupo_1043032" data-name="Grupo 1043032" transform="translate(579.705 652.014)">
        <path id="Trazado_772007" data-name="Trazado 772007" d="M2951.445,1570.774h-3.6a2.892,2.892,0,0,1,0-5.784h3.143a1.882,1.882,0,0,0,1.88-1.88v-5.629a.412.412,0,1,1,.824,0v5.629a2.709,2.709,0,0,1-2.705,2.706h-3.144a2.068,2.068,0,0,0,0,4.136h3.6a6.446,6.446,0,0,0,6.438-6.439v-4.675a9.674,9.674,0,0,0-6.391-9.086,5.9,5.9,0,0,0-2-.326h-4.317a5.964,5.964,0,0,0-2.022.333,9.69,9.69,0,0,0-1.923.95,9.81,9.81,0,0,0-1,.738.412.412,0,0,1-.53-.631,10.483,10.483,0,0,1,3.176-1.833,6.745,6.745,0,0,1,2.3-.383h4.317a6.728,6.728,0,0,1,2.276.374,10.5,10.5,0,0,1,6.938,9.863v4.675A7.272,7.272,0,0,1,2951.445,1570.774Z" transform="translate(-2939.551 -1548.6)" fill="#2f2f2f"/>
      </g>
      <g id="Grupo_1043033" data-name="Grupo 1043033" transform="translate(581.493 672.283)">
        <path id="Trazado_772008" data-name="Trazado 772008" d="M3091.409,3160.357h-10.4a.412.412,0,0,1,0-.824h10.4a2.58,2.58,0,0,0,2.576-2.576v-9.345a.412.412,0,0,1,.824,0v9.345A3.4,3.4,0,0,1,3091.409,3160.357Z" transform="translate(-3080.6 -3147.2)" fill="#40002b"/>
      </g>
      <g id="Grupo_1043034" data-name="Grupo 1043034" transform="translate(570.731 665.204)">
        <path id="Trazado_772009" data-name="Trazado 772009" d="M2235.615,2597.5h-.831a2.988,2.988,0,0,1-2.985-2.985v-2.634a2.988,2.988,0,0,1,2.985-2.985h.831a2.988,2.988,0,0,1,2.985,2.985v2.634A2.988,2.988,0,0,1,2235.615,2597.5Zm-.831-7.779a2.163,2.163,0,0,0-2.16,2.159v2.635a2.162,2.162,0,0,0,2.16,2.159h.831a2.162,2.162,0,0,0,2.159-2.159v-2.634a2.162,2.162,0,0,0-2.159-2.159h-.831Z" transform="translate(-2231.8 -2588.9)" fill="#40002b"/>
      </g>
      <g id="Grupo_1043035" data-name="Grupo 1043035" transform="translate(566.147 674.323)">
        <path id="Trazado_772010" data-name="Trazado 772010" d="M1885.763,3313.807a.411.411,0,0,1-.4-.312,6.032,6.032,0,0,0-5.991-4.571h-2.365a6.031,6.031,0,0,0-5.991,4.571.413.413,0,1,1-.8-.2,6.861,6.861,0,0,1,6.792-5.193h2.365a6.948,6.948,0,0,1,6.186,3.623,7.061,7.061,0,0,1,.606,1.571.413.413,0,0,1-.3.5A.5.5,0,0,1,1885.763,3313.807Z" transform="translate(-1870.204 -3308.1)" fill="#40002b"/>
      </g>
      <g id="Grupo_1043036" data-name="Grupo 1043036" transform="translate(565.945 683.703)">
        <path id="Trazado_772011" data-name="Trazado 772011" d="M1868.159,4051.851h-11.348a2.515,2.515,0,0,1-2.512-2.512v-1.027a.412.412,0,0,1,.824,0v1.027a1.688,1.688,0,0,0,1.686,1.686h11.348a1.688,1.688,0,0,0,1.686-1.686v-1.027a.412.412,0,1,1,.824,0v1.027A2.511,2.511,0,0,1,1868.159,4051.851Z" transform="translate(-1854.3 -4047.9)" fill="#40002b"/>
      </g>
      <g id="Grupo_1043037" data-name="Grupo 1043037" transform="translate(579.708 663.042)">
        <path id="Trazado_772012" data-name="Trazado 772012" d="M2940.212,2420.486a.412.412,0,0,1-.412-.412v-1.261a.412.412,0,0,1,.824,0v1.261A.412.412,0,0,1,2940.212,2420.486Z" transform="translate(-2939.8 -2418.4)" fill="#40002b"/>
      </g>
      <g id="Grupo_1043038" data-name="Grupo 1043038" transform="translate(567.73 663.042)">
        <path id="Trazado_772013" data-name="Trazado 772013" d="M1995.512,2420.486a.412.412,0,0,1-.412-.412v-1.261a.412.412,0,1,1,.824,0v1.261A.41.41,0,0,1,1995.512,2420.486Z" transform="translate(-1995.1 -2418.4)" fill="#40002b"/>
      </g>
    </g>
  </g>
</svg>
