<svg xmlns="http://www.w3.org/2000/svg" width="72" height="72" viewBox="0 0 72 72">
  <g id="Grupo_1043952" data-name="Grupo 1043952" transform="translate(-774 -12250.297)">
    <g id="Grupo_1043875" data-name="Grupo 1043875" transform="translate(0 826)">
      <circle id="Elipse_4808" data-name="Elipse 4808" cx="36" cy="36" r="36" transform="translate(774 11424.297)" fill="#3bc192"/>
    </g>
    <g id="grupo-de-estudio" transform="translate(-48.445 11428.931)">
      <g id="Grupo_1043922" data-name="Grupo 1043922" transform="translate(840.598 834.314)">
        <path id="Trazado_773602" data-name="Trazado 773602" d="M2571.674,1044.755a1.864,1.864,0,0,0,1.861,1.861h10.949a1.861,1.861,0,0,0,0-3.723h-10.949A1.863,1.863,0,0,0,2571.674,1044.755Z" transform="translate(-2552.491 -1040.599)" fill="#fff"/>
        <path id="Trazado_773603" data-name="Trazado 773603" d="M1150.561,884.584l6.7-6.7a3.982,3.982,0,0,1,5.632,5.632l-.2.2a4.14,4.14,0,0,1,.895.672,4.087,4.087,0,0,1-4.161,6.781,7.15,7.15,0,0,1,.407,1.7,1.536,1.536,0,0,1,.8,1.579,3.928,3.928,0,0,1-.5,1.937,12.191,12.191,0,0,0,5.04-2.466,4.612,4.612,0,0,1,1.886-2.031V878.534h-.819a2.118,2.118,0,0,1-1.368-3.737,12.072,12.072,0,0,0-7.454-2.539,12.216,12.216,0,0,0-9.256,20.2,6.276,6.276,0,0,1,1.633-3.333A3.97,3.97,0,0,1,1150.561,884.584Z" transform="translate(-1145.188 -872.258)" fill="#fff"/>
        <path id="Trazado_773604" data-name="Trazado 773604" d="M1466.928,2913.512a4.526,4.526,0,0,0,7.726,0l.587-.962a1.381,1.381,0,0,1-.756-.825l-.3-.879a5.118,5.118,0,0,1-6.8,0l-.295.88a1.379,1.379,0,0,1-.756.825Z" transform="translate(-1462.022 -2883.43)" fill="#fff"/>
        <path id="Trazado_773605" data-name="Trazado 773605" d="M1331.9,2365.82a.129.129,0,0,1,.17-.074.336.336,0,0,0,.125.029c.461,0,.949-1.115.949-2.168,0-.726-.237-1.2-.667-1.345a2.685,2.685,0,0,1-1.925.768,3.4,3.4,0,0,1-.472-.034,3.44,3.44,0,0,1-2.452-1.561,5.4,5.4,0,0,1-2.062,1.226,5.9,5.9,0,0,1-1.814.283,5.667,5.667,0,0,1-2.419-.53l-.006,0q-.16-.076-.313-.163c-.451.131-.7.613-.7,1.358,0,1.054.488,2.168.949,2.168a.341.341,0,0,0,.125-.029.13.13,0,0,1,.17.074,5.328,5.328,0,0,0,10.338,0Z" transform="translate(-1317.966 -2341.409)" fill="#fff"/>
      </g>
      <path id="Trazado_773606" data-name="Trazado 773606" d="M2798.995,1353.826a.128.128,0,0,1-.013-.056v-3.607h-2.894a.129.129,0,1,1,0-.259h2.894v-3.439h-2.894a.129.129,0,1,1,0-.259h2.894v-3.439h-2.894a.129.129,0,1,1,0-.259h2.894v-3.545h-8.793v13.223a4.872,4.872,0,0,1,2.129-.472,4.745,4.745,0,0,1,4.789,4.447,1.277,1.277,0,0,1,.654,1.3c0,.861-.408,2.085-1.068,1.99a5.715,5.715,0,0,1-1.416,2.1l.264.781a.884.884,0,0,0,.585.567l2.449.742a4.181,4.181,0,0,1,2.783,2.727,28.816,28.816,0,0,1,1.271,7.043,1.716,1.716,0,0,1-.806,1.541h4.61a1.7,1.7,0,0,0,1.539-2.442Z" transform="translate(-1927.47 -498.374)" fill="#ff9070"/>
      <path id="Trazado_773607" data-name="Trazado 773607" d="M899.648,3057.161a1.969,1.969,0,0,0,.065-.622,35.1,35.1,0,0,0-1.538-8.453,4.892,4.892,0,0,0-1.421-2.179,4.654,4.654,0,0,0-.772-.55,4.968,4.968,0,0,0-1.048-.46l-2.919-.884-.617,1.011a4.784,4.784,0,0,1-8.168,0l-.617-1.011-2.919.883a4.884,4.884,0,0,0-3.243,3.189,35.376,35.376,0,0,0-1.538,8.454,1.933,1.933,0,0,0,1.927,2.046h3.269v-7.117a.129.129,0,1,1,.259,0v7.117H894.26v-7.117a.129.129,0,1,1,.259,0v7.117h3.269a1.931,1.931,0,0,0,1.854-1.408A.136.136,0,0,1,899.648,3057.161Z" transform="translate(-37.948 -2180.494)" fill="#82fffb"/>
      <path id="Trazado_773608" data-name="Trazado 773608" d="M2019.475,1711.271a3.833,3.833,0,0,0-5.421-5.421,3.515,3.515,0,0,0-.327.374,3.842,3.842,0,0,0-.683,3.252,5.69,5.69,0,0,1,2.315,2.651A3.826,3.826,0,0,0,2019.475,1711.271Zm-3.849-1.443a.13.13,0,0,1-.091-.221l2.586-2.586a.129.129,0,0,1,.183.183l-2.586,2.586A.128.128,0,0,1,2015.626,1709.828Z" transform="translate(-1160.668 -859.215)" fill="#fff"/>
      <path id="Trazado_773609" data-name="Trazado 773609" d="M2616.6,2306.359a3.112,3.112,0,1,0-1.165,4.542,4.258,4.258,0,0,0,2.662-2.251.129.129,0,0,1,.23.117,4.968,4.968,0,0,1-.815,1.167,2.545,2.545,0,0,0,1.841,1.185,2.014,2.014,0,0,0,1.774-.555A4.493,4.493,0,0,0,2616.6,2306.359Z" transform="translate(-1751.75 -1452.76)" fill="#ffe573"/>
      <path id="Trazado_773610" data-name="Trazado 773610" d="M2572.309,2589.7a.13.13,0,0,1,.17-.075.241.241,0,0,0,.093.022c.363,0,.747-.893.747-1.736,0-.571-.182-.944-.512-1.064a2.2,2.2,0,0,1-1.568.619,2.729,2.729,0,0,1-.387-.028,2.825,2.825,0,0,1-1.993-1.253,4.419,4.419,0,0,1-1.818,1.028,4.809,4.809,0,0,1-1.317.181,4.578,4.578,0,0,1-2.232-.56c-.349.107-.542.488-.542,1.076,0,.844.384,1.736.747,1.736a.24.24,0,0,0,.092-.022.133.133,0,0,1,.049-.01.128.128,0,0,1,.052.011.129.129,0,0,1,.069.073,4.3,4.3,0,0,0,8.35,0Z" transform="translate(-1703.286 -1728.825)" fill="#fff"/>
      <path id="Trazado_773611" data-name="Trazado 773611" d="M1391.24,2024.089a2.511,2.511,0,0,0,2.22-.7,5.615,5.615,0,0,0-11.187-.177c.024.026.047.054.071.079.08.087.157.168.235.247a5.686,5.686,0,0,0,4.031.229,5.335,5.335,0,0,0,3.24-3,.177.177,0,1,1,.319-.076,6.251,6.251,0,0,1-1.229,1.907A3.155,3.155,0,0,0,1391.24,2024.089Z" transform="translate(-538.486 -1168.445)" fill="#ffe573"/>
      <path id="Trazado_773612" data-name="Trazado 773612" d="M2539.967,3150.021a28.517,28.517,0,0,0-1.259-6.979,3.923,3.923,0,0,0-2.611-2.558l-2.353-.713-.407.667a3.979,3.979,0,0,1-3.421,1.92h0a3.981,3.981,0,0,1-3.422-1.92l-.407-.667-1.876.569a5.148,5.148,0,0,1,1.331,2.138,35.354,35.354,0,0,1,1.55,8.517,2.239,2.239,0,0,1-.039.553h8.48V3145.8a.129.129,0,1,1,.259,0v5.751h2.818A1.461,1.461,0,0,0,2539.967,3150.021Z" transform="translate(-1665.068 -2274.965)" fill="#82b8ff"/>
      <path id="Trazado_773613" data-name="Trazado 773613" d="M2688.808,3033.261l-.23-.679a4.176,4.176,0,0,1-5.5,0l-.229.681a1.141,1.141,0,0,1-.6.672l.379.621a3.75,3.75,0,0,0,6.4,0l.379-.621A1.139,1.139,0,0,1,2688.808,3033.261Z" transform="translate(-1820.983 -2169.216)" fill="#fff"/>
      <path id="Trazado_773614" data-name="Trazado 773614" d="M1477.533,1567.876a5.721,5.721,0,0,1,3.976-1.513,5.945,5.945,0,0,1,2.715.63,4.1,4.1,0,0,1,.708-3.148l-3.381-3.379-3.255,3.255A3.712,3.712,0,0,0,1477.533,1567.876Z" transform="translate(-632.142 -716.898)" fill="#82b8ff"/>
      <path id="Trazado_773615" data-name="Trazado 773615" d="M1823.6,1227.234a3.723,3.723,0,0,0-6.356-2.632l-3.257,3.257,3.355,3.353c.079-.1.163-.192.257-.287a4.07,4.07,0,0,1,4.651-.8l.26-.26A3.71,3.71,0,0,0,1823.6,1227.234Z" transform="translate(-964.392 -384.474)" fill="#ffe573"/>
      <path id="Trazado_773616" data-name="Trazado 773616" d="M2791.223,1338.961h-1.034v13.223a4.682,4.682,0,0,1,1.034-.355Z" transform="translate(-1927.47 -498.372)" fill="#fff"/>
      <g id="Grupo_1043923" data-name="Grupo 1043923" transform="translate(836.963 863.519)">
        <path id="Trazado_773617" data-name="Trazado 773617" d="M875.948,3057.588a35.371,35.371,0,0,1,1.538-8.453,4.884,4.884,0,0,1,3.242-3.19l2.583-.782c-.027-.042-.056-.083-.082-.125l-.617-1.011-2.919.884a4.883,4.883,0,0,0-3.243,3.189,35.374,35.374,0,0,0-1.538,8.453,1.936,1.936,0,0,0,1.183,1.9A1.916,1.916,0,0,1,875.948,3057.588Z" transform="translate(-874.91 -3044.027)" fill="#fff"/>
      </g>
      <path id="Trazado_773618" data-name="Trazado 773618" d="M2617.632,2307.393a4.471,4.471,0,0,1,2.609.8,4.355,4.355,0,0,0-3.643-1.836,4.49,4.49,0,0,0-4.524,4.18,4.033,4.033,0,0,0,1.147.429A4.424,4.424,0,0,1,2617.632,2307.393Z" transform="translate(-1751.75 -1452.76)" fill="#fff"/>
      <path id="Trazado_773619" data-name="Trazado 773619" d="M1388.887,2019.2a5.518,5.518,0,0,1,3.365,1.086,5.4,5.4,0,0,0-4.4-2.121,5.542,5.542,0,0,0-5.581,5.041l.071.079c.08.088.157.168.235.247a5.019,5.019,0,0,0,.806.289A5.5,5.5,0,0,1,1388.887,2019.2Z" transform="translate(-538.486 -1168.447)" fill="#fff"/>
      <g id="Grupo_1043924" data-name="Grupo 1043924" transform="translate(859.142 864.806)">
        <path id="Trazado_773620" data-name="Trazado 773620" d="M2526.807,3140.883a4.119,4.119,0,0,1-.314-.445l-.407-.667-1.876.569a5.2,5.2,0,0,1,.8.99Z" transform="translate(-2524.209 -3139.771)" fill="#fff"/>
      </g>
      <path id="Trazado_773621" data-name="Trazado 773621" d="M1482.641,1561.556l-1.09-1.089-3.255,3.255a3.712,3.712,0,0,0-.763,4.154,5.461,5.461,0,0,1,.708-.555,3.711,3.711,0,0,1,1.089-2.565l3.255-3.255.055.055Z" transform="translate(-632.143 -716.899)" fill="#fff"/>
      <path id="Trazado_773622" data-name="Trazado 773622" d="M1818.275,1225.636a3.725,3.725,0,0,1,4.7-.468,3.775,3.775,0,0,0-.465-.566,3.723,3.723,0,0,0-5.266,0l-3.258,3.257,1.035,1.034Z" transform="translate(-964.392 -384.474)" fill="#fff"/>
      <g id="Grupo_1043925" data-name="Grupo 1043925" transform="translate(854.798 855.685)">
        <path id="Trazado_773623" data-name="Trazado 773623" d="M2201.531,2464.863a.388.388,0,0,1-.073-.769,11.925,11.925,0,0,0,5.309-2.5.388.388,0,0,1,.493.6,12.706,12.706,0,0,1-5.656,2.668A.4.4,0,0,1,2201.531,2464.863Z" transform="translate(-2201.143 -2461.501)" fill="#001259"/>
      </g>
      <g id="Grupo_1043926" data-name="Grupo 1043926" transform="translate(840.08 833.796)">
        <path id="Trazado_773624" data-name="Trazado 773624" d="M1110.663,855.587a.387.387,0,0,1-.274-.114c-.089-.089-.176-.181-.263-.276-.045-.048-.091-.1-.134-.148a12.737,12.737,0,0,1,17.355-18.52.388.388,0,0,1-.387.671.527.527,0,0,1-.088-.057h0a11.824,11.824,0,0,0-7.406-2.57,11.961,11.961,0,0,0-8.887,19.968c.043.051.078.088.113.126.085.093.164.177.245.258a.388.388,0,0,1-.274.662Z" transform="translate(-1106.727 -833.796)" fill="#001259"/>
      </g>
      <g id="Grupo_1043927" data-name="Grupo 1043927" transform="translate(851.069 851.844)">
        <path id="Trazado_773625" data-name="Trazado 773625" d="M1924.235,2176.642a.389.389,0,1,1,.277-.116l0,0A.386.386,0,0,1,1924.235,2176.642Z" transform="translate(-1923.847 -2175.866)" fill="#001259"/>
      </g>
      <g id="Grupo_1043928" data-name="Grupo 1043928" transform="translate(844.543 838.52)">
        <path id="Trazado_773626" data-name="Trazado 773626" d="M1439.373,1198.107a.388.388,0,0,1-.346-.213,4.229,4.229,0,0,1,.788-4.908l6.7-6.7a4.241,4.241,0,0,1,6,6l-.324.324a.388.388,0,0,1-.549-.548l.323-.323a3.465,3.465,0,0,0-4.9-4.9l-6.7,6.7a3.455,3.455,0,0,0-.644,4.009.388.388,0,0,1-.346.563Z" transform="translate(-1438.57 -1185.049)" fill="#001259"/>
      </g>
      <g id="Grupo_1043929" data-name="Grupo 1043929" transform="translate(849.021 842.998)">
        <path id="Trazado_773627" data-name="Trazado 773627" d="M1775.476,1522.35a.387.387,0,0,1-.274-.114l-3.548-3.545a.388.388,0,1,1,.548-.549l3.548,3.546a.388.388,0,0,1-.274.662Z" transform="translate(-1771.54 -1518.029)" fill="#001259"/>
      </g>
      <g id="Grupo_1043930" data-name="Grupo 1043930" transform="translate(851.748 844.991)">
        <path id="Trazado_773628" data-name="Trazado 773628" d="M1978.7,1674.953a4.348,4.348,0,0,1-1.635-.32.388.388,0,1,1,.291-.719,3.575,3.575,0,0,0,3.87-5.842,3.611,3.611,0,0,0-.917-.662,3.556,3.556,0,0,0-4.139.662,3.288,3.288,0,0,0-.3.347,3.586,3.586,0,0,0-.63,3.075.388.388,0,1,1-.751.2,4.364,4.364,0,0,1,.764-3.741,4.006,4.006,0,0,1,.372-.425,4.331,4.331,0,0,1,5.038-.806,4.352,4.352,0,0,1-1.96,8.235Z" transform="translate(-1974.351 -1666.246)" fill="#001259"/>
      </g>
      <g id="Grupo_1043931" data-name="Grupo 1043931" transform="translate(854.571 847.509)">
        <path id="Trazado_773629" data-name="Trazado 773629" d="M2184.648,1856.878a.388.388,0,0,1-.274-.662l2.586-2.586a.388.388,0,0,1,.549.549l-2.586,2.586A.387.387,0,0,1,2184.648,1856.878Z" transform="translate(-2184.26 -1853.516)" fill="#001259"/>
      </g>
      <g id="Grupo_1043932" data-name="Grupo 1043932" transform="translate(862.202 840.073)">
        <path id="Trazado_773630" data-name="Trazado 773630" d="M2752.115,1314.86a.388.388,0,0,1-.388-.388v-13.556a.388.388,0,1,1,.776,0v13.556A.388.388,0,0,1,2752.115,1314.86Z" transform="translate(-2751.727 -1300.528)" fill="#001259"/>
      </g>
      <g id="Grupo_1043933" data-name="Grupo 1043933" transform="translate(861.434 840.073)">
        <path id="Trazado_773631" data-name="Trazado 773631" d="M2712.145,1337.556H2695a.388.388,0,0,1,0-.776h17.14a1.446,1.446,0,0,0,1.305-2.072l-8.976-18.69a.392.392,0,0,1-.038-.168v-14.935a.388.388,0,0,1,.776,0v14.846l8.938,18.61a2.222,2.222,0,0,1-2,3.183Z" transform="translate(-2694.617 -1300.528)" fill="#001259"/>
      </g>
      <g id="Grupo_1043934" data-name="Grupo 1043934" transform="translate(859.263 836.091)">
        <path id="Trazado_773632" data-name="Trazado 773632" d="M2546.54,1009.189H2535.59a2.379,2.379,0,0,1,0-4.757h10.949a2.379,2.379,0,0,1,0,4.757Zm-10.949-3.981a1.6,1.6,0,0,0,0,3.206h10.949a1.6,1.6,0,0,0,0-3.206Z" transform="translate(-2533.212 -1004.432)" fill="#001259"/>
      </g>
      <g id="Grupo_1043935" data-name="Grupo 1043935" transform="translate(868.23 843.876)">
        <path id="Trazado_773633" data-name="Trazado 773633" d="M3203.4,1584.141h-3.025a.388.388,0,0,1,0-.776h3.025a.388.388,0,0,1,0,.776Z" transform="translate(-3199.988 -1583.365)" fill="#001259"/>
      </g>
      <g id="Grupo_1043936" data-name="Grupo 1043936" transform="translate(868.23 847.574)">
        <path id="Trazado_773634" data-name="Trazado 773634" d="M3203.4,1859.1h-3.025a.388.388,0,0,1,0-.776h3.025a.388.388,0,0,1,0,.776Z" transform="translate(-3199.988 -1858.324)" fill="#001259"/>
      </g>
      <g id="Grupo_1043937" data-name="Grupo 1043937" transform="translate(868.23 851.271)">
        <path id="Trazado_773635" data-name="Trazado 773635" d="M3203.4,2134.058h-3.025a.388.388,0,0,1,0-.776h3.025a.388.388,0,0,1,0,.776Z" transform="translate(-3199.988 -2133.282)" fill="#001259"/>
      </g>
      <g id="Grupo_1043938" data-name="Grupo 1043938" transform="translate(858.504 862.758)">
        <path id="Trazado_773636" data-name="Trazado 773636" d="M2477.112,2990.386a.388.388,0,0,1-.112-.759l2.185-.662a.627.627,0,0,0,.414-.4l.29-.861a.388.388,0,1,1,.735.248l-.29.858a1.4,1.4,0,0,1-.925.9l-2.185.662A.392.392,0,0,1,2477.112,2990.386Z" transform="translate(-2476.724 -2987.44)" fill="#001259"/>
      </g>
      <g id="Grupo_1043939" data-name="Grupo 1043939" transform="translate(867.27 862.759)">
        <path id="Trazado_773637" data-name="Trazado 773637" d="M3134.929,3001.89a.388.388,0,0,1-.025-.775,1.2,1.2,0,0,0,1.12-1.255,28.286,28.286,0,0,0-1.247-6.914,3.665,3.665,0,0,0-2.439-2.389l-2.45-.742a1.4,1.4,0,0,1-.926-.9l-.289-.853a.388.388,0,1,1,.742-.226l.282.833a.626.626,0,0,0,.415.4l2.449.742a4.442,4.442,0,0,1,2.954,2.9,29.087,29.087,0,0,1,1.282,7.107,1.981,1.981,0,0,1-1.843,2.072Z" transform="translate(-3128.653 -2987.549)" fill="#001259"/>
      </g>
      <g id="Grupo_1043940" data-name="Grupo 1043940" transform="translate(860.689 864.266)">
        <path id="Trazado_773638" data-name="Trazado 773638" d="M2643.427,3102.983h0a4.236,4.236,0,0,1-3.642-2.044l-.459-.752a.388.388,0,1,1,.662-.4l.459.752a3.492,3.492,0,0,0,5.96,0l.459-.752a.388.388,0,1,1,.662.4l-.459.752A4.237,4.237,0,0,1,2643.427,3102.983Z" transform="translate(-2639.268 -3099.597)" fill="#001259"/>
      </g>
      <g id="Grupo_1043941" data-name="Grupo 1043941" transform="translate(870.206 870.444)">
        <path id="Trazado_773639" data-name="Trazado 773639" d="M3347.3,3565.688a.388.388,0,0,1-.388-.388v-5.886a.388.388,0,1,1,.776,0v5.886A.388.388,0,0,1,3347.3,3565.688Z" transform="translate(-3346.914 -3559.026)" fill="#001259"/>
      </g>
      <g id="Grupo_1043942" data-name="Grupo 1043942" transform="translate(859.146 853.082)">
        <path id="Trazado_773640" data-name="Trazado 773640" d="M2530.19,2279.472a5.085,5.085,0,0,1-4.55-3.323c-.752-.112-1.152-1.344-1.152-2.246a1.543,1.543,0,0,1,.674-1.469,5.054,5.054,0,0,1,10.055,0,1.543,1.543,0,0,1,.674,1.469c0,.9-.4,2.134-1.152,2.246A5.085,5.085,0,0,1,2530.19,2279.472Zm-4.284-4.12a.373.373,0,0,1,.351.25,4.047,4.047,0,0,0,7.866,0,.388.388,0,0,1,.511-.223,2.069,2.069,0,0,0,.482-1.476c0-.218-.036-.736-.364-.832a.388.388,0,0,1-.278-.332,4.29,4.29,0,0,0-8.567,0,.388.388,0,0,1-.278.332c-.329.1-.364.613-.364.832a2.015,2.015,0,0,0,.5,1.479A.387.387,0,0,1,2525.906,2275.352Z" transform="translate(-2524.488 -2267.898)" fill="#001259"/>
      </g>
      <g id="Grupo_1043943" data-name="Grupo 1043943" transform="translate(859.793 855.561)">
        <path id="Trazado_773641" data-name="Trazado 773641" d="M2575.226,2455.524a4.811,4.811,0,0,1-2.459-.647.388.388,0,0,1,.4-.665,4.2,4.2,0,0,0,3.231.375,4,4,0,0,0,2.5-2.12.388.388,0,0,1,.691.352,4.76,4.76,0,0,1-2.98,2.513A5.058,5.058,0,0,1,2575.226,2455.524Z" transform="translate(-2572.58 -2452.255)" fill="#001259"/>
      </g>
      <g id="Grupo_1043944" data-name="Grupo 1043944" transform="translate(865.211 856.767)">
        <path id="Trazado_773642" data-name="Trazado 773642" d="M2978.211,2544.083a2.953,2.953,0,0,1-.411-.029,3.051,3.051,0,0,1-2.277-1.542.388.388,0,1,1,.693-.349,2.288,2.288,0,0,0,1.692,1.122,1.785,1.785,0,0,0,1.591-.516.388.388,0,1,1,.57.526A2.49,2.49,0,0,1,2978.211,2544.083Z" transform="translate(-2975.481 -2541.95)" fill="#001259"/>
      </g>
      <g id="Grupo_1043945" data-name="Grupo 1043945" transform="translate(836.446 861.121)">
        <path id="Trazado_773643" data-name="Trazado 773643" d="M859.841,2883.205H838.893a2.45,2.45,0,0,1-2.443-2.594,35.908,35.908,0,0,1,1.561-8.579,5.4,5.4,0,0,1,3.586-3.528l3.015-.913a.863.863,0,0,0,.57-.551l.354-1.058a.388.388,0,1,1,.736.247l-.354,1.058a1.639,1.639,0,0,1-1.081,1.047l-3.014.913a4.627,4.627,0,0,0-3.071,3.021,35.114,35.114,0,0,0-1.526,8.391,1.674,1.674,0,0,0,1.669,1.771h20.947a1.672,1.672,0,0,0,1.6-1.219c0-.009.005-.017.008-.026a1.716,1.716,0,0,0,.053-.528,34.825,34.825,0,0,0-1.526-8.389,4.633,4.633,0,0,0-1.346-2.064,4.381,4.381,0,0,0-.727-.519,4.742,4.742,0,0,0-1-.438l-3.013-.912a1.639,1.639,0,0,1-1.08-1.047l-.357-1.057a.388.388,0,0,1,.735-.248l.357,1.058a.863.863,0,0,0,.569.552l3.016.913a5.517,5.517,0,0,1,1.157.507,5.171,5.171,0,0,1,.853.609,5.414,5.414,0,0,1,1.573,2.412,35.615,35.615,0,0,1,1.562,8.58,2.483,2.483,0,0,1-.086.8h0c0,.009-.005.018-.008.027A2.451,2.451,0,0,1,859.841,2883.205Z" transform="translate(-836.446 -2865.718)" fill="#001259"/>
      </g>
      <g id="Grupo_1043946" data-name="Grupo 1043946" transform="translate(844.336 862.978)">
        <path id="Trazado_773644" data-name="Trazado 773644" d="M1428.237,3007.926a5.008,5.008,0,0,1-4.3-2.416l-.669-1.1a.388.388,0,0,1,.662-.4l.669,1.1a4.267,4.267,0,0,0,7.285,0l.669-1.1a.388.388,0,0,1,.662.4l-.669,1.1A5.007,5.007,0,0,1,1428.237,3007.926Z" transform="translate(-1423.207 -3003.824)" fill="#001259"/>
      </g>
      <g id="Grupo_1043947" data-name="Grupo 1043947" transform="translate(856.054 870.586)">
        <path id="Trazado_773645" data-name="Trazado 773645" d="M2294.953,3577.567a.388.388,0,0,1-.388-.388v-7.248a.388.388,0,0,1,.776,0v7.248A.388.388,0,0,1,2294.953,3577.567Z" transform="translate(-2294.565 -3569.543)" fill="#001259"/>
      </g>
      <g id="Grupo_1043948" data-name="Grupo 1043948" transform="translate(841.904 870.586)">
        <path id="Trazado_773646" data-name="Trazado 773646" d="M1242.688,3577.567a.388.388,0,0,1-.388-.388v-7.248a.388.388,0,0,1,.776,0v7.248A.388.388,0,0,1,1242.688,3577.567Z" transform="translate(-1242.3 -3569.543)" fill="#001259"/>
      </g>
      <g id="Grupo_1043949" data-name="Grupo 1043949" transform="translate(842.435 849.206)">
        <path id="Trazado_773647" data-name="Trazado 773647" d="M1288.79,1993.78a6.184,6.184,0,0,1-5.54-4.085c-.908-.079-1.391-1.586-1.391-2.682a1.8,1.8,0,0,1,.823-1.753,6.136,6.136,0,0,1,12.216,0,1.8,1.8,0,0,1,.823,1.753c0,1.1-.483,2.6-1.391,2.682A6.184,6.184,0,0,1,1288.79,1993.78Zm-5.29-4.9a.388.388,0,0,1,.363.252,5.072,5.072,0,0,0,9.854,0,.388.388,0,0,1,.511-.223.139.139,0,0,0,.031.01c.2,0,.687-.827.687-1.91,0-.359-.067-.981-.513-1.11a.388.388,0,0,1-.278-.332,5.372,5.372,0,0,0-10.728,0,.389.389,0,0,1-.278.332c-.447.129-.513.751-.513,1.11,0,1.082.49,1.908.69,1.91a.284.284,0,0,0,.028-.01A.389.389,0,0,1,1283.5,1988.884Z" transform="translate(-1281.859 -1979.708)" fill="#001259"/>
      </g>
      <g id="Grupo_1043950" data-name="Grupo 1043950" transform="translate(843.232 851.806)">
        <path id="Trazado_773648" data-name="Trazado 773648" d="M1344.245,2177.319a5.793,5.793,0,0,1-2.971-.787.388.388,0,0,1,.4-.664,5.326,5.326,0,0,0,4.223.418,5.114,5.114,0,0,0,3.162-3.031.388.388,0,0,1,.714.3,5.867,5.867,0,0,1-3.637,3.467A6.144,6.144,0,0,1,1344.245,2177.319Z" transform="translate(-1341.087 -2173.018)" fill="#001259"/>
      </g>
      <g id="Grupo_1043951" data-name="Grupo 1043951" transform="translate(849.903 853.744)">
        <path id="Trazado_773649" data-name="Trazado 773649" d="M1840.467,2319.608a3.545,3.545,0,0,1-.494-.035,3.665,3.665,0,0,1-2.737-1.85.388.388,0,0,1,.693-.349,2.912,2.912,0,0,0,2.151,1.43,2.283,2.283,0,0,0,2.037-.663.388.388,0,1,1,.57.526A2.979,2.979,0,0,1,1840.467,2319.608Z" transform="translate(-1837.195 -2317.161)" fill="#001259"/>
      </g>
    </g>
  </g>
</svg>
