<svg xmlns="http://www.w3.org/2000/svg" width="108" height="108" viewBox="0 0 108 108">
  <g id="Grupo_1042634" data-name="Grupo 1042634" transform="translate(-353 -3226)">
    <rect id="Rectángulo_33830" data-name="Rectángulo 33830" width="108" height="108" rx="12" transform="translate(353 3226)" fill="#3bc192"/>
    <g id="latido-del-corazon" transform="translate(377.627 3205.96)">
      <path id="Trazado_721683" data-name="Trazado 721683" d="M50.386,56.9a16.228,16.228,0,0,0-11.961,5.283A16.228,16.228,0,0,0,26.465,56.9,16.68,16.68,0,0,0,10,73.787c0,13.065,28.426,34.8,28.426,34.8s28.426-21.733,28.426-34.8A16.68,16.68,0,0,0,50.386,56.9Z" transform="translate(-8.702 -8.702)" fill="#fff0d0"/>
      <circle id="Elipse_4751" data-name="Elipse 4751" cx="10.124" cy="10.124" r="10.124" transform="translate(44.91 63.043)" fill="#fabf40"/>
      <path id="Trazado_721684" data-name="Trazado 721684" d="M336.126,341.648l-.037.038a1.3,1.3,0,0,0,1.854,1.817l.037-.038a1.3,1.3,0,0,0-1.854-1.817Z" transform="translate(-292.143 -256.152)" fill="#166448"/>
      <path id="Trazado_721685" data-name="Trazado 721685" d="M388.218,207.449h-3.449V204a1.3,1.3,0,1,0-2.6,0v3.449h-3.449a1.3,1.3,0,0,0,0,2.6h3.449v3.449a1.3,1.3,0,0,0,2.6,0v-3.449h3.449a1.3,1.3,0,1,0,0-2.6Z" transform="translate(-328.437 -135.58)" fill="#166448"/>
      <path id="Trazado_721686" data-name="Trazado 721686" d="M59.278,62.563A17.889,17.889,0,0,0,41.684,46.9a17.348,17.348,0,0,0-11.961,4.739A17.349,17.349,0,0,0,17.763,46.9,18,18,0,0,0,0,65.085a15.918,15.918,0,0,0,1.728,6.653H1.3a1.3,1.3,0,0,0,0,2.6H3.11A73.528,73.528,0,0,0,14.6,88.3a167.306,167.306,0,0,0,14.34,12.61,1.3,1.3,0,0,0,1.577,0c.055-.042,5.549-4.255,11.637-10a1.3,1.3,0,1,0-1.781-1.889c-4.643,4.378-8.93,7.849-10.645,9.205A166.386,166.386,0,0,1,16.407,86.444,77.206,77.206,0,0,1,6.16,74.334H17.78a1.3,1.3,0,0,0,1.248-.94l2.268-7.9,6.28,20.121a1.3,1.3,0,0,0,2.478,0l3.478-11.146h5.795a1.3,1.3,0,1,0,0-2.6H32.577a1.3,1.3,0,0,0-1.239.911l-2.524,8.087L22.482,60.578A1.3,1.3,0,0,0,20,60.607L16.8,71.738H4.624A14.761,14.761,0,0,1,2.6,65.085a15.4,15.4,0,0,1,15.167-15.59A14.84,14.84,0,0,1,28.77,54.36a1.3,1.3,0,0,0,1.908,0,14.84,14.84,0,0,1,11.007-4.865A15.261,15.261,0,0,1,56.523,61.842a11.426,11.426,0,1,0,2.754.721ZM55.034,81.993a8.826,8.826,0,1,1,8.826-8.826A8.836,8.836,0,0,1,55.034,81.993Z" fill="#166448"/>
    </g>
  </g>
</svg>
