<svg xmlns="http://www.w3.org/2000/svg" width="190" height="169" viewBox="0 0 190 169">
  <g id="Grupo_1043097" data-name="Grupo 1043097" transform="translate(-600 -14315.416)">
    <rect id="Rectángulo_355765" data-name="Rectángulo 355765" width="190" height="169" rx="12" transform="translate(600 14315.416)" fill="#fde9bc"/>
    <g id="dolor-de-cabeza" transform="translate(619.377 14352.416)">
      <g id="Grupo_1043094" data-name="Grupo 1043094" transform="translate(23.181 0.557)">
        <path id="Trazado_772151" data-name="Trazado 772151" d="M117.505,348.6,24.624,348.4c0-22.54,12.645-37.709,33.371-44a84.029,84.029,0,0,1,24.415-3.317c8.817,0,15.417,2.966,20.362,7.417C117.614,321.859,117.505,348.6,117.505,348.6Z" transform="translate(-24.624 -217.716)" fill="#51518e"/>
        <path id="Trazado_772152" data-name="Trazado 772152" d="M61.925,325.372a43.559,43.559,0,0,0-15.977,31.654l-21.323-.047c0-22.363,12.454-37.641,33.371-44Z" transform="translate(-24.624 -226.299)" fill="#3e3e7a"/>
        <path id="Trazado_772153" data-name="Trazado 772153" d="M150.414,324.842a40.64,40.64,0,0,1-8.092-.778c-17.053-3.442-22.218-17.173-22.218-17.173,7.714-3.395,17.954-5.809,31.171-5.809,7.622,0,14.583,2.218,20.362,7.417C171.637,308.5,173.973,324.842,150.414,324.842Z" transform="translate(-93.49 -217.716)" fill="#ffebd3"/>
        <path id="Trazado_772154" data-name="Trazado 772154" d="M179.994,112.955c-1.121.066-3.082.029-3.735,0V126.92H152.3c0-6.68-.2-19.761-.312-26.341-.164-.532-1.334-4.469-5.912-19.852.053-.566,2.284-24.47,2.341-25.073L170.592,46l19.908,9.48c4.739,6.973,8.813,14.94,10.416,23.149C205.144,100.208,190.265,112.28,179.994,112.955Z" transform="translate(-112.221 -33.737)" fill="#ffebd3"/>
        <path id="Trazado_772155" data-name="Trazado 772155" d="M142.322,165.964c-17.053-3.442-22.218-17.173-22.218-17.173a64.641,64.641,0,0,1,13.41-4.153c-.089-8.532-.259-18.18-.259-18.18-.164-.532-1.334-4.469-5.912-19.852l2.305-24.691a51.636,51.636,0,0,1,19.381,3.331s-9.4,28.406-9.076,58.373A110.352,110.352,0,0,0,142.322,165.964Z" transform="translate(-93.49 -59.616)" fill="#ffd5b7"/>
        <path id="Trazado_772156" data-name="Trazado 772156" d="M164.816,38.849a73.96,73.96,0,0,0-3.872-7.205,14.042,14.042,0,0,1-5.12,3.6c-8.044,3.3-17.6-1.213-17.82-1.316a10.984,10.984,0,0,1-6.358,2.514,17.842,17.842,0,0,1-7.969-1.4,51.285,51.285,0,0,1-2.3,15.807l-13.418,5.486S90.1,29.76,114.39,23.658c0,0,3.727-9.026,11.668-11.938a16.023,16.023,0,0,1,11.671.435s11.59-6.5,22.123-4.022a17.519,17.519,0,0,1,9.7,6.032c11.241,13.563-4.739,24.685-4.739,24.685Z" transform="translate(-80.166 -6.016)" fill="#c5c5ff"/>
        <path id="Trazado_772157" data-name="Trazado 772157" d="M305.046,40.308a73.967,73.967,0,0,0-3.872-7.205,14.042,14.042,0,0,1-5.12,3.6c8.29-10.009,5.982-21.463,4.028-27.113a17.519,17.519,0,0,1,9.7,6.032C321.026,29.187,305.046,40.308,305.046,40.308Z" transform="translate(-220.396 -7.475)" fill="#a4a4f7"/>
        <path id="Trazado_772158" data-name="Trazado 772158" d="M131.646,47.186a17.842,17.842,0,0,1-7.969-1.4,51.285,51.285,0,0,1-2.3,15.807L107.956,67.08S90.1,40.5,114.39,34.4c0,0,3.727-9.026,11.668-11.938-1.249,6.007-2.194,17.226,5.589,24.724Z" transform="translate(-80.166 -16.758)" fill="#a4a4f7"/>
        <path id="Trazado_772159" data-name="Trazado 772159" d="M222.474,7.989l-10.55,15.087,8.254.05L200.725,45.392l6.551-18.825-6.693-.662,4.567-18.09Z" transform="translate(-151.536 -6.194)" fill="#ffe262"/>
        <path id="Trazado_772160" data-name="Trazado 772160" d="M237.609,283.295v4.688l-6.475-5.812A25.259,25.259,0,0,0,237.609,283.295Z" transform="translate(-173.572 -204.076)" fill="#ffd5b7"/>
        <path id="Trazado_772161" data-name="Trazado 772161" d="M125.819,159.49,124.7,159a17.129,17.129,0,0,0-9.417-.308,7.737,7.737,0,0,0-4.281,2.592v0c-7.933,9.161-1.028,36.851,19.137,17.879l1.471-12.578A11.384,11.384,0,0,0,125.819,159.49Z" transform="translate(-84.612 -114.653)" fill="#ffd5b7"/>
        <path id="Trazado_772162" data-name="Trazado 772162" d="M148.483,182.528l4.416,13.917C157.047,187.747,148.483,182.528,148.483,182.528Z" transform="translate(-113.959 -132.208)" fill="#ffc7a0"/>
        <g id="Grupo_1043093" data-name="Grupo 1043093" transform="translate(74.51)">
          <path id="Trazado_772163" data-name="Trazado 772163" d="M335.7,12.545l-18.982,9.792,8.888,4.746-33.67,13,17.777-16.614-6.854-4.519L318.072,2Z" transform="translate(-291.934 -1.999)" fill="#ffe262"/>
          <path id="Trazado_772164" data-name="Trazado 772164" d="M344.947,118.146l-15.6-.557,3.963,6.2-26.1-3.773,17.271-4.22-2.749-5.333,15.76-5.35Z" transform="translate(-302.953 -76.375)" fill="#ffe262"/>
        </g>
      </g>
      <g id="Grupo_1043095" data-name="Grupo 1043095" transform="translate(22.623 0)">
        <path id="Trazado_772165" data-name="Trazado 772165" d="M147.331,180.609a.558.558,0,0,0-.581.952c.332.2,8.081,5.069,4.2,13.2a.558.558,0,1,0,1.007.48C156.275,186.195,147.421,180.664,147.331,180.609Z" transform="translate(-111.959 -130.208)"/>
        <path id="Trazado_772166" data-name="Trazado 772166" d="M141.74,10.625,124.114.079a.558.558,0,0,0-.7.106L114.4,10.227C109.658,3.1,102.526.709,94.075,1.8L76.8,1.621a.558.558,0,0,0-.546.421l-.716,2.835C70.345,4.431,65.5,6.505,61.509,10.91A27.543,27.543,0,0,0,57,17.727c-5.9,1.539-9.835,4.434-11.688,8.611-3.182,7.172.537,16.34,3.17,21.364-6.424,9.224-1.132,30.64,13.958,22.711.049,3.05.141,9.052.2,14.71-24.781,5.108-40.02,21.212-40.02,46.112a.557.557,0,0,0,1.115,0c0-18.9,9.221-33.2,25.772-40.745a28.991,28.991,0,0,0,6.218,8.617c4.3,4.166,12.021,9.132,24.378,9.132,8.578,0,14.775-2.131,18.42-6.334a14.29,14.29,0,0,0,3.428-9.257q6.42,6.312,10.029,17.42a77.56,77.56,0,0,1,3.523,21.37.557.557,0,0,0,1.115,0,78.74,78.74,0,0,0-3.568-21.691c-4.127-12.768-11.944-23.126-25.273-25.745V80.352c1.085.025,2.253.037,3.211-.02,5.8-.38,12.042-4.027,16.287-9.516,3.587-4.638,7.37-12.628,5.319-24.511l15.376,2.223a.558.558,0,0,0,.55-.852l-3.392-5.31,14.536.519a.558.558,0,0,0,.5-.834l-7.453-13.027a.557.557,0,0,0-.663-.251l-15.76,5.35a.557.557,0,0,0-.316.783l2.424,4.7-6.965,1.7a55.185,55.185,0,0,0-2.345-6.476l22.471-8.675a.558.558,0,0,0,.062-1.012L123.672,20.9,141.709,11.6a.558.558,0,0,0,.03-.974ZM94.433,2.876c8.1-.983,14.817,1.409,19.192,8.212L108.2,17.133a.558.558,0,0,0,.108.838l6.264,4.13L106.55,29.6c-.593-1.1-1.231-2.225-1.907-3.351a20.2,20.2,0,0,0,3.631-6.467.557.557,0,0,0-1.05-.374,17.805,17.805,0,0,1-3.678,6.407c-6.462,7.112-16.72,4.291-20.706,2.807l9.4-10.761a.558.558,0,0,0-.416-.924l-7.192-.044ZM77.228,2.741,93.055,2.9,83.111,17.12a.558.558,0,0,0,.454.877l7.036.043L73.84,37.224l5.607-16.11a.557.557,0,0,0-.471-.738l-6.049-.6ZM46.333,26.79c1.735-3.909,5.505-6.617,11.207-8.05a.558.558,0,0,0,.379-.328c.056-.135,5.659-13.311,17.344-12.446L71.687,20.132a.558.558,0,0,0,.486.691l5.989.593L75.038,30.39a17.214,17.214,0,0,1-7.795-1.176c-.011-1.262-.065-2.531-.163-3.778a.558.558,0,1,0-1.112.088,54.062,54.062,0,0,1-1.921,19.113,14.584,14.584,0,0,0-8.461-.9c-2.549.347-4.427.85-6.349,3-2.516-4.923-5.808-13.4-2.905-19.943Zm73.019,13.735a.557.557,0,0,0,.363-.8l-2.452-4.758,14.712-4.994L138.7,41.736l-14.6-.521a.558.558,0,0,0-.49.857l3.308,5.179-22.052-3.187Zm-9,1.052-8.535,2.085a.557.557,0,0,0,.053,1.093l9.564,1.382c2.121,11.682-1.554,19.49-5.038,24-4.055,5.244-9.985,8.726-15.474,9.086a27.944,27.944,0,0,1-10.013-1.1.557.557,0,1,0-.332,1.064A25.94,25.94,0,0,0,86.663,80.3V93.741a.557.557,0,0,0,1.115,0v-8.6a27.652,27.652,0,0,1,13.013,6.423,13.415,13.415,0,0,1-3.121,9.624c-3.425,3.939-9.335,5.935-17.566,5.935-11.957,0-19.413-4.775-23.563-8.781a28.292,28.292,0,0,1-6.01-8.307A63.358,63.358,0,0,1,62.655,86.26c.027,2.765.045,5.392.045,7.48a.557.557,0,1,0,1.115,0c0-6.915-.2-19.71-.268-23.964a30.16,30.16,0,0,0,5.548-4.3.557.557,0,0,0-.764-.812C46.974,84.76,41.594,51.145,52.306,45.731a13.809,13.809,0,0,1,4.61-1.022,12.991,12.991,0,0,1,7.237,1.19,10.924,10.924,0,0,1,5.487,6.718.558.558,0,0,0,1.088-.243,11.87,11.87,0,0,0-5.661-7.254,52.606,52.606,0,0,0,2.178-14.707,18.191,18.191,0,0,0,7.392,1.132l-2.794,8.028a.558.558,0,0,0,.946.55l9.269-10.609a29.456,29.456,0,0,0,10.23,2.038A15.83,15.83,0,0,0,103.853,27.1c.658,1.106,1.279,2.206,1.854,3.286l-8.4,7.848a.558.558,0,0,0,.381.965c.154,0-.506.235,10.359-3.959A54.241,54.241,0,0,1,110.352,41.577ZM122.216,20.4a.558.558,0,0,0-.007.987l7.814,4.172L100.171,37.084l15.677-14.651a.557.557,0,0,0-.074-.873L109.459,17.4,123.936,1.272l16.372,9.8Z" transform="translate(-22.623 0)"/>
      </g>
    </g>
  </g>
</svg>
