<svg xmlns="http://www.w3.org/2000/svg" width="116" height="116" viewBox="0 0 116 116">
  <g id="Grupo_1043354" data-name="Grupo 1043354" transform="translate(-425 -14969)">
    <g id="Elipse_4822" data-name="Elipse 4822" transform="translate(425 14969)" fill="#e0ebff" stroke="#0b62f8" stroke-width="1">
      <circle cx="58" cy="58" r="58" stroke="none"/>
      <circle cx="58" cy="58" r="57.5" fill="none"/>
    </g>
    <g id="cuentagotas" transform="translate(-418.617 14297.553)">
      <g id="Grupo_1043132" data-name="Grupo 1043132" transform="translate(868.859 694.184)">
        <path id="Trazado_772283" data-name="Trazado 772283" d="M2069.373,865.268c-2.01,3.069-3.91,5.968-4.681,9.107-.072.294-.151.673-.243,1.119-.878,4.231-2.886,13.912-11.975,13.91q-.567,0-1.172-.052c-2.682-.23-8.866-1.9-8.389-12.375,0-.005,0-.011,0-.017.008-.453.194-11.146-.328-14.928a98.418,98.418,0,0,0-3.239-14.859,19.063,19.063,0,0,1,2.759-16.96,16.71,16.71,0,0,1,13.611-7.347c8.113,0,18.229,3.376,20.346,19.461C2077.456,852.928,2073.162,859.484,2069.373,865.268Z" transform="translate(-2007.449 -820.547)" fill="#fff"/>
        <path id="Trazado_772284" data-name="Trazado 772284" d="M1193.882,738.913a.44.44,0,0,1,.427-.332h6.089a.44.44,0,0,1,.427.332l3.391,13.385h-13.725Z" transform="translate(-1182.847 -738.581)" fill="#fff"/>
        <path id="Trazado_772285" data-name="Trazado 772285" d="M1054.127,1290.844a.971.971,0,0,1-.969-.969v-6.982a.97.97,0,0,1,.969-.969h3.063v4.989a.619.619,0,0,0,1.237,0v-4.989h4.123v2.714a.619.619,0,0,0,1.237,0v-2.714h9.685a.97.97,0,0,1,.969.969v6.982a.971.971,0,0,1-.969.969h-19.346Z" transform="translate(-1049.294 -1266.97)" fill="#fff"/>
        <path id="Trazado_772286" data-name="Trazado 772286" d="M1200.454,1650.976h13.176v3.92h-13.176Z" transform="translate(-1192.536 -1625.864)" fill="#fff"/>
        <path id="Trazado_772287" data-name="Trazado 772287" d="M941.768,2949.608a3.158,3.158,0,0,1-3.154,3.154h-22.7a3.158,3.158,0,0,1-3.154-3.154v-4.932h29.013v4.932Z" transform="translate(-912.755 -2883.958)" fill="#fff"/>
        <path id="Trazado_772288" data-name="Trazado 772288" d="M941.768,2291.7H912.755v-17.208h6.8a7.728,7.728,0,0,0,15.408,0h6.8V2291.7Z" transform="translate(-912.755 -2232.222)" fill="#fff"/>
        <path id="Trazado_772289" data-name="Trazado 772289" d="M1203.721,2022.417a6.5,6.5,0,1,1,6.5,6.5A6.506,6.506,0,0,1,1203.721,2022.417Z" transform="translate(-1195.713 -1980.763)" fill="#fff"/>
        <path id="Trazado_772290" data-name="Trazado 772290" d="M941.768,1849.127h-6.8a7.728,7.728,0,0,0-15.408,0h-6.8v-7.612a3.158,3.158,0,0,1,3.154-3.154h22.7a3.158,3.158,0,0,1,3.154,3.154v7.612Z" transform="translate(-912.755 -1808.092)" fill="#fff"/>
        <path id="Trazado_772291" data-name="Trazado 772291" d="M2247.253,1070.007c1.294,1,7.306,8.9,7.306,16.219a7.3,7.3,0,1,1-14.6,0C2239.959,1078.8,2245.963,1070.974,2247.253,1070.007Z" transform="translate(-2203.431 -1060.885)" fill="#fff"/>
      </g>
      <path id="Trazado_772292" data-name="Trazado 772292" d="M1273.148,738.913a.41.41,0,0,1,.389-.332h5.555a.41.41,0,0,1,.389.332l3.094,13.385h-12.521Z" transform="translate(-391.361 -44.397)" fill="#7ab1ff"/>
      <path id="Trazado_772293" data-name="Trazado 772293" d="M1145.651,1278.177a.981.981,0,0,1-.885-1.054v-7.589a.981.981,0,0,1,.885-1.053H1163.3a.981.981,0,0,1,.885,1.053v7.589a.981.981,0,0,1-.885,1.054h-17.648Z" transform="translate(-269.522 -559.712)" fill="#7ab1ff"/>
      <path id="Trazado_772294" data-name="Trazado 772294" d="M1282.641,2022.417c0-3.583,2.428-6.5,5.412-6.5s5.412,2.915,5.412,6.5-2.428,6.5-5.412,6.5S1282.641,2026,1282.641,2022.417Z" transform="translate(-403.601 -1286.579)" fill="#7ab1ff"/>
      <path id="Trazado_772295" data-name="Trazado 772295" d="M2032.912,865.6c-2.132,3.093-4.145,6.014-4.963,9.178-.077.3-.16.678-.258,1.128-.931,4.264-3.06,14.02-12.7,14.018q-.6,0-1.243-.052c-2.843-.232-9.4-1.911-8.895-12.472,0-.005,0-.011,0-.017.009-.457-.08-11.2-.348-15.044a51.849,51.849,0,0,0-3.327-15.832c-2.162-5.416-.978-11.172,2.818-16.234a17.983,17.983,0,0,1,14.432-7.4c8.6,0,19.327,3.4,21.572,19.612C2041.483,853.161,2036.929,859.768,2032.912,865.6Z" transform="translate(-1101.322 -126.362)" fill="#ffdec9"/>
      <path id="Trazado_772296" data-name="Trazado 772296" d="M2032.912,865.6c-2.132,3.093-4.145,6.014-4.963,9.178-.077.3-.16.678-.258,1.128-.931,4.264-3.06,14.02-12.7,14.018q-.6,0-1.243-.052c-2.843-.232-9.4-1.911-8.895-12.472,0-.005,0-.011,0-.017.009-.457-.08-11.2-.348-15.044a51.849,51.849,0,0,0-3.327-15.832c-2.162-5.416-.978-11.172,2.818-16.234a17.983,17.983,0,0,1,14.432-7.4c8.6,0,19.327,3.4,21.572,19.612C2041.483,853.161,2036.929,859.768,2032.912,865.6Z" transform="translate(-1101.322 -126.362)" fill="#ffdec9"/>
      <path id="Trazado_772297" data-name="Trazado 772297" d="M2279.318,915.574c-2.135,3.1-4.151,6.014-4.967,9.181-.077.293-.16.677-.258,1.123-.928,4.27-3.063,14.022-12.7,14.022-.4,0-.816-.021-1.242-.056a9.317,9.317,0,0,1-6.669-3.418,9.619,9.619,0,0,0,.977.126c.425.035.837.049,1.242.049,9.634,0,11.762-9.753,12.7-14.016.1-.453.182-.83.258-1.13.816-3.16,2.833-6.083,4.96-9.174,4.019-5.832,8.574-12.439,7.1-23.12-1-7.248-3.7-11.937-7.151-14.9,5.965,2.17,11.33,7.276,12.843,18.194C2287.885,903.142,2283.33,909.748,2279.318,915.574Z" transform="translate(-1347.725 -176.341)" fill="#ffbd94"/>
      <path id="Trazado_772298" data-name="Trazado 772298" d="M1200.454,1650.976h13.176v3.92h-13.176Z" transform="translate(-323.676 -931.68)" fill="#fff"/>
      <path id="Trazado_772299" data-name="Trazado 772299" d="M941.768,2949.608a3.158,3.158,0,0,1-3.154,3.154h-22.7a3.158,3.158,0,0,1-3.154-3.154v-4.932h29.013v4.932Z" transform="translate(-43.896 -2189.774)" fill="#fff"/>
      <path id="Trazado_772300" data-name="Trazado 772300" d="M1043.148,2291.7H1016.68v-17.208h4.81a7.045,7.045,0,0,0,14.057,0h7.6Z" transform="translate(-144.96 -1538.038)" fill="#b8f9ff"/>
      <path id="Trazado_772301" data-name="Trazado 772301" d="M941.768,1849.127h-6.8a7.728,7.728,0,0,0-15.408,0h-6.8v-7.612a3.158,3.158,0,0,1,3.154-3.154h22.7a3.158,3.158,0,0,1,3.154,3.154v7.612Z" transform="translate(-43.896 -1113.908)" fill="#fff"/>
      <path id="Trazado_772302" data-name="Trazado 772302" d="M2247.253,1070.007c1.294,1,7.306,8.9,7.306,16.219a7.3,7.3,0,1,1-14.6,0C2239.959,1078.8,2245.963,1070.974,2247.253,1070.007Z" transform="translate(-1334.571 -366.701)" fill="#fff"/>
      <path id="Trazado_772303" data-name="Trazado 772303" d="M2357.781,1050.965c1.018,1,6.764,9.424,6.764,16.743,0,4.026-2.577,7.3-5.744,7.3s-5.744-3.275-5.744-7.3C2353.057,1060.286,2356.766,1051.932,2357.781,1050.965Z" transform="translate(-1444.557 -348.183)" fill="#b8f9ff"/>
      <path id="Trazado_772304" data-name="Trazado 772304" d="M1720.167,1866.452h-4.6c-.035-.028.07-2.663.07-10.395v-16.381a3.018,3.018,0,0,0-2.846-3.16h4.4a3.018,3.018,0,0,1,2.846,3.16v16.381C1719.707,1863.743,1720.132,1866.424,1720.167,1866.452Z" transform="translate(-821.908 -1112.114)" fill="#56dfeb"/>
      <path id="Trazado_772305" data-name="Trazado 772305" d="M1424.433,749.644h-4.4l-2.944-13.395a.391.391,0,0,0-.37-.335h4.4a.391.391,0,0,1,.37.335Z" transform="translate(-533.994 -41.804)" fill="#0d8eff"/>
      <path id="Trazado_772306" data-name="Trazado 772306" d="M1646.818,1280.594v6.99a.928.928,0,0,1-.865.97h-4.4a.927.927,0,0,0,.865-.97v-6.99a.928.928,0,0,0-.865-.97h4.4A.928.928,0,0,1,1646.818,1280.594Z" transform="translate(-752.64 -570.549)" fill="#0d8eff"/>
      <path id="Trazado_772307" data-name="Trazado 772307" d="M1025.408,2927.63l.056-6.251a29.736,29.736,0,0,0-4.538-.151l-.083,2.448c0,1.733-.395,2.636-2.769,2.677-5.442.032-14.706.166-19.448.241-.043,1.5-.043,2.756-.14,4.042l23.42-.383a3.191,3.191,0,0,0,2.449-.774A4.838,4.838,0,0,0,1025.408,2927.63Z" transform="translate(-127.267 -2166.971)" fill="#d0e9ea"/>
      <g id="Grupo_1043147" data-name="Grupo 1043147" transform="translate(867.617 692.928)">
        <g id="Grupo_1043139" data-name="Grupo 1043139">
          <g id="Grupo_1043133" data-name="Grupo 1043133" transform="translate(0)">
            <path id="Trazado_772308" data-name="Trazado 772308" d="M1029.588,1247.662h-19.346a2.209,2.209,0,0,1-2.206-2.206v-6.982a2.209,2.209,0,0,1,2.206-2.206h19.346a2.209,2.209,0,0,1,2.206,2.206v6.982A2.209,2.209,0,0,1,1029.588,1247.662Zm-19.346-10.157a.97.97,0,0,0-.969.969v6.982a.97.97,0,0,0,.969.969h19.346a.97.97,0,0,0,.969-.969v-6.982a.97.97,0,0,0-.969-.969Z" transform="translate(-1004.171 -1221.314)" fill="#01123f"/>
            <path id="Trazado_772309" data-name="Trazado 772309" d="M894.719,1833.71h-22.7a4.4,4.4,0,0,1-4.392-4.392v-32.226a4.4,4.4,0,0,1,4.392-4.392h22.7a4.4,4.4,0,0,1,4.391,4.392v32.226A4.4,4.4,0,0,1,894.719,1833.71Zm-22.7-39.773a3.158,3.158,0,0,0-3.155,3.155v32.227a3.158,3.158,0,0,0,3.155,3.155h22.7a3.158,3.158,0,0,0,3.155-3.155v-32.227a3.158,3.158,0,0,0-3.155-3.155h-22.7Z" transform="translate(-867.623 -1762.431)" fill="#01123f"/>
            <path id="Trazado_772310" data-name="Trazado 772310" d="M1170.359,1611.708h-14.414a.618.618,0,0,1-.619-.618v-5.157a.618.618,0,0,1,.619-.619h14.414a.619.619,0,0,1,.619.619v5.157A.618.618,0,0,1,1170.359,1611.708Zm-13.8-1.237h13.177v-3.92h-13.177Z" transform="translate(-1147.409 -1580.203)" fill="#01123f"/>
            <path id="Trazado_772311" data-name="Trazado 772311" d="M1154.9,709.119h-15.314a.618.618,0,0,1-.6-.77l3.587-14.156a1.675,1.675,0,0,1,1.625-1.265h6.089a1.675,1.675,0,0,1,1.625,1.265l3.587,14.156a.618.618,0,0,1-.6.77Zm-14.52-1.237H1154.1l-3.392-13.385a.44.44,0,0,0-.427-.332h-6.089a.44.44,0,0,0-.427.332Z" transform="translate(-1131.494 -692.928)" fill="#01123f"/>
            <path id="Trazado_772312" data-name="Trazado 772312" d="M1166.335,1985.739a7.735,7.735,0,1,1,5.47-2.266A7.685,7.685,0,0,1,1166.335,1985.739Zm0-14.234a6.5,6.5,0,1,0,4.595,1.9A6.457,6.457,0,0,0,1166.335,1971.505Z" transform="translate(-1150.592 -1935.112)" fill="#01123f"/>
          </g>
          <g id="Grupo_1043134" data-name="Grupo 1043134" transform="translate(0 42.273)">
            <path id="Trazado_772313" data-name="Trazado 772313" d="M876.244,2230.087h-8.009a.619.619,0,0,1,0-1.237h8.009a.619.619,0,0,1,0,1.237Z" transform="translate(-867.617 -2228.85)" fill="#01123f"/>
          </g>
          <g id="Grupo_1043135" data-name="Grupo 1043135" transform="translate(22.242 42.273)">
            <path id="Trazado_772314" data-name="Trazado 772314" d="M1684.376,2230.087h-8.009a.619.619,0,0,1,0-1.237h8.009a.619.619,0,0,1,0,1.237Z" transform="translate(-1675.749 -2228.85)" fill="#01123f"/>
          </g>
          <g id="Grupo_1043136" data-name="Grupo 1043136" transform="translate(0 60.717)">
            <path id="Trazado_772315" data-name="Trazado 772315" d="M898.486,2900.243h-30.25a.619.619,0,0,1,0-1.237h30.25a.619.619,0,0,1,0,1.237Z" transform="translate(-867.617 -2899.006)" fill="#01123f"/>
          </g>
          <g id="Grupo_1043137" data-name="Grupo 1043137" transform="translate(9.135 14.954)">
            <path id="Trazado_772316" data-name="Trazado 772316" d="M1200.133,1243.1a.619.619,0,0,1-.619-.619v-5.608a.619.619,0,0,1,1.237,0v5.608A.619.619,0,0,1,1200.133,1243.1Z" transform="translate(-1199.514 -1236.254)" fill="#01123f"/>
          </g>
          <g id="Grupo_1043138" data-name="Grupo 1043138" transform="translate(14.495 14.954)">
            <path id="Trazado_772317" data-name="Trazado 772317" d="M1394.882,1240.824a.619.619,0,0,1-.619-.619v-3.333a.619.619,0,1,1,1.237,0v3.333A.619.619,0,0,1,1394.882,1240.824Z" transform="translate(-1394.263 -1236.253)" fill="#01123f"/>
          </g>
        </g>
        <g id="Grupo_1043146" data-name="Grupo 1043146" transform="translate(30.624 2.32)">
          <g id="Grupo_1043141" data-name="Grupo 1043141" transform="translate(5.904 6.739)">
            <g id="Grupo_1043140" data-name="Grupo 1043140" transform="translate(7.919 16.9)">
              <path id="Trazado_772318" data-name="Trazado 772318" d="M2483.176,1641.321a.619.619,0,1,1,0-1.237,3.344,3.344,0,0,0,3.341-3.34.619.619,0,0,1,1.237,0A4.583,4.583,0,0,1,2483.176,1641.321Z" transform="translate(-2482.557 -1636.125)" fill="#01123f"/>
            </g>
            <path id="Trazado_772319" data-name="Trazado 772319" d="M2203.366,1048.126a8.537,8.537,0,0,1-8.538-8.538,19.45,19.45,0,0,1,1.133-6.207,31.562,31.562,0,0,1,2.543-5.545,30.715,30.715,0,0,1,2.734-4.022,11.888,11.888,0,0,1,1.089-1.183,1.634,1.634,0,0,1,1.039-.561,1.591,1.591,0,0,1,1.025.564,12.241,12.241,0,0,1,1.079,1.181,31.323,31.323,0,0,1,2.736,4.021,31.658,31.658,0,0,1,2.556,5.544,19.341,19.341,0,0,1,1.141,6.209,8.537,8.537,0,0,1-8.538,8.537Zm-.007-24.753a21.672,21.672,0,0,0-3.976,5.421,29.846,29.846,0,0,0-2.319,5.189,18.041,18.041,0,0,0-1,5.606,7.3,7.3,0,0,0,14.6,0,17.92,17.92,0,0,0-1-5.6,29.916,29.916,0,0,0-2.328-5.186,31.512,31.512,0,0,0-2.567-3.887A9.852,9.852,0,0,0,2203.358,1023.374Zm-.133-.091Z" transform="translate(-2194.828 -1022.07)" fill="#01123f"/>
          </g>
          <g id="Grupo_1043145" data-name="Grupo 1043145" transform="translate(0)">
            <g id="Grupo_1043142" data-name="Grupo 1043142">
              <path id="Trazado_772320" data-name="Trazado 772320" d="M1995.972,846.235q-.628,0-1.3-.057c-2.37-.2-10.059-1.79-9.52-13.665a.6.6,0,0,1,.646-.59.619.619,0,0,1,.59.646c-.476,10.479,5.708,12.146,8.389,12.376,10.094.868,12.232-9.452,13.147-13.859.093-.447.172-.826.244-1.12.771-3.139,2.67-6.038,4.68-9.107,3.789-5.784,8.084-12.339,6.689-22.94-2.117-16.084-12.233-19.461-20.346-19.461a17.621,17.621,0,0,0-14.6,8.418c-3.287,5.066-3.956,10.987-1.791,15.839a.619.619,0,0,1-1.13.5c-2.337-5.236-1.633-11.6,1.882-17.016a18.852,18.852,0,0,1,15.637-8.982c12.168,0,19.829,7.294,21.572,20.537,1.455,11.055-2.973,17.814-6.88,23.778-1.951,2.978-3.793,5.79-4.514,8.725-.069.282-.145.646-.234,1.076-.862,4.149-3.093,14.9-13.168,14.9Z" transform="translate(-1980.317 -777.222)" fill="#01123f"/>
            </g>
            <g id="Grupo_1043143" data-name="Grupo 1043143" transform="translate(17.902 6.558)">
              <path id="Trazado_772321" data-name="Trazado 772321" d="M2636.6,1056.657a.627.627,0,0,1-.218-.039.618.618,0,0,1-.361-.8,21.924,21.924,0,0,1,3.489-5.768,34.362,34.362,0,0,0,4.027-6.31c2.609-5.426,3.692-13.635.231-19.74-2.89-5.1-7.269-7.661-12.337-7.224a.611.611,0,0,1-.67-.563.618.618,0,0,1,.563-.669c5.582-.484,10.378,2.3,13.52,7.845,3.681,6.495,2.556,15.169-.193,20.885a35.4,35.4,0,0,1-4.158,6.524,20.648,20.648,0,0,0-3.316,5.454A.618.618,0,0,1,2636.6,1056.657Z" transform="translate(-2630.758 -1015.493)" fill="#01123f"/>
            </g>
            <g id="Grupo_1043144" data-name="Grupo 1043144" transform="translate(7.398 25.37)">
              <path id="Trazado_772322" data-name="Trazado 772322" d="M2256.161,1727.374a4.6,4.6,0,0,1-2.905-1.125,5.4,5.4,0,0,1-1.884-4.154,11.732,11.732,0,0,1,.993-4.794,8.648,8.648,0,0,0,.791-3.547c0-1.785-1.54-2.935-2.9-3.95-.345-.258-.667-.5-.935-.729a.619.619,0,1,1,.806-.939c.25.215.549.438.87.677,1.432,1.07,3.394,2.536,3.394,4.941a9.91,9.91,0,0,1-.876,4,10.531,10.531,0,0,0-.908,4.342,4.1,4.1,0,0,0,1.444,3.208,3.167,3.167,0,0,0,2.495.8c2.436-.42,2.756-1.609,3.531-4.481a36.373,36.373,0,0,1,2.044-5.954,20.747,20.747,0,0,1,1.867-3.007c2.305-3.313,5.174-7.436,2.639-12.778a.618.618,0,1,1,1.117-.53c2.843,5.99-.385,10.628-2.741,14.015a20.073,20.073,0,0,0-1.755,2.81,35.355,35.355,0,0,0-1.977,5.766c-.783,2.905-1.3,4.825-4.515,5.379A3.536,3.536,0,0,1,2256.161,1727.374Z" transform="translate(-2249.107 -1699)" fill="#01123f"/>
            </g>
          </g>
        </g>
      </g>
    </g>
  </g>
</svg>
