<svg xmlns="http://www.w3.org/2000/svg" width="116" height="116" viewBox="0 0 116 116">
  <g id="Grupo_1043357" data-name="Grupo 1043357" transform="translate(-1084 -14969)">
    <g id="Elipse_4825" data-name="Elipse 4825" transform="translate(1084 14969)" fill="#e0ebff" stroke="#0b62f8" stroke-width="1">
      <circle cx="58" cy="58" r="58" stroke="none"/>
      <circle cx="58" cy="58" r="57.5" fill="none"/>
    </g>
    <g id="vendaje_1_" data-name="vendaje (1)" transform="translate(1103.414 14992.918)">
      <g id="Grupo_1043245" data-name="Grupo 1043245" transform="translate(8.083 2.698)">
        <g id="XMLID_1_" transform="translate(0)">
          <path id="Trazado_772374" data-name="Trazado 772374" d="M254.853,228.681a14.824,14.824,0,0,1-20.972,20.957l-7.681-7.681L247.172,221Z" transform="translate(-193.255 -188.039)" fill="#e6b07f"/>
          <path id="Trazado_772375" data-name="Trazado 772375" d="M44.261,18,23.3,38.961,15.623,31.3A14.83,14.83,0,0,1,36.6,10.323Z" transform="translate(-11.3 -6)" fill="#e6b07f"/>
          <path id="Trazado_772376" data-name="Trazado 772376" d="M153.849,128.7a1.471,1.471,0,0,1,0,2.07l-17.783,17.8a1.471,1.471,0,0,1-2.07,0L122.85,137.419a1.471,1.471,0,0,1,0-2.07l17.8-17.8a1.471,1.471,0,0,1,2.07,0Z" transform="translate(-105.389 -100.089)" fill="#fed19a"/>
          <path id="Trazado_772377" data-name="Trazado 772377" d="M72.9,10.323a14.86,14.86,0,0,1,0,20.957l-7.681,7.681L44.261,59.933,36.58,67.613A14.824,14.824,0,0,1,15.623,46.641L23.3,38.961,44.261,18l7.681-7.681a14.86,14.86,0,0,1,20.957,0ZM59.76,36.676a1.471,1.471,0,0,0,0-2.07L48.614,23.461a1.471,1.471,0,0,0-2.07,0L28.761,41.26a1.471,1.471,0,0,0,0,2.07L39.907,54.475a1.471,1.471,0,0,0,2.07,0Z" transform="translate(-11.3 -6)" fill="#f4bb87"/>
        </g>
      </g>
      <g id="Grupo_1043289" data-name="Grupo 1043289" transform="translate(7.5 2.1)">
        <g id="Grupo_1043246" data-name="Grupo 1043246" transform="translate(0 0)">
          <path id="Trazado_772378" data-name="Trazado 772378" d="M22.892,69.232a15.426,15.426,0,0,1-10.9-26.307L48.31,6.607a15.41,15.41,0,0,1,21.785,21.8L33.776,64.725a15.41,15.41,0,0,1-10.885,4.507ZM59.194,3.28A14.157,14.157,0,0,0,49.138,7.435L12.82,43.753A14.228,14.228,0,0,0,32.949,63.867L69.267,27.549a14.268,14.268,0,0,0,0-20.129A14.306,14.306,0,0,0,59.194,3.28Z" transform="translate(-7.5 -2.1)"/>
        </g>
        <g id="Grupo_1043247" data-name="Grupo 1043247" transform="translate(17.017 17.048)">
          <path id="Trazado_772379" data-name="Trazado 772379" d="M131.7,146.337a2.079,2.079,0,0,1-1.456-.6L119.1,134.594a2.054,2.054,0,0,1,0-2.9l17.8-17.8a2.054,2.054,0,0,1,2.9,0l11.145,11.145a2.052,2.052,0,0,1,.6,1.456,2.079,2.079,0,0,1-.6,1.456l-17.783,17.783A2.052,2.052,0,0,1,131.7,146.337Zm6.653-31.857a.859.859,0,0,0-.613.261l-17.8,17.783a.888.888,0,0,0,0,1.242l11.145,11.145a.859.859,0,0,0,.613.261.834.834,0,0,0,.613-.261l17.8-17.8a.859.859,0,0,0,.261-.613.834.834,0,0,0-.261-.613l-11.145-11.161A.869.869,0,0,0,138.353,114.48Z" transform="translate(-118.5 -113.3)"/>
        </g>
        <g id="Grupo_1043248" data-name="Grupo 1043248" transform="translate(39.288 13.426)">
          <path id="Trazado_772380" data-name="Trazado 772380" d="M265.143,91.626a.592.592,0,0,1-.414-.169l-.782-.782a.585.585,0,1,1,.828-.828l.782.782a.583.583,0,0,1,0,.828A.533.533,0,0,1,265.143,91.626Z" transform="translate(-263.775 -89.675)"/>
        </g>
        <g id="Grupo_1043249" data-name="Grupo 1043249" transform="translate(51.721 25.859)">
          <path id="Trazado_772381" data-name="Trazado 772381" d="M346.243,172.726a.592.592,0,0,1-.414-.169l-.782-.782a.585.585,0,1,1,.828-.828l.782.782a.583.583,0,0,1,0,.828.592.592,0,0,1-.414.169Z" transform="translate(-344.875 -170.775)"/>
        </g>
        <g id="Grupo_1043250" data-name="Grupo 1043250" transform="translate(48.625 22.762)">
          <path id="Trazado_772382" data-name="Trazado 772382" d="M326.043,152.526a.592.592,0,0,1-.414-.169l-.782-.782a.585.585,0,0,1,.828-.828l.782.782a.583.583,0,0,1,0,.828A.652.652,0,0,1,326.043,152.526Z" transform="translate(-324.675 -150.575)"/>
        </g>
        <g id="Grupo_1043251" data-name="Grupo 1043251" transform="translate(45.512 19.65)">
          <path id="Trazado_772383" data-name="Trazado 772383" d="M305.743,132.226a.592.592,0,0,1-.414-.169l-.782-.782a.585.585,0,0,1,.828-.828l.782.782a.583.583,0,0,1,0,.828A.592.592,0,0,1,305.743,132.226Z" transform="translate(-304.375 -130.275)"/>
        </g>
        <g id="Grupo_1043252" data-name="Grupo 1043252" transform="translate(42.4 16.538)">
          <path id="Trazado_772384" data-name="Trazado 772384" d="M285.443,111.926a.592.592,0,0,1-.414-.169l-.782-.782a.585.585,0,1,1,.828-.828l.782.782a.583.583,0,0,1,0,.828A.592.592,0,0,1,285.443,111.926Z" transform="translate(-284.075 -109.975)"/>
        </g>
        <g id="Grupo_1043253" data-name="Grupo 1043253" transform="translate(42.14 10.574)">
          <path id="Trazado_772385" data-name="Trazado 772385" d="M283.743,73.026a.592.592,0,0,1-.414-.169l-.782-.782a.585.585,0,0,1,.828-.828l.782.782a.583.583,0,0,1,0,.828A.533.533,0,0,1,283.743,73.026Z" transform="translate(-282.375 -71.075)"/>
        </g>
        <g id="Grupo_1043254" data-name="Grupo 1043254" transform="translate(54.573 23.007)">
          <path id="Trazado_772386" data-name="Trazado 772386" d="M364.843,154.126a.592.592,0,0,1-.414-.169l-.782-.782a.585.585,0,1,1,.828-.828l.782.782a.583.583,0,0,1,0,.828A.533.533,0,0,1,364.843,154.126Z" transform="translate(-363.475 -152.175)"/>
        </g>
        <g id="Grupo_1043255" data-name="Grupo 1043255" transform="translate(51.461 19.91)">
          <path id="Trazado_772387" data-name="Trazado 772387" d="M344.543,133.926a.592.592,0,0,1-.414-.169l-.782-.782a.585.585,0,0,1,.828-.828l.782.782a.583.583,0,0,1,0,.828A.592.592,0,0,1,344.543,133.926Z" transform="translate(-343.175 -131.975)"/>
        </g>
        <g id="Grupo_1043256" data-name="Grupo 1043256" transform="translate(48.364 16.798)">
          <path id="Trazado_772388" data-name="Trazado 772388" d="M324.343,113.626a.592.592,0,0,1-.414-.169l-.782-.782a.585.585,0,1,1,.828-.828l.782.782a.583.583,0,0,1,0,.828A.621.621,0,0,1,324.343,113.626Z" transform="translate(-322.975 -111.675)"/>
        </g>
        <g id="Grupo_1043257" data-name="Grupo 1043257" transform="translate(45.252 13.686)">
          <path id="Trazado_772389" data-name="Trazado 772389" d="M304.043,93.326a.592.592,0,0,1-.414-.169l-.782-.782a.585.585,0,0,1,.828-.828l.782.782a.583.583,0,0,1,0,.828A.592.592,0,0,1,304.043,93.326Z" transform="translate(-302.675 -91.375)"/>
        </g>
        <g id="Grupo_1043258" data-name="Grupo 1043258" transform="translate(44.991 7.723)">
          <path id="Trazado_772390" data-name="Trazado 772390" d="M302.343,54.426a.592.592,0,0,1-.414-.169l-.782-.782a.585.585,0,1,1,.828-.828l.782.782a.583.583,0,0,1,0,.828A.533.533,0,0,1,302.343,54.426Z" transform="translate(-300.975 -52.475)"/>
        </g>
        <g id="Grupo_1043259" data-name="Grupo 1043259" transform="translate(57.424 20.156)">
          <path id="Trazado_772391" data-name="Trazado 772391" d="M383.443,135.526a.592.592,0,0,1-.414-.169l-.782-.782a.585.585,0,0,1,.828-.828l.782.782a.583.583,0,0,1,0,.828A.533.533,0,0,1,383.443,135.526Z" transform="translate(-382.075 -133.575)"/>
        </g>
        <g id="Grupo_1043260" data-name="Grupo 1043260" transform="translate(54.312 17.059)">
          <path id="Trazado_772392" data-name="Trazado 772392" d="M363.143,115.326a.592.592,0,0,1-.414-.169l-.782-.782a.585.585,0,1,1,.828-.828l.782.782a.583.583,0,0,1,0,.828A.592.592,0,0,1,363.143,115.326Z" transform="translate(-361.775 -113.375)"/>
        </g>
        <g id="Grupo_1043261" data-name="Grupo 1043261" transform="translate(51.215 13.947)">
          <path id="Trazado_772393" data-name="Trazado 772393" d="M342.943,95.026a.592.592,0,0,1-.414-.169l-.782-.782a.585.585,0,0,1,.828-.828l.782.782a.583.583,0,0,1,0,.828A.621.621,0,0,1,342.943,95.026Z" transform="translate(-341.575 -93.075)"/>
        </g>
        <g id="Grupo_1043262" data-name="Grupo 1043262" transform="translate(48.103 10.835)">
          <path id="Trazado_772394" data-name="Trazado 772394" d="M322.643,74.726a.592.592,0,0,1-.414-.169l-.782-.782a.585.585,0,1,1,.828-.828l.782.782a.583.583,0,0,1,0,.828A.592.592,0,0,1,322.643,74.726Z" transform="translate(-321.275 -72.775)"/>
        </g>
        <g id="Grupo_1043263" data-name="Grupo 1043263" transform="translate(47.843 4.887)">
          <path id="Trazado_772395" data-name="Trazado 772395" d="M320.943,35.926a.592.592,0,0,1-.414-.169l-.782-.782a.585.585,0,1,1,.828-.828l.782.782a.583.583,0,0,1,0,.828A.592.592,0,0,1,320.943,35.926Z" transform="translate(-319.575 -33.975)"/>
        </g>
        <g id="Grupo_1043264" data-name="Grupo 1043264" transform="translate(60.276 17.32)">
          <path id="Trazado_772396" data-name="Trazado 772396" d="M402.043,117.026a.592.592,0,0,1-.414-.169l-.782-.782a.585.585,0,0,1,.828-.828l.782.782a.583.583,0,0,1,0,.828A.592.592,0,0,1,402.043,117.026Z" transform="translate(-400.675 -115.075)"/>
        </g>
        <g id="Grupo_1043265" data-name="Grupo 1043265" transform="translate(57.164 14.208)">
          <path id="Trazado_772397" data-name="Trazado 772397" d="M381.743,96.726a.592.592,0,0,1-.414-.169l-.782-.782a.585.585,0,0,1,.828-.828l.782.782a.583.583,0,0,1,0,.828A.592.592,0,0,1,381.743,96.726Z" transform="translate(-380.375 -94.775)"/>
        </g>
        <g id="Grupo_1043266" data-name="Grupo 1043266" transform="translate(54.067 11.095)">
          <path id="Trazado_772398" data-name="Trazado 772398" d="M361.543,76.426a.592.592,0,0,1-.414-.169l-.782-.782a.585.585,0,0,1,.828-.828l.782.782a.583.583,0,0,1,0,.828A.652.652,0,0,1,361.543,76.426Z" transform="translate(-360.175 -74.475)"/>
        </g>
        <g id="Grupo_1043267" data-name="Grupo 1043267" transform="translate(50.955 7.983)">
          <path id="Trazado_772399" data-name="Trazado 772399" d="M341.243,56.126a.592.592,0,0,1-.414-.169l-.782-.782a.585.585,0,0,1,.828-.828l.782.782a.583.583,0,0,1,0,.828A.533.533,0,0,1,341.243,56.126Z" transform="translate(-339.875 -54.175)"/>
        </g>
        <g id="Grupo_1043268" data-name="Grupo 1043268" transform="translate(4.856 47.873)">
          <path id="Trazado_772400" data-name="Trazado 772400" d="M40.543,316.326a.592.592,0,0,1-.414-.169l-.782-.782a.585.585,0,0,1,.828-.828l.782.782a.583.583,0,0,1,0,.828A.621.621,0,0,1,40.543,316.326Z" transform="translate(-39.175 -314.375)"/>
        </g>
        <g id="Grupo_1043269" data-name="Grupo 1043269" transform="translate(17.289 60.306)">
          <path id="Trazado_772401" data-name="Trazado 772401" d="M121.643,397.426a.592.592,0,0,1-.414-.169l-.782-.782a.585.585,0,0,1,.828-.828l.782.782a.583.583,0,0,1,0,.828A.652.652,0,0,1,121.643,397.426Z" transform="translate(-120.275 -395.475)"/>
        </g>
        <g id="Grupo_1043270" data-name="Grupo 1043270" transform="translate(14.177 57.194)">
          <path id="Trazado_772402" data-name="Trazado 772402" d="M101.343,377.126a.592.592,0,0,1-.414-.169l-.782-.782a.585.585,0,0,1,.828-.828l.782.782a.583.583,0,0,1,0,.828A.592.592,0,0,1,101.343,377.126Z" transform="translate(-99.975 -375.175)"/>
        </g>
        <g id="Grupo_1043271" data-name="Grupo 1043271" transform="translate(11.065 54.082)">
          <path id="Trazado_772403" data-name="Trazado 772403" d="M81.043,356.826a.592.592,0,0,1-.414-.169l-.782-.782a.585.585,0,0,1,.828-.828l.782.782a.583.583,0,0,1,0,.828A.533.533,0,0,1,81.043,356.826Z" transform="translate(-79.675 -354.875)"/>
        </g>
        <g id="Grupo_1043272" data-name="Grupo 1043272" transform="translate(7.953 50.985)">
          <path id="Trazado_772404" data-name="Trazado 772404" d="M60.743,336.626a.592.592,0,0,1-.414-.169l-.782-.782a.585.585,0,0,1,.828-.828l.782.782a.583.583,0,0,1,0,.828A.592.592,0,0,1,60.743,336.626Z" transform="translate(-59.375 -334.675)"/>
        </g>
        <g id="Grupo_1043273" data-name="Grupo 1043273" transform="translate(7.707 45.022)">
          <path id="Trazado_772405" data-name="Trazado 772405" d="M59.143,297.726a.592.592,0,0,1-.414-.169l-.782-.782a.585.585,0,0,1,.828-.828l.782.782a.583.583,0,0,1,0,.828A.652.652,0,0,1,59.143,297.726Z" transform="translate(-57.775 -295.775)"/>
        </g>
        <g id="Grupo_1043274" data-name="Grupo 1043274" transform="translate(20.14 57.455)">
          <path id="Trazado_772406" data-name="Trazado 772406" d="M140.243,378.826a.592.592,0,0,1-.414-.169l-.782-.782a.585.585,0,1,1,.828-.828l.782.782a.583.583,0,0,1,0,.828A.652.652,0,0,1,140.243,378.826Z" transform="translate(-138.875 -376.875)"/>
        </g>
        <g id="Grupo_1043275" data-name="Grupo 1043275" transform="translate(17.028 54.343)">
          <path id="Trazado_772407" data-name="Trazado 772407" d="M119.943,358.526a.592.592,0,0,1-.414-.169l-.782-.782a.585.585,0,1,1,.828-.828l.782.782a.583.583,0,0,1,0,.828A.555.555,0,0,1,119.943,358.526Z" transform="translate(-118.575 -356.575)"/>
        </g>
        <g id="Grupo_1043276" data-name="Grupo 1043276" transform="translate(13.916 51.231)">
          <path id="Trazado_772408" data-name="Trazado 772408" d="M99.643,338.226a.592.592,0,0,1-.414-.169l-.782-.782a.585.585,0,0,1,.828-.828l.782.782a.583.583,0,0,1,0,.828A.533.533,0,0,1,99.643,338.226Z" transform="translate(-98.275 -336.275)"/>
        </g>
        <g id="Grupo_1043277" data-name="Grupo 1043277" transform="translate(10.804 48.134)">
          <path id="Trazado_772409" data-name="Trazado 772409" d="M79.343,318.026a.592.592,0,0,1-.414-.169l-.782-.782a.585.585,0,0,1,.828-.828l.782.782a.583.583,0,0,1,0,.828.592.592,0,0,1-.414.169Z" transform="translate(-77.975 -316.075)"/>
        </g>
        <g id="Grupo_1043278" data-name="Grupo 1043278" transform="translate(10.559 42.17)">
          <path id="Trazado_772410" data-name="Trazado 772410" d="M77.743,279.126a.592.592,0,0,1-.414-.169l-.782-.782a.585.585,0,0,1,.828-.828l.782.782a.583.583,0,0,1,0,.828A.652.652,0,0,1,77.743,279.126Z" transform="translate(-76.375 -277.175)"/>
        </g>
        <g id="Grupo_1043279" data-name="Grupo 1043279" transform="translate(22.992 54.603)">
          <path id="Trazado_772411" data-name="Trazado 772411" d="M158.843,360.226a.592.592,0,0,1-.414-.169l-.782-.782a.585.585,0,1,1,.828-.828l.782.782a.583.583,0,0,1,0,.828A.652.652,0,0,1,158.843,360.226Z" transform="translate(-157.475 -358.275)"/>
        </g>
        <g id="Grupo_1043280" data-name="Grupo 1043280" transform="translate(19.88 51.491)">
          <path id="Trazado_772412" data-name="Trazado 772412" d="M138.543,339.926a.592.592,0,0,1-.414-.169l-.782-.782a.585.585,0,1,1,.828-.828l.782.782a.583.583,0,0,1,0,.828A.555.555,0,0,1,138.543,339.926Z" transform="translate(-137.175 -337.975)"/>
        </g>
        <g id="Grupo_1043281" data-name="Grupo 1043281" transform="translate(16.768 48.395)">
          <path id="Trazado_772413" data-name="Trazado 772413" d="M118.243,319.726a.592.592,0,0,1-.414-.169l-.782-.782a.585.585,0,1,1,.828-.828l.782.782a.583.583,0,0,1,0,.828A.592.592,0,0,1,118.243,319.726Z" transform="translate(-116.875 -317.775)"/>
        </g>
        <g id="Grupo_1043282" data-name="Grupo 1043282" transform="translate(13.656 45.282)">
          <path id="Trazado_772414" data-name="Trazado 772414" d="M97.943,299.426a.592.592,0,0,1-.414-.169l-.782-.782a.585.585,0,0,1,.828-.828l.782.782a.583.583,0,0,1,0,.828A.592.592,0,0,1,97.943,299.426Z" transform="translate(-96.575 -297.475)"/>
        </g>
        <g id="Grupo_1043283" data-name="Grupo 1043283" transform="translate(13.395 39.319)">
          <path id="Trazado_772415" data-name="Trazado 772415" d="M96.243,260.526a.592.592,0,0,1-.414-.169l-.782-.782a.585.585,0,0,1,.828-.828l.782.782a.583.583,0,0,1,0,.828A.533.533,0,0,1,96.243,260.526Z" transform="translate(-94.875 -258.575)"/>
        </g>
        <g id="Grupo_1043284" data-name="Grupo 1043284" transform="translate(25.828 51.752)">
          <path id="Trazado_772416" data-name="Trazado 772416" d="M177.343,341.626a.592.592,0,0,1-.414-.169l-.782-.782a.585.585,0,0,1,.828-.828l.782.782a.583.583,0,0,1,0,.828A.592.592,0,0,1,177.343,341.626Z" transform="translate(-175.975 -339.675)"/>
        </g>
        <g id="Grupo_1043285" data-name="Grupo 1043285" transform="translate(22.731 48.64)">
          <path id="Trazado_772417" data-name="Trazado 772417" d="M157.143,321.326a.592.592,0,0,1-.414-.169l-.782-.782a.585.585,0,0,1,.828-.828l.782.782a.583.583,0,0,1-.414,1Z" transform="translate(-155.775 -319.375)"/>
        </g>
        <g id="Grupo_1043286" data-name="Grupo 1043286" transform="translate(19.619 45.543)">
          <path id="Trazado_772418" data-name="Trazado 772418" d="M136.843,301.126a.592.592,0,0,1-.414-.169l-.782-.782a.585.585,0,0,1,.828-.828l.782.782a.583.583,0,0,1,0,.828A.592.592,0,0,1,136.843,301.126Z" transform="translate(-135.475 -299.175)"/>
        </g>
        <g id="Grupo_1043287" data-name="Grupo 1043287" transform="translate(16.507 42.431)">
          <path id="Trazado_772419" data-name="Trazado 772419" d="M116.543,280.826a.592.592,0,0,1-.414-.169l-.782-.782a.585.585,0,0,1,.828-.828l.782.782a.583.583,0,0,1,0,.828A.592.592,0,0,1,116.543,280.826Z" transform="translate(-115.175 -278.875)"/>
        </g>
        <g id="Grupo_1043288" data-name="Grupo 1043288" transform="translate(0 0)">
          <path id="Trazado_772420" data-name="Trazado 772420" d="M59.194,69.232a15.38,15.38,0,0,1-10.9-4.507l-7.681-7.681a.585.585,0,1,1,.828-.828L49.122,63.9A14.219,14.219,0,0,0,73.406,53.84a14.07,14.07,0,0,0-4.155-10.057L61.571,36.1a.585.585,0,0,1,.828-.828l7.681,7.681A15.384,15.384,0,0,1,59.194,69.232ZM20.086,36.256a.592.592,0,0,1-.414-.169l-7.681-7.681a15.409,15.409,0,0,1,21.785-21.8l7.681,7.681a.585.585,0,1,1-.828.828L32.949,7.435A14.219,14.219,0,0,0,8.665,17.507,14.07,14.07,0,0,0,12.82,27.564L20.5,35.245a.583.583,0,0,1,0,.828.572.572,0,0,1-.414.184Z" transform="translate(-7.5 -2.1)"/>
        </g>
      </g>
    </g>
  </g>
</svg>
