<svg xmlns="http://www.w3.org/2000/svg" width="116" height="116" viewBox="0 0 116 116">
  <g id="Grupo_1043358" data-name="Grupo 1043358" transform="translate(-1304 -14969)">
    <g id="Elipse_4826" data-name="Elipse 4826" transform="translate(1304 14969)" fill="#e0ebff" stroke="#0b62f8" stroke-width="1">
      <circle cx="58" cy="58" r="58" stroke="none"/>
      <circle cx="58" cy="58" r="57.5" fill="none"/>
    </g>
    <g id="estornudos" transform="translate(1324.441 14989.063)">
      <g id="Grupo_1043293" data-name="Grupo 1043293" transform="translate(8.876 0.315)">
        <g id="Grupo_1043292" data-name="Grupo 1043292" transform="translate(0)">
          <g id="Grupo_1043290" data-name="Grupo 1043290">
            <path id="Trazado_772421" data-name="Trazado 772421" d="M63.369,322.521l-52.81-.117c0-12.177,6.529-20.814,17.8-24.637A46.636,46.636,0,0,1,43.413,295.5a16.668,16.668,0,0,1,11.577,4.217C63.431,307.315,63.369,322.521,63.369,322.521Z" transform="translate(-10.559 -248.984)" fill="#88ffc3"/>
            <path id="Trazado_772422" data-name="Trazado 772422" d="M31.766,314.282a32,32,0,0,0-9.786,20.172l-11.42-.025c0-12.177,6.529-20.814,17.8-24.637A22.445,22.445,0,0,1,31.766,314.282Z" transform="translate(-10.559 -261.009)" fill="#00e9b1"/>
            <path id="Trazado_772423" data-name="Trazado 772423" d="M123.273,309.011a23.971,23.971,0,0,1-3.316-.223c-10.725-1.493-13.918-9.983-13.918-9.983a36.4,36.4,0,0,1,7.623-2.363,51.54,51.54,0,0,1,10.1-.94,16.726,16.726,0,0,1,11.577,4.217S136.668,309.011,123.273,309.011Z" transform="translate(-90.907 -248.984)" fill="#ffebd3"/>
            <path id="Trazado_772424" data-name="Trazado 772424" d="M151.293,78.491c-.639.038-1.75.017-2.122,0v7.94H135.546c0-3.755-.11-11.236-.176-14.977-.093-.3-.759-2.541-3.361-11.287l1.33-14.256,12.609-5.488,11.319,5.39a36.63,36.63,0,0,1,5.923,13.162C165.594,71.243,157.135,78.107,151.293,78.491Z" transform="translate(-112.761 -34.331)" fill="#ffebd3"/>
            <path id="Trazado_772425" data-name="Trazado 772425" d="M119.957,121.106c-10.725-1.493-13.918-9.983-13.918-9.983a36.4,36.4,0,0,1,7.623-2.363c-.049-4.851-.146-10.335-.146-10.335-.093-.3-.758-2.541-3.361-11.287l1.33-14.256.94-.409a62.333,62.333,0,0,1,9.091,3.65s-4.441,13.425-3.276,31.96a94.773,94.773,0,0,0,1.718,13.023Z" transform="translate(-90.907 -61.302)" fill="#ffd5b7"/>
            <path id="Trazado_772426" data-name="Trazado 772426" d="M123.487,19.773a42.055,42.055,0,0,0-2.2-4.1,7.972,7.972,0,0,1-2.45,1.84c-4.659,2.26-10.462-.479-10.592-.542A6.077,6.077,0,0,1,105.4,18.3a9.854,9.854,0,0,1-5.3-.694A29.115,29.115,0,0,1,98.787,26.6l-7.628,3.119S81,14.6,94.817,11.134c0,0,2.694-6.53,8.488-7.233a9.761,9.761,0,0,1,4.78.694,23.322,23.322,0,0,1,8.236-2.539c3.366-.312,7.106.358,9.861,3.681,6.392,7.711-2.7,14.036-2.7,14.036Z" transform="translate(-75.358 -1.987)" fill="#51518e"/>
            <path id="Trazado_772427" data-name="Trazado 772427" d="M105.4,28.465a9.854,9.854,0,0,1-5.3-.694,29.115,29.115,0,0,1-1.309,8.988l-7.628,3.119S81,24.766,94.817,21.3c0,0,2.694-6.53,8.488-7.233-1.8,3.464-4.5,10.755,2.1,14.4Z" transform="translate(-75.358 -12.148)" fill="#3e3e7a"/>
            <path id="Trazado_772428" data-name="Trazado 772428" d="M276.194,19.773a42.052,42.052,0,0,0-2.2-4.1,7.972,7.972,0,0,1-2.45,1.84c5.637-5.732.46-12.439-2.514-15.46,3.366-.312,7.107.358,9.861,3.681,6.392,7.711-2.7,14.036-2.7,14.036Z" transform="translate(-228.065 -1.987)" fill="#3e3e7a"/>
            <path id="Trazado_772429" data-name="Trazado 772429" d="M220.742,277.231V279.9l-3.683-3.3A14.456,14.456,0,0,0,220.742,277.231Z" transform="translate(-184.332 -233.071)" fill="#ffd5b7"/>
            <path id="Trazado_772430" data-name="Trazado 772430" d="M103.973,153.347l-.634-.276a9.747,9.747,0,0,0-5.354-.175,4.4,4.4,0,0,0-2.434,1.474v0c-4.512,5.21-.584,20.953,10.881,10.165l.836-7.152A6.475,6.475,0,0,0,103.973,153.347Z" transform="translate(-80.544 -128.736)" fill="#ffd5b7"/>
            <path id="Trazado_772431" data-name="Trazado 772431" d="M134.415,176.946l2.511,7.913C139.284,179.913,134.415,176.946,134.415,176.946Z" transform="translate(-114.786 -149.218)" fill="#ffc7a0"/>
          </g>
          <path id="Trazado_772432" data-name="Trazado 772432" d="M317.217,327.435l-12.417,0a189.486,189.486,0,0,0-4.45-22.823l11.8-3.265C313.678,308.187,316.225,320.421,317.217,327.435Z" transform="translate(-254.422 -253.899)" fill="#ffebd3"/>
          <path id="Trazado_772433" data-name="Trazado 772433" d="M313.457,307.4c-2.992,2.9-6.878,3.316-11.728,1.677l-.314-.1c-.623-2.671-1.067-4.368-1.067-4.368l11.8-3.265S312.7,303.819,313.457,307.4Z" transform="translate(-254.422 -253.899)" fill="#ffd5b7"/>
          <path id="Trazado_772434" data-name="Trazado 772434" d="M279.454,196.757s-6.82-.406-9.905,3.247-7.227,4.3-12.511,2.517-8.519,0-8.519,0,1.461-25.413,11.043-25.575a8.229,8.229,0,0,1,3.094.593C271.235,180.839,279.454,196.757,279.454,196.757Z" transform="translate(-210.806 -149.217)" fill="#fcf4f6"/>
          <g id="Grupo_1043291" data-name="Grupo 1043291" transform="translate(54.848 19.567)">
            <path id="Trazado_772435" data-name="Trazado 772435" d="M395.719,194.384s4.674-2.368,8.333-1.63S404.237,199.55,395.719,194.384Z" transform="translate(-389.525 -181.968)" fill="#a1edff"/>
            <path id="Trazado_772436" data-name="Trazado 772436" d="M356.637,130.358s6.434-4.968,12.225-4.908S371.12,135.752,356.637,130.358Z" transform="translate(-356.637 -125.45)" fill="#a1edff"/>
          </g>
        </g>
        <path id="Trazado_772437" data-name="Trazado 772437" d="M269.548,200c-3.086,3.655-7.227,4.3-12.511,2.517s-8.519,0-8.519,0,1.461-25.413,11.043-25.575a8.229,8.229,0,0,1,3.094.593,34.834,34.834,0,0,0-8.674,15.2C251.226,202.9,264.745,202.721,269.548,200Z" transform="translate(-210.806 -149.217)" fill="#f0e3e7"/>
      </g>
      <g id="Grupo_1043294" data-name="Grupo 1043294" transform="translate(8.559 0)">
        <path id="Trazado_772438" data-name="Trazado 772438" d="M132.9,174.992a.317.317,0,0,0-.33.541c.189.116,4.595,2.882,2.39,7.506a.317.317,0,1,0,.572.273C137.983,178.168,132.949,175.023,132.9,174.992Z" transform="translate(-112.787 -147.22)"/>
        <path id="Trazado_772439" data-name="Trazado 772439" d="M71.423,37.7c-4.112-5.416-7.939-8.645-11.414-9.638A27.241,27.241,0,0,0,57.4,18.2c.9-.683,4.285-3.488,4.823-7.443a8.766,8.766,0,0,0-2.28-6.9C57.254.617,53.192-.619,48.2.29A24.2,24.2,0,0,0,41.58,2.575,9.285,9.285,0,0,0,31.336,4.632a15.433,15.433,0,0,0-3.23,4.562c-3.357.875-5.593,2.522-6.646,4.9-1.809,4.077.306,9.291,1.8,12.148C19.6,31.5,22.629,43.651,31.2,39.151c.028,1.733.08,5.145.114,8.363-14.059,2.9-22.753,12.035-22.753,26.22a.317.317,0,0,0,.634,0c0-10.748,5.243-18.878,14.653-23.168a16.487,16.487,0,0,0,3.536,4.9c2.445,2.369,6.835,5.193,13.861,5.193,9.213,0,11.632-4.347,12.231-7.171a17.389,17.389,0,0,1,1.74.5,182.97,182.97,0,0,1,3.726,19.9.317.317,0,1,0,.63-.073A182.018,182.018,0,0,0,55.917,54.2c4.273,1.246,8.178.949,11.288-2.185,1.214,5.649,3.244,15.451,4.152,21.876a.317.317,0,0,0,.628-.089c-.935-6.612-3.051-16.778-4.253-22.354.043-.049.087-.1.129-.146,2.945-3.488,9.578-3.14,9.644-3.136a.317.317,0,0,0,.3-.462A78.166,78.166,0,0,0,71.423,37.7ZM22.039,14.347c.986-2.223,3.131-3.763,6.373-4.578a.316.316,0,0,0,.216-.187A14.882,14.882,0,0,1,31.773,5.09C35.351,1.677,39.506,1.8,43.75,4.338a.317.317,0,1,0,.325-.544,16.494,16.494,0,0,0-1.722-.9A24,24,0,0,1,48.312.914c4.823-.878,8.573.25,11.145,3.354a8.162,8.162,0,0,1,2.14,6.4c-.478,3.528-3.5,6.172-4.471,6.941-.562-1.172-1.211-2.371-1.932-3.574a11.491,11.491,0,0,0,2.065-3.677.317.317,0,0,0-.6-.213,10.728,10.728,0,0,1-2.092,3.643c-3.974,4.374-10.5,2.125-12.233,1.415a8.484,8.484,0,0,0,1.871-2.912.317.317,0,1,0-.588-.237,7.576,7.576,0,0,1-2.065,3.006c-2.825,2.376-6.747,1.014-7.625.663-.006-.717-.037-1.439-.093-2.148a.317.317,0,1,0-.632.05,30.739,30.739,0,0,1-1.093,10.867,8.3,8.3,0,0,0-4.81-.513,5.119,5.119,0,0,0-3.61,1.706c-1.43-2.8-3.3-7.621-1.652-11.34Zm19.2,45.678c-6.8,0-11.038-2.715-13.4-4.993a16.092,16.092,0,0,1-3.417-4.724,36.028,36.028,0,0,1,6.892-2.148c.016,1.572.026,3.065.026,4.254a.317.317,0,1,0,.634,0c0-3.58-.094-10.041-.152-13.625a17.152,17.152,0,0,0,3.155-2.443.317.317,0,1,0-.434-.462C22.42,47.292,19.326,28.207,25.435,25.117a7.871,7.871,0,0,1,2.621-.581,7.378,7.378,0,0,1,4.114.677,6.211,6.211,0,0,1,3.12,3.82.317.317,0,0,0,.619-.138,6.749,6.749,0,0,0-3.219-4.125,29.865,29.865,0,0,0,1.238-8.361c1.276.478,4.985,1.555,7.882-.737,1.245.543,8.411,3.372,12.934-1.149A30.36,30.36,0,0,1,59.364,27.9a7.832,7.832,0,0,0-1.738-.172c-6.277.107-8.97,10.257-10.135,16.422a16.164,16.164,0,0,1-5.794-.617.317.317,0,1,0-.189.605,14.767,14.767,0,0,0,3.46.635v7.642a.317.317,0,1,0,.634,0V47.526c.433.088.862.194,1.283.314-.467,3.313-.61,5.722-.613,5.761a.318.318,0,0,0,.469.3,9.986,9.986,0,0,1,6.109-.537c-.56,2.626-2.847,6.665-11.609,6.665Zm6.131-15.231c-.15.835-.281,1.645-.4,2.414-.45-.127-.91-.236-1.374-.327V44.8C46.21,44.815,46.829,44.823,47.373,44.794Zm20,6.1c-2.888,3.42-6.868,4.212-12.167,2.421a12.36,12.36,0,0,0-8.266-.2C47.221,49.506,49.2,28.5,57.637,28.361c7.451-.124,15.786,12.607,19.35,19.162C75.265,47.507,70.041,47.743,67.376,50.9Z" transform="translate(-8.559 0)"/>
        <path id="Trazado_772440" data-name="Trazado 772440" d="M402.432,190.756c-3.725-.75-8.344,1.559-8.539,1.658a.317.317,0,0,0-.021.554C402.964,198.481,406.561,191.589,402.432,190.756Zm-7.713,1.974c1.317-.578,4.791-1.916,7.587-1.352C405.42,192,402.26,197,394.719,192.729Z" transform="translate(-332.677 -160.398)"/>
        <path id="Trazado_772441" data-name="Trazado 772441" d="M354.844,128.971c15.147,5.642,18.683-5.523,12.23-5.523-5.8,0-12.048,4.77-12.313,4.975A.317.317,0,0,0,354.844,128.971Zm12.332-4.888c5.238.055,1.811,9.189-11.553,4.5C357.2,127.463,362.454,124.036,367.176,124.083Z" transform="translate(-299.789 -103.883)"/>
      </g>
    </g>
  </g>
</svg>
