<svg xmlns="http://www.w3.org/2000/svg" width="116" height="116" viewBox="0 0 116 116">
  <g id="Grupo_1043359" data-name="Grupo 1043359" transform="translate(-425 -15218)">
    <g id="Elipse_4827" data-name="Elipse 4827" transform="translate(425 15218)" fill="#e0ebff" stroke="#0b62f8" stroke-width="1">
      <circle cx="58" cy="58" r="58" stroke="none"/>
      <circle cx="58" cy="58" r="57.5" fill="none"/>
    </g>
    <g id="Calque_2" data-name="Calque 2" transform="translate(450.613 15241.544)">
      <g id="_40-_No_Pets" data-name="40- No Pets" transform="translate(0 0.004)">
        <path id="Trazado_772442" data-name="Trazado 772442" d="M157.969,179.755c3.139,19.469-8.793,5.161-20.153,5.745-11.989.617-25.871,16.149-22.205-4.045,1.788-9.828,10.213-24.4,22.205-24.243C149.181,157.363,156.537,170.877,157.969,179.755Z" transform="translate(-97.872 -133.783)" fill="#e9e9fd"/>
        <path id="Trazado_772443" data-name="Trazado 772443" d="M157.974,11.962c0,5.235-3.213,9.411-7.241,9.325-4.1-.088-7.483-4.548-7.483-9.96s3.381-9.581,7.483-9.316c4.028.261,7.241,4.714,7.241,9.951Z" transform="translate(-121.902 -1.702)" fill="#e9e9fd"/>
        <path id="Trazado_772444" data-name="Trazado 772444" d="M303.185,20.657c0,4.992-2.919,8.978-6.578,8.9-3.726-.08-6.787-4.322-6.787-9.475s3.066-9.13,6.787-8.89c3.659.237,6.578,4.474,6.578,9.466Z" transform="translate(-246.628 -9.515)" fill="#e9e9fd"/>
        <path id="Trazado_772445" data-name="Trazado 772445" d="M386.954,127.929c-2.747,3.161-7,3.508-9.507.708-2.533-2.832-2.25-7.75.618-10.91,2.832-3.118,7.068-3.294,9.478-.46,2.381,2.8,2.121,7.544-.59,10.663Z" transform="translate(-319.724 -98.082)" fill="#e9e9fd"/>
        <path id="Trazado_772446" data-name="Trazado 772446" d="M55.058,108.464c3.367,3.548,3.691,8.84.733,11.9-.717.745-9.125,1.961-11.814-.745-3.587-3.6-3.937-9.112-.772-12.22C46.329,104.356,51.639,104.862,55.058,108.464Z" transform="translate(-34.925 -89.698)" fill="#e9e9fd"/>
        <path id="Trazado_772447" data-name="Trazado 772447" d="M24.581,157.21A22.59,22.59,0,1,0,47.17,179.8,22.59,22.59,0,0,0,24.581,157.21ZM9.616,179.8a14.965,14.965,0,0,1,22.5-12.928L11.653,187.338A14.881,14.881,0,0,1,9.616,179.8ZM24.58,194.765a14.9,14.9,0,0,1-7.536-2.036L37.511,172.26a14.97,14.97,0,0,1-12.931,22.5Z" transform="translate(-1.693 -133.782)" fill="#9d9bfd"/>
        <g id="Grupo_1043295" data-name="Grupo 1043295" transform="translate(0 0)">
          <path id="Trazado_772448" data-name="Trazado 772448" d="M39.949,111.124a15.7,15.7,0,0,0-7.738,1.985,22.745,22.745,0,0,0-9.32-1.987,10.356,10.356,0,0,0-2.542-4.569,9.824,9.824,0,0,0-6.846-3.147,7.46,7.46,0,0,0-5.431,2.086c-2.879,2.826-3,7.666-.322,11.363a22.883,22.883,0,1,0,37.074,23.685,49.451,49.451,0,0,1,6.338,2.161c2.5.988,4.65,1.833,6.31,1.833a3.078,3.078,0,0,0,2-.629c1.55-1.247,1.833-4.322.92-9.985-1.468-9.107-8.976-22.645-20.442-22.8Zm-31.454-5.2a6.866,6.866,0,0,1,5-1.921,9.223,9.223,0,0,1,6.426,2.963,9.787,9.787,0,0,1,2.362,4.165,22.788,22.788,0,0,0-14.071,5.335C5.729,113.012,5.832,108.526,8.495,105.923Zm14.4,50.372a24628.812,24628.812,0,1,1-.006.006Zm36.214-12.86c-1.458,1.174-4.359.03-7.718-1.294A49.818,49.818,0,0,0,45,139.961a22.885,22.885,0,0,0-12.1-26.541,15.016,15.016,0,0,1,7.042-1.7c11.121.149,18.427,13.389,19.864,22.29.851,5.279.62,8.364-.706,9.431Z" transform="translate(0 -87.992)" fill="#4200dd"/>
          <path id="Trazado_772449" data-name="Trazado 772449" d="M149.025,19.887h.131a6.337,6.337,0,0,0,4.484-1.937,10.731,10.731,0,0,0,2.93-7.694A11.989,11.989,0,0,0,154.4,3.239,7.3,7.3,0,0,0,149.05.017a6.272,6.272,0,0,0-4.757,1.8,10.627,10.627,0,0,0-3.043,7.809C141.25,15.193,144.737,19.795,149.025,19.887ZM144.7,2.255A5.723,5.723,0,0,1,148.664.6a3.526,3.526,0,0,1,.355.012c3.839.247,6.963,4.578,6.963,9.653a10.144,10.144,0,0,1-2.751,7.268,5.754,5.754,0,0,1-4.185,1.759c-3.966-.085-7.192-4.42-7.192-9.662A10.014,10.014,0,0,1,144.7,2.255Z" transform="translate(-120.2 -0.004)" fill="#4200dd"/>
          <path id="Trazado_772450" data-name="Trazado 772450" d="M294.9,28.156h.113a5.642,5.642,0,0,0,3.976-1.726,10.577,10.577,0,0,0,2.793-7.472,11.822,11.822,0,0,0-1.97-6.687A6.555,6.555,0,0,0,294.924,9.2a5.548,5.548,0,0,0-4.209,1.611,10.462,10.462,0,0,0-2.9,7.575C287.82,23.688,290.994,28.073,294.9,28.156Zm-3.773-16.912a5.024,5.024,0,0,1,3.46-1.462,2.8,2.8,0,0,1,.3.01c3.474.224,6.3,4.337,6.3,9.168a9.97,9.97,0,0,1-2.614,7.046,5.053,5.053,0,0,1-3.66,1.554c-3.577-.077-6.495-4.194-6.495-9.177a9.856,9.856,0,0,1,2.711-7.14Z" transform="translate(-244.926 -7.817)" fill="#4200dd"/>
          <path id="Trazado_772451" data-name="Trazado 772451" d="M386.044,115.367a5.882,5.882,0,0,0-4.437-2.112,7.372,7.372,0,0,0-5.49,2.565c-2.981,3.279-3.256,8.356-.618,11.31a5.867,5.867,0,0,0,4.428,2h.042a7.457,7.457,0,0,0,5.484-2.709,9.422,9.422,0,0,0,2.277-5.63A7.647,7.647,0,0,0,386.044,115.367ZM385,126.029a6.862,6.862,0,0,1-5.039,2.5h-.037a5.282,5.282,0,0,1-3.984-1.8c-2.44-2.733-2.164-7.451.617-10.513a6.8,6.8,0,0,1,4.951-2.37h.088a5.294,5.294,0,0,1,3.992,1.9c2.276,2.683,2.012,7.288-.587,10.283Z" transform="translate(-317.998 -96.377)" fill="#4200dd"/>
          <path id="Trazado_772452" data-name="Trazado 772452" d="M122.134,256.413c0-.01-.015-.021-.022-.031l-.013-.016-.007-.009-.021-.016-.016-.013a.162.162,0,0,0-.034-.021l-.013-.007-.042-.015h-.012a.213.213,0,0,0-.043,0H121.9a.209.209,0,0,0-.043,0h-.015l-.042.01h-.015a.262.262,0,0,0-.042.019h-.009l-.034.025-.015.012-20.475,20.477a.332.332,0,0,0-.03.034l-.009.013v.009l-.012.027a.055.055,0,0,1,0,.016.413.413,0,0,0-.012.04.066.066,0,0,0,0,.015.213.213,0,0,0,0,.043v.013a.421.421,0,0,0,0,.043v.015a.383.383,0,0,0,.012.039.073.073,0,0,0,0,.016.21.21,0,0,0,.019.036.079.079,0,0,0,.009.015.186.186,0,0,0,.027.033v.01l.028.024.021.015A15.267,15.267,0,0,0,122.8,270.5a.285.285,0,0,0,.039-.083,15.271,15.271,0,0,0-.7-14.009ZM108.95,278.768a14.666,14.666,0,0,1-7.053-1.806l1.861-1.857a2.916,2.916,0,0,0,2.611,1.27c2.037,0,4.791-1.225,7.8-2.563A56.684,56.684,0,0,1,122,270.79a14.681,14.681,0,0,1-13.045,7.985Zm13.39-8.684a54.8,54.8,0,0,0-8.4,3.191c-4.632,2.06-8.316,3.7-9.736,1.405l17.618-17.623a14.672,14.672,0,0,1,.526,13.034Z" transform="translate(-86.069 -218.09)" fill="#4200dd"/>
          <path id="Trazado_772453" data-name="Trazado 772453" d="M74.207,208.961a.315.315,0,0,0,.03-.036l.009-.013V208.9a.057.057,0,0,1,.012-.025.168.168,0,0,0,.007-.019.274.274,0,0,0,.012-.037V208.8a.316.316,0,0,0,0-.037v-.018a.268.268,0,0,0,0-.034v-.024l-.009-.028a.2.2,0,0,0-.01-.027.1.1,0,0,0-.013-.025l-.015-.025-.018-.022-.015-.018-.019-.015a.234.234,0,0,0-.03-.024,15.167,15.167,0,0,0-5.04-1.846.336.336,0,0,0-.066-.012,15.265,15.265,0,0,0-15.77,22.724.268.268,0,0,0,.043.058.458.458,0,0,0,.054.04l.016.007a.3.3,0,0,0,.051.021h.016a.263.263,0,0,0,.069.009.237.237,0,0,0,.064-.009h.022a.252.252,0,0,0,.046-.019h.015l.036-.015.031-.027,20.471-20.474ZM53.6,228.731a14.663,14.663,0,0,1,14.861-21.579A38.962,38.962,0,0,0,61.6,220.713Zm8.887-8.887a38.22,38.22,0,0,1,6.654-12.583,14.571,14.571,0,0,1,4.37,1.557Z" transform="translate(-43.57 -175.664)" fill="#4200dd"/>
        </g>
      </g>
    </g>
  </g>
</svg>
