<svg xmlns="http://www.w3.org/2000/svg" width="116" height="116" viewBox="0 0 116 116">
  <g id="Grupo_1043361" data-name="Grupo 1043361" transform="translate(-865 -15218)">
    <g id="Elipse_4829" data-name="Elipse 4829" transform="translate(865 15218)" fill="#e0ebff" stroke="#0b62f8" stroke-width="1">
      <circle cx="58" cy="58" r="58" stroke="none"/>
      <circle cx="58" cy="58" r="57.5" fill="none"/>
    </g>
    <g id="enfermedad" transform="translate(63.345 14222.559)">
      <g id="Grupo_1043319" data-name="Grupo 1043319" transform="translate(841.843 1027.879)">
        <g id="Grupo_1043299" data-name="Grupo 1043299" transform="translate(4.461 44.798)">
          <path id="Trazado_772465" data-name="Trazado 772465" d="M2021.276,3311.171h49.091V3326.4h-49.091Z" transform="translate(-2021.276 -3311.171)" fill="#fff"/>
        </g>
        <g id="Grupo_1043300" data-name="Grupo 1043300" transform="translate(0 36.689)">
          <path id="Trazado_772466" data-name="Trazado 772466" d="M1833.16,2969.187h51.952a3.085,3.085,0,0,1,3.084,3.084v3.742a3.081,3.081,0,0,1-1.58,2.691,3.047,3.047,0,0,1-1.5.393h-48.895Z" transform="translate(-1833.16 -2969.187)" fill="#ffd773"/>
        </g>
        <g id="Grupo_1043301" data-name="Grupo 1043301" transform="translate(5.914 0.665)">
          <path id="Trazado_772467" data-name="Trazado 772467" d="M2127.676,1475.342a19.976,19.976,0,0,0,.76,5.463l-1.093-.289a20.189,20.189,0,0,0-8.483-.391H2092.3a20.189,20.189,0,0,0-8.483.391l-1.093.289a19.921,19.921,0,0,0,.36-9.421,26.525,26.525,0,0,1,0-10.624,19.871,19.871,0,0,0-.36-9.416l1.093.293a20.315,20.315,0,0,0,10.717-.111,40.809,40.809,0,0,1,22.088,0,20.316,20.316,0,0,0,10.718.111l1.093-.293a19.874,19.874,0,0,0-.36,9.416,26.513,26.513,0,0,1,0,10.624A19.819,19.819,0,0,0,2127.676,1475.342Z" transform="translate(-2082.55 -1450.003)" fill="#ffd773"/>
        </g>
        <g id="Grupo_1043302" data-name="Grupo 1043302" transform="translate(8.924 25.854)">
          <path id="Trazado_772468" data-name="Trazado 772468" d="M2236.024,2512.269a12.4,12.4,0,0,1,8.35,8.248l.8,2.585,3.06,9.914.893,2.9a3.456,3.456,0,0,1-2.252,4.335,3.414,3.414,0,0,1-1.044.16,3.452,3.452,0,0,1-3.291-2.412l-1.652-4.979-3.292-9.914H2219.43l-2.5,7.9-7.447.812,3.15-9.526.661-2.006a12.444,12.444,0,0,1,8.013-7.935Z" transform="translate(-2209.483 -2512.269)" fill="#ff7daf"/>
        </g>
        <g id="Grupo_1043303" data-name="Grupo 1043303" transform="translate(8.925 25.853)">
          <path id="Trazado_772469" data-name="Trazado 772469" d="M2236.143,2512.255l-11.068.058a12.458,12.458,0,0,0-8.017,7.937l-.657,2-3.016,9.11-3.837.417,3.149-9.527.662-2a12.442,12.442,0,0,1,8.012-7.937l14.715-.076C2236.1,2512.242,2236.125,2512.25,2236.143,2512.255Z" transform="translate(-2209.547 -2512.237)" fill="#fff"/>
        </g>
        <g id="Grupo_1043304" data-name="Grupo 1043304" transform="translate(17.383 7.466)">
          <path id="Trazado_772470" data-name="Trazado 772470" d="M2584.611,1740.09a10.685,10.685,0,1,0-15.021,15.19h0a10.689,10.689,0,0,0,17.509-11.006Z" transform="translate(-2566.227 -1736.817)" fill="#fff"/>
        </g>
        <g id="Grupo_1043305" data-name="Grupo 1043305" transform="translate(16.717 6.8)">
          <path id="Trazado_772471" data-name="Trazado 772471" d="M2549.477,1731.416a11.294,11.294,0,0,1-7.728-3.04c-.017-.013-.033-.027-.048-.041a11.351,11.351,0,1,1,15.957-16.139.666.666,0,1,1-.958.926,10.019,10.019,0,1,0-14.128,14.2.608.608,0,0,1,.047.04,10.018,10.018,0,0,0,16.879-7.3,10.071,10.071,0,0,0-.462-3.025.666.666,0,0,1,1.271-.4,11.406,11.406,0,0,1,.523,3.424,11.351,11.351,0,0,1-11.353,11.348Z" transform="translate(-2538.129 -1708.72)" fill="#2c1b57"/>
        </g>
        <g id="Grupo_1043306" data-name="Grupo 1043306" transform="translate(23.778 19.895)">
          <path id="Trazado_772472" data-name="Trazado 772472" d="M2843.811,2264.548a.666.666,0,0,1-.6-.371,3.339,3.339,0,0,0-1.315-1.406,3.277,3.277,0,0,0-1.626-.462c-.023,0-.045,0-.067,0a3.367,3.367,0,0,0-3.043,1.875.666.666,0,1,1-1.193-.593,4.682,4.682,0,0,1,4.217-2.613c.045,0,.094,0,.142,0a4.71,4.71,0,0,1,4.081,2.609.666.666,0,0,1-.6.962Z" transform="translate(-2835.898 -2260.972)" fill="#2c1b57"/>
        </g>
        <g id="Grupo_1043307" data-name="Grupo 1043307" transform="translate(43.948 36.023)">
          <path id="Trazado_772473" data-name="Trazado 772473" d="M3694.529,2952.335h-4.28a.666.666,0,1,1,0-1.333h4.28a2.365,2.365,0,0,0,1.177-.307,2.424,2.424,0,0,0,1.241-2.111v-3.742a2.421,2.421,0,0,0-2.418-2.418h-7.338a.666.666,0,0,1,0-1.333h7.338a3.755,3.755,0,0,1,3.75,3.75v3.742a3.753,3.753,0,0,1-3.75,3.75Z" transform="translate(-3686.525 -2941.092)" fill="#2c1b57"/>
        </g>
        <g id="Grupo_1043308" data-name="Grupo 1043308" transform="translate(17.667 45.934)">
          <path id="Trazado_772474" data-name="Trazado 772474" d="M2600.877,3360.418h-21.995a.666.666,0,0,1,0-1.333h21.995a.666.666,0,0,1,0,1.333Z" transform="translate(-2578.216 -3359.085)" fill="#2c1b57"/>
        </g>
        <g id="Grupo_1043309" data-name="Grupo 1043309" transform="translate(8.257 25.263)">
          <path id="Trazado_772475" data-name="Trazado 772475" d="M2182.045,2508.136a.667.667,0,0,1-.633-.876l3.811-11.531a13.15,13.15,0,0,1,8.442-8.361.666.666,0,1,1,.407,1.269,11.813,11.813,0,0,0-7.584,7.51l-3.811,11.531A.667.667,0,0,1,2182.045,2508.136Z" transform="translate(-2181.378 -2487.337)" fill="#2c1b57"/>
        </g>
        <g id="Grupo_1043310" data-name="Grupo 1043310" transform="translate(15.704 36.021)">
          <path id="Trazado_772476" data-name="Trazado 772476" d="M2496.082,2950.242a.659.659,0,0,1-.2-.031.666.666,0,0,1-.434-.836l2.5-7.9a.666.666,0,1,1,1.27.4l-2.5,7.9A.666.666,0,0,1,2496.082,2950.242Z" transform="translate(-2495.415 -2941.013)" fill="#2c1b57"/>
        </g>
        <g id="Grupo_1043311" data-name="Grupo 1043311" transform="translate(34.798 25.188)">
          <path id="Trazado_772477" data-name="Trazado 772477" d="M3311.128,2513.635a4.106,4.106,0,0,1-3.926-2.876l-4.941-14.884a.666.666,0,0,1,1.265-.42l4.943,14.893a2.788,2.788,0,1,0,5.319-1.673l-4.754-15.4a11.739,11.739,0,0,0-7.9-7.805.666.666,0,0,1,.375-1.279,13.069,13.069,0,0,1,8.8,8.689l4.753,15.4a4.128,4.128,0,0,1-2.687,5.166A4.074,4.074,0,0,1,3311.128,2513.635Z" transform="translate(-3300.655 -2484.165)" fill="#2c1b57"/>
        </g>
        <g id="Grupo_1043312" data-name="Grupo 1043312" transform="translate(18.205 36.021)">
          <path id="Trazado_772478" data-name="Trazado 772478" d="M2619.711,2942.349h-18.166a.666.666,0,0,1,0-1.333h18.166a.666.666,0,0,1,0,1.333Z" transform="translate(-2600.879 -2941.016)" fill="#2c1b57"/>
        </g>
        <g id="Grupo_1043313" data-name="Grupo 1043313" transform="translate(52.791 45.538)">
          <path id="Trazado_772479" data-name="Trazado 772479" d="M4060.114,3357.531a.666.666,0,0,1-.667-.666v-13.827a.666.666,0,1,1,1.333,0v13.827A.666.666,0,0,1,4060.114,3357.531Z" transform="translate(-4059.448 -3342.371)" fill="#2c1b57"/>
        </g>
        <g id="Grupo_1043314" data-name="Grupo 1043314" transform="translate(29.457 5.833)">
          <path id="Trazado_772480" data-name="Trazado 772480" d="M3075.391,1682.911c.6-.725,5.161-8.346,6.051-9.686a41.75,41.75,0,0,1,3.871-4.988.866.866,0,0,1,1.185-.118l2.561,2.1a.866.866,0,0,1,.118,1.185,41.737,41.737,0,0,1-4.123,4.782c-1.138,1.138-7.412,7.138-8,7.87Z" transform="translate(-3075.391 -1667.938)" fill="#fff"/>
        </g>
        <g id="Grupo_1043315" data-name="Grupo 1043315" transform="translate(28.79 5.167)">
          <path id="Trazado_772481" data-name="Trazado 772481" d="M3049.617,1657.317a.666.666,0,0,1-.517-1.085c.395-.488,2.714-2.741,5.7-5.637,1.075-1.041,1.98-1.917,2.347-2.284a41.382,41.382,0,0,0,4.068-4.72.2.2,0,0,0-.029-.272l-2.547-2.083a.2.2,0,0,0-.26.04,41.351,41.351,0,0,0-3.82,4.92c-.35.527-1.312,2.1-2.332,3.764-1.974,3.224-3.4,5.54-3.761,5.978a.666.666,0,1,1-1.027-.849c.33-.4,2.249-3.534,3.651-5.824,1.071-1.749,2-3.259,2.358-3.806a42.4,42.4,0,0,1,3.921-5.055,1.535,1.535,0,0,1,2.1-.211l2.575,2.107a1.538,1.538,0,0,1,.224,2.107,42.426,42.426,0,0,1-4.179,4.846c-.37.37-1.28,1.251-2.362,2.3-2.079,2.013-5.221,5.055-5.6,5.518A.665.665,0,0,1,3049.617,1657.317Z" transform="translate(-3047.293 -1639.873)" fill="#2c1b57"/>
        </g>
        <g id="Grupo_1043316" data-name="Grupo 1043316" transform="translate(18.219 0)">
          <path id="Trazado_772482" data-name="Trazado 772482" d="M2635.081,1454.091a.671.671,0,0,1-.172-.022l-1.09-.291a19.379,19.379,0,0,0-8.2-.375.666.666,0,0,1-.219-1.314,20.71,20.71,0,0,1,8.76.4,20.741,20.741,0,0,1-.5-4.526,20.325,20.325,0,0,1,.415-4.092,25.815,25.815,0,0,0,0-10.356,20.58,20.58,0,0,1,.087-8.614,20.943,20.943,0,0,1-11.065-.114,40.313,40.313,0,0,0-20.759-.269.666.666,0,1,1-.328-1.291,41.646,41.646,0,0,1,21.449.278,19.612,19.612,0,0,0,10.366.108l1.089-.291a.666.666,0,0,1,.813.824,19.3,19.3,0,0,0-.346,9.1,27.14,27.14,0,0,1,0,10.894,18.979,18.979,0,0,0-.388,3.823,19.446,19.446,0,0,0,.734,5.282.666.666,0,0,1-.641.847Z" transform="translate(-2601.502 -1421.955)" fill="#2c1b57"/>
        </g>
        <g id="Grupo_1043317" data-name="Grupo 1043317" transform="translate(7.002 29.846)">
          <path id="Trazado_772483" data-name="Trazado 772483" d="M2129.1,2682.471a.666.666,0,0,1-.155-1.314,20.528,20.528,0,0,1,6.927-.455.666.666,0,1,1-.137,1.325,19.186,19.186,0,0,0-6.478.425A.673.673,0,0,1,2129.1,2682.471Z" transform="translate(-2128.434 -2680.592)" fill="#2c1b57"/>
        </g>
        <g id="Grupo_1043318" data-name="Grupo 1043318" transform="translate(5.399 18.903)">
          <path id="Trazado_772484" data-name="Trazado 772484" d="M2062.262,2227.886h-.036a.666.666,0,0,1-.63-.7c.017-.317.026-.629.026-.946a18.841,18.841,0,0,0-.39-3.822c-.172-.837-.3-1.691-.4-2.542a.666.666,0,1,1,1.325-.142c.087.808.213,1.621.376,2.415a20.178,20.178,0,0,1,.418,4.091c0,.341-.009.677-.028,1.017A.666.666,0,0,1,2062.262,2227.886Z" transform="translate(-2060.831 -2219.137)" fill="#2c1b57"/>
        </g>
      </g>
      <g id="Grupo_1043327" data-name="Grupo 1043327" transform="translate(817.765 1018.307)">
        <g id="Grupo_1043320" data-name="Grupo 1043320" transform="translate(14.006 0.666)">
          <circle id="Elipse_4845" data-name="Elipse 4845" cx="12.878" cy="12.878" r="12.878" fill="#fff"/>
        </g>
        <g id="Grupo_1043321" data-name="Grupo 1043321" transform="translate(0.666 28.926)">
          <path id="Trazado_772485" data-name="Trazado 772485" d="M873.214,2265.54l3.309-12.152a12.052,12.052,0,0,0-23.258-6.327l-7.4,27.194h11.91Z" transform="translate(-845.866 -2238.172)" fill="#a27dff"/>
        </g>
        <g id="Grupo_1043322" data-name="Grupo 1043322" transform="translate(0.668 28.928)">
          <path id="Trazado_772486" data-name="Trazado 772486" d="M866.7,2238.377a12.048,12.048,0,0,0-9.878,8.759l-7.4,27.2h-3.478l7.4-27.2A12.043,12.043,0,0,1,866.7,2238.377Z" transform="translate(-845.948 -2238.249)" fill="#fff"/>
        </g>
        <g id="Grupo_1043323" data-name="Grupo 1043323" transform="translate(10.199 39.897)">
          <path id="Trazado_772487" data-name="Trazado 772487" d="M1252.79,2700.807l-4.832,23.783a4.648,4.648,0,0,0,3.63,5.481,4.731,4.731,0,0,0,2.135-.063l23.453-6.242a4.648,4.648,0,0,0,3.3-5.687c-1.469-5.518-8.1-2.654-11.8-1.671l-10.114,2.692,3.34-16.442Z" transform="translate(-1247.864 -2700.807)" fill="#a27dff"/>
        </g>
        <g id="Grupo_1043324" data-name="Grupo 1043324" transform="translate(0 28.262)">
          <path id="Trazado_772488" data-name="Trazado 772488" d="M818.432,2247.572a.667.667,0,0,1-.643-.841l7.4-27.194a12.718,12.718,0,0,1,24.543,6.677l-3.309,12.152a.666.666,0,1,1-1.286-.35l3.309-12.152a11.385,11.385,0,0,0-21.972-5.977l-7.4,27.193A.666.666,0,0,1,818.432,2247.572Z" transform="translate(-817.765 -2210.159)" fill="#2c1b57"/>
        </g>
        <g id="Grupo_1043325" data-name="Grupo 1043325" transform="translate(9.532 39.23)">
          <path id="Trazado_772489" data-name="Trazado 772489" d="M1225.05,2703.39a5.315,5.315,0,0,1-5.207-6.373l4.832-23.783a.666.666,0,0,1,1.306.265l-4.832,23.784a3.982,3.982,0,0,0,3.11,4.7,4.055,4.055,0,0,0,1.835-.056l23.449-6.24a3.987,3.987,0,0,0,2.824-4.873,3.49,3.49,0,0,0-1.616-2.312c-1.961-1.095-5.2-.121-7.807.662-.557.167-1.082.325-1.559.452l-10.114,2.691a.666.666,0,0,1-.824-.776l3.34-16.441a.666.666,0,0,1,1.306.265l-3.126,15.389,9.076-2.415c.465-.124.976-.278,1.519-.44,2.846-.855,6.387-1.92,8.841-.55a4.809,4.809,0,0,1,2.254,3.133,5.321,5.321,0,0,1-3.769,6.5l-23.453,6.242A5.5,5.5,0,0,1,1225.05,2703.39Z" transform="translate(-1219.735 -2672.699)" fill="#2c1b57"/>
        </g>
        <g id="Grupo_1043326" data-name="Grupo 1043326" transform="translate(13.34)">
          <path id="Trazado_772490" data-name="Trazado 772490" d="M1393.859,1045.4a13.545,13.545,0,1,1,13.545-13.545A13.56,13.56,0,0,1,1393.859,1045.4Zm0-25.757a12.212,12.212,0,1,0,12.212,12.212A12.226,12.226,0,0,0,1393.859,1019.639Z" transform="translate(-1380.314 -1018.307)" fill="#2c1b57"/>
        </g>
      </g>
    </g>
  </g>
</svg>
