<svg xmlns="http://www.w3.org/2000/svg" width="116" height="116" viewBox="0 0 116 116">
  <g id="Grupo_1043362" data-name="Grupo 1043362" transform="translate(-1084 -15218)">
    <g id="Grupo_1043347" data-name="Grupo 1043347">
      <g id="Elipse_4830" data-name="Elipse 4830" transform="translate(1084 15218)" fill="#e0ebff" stroke="#0b62f8" stroke-width="1">
        <circle cx="58" cy="58" r="58" stroke="none"/>
        <circle cx="58" cy="58" r="57.5" fill="none"/>
      </g>
      <g id="neurologico" transform="translate(494.777 14804.139)">
        <g id="Grupo_1043328" data-name="Grupo 1043328" transform="translate(620.387 435.115)">
          <path id="Trazado_772491" data-name="Trazado 772491" d="M666.326,549.458a8.986,8.986,0,0,0-9.657-1.117,6.893,6.893,0,0,0-3.107,4.4l-.555-.1a6.36,6.36,0,0,0-5.084,2.805,4.293,4.293,0,0,0,.272,5.058l1.769-.6a6.359,6.359,0,0,0-4.673,5.9,6.428,6.428,0,0,0,5.905,6.248l3.4-.475,22.271-.8Z" transform="translate(-644.702 -546.815)" fill="#ff7b57"/>
          <path id="Trazado_772492" data-name="Trazado 772492" d="M626.88,548.4a.452.452,0,0,1-.057,0,7.243,7.243,0,0,1-4.614-2.274,6.615,6.615,0,0,1-1.823-4.566,6.756,6.756,0,0,1,2.781-5.306,5.322,5.322,0,0,1-.753-1.735,4.671,4.671,0,0,1,.7-3.631,6.545,6.545,0,0,1,3.417-2.67,7.052,7.052,0,0,1,2.161-.409.516.516,0,0,1,.1.009l.059.009a9.267,9.267,0,0,1,.883-2.019,6.157,6.157,0,0,1,2.338-2.229,9.58,9.58,0,0,1,10.295,1.166.586.586,0,0,1,.172.208l10.536,21.326a.59.59,0,0,1-.508.852l-22.24.8-3.365.47Zm-1.539-12.011a5.729,5.729,0,0,0-3.776,5.178,5.816,5.816,0,0,0,5.306,5.648l3.325-.463a.506.506,0,0,1,.061,0l21.359-.767L641.546,525.6a8.381,8.381,0,0,0-8.909-.987,5.771,5.771,0,0,0-2.682,3.639c-.057.175-.106.326-.158.456a.587.587,0,0,1-.652.366l-.5-.087a5.751,5.751,0,0,0-4.538,2.529,3.511,3.511,0,0,0,.014,4.04l.822-.276c.175-.066.354-.128.536-.179a.59.59,0,0,1,.354,1.126Z" transform="translate(-620.387 -522.569)" fill="#6e1f1f"/>
        </g>
        <g id="Grupo_1043329" data-name="Grupo 1043329" transform="translate(627.08 463.657)">
          <path id="Trazado_772493" data-name="Trazado 772493" d="M945.422,1765.381a1.786,1.786,0,0,1-3.107,1.594l-1.4-1.7s0,0-.007,0l-9.735-.9a2.508,2.508,0,0,1-2.264-2.744l.29-3.036a2.53,2.53,0,0,1,2.76-2.276l6.732.645,7.048.843Z" transform="translate(-928.3 -1755.706)" fill="#fff"/>
          <path id="Trazado_772494" data-name="Trazado 772494" d="M919.273,1743.882h-.04a2.387,2.387,0,0,1-1.8-.859l-1.251-1.518-9.5-.883a3.1,3.1,0,0,1-2.8-3.386l.29-3.036a3.118,3.118,0,0,1,3.4-2.807l6.732.645a.029.029,0,0,1,.014,0l7.048.843a.59.59,0,1,1-.142,1.171l-7.041-.843-6.725-.645a1.94,1.94,0,0,0-2.118,1.747l-.29,3.036a1.92,1.92,0,0,0,1.733,2.1l9.728.9a.6.6,0,0,1,.42.222l1.4,1.7a1.2,1.2,0,0,0,.911.432,1.185,1.185,0,0,0,.921-.406,1.206,1.206,0,0,0,.246-1.1.59.59,0,0,1,1.145-.286,2.359,2.359,0,0,1-2.29,2.97Zm-3.379-2.937a.62.62,0,0,0,.031.189A.645.645,0,0,1,915.894,1740.945Z" transform="translate(-903.873 -1731.377)" fill="#6e1f1f"/>
        </g>
        <g id="Grupo_1043330" data-name="Grupo 1043330" transform="translate(639.465 436.061)">
          <path id="Trazado_772495" data-name="Trazado 772495" d="M1453.572,594a5.412,5.412,0,0,1,.8-4.108,5.237,5.237,0,0,1,2.739-1.988,5.291,5.291,0,0,1,3.764.307l8.5,5.117.685,10.62s1.9,1.955,2.512,2.626c1.4,1.544.72,4.4-.586,5.766a3.875,3.875,0,0,1-4.193.836Z" transform="translate(-1452.868 -587.095)" fill="#ff7b57"/>
          <path id="Trazado_772496" data-name="Trazado 772496" d="M1444.809,589.611a4.654,4.654,0,0,1-1.7-.323.591.591,0,1,1,.43-1.1,3.287,3.287,0,0,0,3.551-.694,4.779,4.779,0,0,0,1.152-2.493,3.044,3.044,0,0,0-.576-2.467c-.6-.656-2.479-2.593-2.5-2.611a.6.6,0,0,1-.165-.373l-.666-10.314-8.215-4.944a4.679,4.679,0,0,0-3.313-.262,4.627,4.627,0,0,0-2.425,1.759,4.8,4.8,0,0,0-.706,3.648.59.59,0,0,1-1.155.248,6.168,6.168,0,0,1-.111-1.669,5.663,5.663,0,0,1,2.779-4.55,5.715,5.715,0,0,1,5.466-.224.452.452,0,0,1,.047.026l8.5,5.117a.586.586,0,0,1,.283.468l.671,10.4c.465.479,1.858,1.917,2.375,2.484a4.1,4.1,0,0,1,.871,3.433,5.935,5.935,0,0,1-1.466,3.136,4.207,4.207,0,0,1-2.236,1.209A4.11,4.11,0,0,1,1444.809,589.611Z" transform="translate(-1428.398 -562.657)" fill="#6e1f1f"/>
        </g>
        <g id="Grupo_1043331" data-name="Grupo 1043331" transform="translate(625.63 453.716)">
          <path id="Trazado_772497" data-name="Trazado 772497" d="M871.049,1335.3a3.992,3.992,0,0,0-3.336,2.538,4.093,4.093,0,0,0,.43,3.516,4.028,4.028,0,0,0,2.2,1.577,3.86,3.86,0,0,0,1.025.137H881a1.97,1.97,0,0,1,1.934,1.582l1.152,5.738h5.388l-.116-1.06a1.971,1.971,0,0,1,1.436-2.12,7.319,7.319,0,0,0,4.862-4.071,7.635,7.635,0,0,0,.267-4.562,6.765,6.765,0,0,0-.718-1.632Z" transform="translate(-866.892 -1334.711)" fill="#ff7b57"/>
          <path id="Trazado_772498" data-name="Trazado 772498" d="M865.011,1326.619h-5.388a.591.591,0,0,1-.578-.475l-1.152-5.738a1.383,1.383,0,0,0-1.355-1.11h-9.631a4.4,4.4,0,0,1-1.181-.158,4.651,4.651,0,0,1-2.536-1.816l0,0a4.776,4.776,0,0,1-.576-1.287,4.365,4.365,0,0,1,1.568-4.753,4.709,4.709,0,0,1,2.34-.928.589.589,0,1,1,.128,1.171,3.423,3.423,0,0,0-2.848,2.156,3.188,3.188,0,0,0-.054,2.026,3.655,3.655,0,0,0,.42.954,3.473,3.473,0,0,0,1.868,1.339,3.254,3.254,0,0,0,.869.116h9.631a2.566,2.566,0,0,1,2.512,2.059l1.055,5.263h4.248l-.045-.4a2.533,2.533,0,0,1,.425-1.721,2.577,2.577,0,0,1,1.44-1.034,6.708,6.708,0,0,0,4.474-3.733,6.211,6.211,0,0,0,.449-2.59,7.03,7.03,0,0,0-.205-1.577,6.1,6.1,0,0,0-.654-1.488.589.589,0,0,1,1.006-.614,7.3,7.3,0,0,1,.782,1.776,7.961,7.961,0,0,1,.25,1.877,7.423,7.423,0,0,1-.541,3.081,7.339,7.339,0,0,1-2.087,2.774,8.581,8.581,0,0,1-3.157,1.634,1.373,1.373,0,0,0-1.008,1.485v0l.116,1.06a.59.59,0,0,1-.146.458A.58.58,0,0,1,865.011,1326.619Z" transform="translate(-842.429 -1310.35)" fill="#6e1f1f"/>
        </g>
        <g id="Grupo_1043332" data-name="Grupo 1043332" transform="translate(633.918 447.665)">
          <path id="Trazado_772499" data-name="Trazado 772499" d="M1203.6,1065.861a.557.557,0,0,1-.213-.04.592.592,0,0,1-.338-.763c1.242-3.2.616-6.663-1.521-8.413a7.069,7.069,0,0,0-4.12-1.384,6.509,6.509,0,0,0-3.055.843.589.589,0,0,1-.578-1.027,7.705,7.705,0,0,1,3.61-.994,8.217,8.217,0,0,1,4.89,1.651,6.535,6.535,0,0,1,1.568,1.887,7.916,7.916,0,0,1,.859,2.39,9.973,9.973,0,0,1-.552,5.475A.591.591,0,0,1,1203.6,1065.861Z" transform="translate(-1193.47 -1054.083)" fill="#6e1f1f"/>
        </g>
        <g id="Grupo_1043333" data-name="Grupo 1043333" transform="translate(647.066 433)">
          <path id="Trazado_772500" data-name="Trazado 772500" d="M1794.773,467.937a9.837,9.837,0,1,1-9.837-9.837A9.836,9.836,0,0,1,1794.773,467.937Z" transform="translate(-1774.514 -457.507)" fill="#fff"/>
          <path id="Trazado_772501" data-name="Trazado 772501" d="M1760.725,453.854a10.4,10.4,0,1,1,4.059-.819A10.38,10.38,0,0,1,1760.725,453.854Zm0-19.671a9.246,9.246,0,1,0,9.246,9.246A9.258,9.258,0,0,0,1760.725,434.183Z" transform="translate(-1750.3 -433)" fill="#6e1f1f"/>
        </g>
        <g id="Grupo_1043334" data-name="Grupo 1043334" transform="translate(652.91 435.057)">
          <path id="Trazado_772502" data-name="Trazado 772502" d="M2001.709,536.829a.59.59,0,0,1-.51-.888l4.054-6.932-6.767,1a.59.59,0,0,1-.6-.881l5.1-8.713a.59.59,0,1,1,1.02.595l-4.474,7.653,6.767-1a.589.589,0,0,1,.574.253.6.6,0,0,1,.021.628l-4.673,7.993A.6.6,0,0,1,2001.709,536.829Z" transform="translate(-1997.812 -520.122)" fill="#6e1f1f"/>
        </g>
        <g id="Grupo_1043335" data-name="Grupo 1043335" transform="translate(647.022 462.741)">
          <path id="Trazado_772503" data-name="Trazado 772503" d="M1773.59,1730.941a7.74,7.74,0,0,0,3.23.416,9.8,9.8,0,0,0,8.007-6.588c.557-2.009,1.889-6.8,1.908-6.869a33.033,33.033,0,0,0,2.153,6.413,11.216,11.216,0,0,0,7.546,5.173,11.561,11.561,0,0,0,6.887-.893q-2.607,2.044-5.206,4.085a6.866,6.866,0,0,0-1.828,8.621l4.243,7.988q-3.783-2.525-7.575-5.041a6.041,6.041,0,0,0-7.674.805q-3.69,3.772-7.386,7.539l2.765-10.5a8.631,8.631,0,0,0-2.985-6.847,7.892,7.892,0,0,0-4.378-1.636Z" transform="translate(-1772.713 -1717.303)" fill="#a8c5ff"/>
          <path id="Trazado_772504" data-name="Trazado 772504" d="M1753.63,1728.477a.591.591,0,0,1-.569-.741l2.748-10.439a8.857,8.857,0,0,0-.307-2.442,7.128,7.128,0,0,0-2.456-3.858,7.284,7.284,0,0,0-4.049-1.511.589.589,0,0,1,.076-1.176,8.443,8.443,0,0,1,4.706,1.761,7.97,7.97,0,0,1,1.917,2.2,9.051,9.051,0,0,1,.947,2.279,10.076,10.076,0,0,1,.345,2.855.6.6,0,0,1-.019.128l-2.2,8.349c1.908-1.948,3.825-3.905,5.688-5.811l.137-.139a6.641,6.641,0,0,1,8.422-.883l3.086,2.054,2.543,1.691c-.248-.465-.493-.93-.741-1.4q-1.2-2.263-2.406-4.529a7.453,7.453,0,0,1,1.986-9.362l2.619-2.054c.031-.024.061-.047.09-.071a11.677,11.677,0,0,1-4.132-.026,12.2,12.2,0,0,1-4.727-2,10.807,10.807,0,0,1-3.223-3.461,23.044,23.044,0,0,1-1.655-4.441c-.434,1.563-1.006,3.615-1.322,4.763a8.39,8.39,0,0,1-1.192,2.5,10.829,10.829,0,0,1-1.962,2.156,9.912,9.912,0,0,1-5.365,2.364,8.258,8.258,0,0,1-3.478-.446.59.59,0,0,1,.387-1.114,7.052,7.052,0,0,0,2.985.385A9.188,9.188,0,0,0,1760,1699.9c.319-1.152.893-3.211,1.327-4.777.3-1.1.569-2.042.581-2.087a.591.591,0,0,1,1.145.019,32.764,32.764,0,0,0,2.092,6.257,10.686,10.686,0,0,0,7.14,4.885,10.894,10.894,0,0,0,6.533-.848.589.589,0,0,1,.609,1q-1.3,1.017-2.59,2.031t-2.619,2.054a6.268,6.268,0,0,0-1.672,7.879q1.2,2.263,2.406,4.529.921,1.728,1.839,3.459a.589.589,0,0,1-.848.765c-1.495-1-3.015-2.009-4.486-2.987l-3.088-2.054a5.462,5.462,0,0,0-6.925.725l-.137.139c-2.373,2.425-4.829,4.932-7.249,7.4A.579.579,0,0,1,1753.63,1728.477Z" transform="translate(-1748.446 -1692.596)" fill="#6e1f1f"/>
        </g>
        <g id="Grupo_1043336" data-name="Grupo 1043336" transform="translate(648.115 497.43)">
          <path id="Trazado_772505" data-name="Trazado 772505" d="M1795.311,3169.038a.6.6,0,0,1-.293-.078.591.591,0,0,1-.22-.805l3.509-6.137a.59.59,0,1,1,1.025.585l-3.509,6.137A.587.587,0,0,1,1795.311,3169.038Z" transform="translate(-1794.721 -3161.721)" fill="#6e1f1f"/>
        </g>
        <g id="Grupo_1043337" data-name="Grupo 1043337" transform="translate(674.251 494.139)">
          <path id="Trazado_772506" data-name="Trazado 772506" d="M2907.535,3029.3a.583.583,0,0,1-.435-.191l-5.294-5.771a.59.59,0,0,1,.869-.8l5.294,5.771a.59.59,0,0,1-.434.989Z" transform="translate(-2901.652 -3022.352)" fill="#6e1f1f"/>
        </g>
        <g id="Grupo_1043338" data-name="Grupo 1043338" transform="translate(677.041 470.311)">
          <path id="Trazado_772507" data-name="Trazado 772507" d="M3020.373,2017.5a.589.589,0,0,1-.234-1.131l7.317-3.136a.59.59,0,1,1,.465,1.084l-7.317,3.136A.563.563,0,0,1,3020.373,2017.5Z" transform="translate(-3019.782 -2013.182)" fill="#6e1f1f"/>
        </g>
        <g id="Grupo_1043339" data-name="Grupo 1043339" transform="translate(675.079 468.968)">
          <path id="Trazado_772508" data-name="Trazado 772508" d="M2939.258,1961.963a.59.59,0,0,1-.541-.354l-1.962-4.477a.589.589,0,1,1,1.079-.475l1.962,4.477a.59.59,0,0,1-.3.777A.553.553,0,0,1,2939.258,1961.963Z" transform="translate(-2936.706 -1956.306)" fill="#6e1f1f"/>
        </g>
        <g id="Grupo_1043340" data-name="Grupo 1043340" transform="translate(673.084 494.138)">
          <path id="Trazado_772509" data-name="Trazado 772509" d="M2852.8,3030.05a.533.533,0,0,1-.1-.009.59.59,0,0,1-.477-.685l1.167-6.557a.59.59,0,1,1,1.162.208l-1.167,6.557A.591.591,0,0,1,2852.8,3030.05Z" transform="translate(-2852.213 -3022.313)" fill="#6e1f1f"/>
        </g>
        <g id="Grupo_1043341" data-name="Grupo 1043341" transform="translate(646.626 497.445)">
          <path id="Trazado_772510" data-name="Trazado 772510" d="M1732.258,3165.437a.589.589,0,0,1-.21-1.14l4.991-1.891a.59.59,0,1,1,.418,1.1l-4.991,1.891A.584.584,0,0,1,1732.258,3165.437Z" transform="translate(-1731.667 -3162.367)" fill="#6e1f1f"/>
        </g>
        <g id="Grupo_1043342" data-name="Grupo 1043342" transform="translate(677.064 496.01)">
          <path id="Trazado_772511" data-name="Trazado 772511" d="M3021.379,3103.961a.59.59,0,0,1-.156-1.159l4.338-1.192a.59.59,0,1,1,.312,1.138l-4.337,1.192A.511.511,0,0,1,3021.379,3103.961Z" transform="translate(-3020.788 -3101.588)" fill="#6e1f1f"/>
        </g>
        <g id="Grupo_1043343" data-name="Grupo 1043343" transform="translate(678.93 472.637)">
          <path id="Trazado_772512" data-name="Trazado 772512" d="M3101.653,2117.732a.591.591,0,0,1-.572-.444q-.315-1.229-.633-2.46-.3-1.187-.612-2.373a.59.59,0,1,1,1.143-.293q.3,1.187.612,2.373.315,1.229.633,2.46a.589.589,0,0,1-.425.718A.609.609,0,0,1,3101.653,2117.732Z" transform="translate(-3099.818 -2111.718)" fill="#6e1f1f"/>
        </g>
        <g id="Grupo_1043344" data-name="Grupo 1043344" transform="translate(657.49 476.14)">
          <path id="Trazado_772513" data-name="Trazado 772513" d="M2217.347,2287.115a3.909,3.909,0,1,1,1.4,5.348A3.911,3.911,0,0,1,2217.347,2287.115Z" transform="translate(-2216.22 -2284.585)" fill="#fff"/>
          <path id="Trazado_772514" data-name="Trazado 772514" d="M2196.281,2269.09a4.51,4.51,0,1,1,1.15-.149A4.577,4.577,0,0,1,2196.281,2269.09Zm.012-7.823a3.333,3.333,0,0,0-2.871,1.648,3.313,3.313,0,1,0,2.871-1.648Z" transform="translate(-2191.787 -2260.087)" fill="#6e1f1f"/>
        </g>
        <g id="Grupo_1043345" data-name="Grupo 1043345" transform="translate(623.542 490.965)">
          <path id="Trazado_772515" data-name="Trazado 772515" d="M790.422,2916.867a.019.019,0,0,0,.009,0l3.61-3.608a1.22,1.22,0,0,1,1.719,0l2.071,2.071a1.215,1.215,0,0,1,0,1.719l-3.431,3.428a1.207,1.207,0,0,0,0,1.7l2.241,2.241a1.979,1.979,0,0,1,.25,2.545,1.93,1.93,0,0,1-2.916.229l-1.674-1.674a.012.012,0,0,0-.009,0l-10.491.038a2.7,2.7,0,0,1-2.7-2.7v-3.272a2.716,2.716,0,0,1,2.715-2.715Z" transform="translate(-778.507 -2912.31)" fill="#fff"/>
          <path id="Trazado_772516" data-name="Trazado 772516" d="M770.823,2903.957a2.5,2.5,0,0,1-1.776-.732l-1.5-1.5-10.25.038a3.3,3.3,0,0,1-3.294-3.292v-3.272a3.307,3.307,0,0,1,3.3-3.3h8.37l3.44-3.44a1.811,1.811,0,0,1,2.552,0l2.071,2.071a1.811,1.811,0,0,1,0,2.552l-1.483,1.483-1.948,1.948a.616.616,0,0,0,0,.869l2.241,2.241a2.661,2.661,0,0,1,.763,1.591,2.459,2.459,0,0,1-.453,1.719,2.515,2.515,0,0,1-1.835,1.022A1.925,1.925,0,0,1,770.823,2903.957Zm-2.611-3.235,1.669,1.669a1.341,1.341,0,0,0,2.023-.161,1.388,1.388,0,0,0-.191-1.78l-2.241-2.241a1.8,1.8,0,0,1,0-2.541l1.948-1.948,1.483-1.483a.628.628,0,0,0,0-.885l-2.068-2.069a.629.629,0,0,0-.885,0l-3.6,3.6a.6.6,0,0,1-.43.182h-8.611a2.128,2.128,0,0,0-2.125,2.125v3.272a2.113,2.113,0,0,0,2.111,2.111l10.488-.038a.606.606,0,0,1,.432.182Zm-2.734-8.63Z" transform="translate(-754 -2887.925)" fill="#6e1f1f"/>
        </g>
        <g id="Grupo_1043346" data-name="Grupo 1043346" transform="translate(622.565 474.981)">
          <path id="Trazado_772517" data-name="Trazado 772517" d="M748.386,2239.536l.009,0,3.53-3.19a1.137,1.137,0,0,1,1.6.08l1.83,2.024a1.136,1.136,0,0,1-.08,1.6l-3.355,3.032a1.124,1.124,0,0,0-.08,1.587l1.981,2.191a1.841,1.841,0,0,1,.113,2.38,1.8,1.8,0,0,1-2.727.078l-1.478-1.636s0,0-.007,0l-9.773-.456a2.515,2.515,0,0,1-2.387-2.642l.153-3.046a2.53,2.53,0,0,1,2.654-2.4Z" transform="translate(-736.97 -2235.46)" fill="#fff"/>
          <path id="Trazado_772518" data-name="Trazado 772518" d="M728.192,2226a2.374,2.374,0,0,1-1.768-.782l-1.318-1.459-9.53-.446a3.108,3.108,0,0,1-2.949-3.261l.154-3.046a3.12,3.12,0,0,1,3.275-2.958l7.778.392,3.353-3.03a1.73,1.73,0,0,1,2.432.121l1.832,2.026a1.732,1.732,0,0,1-.12,2.432l-3.358,3.034a.525.525,0,0,0-.175.368.537.537,0,0,0,.137.385l1.981,2.191a2.507,2.507,0,0,1,.645,1.542,2.328,2.328,0,0,1-.512,1.606,2.383,2.383,0,0,1-1.787.881A.346.346,0,0,1,728.192,2226Zm-2.373-3.2,1.478,1.634a1.2,1.2,0,0,0,.928.392,1.182,1.182,0,0,0,.9-.446,1.256,1.256,0,0,0-.092-1.615l-1.981-2.191a1.715,1.715,0,0,1,.123-2.42l3.355-3.032a.549.549,0,0,0,.038-.77l-1.83-2.024a.544.544,0,0,0-.767-.038l-3.53,3.192a.6.6,0,0,1-.434.154l-8.016-.4a1.942,1.942,0,0,0-2.038,1.839l-.153,3.046a1.929,1.929,0,0,0,1.83,2.023l9.763.458A.6.6,0,0,1,725.819,2222.8Zm-.883.781Zm0-.007s0,0,0,.007S724.934,2223.574,724.932,2223.572Zm-1.277-8.97-.021.019A.079.079,0,0,0,723.654,2214.6Z" transform="translate(-712.623 -2210.97)" fill="#6e1f1f"/>
        </g>
      </g>
    </g>
  </g>
</svg>
