<svg xmlns="http://www.w3.org/2000/svg" xmlns:xlink="http://www.w3.org/1999/xlink" width="451.826" height="262" viewBox="0 0 451.826 262">
  <defs>
    <clipPath id="clip-path">
      <rect id="Rectángulo_355789" data-name="Rectángulo 355789" width="248.495" height="148.839" fill="none"/>
    </clipPath>
    <clipPath id="clip-path-4">
      <rect id="Rectángulo_355779" data-name="Rectángulo 355779" width="12.562" height="3.899" fill="none"/>
    </clipPath>
    <clipPath id="clip-path-5">
      <rect id="Rectángulo_355780" data-name="Rectángulo 355780" width="26.802" height="13.365" fill="none"/>
    </clipPath>
    <clipPath id="clip-path-6">
      <rect id="Rectángulo_355781" data-name="Rectángulo 355781" width="18.874" height="4.568" fill="none"/>
    </clipPath>
    <clipPath id="clip-path-8">
      <rect id="Rectángulo_355783" data-name="Rectángulo 355783" width="19.914" height="16.533" fill="none"/>
    </clipPath>
    <clipPath id="clip-path-9">
      <rect id="Rectángulo_355784" data-name="Rectángulo 355784" width="13.3" height="5.07" fill="none"/>
    </clipPath>
    <clipPath id="clip-path-10">
      <rect id="Rectángulo_355785" data-name="Rectángulo 355785" width="11.314" height="9.317" fill="none"/>
    </clipPath>
  </defs>
  <g id="Grupo_1043981" data-name="Grupo 1043981" transform="translate(-180 -16934)">
    <g id="Grupo_968697" data-name="Grupo 968697" transform="translate(-105 16186.001)">
      <rect id="BG" width="451.826" height="262.001" transform="translate(285 748)" fill="#452d9e"/>
    </g>
    <g id="Grupo_1043412" data-name="Grupo 1043412" transform="translate(-67.43 26.001)">
      <circle id="Elipse_4846" data-name="Elipse 4846" cx="115" cy="115" r="115" transform="translate(350 16924)" fill="#e3dff1"/>
      <g id="Grupo_1043410" data-name="Grupo 1043410" transform="translate(345 16959.58)">
        <g id="Grupo_1043409" data-name="Grupo 1043409" clip-path="url(#clip-path)">
          <g id="Grupo_1043382" data-name="Grupo 1043382">
            <g id="Grupo_1043381" data-name="Grupo 1043381" clip-path="url(#clip-path)">
              <path id="Trazado_772705" data-name="Trazado 772705" d="M441.215,7.516c-.4-3.229-3.132-6.24-6.386-6.242a7.133,7.133,0,0,0-5.062,2.406A13.217,13.217,0,0,0,428.484,5.2a13.18,13.18,0,0,0-.959-1.745A7.134,7.134,0,0,0,423.036.1c-3.191-.639-6.461,1.776-7.49,4.862s-.172,6.553,1.519,9.333a18.3,18.3,0,0,0,9.968,8.216c3.7-.474,8.652-3.754,10.857-6.147s3.726-5.622,3.326-8.851" transform="translate(-262.041 0)" fill="#fabf40"/>
              <path id="Trazado_772706" data-name="Trazado 772706" d="M440.819,25.395a.4.4,0,0,1-.108,0l-.314-.02-1.2-.1-4.426-.405.08-.049L433,29.628l-.111.29-.073-.3-1.854-7.7-.6-2.511.187.037-3.378,4.644-.032.045-.054-.006-7.775-.811-2.2-.246L416.53,23a1,1,0,0,1-.2-.035.964.964,0,0,1,.2,0l.584.044,2.206.192,7.783.735-.087.039,3.362-4.656.134-.185.053.223.6,2.51,1.836,7.7-.184-.013,1.879-4.793.022-.055.058.006,4.419.473,1.2.14.312.042a.4.4,0,0,1,.105.022" transform="translate(-262.817 -12.079)" fill="#fafafa"/>
              <rect id="Rectángulo_355776" data-name="Rectángulo 355776" width="2.435" height="10.91" transform="translate(96.679 27.678)" fill="#e8505b"/>
              <rect id="Rectángulo_355777" data-name="Rectángulo 355777" width="10.91" height="2.435" transform="translate(92.442 31.916)" fill="#e8505b"/>
              <path id="Trazado_772707" data-name="Trazado 772707" d="M258.767,74.235a.835.835,0,0,1-.017-.147l-.031-.431c-.006-.1-.013-.2-.021-.317s-.038-.242-.059-.379a6.6,6.6,0,0,0-.192-.936,8.681,8.681,0,0,0-1.011-2.405A9.016,9.016,0,0,0,246.6,65.777,8.27,8.27,0,0,0,244.327,67a8.236,8.236,0,0,0-1.9,1.912,8.732,8.732,0,0,0-1.286,2.48,8.92,8.92,0,0,0,0,5.679,8.718,8.718,0,0,0,1.286,2.48,8.228,8.228,0,0,0,1.9,1.912,8.267,8.267,0,0,0,2.278,1.227,9.04,9.04,0,0,0,10.831-3.842,8.683,8.683,0,0,0,1.011-2.4,6.663,6.663,0,0,0,.192-.937c.021-.137.046-.263.059-.379s.014-.222.021-.317l.031-.431a.835.835,0,0,1,.017-.147.845.845,0,0,1,0,.147c0,.107-.007.25-.013.433,0,.1-.007.2-.011.32s-.032.244-.051.382a6.429,6.429,0,0,1-.176.947,8.618,8.618,0,0,1-.991,2.442,9.155,9.155,0,0,1-6.162,4.34,9.187,9.187,0,0,1-4.822-.387,8.43,8.43,0,0,1-2.327-1.246,8.4,8.4,0,0,1-1.945-1.948,8.894,8.894,0,0,1-1.316-2.532,9.091,9.091,0,0,1,0-5.8,8.883,8.883,0,0,1,1.316-2.531,8.408,8.408,0,0,1,1.945-1.948,8.434,8.434,0,0,1,2.327-1.245,9.184,9.184,0,0,1,4.821-.387,9.155,9.155,0,0,1,6.162,4.34,8.614,8.614,0,0,1,.991,2.442,6.481,6.481,0,0,1,.176.947c.018.138.041.265.051.382s.008.223.011.32c.005.183.009.326.013.433a.845.845,0,0,1,0,.147" transform="translate(-151.809 -41.076)" fill="#e8505b"/>
            </g>
          </g>
          <g id="Grupo_1043393" data-name="Grupo 1043393">
            <g id="Grupo_1043392" data-name="Grupo 1043392" clip-path="url(#clip-path)">
              <path id="Trazado_772708" data-name="Trazado 772708" d="M486.457,228s10.791-2.572,11.147-3.027l-8.874-22.857a16.722,16.722,0,0,0-10.35-10.088,29.346,29.346,0,0,0-10.481-1.618l-14.982-.795a29.663,29.663,0,0,0-11.819,3.271A23.843,23.843,0,0,0,430,205.119L423.284,221.9l16.945,3.543.644,18.03-2.556,24.879h46.795l-.326-39.434Z" transform="translate(-267.206 -119.699)" fill="#452d9e"/>
              <g id="Grupo_1043385" data-name="Grupo 1043385" transform="translate(215.99 102.288)" opacity="0.3">
                <g id="Grupo_1043384" data-name="Grupo 1043384">
                  <g id="Grupo_1043383" data-name="Grupo 1043383" clip-path="url(#clip-path-4)">
                    <path id="Trazado_772709" data-name="Trazado 772709" d="M598.328,277.408c.016.051-2.784.964-6.252,2.039s-6.294,1.907-6.31,1.856,2.783-.964,6.253-2.039,6.293-1.906,6.309-1.856" transform="translate(-585.766 -277.406)" fill="#fff"/>
                  </g>
                </g>
              </g>
              <path id="Trazado_772710" data-name="Trazado 772710" d="M470.935,220.807a2.365,2.365,0,0,1-.288-.393c-.171-.261-.434-.629-.772-1.072a18.776,18.776,0,0,0-1.271-1.486,18.145,18.145,0,0,0-3.715-3,18.74,18.74,0,0,0-1.721-.928c-.5-.238-.919-.417-1.21-.529a2.387,2.387,0,0,1-.445-.2,2.361,2.361,0,0,1,.47.128,12.253,12.253,0,0,1,1.241.476,16.168,16.168,0,0,1,1.756.9,16.736,16.736,0,0,1,3.752,3.029,16.129,16.129,0,0,1,1.251,1.527,12.375,12.375,0,0,1,.726,1.113,2.394,2.394,0,0,1,.225.433" transform="translate(-291.34 -134.586)" fill="#263238"/>
              <path id="Trazado_772711" data-name="Trazado 772711" d="M476.74,248.626c.053.006-.47,5.51-1.167,12.295s-1.305,12.282-1.358,12.277.47-5.51,1.167-12.3,1.305-12.281,1.358-12.275" transform="translate(-299.355 -156.95)" fill="#263238"/>
              <path id="Trazado_772712" data-name="Trazado 772712" d="M576.5,208.484a10.31,10.31,0,0,1-.241-1.117,19.679,19.679,0,0,0-1.848-5.153,10.335,10.335,0,0,1-.524-1.016c.011-.007.08.079.194.241s.27.4.449.709a15.381,15.381,0,0,1,1.863,5.194c.056.35.091.635.1.833a.953.953,0,0,1,0,.309" transform="translate(-362.277 -127.01)" fill="#263238"/>
              <path id="Trazado_772713" data-name="Trazado 772713" d="M582.451,249.353a3.019,3.019,0,0,1-.091-.541c-.046-.35-.1-.857-.164-1.484-.122-1.255-.25-2.993-.318-4.916s-.062-3.667-.028-4.927c.017-.63.037-1.14.059-1.492a3.052,3.052,0,0,1,.052-.546,2.983,2.983,0,0,1,.022.548c0,.388,0,.889,0,1.492,0,1.259.017,3,.084,4.919s.174,3.656.261,4.912c.042.6.076,1.1.1,1.488a3,3,0,0,1,.016.548" transform="translate(-367.289 -148.63)" fill="#263238"/>
              <path id="Trazado_772714" data-name="Trazado 772714" d="M501.878,264.053a77.05,77.05,0,0,1-11.8-.22v1.533h11.8Z" transform="translate(-309.37 -166.55)" fill="#fff"/>
              <g id="Grupo_1043388" data-name="Grupo 1043388" transform="translate(178.242 71.359)" opacity="0.3">
                <g id="Grupo_1043387" data-name="Grupo 1043387">
                  <g id="Grupo_1043386" data-name="Grupo 1043386" clip-path="url(#clip-path-5)">
                    <path id="Trazado_772715" data-name="Trazado 772715" d="M509.4,194.175a1.467,1.467,0,0,1,.045.233c.025.167.059.393.1.68.075.6.178,1.47.263,2.578.177,2.216.331,5.366.385,9.084l0,.142-.128-.062c-2.353-1.144-4.992-2.391-7.737-3.763l-13.411-6.711-4.053-2.053-1.1-.567-.283-.152a.055.055,0,1,1,.009-.017l.292.135,1.114.535,4.082,2,13.434,6.66c2.745,1.372,5.378,2.622,7.724,3.775l-.125.08c-.039-3.714-.169-6.862-.315-9.078-.07-1.108-.156-1.982-.213-2.58-.032-.288-.057-.515-.076-.683a1.487,1.487,0,0,1-.017-.237" transform="translate(-483.392 -193.527)" fill="#fff"/>
                  </g>
                </g>
              </g>
              <g id="Grupo_1043391" data-name="Grupo 1043391" transform="translate(157.199 99.295)" opacity="0.3">
                <g id="Grupo_1043390" data-name="Grupo 1043390">
                  <g id="Grupo_1043389" data-name="Grupo 1043389" clip-path="url(#clip-path-6)">
                    <path id="Trazado_772716" data-name="Trazado 772716" d="M445.2,273.857a.769.769,0,0,1-.2-.034l-.551-.132-2.017-.513c-1.7-.436-4.055-1.032-6.66-1.663s-4.972-1.174-6.685-1.565l-2.028-.466-.55-.134a.761.761,0,0,1-.189-.06.779.779,0,0,1,.2.022l.558.1c.483.089,1.181.228,2.042.406,1.721.357,4.093.88,6.7,1.51s4.955,1.249,6.649,1.718c.847.234,1.531.43,2,.572l.541.167a.773.773,0,0,1,.185.071" transform="translate(-426.326 -269.29)" fill="#fff"/>
                  </g>
                </g>
              </g>
              <path id="Trazado_772717" data-name="Trazado 772717" d="M548.328,187.712a4.966,4.966,0,0,1,1.992,1.925,18.047,18.047,0,0,1,2.372,6.258,25.672,25.672,0,0,1,.43,3.669c.008.568.025,1.108.007,1.612s-.033.975-.078,1.4-.087.807-.124,1.15-.1.625-.146.861a2.776,2.776,0,0,1-.174.724,2.824,2.824,0,0,1,.026-.744q.035-.369.08-.863c.02-.342.042-.725.066-1.145s.017-.889.031-1.388-.025-1.031-.042-1.591a28.837,28.837,0,0,0-.454-3.612,19.774,19.774,0,0,0-2.223-6.185,8.681,8.681,0,0,0-1.229-1.564c-.334-.334-.551-.483-.535-.508" transform="translate(-346.142 -118.494)" fill="#263238"/>
              <path id="Trazado_772718" data-name="Trazado 772718" d="M494.274,188a8.244,8.244,0,0,1-.779,1.122,15.559,15.559,0,0,0-1.736,3.242,22.176,22.176,0,0,0-1.289,5.3c-.268,2.046-.383,4.331-.534,6.722-.124,2.387-.13,4.672-.133,6.75s0,3.949,0,5.527-.04,2.849-.087,3.729a6.028,6.028,0,0,1-.135,1.365,6.519,6.519,0,0,1-.089-1.368c-.023-.9-.056-2.163-.1-3.723s-.093-3.445-.121-5.528-.036-4.375.089-6.785c.151-2.4.281-4.687.583-6.764a21.079,21.079,0,0,1,1.438-5.382,13.524,13.524,0,0,1,1.933-3.221,5.08,5.08,0,0,1,.958-.987" transform="translate(-308.852 -118.679)" fill="#263238"/>
              <path id="Trazado_772719" data-name="Trazado 772719" d="M553.909,248.25a7.42,7.42,0,0,1-.073-1.218c-.022-.784-.041-1.919-.056-3.321-.006-.7-.013-1.47-.02-2.293s.015-1.712-.05-2.617a4.314,4.314,0,0,0-.941-2.576,3.544,3.544,0,0,0-2.6-1.229,4.065,4.065,0,0,0-2.716,1.054,4.669,4.669,0,0,0-1.373,2.393c-.228.877-.325,1.759-.461,2.572s-.249,1.571-.359,2.265c-.222,1.385-.409,2.5-.547,3.276a7.428,7.428,0,0,1-.252,1.194,7.468,7.468,0,0,1,.1-1.216c.092-.779.238-1.9.426-3.294.1-.7.2-1.456.312-2.272s.206-1.692.434-2.614a4.993,4.993,0,0,1,1.465-2.584,4.415,4.415,0,0,1,2.974-1.157,3.9,3.9,0,0,1,2.878,1.367,4.638,4.638,0,0,1,1.009,2.794c.057.945.014,1.82.015,2.645s-.019,1.59-.027,2.293c-.02,1.4-.042,2.537-.067,3.321a7.419,7.419,0,0,1-.077,1.218" transform="translate(-343.697 -148.103)" fill="#263238"/>
              <path id="Trazado_772720" data-name="Trazado 772720" d="M558,225.876a6.248,6.248,0,0,1-1.43,3.677,5.175,5.175,0,0,1,2.38.046,8.18,8.18,0,0,1-.633-3.723" transform="translate(-351.344 -142.589)" fill="#263238"/>
              <path id="Trazado_772721" data-name="Trazado 772721" d="M556.583,241.707a11.708,11.708,0,0,0-.585-1.463,4.541,4.541,0,0,0-1.071-1.282,3.971,3.971,0,0,0-1.815-.864,3.891,3.891,0,0,0-2,.2,4.376,4.376,0,0,0-1.428.863,10.862,10.862,0,0,0-1.014,1.2,2.647,2.647,0,0,1,.826-1.4,4.281,4.281,0,0,1,1.489-1,4.047,4.047,0,0,1,2.191-.248,4.118,4.118,0,0,1,1.977.973,4.392,4.392,0,0,1,1.083,1.426,2.684,2.684,0,0,1,.344,1.588" transform="translate(-346.358 -150.031)" fill="#263238"/>
              <path id="Trazado_772722" data-name="Trazado 772722" d="M588.084,315.478a6.251,6.251,0,0,0,5.192-3.519,14.912,14.912,0,0,0,1.4-6.381,51.834,51.834,0,0,0-2.111-17.221l-9.624,1.681,2.621,25.917Z" transform="translate(-367.992 -182.031)" fill="#ffbe9d"/>
              <path id="Trazado_772723" data-name="Trazado 772723" d="M491.331,305.849l31.333-1.142,7.6-36.717-33,1.834Z" transform="translate(-310.162 -169.174)" fill="#263238"/>
              <path id="Trazado_772724" data-name="Trazado 772724" d="M535.073,266.224l.472-.936,2.5-.184s.635-1.64,4.208-1.808c3.2-.15,3.334,1.461,3.334,1.461h1.727v.786Z" transform="translate(-337.775 -166.205)" fill="#455a64"/>
              <path id="Trazado_772725" data-name="Trazado 772725" d="M566.577,337.19l2.375-.692a2.9,2.9,0,0,1,2.849.718,19.7,19.7,0,0,1,2.234,2.435,2.306,2.306,0,0,1,0,1.879c-.266.355.583,2.184.477,2.793a3.747,3.747,0,0,1-.477,1.473c-.213.254,0,1.123-.531,1.78a8.691,8.691,0,0,1-1.008,1.064s-6.524.3-7.16,0a9.414,9.414,0,0,1-1.75-1.473S563,346.1,563.9,346l-3.714-1.422a.882.882,0,0,1-.539-1.113.614.614,0,0,1,.327-.36s-1.667-.527-2.052-.7c-.771-.34-1.062-2.133.533-1.9.843.121,1.98.367,1.98.367a1.179,1.179,0,0,1,.242-1.58c.516-.358,2.84.079,2.84.079Z" transform="translate(-351.809 -212.347)" fill="#ffbe9d"/>
              <path id="Trazado_772726" data-name="Trazado 772726" d="M578.345,363.256a5.491,5.491,0,0,1-1.929-.288,4.773,4.773,0,0,1-1.778-.8c.026-.046.8.336,1.83.618s1.882.417,1.876.473" transform="translate(-362.751 -228.622)" fill="#eb996e"/>
              <path id="Trazado_772727" data-name="Trazado 772727" d="M570.557,356.206a50.192,50.192,0,0,1-6.009-1.534,50.168,50.168,0,0,1,6.009,1.534" transform="translate(-356.382 -223.89)" fill="#eb996e"/>
              <path id="Trazado_772728" data-name="Trazado 772728" d="M571.852,349.978a57.527,57.527,0,0,1-6.476-1.515,57.723,57.723,0,0,1,6.476,1.515" transform="translate(-356.904 -219.97)" fill="#eb996e"/>
              <path id="Trazado_772729" data-name="Trazado 772729" d="M579.459,344.51a4,4,0,0,1-.838.267l-.92.237-.547.135a2.008,2.008,0,0,1-.627.06,3.4,3.4,0,0,1-.611-.1l-.548-.125-.925-.222a4.025,4.025,0,0,1-.843-.253,4.02,4.02,0,0,1,.872.12l.935.183a10.973,10.973,0,0,0,1.13.205,4.17,4.17,0,0,0,1.117-.174l.933-.2a4.019,4.019,0,0,1,.87-.135" transform="translate(-362.097 -217.474)" fill="#eb996e"/>
              <path id="Trazado_772730" data-name="Trazado 772730" d="M589.737,347.908c.02-.013.108.067.18.242a1.1,1.1,0,0,1-.411,1.313c-.159.1-.277.118-.286.1-.029-.045.387-.25.539-.737a2.112,2.112,0,0,0-.022-.913" transform="translate(-371.955 -219.623)" fill="#eb996e"/>
              <path id="Trazado_772731" data-name="Trazado 772731" d="M590.117,354.745c.046-.021.194.241.173.6s-.195.6-.238.576.031-.274.047-.587-.033-.569.019-.588" transform="translate(-372.472 -223.939)" fill="#eb996e"/>
              <path id="Trazado_772732" data-name="Trazado 772732" d="M590.092,362.17c.049-.018.147.159.1.391s-.205.358-.243.322.02-.18.054-.36.036-.337.088-.353" transform="translate(-372.408 -228.626)" fill="#eb996e"/>
              <path id="Trazado_772733" data-name="Trazado 772733" d="M585.505,343.487a2.072,2.072,0,0,1-.627-.032l-.671-.087a2.547,2.547,0,0,0-.8-.039,1.952,1.952,0,0,0-.709.319c-.2.138-.383.29-.554.391a1.051,1.051,0,0,1-.6.206c-.011-.032.223-.1.525-.319a3.219,3.219,0,0,1,1.314-.788,2.231,2.231,0,0,1,.448-.01c.15.015.273.044.4.065l.667.128a2.048,2.048,0,0,1,.6.166" transform="translate(-367.111 -216.602)" fill="#eb996e"/>
              <path id="Trazado_772734" data-name="Trazado 772734" d="M594.121,345.836a3.275,3.275,0,0,1,.166-.469,3.608,3.608,0,0,0,.262-1.3,3.727,3.727,0,0,0-.139-.905c-.076-.324-.225-.646-.308-1.035a3.317,3.317,0,0,1,.08-1.205,2.125,2.125,0,0,0-.213-1.186,5.651,5.651,0,0,0-.679-1.051c-.254-.321-.5-.632-.75-.914A4.372,4.372,0,0,0,591,336.563a2.5,2.5,0,0,0-1.3-.2c-.313.041-.473.126-.48.108s.035-.029.112-.067a1.59,1.59,0,0,1,.356-.114,2.43,2.43,0,0,1,1.36.144,4.357,4.357,0,0,1,1.624,1.215c.257.284.507.593.766.916a5.659,5.659,0,0,1,.705,1.086,2.292,2.292,0,0,1,.225,1.29,3.249,3.249,0,0,0-.093,1.148c.07.355.216.7.289,1.029a3.718,3.718,0,0,1,.121.945,3.367,3.367,0,0,1-.329,1.329,2,2,0,0,1-.236.44" transform="translate(-371.957 -212.266)" fill="#eb996e"/>
              <path id="Trazado_772735" data-name="Trazado 772735" d="M472.914,292.263l-25.727,4.087,1.143-13.428-14.307-2.764-1.74,19.88-.3,4.556a8.895,8.895,0,0,0,11.632,9.044l5.528-1.8,26.962-9.592" transform="translate(-272.684 -176.855)" fill="#ffbe9d"/>
              <path id="Trazado_772736" data-name="Trazado 772736" d="M558.591,304.006a.73.73,0,0,0-.734-.859,37.98,37.98,0,0,0-6.749.408c-1.711.486-8.084,3.22-8.084,3.22l2.7,9.976,9.783.1s3.574-1.643,3.618-2.353a12.163,12.163,0,0,0-.089-1.332l1.078-.578c1.607-1.02.577-2.977.577-2.977a2.379,2.379,0,0,0,1.164-1.741,1.748,1.748,0,0,0-.863-1.65s.444-1.578-.38-2a3.352,3.352,0,0,0-2.218.121.59.59,0,0,0,.194-.338" transform="translate(-342.794 -191.367)" fill="#ffbe9d"/>
              <path id="Trazado_772737" data-name="Trazado 772737" d="M573.286,305.915a1.02,1.02,0,0,1-.3.105c-.2.055-.486.12-.845.181-.719.128-1.719.236-2.82.354a23.194,23.194,0,0,0-2.794.426c-.7.165-1.1.383-1.114.354-.007-.012.088-.072.268-.174a4.912,4.912,0,0,1,.81-.312,17,17,0,0,1,2.808-.486c1.1-.119,2.1-.2,2.821-.3s1.158-.181,1.166-.152" transform="translate(-356.927 -193.111)" fill="#eb996e"/>
              <path id="Trazado_772738" data-name="Trazado 772738" d="M583.089,311.332a2.327,2.327,0,0,1-.686.352,11.072,11.072,0,0,1-1.784.519c-.71.149-1.358.244-1.827.3a3.121,3.121,0,0,1-.766.06,23.136,23.136,0,0,1,2.553-.553c.7-.148,1.33-.315,1.778-.459a4.521,4.521,0,0,1,.732-.224" transform="translate(-364.89 -196.532)" fill="#eb996e"/>
              <path id="Trazado_772739" data-name="Trazado 772739" d="M583.651,320.729a10.585,10.585,0,0,1-4.293.973c-.005-.056.973-.178,2.155-.448s2.118-.577,2.138-.524" transform="translate(-365.731 -202.463)" fill="#eb996e"/>
              <path id="Trazado_772740" data-name="Trazado 772740" d="M583.713,328.752a7.418,7.418,0,0,1-3.309.8,16.169,16.169,0,0,1,1.656-.393,15.965,15.965,0,0,1,1.653-.405" transform="translate(-366.391 -207.526)" fill="#eb996e"/>
              <path id="Trazado_772741" data-name="Trazado 772741" d="M572.97,322.174c.008.022-.1.088-.3.106a1.129,1.129,0,0,1-1.177-.836c-.048-.193-.021-.316,0-.317.052-.013.106.478.547.791a2,2,0,0,0,.927.255" transform="translate(-360.75 -202.718)" fill="#eb996e"/>
              <path id="Trazado_772742" data-name="Trazado 772742" d="M573.2,330.788c.008.052-.383.076-.717-.225s-.358-.688-.306-.686.149.3.434.543.594.313.589.368" transform="translate(-361.184 -208.241)" fill="#eb996e"/>
              <path id="Trazado_772743" data-name="Trazado 772743" d="M570.684,314.43c.021.051-.25.136-.5-.053s-.243-.472-.188-.466.12.18.3.313.375.153.384.207" transform="translate(-359.801 -198.162)" fill="#eb996e"/>
              <path id="Trazado_772744" data-name="Trazado 772744" d="M543.024,306.62a.352.352,0,0,1,.077-.042l.233-.108.907-.4c.793-.345,1.951-.842,3.412-1.441.731-.3,1.537-.625,2.419-.952a9.255,9.255,0,0,1,1.4-.436,15.048,15.048,0,0,1,1.555-.192c1.07-.083,2.2-.12,3.385-.138l.9-.008h.455a.939.939,0,0,1,.487.1.787.787,0,0,1,.419.889.289.289,0,0,1-.113.128,1.113,1.113,0,0,1-.11.068c-.073.04-.148.073-.222.1a3.51,3.51,0,0,1-.464.161.093.093,0,0,1-.114-.066.094.094,0,0,1,.065-.114,10.033,10.033,0,0,1,1.22-.272,4.453,4.453,0,0,1,1.29-.045,1.166,1.166,0,0,1,.632.274,1.147,1.147,0,0,1,.313.621,3.217,3.217,0,0,1-.083,1.346l-.049-.112a1.785,1.785,0,0,1,.542.477,1.917,1.917,0,0,1,.281,1.745,2.578,2.578,0,0,1-1.121,1.337l.037-.127a3.072,3.072,0,0,1,.31,1.7,1.962,1.962,0,0,1-.922,1.4l-.006,0-1.079.577.047-.09c.028.259.052.514.071.768.009.128.016.255.018.383,0,.064,0,.129,0,.2a.5.5,0,0,1-.08.214,2.319,2.319,0,0,1-.556.53c-.2.146-.4.278-.609.4a25.716,25.716,0,0,1-2.428,1.272.075.075,0,0,1-.033.007l-7.12-.109-1.97-.042-.516-.017a.96.96,0,0,1-.176-.014.986.986,0,0,1,.177-.01l.516-.006h1.97l7.12.042-.033.007a25.977,25.977,0,0,0,2.4-1.275c.2-.125.4-.256.6-.4a2.187,2.187,0,0,0,.51-.483.336.336,0,0,0,.053-.132c0-.059,0-.119,0-.181,0-.123-.01-.248-.02-.374-.019-.251-.044-.506-.073-.761a.091.091,0,0,1,.047-.09l1.077-.58-.005,0a1.774,1.774,0,0,0,.835-1.266,2.9,2.9,0,0,0-.293-1.589.1.1,0,0,1,.038-.127,2.4,2.4,0,0,0,1.032-1.23,1.728,1.728,0,0,0-.252-1.569,1.616,1.616,0,0,0-.475-.422.1.1,0,0,1-.049-.112,3.048,3.048,0,0,0,.08-1.257.96.96,0,0,0-.257-.52.984.984,0,0,0-.53-.224,4.285,4.285,0,0,0-1.232.044,9.834,9.834,0,0,0-1.195.264l-.048-.18a3.4,3.4,0,0,0,.435-.15c.071-.03.141-.061.206-.1s.127-.1.153-.09a.752.752,0,0,0-.062-.387.661.661,0,0,0-.283-.285.751.751,0,0,0-.4-.081h-.455l-.9,0c-1.181.013-2.311.045-3.375.122a15.029,15.029,0,0,0-1.538.181,9.183,9.183,0,0,0-1.385.42c-.881.32-1.69.639-2.423.929l-3.431,1.39-.919.373-.239.093a.367.367,0,0,1-.083.027" transform="translate(-342.794 -191.212)" fill="#eb996e"/>
              <path id="Trazado_772745" data-name="Trazado 772745" d="M468.1,324a7.628,7.628,0,0,0-3.169,3.808,2.078,2.078,0,0,1,.192-.727,5.752,5.752,0,0,1,2.3-2.76A2.063,2.063,0,0,1,468.1,324" transform="translate(-293.494 -204.529)" fill="#eb996e"/>
              <path id="Trazado_772746" data-name="Trazado 772746" d="M523.515,87.756a13,13,0,0,0-12.93-11.977h-.673c-7.257.409-10.964,6.8-10.355,14.044l1.252,29.038a1.31,1.31,0,0,0,.753,1.13l16.287,7.644-.5-15.24s6.978-1.07,7.079-8.045c.048-3.368-.416-10.312-.91-16.593" transform="translate(-315.314 -47.836)" fill="#ffbe9d"/>
              <path id="Trazado_772747" data-name="Trazado 772747" d="M532.431,170.443a16.918,16.918,0,0,1-9.133-2.694s2.139,5.024,9.1,4.41Z" transform="translate(-330.342 -105.895)" fill="#eb996e"/>
              <path id="Trazado_772748" data-name="Trazado 772748" d="M554.532,118.465a1,1,0,0,1-.962,1,.953.953,0,0,1-1.025-.9,1,1,0,0,1,.961-1,.953.953,0,0,1,1.026.9" transform="translate(-348.804 -74.214)" fill="#263238"/>
              <path id="Trazado_772749" data-name="Trazado 772749" d="M553.818,115.711c-.124.129-.877-.43-1.949-.43-1.07-.015-1.858.535-1.974.4-.057-.058.069-.292.412-.541a2.732,2.732,0,0,1,1.581-.483,2.623,2.623,0,0,1,1.551.5c.329.254.44.489.379.547" transform="translate(-347.123 -72.381)" fill="#263238"/>
              <path id="Trazado_772750" data-name="Trazado 772750" d="M525.958,119.348a1,1,0,0,1-.962,1,.953.953,0,0,1-1.025-.9,1,1,0,0,1,.962-1,.954.954,0,0,1,1.026.9" transform="translate(-330.766 -74.771)" fill="#263238"/>
              <path id="Trazado_772751" data-name="Trazado 772751" d="M525.244,116.194c-.124.13-.878-.43-1.949-.43-1.07-.015-1.858.535-1.974.4-.057-.058.068-.292.412-.541a2.733,2.733,0,0,1,1.581-.484,2.627,2.627,0,0,1,1.551.5c.328.254.44.489.379.547" transform="translate(-329.085 -72.686)" fill="#263238"/>
              <path id="Trazado_772752" data-name="Trazado 772752" d="M541.661,124.28a7.093,7.093,0,0,1,1.742-.31c.274-.028.533-.081.579-.268a1.394,1.394,0,0,0-.181-.812L543,120.8a35.822,35.822,0,0,1-1.807-5.455,35.884,35.884,0,0,1,2.242,5.3q.4,1.1.771,2.1a1.585,1.585,0,0,1,.14,1.074.686.686,0,0,1-.451.4,1.841,1.841,0,0,1-.465.064,6.991,6.991,0,0,1-1.764,0" transform="translate(-341.628 -72.816)" fill="#263238"/>
              <path id="Trazado_772753" data-name="Trazado 772753" d="M533.63,141.565c.174-.01.174,1.154,1.168,1.982s2.233.7,2.241.865c.016.073-.276.225-.8.239a2.9,2.9,0,0,1-1.871-.656,2.524,2.524,0,0,1-.9-1.661c-.043-.487.087-.775.167-.768" transform="translate(-336.754 -89.365)" fill="#263238"/>
              <path id="Trazado_772754" data-name="Trazado 772754" d="M524.383,105.221c-.106.291-1.176.151-2.434.3-1.261.124-2.275.49-2.442.228-.074-.125.1-.4.514-.68a4.263,4.263,0,0,1,3.715-.4c.461.187.693.416.647.555" transform="translate(-327.938 -65.913)" fill="#263238"/>
              <path id="Trazado_772755" data-name="Trazado 772755" d="M553.259,107.187c-.189.243-.927-.011-1.815-.025-.887-.045-1.64.16-1.812-.1-.076-.124.043-.367.372-.6a2.627,2.627,0,0,1,2.923.1c.313.251.416.5.332.62" transform="translate(-346.952 -66.961)" fill="#263238"/>
              <path id="Trazado_772756" data-name="Trazado 772756" d="M494.538,127.493c-.119-.052-4.79-1.427-4.647,3.341s4.9,3.642,4.9,3.5-.258-6.846-.258-6.846" transform="translate(-309.251 -80.342)" fill="#ffbe9d"/>
              <path id="Trazado_772757" data-name="Trazado 772757" d="M496.5,135.246c-.021-.015-.081.06-.22.129a.828.828,0,0,1-.62.031,2.056,2.056,0,0,1-1.006-1.816,2.746,2.746,0,0,1,.2-1.2.961.961,0,0,1,.606-.656.423.423,0,0,1,.5.213c.068.131.041.227.066.235s.1-.083.056-.279a.529.529,0,0,0-.2-.293.625.625,0,0,0-.463-.108,1.167,1.167,0,0,0-.845.765,2.822,2.822,0,0,0-.249,1.338,2.157,2.157,0,0,0,1.274,2.023.889.889,0,0,0,.756-.149c.144-.122.166-.23.149-.238" transform="translate(-312.047 -83.012)" fill="#eb996e"/>
              <path id="Trazado_772758" data-name="Trazado 772758" d="M500.459,78.848l19.885.438a9.1,9.1,0,0,0-2.921-3.379,15.539,15.539,0,0,0-9-3.24c-3.243-.057-9.845,3.893-12.194,6.129a5.088,5.088,0,0,0-1.868,3.338c-.3,2.578,1.145,5.509,1.718,8.04.3,1.306.867,5.256.867,5.256h0c1.1,0,1.5-.876,1.336-1.959l-.205-4.25a6.417,6.417,0,0,0,1.961-7.495c-.284-.386-.888-2.157.424-2.878" transform="translate(-312.047 -45.872)" fill="#263238"/>
              <path id="Trazado_772759" data-name="Trazado 772759" d="M522.054,129.894a.13.13,0,1,1,.091-.15.125.125,0,0,1-.091.15" transform="translate(-329.466 -81.837)" fill="#eb996e"/>
              <path id="Trazado_772760" data-name="Trazado 772760" d="M527.6,128.582a.152.152,0,1,1,.087-.168.136.136,0,0,1-.087.168" transform="translate(-332.966 -80.985)" fill="#eb996e"/>
              <path id="Trazado_772761" data-name="Trazado 772761" d="M531.351,128.341c-.065.008-.128-.072-.141-.177s.029-.2.093-.206.128.071.141.177-.029.2-.094.206" transform="translate(-335.335 -80.776)" fill="#eb996e"/>
              <path id="Trazado_772762" data-name="Trazado 772762" d="M524.821,133.564c-.065,0-.118-.034-.118-.076s.053-.075.118-.075.118.034.118.076-.053.075-.118.075" transform="translate(-331.229 -84.22)" fill="#eb996e"/>
              <path id="Trazado_772763" data-name="Trazado 772763" d="M529.9,132.194a.135.135,0,1,1,.107-.144.127.127,0,0,1-.107.144" transform="translate(-334.426 -83.281)" fill="#eb996e"/>
              <path id="Trazado_772764" data-name="Trazado 772764" d="M556.384,129.09a.134.134,0,1,1,.09-.154.127.127,0,0,1-.09.154" transform="translate(-351.137 -81.324)" fill="#eb996e"/>
              <path id="Trazado_772765" data-name="Trazado 772765" d="M560.191,128.7a.153.153,0,1,1,.1-.16.136.136,0,0,1-.1.16" transform="translate(-353.547 -81.054)" fill="#eb996e"/>
              <path id="Trazado_772766" data-name="Trazado 772766" d="M553.053,129.276a.1.1,0,1,1,.1-.125.112.112,0,0,1-.1.125" transform="translate(-349.038 -81.478)" fill="#eb996e"/>
              <path id="Trazado_772767" data-name="Trazado 772767" d="M555.786,132.976a.138.138,0,1,1,.053-.173.128.128,0,0,1-.053.173" transform="translate(-350.739 -83.78)" fill="#eb996e"/>
              <path id="Trazado_772768" data-name="Trazado 772768" d="M559.167,132.444a.1.1,0,1,1,.14-.065.11.11,0,0,1-.14.065" transform="translate(-352.928 -83.484)" fill="#eb996e"/>
              <path id="Trazado_772769" data-name="Trazado 772769" d="M498.8,73.3A5.88,5.88,0,0,1,504.673,66a18.684,18.684,0,0,0,2.775.2c1.72-.188,3.047-1.567,4.643-2.237a6.06,6.06,0,0,1,7.15,2.145c.605.9,1,2.019,1.929,2.588a11.042,11.042,0,0,0,2.711.722,4.426,4.426,0,0,1,2.973,4.38,5.214,5.214,0,0,1-3.175,4.382,6.368,6.368,0,0,1-5.5-.388c-1.5-.835-2.844-2.259-4.56-2.209-1.778.052-3.331,1.729-5.075,1.381a4.928,4.928,0,0,1-2.288-1.535,3.986,3.986,0,0,0-2.371-1.365c-.931-.055-1.416,1.224-1.083,2.095Z" transform="translate(-314.752 -40.107)" fill="#263238"/>
              <path id="Trazado_772770" data-name="Trazado 772770" d="M526.734,78.937s-.008.025-.032.07a1.861,1.861,0,0,1-.115.192,3.249,3.249,0,0,1-.57.647,3.532,3.532,0,0,1-1.183.685,3.375,3.375,0,0,1-1.8.108,3.568,3.568,0,0,1-1.9-1.083,23.507,23.507,0,0,1-1.371-2.1,2.582,2.582,0,0,0-2.282-1.161,3,3,0,0,0-1.353.365,2.532,2.532,0,0,0-1,1.026c-.24.437-.412.916-.7,1.341a1.649,1.649,0,0,1-1.273.775,2.473,2.473,0,0,1-1.388-.4,5.217,5.217,0,0,1-1.056-.874,4.424,4.424,0,0,0-1.972-1.4,2.5,2.5,0,0,0-2,.469,3.437,3.437,0,0,0-1.1,1.359,5.648,5.648,0,0,0-.41,1.278c-.074.363-.108.65-.132.844a1.953,1.953,0,0,1-.042.3.227.227,0,0,1,0-.076c0-.051,0-.125.008-.223a7.475,7.475,0,0,1,.1-.855,5.5,5.5,0,0,1,.386-1.309,3.519,3.519,0,0,1,1.115-1.424,2.634,2.634,0,0,1,2.112-.514,4.538,4.538,0,0,1,2.061,1.434,5.076,5.076,0,0,0,1.025.842,2.3,2.3,0,0,0,1.282.371,1.459,1.459,0,0,0,1.128-.7c.27-.4.442-.871.69-1.326a2.725,2.725,0,0,1,1.073-1.1,3.182,3.182,0,0,1,1.442-.386,2.757,2.757,0,0,1,2.429,1.245,24.811,24.811,0,0,0,1.347,2.094,3.444,3.444,0,0,0,1.813,1.056,3.291,3.291,0,0,0,1.742-.077,3.55,3.55,0,0,0,1.168-.64,4.52,4.52,0,0,0,.766-.853" transform="translate(-318.823 -48.047)" fill="#455a64"/>
              <path id="Trazado_772771" data-name="Trazado 772771" d="M561.273,83.967a1.083,1.083,0,0,1,.081.383,3.054,3.054,0,0,1-.1,1.065,3.7,3.7,0,0,1-.746,1.4,4.345,4.345,0,0,1-1.572,1.145,6.45,6.45,0,0,1-3.469.392,9.218,9.218,0,0,1-1.042-.208,1.418,1.418,0,0,1-.37-.123c.007-.032.545.1,1.428.2a6.735,6.735,0,0,0,3.375-.433,4.319,4.319,0,0,0,1.515-1.084,3.737,3.737,0,0,0,.749-1.326,4.224,4.224,0,0,0,.15-1.411" transform="translate(-349.758 -53.006)" fill="#455a64"/>
              <path id="Trazado_772772" data-name="Trazado 772772" d="M481.6,281.558a3.986,3.986,0,0,0,.835,2.066,2.72,2.72,0,0,0,1.992,1.057,3.035,3.035,0,0,0,2.68-1.344,7.633,7.633,0,0,0,.378-5.828,3.366,3.366,0,0,0-2.756-2.236,3.047,3.047,0,0,0-2.986,2.32" transform="translate(-304.018 -173.77)" fill="#e0e0e0"/>
              <path id="Trazado_772773" data-name="Trazado 772773" d="M481.733,277.467a2.486,2.486,0,0,1,.3-.8,3.27,3.27,0,0,1,.609-.8,2.835,2.835,0,0,1,1.148-.674,2.9,2.9,0,0,1,.771-.123,2.342,2.342,0,0,1,.844.111,3.323,3.323,0,0,1,1.506,1.08,4.347,4.347,0,0,1,.886,1.844,7.947,7.947,0,0,1,.164,2.185,6.04,6.04,0,0,1-.941,3.182,2.85,2.85,0,0,1-1.224.923,3.329,3.329,0,0,1-1.386.233h.011a2.086,2.086,0,0,1-.993-.246,3.268,3.268,0,0,1-.747-.521,3.712,3.712,0,0,1-.813-1.212,3.557,3.557,0,0,1-.258-.9,2.307,2.307,0,0,1-.023-.243.227.227,0,0,1,0-.084,4.954,4.954,0,0,0,.36,1.186,3.743,3.743,0,0,0,.817,1.155,3.193,3.193,0,0,0,.725.486,1.954,1.954,0,0,0,.921.218h.011a2.949,2.949,0,0,0,2.451-1.11,5.925,5.925,0,0,0,.895-3.082,5.6,5.6,0,0,0-1-3.907,3.181,3.181,0,0,0-1.419-1.04,2.189,2.189,0,0,0-.791-.114,2.765,2.765,0,0,0-1.85.728,3.346,3.346,0,0,0-.617.756,6.881,6.881,0,0,0-.365.758" transform="translate(-304.011 -173.645)" fill="#263238"/>
              <path id="Trazado_772774" data-name="Trazado 772774" d="M479.257,281.755a3.988,3.988,0,0,0,.835,2.066,2.719,2.719,0,0,0,1.992,1.057,3.035,3.035,0,0,0,2.68-1.344,7.633,7.633,0,0,0,.378-5.829,3.366,3.366,0,0,0-2.756-2.236,3.047,3.047,0,0,0-2.986,2.32" transform="translate(-302.54 -173.894)" fill="#e0e0e0"/>
              <path id="Trazado_772775" data-name="Trazado 772775" d="M479.392,277.665a2.485,2.485,0,0,1,.3-.8,3.263,3.263,0,0,1,.609-.8,2.83,2.83,0,0,1,1.148-.674,2.883,2.883,0,0,1,.771-.124,2.342,2.342,0,0,1,.844.111,3.323,3.323,0,0,1,1.506,1.08,4.347,4.347,0,0,1,.886,1.844,7.946,7.946,0,0,1,.164,2.185,6.038,6.038,0,0,1-.941,3.182,2.847,2.847,0,0,1-1.224.923,3.329,3.329,0,0,1-1.386.233h.011a2.086,2.086,0,0,1-.993-.246,3.272,3.272,0,0,1-.747-.521,3.711,3.711,0,0,1-.813-1.212,3.558,3.558,0,0,1-.258-.9,2.313,2.313,0,0,1-.023-.243.227.227,0,0,1,0-.084,4.958,4.958,0,0,0,.36,1.186,3.744,3.744,0,0,0,.817,1.155,3.194,3.194,0,0,0,.725.486,1.954,1.954,0,0,0,.921.218h.011a2.949,2.949,0,0,0,2.451-1.11,5.926,5.926,0,0,0,.895-3.082,5.6,5.6,0,0,0-1-3.907,3.182,3.182,0,0,0-1.419-1.04,2.188,2.188,0,0,0-.791-.114,2.766,2.766,0,0,0-1.85.728,3.344,3.344,0,0,0-.617.756,6.89,6.89,0,0,0-.365.758" transform="translate(-302.533 -173.77)" fill="#263238"/>
              <path id="Trazado_772776" data-name="Trazado 772776" d="M479.721,280.59a1.9,1.9,0,0,0-1.98,1.141,3.274,3.274,0,0,0,0,2.406,2.981,2.981,0,0,0,.614,1.084,1.621,1.621,0,0,0,1.1.535,1.915,1.915,0,0,0,1.522-.9,3.432,3.432,0,0,0,.52-2.829c-.168-.639-.639-1.295-1.3-1.312" transform="translate(-301.439 -177.111)" fill="#e0e0e0"/>
              <path id="Trazado_772777" data-name="Trazado 772777" d="M480.06,280.669a.373.373,0,0,1,.147,0,1.028,1.028,0,0,1,.4.136,1.962,1.962,0,0,1,.843,1.269,3.484,3.484,0,0,1-.228,2.257,2.939,2.939,0,0,1-.827,1.085,1.6,1.6,0,0,1-1.423.341,1.982,1.982,0,0,1-1.137-.929,4.151,4.151,0,0,1-.473-1.274,2.836,2.836,0,0,1,.368-2.227,1.98,1.98,0,0,1,1.286-.818,1.4,1.4,0,0,1,.421,0,.417.417,0,0,1,.141.039,2.786,2.786,0,0,0-.548.035,1.956,1.956,0,0,0-1.189.823,2.73,2.73,0,0,0-.306,2.113,4.044,4.044,0,0,0,.461,1.212,1.808,1.808,0,0,0,1.027.841,1.413,1.413,0,0,0,1.256-.3,2.794,2.794,0,0,0,.782-1.011,3.408,3.408,0,0,0,.256-2.152,1.942,1.942,0,0,0-.75-1.236,1.561,1.561,0,0,0-.507-.2" transform="translate(-301.297 -177.063)" fill="#263238"/>
              <path id="Trazado_772778" data-name="Trazado 772778" d="M485.23,295.477c-.029.007-.07-.116-.2-.264a1.369,1.369,0,0,0-.629-.4,3.454,3.454,0,0,0-.774-.12c-.206-.015-.336-.032-.337-.059s.126-.057.336-.077a2.18,2.18,0,0,1,.833.073,1.226,1.226,0,0,1,.682.508c.115.195.108.34.086.343" transform="translate(-305.088 -185.935)" fill="#263238"/>
              <path id="Trazado_772779" data-name="Trazado 772779" d="M485.631,279.27c.017.016-.057.132-.229.267a1.835,1.835,0,0,1-1.624.293c-.208-.067-.318-.149-.308-.171a2.77,2.77,0,0,0,2.16-.39" transform="translate(-305.2 -176.292)" fill="#263238"/>
            </g>
          </g>
          <g id="Grupo_1043404" data-name="Grupo 1043404">
            <g id="Grupo_1043403" data-name="Grupo 1043403" clip-path="url(#clip-path)">
              <path id="Trazado_772780" data-name="Trazado 772780" d="M167.1,85.335c.046-1.606-1.44-2.847-2.935-3.436s-3.157-.81-4.49-1.707a21.449,21.449,0,0,1-2.973-3.046,9.891,9.891,0,0,0-16.635,4.538c-.574,2.288-.182,4.992,1.621,6.512,2.093,1.764,5.2,1.372,7.877.824s5.717-1.09,7.956.485a11.475,11.475,0,0,1,2.949,3.924,7.006,7.006,0,0,0,3.422,3.427c1.561.538,3.68-.39,3.741-2.04" transform="translate(-88.264 -46.851)" fill="#263238"/>
              <path id="Trazado_772781" data-name="Trazado 772781" d="M158.31,94.469c-.177,1.346.8,2.552,1.767,3.5s2.066,1.959,2.237,3.306c.2,1.573-.949,3.123-.615,4.674a11.389,11.389,0,0,0,1.441,2.636,5.6,5.6,0,0,1,.286,4.128c-.4,1.356-1.036,4.384-1.979,5.438a21.763,21.763,0,0,1-10.567,6.3,40.906,40.906,0,0,1-11.67.64c-3.194-.2-6.868-.05-9.53-4.444-1.379-2.276-2.062-5.3-2.794-7.861-.631-2.2-1.177-4.562-.521-6.757.382-1.279,1.152-2.416,1.528-3.7a29.175,29.175,0,0,0,.489-4.968,11.4,11.4,0,0,1,16.216-9" transform="translate(-79.583 -55.103)" fill="#263238"/>
              <path id="Trazado_772782" data-name="Trazado 772782" d="M135.939,105.056c.3-4.584,3.35-10.2,7.916-9.709l14.256,3.637a2.688,2.688,0,0,1,2.4,2.732l-1.6,34.394.1.021s-3.249,9.7-12.676,6.737c-1.869-.587-2.723-2.632-3.093-4.735l-.1.012c0-.25-.007-.482-.01-.72a22.5,22.5,0,0,1-.056-4.723c-.027-2.777-.024-3.916-.025-3.89,0,0-5.855-.986-7.052-8.631-.595-3.8-.39-10.032-.058-15.125" transform="translate(-85.612 -60.17)" fill="#ffbe9d"/>
              <path id="Trazado_772783" data-name="Trazado 772783" d="M142.715,132.707a.98.98,0,0,0,.943.991.937.937,0,0,0,1.012-.882.98.98,0,0,0-.942-.992.938.938,0,0,0-1.013.882" transform="translate(-90.091 -83.216)" fill="#263238"/>
              <path id="Trazado_772784" data-name="Trazado 772784" d="M140.108,128.772c.121.128.865-.42,1.92-.415s1.826.535,1.941.406c.056-.057-.067-.288-.4-.534a2.692,2.692,0,0,0-1.553-.483,2.584,2.584,0,0,0-1.528.49c-.325.248-.435.479-.375.536" transform="translate(-88.436 -80.642)" fill="#263238"/>
              <path id="Trazado_772785" data-name="Trazado 772785" d="M170.829,132.707a.98.98,0,0,0,.943.991.937.937,0,0,0,1.012-.881.981.981,0,0,0-.942-.992.938.938,0,0,0-1.013.882" transform="translate(-107.839 -83.216)" fill="#263238"/>
              <path id="Trazado_772786" data-name="Trazado 772786" d="M168.222,129.368c.122.128.866-.42,1.92-.414,1.053-.01,1.826.534,1.941.405.056-.057-.066-.288-.4-.534a2.687,2.687,0,0,0-1.553-.483,2.586,2.586,0,0,0-1.528.49c-.324.248-.435.479-.376.536" transform="translate(-106.184 -81.018)" fill="#263238"/>
              <path id="Trazado_772787" data-name="Trazado 772787" d="M153.224,137.271a7.016,7.016,0,0,0-1.712-.313c-.269-.029-.524-.083-.569-.267a1.371,1.371,0,0,1,.181-.8q.383-.977.8-2.049a35.269,35.269,0,0,0,1.8-5.36,35.353,35.353,0,0,0-2.227,5.2c-.268.719-.524,1.4-.767,2.061a1.556,1.556,0,0,0-.142,1.057.677.677,0,0,0,.442.395,1.819,1.819,0,0,0,.458.065,6.842,6.842,0,0,0,1.736.006" transform="translate(-95.03 -81.108)" fill="#263238"/>
              <path id="Trazado_772788" data-name="Trazado 772788" d="M155.771,181.52a19.442,19.442,0,0,0,10.241-2.707s-2.585,5.284-10.232,4.552Z" transform="translate(-98.333 -112.879)" fill="#eb996e"/>
              <path id="Trazado_772789" data-name="Trazado 772789" d="M158.835,157.987a1.9,1.9,0,0,1,1.705-.7,1.736,1.736,0,0,1,1.2.645,1.1,1.1,0,0,1,.081,1.257,1.275,1.275,0,0,1-1.383.347,3.988,3.988,0,0,1-1.346-.808,1.163,1.163,0,0,1-.3-.313.352.352,0,0,1,0-.392" transform="translate(-100.201 -99.282)" fill="#eb996e"/>
              <path id="Trazado_772790" data-name="Trazado 772790" d="M160.469,154.31c-.171-.01-.176,1.135-1.158,1.945s-2.2.682-2.209.842c-.016.072.271.223.786.238a2.851,2.851,0,0,0,1.844-.638,2.483,2.483,0,0,0,.9-1.631c.045-.478-.083-.762-.161-.756" transform="translate(-99.173 -97.411)" fill="#263238"/>
              <path id="Trazado_772791" data-name="Trazado 772791" d="M166.964,124.768c.1.287,1.157.153,2.393.305,1.24.127,2.237.492,2.4.235.074-.123-.1-.393-.5-.671a4.2,4.2,0,0,0-3.653-.411c-.455.182-.684.407-.639.543" transform="translate(-105.396 -78.266)" fill="#263238"/>
              <path id="Trazado_772792" data-name="Trazado 772792" d="M141.159,120.391c.185.24.912-.007,1.786-.017.873-.04,1.613.164,1.784-.086.075-.121-.041-.361-.364-.589a2.586,2.586,0,0,0-2.876.083c-.309.246-.411.492-.33.609" transform="translate(-89.092 -75.312)" fill="#263238"/>
              <path id="Trazado_772793" data-name="Trazado 772793" d="M174.525,121.336a6.786,6.786,0,0,1-8.073-7.5c.238-1.877,1.25-3.786.6-5.563-.86-2.348-4.153-3.071-5.026-5.415-.508-1.362-.052-2.956-.628-4.291a5.1,5.1,0,0,0-3.147-2.443,13.134,13.134,0,0,1-3.743-1.625c-1.079-.839-1.753-2.422-1.056-3.6a72.419,72.419,0,0,1,16.7,4.058,6.44,6.44,0,0,1,3.295,2.134,6.743,6.743,0,0,1,.677,4.1q-.48,10.293-.961,20.586" transform="translate(-96.689 -57.38)" fill="#263238"/>
              <path id="Trazado_772794" data-name="Trazado 772794" d="M173.212,117.3a.487.487,0,0,0,.123-.079l.34-.259c.3-.232.73-.576,1.266-1.049a13.449,13.449,0,0,0,1.8-1.891,7.05,7.05,0,0,0,1.429-3.146,4.785,4.785,0,0,0-.986-4.021,15.524,15.524,0,0,0-1.781-1.518,4.155,4.155,0,0,1-1.389-1.895c-.565-1.558-.313-3.362-.532-5.205a10.36,10.36,0,0,0-2.166-5.265,7.143,7.143,0,0,0-2.266-1.852,13.945,13.945,0,0,0-2.674-.9,6.227,6.227,0,0,1-2.347-1.156,9.222,9.222,0,0,1-1.7-1.879c-.96-1.363-1.67-2.816-2.584-4.027a8.747,8.747,0,0,0-1.506-1.6,5.758,5.758,0,0,0-1.785-.973,3.805,3.805,0,0,0-3.394.338,3.125,3.125,0,0,0-1.205,2.288,2.28,2.28,0,0,0,.459,1.574,1.421,1.421,0,0,0,.312.3c.078.059.119.086.122.081s-.031-.041-.1-.107a1.671,1.671,0,0,1-.28-.313,2.264,2.264,0,0,1-.383-1.524,3.007,3.007,0,0,1,1.184-2.144,3.617,3.617,0,0,1,3.209-.266,5.539,5.539,0,0,1,1.7.949,8.532,8.532,0,0,1,1.445,1.563c.886,1.192,1.582,2.641,2.555,4.04a9.5,9.5,0,0,0,1.755,1.949,6.537,6.537,0,0,0,2.455,1.222,13.832,13.832,0,0,1,2.615.884,6.834,6.834,0,0,1,2.16,1.768,10.078,10.078,0,0,1,2.1,5.093c.222,1.782-.035,3.613.567,5.27a4.454,4.454,0,0,0,1.491,2.016,15.528,15.528,0,0,1,1.761,1.476,4.549,4.549,0,0,1,.959,3.8,6.912,6.912,0,0,1-1.345,3.072,14.065,14.065,0,0,1-1.734,1.907c-.52.485-.94.845-1.221,1.093a3.736,3.736,0,0,0-.42.39" transform="translate(-95.855 -50.719)" fill="#455a64"/>
              <path id="Trazado_772795" data-name="Trazado 772795" d="M206.477,182.005c1.571-1.518,4.255-.2,5.573,1.544s2.253,3.988,4.254,4.864,4.605.123,6.285,1.518c2.316,1.924,1.015,6.383,3.52,8.056.994.664,2.305.64,3.368,1.188,2.5,1.291,2.474,4.823,2.087,7.614-.543,3.916-1.138,7.976-3.3,11.286s-6.368,5.64-10.109,4.362c-3.6-1.228-5.441-5.107-6.9-8.614l-6.07-14.555a33.9,33.9,0,0,1-2.734-8.672,11.434,11.434,0,0,1,2.05-8.635" transform="translate(-127.725 -114.474)" fill="#263238"/>
              <path id="Trazado_772796" data-name="Trazado 772796" d="M209.191,174.054c1.142-.138,2.013,1.261,1.712,2.371a4.276,4.276,0,0,1-4.346,2.449,1.866,1.866,0,0,1-1.434-1.154,1.086,1.086,0,0,1,.525-1.434c.751-.469,1.191-.839,1.784-1.165.907-.5.852-.567,1.759-1.067" transform="translate(-129.431 -109.869)" fill="#e8505b"/>
              <path id="Trazado_772797" data-name="Trazado 772797" d="M140.553,199.841l4.434-3.36,16.706-1.068.672,2.24-5.434,33.91,4.287,40.456H137.911Z" transform="translate(-87.059 -123.358)" fill="#fabf40"/>
              <g id="Grupo_1043396" data-name="Grupo 1043396" transform="translate(51.888 132.136)" opacity="0.3">
                <g id="Grupo_1043395" data-name="Grupo 1043395">
                  <g id="Grupo_1043394" data-name="Grupo 1043394" clip-path="url(#clip-path-8)">
                    <path id="Trazado_772798" data-name="Trazado 772798" d="M160.214,360.526a3.816,3.816,0,0,0-2.186-1.369c-5.58-.123-11.281-.681-16.861-.8l-.447,16.533a21.018,21.018,0,0,0,2.95-7.485c.154-1.172.35-2.572,1.42-3.074a3.2,3.2,0,0,1,1.97-.043,46.349,46.349,0,0,0,6.069,1.047,9.736,9.736,0,0,0,5.919-1.292,3.612,3.612,0,0,0,1.416-1.529,1.873,1.873,0,0,0-.25-1.983" transform="translate(-140.72 -358.353)"/>
                  </g>
                </g>
              </g>
              <path id="Trazado_772799" data-name="Trazado 772799" d="M153.8,195.69l-.517-4.849a1.537,1.537,0,0,1,1.39-1.694l15.38-1.39a.726.726,0,0,1,.791.7l.173,5.769-4.453,7.557-4.578,1.457h-5.6l-3.219-3.438Z" transform="translate(-96.69 -118.524)" fill="#fabf40"/>
              <path id="Trazado_772800" data-name="Trazado 772800" d="M169.179,199.893c0,.016-.221-.023-.615-.063a10.83,10.83,0,0,0-1.676-.028,16.517,16.517,0,0,0-2.462.354c-.919.193-1.917.463-2.975.72a19.486,19.486,0,0,1-3.028.539,7.824,7.824,0,0,1-2.51-.17,5.3,5.3,0,0,1-1.566-.651,3.765,3.765,0,0,1-.374-.27c-.08-.069-.12-.107-.116-.112s.184.124.528.318a5.75,5.75,0,0,0,1.559.583,8,8,0,0,0,2.465.125,20.663,20.663,0,0,0,3-.549c1.054-.256,2.057-.522,2.984-.707a15.3,15.3,0,0,1,2.492-.317,9.138,9.138,0,0,1,1.692.09c.2.032.35.062.452.089a.509.509,0,0,1,.154.048" transform="translate(-97.124 -126.039)" fill="#263238"/>
              <g id="Grupo_1043399" data-name="Grupo 1043399" transform="translate(57.2 73.712)" opacity="0.3">
                <g id="Grupo_1043398" data-name="Grupo 1043398">
                  <g id="Grupo_1043397" data-name="Grupo 1043397" clip-path="url(#clip-path-9)">
                    <path id="Trazado_772801" data-name="Trazado 772801" d="M155.4,200.811a3.318,3.318,0,0,0,.412,3.4,3,3,0,0,0,2.737.692,8.69,8.69,0,0,0,2.673-1.2,23.3,23.3,0,0,1,6.674-3.1.87.87,0,0,0,.432-.18.285.285,0,0,0,.014-.416.394.394,0,0,0-.2-.057,20.061,20.061,0,0,0-6.324.856,11.4,11.4,0,0,1-6.324.074" transform="translate(-155.128 -199.908)"/>
                  </g>
                </g>
              </g>
              <path id="Trazado_772802" data-name="Trazado 772802" d="M162.239,191.1a1.41,1.41,0,0,0-.526.5,3.537,3.537,0,0,0-.21,1.767c.039,1.435.277,2.583.22,2.594a2.548,2.548,0,0,1-.208-.742,11.432,11.432,0,0,1-.2-1.847,8.5,8.5,0,0,1,.021-1.028,1.8,1.8,0,0,1,.266-.816,1.064,1.064,0,0,1,.434-.386c.127-.056.205-.056.208-.045" transform="translate(-101.827 -120.632)" fill="#263238"/>
              <path id="Trazado_772803" data-name="Trazado 772803" d="M173.725,194.61a12.527,12.527,0,0,0-.657-4.633,2.029,2.029,0,0,1,.315.625,7.559,7.559,0,0,1,.471,3.321,2.027,2.027,0,0,1-.129.687" transform="translate(-109.25 -119.926)" fill="#263238"/>
              <path id="Trazado_772804" data-name="Trazado 772804" d="M187.809,188.874a1.462,1.462,0,0,1,.293.571,3.972,3.972,0,0,1-.2,3.036,1.475,1.475,0,0,1-.366.527,5.081,5.081,0,0,0,.275-4.134" transform="translate(-118.382 -119.23)" fill="#263238"/>
              <path id="Trazado_772805" data-name="Trazado 772805" d="M102.647,213.336a17.373,17.373,0,0,0-6.62,9.854c-1.083,4.986-4.05,31.319-4.05,31.319l-5.194,10.114,3.391,8.067a12.386,12.386,0,0,0,8.149-2.33l2.282-1.656,4.185-6.209Z" transform="translate(-54.783 -134.672)" fill="#ebebeb"/>
              <path id="Trazado_772806" data-name="Trazado 772806" d="M127.362,200.724l-8.889,4.65-2.1,6.894-1.87,19.981,3.52,23.425L111.852,275.3l10.645.079.253-11.505,1.063-37.241,1.044-23.723Z" transform="translate(-70.609 -126.711)" fill="#ebebeb"/>
              <path id="Trazado_772807" data-name="Trazado 772807" d="M136.91,235.306a2.012,2.012,0,0,1-.165-.277l-.442-.816c-.184-.358-.362-.819-.593-1.343-.11-.264-.2-.558-.309-.863s-.225-.629-.314-.979a36.83,36.83,0,0,1-1.274-11.14c.012-.34.025-.677.048-1.013l0-.058.054-.023,1.556-.653-.022.161-1.554-1.249-.032-.026v-.038a13.51,13.51,0,0,1,.708-4.445c.391-1.3.82-2.421,1.194-3.342s.7-1.641.937-2.131c.117-.244.209-.432.274-.557a1.058,1.058,0,0,1,.107-.187,1.192,1.192,0,0,1-.078.2l-.247.569c-.216.5-.526,1.223-.886,2.147s-.773,2.047-1.151,3.344a13.578,13.578,0,0,0-.675,4.386l-.034-.064,1.558,1.244.124.1-.146.062-1.555.656.058-.081c-.022.329-.035.666-.047,1a38.087,38.087,0,0,0,1.212,11.1c.084.349.2.671.3.978s.189.6.294.863c.22.525.388.987.56,1.349l.409.829a2.065,2.065,0,0,1,.131.3" transform="translate(-84.462 -130.249)" fill="#263238"/>
              <path id="Trazado_772808" data-name="Trazado 772808" d="M120.17,272.6a1.76,1.76,0,0,1-.086-.289l-.21-.838c-.092-.364-.2-.811-.3-1.334s-.239-1.115-.344-1.778-.24-1.386-.34-2.169c-.119-.781-.2-1.621-.295-2.5-.16-1.768-.267-3.719-.269-5.769s.124-4,.291-5.769c.1-.883.182-1.722.3-2.5.1-.783.229-1.507.348-2.168s.244-1.255.351-1.777.212-.969.3-1.333l.213-.837a1.8,1.8,0,0,1,.087-.289,1.752,1.752,0,0,1-.049.3l-.178.845c-.082.366-.178.814-.273,1.338s-.223,1.116-.322,1.779-.229,1.385-.324,2.166c-.115.78-.193,1.617-.285,2.5-.156,1.764-.265,3.709-.274,5.753s.1,3.988.253,5.752c.089.881.164,1.719.276,2.5.093.782.208,1.506.316,2.167s.221,1.257.315,1.78.187.973.268,1.339.131.635.174.846a1.792,1.792,0,0,1,.048.3" transform="translate(-74.696 -153.552)" fill="#263238"/>
              <path id="Trazado_772809" data-name="Trazado 772809" d="M122.565,371.642a4.025,4.025,0,0,1-.432.894,14.612,14.612,0,0,1-3.028,3.7,4.044,4.044,0,0,1-.792.6,6.929,6.929,0,0,1,.7-.7,20.252,20.252,0,0,0,3-3.667,6.9,6.9,0,0,1,.548-.824" transform="translate(-74.687 -234.606)" fill="#263238"/>
              <path id="Trazado_772810" data-name="Trazado 772810" d="M198.409,210.812a12.232,12.232,0,0,1,7.515,8.7c2.907,12.819,7.883,29.87,7.961,35.371.1,7.006-2.964,11.8-6.963,12.687-3.163.7-31.83-.869-31.83-.869l-1.341-10.681,23.214-3.418-3.179-17.762,3.146-24.6Z" transform="translate(-109.684 -132.718)" fill="#ebebeb"/>
              <path id="Trazado_772811" data-name="Trazado 772811" d="M205.712,198.962l-6.418-2.623-6.767-3.965-.042,1.16a6.8,6.8,0,0,1,.8,4.7l-5.631,29.376,1.278,21.462,2.62,21.033h20.358l-9.348-22,3.3-29.64Z" transform="translate(-118.463 -121.44)" fill="#ebebeb"/>
              <path id="Trazado_772812" data-name="Trazado 772812" d="M202.7,339.87a.765.765,0,0,1-.138.019l-.41.04c-.361.039-.9.036-1.587.054-1.382.007-3.387-.031-5.881-.112-4.989-.167-11.935-.5-19.776-.955l-.079,0-.01-.079c-.16-1.273-.329-2.615-.5-3.977-.289-2.305-.57-4.552-.839-6.7l-.011-.091.091-.013,17.727-2.578,5.205-.738,1.4-.19.362-.045a.77.77,0,0,1,.124-.01.649.649,0,0,1-.122.027l-.36.062-1.394.221-5.2.794-17.717,2.643.08-.1c.271,2.152.553,4.4.843,6.7.171,1.362.339,2.7.5,3.977l-.089-.083c7.838.461,14.784.817,19.77,1.018,2.493.1,4.5.154,5.876.17.689-.007,1.225.007,1.584-.02l.41-.021a.868.868,0,0,1,.14,0" transform="translate(-109.506 -204.838)" fill="#263238"/>
              <path id="Trazado_772813" data-name="Trazado 772813" d="M227.578,272.09a.859.859,0,0,1,.05.2l.112.569.384,2.1c.313,1.8.738,4.238,1.208,6.933.45,2.7.857,5.142,1.157,6.942.136.87.247,1.583.329,2.108.032.232.059.422.08.575a.1.1,0,1,1-.038.006c-.031-.151-.069-.339-.116-.569l-.389-2.1c-.321-1.772-.75-4.223-1.213-6.934s-.869-5.163-1.152-6.942l-.324-2.108c-.031-.233-.056-.423-.077-.576a.794.794,0,0,1-.011-.2" transform="translate(-143.661 -171.762)" fill="#263238"/>
              <path id="Trazado_772814" data-name="Trazado 772814" d="M196.571,197.985a.256.256,0,0,1,.026.072c.016.058.036.128.059.215.047.19.13.468.206.835a26.193,26.193,0,0,1,.49,3.161,35.843,35.843,0,0,1,.122,4.823c-.063,1.833-.257,3.861-.534,6.01l-.009.068-.068.013-2.1.389.072-.129c.119.322.244.669.339,1.027a13.08,13.08,0,0,1-.24,7.121,22.449,22.449,0,0,1-2.465,5.31c-.876,1.421-1.668,2.514-2.212,3.27l-.637.863-.17.222a.35.35,0,0,1-.063.072.363.363,0,0,1,.048-.083l.155-.232.607-.884c.525-.769,1.3-1.873,2.157-3.3a22.824,22.824,0,0,0,2.411-5.29,13,13,0,0,0,.224-7.021c-.094-.352-.216-.691-.332-1.008l-.041-.109.112-.021,2.1-.386-.077.081c.28-2.145.482-4.166.555-5.992a37.311,37.311,0,0,0-.08-4.806,29.394,29.394,0,0,0-.432-3.159c-.065-.368-.137-.648-.173-.841l-.043-.219a.259.259,0,0,1-.009-.076" transform="translate(-119.556 -124.982)" fill="#263238"/>
              <path id="Trazado_772815" data-name="Trazado 772815" d="M205.881,270.059v-4.687s.061-1.156-.913-.912-.791,2.069-.791,2.069-.183,7.12.244,7.059.589-.608.589-.608v-2.739Z" transform="translate(-128.866 -166.924)" fill="#e8505b"/>
              <path id="Trazado_772816" data-name="Trazado 772816" d="M211.254,280.33a32.918,32.918,0,0,1-5.021,0,32.928,32.928,0,0,1,5.021,0" transform="translate(-130.189 -176.903)" fill="#263238"/>
              <path id="Trazado_772817" data-name="Trazado 772817" d="M232.322,219.327a3.5,3.5,0,0,1-.525.194,12.212,12.212,0,0,0-1.393.6,10.829,10.829,0,0,0-3.767,3.21,7.964,7.964,0,0,0-.74,1.206,7.619,7.619,0,0,0-.445,1.241,12.464,12.464,0,0,0-.374,2.215c-.055.639-.065,1.16-.069,1.52a4.451,4.451,0,0,1-.013.56,2.424,2.424,0,0,1-.062-.558,14,14,0,0,1,.009-1.531,11.617,11.617,0,0,1,.338-2.25,7.57,7.57,0,0,1,.446-1.276,7.9,7.9,0,0,1,.756-1.239A10.436,10.436,0,0,1,230.344,220a9.684,9.684,0,0,1,1.43-.552,2.838,2.838,0,0,1,.548-.124" transform="translate(-141.983 -138.453)" fill="#263238"/>
              <path id="Trazado_772818" data-name="Trazado 772818" d="M20.9,325l33.538,12.422,28.272,4.322L49.092,325.353Z" transform="translate(-13.191 -205.16)" fill="#263238"/>
              <path id="Trazado_772819" data-name="Trazado 772819" d="M55.908,348.809a14.289,14.289,0,0,0-1.786-5.081,3.807,3.807,0,0,1-.458-.954,1.094,1.094,0,0,1,.19-1c.431-.469,1.218-.26,1.746.094a6.155,6.155,0,0,1,2.258,3.161,18.326,18.326,0,0,1,.738,3.877" transform="translate(-33.85 -215.579)" fill="#ffbe9d"/>
              <path id="Trazado_772820" data-name="Trazado 772820" d="M70.473,342.473H68.806a3.25,3.25,0,0,0-1.462-.84,1.161,1.161,0,0,0-1.1.43c.745-1.228,1.549-2.58,1.7-2.951.3-.721-.36-1.261-1.441-1.261s-5.822,6.723-5.822,6.723,2.947-5.407,3.232-6.233c.714-2.065-1.544-2.219-2.364-1.223-1.017,1.236-5.131,7.456-5.131,7.456a2.9,2.9,0,0,0-.24,2.461c.54,1.2,2.1.72,2.1.72a2.013,2.013,0,0,0,1.1,1.669,3.431,3.431,0,0,0,2.789-.107L68.3,350.7l2.22-.222a6.809,6.809,0,0,0,6.063-5.78Z" transform="translate(-35.344 -212.436)" fill="#ffbe9d"/>
              <path id="Trazado_772821" data-name="Trazado 772821" d="M77.53,351.3a20.437,20.437,0,0,1-1.807,2.866c-.53.771-1.021,1.461-1.384,1.955a5.06,5.06,0,0,1-.621.776,5.173,5.173,0,0,1,.51-.854c.335-.514.808-1.216,1.338-1.986s1.016-1.463,1.372-1.961l.426-.587a1.254,1.254,0,0,1,.167-.208" transform="translate(-46.534 -221.762)" fill="#eb996e"/>
              <path id="Trazado_772822" data-name="Trazado 772822" d="M83.061,358.293a5.6,5.6,0,0,1,.544-1c.362-.6.879-1.429,1.447-2.34.282-.456.555-.891.777-1.293a1.488,1.488,0,0,0,.135-1.138,2.828,2.828,0,0,0-.524-.977c.007-.008.1.051.238.2a1.972,1.972,0,0,1,.416.741,1.6,1.6,0,0,1-.109,1.257c-.22.417-.488.854-.771,1.312-.569.913-1.1,1.726-1.5,2.312a8.455,8.455,0,0,1-.659.932" transform="translate(-52.432 -221.916)" fill="#eb996e"/>
              <path id="Trazado_772823" data-name="Trazado 772823" d="M90.463,363a3.534,3.534,0,0,1,.326-.957l.439-1a7.943,7.943,0,0,0,.45-1.239,1.444,1.444,0,0,0-.194-1.2,1.149,1.149,0,0,0-.438-.312,1.223,1.223,0,0,0-.457-.127,1.811,1.811,0,0,0-.661.23c-.156.077-.246.115-.253.1s.07-.07.215-.168a3.16,3.16,0,0,1,.275-.165,1.019,1.019,0,0,1,.422-.136,1.305,1.305,0,0,1,.523.118,1.279,1.279,0,0,1,.511.347,1.587,1.587,0,0,1,.243,1.353,7.117,7.117,0,0,1-.476,1.268c-.173.375-.34.705-.477.984-.278.555-.424.909-.449.9" transform="translate(-56.609 -226.015)" fill="#eb996e"/>
              <path id="Trazado_772824" data-name="Trazado 772824" d="M94.876,355.763a.673.673,0,0,1,.261.079,3.029,3.029,0,0,1,.641.377,3.5,3.5,0,0,1,.992,4.447,3.02,3.02,0,0,1-.42.614c-.118.13-.194.19-.2.183-.027-.023.246-.3.5-.856a3.555,3.555,0,0,0-.956-4.282c-.467-.393-.832-.529-.817-.562" transform="translate(-59.892 -224.58)" fill="#eb996e"/>
              <path id="Trazado_772825" data-name="Trazado 772825" d="M60.55,346.2a17.918,17.918,0,0,1-1.389,2.223,17.834,17.834,0,0,1-1.548,2.115A35.884,35.884,0,0,1,60.55,346.2" transform="translate(-36.368 -218.546)" fill="#eb996e"/>
              <path id="Trazado_772826" data-name="Trazado 772826" d="M134.98,326.18l-3.834-.869-3.682-3.468a2.617,2.617,0,0,0-1.642-.707l-6.7-.386a2.616,2.616,0,0,0-1.837.613l-4.791,4.048,20.9,10.187,2.868.253Z" transform="translate(-71.013 -202.477)" fill="#ffbe9d"/>
              <path id="Trazado_772827" data-name="Trazado 772827" d="M128.856,329.934c-.006.031-.5-.06-1.291-.161a5.6,5.6,0,0,0-3.034.315,7.885,7.885,0,0,0-1.446.9c-.424.318-.8.613-1.14.839a6.232,6.232,0,0,1-.829.483,1.146,1.146,0,0,1-.331.12c-.013-.029.442-.232,1.081-.714.322-.237.69-.541,1.111-.869a7.429,7.429,0,0,1,1.475-.938,4.326,4.326,0,0,1,1.711-.383,7.579,7.579,0,0,1,1.421.108c.4.065.718.138.937.191a1.213,1.213,0,0,1,.336.1" transform="translate(-76.248 -208.021)" fill="#eb996e"/>
              <path id="Trazado_772828" data-name="Trazado 772828" d="M138.393,340.2c-.012.031-.274-.09-.723-.137a3.9,3.9,0,0,0-1.723.24,9.069,9.069,0,0,0-1.578.81,3.157,3.157,0,0,1-.652.364,2.708,2.708,0,0,1,.577-.477,6.786,6.786,0,0,1,1.587-.877,3.529,3.529,0,0,1,1.809-.194,1.412,1.412,0,0,1,.7.271" transform="translate(-84.411 -214.561)" fill="#eb996e"/>
              <path id="Trazado_772829" data-name="Trazado 772829" d="M165.37,336.5a201.919,201.919,0,0,1-2.58-3.461,13,13,0,0,1,2.58,3.461" transform="translate(-102.763 -210.236)" fill="#eb996e"/>
              <path id="Trazado_772830" data-name="Trazado 772830" d="M136.789,305.882l8.494-7.912a.811.811,0,0,0-1.094-1.2l-9.961,8.933" transform="translate(-84.734 -187.213)" fill="#e8505b"/>
              <g id="Grupo_1043402" data-name="Grupo 1043402" transform="translate(49.494 109.353)" opacity="0.3">
                <g id="Grupo_1043401" data-name="Grupo 1043401">
                  <g id="Grupo_1043400" data-name="Grupo 1043400" clip-path="url(#clip-path-10)">
                    <path id="Trazado_772831" data-name="Trazado 772831" d="M136.789,305.882l8.494-7.912a.811.811,0,0,0-1.094-1.2l-9.961,8.933" transform="translate(-134.228 -296.565)"/>
                  </g>
                </g>
              </g>
            </g>
          </g>
          <g id="Grupo_1043406" data-name="Grupo 1043406">
            <g id="Grupo_1043405" data-name="Grupo 1043405" clip-path="url(#clip-path)">
              <path id="Trazado_772832" data-name="Trazado 772832" d="M320.874,114.761c-.132-.053-5.275-1.4-4.964,3.8s5.469,3.816,5.469,3.666-.505-7.466-.505-7.466" transform="translate(-199.416 -72.321)" fill="#b78876"/>
              <path id="Trazado_772833" data-name="Trazado 772833" d="M321.952,123.307c-.024-.015-.087.069-.236.148a.908.908,0,0,1-.677.054,2.245,2.245,0,0,1-1.157-1.949,3,3,0,0,1,.176-1.313,1.048,1.048,0,0,1,.64-.736.462.462,0,0,1,.55.216c.079.141.052.247.08.254s.107-.094.052-.306a.578.578,0,0,0-.224-.314.685.685,0,0,0-.509-.1,1.276,1.276,0,0,0-.9.863,3.079,3.079,0,0,0-.228,1.468,2.357,2.357,0,0,0,1.456,2.167.973.973,0,0,0,.82-.187c.153-.138.174-.256.155-.264" transform="translate(-201.696 -75.278)" fill="#aa6550"/>
              <path id="Trazado_772834" data-name="Trazado 772834" d="M364.621,64.7a16.739,16.739,0,0,1,8.642,1.728,10.68,10.68,0,0,1,4.475,4.9,11.289,11.289,0,0,1,1.229,5.489,12.041,12.041,0,0,1-.821,4.708" transform="translate(-230.174 -40.843)" fill="#263238"/>
              <path id="Trazado_772835" data-name="Trazado 772835" d="M339.412,65.748A14.024,14.024,0,0,1,354.4,79c.341,6.516.641,13.564.569,17.112-.155,7.617-7.783,8.74-7.783,8.74s.168,2.259.356,5.061a10.033,10.033,0,1,1-20.036,1.046l-1.133-30.7a14.028,14.028,0,0,1,13.041-14.511" transform="translate(-206.021 -41.483)" fill="#b78876"/>
              <path id="Trazado_772836" data-name="Trazado 772836" d="M366.1,166.7a18.123,18.123,0,0,1-9.772-3.011s2.3,5.542,9.91,4.916Z" transform="translate(-224.938 -103.334)" fill="#aa6550"/>
              <path id="Trazado_772837" data-name="Trazado 772837" d="M390.767,111.541a1.088,1.088,0,0,1-1.058,1.089,1.04,1.04,0,0,1-1.113-.99,1.088,1.088,0,0,1,1.056-1.09,1.041,1.041,0,0,1,1.115.991" transform="translate(-245.309 -69.786)" fill="#263238"/>
              <path id="Trazado_772838" data-name="Trazado 772838" d="M389.986,107.076c-.136.141-.955-.476-2.126-.482-1.169-.023-2.033.572-2.159.428-.062-.064.078-.319.454-.588a2.983,2.983,0,0,1,1.73-.518,2.865,2.865,0,0,1,1.691.56c.358.279.478.537.411.6" transform="translate(-243.472 -66.861)" fill="#263238"/>
              <path id="Trazado_772839" data-name="Trazado 772839" d="M359.633,111.541a1.088,1.088,0,0,1-1.057,1.089,1.04,1.04,0,0,1-1.114-.989,1.088,1.088,0,0,1,1.057-1.09,1.041,1.041,0,0,1,1.114.99" transform="translate(-225.655 -69.787)" fill="#263238"/>
              <path id="Trazado_772840" data-name="Trazado 772840" d="M358.775,107.419c-.136.141-.956-.476-2.126-.482-1.169-.023-2.033.573-2.159.428-.062-.064.076-.319.454-.588a2.98,2.98,0,0,1,1.73-.518,2.865,2.865,0,0,1,1.691.56c.357.279.478.537.411.6" transform="translate(-223.77 -67.078)" fill="#263238"/>
              <path id="Trazado_772841" data-name="Trazado 772841" d="M376.663,116.335a7.737,7.737,0,0,1,1.9-.328c.3-.028.583-.086.635-.289a1.52,1.52,0,0,0-.192-.888l-.866-2.283a39.128,39.128,0,0,1-1.938-5.97,39.191,39.191,0,0,1,2.414,5.8q.434,1.2.829,2.3a1.729,1.729,0,0,1,.146,1.174.75.75,0,0,1-.5.433,2.038,2.038,0,0,1-.508.067,7.634,7.634,0,0,1-1.927-.013" transform="translate(-237.479 -67.278)" fill="#263238"/>
              <path id="Trazado_772842" data-name="Trazado 772842" d="M367.775,135.163c.191-.01.183,1.261,1.263,2.172s2.434.781,2.442.959c.017.08-.3.244-.875.255a3.162,3.162,0,0,1-2.039-.729,2.757,2.757,0,0,1-.978-1.821c-.044-.531.1-.845.187-.837" transform="translate(-232.042 -85.324)" fill="#263238"/>
              <path id="Trazado_772843" data-name="Trazado 772843" d="M357.9,95.438c-.118.317-1.286.157-2.66.312-1.378.127-2.489.52-2.669.233-.08-.137.115-.435.566-.74a4.658,4.658,0,0,1,4.06-.415c.5.208.754.459.7.61" transform="translate(-222.558 -59.681)" fill="#263238"/>
              <path id="Trazado_772844" data-name="Trazado 772844" d="M390.08,95.656c-.208.264-1.012-.018-1.982-.039-.969-.055-1.792.164-1.979-.115-.081-.136.049-.4.411-.65a2.871,2.871,0,0,1,3.191.124c.341.276.451.551.359.68" transform="translate(-243.73 -59.609)" fill="#263238"/>
              <path id="Trazado_772845" data-name="Trazado 772845" d="M326.143,82s.331,1.761.42,2.556c.032.29-.006,3.518.778,3.679a2.842,2.842,0,0,0,2.611-1.81c.6-1.335,1.732-4.538,1.609-5.994a21.076,21.076,0,0,1,.137-5.959,8.554,8.554,0,0,1,2.9-5.088,5.424,5.424,0,0,1,5.616-.764,30.625,30.625,0,0,1,2.948,2.21,4.574,4.574,0,0,0,3.141.817,2.957,2.957,0,0,0,2.428-1.991,3.221,3.221,0,0,0-1.2-3.206,7.357,7.357,0,0,0-3.317-1.358,17.844,17.844,0,0,0-9.889.691,12.893,12.893,0,0,0-7.226,6.615c-1.542,3.552-1.363,5.73-.956,9.6" transform="translate(-205.705 -40.843)" fill="#263238"/>
              <path id="Trazado_772846" data-name="Trazado 772846" d="M355.965,104.379a9.082,9.082,0,0,0-.2-1.255,5.161,5.161,0,0,0-1.888-2.806,5.091,5.091,0,0,0-4.824-.718,5.095,5.095,0,0,0-2.36,1.774,5.062,5.062,0,0,0,0,6.008,5.1,5.1,0,0,0,2.36,1.775,5.131,5.131,0,0,0,6.711-3.524,9.073,9.073,0,0,0,.2-1.254.274.274,0,0,1,.006.084c0,.067,0,.148,0,.247a2.317,2.317,0,0,1-.031.4,3.617,3.617,0,0,1-.1.541,5.21,5.21,0,0,1-4.081,3.89,5.257,5.257,0,0,1-2.763-.218,5.265,5.265,0,0,1-2.451-1.83,5.236,5.236,0,0,1,0-6.23,5.261,5.261,0,0,1,2.451-1.829,5.257,5.257,0,0,1,2.763-.218,5.213,5.213,0,0,1,4.081,3.89,3.608,3.608,0,0,1,.1.541,2.312,2.312,0,0,1,.031.4c0,.1,0,.18,0,.247a.275.275,0,0,1-.006.084" transform="translate(-218.114 -62.575)" fill="#263238"/>
              <path id="Trazado_772847" data-name="Trazado 772847" d="M392.327,104.379a9.076,9.076,0,0,0-.2-1.255,5.159,5.159,0,0,0-1.888-2.806,5.092,5.092,0,0,0-4.824-.718,5.1,5.1,0,0,0-2.36,1.774,5.063,5.063,0,0,0,0,6.008,5.1,5.1,0,0,0,2.36,1.775,5.132,5.132,0,0,0,6.712-3.524,9.067,9.067,0,0,0,.2-1.254.275.275,0,0,1,.006.084c0,.067,0,.148,0,.247a2.359,2.359,0,0,1-.031.4,3.617,3.617,0,0,1-.1.541,5.211,5.211,0,0,1-4.08,3.89,5.258,5.258,0,0,1-2.764-.218,5.265,5.265,0,0,1-2.451-1.83,5.235,5.235,0,0,1,0-6.23,5.258,5.258,0,0,1,2.451-1.829,5.257,5.257,0,0,1,2.763-.218,5.211,5.211,0,0,1,4.081,3.89,3.608,3.608,0,0,1,.1.541,2.354,2.354,0,0,1,.031.4c0,.1,0,.18,0,.247a.275.275,0,0,1-.006.084" transform="translate(-241.068 -62.575)" fill="#263238"/>
              <path id="Trazado_772848" data-name="Trazado 772848" d="M376.911,111a2.6,2.6,0,0,1-.478-.165,3.082,3.082,0,0,0-2.316.154c-.275.134-.432.251-.452.227s.112-.173.386-.346a2.655,2.655,0,0,1,2.432-.162c.294.135.441.274.428.292" transform="translate(-235.882 -69.747)" fill="#263238"/>
              <path id="Trazado_772849" data-name="Trazado 772849" d="M386.883,73.544c.075-.4-.055-.617.167-.778.254-.185.734.3.91.493.056.062.235-.179.3-.225a1.323,1.323,0,0,0,.134-.506c-.033-.275-.465-.35-.669-.537a2.048,2.048,0,0,0-.718-.407.686.686,0,0,0-.688.041.662.662,0,0,0-.153.515,1.448,1.448,0,0,0,.1.537.756.756,0,0,0,.367.393" transform="translate(-243.777 -45.143)" fill="#263238"/>
              <path id="Trazado_772850" data-name="Trazado 772850" d="M325.861,97.435s3.734,1.369,5.678,2.193l-.11-1.91L326,95.569s-.138,1.419-.135,1.866" transform="translate(-205.706 -60.33)" fill="#ebebeb"/>
              <path id="Trazado_772851" data-name="Trazado 772851" d="M326.807,92.576a41.755,41.755,0,0,1,5.213,2.2,41.693,41.693,0,0,1-5.213-2.2" transform="translate(-206.303 -58.438)" fill="#ebebeb"/>
              <path id="Trazado_772852" data-name="Trazado 772852" d="M327.177,186.228l-.289-9.039a10.915,10.915,0,0,0,11.2,8.165c8.989-.1,8.825-7.288,8.825-7.288l.321,3.643v14.718l-5.864,24.009-7.487.95-8.275-32.82Z" transform="translate(-205.548 -111.854)" fill="#3bc192"/>
              <path id="Trazado_772853" data-name="Trazado 772853" d="M348.772,192.153a.944.944,0,0,1-.108.192,5.17,5.17,0,0,1-.356.524,7.728,7.728,0,0,1-1.674,1.621,9.632,9.632,0,0,1-3.128,1.469,11.049,11.049,0,0,1-4.219.292,13.757,13.757,0,0,1-4.053-1.22,17.571,17.571,0,0,1-2.96-1.784,20.461,20.461,0,0,1-1.793-1.485c-.2-.184-.351-.339-.454-.44a.955.955,0,0,1-.148-.164.976.976,0,0,1,.175.136l.478.413c.415.357,1.027.862,1.823,1.431a18.375,18.375,0,0,0,2.955,1.734,13.9,13.9,0,0,0,4,1.19,11.069,11.069,0,0,0,4.149-.272,9.741,9.741,0,0,0,3.095-1.409,8.206,8.206,0,0,0,1.694-1.556c.343-.424.507-.681.524-.67" transform="translate(-208.241 -120.672)" fill="#263238"/>
              <path id="Trazado_772854" data-name="Trazado 772854" d="M310.295,260.729l-.136-42.665-12.116-31.138-.407-9.371-7.382,5.584S279.5,220.132,279.339,218.85s0,41.879,0,41.879Z" transform="translate(-176.291 -112.085)" fill="#ebebeb"/>
              <path id="Trazado_772855" data-name="Trazado 772855" d="M362.466,329.284c-.053,0-.1-9.614-.1-21.47s.043-21.472.1-21.472.1,9.612.1,21.472-.043,21.47-.1,21.47" transform="translate(-228.753 -180.758)" fill="#263238"/>
              <path id="Trazado_772856" data-name="Trazado 772856" d="M309.361,209.225l1.5,1.134-1.053,6.9,17.686,18.525-16.063-21.093,1.369-5.468Z" transform="translate(-195.29 -132.077)" fill="#e0e0e0"/>
              <path id="Trazado_772857" data-name="Trazado 772857" d="M289.695,248.432l-27.141-7.958-.9-20.616L269.1,192.7s-17.745,8.852-18.952,14.486-4.118,19.328-4.429,29.226c-.277,8.85-.317,14.767,1.7,17.592,5.788,8.09,43.929,9.535,59.167-.011" transform="translate(-155.028 -121.644)" fill="#ebebeb"/>
              <path id="Trazado_772858" data-name="Trazado 772858" d="M327.682,216.241a.7.7,0,0,1-.088-.1l-.244-.3-.922-1.181-3.362-4.364-11.035-14.443-.83-1.091-.028-.037.011-.045,1.372-5.467.09.115-3.436,0h-.088v-.088c.005-2.233.01-4.28.014-6.094V183.1l.029-.022,5.334-4.054,1.464-1.1.385-.282a.937.937,0,0,1,.136-.091.924.924,0,0,1-.122.108l-.372.3-1.44,1.13-5.295,4.1.028-.058c0,1.814.009,3.861.014,6.094l-.087-.088,3.436,0h.118l-.029.115-1.365,5.469-.017-.081.83,1.09,10.99,14.477,3.313,4.4.893,1.2.228.316a.711.711,0,0,1,.073.112" transform="translate(-195.139 -112.085)" fill="#263238"/>
              <path id="Trazado_772859" data-name="Trazado 772859" d="M373.825,182.517c-2.165-3.786-3.288-3.392-3.288-3.392l.113,1.349,0,2.836-1.026,12.166-6.576,26.435.136,39.8h24.856l3.094-48.586-.281-20.931Z" transform="translate(-229.183 -113.069)" fill="#ebebeb"/>
              <path id="Trazado_772860" data-name="Trazado 772860" d="M369.827,214.593s6.434,4.75,6.991,12.39c.452,6.207,1.492,23.2,1.679,26.9.293,5.762-4.194,19.253-15.874,15.431-7-2.292-32.885-11.088-32.885-11.088l1.722-10.991,30.717,1.83.61-25.62Z" transform="translate(-208.154 -135.466)" fill="#ebebeb"/>
              <path id="Trazado_772861" data-name="Trazado 772861" d="M307.1,305.536s-8.694-.94-10.708-.454c-1.935.467-4.691,2.834-4.691,2.834l.039,3.435,13.987,3.909Z" transform="translate(-184.141 -192.501)" fill="#b78876"/>
              <path id="Trazado_772862" data-name="Trazado 772862" d="M363.05,217.956a.61.61,0,0,1,.038-.118l.131-.34.52-1.3,1.945-4.764,2.908-7.056c.276-.661.549-1.351.89-2.025s.715-1.347,1.114-2.022a44.537,44.537,0,0,1,2.761-3.984c.5-.647,1.007-1.277,1.529-1.881l-.017.1-1.083-2.754-.036-.091.093-.032,4.531-1.54-.046.127-5.137-8.577a6.749,6.749,0,0,0-1.716-2.213,2.261,2.261,0,0,0-.687-.278,2.525,2.525,0,0,1-.251-.061,1.9,1.9,0,0,1,.257.034,2.138,2.138,0,0,1,.71.259,3.116,3.116,0,0,1,.872.845,15.388,15.388,0,0,1,.9,1.359l5.2,8.545.056.091-.1.035-4.527,1.553.057-.123,1.087,2.753.021.054-.038.044c-.517.6-1.022,1.228-1.521,1.872a45,45,0,0,0-2.752,3.965c-.4.67-.783,1.331-1.11,2.006s-.611,1.347-.891,2.01l-2.946,7.041-2,4.741-.553,1.285-.148.333a.606.606,0,0,1-.057.111" transform="translate(-229.182 -113.088)" fill="#263238"/>
              <path id="Trazado_772863" data-name="Trazado 772863" d="M349.546,335.194a.988.988,0,0,1-.108.114l-.331.321A9.723,9.723,0,0,1,347.7,336.7a9.557,9.557,0,0,1-2.585,1.083,10.459,10.459,0,0,1-3.7.235,11.791,11.791,0,0,1-2.119-.449c-.721-.23-1.443-.512-2.206-.78-1.518-.551-3.146-1.124-4.859-1.726-3.427-1.2-7.208-2.485-11.19-3.791-7.966-2.617-15.229-4.822-20.493-6.394l-6.239-1.846-1.7-.5-.44-.136a.917.917,0,0,1-.148-.053,1.012,1.012,0,0,1,.153.034l.445.117,1.706.469c1.48.413,3.619,1.02,6.257,1.787,5.275,1.539,12.546,3.724,20.515,6.342,3.983,1.306,7.763,2.6,11.188,3.807,1.712.606,3.338,1.185,4.854,1.743.759.271,1.49.56,2.2.788a11.691,11.691,0,0,0,2.09.455,10.418,10.418,0,0,0,3.66-.2,9.637,9.637,0,0,0,2.572-1.043,10.558,10.558,0,0,0,1.424-1.036l.343-.306a1,1,0,0,1,.122-.1" transform="translate(-184.344 -203.484)" fill="#263238"/>
              <path id="Trazado_772864" data-name="Trazado 772864" d="M280.076,322.2c-.006.04-.488-.065-1.267-.034a5.842,5.842,0,0,0-1.343.222,6.2,6.2,0,0,0-1.512.69,7.044,7.044,0,0,0-2.1,2.161c-.413.664-.59,1.121-.624,1.106a1.193,1.193,0,0,1,.1-.329,5.835,5.835,0,0,1,.405-.848,6.593,6.593,0,0,1,2.115-2.253,5.987,5.987,0,0,1,1.567-.7,5.438,5.438,0,0,1,1.388-.187,4.558,4.558,0,0,1,.937.084,1.181,1.181,0,0,1,.334.086" transform="translate(-172.478 -203.288)" fill="#263238"/>
              <path id="Trazado_772865" data-name="Trazado 772865" d="M268.615,313.678c-.006,0,.006-.036.035-.1a.919.919,0,0,1,.17-.241,1.741,1.741,0,0,1,.964-.479,4.907,4.907,0,0,1,1.594,0,9.135,9.135,0,0,1,1.891.459,8.29,8.29,0,0,1,3,1.836,6.362,6.362,0,0,1,.7.814,1.52,1.52,0,0,1,.2.337c-.031.023-.334-.449-.99-1.052a8.884,8.884,0,0,0-2.97-1.753,9.7,9.7,0,0,0-1.851-.465,5.109,5.109,0,0,0-1.545-.045,1.773,1.773,0,0,0-.936.4c-.18.165-.241.294-.258.285" transform="translate(-169.568 -197.46)" fill="#263238"/>
              <path id="Trazado_772866" data-name="Trazado 772866" d="M277.268,237.127a3.338,3.338,0,0,1-.124-.56c-.055-.175-.135-.385-.219-.631-.118-.232-.233-.507-.4-.788a11.117,11.117,0,0,0-1.383-1.84,14.79,14.79,0,0,0-2.12-1.865,12.746,12.746,0,0,0-4.635-2.129,9.608,9.608,0,0,0-1.543-.2,3.434,3.434,0,0,1-.574-.046,3.151,3.151,0,0,1,.576-.028,8.118,8.118,0,0,1,1.568.138,12.188,12.188,0,0,1,4.72,2.106,14.205,14.205,0,0,1,2.138,1.9,10.548,10.548,0,0,1,1.371,1.893c.164.29.273.574.383.815.076.255.147.473.191.654a3.265,3.265,0,0,1,.051.577" transform="translate(-168.087 -144.584)" fill="#263238"/>
              <path id="Trazado_772867" data-name="Trazado 772867" d="M370.174,315.677a.68.68,0,0,1-.009-.132c0-.1,0-.224-.008-.385-.01-.338-.024-.838-.073-1.48a20.6,20.6,0,0,0-1.091-5.313,7.522,7.522,0,0,0-.744-1.624,3.183,3.183,0,0,0-1.438-1.22,12.757,12.757,0,0,0-4.233-.547l-9.9-.416c-8.179-.355-15.454-.663-20.025-.907l.061-.049c-.276,1.679-.495,3.01-.647,3.935q-.116.67-.18,1.043c-.021.11-.038.2-.051.268a.394.394,0,0,1-.022.09.424.424,0,0,1,.006-.092c.009-.069.02-.158.034-.27q.053-.373.149-1.048c.139-.927.34-2.261.593-3.945l.008-.052.053,0,20.027.833,9.9.431c.761.038,1.5.056,2.225.115a6.481,6.481,0,0,1,2.065.463,3.339,3.339,0,0,1,1.5,1.285,7.613,7.613,0,0,1,.749,1.659,19.979,19.979,0,0,1,1.038,5.353c.038.645.039,1.146.037,1.485,0,.162-.008.289-.011.386a.679.679,0,0,1-.01.131" transform="translate(-209.464 -191.612)" fill="#263238"/>
              <path id="Trazado_772868" data-name="Trazado 772868" d="M419.8,271.248c.053,0,.1,2.975.1,6.645s-.043,6.645-.1,6.645-.1-2.975-.1-6.645.043-6.645.1-6.645" transform="translate(-264.944 -171.231)" fill="#263238"/>
              <path id="Trazado_772869" data-name="Trazado 772869" d="M250.243,230.18s-.023.084-.076.245-.144.4-.222.719c-.179.639-.406,1.593-.66,2.836-.514,2.484-1.146,6.119-1.855,10.67-.352,2.276-.728,4.781-1.1,7.488-.188,1.352-.3,2.761-.4,4.22s-.174,2.965-.23,4.515c-.112,3.1-.178,6.375-.089,9.786.026.853.058,1.714.129,2.58.022.435.093.863.146,1.3a10.461,10.461,0,0,0,.315,1.273,7.241,7.241,0,0,0,1.222,2.335,5.268,5.268,0,0,0,2.1,1.615l.012,0,0,0A31.928,31.928,0,0,0,255,281.853c1.906.571,3.875,1.032,5.875,1.443a80.933,80.933,0,0,0,13.2,1.607,61.424,61.424,0,0,0,6.3-.164c2.053-.142,4.055-.357,5.991-.644a63.2,63.2,0,0,0,10.753-2.5,55.151,55.151,0,0,0,8.694-3.73l.01.119L293.9,273.762l-3.212-1.147-.83-.3c-.186-.069-.28-.108-.28-.108s.1.028.286.091l.837.284,3.223,1.114,11.947,4.166.141.049-.131.071a54.939,54.939,0,0,1-8.707,3.764,63.06,63.06,0,0,1-10.776,2.524c-1.941.291-3.946.508-6,.653a61.514,61.514,0,0,1-6.32.17,80.786,80.786,0,0,1-13.233-1.607c-2-.412-3.979-.874-5.891-1.448a32.047,32.047,0,0,1-5.5-2.105l.015.007a5.434,5.434,0,0,1-2.184-1.677,7.432,7.432,0,0,1-1.252-2.4,10.534,10.534,0,0,1-.319-1.3c-.055-.44-.126-.877-.147-1.313-.07-.871-.1-1.735-.126-2.589-.086-3.419-.015-6.7.1-9.8q.088-2.327.24-4.52c.1-1.46.221-2.875.413-4.23.376-2.708.759-5.212,1.119-7.487.726-4.55,1.377-8.183,1.911-10.665.265-1.241.5-2.194.693-2.831.083-.322.184-.555.239-.716s.092-.239.092-.239" transform="translate(-154.91 -145.306)" fill="#263238"/>
              <path id="Trazado_772870" data-name="Trazado 772870" d="M291.7,280.826c4.538-5.025,4.339-13.961,1.734-20.3-.24,6.869-1.051,12.959-1.672,19.634" transform="translate(-184.141 -164.461)" fill="#e0e0e0"/>
              <path id="Trazado_772871" data-name="Trazado 772871" d="M293.5,264.015a.942.942,0,0,1,0,.22c-.011.164-.024.372-.041.628-.045.57-.106,1.351-.181,2.3-.162,1.968-.382,4.643-.626,7.6s-.441,5.633-.6,7.6c-.072.954-.131,1.735-.174,2.3-.022.255-.04.462-.054.626a.955.955,0,0,1-.032.218.936.936,0,0,1-.007-.22c0-.164.011-.372.018-.628.018-.546.058-1.334.112-2.309.112-1.949.3-4.639.54-7.608s.489-5.653.682-7.6c.1-.952.182-1.731.242-2.3.031-.254.056-.461.077-.624a.933.933,0,0,1,.04-.216" transform="translate(-184.195 -166.665)" fill="#263238"/>
              <path id="Trazado_772872" data-name="Trazado 772872" d="M326.609,239.392c.053,0,.1,1.744.1,3.9s-.043,3.9-.1,3.9-.1-1.744-.1-3.9.043-3.9.1-3.9" transform="translate(-206.118 -151.121)" fill="#263238"/>
              <path id="Trazado_772873" data-name="Trazado 772873" d="M318.755,263.737a3.989,3.989,0,0,0,.835,2.066,2.72,2.72,0,0,0,1.992,1.057,3.035,3.035,0,0,0,2.68-1.344,7.634,7.634,0,0,0,.378-5.829,3.366,3.366,0,0,0-2.756-2.236,3.047,3.047,0,0,0-2.986,2.32" transform="translate(-201.22 -162.52)" fill="#e0e0e0"/>
              <path id="Trazado_772874" data-name="Trazado 772874" d="M318.89,259.647a2.485,2.485,0,0,1,.3-.8,3.27,3.27,0,0,1,.609-.8,2.835,2.835,0,0,1,1.148-.674,2.9,2.9,0,0,1,.771-.123,2.341,2.341,0,0,1,.844.111,3.323,3.323,0,0,1,1.506,1.08,4.343,4.343,0,0,1,.886,1.844,7.932,7.932,0,0,1,.164,2.185,6.037,6.037,0,0,1-.941,3.182,2.848,2.848,0,0,1-1.224.923,3.328,3.328,0,0,1-1.386.233h.011a2.086,2.086,0,0,1-.993-.246,3.28,3.28,0,0,1-.747-.521,3.712,3.712,0,0,1-.813-1.212,3.559,3.559,0,0,1-.258-.9,2.313,2.313,0,0,1-.023-.243c0-.055,0-.084,0-.084a4.957,4.957,0,0,0,.36,1.186,3.743,3.743,0,0,0,.817,1.155,3.193,3.193,0,0,0,.725.486,1.954,1.954,0,0,0,.921.218h.011a2.949,2.949,0,0,0,2.451-1.11,5.925,5.925,0,0,0,.895-3.082,5.6,5.6,0,0,0-1-3.907,3.18,3.18,0,0,0-1.419-1.04,2.189,2.189,0,0,0-.791-.114,2.765,2.765,0,0,0-1.85.728,3.345,3.345,0,0,0-.617.756,6.877,6.877,0,0,0-.365.758" transform="translate(-201.213 -162.396)" fill="#263238"/>
              <path id="Trazado_772875" data-name="Trazado 772875" d="M316.414,263.935a3.989,3.989,0,0,0,.835,2.066,2.719,2.719,0,0,0,1.992,1.057,3.035,3.035,0,0,0,2.68-1.344,7.633,7.633,0,0,0,.378-5.829,3.366,3.366,0,0,0-2.756-2.236,3.047,3.047,0,0,0-2.986,2.32" transform="translate(-199.742 -162.645)" fill="#e0e0e0"/>
              <path id="Trazado_772876" data-name="Trazado 772876" d="M316.549,259.845a2.485,2.485,0,0,1,.3-.8,3.27,3.27,0,0,1,.609-.8,2.833,2.833,0,0,1,1.148-.674,2.883,2.883,0,0,1,.771-.124,2.341,2.341,0,0,1,.844.111,3.326,3.326,0,0,1,1.506,1.08,4.347,4.347,0,0,1,.885,1.844,7.933,7.933,0,0,1,.164,2.185,6.038,6.038,0,0,1-.941,3.182,2.851,2.851,0,0,1-1.224.923,3.331,3.331,0,0,1-1.386.233h.011a2.086,2.086,0,0,1-.993-.246,3.28,3.28,0,0,1-.747-.521,3.715,3.715,0,0,1-.813-1.212,3.581,3.581,0,0,1-.258-.9,2.307,2.307,0,0,1-.023-.243c0-.055,0-.084,0-.084a4.98,4.98,0,0,0,.36,1.186,3.742,3.742,0,0,0,.817,1.155,3.193,3.193,0,0,0,.725.486,1.955,1.955,0,0,0,.921.218h.011a2.949,2.949,0,0,0,2.451-1.11,5.925,5.925,0,0,0,.895-3.082,5.6,5.6,0,0,0-1-3.907,3.178,3.178,0,0,0-1.419-1.04,2.187,2.187,0,0,0-.791-.114,2.765,2.765,0,0,0-1.85.728,3.343,3.343,0,0,0-.617.756,6.874,6.874,0,0,0-.365.758" transform="translate(-199.735 -162.521)" fill="#263238"/>
              <path id="Trazado_772877" data-name="Trazado 772877" d="M316.878,262.77a1.9,1.9,0,0,0-1.98,1.141,3.273,3.273,0,0,0,0,2.406,2.982,2.982,0,0,0,.614,1.084,1.62,1.62,0,0,0,1.1.535,1.915,1.915,0,0,0,1.522-.9,3.433,3.433,0,0,0,.52-2.829c-.168-.639-.639-1.295-1.3-1.312" transform="translate(-198.642 -165.861)" fill="#e0e0e0"/>
              <path id="Trazado_772878" data-name="Trazado 772878" d="M317.217,262.848a.356.356,0,0,1,.147,0,1.027,1.027,0,0,1,.4.136,1.963,1.963,0,0,1,.843,1.269,3.485,3.485,0,0,1-.228,2.257,2.937,2.937,0,0,1-.827,1.085,1.6,1.6,0,0,1-1.423.341,1.982,1.982,0,0,1-1.137-.929,4.153,4.153,0,0,1-.473-1.274,2.837,2.837,0,0,1,.368-2.228,1.98,1.98,0,0,1,1.287-.818,1.41,1.41,0,0,1,.421,0,.421.421,0,0,1,.141.04,2.751,2.751,0,0,0-.548.035,1.956,1.956,0,0,0-1.189.823,2.73,2.73,0,0,0-.306,2.113,4.037,4.037,0,0,0,.461,1.212,1.805,1.805,0,0,0,1.027.841,1.414,1.414,0,0,0,1.256-.3,2.79,2.79,0,0,0,.782-1.012,3.406,3.406,0,0,0,.256-2.152,1.939,1.939,0,0,0-.75-1.236,1.55,1.55,0,0,0-.507-.2" transform="translate(-198.499 -165.814)" fill="#263238"/>
              <path id="Trazado_772879" data-name="Trazado 772879" d="M322.387,277.656c-.029.007-.07-.116-.2-.264a1.368,1.368,0,0,0-.629-.4,3.438,3.438,0,0,0-.774-.121c-.206-.015-.336-.031-.337-.058s.126-.057.336-.077a2.166,2.166,0,0,1,.833.073,1.225,1.225,0,0,1,.682.508c.115.195.108.34.086.343" transform="translate(-202.29 -174.686)" fill="#263238"/>
              <path id="Trazado_772880" data-name="Trazado 772880" d="M322.788,261.45c.017.016-.057.132-.229.267a1.835,1.835,0,0,1-1.624.294c-.208-.067-.318-.149-.308-.171a2.77,2.77,0,0,0,2.16-.39" transform="translate(-202.402 -165.043)" fill="#263238"/>
              <path id="Trazado_772881" data-name="Trazado 772881" d="M395.2,189.824c0-.006.045.01.121.045a3.51,3.51,0,0,1,.328.17,6.683,6.683,0,0,1,1.1.79,7.928,7.928,0,0,1,2.374,3.756,23.994,23.994,0,0,1,.9,4.372c.064.568.1,1.028.12,1.347a2.451,2.451,0,0,1,.01.5,2.468,2.468,0,0,1-.084-.489c-.048-.353-.108-.8-.18-1.337a28.224,28.224,0,0,0-.953-4.334,8.168,8.168,0,0,0-2.28-3.709,12.574,12.574,0,0,0-1.463-1.105" transform="translate(-249.477 -119.829)" fill="#263238"/>
              <path id="Trazado_772882" data-name="Trazado 772882" d="M382.506,298.1c1.069-.041,1.923-1.107,2.99-1.049a1.486,1.486,0,1,1-.25,2.96c-1.122-.13-1.778-1.445-2.879-1.7" transform="translate(-241.377 -187.519)" fill="#263238"/>
              <path id="Trazado_772883" data-name="Trazado 772883" d="M386.946,249.743a6.359,6.359,0,0,1-1-.083L386,249.3a4.244,4.244,0,0,0,3.3-.643,6.155,6.155,0,0,0,2.091-4.265l.011-.077c.121-.8.287-16.575.288-19.569a5.107,5.107,0,0,0-4.28-5.34c-.166-.031-3.9-.654-5.878,4.454-2.073,5.35-5.387,15.658-5.607,16.866-.027.148-.068.331-.115.544-.345,1.547-1.062,4.765,1.085,6.62,2.393,2.066,4.281,1.267,4.36,1.232l.151.336c-.088.039-2.171.94-4.752-1.29-2.314-2-1.564-5.362-1.2-6.979.046-.207.086-.385.112-.529.221-1.218,3.547-11.57,5.626-16.934,2.094-5.406,6.239-4.694,6.281-4.685a5.548,5.548,0,0,1,4.589,5.7c0,2.467-.164,18.77-.292,19.623l-.011.076a6.5,6.5,0,0,1-2.237,4.508,4.238,4.238,0,0,1-2.573.794" transform="translate(-236.753 -138.249)" fill="#263238"/>
              <path id="Trazado_772884" data-name="Trazado 772884" d="M402.057,234.378a6.88,6.88,0,0,0-.768-1.838,6.251,6.251,0,0,0-3.826-2.7,6.933,6.933,0,0,0-4.668.608,8.233,8.233,0,0,0-1.623,1.163s.024-.043.084-.113a3.217,3.217,0,0,1,.276-.294,5.563,5.563,0,0,1,1.2-.875,6.851,6.851,0,0,1,4.776-.676,6.3,6.3,0,0,1,2.433,1.166,6.125,6.125,0,0,1,1.465,1.647,4.884,4.884,0,0,1,.569,1.372,2.842,2.842,0,0,1,.074.4.385.385,0,0,1,.009.14" transform="translate(-246.935 -144.869)" fill="#263238"/>
              <path id="Trazado_772885" data-name="Trazado 772885" d="M431.638,313.018a12.7,12.7,0,0,0-.506-1.573,6.87,6.87,0,0,0-2.5-3,5.4,5.4,0,0,0-2.029-.732,17.892,17.892,0,0,0-1.786-.185l-1.214-.084a2,2,0,0,1-.444-.061,2.047,2.047,0,0,1,.447-.014l1.218.023a15.248,15.248,0,0,1,1.808.146,5.4,5.4,0,0,1,2.1.745,6.685,6.685,0,0,1,2.523,3.111,5.922,5.922,0,0,1,.337,1.178,1.7,1.7,0,0,1,.044.447" transform="translate(-267.126 -194.031)" fill="#263238"/>
              <path id="Trazado_772886" data-name="Trazado 772886" d="M395.715,288.9s3.626-5.492,4.552-6.212,8.84-4.293,9.768-3.718.357,1.821.357,1.821,3.35-1.174,3.707-.711a1.657,1.657,0,0,1,0,1.889s1.854-.285,1.854.285a2.348,2.348,0,0,1-1.069,1.925c-.855.642-6.419,4.345-6.865,5.368l-1.8-.11Z" transform="translate(-249.803 -176.063)" fill="#b78876"/>
              <path id="Trazado_772887" data-name="Trazado 772887" d="M424.012,292.605a1.31,1.31,0,0,1,.166-.346,6.449,6.449,0,0,1,.6-.859,9.984,9.984,0,0,1,2.63-2.214,19.849,19.849,0,0,1,3.111-1.462c.41-.156.745-.275.978-.353a.192.192,0,1,1,.027.07l-.955.409a25.189,25.189,0,0,0-3.062,1.5,11.013,11.013,0,0,0-2.625,2.137c-.574.655-.835,1.135-.865,1.117" transform="translate(-267.665 -181.343)" fill="#aa6550"/>
              <path id="Trazado_772888" data-name="Trazado 772888" d="M411.538,290.335a1.94,1.94,0,0,1,.176-.4c.125-.254.309-.619.557-1.061a10.133,10.133,0,0,1,1-1.48,4.664,4.664,0,0,1,.76-.753c.306-.206.628-.4.961-.6a26.483,26.483,0,0,1,3.54-1.766,10.379,10.379,0,0,1,1.139-.381,1.935,1.935,0,0,1,.434-.077c.008.032-.6.174-1.522.584a33.654,33.654,0,0,0-3.494,1.805c-.33.2-.653.389-.951.587a4.712,4.712,0,0,0-.731.712,11.2,11.2,0,0,0-1.018,1.434l-.609,1.028a1.936,1.936,0,0,1-.242.368" transform="translate(-259.79 -179.162)" fill="#aa6550"/>
            </g>
          </g>
          <g id="Grupo_1043408" data-name="Grupo 1043408">
            <g id="Grupo_1043407" data-name="Grupo 1043407" clip-path="url(#clip-path)">
              <path id="Trazado_772889" data-name="Trazado 772889" d="M248.495,403.227c0,.053-55.632.1-124.242.1C55.62,403.323,0,403.28,0,403.227s55.62-.1,124.253-.1c68.61,0,124.242.043,124.242.1" transform="translate(0 -254.484)" fill="#263238"/>
            </g>
          </g>
        </g>
      </g>
      <g id="Grupo_1043411" data-name="Grupo 1043411" transform="translate(-898.785 14788.957)">
        <g id="Grupo_985886" data-name="Grupo 985886" transform="translate(1080.16 535)">
          <path id="Trazado_113856" data-name="Trazado 113856" d="M2.156-2a1.084,1.084,0,0,1,.82.3,1.045,1.045,0,0,1,.289.754,1.008,1.008,0,0,1-.289.738,1.1,1.1,0,0,1-.82.293,1.1,1.1,0,0,1-.8-.289.991.991,0,0,1-.3-.742A1.045,1.045,0,0,1,1.344-1.7,1.074,1.074,0,0,1,2.156-2Zm8.453,0a1.084,1.084,0,0,1,.82.3,1.045,1.045,0,0,1,.289.754,1.008,1.008,0,0,1-.289.738,1.1,1.1,0,0,1-.82.293A1.1,1.1,0,0,1,9.8-.2a.991.991,0,0,1-.3-.742A1.045,1.045,0,0,1,9.8-1.7,1.074,1.074,0,0,1,10.609-2Zm8.453,0a1.084,1.084,0,0,1,.82.3,1.045,1.045,0,0,1,.289.754,1.008,1.008,0,0,1-.289.738,1.1,1.1,0,0,1-.82.293,1.1,1.1,0,0,1-.8-.289.991.991,0,0,1-.3-.742A1.045,1.045,0,0,1,18.25-1.7,1.074,1.074,0,0,1,19.063-2Zm8.453,0a1.084,1.084,0,0,1,.82.3,1.045,1.045,0,0,1,.289.754,1.008,1.008,0,0,1-.289.738,1.1,1.1,0,0,1-.82.293,1.1,1.1,0,0,1-.8-.289.991.991,0,0,1-.3-.742A1.045,1.045,0,0,1,26.7-1.7,1.074,1.074,0,0,1,27.516-2Z" transform="translate(180 1657)" fill="#3bc192"/>
          <path id="Trazado_113857" data-name="Trazado 113857" d="M2.156-2a1.084,1.084,0,0,1,.82.3,1.045,1.045,0,0,1,.289.754,1.008,1.008,0,0,1-.289.738,1.1,1.1,0,0,1-.82.293,1.1,1.1,0,0,1-.8-.289.991.991,0,0,1-.3-.742A1.045,1.045,0,0,1,1.344-1.7,1.074,1.074,0,0,1,2.156-2Zm8.453,0a1.084,1.084,0,0,1,.82.3,1.045,1.045,0,0,1,.289.754,1.008,1.008,0,0,1-.289.738,1.1,1.1,0,0,1-.82.293A1.1,1.1,0,0,1,9.8-.2a.991.991,0,0,1-.3-.742A1.045,1.045,0,0,1,9.8-1.7,1.074,1.074,0,0,1,10.609-2Zm8.453,0a1.084,1.084,0,0,1,.82.3,1.045,1.045,0,0,1,.289.754,1.008,1.008,0,0,1-.289.738,1.1,1.1,0,0,1-.82.293,1.1,1.1,0,0,1-.8-.289.991.991,0,0,1-.3-.742A1.045,1.045,0,0,1,18.25-1.7,1.074,1.074,0,0,1,19.063-2Zm8.453,0a1.084,1.084,0,0,1,.82.3,1.045,1.045,0,0,1,.289.754,1.008,1.008,0,0,1-.289.738,1.1,1.1,0,0,1-.82.293,1.1,1.1,0,0,1-.8-.289.991.991,0,0,1-.3-.742A1.045,1.045,0,0,1,26.7-1.7,1.074,1.074,0,0,1,27.516-2Z" transform="translate(180 1665)" fill="#3bc192"/>
          <path id="Trazado_113858" data-name="Trazado 113858" d="M2.156-2a1.084,1.084,0,0,1,.82.3,1.045,1.045,0,0,1,.289.754,1.008,1.008,0,0,1-.289.738,1.1,1.1,0,0,1-.82.293,1.1,1.1,0,0,1-.8-.289.991.991,0,0,1-.3-.742A1.045,1.045,0,0,1,1.344-1.7,1.074,1.074,0,0,1,2.156-2Zm8.453,0a1.084,1.084,0,0,1,.82.3,1.045,1.045,0,0,1,.289.754,1.008,1.008,0,0,1-.289.738,1.1,1.1,0,0,1-.82.293A1.1,1.1,0,0,1,9.8-.2a.991.991,0,0,1-.3-.742A1.045,1.045,0,0,1,9.8-1.7,1.074,1.074,0,0,1,10.609-2Zm8.453,0a1.084,1.084,0,0,1,.82.3,1.045,1.045,0,0,1,.289.754,1.008,1.008,0,0,1-.289.738,1.1,1.1,0,0,1-.82.293,1.1,1.1,0,0,1-.8-.289.991.991,0,0,1-.3-.742A1.045,1.045,0,0,1,18.25-1.7,1.074,1.074,0,0,1,19.063-2Zm8.453,0a1.084,1.084,0,0,1,.82.3,1.045,1.045,0,0,1,.289.754,1.008,1.008,0,0,1-.289.738,1.1,1.1,0,0,1-.82.293,1.1,1.1,0,0,1-.8-.289.991.991,0,0,1-.3-.742A1.045,1.045,0,0,1,26.7-1.7,1.074,1.074,0,0,1,27.516-2Z" transform="translate(180 1674)" fill="#3bc192"/>
          <path id="Trazado_113855" data-name="Trazado 113855" d="M2.156-2a1.084,1.084,0,0,1,.82.3,1.045,1.045,0,0,1,.289.754,1.008,1.008,0,0,1-.289.738,1.1,1.1,0,0,1-.82.293,1.1,1.1,0,0,1-.8-.289.991.991,0,0,1-.3-.742A1.045,1.045,0,0,1,1.344-1.7,1.074,1.074,0,0,1,2.156-2Zm8.453,0a1.084,1.084,0,0,1,.82.3,1.045,1.045,0,0,1,.289.754,1.008,1.008,0,0,1-.289.738,1.1,1.1,0,0,1-.82.293A1.1,1.1,0,0,1,9.8-.2a.991.991,0,0,1-.3-.742A1.045,1.045,0,0,1,9.8-1.7,1.074,1.074,0,0,1,10.609-2Zm8.453,0a1.084,1.084,0,0,1,.82.3,1.045,1.045,0,0,1,.289.754,1.008,1.008,0,0,1-.289.738,1.1,1.1,0,0,1-.82.293,1.1,1.1,0,0,1-.8-.289.991.991,0,0,1-.3-.742A1.045,1.045,0,0,1,18.25-1.7,1.074,1.074,0,0,1,19.063-2Zm8.453,0a1.084,1.084,0,0,1,.82.3,1.045,1.045,0,0,1,.289.754,1.008,1.008,0,0,1-.289.738,1.1,1.1,0,0,1-.82.293,1.1,1.1,0,0,1-.8-.289.991.991,0,0,1-.3-.742A1.045,1.045,0,0,1,26.7-1.7,1.074,1.074,0,0,1,27.516-2Z" transform="translate(180 1682)" fill="#3bc192"/>
        </g>
        <g id="Grupo_985887" data-name="Grupo 985887" transform="translate(1046.16 535)">
          <path id="Trazado_113856-2" data-name="Trazado 113856" d="M2.156-2a1.084,1.084,0,0,1,.82.3,1.045,1.045,0,0,1,.289.754,1.008,1.008,0,0,1-.289.738,1.1,1.1,0,0,1-.82.293,1.1,1.1,0,0,1-.8-.289.991.991,0,0,1-.3-.742A1.045,1.045,0,0,1,1.344-1.7,1.074,1.074,0,0,1,2.156-2Zm8.453,0a1.084,1.084,0,0,1,.82.3,1.045,1.045,0,0,1,.289.754,1.008,1.008,0,0,1-.289.738,1.1,1.1,0,0,1-.82.293A1.1,1.1,0,0,1,9.8-.2a.991.991,0,0,1-.3-.742A1.045,1.045,0,0,1,9.8-1.7,1.074,1.074,0,0,1,10.609-2Zm8.453,0a1.084,1.084,0,0,1,.82.3,1.045,1.045,0,0,1,.289.754,1.008,1.008,0,0,1-.289.738,1.1,1.1,0,0,1-.82.293,1.1,1.1,0,0,1-.8-.289.991.991,0,0,1-.3-.742A1.045,1.045,0,0,1,18.25-1.7,1.074,1.074,0,0,1,19.063-2Zm8.453,0a1.084,1.084,0,0,1,.82.3,1.045,1.045,0,0,1,.289.754,1.008,1.008,0,0,1-.289.738,1.1,1.1,0,0,1-.82.293,1.1,1.1,0,0,1-.8-.289.991.991,0,0,1-.3-.742A1.045,1.045,0,0,1,26.7-1.7,1.074,1.074,0,0,1,27.516-2Z" transform="translate(180 1657)" fill="#3bc192"/>
          <path id="Trazado_113857-2" data-name="Trazado 113857" d="M2.156-2a1.084,1.084,0,0,1,.82.3,1.045,1.045,0,0,1,.289.754,1.008,1.008,0,0,1-.289.738,1.1,1.1,0,0,1-.82.293,1.1,1.1,0,0,1-.8-.289.991.991,0,0,1-.3-.742A1.045,1.045,0,0,1,1.344-1.7,1.074,1.074,0,0,1,2.156-2Zm8.453,0a1.084,1.084,0,0,1,.82.3,1.045,1.045,0,0,1,.289.754,1.008,1.008,0,0,1-.289.738,1.1,1.1,0,0,1-.82.293A1.1,1.1,0,0,1,9.8-.2a.991.991,0,0,1-.3-.742A1.045,1.045,0,0,1,9.8-1.7,1.074,1.074,0,0,1,10.609-2Zm8.453,0a1.084,1.084,0,0,1,.82.3,1.045,1.045,0,0,1,.289.754,1.008,1.008,0,0,1-.289.738,1.1,1.1,0,0,1-.82.293,1.1,1.1,0,0,1-.8-.289.991.991,0,0,1-.3-.742A1.045,1.045,0,0,1,18.25-1.7,1.074,1.074,0,0,1,19.063-2Zm8.453,0a1.084,1.084,0,0,1,.82.3,1.045,1.045,0,0,1,.289.754,1.008,1.008,0,0,1-.289.738,1.1,1.1,0,0,1-.82.293,1.1,1.1,0,0,1-.8-.289.991.991,0,0,1-.3-.742A1.045,1.045,0,0,1,26.7-1.7,1.074,1.074,0,0,1,27.516-2Z" transform="translate(180 1665)" fill="#3bc192"/>
          <path id="Trazado_113858-2" data-name="Trazado 113858" d="M2.156-2a1.084,1.084,0,0,1,.82.3,1.045,1.045,0,0,1,.289.754,1.008,1.008,0,0,1-.289.738,1.1,1.1,0,0,1-.82.293,1.1,1.1,0,0,1-.8-.289.991.991,0,0,1-.3-.742A1.045,1.045,0,0,1,1.344-1.7,1.074,1.074,0,0,1,2.156-2Zm8.453,0a1.084,1.084,0,0,1,.82.3,1.045,1.045,0,0,1,.289.754,1.008,1.008,0,0,1-.289.738,1.1,1.1,0,0,1-.82.293A1.1,1.1,0,0,1,9.8-.2a.991.991,0,0,1-.3-.742A1.045,1.045,0,0,1,9.8-1.7,1.074,1.074,0,0,1,10.609-2Zm8.453,0a1.084,1.084,0,0,1,.82.3,1.045,1.045,0,0,1,.289.754,1.008,1.008,0,0,1-.289.738,1.1,1.1,0,0,1-.82.293,1.1,1.1,0,0,1-.8-.289.991.991,0,0,1-.3-.742A1.045,1.045,0,0,1,18.25-1.7,1.074,1.074,0,0,1,19.063-2Zm8.453,0a1.084,1.084,0,0,1,.82.3,1.045,1.045,0,0,1,.289.754,1.008,1.008,0,0,1-.289.738,1.1,1.1,0,0,1-.82.293,1.1,1.1,0,0,1-.8-.289.991.991,0,0,1-.3-.742A1.045,1.045,0,0,1,26.7-1.7,1.074,1.074,0,0,1,27.516-2Z" transform="translate(180 1674)" fill="#3bc192"/>
          <path id="Trazado_113855-2" data-name="Trazado 113855" d="M2.156-2a1.084,1.084,0,0,1,.82.3,1.045,1.045,0,0,1,.289.754,1.008,1.008,0,0,1-.289.738,1.1,1.1,0,0,1-.82.293,1.1,1.1,0,0,1-.8-.289.991.991,0,0,1-.3-.742A1.045,1.045,0,0,1,1.344-1.7,1.074,1.074,0,0,1,2.156-2Zm8.453,0a1.084,1.084,0,0,1,.82.3,1.045,1.045,0,0,1,.289.754,1.008,1.008,0,0,1-.289.738,1.1,1.1,0,0,1-.82.293A1.1,1.1,0,0,1,9.8-.2a.991.991,0,0,1-.3-.742A1.045,1.045,0,0,1,9.8-1.7,1.074,1.074,0,0,1,10.609-2Zm8.453,0a1.084,1.084,0,0,1,.82.3,1.045,1.045,0,0,1,.289.754,1.008,1.008,0,0,1-.289.738,1.1,1.1,0,0,1-.82.293,1.1,1.1,0,0,1-.8-.289.991.991,0,0,1-.3-.742A1.045,1.045,0,0,1,18.25-1.7,1.074,1.074,0,0,1,19.063-2Zm8.453,0a1.084,1.084,0,0,1,.82.3,1.045,1.045,0,0,1,.289.754,1.008,1.008,0,0,1-.289.738,1.1,1.1,0,0,1-.82.293,1.1,1.1,0,0,1-.8-.289.991.991,0,0,1-.3-.742A1.045,1.045,0,0,1,26.7-1.7,1.074,1.074,0,0,1,27.516-2Z" transform="translate(180 1682)" fill="#3bc192"/>
        </g>
        <g id="Grupo_985888" data-name="Grupo 985888" transform="translate(1046.16 501)">
          <path id="Trazado_113856-3" data-name="Trazado 113856" d="M2.156-2a1.084,1.084,0,0,1,.82.3,1.045,1.045,0,0,1,.289.754,1.008,1.008,0,0,1-.289.738,1.1,1.1,0,0,1-.82.293,1.1,1.1,0,0,1-.8-.289.991.991,0,0,1-.3-.742A1.045,1.045,0,0,1,1.344-1.7,1.074,1.074,0,0,1,2.156-2Zm8.453,0a1.084,1.084,0,0,1,.82.3,1.045,1.045,0,0,1,.289.754,1.008,1.008,0,0,1-.289.738,1.1,1.1,0,0,1-.82.293A1.1,1.1,0,0,1,9.8-.2a.991.991,0,0,1-.3-.742A1.045,1.045,0,0,1,9.8-1.7,1.074,1.074,0,0,1,10.609-2Zm8.453,0a1.084,1.084,0,0,1,.82.3,1.045,1.045,0,0,1,.289.754,1.008,1.008,0,0,1-.289.738,1.1,1.1,0,0,1-.82.293,1.1,1.1,0,0,1-.8-.289.991.991,0,0,1-.3-.742A1.045,1.045,0,0,1,18.25-1.7,1.074,1.074,0,0,1,19.063-2Zm8.453,0a1.084,1.084,0,0,1,.82.3,1.045,1.045,0,0,1,.289.754,1.008,1.008,0,0,1-.289.738,1.1,1.1,0,0,1-.82.293,1.1,1.1,0,0,1-.8-.289.991.991,0,0,1-.3-.742A1.045,1.045,0,0,1,26.7-1.7,1.074,1.074,0,0,1,27.516-2Z" transform="translate(180 1657)" fill="#3bc192"/>
          <path id="Trazado_113857-3" data-name="Trazado 113857" d="M2.156-2a1.084,1.084,0,0,1,.82.3,1.045,1.045,0,0,1,.289.754,1.008,1.008,0,0,1-.289.738,1.1,1.1,0,0,1-.82.293,1.1,1.1,0,0,1-.8-.289.991.991,0,0,1-.3-.742A1.045,1.045,0,0,1,1.344-1.7,1.074,1.074,0,0,1,2.156-2Zm8.453,0a1.084,1.084,0,0,1,.82.3,1.045,1.045,0,0,1,.289.754,1.008,1.008,0,0,1-.289.738,1.1,1.1,0,0,1-.82.293A1.1,1.1,0,0,1,9.8-.2a.991.991,0,0,1-.3-.742A1.045,1.045,0,0,1,9.8-1.7,1.074,1.074,0,0,1,10.609-2Zm8.453,0a1.084,1.084,0,0,1,.82.3,1.045,1.045,0,0,1,.289.754,1.008,1.008,0,0,1-.289.738,1.1,1.1,0,0,1-.82.293,1.1,1.1,0,0,1-.8-.289.991.991,0,0,1-.3-.742A1.045,1.045,0,0,1,18.25-1.7,1.074,1.074,0,0,1,19.063-2Zm8.453,0a1.084,1.084,0,0,1,.82.3,1.045,1.045,0,0,1,.289.754,1.008,1.008,0,0,1-.289.738,1.1,1.1,0,0,1-.82.293,1.1,1.1,0,0,1-.8-.289.991.991,0,0,1-.3-.742A1.045,1.045,0,0,1,26.7-1.7,1.074,1.074,0,0,1,27.516-2Z" transform="translate(180 1665)" fill="#3bc192"/>
          <path id="Trazado_113858-3" data-name="Trazado 113858" d="M2.156-2a1.084,1.084,0,0,1,.82.3,1.045,1.045,0,0,1,.289.754,1.008,1.008,0,0,1-.289.738,1.1,1.1,0,0,1-.82.293,1.1,1.1,0,0,1-.8-.289.991.991,0,0,1-.3-.742A1.045,1.045,0,0,1,1.344-1.7,1.074,1.074,0,0,1,2.156-2Zm8.453,0a1.084,1.084,0,0,1,.82.3,1.045,1.045,0,0,1,.289.754,1.008,1.008,0,0,1-.289.738,1.1,1.1,0,0,1-.82.293A1.1,1.1,0,0,1,9.8-.2a.991.991,0,0,1-.3-.742A1.045,1.045,0,0,1,9.8-1.7,1.074,1.074,0,0,1,10.609-2Zm8.453,0a1.084,1.084,0,0,1,.82.3,1.045,1.045,0,0,1,.289.754,1.008,1.008,0,0,1-.289.738,1.1,1.1,0,0,1-.82.293,1.1,1.1,0,0,1-.8-.289.991.991,0,0,1-.3-.742A1.045,1.045,0,0,1,18.25-1.7,1.074,1.074,0,0,1,19.063-2Zm8.453,0a1.084,1.084,0,0,1,.82.3,1.045,1.045,0,0,1,.289.754,1.008,1.008,0,0,1-.289.738,1.1,1.1,0,0,1-.82.293,1.1,1.1,0,0,1-.8-.289.991.991,0,0,1-.3-.742A1.045,1.045,0,0,1,26.7-1.7,1.074,1.074,0,0,1,27.516-2Z" transform="translate(180 1674)" fill="#3bc192"/>
          <path id="Trazado_113855-3" data-name="Trazado 113855" d="M2.156-2a1.084,1.084,0,0,1,.82.3,1.045,1.045,0,0,1,.289.754,1.008,1.008,0,0,1-.289.738,1.1,1.1,0,0,1-.82.293,1.1,1.1,0,0,1-.8-.289.991.991,0,0,1-.3-.742A1.045,1.045,0,0,1,1.344-1.7,1.074,1.074,0,0,1,2.156-2Zm8.453,0a1.084,1.084,0,0,1,.82.3,1.045,1.045,0,0,1,.289.754,1.008,1.008,0,0,1-.289.738,1.1,1.1,0,0,1-.82.293A1.1,1.1,0,0,1,9.8-.2a.991.991,0,0,1-.3-.742A1.045,1.045,0,0,1,9.8-1.7,1.074,1.074,0,0,1,10.609-2Zm8.453,0a1.084,1.084,0,0,1,.82.3,1.045,1.045,0,0,1,.289.754,1.008,1.008,0,0,1-.289.738,1.1,1.1,0,0,1-.82.293,1.1,1.1,0,0,1-.8-.289.991.991,0,0,1-.3-.742A1.045,1.045,0,0,1,18.25-1.7,1.074,1.074,0,0,1,19.063-2Zm8.453,0a1.084,1.084,0,0,1,.82.3,1.045,1.045,0,0,1,.289.754,1.008,1.008,0,0,1-.289.738,1.1,1.1,0,0,1-.82.293,1.1,1.1,0,0,1-.8-.289.991.991,0,0,1-.3-.742A1.045,1.045,0,0,1,26.7-1.7,1.074,1.074,0,0,1,27.516-2Z" transform="translate(180 1682)" fill="#3bc192"/>
        </g>
        <g id="Grupo_985889" data-name="Grupo 985889" transform="translate(1080.16 501)">
          <path id="Trazado_113856-4" data-name="Trazado 113856" d="M2.156-2a1.084,1.084,0,0,1,.82.3,1.045,1.045,0,0,1,.289.754,1.008,1.008,0,0,1-.289.738,1.1,1.1,0,0,1-.82.293,1.1,1.1,0,0,1-.8-.289.991.991,0,0,1-.3-.742A1.045,1.045,0,0,1,1.344-1.7,1.074,1.074,0,0,1,2.156-2Zm8.453,0a1.084,1.084,0,0,1,.82.3,1.045,1.045,0,0,1,.289.754,1.008,1.008,0,0,1-.289.738,1.1,1.1,0,0,1-.82.293A1.1,1.1,0,0,1,9.8-.2a.991.991,0,0,1-.3-.742A1.045,1.045,0,0,1,9.8-1.7,1.074,1.074,0,0,1,10.609-2Zm8.453,0a1.084,1.084,0,0,1,.82.3,1.045,1.045,0,0,1,.289.754,1.008,1.008,0,0,1-.289.738,1.1,1.1,0,0,1-.82.293,1.1,1.1,0,0,1-.8-.289.991.991,0,0,1-.3-.742A1.045,1.045,0,0,1,18.25-1.7,1.074,1.074,0,0,1,19.063-2Zm8.453,0a1.084,1.084,0,0,1,.82.3,1.045,1.045,0,0,1,.289.754,1.008,1.008,0,0,1-.289.738,1.1,1.1,0,0,1-.82.293,1.1,1.1,0,0,1-.8-.289.991.991,0,0,1-.3-.742A1.045,1.045,0,0,1,26.7-1.7,1.074,1.074,0,0,1,27.516-2Z" transform="translate(180 1657)" fill="#3bc192"/>
          <path id="Trazado_113857-4" data-name="Trazado 113857" d="M2.156-2a1.084,1.084,0,0,1,.82.3,1.045,1.045,0,0,1,.289.754,1.008,1.008,0,0,1-.289.738,1.1,1.1,0,0,1-.82.293,1.1,1.1,0,0,1-.8-.289.991.991,0,0,1-.3-.742A1.045,1.045,0,0,1,1.344-1.7,1.074,1.074,0,0,1,2.156-2Zm8.453,0a1.084,1.084,0,0,1,.82.3,1.045,1.045,0,0,1,.289.754,1.008,1.008,0,0,1-.289.738,1.1,1.1,0,0,1-.82.293A1.1,1.1,0,0,1,9.8-.2a.991.991,0,0,1-.3-.742A1.045,1.045,0,0,1,9.8-1.7,1.074,1.074,0,0,1,10.609-2Zm8.453,0a1.084,1.084,0,0,1,.82.3,1.045,1.045,0,0,1,.289.754,1.008,1.008,0,0,1-.289.738,1.1,1.1,0,0,1-.82.293,1.1,1.1,0,0,1-.8-.289.991.991,0,0,1-.3-.742A1.045,1.045,0,0,1,18.25-1.7,1.074,1.074,0,0,1,19.063-2Zm8.453,0a1.084,1.084,0,0,1,.82.3,1.045,1.045,0,0,1,.289.754,1.008,1.008,0,0,1-.289.738,1.1,1.1,0,0,1-.82.293,1.1,1.1,0,0,1-.8-.289.991.991,0,0,1-.3-.742A1.045,1.045,0,0,1,26.7-1.7,1.074,1.074,0,0,1,27.516-2Z" transform="translate(180 1665)" fill="#3bc192"/>
          <path id="Trazado_113858-4" data-name="Trazado 113858" d="M2.156-2a1.084,1.084,0,0,1,.82.3,1.045,1.045,0,0,1,.289.754,1.008,1.008,0,0,1-.289.738,1.1,1.1,0,0,1-.82.293,1.1,1.1,0,0,1-.8-.289.991.991,0,0,1-.3-.742A1.045,1.045,0,0,1,1.344-1.7,1.074,1.074,0,0,1,2.156-2Zm8.453,0a1.084,1.084,0,0,1,.82.3,1.045,1.045,0,0,1,.289.754,1.008,1.008,0,0,1-.289.738,1.1,1.1,0,0,1-.82.293A1.1,1.1,0,0,1,9.8-.2a.991.991,0,0,1-.3-.742A1.045,1.045,0,0,1,9.8-1.7,1.074,1.074,0,0,1,10.609-2Zm8.453,0a1.084,1.084,0,0,1,.82.3,1.045,1.045,0,0,1,.289.754,1.008,1.008,0,0,1-.289.738,1.1,1.1,0,0,1-.82.293,1.1,1.1,0,0,1-.8-.289.991.991,0,0,1-.3-.742A1.045,1.045,0,0,1,18.25-1.7,1.074,1.074,0,0,1,19.063-2Zm8.453,0a1.084,1.084,0,0,1,.82.3,1.045,1.045,0,0,1,.289.754,1.008,1.008,0,0,1-.289.738,1.1,1.1,0,0,1-.82.293,1.1,1.1,0,0,1-.8-.289.991.991,0,0,1-.3-.742A1.045,1.045,0,0,1,26.7-1.7,1.074,1.074,0,0,1,27.516-2Z" transform="translate(180 1674)" fill="#3bc192"/>
          <path id="Trazado_113855-4" data-name="Trazado 113855" d="M2.156-2a1.084,1.084,0,0,1,.82.3,1.045,1.045,0,0,1,.289.754,1.008,1.008,0,0,1-.289.738,1.1,1.1,0,0,1-.82.293,1.1,1.1,0,0,1-.8-.289.991.991,0,0,1-.3-.742A1.045,1.045,0,0,1,1.344-1.7,1.074,1.074,0,0,1,2.156-2Zm8.453,0a1.084,1.084,0,0,1,.82.3,1.045,1.045,0,0,1,.289.754,1.008,1.008,0,0,1-.289.738,1.1,1.1,0,0,1-.82.293A1.1,1.1,0,0,1,9.8-.2a.991.991,0,0,1-.3-.742A1.045,1.045,0,0,1,9.8-1.7,1.074,1.074,0,0,1,10.609-2Zm8.453,0a1.084,1.084,0,0,1,.82.3,1.045,1.045,0,0,1,.289.754,1.008,1.008,0,0,1-.289.738,1.1,1.1,0,0,1-.82.293,1.1,1.1,0,0,1-.8-.289.991.991,0,0,1-.3-.742A1.045,1.045,0,0,1,18.25-1.7,1.074,1.074,0,0,1,19.063-2Zm8.453,0a1.084,1.084,0,0,1,.82.3,1.045,1.045,0,0,1,.289.754,1.008,1.008,0,0,1-.289.738,1.1,1.1,0,0,1-.82.293,1.1,1.1,0,0,1-.8-.289.991.991,0,0,1-.3-.742A1.045,1.045,0,0,1,26.7-1.7,1.074,1.074,0,0,1,27.516-2Z" transform="translate(180 1682)" fill="#3bc192"/>
        </g>
      </g>
      <path id="Trazado_772890" data-name="Trazado 772890" d="M-7271-10916h225" transform="translate(7621 28024.418)" fill="none" stroke="#3bc192" stroke-linecap="round" stroke-width="4"/>
    </g>
  </g>
</svg>
