<svg xmlns="http://www.w3.org/2000/svg" xmlns:xlink="http://www.w3.org/1999/xlink" width="295" height="186" viewBox="0 0 295 186">
  <defs>
    <clipPath id="clip-path">
      <path id="path984" d="M0-682.665H126.667V-556H0Z" transform="translate(0 682.665)"/>
    </clipPath>
  </defs>
  <g id="Grupo_1043416" data-name="Grupo 1043416" transform="translate(-1125 -17724.001)">
    <rect id="Rectángulo_355768" data-name="Rectángulo 355768" width="295" height="186" rx="12" transform="translate(1125 17724)" fill="#e0ebff"/>
    <g id="g978" transform="translate(1210 18435.998)">
      <g id="g980" transform="translate(0 -682.665)">
        <g id="g982" transform="translate(0 0)" clip-path="url(#clip-path)">
          <g id="g988" transform="translate(94.16 62.625)">
            <path id="path990" d="M-129.77-129.77h0a3.711,3.711,0,0,1-5.248,0l-24.316-24.316,5.248-5.248,24.316,24.316a3.711,3.711,0,0,1,0,5.248" transform="translate(159.334 159.334)" fill="#484b63"/>
          </g>
          <path id="path992" d="M87.93-489.983H10V-599.332H87.93Z" transform="translate(-8.145 614.794)" fill="#d8d5ed"/>
          <path id="path994" d="M68.177-232.285H53.333v-40.078H68.177Z" transform="translate(-43.437 348.494)" fill="#ff2c5c"/>
          <path id="path996" d="M193.51-297.441H178.666v-54.922H193.51Z" transform="translate(-145.515 413.65)" fill="#ffd659"/>
          <path id="path998" d="M321.51-273.551H306.666V-323.03H321.51Z" transform="translate(-249.765 389.759)" fill="#4fc6f5"/>
          <path id="path1000" d="M93.333-232.285h7.422v-40.078H93.333Z" transform="translate(-76.015 348.494)" fill="#e62753"/>
          <path id="path1002" d="M218.666-297.441h7.422v-54.922h-7.422Z" transform="translate(-178.093 413.65)" fill="#ffbd54"/>
          <path id="path1004" d="M346.666-273.551h7.422V-323.03h-7.422Z" transform="translate(-282.343 389.759)" fill="#3bb3e3"/>
          <g id="g1006" transform="translate(33.872 1.855)">
            <path id="path1008" d="M-294.755-50.572a39.336,39.336,0,0,1,0,55.629,39.336,39.336,0,0,1-55.629,0,39.336,39.336,0,0,1,0-55.629,39.336,39.336,0,0,1,55.629,0" transform="translate(361.905 62.093)" fill="#50536e"/>
          </g>
          <g id="g1010" transform="translate(41.309 9.292)">
            <path id="path1012" d="M-239.076-239.075a31.95,31.95,0,0,1-45.133,0,31.95,31.95,0,0,1,0-45.133,31.951,31.951,0,0,1,45.133,0,31.95,31.95,0,0,1,0,45.133" transform="translate(293.542 293.541)" fill="#b5fcff"/>
          </g>
          <g id="g1014" transform="translate(69.497 9.293)">
            <path id="path1016" d="M-115.345-40.96a31.873,31.873,0,0,0-26.278-9.117,31.76,31.76,0,0,1,18.856,9.117,31.95,31.95,0,0,1,0,45.133,31.758,31.758,0,0,1-18.856,9.117,31.873,31.873,0,0,0,26.278-9.117,31.95,31.95,0,0,0,0-45.133" transform="translate(141.622 50.291)" fill="#71f6fc"/>
          </g>
          <g id="g1018" transform="translate(98.276 66.257)">
            <path id="path1020" d="M-23.033,0l20.2,20.2a3.713,3.713,0,0,1,0,5.247,3.712,3.712,0,0,1-5.25,0l-20.2-20.2" transform="translate(28.28)" fill="none" stroke="#000" stroke-linecap="round" stroke-linejoin="round" stroke-miterlimit="10" stroke-width="1.5"/>
          </g>
          <g id="g1022" transform="translate(1.855 15.462)">
            <path id="path1024" d="M0-36.017v-8.205H41.6" transform="translate(0 44.223)" fill="none" stroke="#000" stroke-linecap="round" stroke-linejoin="round" stroke-miterlimit="10" stroke-width="1.5"/>
          </g>
          <g id="g1026" transform="translate(1.855 31.708)">
            <path id="path1028" d="M-342.072-382.068v6.061H-420v-93.1" transform="translate(420.002 469.11)" fill="none" stroke="#000" stroke-linecap="round" stroke-linejoin="round" stroke-miterlimit="10" stroke-width="1.5"/>
          </g>
          <g id="g1030" transform="translate(79.786 79.976)">
            <path id="path1032" d="M0,0V30.775" transform="translate(0)" fill="none" stroke="#000" stroke-linecap="round" stroke-linejoin="round" stroke-miterlimit="10" stroke-width="1.5"/>
          </g>
          <path id="path1034" d="M68.177-232.285H53.333v-40.078H68.177Z" transform="translate(-43.437 348.494)" fill="none" stroke="#000" stroke-linecap="round" stroke-linejoin="round" stroke-miterlimit="10" stroke-width="1.5"/>
          <g id="g1036" transform="translate(33.151 61.287)">
            <path id="path1038" d="M-65.156-44.339V.482H-80V-54.44h6.232" transform="translate(80 54.44)" fill="none" stroke="#000" stroke-linecap="round" stroke-linejoin="round" stroke-miterlimit="10" stroke-width="1.5"/>
          </g>
          <g id="g1040" transform="translate(56.901 76.999)">
            <path id="path1042" d="M-65.156-15.366V20.343H-80v-39.21" transform="translate(80 18.867)" fill="none" stroke="#000" stroke-linecap="round" stroke-linejoin="round" stroke-miterlimit="10" stroke-width="1.5"/>
          </g>
          <g id="g1044" transform="translate(12.864 25.415)">
            <path id="path1046" d="M-106.662,0h-24.3" transform="translate(130.961 0)" fill="none" stroke="#000" stroke-linecap="round" stroke-linejoin="round" stroke-miterlimit="10" stroke-width="1.5"/>
          </g>
          <g id="g1048" transform="translate(12.865 33.661)">
            <path id="path1050" d="M-95.379,0h-21.729" transform="translate(117.108 0)" fill="none" stroke="#000" stroke-linecap="round" stroke-linejoin="round" stroke-miterlimit="10" stroke-width="1.5"/>
          </g>
          <g id="g1052" transform="translate(12.865 41.906)">
            <path id="path1054" d="M-92.239,0h-21.014" transform="translate(113.253 0)" fill="none" stroke="#000" stroke-linecap="round" stroke-linejoin="round" stroke-miterlimit="10" stroke-width="1.5"/>
          </g>
          <g id="g1056" transform="translate(12.865 50.154)">
            <path id="path1058" d="M0,0H13.874" transform="translate(0 0)" fill="none" stroke="#000" stroke-linecap="round" stroke-linejoin="round" stroke-miterlimit="10" stroke-width="1.5"/>
          </g>
          <g id="g1060" transform="translate(33.872 1.856)">
            <path id="path1062" d="M-317.054-77.918a39.35,39.35,0,0,1-5.08,49.4,39.337,39.337,0,0,1-55.63,0,39.336,39.336,0,0,1,0-55.629,39.337,39.337,0,0,1,55.63,0l.1.1" transform="translate(389.284 95.669)" fill="none" stroke="#000" stroke-linecap="round" stroke-linejoin="round" stroke-miterlimit="10" stroke-width="1.5"/>
          </g>
          <g id="g1064" transform="translate(41.309 9.292)">
            <path id="path1066" d="M-239.076-239.075a31.95,31.95,0,0,1-45.133,0,31.95,31.95,0,0,1,0-45.133,31.951,31.951,0,0,1,45.133,0A31.95,31.95,0,0,1-239.076-239.075Z" transform="translate(293.542 293.541)" fill="none" stroke="#000" stroke-linecap="round" stroke-linejoin="round" stroke-miterlimit="10" stroke-width="1.5"/>
          </g>
        </g>
      </g>
    </g>
  </g>
</svg>
