<svg xmlns="http://www.w3.org/2000/svg" width="131" height="122" viewBox="0 0 131 122">
  <g id="Grupo_1043697" data-name="Grupo 1043697" transform="translate(-356 -19656)">
    <rect id="Rectángulo_355800" data-name="Rectángulo 355800" width="131" height="122" rx="12" transform="translate(356 19656)" fill="#fff8e8"/>
    <g id="observacion" transform="translate(-326.805 18821.855)">
      <path id="Trazado_772942" data-name="Trazado 772942" d="M3233.5,903.633a.229.229,0,0,1-.207-.328l3.391-7.112-7.008,0-3.146,11.734h3.44a.229.229,0,0,1,.219.3l-3.423,11.284,12.363-15.875Z" transform="translate(-2457.284 -41.047)" fill="#ff9070"/>
      <path id="Trazado_772943" data-name="Trazado 772943" d="M2947.108,3232.666a1.934,1.934,0,1,0,1.934,1.934A1.936,1.936,0,0,0,2947.108,3232.666Z" transform="translate(-2182.63 -2321.884)" fill="#fff"/>
      <path id="Trazado_772944" data-name="Trazado 772944" d="M2945.485,2394.168a1.61,1.61,0,0,0,1.618-1.575l.355-13.115a1.974,1.974,0,1,0-3.946,0l.354,13.115A1.61,1.61,0,0,0,2945.485,2394.168Z" transform="translate(-2181.005 -1487.032)" fill="#fff"/>
      <path id="Trazado_772945" data-name="Trazado 772945" d="M2190.184,2037.157l-.007,0h0a20.391,20.391,0,0,0-5.031,3.69c-.44.44-.864.9-1.261,1.38l-.01.013h0a20.341,20.341,0,0,0-4.611,10.771.233.233,0,0,1,.023.09.224.224,0,0,1-.05.148,20.424,20.424,0,1,0,10.955-16.1Zm21.247,6.249a16.781,16.781,0,1,1-11.865-4.915A16.8,16.8,0,0,1,2211.431,2043.405Z" transform="translate(-1434.829 -1152.596)" fill="#ffe573"/>
      <path id="Trazado_772946" data-name="Trazado 772946" d="M2356.8,2234.586a16.323,16.323,0,1,0,0-23.083A16.216,16.216,0,0,0,2356.8,2234.586Zm11.285.891a2.392,2.392,0,1,1,2.392-2.392A2.394,2.394,0,0,1,2368.082,2235.477Zm-1.743-24.412a2.432,2.432,0,0,1,4.173,1.762l-.354,13.115a2.077,2.077,0,0,1-4.153,0l-.354-13.115A2.411,2.411,0,0,1,2366.339,2211.065Z" transform="translate(-1603.603 -1320.37)" fill="#ff9070"/>
      <path id="Trazado_772947" data-name="Trazado 772947" d="M3514.3,3362.915a20.722,20.722,0,0,1-6.37,6.371l1.2,1.194a.2.2,0,0,1,.025.029l8.927,8.928a4.124,4.124,0,0,0,5.831,0l.54-.541a4.136,4.136,0,0,0,0-5.831Z" transform="translate(-2731.982 -2449.032)" fill="#ffe573"/>
      <path id="Trazado_772948" data-name="Trazado 772948" d="M1526.324,907.877a14.532,14.532,0,0,0,9-8.6.229.229,0,0,1,.422.178,16.632,16.632,0,0,1-3.346,5.156,8.589,8.589,0,0,0,6.317,4.144,6.855,6.855,0,0,0,6.112-1.966c-.99-8.491-7.07-14.18-15.2-14.18s-14.189,5.673-15.192,14.144A15.184,15.184,0,0,0,1526.324,907.877Z" transform="translate(-785.961 -37.546)" fill="#ffe573"/>
      <path id="Trazado_772949" data-name="Trazado 772949" d="M1446.034,1432.728c.4-.471.815-.931,1.251-1.367a20.845,20.845,0,0,1,5.1-3.745,19.271,19.271,0,0,0,2.583-4.775.23.23,0,0,1,.123-.13.226.226,0,0,1,.178,0,1.008,1.008,0,0,0,.382.087c1.322,0,2.669-3,2.669-5.946,0-2.044-.689-3.373-1.938-3.753a7.1,7.1,0,0,1-5.146,2.083,8.987,8.987,0,0,1-1.251-.089,9.1,9.1,0,0,1-6.59-4.26,14.415,14.415,0,0,1-5.593,3.366,15.715,15.715,0,0,1-4.839.755,14.807,14.807,0,0,1-7.351-1.884.247.247,0,0,1-.034.018c-1.268.367-1.967,1.7-1.967,3.765,0,2.945,1.347,5.946,2.67,5.946a1.008,1.008,0,0,0,.382-.087.228.228,0,0,1,.122-.01.237.237,0,0,1,.054.012h0a.234.234,0,0,1,.029.02.129.129,0,0,1,.067.066.213.213,0,0,1,.025.037s0,0,0,0l0,0c2.478,6.636,7.974,10.925,14,10.925A12.964,12.964,0,0,0,1446.034,1432.728Z" transform="translate(-697.293 -543.43)" fill="#fff"/>
      <path id="Trazado_772950" data-name="Trazado 772950" d="M2974.351,3642.127l-1.215-1.211a20.85,20.85,0,0,1-10.81,3.014c-.609,0-1.219-.03-1.826-.083v8.1h8.9a5.306,5.306,0,0,0,5.294-5.627C2974.613,3644.918,2974.5,3643.509,2974.351,3642.127Z" transform="translate(-2197.59 -2720.414)" fill="#82b8ff"/>
      <path id="Trazado_772951" data-name="Trazado 772951" d="M761.975,2468.772a.229.229,0,1,1,.458,0v19.248H800v-8.146a20.888,20.888,0,0,1-18.519-22.634c-.1,0-.2.006-.294.006a12.861,12.861,0,0,1-11.152-6.324l-1.4-2.325L760.7,2451a13.228,13.228,0,0,0-8.786,8.651,94.8,94.8,0,0,0-4.138,22.744,5.308,5.308,0,0,0,5.294,5.628h8.9v-19.248Z" transform="translate(-37.549 -1556.488)" fill="#82b8ff"/>
      <g id="Grupo_1043447" data-name="Grupo 1043447" transform="translate(710.221 855.061)">
        <path id="Trazado_772952" data-name="Trazado 772952" d="M1644.126,2250.946a12.416,12.416,0,0,0,11.107,6.092,20.768,20.768,0,0,1,4.187-10.285,13.365,13.365,0,0,1-4.5.785,14.1,14.1,0,0,1-9.189-3.553l-.852,2.527a3.6,3.6,0,0,1-2.095,2.193Z" transform="translate(-1621.468 -2211.806)" fill="#fff"/>
        <g id="Grupo_1043446" data-name="Grupo 1043446" transform="translate(59.023 0.085)">
          <path id="Trazado_772953" data-name="Trazado 772953" d="M3232.231,898.026h3.577l.874-1.832-7.008,0-3.146,11.734h2.323l2.466-9.2A.947.947,0,0,1,3232.231,898.026Z" transform="translate(-3226.528 -896.193)" fill="#fff"/>
          <path id="Trazado_772954" data-name="Trazado 772954" d="M3239.833,1395.121l-3.408,11.434,3.911-5.022,1.211-4.121A1.787,1.787,0,0,0,3239.833,1395.121Z" transform="translate(-3236.189 -1383.241)" fill="#fff"/>
        </g>
        <path id="Trazado_772955" data-name="Trazado 772955" d="M2181.067,2055.082a.225.225,0,0,0,.05-.148.23.23,0,0,0-.023-.09,20.342,20.342,0,0,1,4.611-10.772h0l.01-.013c.4-.476.821-.94,1.261-1.38a20.391,20.391,0,0,1,5.032-3.689h0l.007,0,.005,0a20.307,20.307,0,0,1,22.843,2.806c-.282-.32-.572-.636-.878-.942a20.318,20.318,0,0,0-23.8-3.7l-.005,0-.007,0h0a20.384,20.384,0,0,0-5.031,3.689c-.44.44-.864.9-1.261,1.38l-.01.013h0a20.343,20.343,0,0,0-4.611,10.771.232.232,0,0,1,.023.09.225.225,0,0,1-.05.149,20.317,20.317,0,0,0,5.91,16.438c.3.3.616.591.934.871A20.29,20.29,0,0,1,2181.067,2055.082Z" transform="translate(-2145.052 -2007.654)" fill="#fff"/>
        <path id="Trazado_772956" data-name="Trazado 772956" d="M1531.461,894.438a14.879,14.879,0,0,1,9.666,3.373,14.662,14.662,0,0,0-11.5-5.2c-8.115,0-14.189,5.673-15.192,14.144a12.47,12.47,0,0,0,1.963.922C1517.717,899.708,1523.64,894.438,1531.461,894.438Z" transform="translate(-1496.182 -892.606)" fill="#fff"/>
        <path id="Trazado_772957" data-name="Trazado 772957" d="M749.611,2484.223a94.8,94.8,0,0,1,4.138-22.744,13.228,13.228,0,0,1,8.786-8.651l7.316-2.211-1.213-2.019L760.7,2451a13.228,13.228,0,0,0-8.786,8.651,94.806,94.806,0,0,0-4.138,22.744,5.271,5.271,0,0,0,1.439,3.964,5.344,5.344,0,0,0,1.135.91A5.269,5.269,0,0,1,749.611,2484.223Z" transform="translate(-747.77 -2411.547)" fill="#fff"/>
      </g>
      <g id="Grupo_1043448" data-name="Grupo 1043448" transform="translate(709.305 886.167)">
        <path id="Trazado_772958" data-name="Trazado 772958" d="M771.812,2245.236H715.525a6.225,6.225,0,0,1-6.208-6.6,95.723,95.723,0,0,1,4.18-22.967,14.142,14.142,0,0,1,9.394-9.251l8.106-2.45a2.686,2.686,0,0,0,1.764-1.71l.957-2.838a.687.687,0,1,1,1.3.439l-.957,2.839a4.064,4.064,0,0,1-2.668,2.586l-8.105,2.45a12.771,12.771,0,0,0-8.482,8.351,94.331,94.331,0,0,0-4.118,22.633,4.85,4.85,0,0,0,4.837,5.143h56.287a4.848,4.848,0,0,0,4.837-5.142c-.084-1.42-.2-2.848-.35-4.246a.714.714,0,0,1,0-.073.687.687,0,0,1,1.372-.051c.149,1.412.268,2.855.353,4.287a6.222,6.222,0,0,1-6.208,6.6Z" transform="translate(-709.305 -2198.954)" fill="#001259"/>
      </g>
      <g id="Grupo_1043449" data-name="Grupo 1043449" transform="translate(730.508 891.154)">
        <path id="Trazado_772959" data-name="Trazado 772959" d="M1612.854,2418.437a13.313,13.313,0,0,1-11.543-6.546l-1.489-2.478a.687.687,0,0,1,1.177-.708l1.488,2.478a11.977,11.977,0,0,0,10.926,5.867.687.687,0,0,1,.06,1.373C1613.266,2418.433,1613.059,2418.437,1612.854,2418.437Z" transform="translate(-1599.724 -2408.373)" fill="#001259"/>
      </g>
      <g id="Grupo_1043450" data-name="Grupo 1043450" transform="translate(761.994 922.503)">
        <path id="Trazado_772960" data-name="Trazado 772960" d="M2922.725,3734.866a.687.687,0,0,1-.687-.687v-8.572a.687.687,0,0,1,1.374,0v8.572A.686.686,0,0,1,2922.725,3734.866Z" transform="translate(-2922.038 -3724.92)" fill="#001259"/>
      </g>
      <g id="Grupo_1043451" data-name="Grupo 1043451" transform="translate(723.968 911.598)">
        <path id="Trazado_772961" data-name="Trazado 772961" d="M1325.792,3287.8a.687.687,0,0,1-.687-.687v-19.477a.687.687,0,1,1,1.374,0v19.477A.687.687,0,0,1,1325.792,3287.8Z" transform="translate(-1325.105 -3266.949)" fill="#001259"/>
      </g>
      <g id="Grupo_1043452" data-name="Grupo 1043452" transform="translate(742.982 888.801)">
        <path id="Trazado_772962" data-name="Trazado 772962" d="M2124.273,2312.034a.687.687,0,0,1,0-1.374,12.509,12.509,0,0,0,4.941-1.019.687.687,0,0,1,.54,1.263A13.882,13.882,0,0,1,2124.273,2312.034Z" transform="translate(-2123.586 -2309.586)" fill="#001259"/>
      </g>
      <g id="Grupo_1043453" data-name="Grupo 1043453" transform="translate(725.398 854.145)">
        <path id="Trazado_772963" data-name="Trazado 772963" d="M1403.416,891.25c-6.243,0-11.937-4.286-14.645-10.969h-.04c-2.309,0-3.586-4.057-3.586-6.861,0-2.241.79-3.842,2.185-4.48,1.115-8.868,7.532-14.794,16.086-14.794s14.972,5.928,16.086,14.8c.883.415,2.184,1.527,2.184,4.477,0,2.8-1.277,6.861-3.585,6.861h-.04a20.049,20.049,0,0,1-2.521,4.493.687.687,0,1,1-1.1-.823,18.809,18.809,0,0,0,2.548-4.7.687.687,0,0,1,.905-.395.58.58,0,0,0,.207.053c.945,0,2.212-2.713,2.212-5.488,0-1.839-.581-3.019-1.636-3.325a.687.687,0,0,1-.492-.588c-.9-8.5-6.695-13.988-14.768-13.988s-13.871,5.491-14.768,13.988a.687.687,0,0,1-.492.588c-1.055.306-1.637,1.486-1.637,3.325,0,2.775,1.266,5.488,2.212,5.488a.581.581,0,0,0,.207-.053.687.687,0,0,1,.905.395c2.411,6.456,7.738,10.627,13.573,10.627a.687.687,0,0,1,0,1.374Z" transform="translate(-1385.146 -854.145)" fill="#001259"/>
      </g>
      <g id="Grupo_1043454" data-name="Grupo 1043454" transform="translate(725.398 868.748)">
        <path id="Trazado_772964" data-name="Trazado 772964" d="M1388.73,1478.952c-2.309,0-3.585-4.057-3.585-6.861,0-2.468.958-4.161,2.628-4.644a.687.687,0,1,1,.382,1.32c-1.055.306-1.636,1.486-1.636,3.325,0,2.775,1.266,5.488,2.212,5.488a.579.579,0,0,0,.207-.053.687.687,0,1,1,.524,1.27A1.9,1.9,0,0,1,1388.73,1478.952Z" transform="translate(-1385.145 -1467.419)" fill="#001259"/>
      </g>
      <g id="Grupo_1043455" data-name="Grupo 1043455" transform="translate(727.538 861.131)">
        <path id="Trazado_772965" data-name="Trazado 772965" d="M1483.16,1158.379a15.208,15.208,0,0,1-7.8-2.064.687.687,0,1,1,.71-1.176,14.68,14.68,0,0,0,11.642,1.157,14.086,14.086,0,0,0,8.715-8.345.687.687,0,0,1,1.265.535,15.422,15.422,0,0,1-9.556,9.116A16.177,16.177,0,0,1,1483.16,1158.379Z" transform="translate(-1475.03 -1147.532)" fill="#001259"/>
      </g>
      <g id="Grupo_1043456" data-name="Grupo 1043456" transform="translate(745.467 866.34)">
        <path id="Trazado_772966" data-name="Trazado 772966" d="M2236.444,1372.139a9.738,9.738,0,0,1-8.4-4.873.687.687,0,0,1,1.228-.617,8.078,8.078,0,0,0,6.048,4.035,6.41,6.41,0,0,0,5.786-1.893.687.687,0,0,1,1.01.932A7.534,7.534,0,0,1,2236.444,1372.139Z" transform="translate(-2227.967 -1366.271)" fill="#001259"/>
      </g>
      <g id="Grupo_1043457" data-name="Grupo 1043457" transform="translate(774.898 912.832)">
        <path id="Trazado_772967" data-name="Trazado 772967" d="M3478.066,3338.465a5.022,5.022,0,0,1-3.563-1.474l-8.952-8.952a.622.622,0,0,1-.044-.048l-1.353-1.348a.687.687,0,1,1,.97-.973l1.4,1.392a.658.658,0,0,1,.045.05l8.908,8.908a3.669,3.669,0,0,0,5.183,0l.541-.541a3.677,3.677,0,0,0,0-5.184l-10.353-10.353a.687.687,0,1,1,.971-.971l10.354,10.354a5.053,5.053,0,0,1,0,7.125l-.541.541A5.022,5.022,0,0,1,3478.066,3338.465Z" transform="translate(-3463.953 -3318.77)" fill="#001259"/>
      </g>
      <g id="Grupo_1043458" data-name="Grupo 1043458" transform="translate(743.384 881.343)">
        <path id="Trazado_772968" data-name="Trazado 772968" d="M2161.823,2038.993a21.311,21.311,0,0,1-16.385-34.937.687.687,0,0,1,1.056.88,19.923,19.923,0,1,0,6.152-4.957.687.687,0,0,1-.633-1.219,21.312,21.312,0,1,1,9.811,40.233Z" transform="translate(-2140.47 -1996.351)" fill="#001259"/>
      </g>
      <g id="Grupo_1043459" data-name="Grupo 1043459" transform="translate(748.192 883.674)">
        <path id="Trazado_772969" data-name="Trazado 772969" d="M2343.078,2100.749a.687.687,0,0,1-.527-1.127c.415-.5.857-.982,1.317-1.441a21.292,21.292,0,0,1,5.258-3.855.687.687,0,0,1,.632,1.219,19.947,19.947,0,0,0-4.919,3.607c-.43.43-.844.884-1.232,1.35A.685.685,0,0,1,2343.078,2100.749Z" transform="translate(-2342.391 -2094.248)" fill="#001259"/>
      </g>
      <g id="Grupo_1043460" data-name="Grupo 1043460" transform="translate(761.589 889.502)">
        <path id="Trazado_772970" data-name="Trazado 772970" d="M2907.933,2357.539a2.522,2.522,0,0,1-2.534-2.467l-.354-13.115a2.89,2.89,0,1,1,5.777,0l-.355,13.115A2.521,2.521,0,0,1,2907.933,2357.539Zm0-17.176a1.516,1.516,0,0,0-1.515,1.557l.354,13.115a1.161,1.161,0,0,0,2.322,0l.355-13.115a1.516,1.516,0,0,0-1.515-1.557Z" transform="translate(-2905.043 -2338.989)" fill="#001259"/>
      </g>
      <g id="Grupo_1043461" data-name="Grupo 1043461" transform="translate(761.629 909.866)">
        <path id="Trazado_772971" data-name="Trazado 772971" d="M2909.563,3199.9a2.85,2.85,0,1,1,2.85-2.85A2.853,2.853,0,0,1,2909.563,3199.9Zm0-4.326a1.476,1.476,0,1,0,1.476,1.476A1.478,1.478,0,0,0,2909.563,3195.578Z" transform="translate(-2906.714 -3194.205)" fill="#001259"/>
      </g>
      <g id="Grupo_1043462" data-name="Grupo 1043462" transform="translate(747.498 885.436)">
        <path id="Trazado_772972" data-name="Trazado 772972" d="M2330.484,2202.736a17.239,17.239,0,1,1,12.189-5.049A17.125,17.125,0,0,1,2330.484,2202.736Zm0-33.1a15.865,15.865,0,1,0,11.218,4.647A15.763,15.763,0,0,0,2330.484,2169.633Z" transform="translate(-2313.246 -2168.259)" fill="#001259"/>
      </g>
      <g id="Grupo_1043463" data-name="Grupo 1043463" transform="translate(768.216 854.23)">
        <path id="Trazado_772973" data-name="Trazado 772973" d="M3184.027,883.764a.687.687,0,0,1-.657-.886l3.512-11.578h-2.812a.687.687,0,0,1-.664-.865l3.269-12.192a.687.687,0,0,1,.663-.509l7.546,0h0a.687.687,0,0,1,.62.983l-3.079,6.457h5.009a.687.687,0,0,1,.542,1.109L3184.569,883.5A.686.686,0,0,1,3184.027,883.764Zm3.782-13.838a.687.687,0,0,1,.657.886l-2.707,8.923,10.271-13.19h-4.692a.687.687,0,0,1-.62-.982l3.078-6.457-5.931,0-2.9,10.818h2.843Z" transform="translate(-3183.34 -857.733)" fill="#001259"/>
      </g>
    </g>
  </g>
</svg>
