<svg xmlns="http://www.w3.org/2000/svg" width="131" height="122" viewBox="0 0 131 122">
  <g id="Grupo_1043980" data-name="Grupo 1043980" transform="translate(4766 -7944)">
    <g id="Grupo_1043693" data-name="Grupo 1043693" transform="translate(0 -1178)">
      <rect id="Rectángulo_355817" data-name="Rectángulo 355817" width="131" height="122" rx="12" transform="translate(-4766 9122)" fill="#fff8e8"/>
    </g>
    <g id="financiero" transform="translate(-5400.535 7308.829)">
      <g id="Grupo_1043643" data-name="Grupo 1043643" transform="translate(663.586 657.349)">
        <path id="Trazado_773017" data-name="Trazado 773017" d="M1559.715,2485.113a6.022,6.022,0,0,0,6.015-6.015V2472a12.9,12.9,0,0,1-4.739.9h-2.634a12.9,12.9,0,0,1-4.657-.868v7.063A6.022,6.022,0,0,0,1559.715,2485.113Z" transform="translate(-1540.157 -2434.872)" fill="#fff"/>
        <path id="Trazado_773018" data-name="Trazado 773018" d="M1026.934,1008.3a12.449,12.449,0,0,0,12.435-12.435v-.472a.265.265,0,0,1,.265-.265,5.577,5.577,0,0,0,0-11.154.265.265,0,0,1-.265-.265v-1.551a11.367,11.367,0,0,0-11.162-11.347h-3.366a.358.358,0,0,1-.049-.01h-1.575a11.37,11.37,0,0,0-11.357,11.357v1.556a.265.265,0,0,1-.262.265,5.573,5.573,0,0,0,0,11.144.266.266,0,0,1,.262.265v.477A12.449,12.449,0,0,0,1024.3,1008.3Zm-6.312-9.883a.263.263,0,0,1,.373,0,6.6,6.6,0,0,0,9.319,0,.264.264,0,0,1,.373.373,7.129,7.129,0,0,1-10.071,0A.267.267,0,0,1,1020.623,998.416Z" transform="translate(-1006.1 -970.8)" fill="#fff"/>
        <path id="Trazado_773019" data-name="Trazado 773019" d="M3069.043,1456.367a9.469,9.469,0,0,0-6.638-16.167h-.054a9.35,9.35,0,0,0-6.633,2.73,9.462,9.462,0,0,0,13.326,13.437Zm-6.93-12.675a.265.265,0,0,1,.529,0v5.691h3.975a.265.265,0,0,1,0,.529h-4.239a.265.265,0,0,1-.265-.265Z" transform="translate(-3002.314 -1428.591)" fill="#fff"/>
      </g>
      <path id="Trazado_773020" data-name="Trazado 773020" d="M2036.352,834.467h-.952a11.909,11.909,0,0,1,8.342,11.347v1.291a6.077,6.077,0,0,1,3.846,1.6v-9.89c0-3.762-1.954-6.732-5.11-7.813A7.161,7.161,0,0,1,2036.352,834.467Z" transform="translate(-1346.357 -177.108)" fill="#fff787"/>
      <g id="Grupo_1043644" data-name="Grupo 1043644" transform="translate(697.076 654.297)">
        <path id="Trazado_773021" data-name="Trazado 773021" d="M2360.2,847.4a9.146,9.146,0,0,1,.977,4.227v9.89a6.325,6.325,0,0,0-.7-.549c.02.277.034.556.034.838V863.1a6.076,6.076,0,0,1,3.846,1.6V854.8A7.967,7.967,0,0,0,2360.2,847.4Z" transform="translate(-2360.2 -847.4)" fill="#ffcc73"/>
      </g>
      <path id="Trazado_773022" data-name="Trazado 773022" d="M2650.02,2660.379l-2.862-1.17a.262.262,0,0,1-.158-.3,16.833,16.833,0,0,0,0-6.633.265.265,0,0,1,.156-.294l2.572-1.088a1.149,1.149,0,0,0,.611-1.5l-1.689-4.026a1.156,1.156,0,0,0-1.541-.606l-2.342,1.059a.267.267,0,0,1-.329-.092,24.286,24.286,0,0,0-4.556-4.625.265.265,0,0,1-.079-.307l.969-2.372a1.152,1.152,0,0,0-.633-1.5l-4.625-1.892a1.153,1.153,0,0,0-1.5.626l-.969,2.372a.269.269,0,0,1-.3.161,16.128,16.128,0,0,0-6.512.082.264.264,0,0,1-.3-.161l-1.014-2.483a1.153,1.153,0,0,0-1.514-.626l-4.026,1.694a1.15,1.15,0,0,0-.616,1.494l1.081,2.614a.266.266,0,0,1-.094.319,16.866,16.866,0,0,0-4.632,4.739.263.263,0,0,1-.322.1l-2.765-1.133a1.153,1.153,0,0,0-1.5.625l-1.593,3.89a1.155,1.155,0,0,0,.633,1.5l2.794,1.145a.266.266,0,0,1,.161.294,16.753,16.753,0,0,0,.047,6.571.267.267,0,0,1-.158.3l-2.642,1.113a1.149,1.149,0,0,0-.613,1.5l1.694,4.034a1.158,1.158,0,0,0,1.531.611l2.518-1.111a.277.277,0,0,1,.106-.022.266.266,0,0,1,.217.114,15.848,15.848,0,0,0,4.524,4.541.263.263,0,0,1,.1.322l-1.041,2.545a1.151,1.151,0,0,0,.633,1.5l4.625,1.892a1.153,1.153,0,0,0,1.5-.626l1.041-2.545a.263.263,0,0,1,.272-.163,23.99,23.99,0,0,0,6.384-.079.271.271,0,0,1,.3.161l1.042,2.58a1.137,1.137,0,0,0,.628.633,1.154,1.154,0,0,0,.893,0l4-1.692a1.146,1.146,0,0,0,.611-1.5l-1.118-2.676a.265.265,0,0,1,.1-.322,16.68,16.68,0,0,0,4.62-4.662.265.265,0,0,1,.321-.1l2.892,1.182a1.152,1.152,0,0,0,1.5-.626l1.593-3.89A1.139,1.139,0,0,0,2650.02,2660.379Zm-4.979-3.683a.267.267,0,0,1-.361.1l-1.328-.749a13.532,13.532,0,0,1-26.194,4.254.265.265,0,0,1,.156-.341.26.26,0,0,1,.156-.005c-.563-1.385,1.838-3.2,2.1-4.612-.01,0-3.052.517-3.062.517a.28.28,0,0,1-.131-.034l-1.717-.967a.265.265,0,0,1,.26-.462l1.328.75a13.532,13.532,0,0,1,26.194-4.257,22.4,22.4,0,0,1-2.359.784c.46,1.326,2.864,2.3,2.908,3.677a.263.263,0,0,1,.22.008c.015,0,1.729.972,1.729.972A.271.271,0,0,1,2645.042,2656.7Z" transform="translate(-1905.632 -1936.407)" fill="#7893ff"/>
      <g id="Grupo_1043645" data-name="Grupo 1043645" transform="translate(703.227 698.513)">
        <path id="Trazado_773023" data-name="Trazado 773023" d="M3935.944,2947.636c-.049-.044-.1-.092-.143-.136.01.012.012.027.025.037C3935.86,2947.567,3935.906,2947.6,3935.944,2947.636Z" transform="translate(-3902.984 -2939.776)" fill="#fff"/>
        <path id="Trazado_773024" data-name="Trazado 773024" d="M3400.235,2637.988a2.071,2.071,0,0,1,.284-.027h.27l.421-.42-2.694-1.1a1.158,1.158,0,0,0-1.5.631l-.969,2.367a.265.265,0,0,1-.3.158,15.393,15.393,0,0,0-4.543-.2,5.151,5.151,0,0,0,3.591,1.484,15.376,15.376,0,0,1,2.762.289.268.268,0,0,0,.3-.158l.97-2.367A1.15,1.15,0,0,1,3400.235,2637.988Z" transform="translate(-3371.854 -2636.327)" fill="#fff"/>
        <path id="Trazado_773025" data-name="Trazado 773025" d="M2619.693,3371.092a1.148,1.148,0,0,1,.613-1.5l2.642-1.113a.267.267,0,0,0,.158-.3,16.656,16.656,0,0,1-.047-6.571.261.261,0,0,0-.161-.294l-1.746-.715a16.719,16.719,0,0,0,.144,6,.267.267,0,0,1-.158.3l-2.642,1.113a1.149,1.149,0,0,0-.613,1.5l1.694,4.034a1.15,1.15,0,0,0,.638.626,1.133,1.133,0,0,0,.781.02Z" transform="translate(-2617.574 -3342.66)" fill="#fff"/>
        <path id="Trazado_773026" data-name="Trazado 773026" d="M2609.657,2651.144l1.1.45a1.181,1.181,0,0,1,.079-.374l1.593-3.89a1.152,1.152,0,0,1,1.5-.626l2.765,1.133a.269.269,0,0,0,.322-.1,16.771,16.771,0,0,1,4.632-4.739.261.261,0,0,0,.094-.319l-1.081-2.614a1.148,1.148,0,0,1,.616-1.494l4.026-1.694a.476.476,0,0,1,.084-.025l-.378-.925a1.153,1.153,0,0,0-1.513-.626l-4.026,1.694a1.15,1.15,0,0,0-.616,1.494l1.081,2.614a.266.266,0,0,1-.094.319,16.864,16.864,0,0,0-4.632,4.739.262.262,0,0,1-.322.1l-2.765-1.133a1.153,1.153,0,0,0-1.5.626l-1.593,3.89A1.152,1.152,0,0,0,2609.657,2651.144Z" transform="translate(-2608.941 -2635.212)" fill="#fff"/>
      </g>
      <path id="Trazado_773027" data-name="Trazado 773027" d="M2928.537,2965.187a16.767,16.767,0,0,0,3.487,5.008,12.971,12.971,0,0,0,21.725-9.144l-1.222.547c-.193.087-.487.136-.562-.064-.067-.183.148-.339.327-.416.539-.238,1.078-.472,1.62-.71a11.094,11.094,0,0,0-.374-3.106,10.737,10.737,0,0,0-.957-2.008c-.4-.7-.8-1.412-1.266-2.075a12.982,12.982,0,0,0-23.6,6.829c.084-.156.166-.312.25-.47a4.934,4.934,0,0,0-.215,2.659A10.575,10.575,0,0,0,2928.537,2965.187Zm8.231-1.63a.265.265,0,0,1,.529,0v1.113a1.691,1.691,0,0,0,1.692,1.687h3.485a1.691,1.691,0,0,0,1.692-1.687v-1.605a1.691,1.691,0,0,0-1.692-1.687h-3.485a2.222,2.222,0,0,1-2.223-2.216v-1.605a2.222,2.222,0,0,1,2.223-2.216h1.476V2953a.265.265,0,0,1,.529,0v2.337h1.477a2.222,2.222,0,0,1,2.223,2.216v1.081a.265.265,0,1,1-.529,0v-1.081a1.691,1.691,0,0,0-1.692-1.687h-3.485a1.691,1.691,0,0,0-1.692,1.687v1.605a1.691,1.691,0,0,0,1.692,1.687h3.485a2.222,2.222,0,0,1,2.224,2.216v1.605a2.222,2.222,0,0,1-2.224,2.216H2941v2.337a.265.265,0,1,1-.529,0v-2.337h-1.477a2.222,2.222,0,0,1-2.223-2.216Z" transform="translate(-2216.565 -2241.452)" fill="#fff787"/>
      <path id="Trazado_773028" data-name="Trazado 773028" d="M1065.461,711.746v-1.3a11.9,11.9,0,0,1,11.886-11.886h4.793c.131,0,.26,0,.388.01h4.108a6.643,6.643,0,0,0,6.631-6.371H1072.88a11.293,11.293,0,0,0-11.28,11.28v9.96A6.089,6.089,0,0,1,1065.461,711.746Z" transform="translate(-396.641 -41.741)" fill="#fff787"/>
      <path id="Trazado_773029" data-name="Trazado 773029" d="M1093.01,692.2h-20.13a11.28,11.28,0,0,0-11.28,11.28v9.96a6.205,6.205,0,0,1,2.12-1.326V705.6A11.28,11.28,0,0,1,1075,694.32h12.893A7.236,7.236,0,0,0,1093.01,692.2Z" transform="translate(-396.641 -41.741)" fill="#fff"/>
      <path id="Trazado_773030" data-name="Trazado 773030" d="M2769.039,1166.89a.826.826,0,0,0-.826.824l-.012,3.386a.83.83,0,0,0,.247.6.844.844,0,0,0,.6.242l2.129-.03a.266.266,0,0,1,.262.21,12.219,12.219,0,0,0,1.84,4.58.264.264,0,0,1-.035.336l-1.511,1.5a.815.815,0,0,0-.245.586.833.833,0,0,0,.242.589l2.723,2.745a.831.831,0,0,0,1.175.007l1.511-1.5a.271.271,0,0,1,.186-.077.263.263,0,0,1,.129.032,18.451,18.451,0,0,0,4.553,1.865.268.268,0,0,1,.21.265l-.037,2.152a.837.837,0,0,0,.833.848l3.361,0a.829.829,0,0,0,.829-.823l.012-2.243a.265.265,0,0,1,.213-.26,12.823,12.823,0,0,0,4.677-1.914.266.266,0,0,1,.334.035l1.7,1.716a.833.833,0,0,0,.586.247.817.817,0,0,0,.586-.24l2.307-2.29a.814.814,0,0,0,.245-.586.833.833,0,0,0-.242-.589l-1.685-1.7a.265.265,0,0,1-.029-.336,12.985,12.985,0,0,0,2-4.7.268.268,0,0,1,.26-.21l2.162,0a.829.829,0,0,0,.829-.823l.015-3.378a.833.833,0,0,0-.25-.6.8.8,0,0,0-.6-.237l-1.988.047a.256.256,0,0,1-.267-.213,18.767,18.767,0,0,0-1.842-4.655.267.267,0,0,1,.047-.314l1.407-1.395a.815.815,0,0,0,.245-.586.833.833,0,0,0-.242-.589l-2.723-2.745a.831.831,0,0,0-1.174-.007l-1.407,1.395a.266.266,0,0,1-.334.032,12.447,12.447,0,0,0-4.643-1.9.263.263,0,0,1-.21-.262l.027-2.075a.836.836,0,0,0-.831-.843L2783,1153a.827.827,0,0,0-.829.819l-.02,2.189a.264.264,0,0,1-.212.257,12.917,12.917,0,0,0-4.709,1.969.267.267,0,0,1-.336-.035l-1.627-1.642a.831.831,0,0,0-1.175-.007l-2.308,2.29a.815.815,0,0,0-.245.586.832.832,0,0,0,.243.589l1.645,1.66a.266.266,0,0,1,.032.334,12.856,12.856,0,0,0-1.942,4.674.241.241,0,0,1-.259.21Zm8.612-4.432a9.89,9.89,0,0,1,7.007-2.884h.059a9.957,9.957,0,1,1-7.066,2.884Z" transform="translate(-2061.034 -491.145)" fill="#7893ff"/>
      <g id="Grupo_1043646" data-name="Grupo 1043646" transform="translate(707.166 661.855)">
        <path id="Trazado_773031" data-name="Trazado 773031" d="M3748.6,1293.049l.03-.027a.837.837,0,0,1,1.177,0l1.5,1.516a.925.925,0,0,0-.109-.136l-2.725-2.75a.831.831,0,0,0-1.172-.005l-1.4,1.393A1.914,1.914,0,0,0,3748.6,1293.049Z" transform="translate(-3721.72 -1287.989)" fill="#fff"/>
        <path id="Trazado_773032" data-name="Trazado 773032" d="M3941.4,2191.8a.243.243,0,0,0,.054.082l.465.468a.822.822,0,0,0-.109-.136Z" transform="translate(-3912.384 -2166.108)" fill="#fff"/>
        <path id="Trazado_773033" data-name="Trazado 773033" d="M2902.678,2141.845l-.245-.245-1.088,1.078a.815.815,0,0,0-.245.586.833.833,0,0,0,.242.589l1.222,1.231a.83.83,0,0,1-.134-.453.815.815,0,0,1,.245-.586A1.553,1.553,0,0,0,2902.678,2141.845Z" transform="translate(-2897.813 -2117.15)" fill="#fff"/>
        <path id="Trazado_773034" data-name="Trazado 773034" d="M2774.759,1508.286l-1.276-1.286a.263.263,0,0,1-.022.252,12.857,12.857,0,0,0-1.942,4.674.241.241,0,0,1-.26.21l-2.219,0a.826.826,0,0,0-.829.823l-.012,3.386a.83.83,0,0,0,.247.6.27.27,0,0,0,.032.025,3.622,3.622,0,0,0,1.061-2.55v-.092a.827.827,0,0,1,.826-.823l2.221.005a.243.243,0,0,0,.26-.21,12.846,12.846,0,0,1,1.942-4.672A.263.263,0,0,0,2774.759,1508.286Z" transform="translate(-2768.2 -1498.245)" fill="#fff"/>
        <path id="Trazado_773035" data-name="Trazado 773035" d="M2918.715,1153.161a1,1,0,0,0-.475-.151l-3.378-.01a.827.827,0,0,0-.829.819l-.02,2.189a.264.264,0,0,1-.215.257,12.934,12.934,0,0,0-4.7,1.966.266.266,0,0,1-.339-.032l-1.63-1.645a.83.83,0,0,0-1.172,0l-2.308,2.29a.816.816,0,0,0-.245.586.833.833,0,0,0,.243.589l1.222,1.232a.828.828,0,0,1-.134-.453.815.815,0,0,1,.245-.586l2.307-2.29a.831.831,0,0,1,1.172,0l1.63,1.645a.267.267,0,0,0,.339.032,12.933,12.933,0,0,1,4.7-1.966.267.267,0,0,0,.215-.257l.02-2.189a.826.826,0,0,1,.828-.819h.433a2.042,2.042,0,0,0,1.385-.539C2918.247,1153.608,2918.487,1153.388,2918.715,1153.161Z" transform="translate(-2900.057 -1153)" fill="#fff"/>
      </g>
      <path id="Trazado_773036" data-name="Trazado 773036" d="M706.97,2922.521a.265.265,0,1,1,.529,0v19.219h17.32v-5.466l-.148-.084a28.016,28.016,0,0,1-3.89-3.116.263.263,0,0,1-.037-.037,31.392,31.392,0,0,1-7.828-12.468l-4.541-13.469a22.889,22.889,0,0,0-10.575,19.283l.047,12.977a2.371,2.371,0,0,0,2.347,2.377h6.777Z" transform="translate(-41.839 -2201.863)" fill="#ffb58a"/>
      <path id="Trazado_773037" data-name="Trazado 773037" d="M1158.764,2833.117a4.273,4.273,0,0,1-2.819-4.012v-2.127l-2.649,2.8a.266.266,0,0,1-.193.084.408.408,0,0,1-.054,0,.272.272,0,0,1-.2-.17l-4.477-12.492a20.943,20.943,0,0,0-4.276,1.939l4.58,13.583a31.007,31.007,0,0,0,7.264,11.832v-7.425A4.269,4.269,0,0,1,1158.764,2833.117Z" transform="translate(-477.101 -2114.186)" fill="#fff"/>
      <path id="Trazado_773038" data-name="Trazado 773038" d="M1815.509,2948.607a.19.19,0,0,1-.052.047,28.147,28.147,0,0,1-3.591,2.837l-.166.094v5.466h17.322v-8.609a.265.265,0,0,1,.529,0v8.609h15.9l-3.638-1.489a1.681,1.681,0,0,1-.922-2.191l.959-2.342a16.226,16.226,0,0,1-4.36-4.382l-2.317,1.024a1.687,1.687,0,0,1-2.233-.89l-1.694-4.034a1.678,1.678,0,0,1,.9-2.194l2.443-1.029a17.2,17.2,0,0,1-.047-6.351l-2.6-1.063a1.686,1.686,0,0,1-.923-2.191l1.521-3.717a30.081,30.081,0,0,0-4.541-3.4l-4.59,13.491A29.975,29.975,0,0,1,1815.509,2948.607Z" transform="translate(-1128.19 -2217.174)" fill="#ffb58a"/>
      <path id="Trazado_773039" data-name="Trazado 773039" d="M1820.5,2785.41l3.576,3.8,2.631,2.795,4.63-11.572a18.254,18.254,0,0,0-4.9-1.029A6.546,6.546,0,0,1,1820.5,2785.41Z" transform="translate(-1136.772 -2077.321)" fill="#fff"/>
      <path id="Trazado_773040" data-name="Trazado 773040" d="M1859.815,2840.436a.338.338,0,0,1-.05.005.262.262,0,0,1-.193-.084l-2.453-2.607v2.181a4.264,4.264,0,0,0,0,8.023v7.7a29.479,29.479,0,0,0,7.328-11.7l4.627-13.6a27.348,27.348,0,0,0-4.271-2.06l-4.791,11.973A.279.279,0,0,1,1859.815,2840.436Z" transform="translate(-1169.736 -2125.011)" fill="#fff"/>
      <path id="Trazado_773041" data-name="Trazado 773041" d="M1651.879,3035.18v-2.743l-3.707-3.937-3.772,3.994v2.688a3.739,3.739,0,1,0,7.479,0Z" transform="translate(-965.028 -2320.26)" fill="#93e8f2"/>
      <path id="Trazado_773042" data-name="Trazado 773042" d="M1648.273,3486.55l.156-.087a27.4,27.4,0,0,0,3.45-2.72v-8.2a3.739,3.739,0,0,0-7.479,0v7.951a27.426,27.426,0,0,0,3.737,2.983Z" transform="translate(-965.028 -2752.596)" fill="#93e8f2"/>
      <path id="Trazado_773043" data-name="Trazado 773043" d="M1341.723,2790.976l6.453-6.833a6.551,6.551,0,0,1-5.936-6.042,20.086,20.086,0,0,0-4.84.814Z" transform="translate(-665.62 -2076.053)" fill="#fff"/>
      <g id="Grupo_1043647" data-name="Grupo 1043647" transform="translate(655.959 705.398)">
        <path id="Trazado_773044" data-name="Trazado 773044" d="M708.3,2913.6a22.814,22.814,0,0,0-10.6,19.2l.047,12.977a3.161,3.161,0,0,0,.688,1.959c.067-.067.136-.141.2-.22a5.191,5.191,0,0,0,1.214-3.413l-.032-9.186a22.817,22.817,0,0,1,9.458-18.433Z" transform="translate(-697.7 -2913.6)" fill="#fff"/>
      </g>
      <path id="Trazado_773045" data-name="Trazado 773045" d="M1091.22,3547.819v-11.8a2.121,2.121,0,0,0-2.12-2.12v19.036A7.234,7.234,0,0,0,1091.22,3547.819Z" transform="translate(-423.461 -2813.161)" fill="#fff"/>
      <path id="Trazado_773046" data-name="Trazado 773046" d="M1536.3,2465.418l1.677.8a12.753,12.753,0,0,1,7.269,11.513l2.968-2.444.648-4.234V2465l-6.814,1.024Z" transform="translate(-859.601 -1770.696)" fill="#e3e3e3"/>
      <path id="Trazado_773047" data-name="Trazado 773047" d="M731.332,4196.046l-.032.032h8.54V4192.9h-.91A10.733,10.733,0,0,0,731.332,4196.046Z" transform="translate(-74.51 -3455.862)" fill="#ed8d72"/>
      <path id="Trazado_773048" data-name="Trazado 773048" d="M1146.085,3937.386v1.393a1.914,1.914,0,0,1-1.914,1.914H1122.33a10.742,10.742,0,0,0-7.6,3.148l-.032.032h34.474V3934.3A3.088,3.088,0,0,0,1146.085,3937.386Z" transform="translate(-448.428 -3203.657)" fill="#ed8d72"/>
      <path id="Trazado_773049" data-name="Trazado 773049" d="M2527.805,3897.323a1.474,1.474,0,0,1-.74-.816,5.509,5.509,0,0,1-2.05-.806,1.675,1.675,0,0,1-.742-1.138l1.021-3.181-4.929-4.382a9.684,9.684,0,0,1,.255,5.228c0,.01,0,.02-.007.032a3.082,3.082,0,0,1-3.012,2.3h-5.7v3.178h16.615C2528.275,3897.6,2528.038,3897.464,2527.805,3897.323Z" transform="translate(-1811.073 -3157.527)" fill="#ed8d72"/>
      <path id="Trazado_773050" data-name="Trazado 773050" d="M1585.485,692.2s-2.224,2.834-8.634,4.256c-4.848,1.076-10.551,2.369-10.551,2.369s12.93.064,13.251,0,4.044-1.046,4.444-1.917S1585.485,692.2,1585.485,692.2Z" transform="translate(-888.859 -41.741)" fill="#ffcc73"/>
      <g id="finance_department_2_" transform="translate(654.9 649.4)">
        <g id="Grupo_1043673" data-name="Grupo 1043673">
          <g id="Grupo_1043656" data-name="Grupo 1043656" transform="translate(7.63)">
            <g id="Grupo_1043654" data-name="Grupo 1043654">
              <g id="Grupo_1043652" data-name="Grupo 1043652">
                <g id="Grupo_1043648" data-name="Grupo 1043648" transform="translate(0 6.89)">
                  <path id="Trazado_773051" data-name="Trazado 773051" d="M985.29,967.618h-2.634a13.512,13.512,0,0,1-13.494-13.234,6.631,6.631,0,0,1,0-13.148v-.821A12.43,12.43,0,0,1,981.576,928h4.793a12.43,12.43,0,0,1,12.416,12.415v.8a6.636,6.636,0,0,1,0,13.177A13.511,13.511,0,0,1,985.29,967.618Zm-3.715-38.031a10.84,10.84,0,0,0-10.828,10.828v1.556a.793.793,0,0,1-.784.794,5.043,5.043,0,0,0,0,10.086.8.8,0,0,1,.784.794v.477a11.921,11.921,0,0,0,11.906,11.906h2.634a11.921,11.921,0,0,0,11.906-11.906v-.472a.793.793,0,0,1,.794-.794,5.048,5.048,0,0,0,0-10.1.793.793,0,0,1-.794-.794v-1.551a10.84,10.84,0,0,0-10.825-10.828Z" transform="translate(-963.4 -928)" fill="#121275"/>
                </g>
                <g id="Grupo_1043651" data-name="Grupo 1043651" transform="translate(1.37)">
                  <g id="Grupo_1043649" data-name="Grupo 1043649">
                    <path id="Trazado_773052" data-name="Trazado 773052" d="M1019.594,673.14a.793.793,0,0,1-.794-.794V661.741a12.355,12.355,0,0,1,12.341-12.341H1051.8a.793.793,0,0,1,.794.794,7.7,7.7,0,0,1-7.694,7.694h-7.667a.794.794,0,1,1,0-1.588h7.667a6.115,6.115,0,0,0,6.054-5.31h-19.81a10.763,10.763,0,0,0-10.751,10.751v10.605A.8.8,0,0,1,1019.594,673.14Z" transform="translate(-1018.8 -649.4)" fill="#121275"/>
                  </g>
                  <g id="Grupo_1043650" data-name="Grupo 1043650" transform="translate(31.32 3.376)">
                    <path id="Trazado_773053" data-name="Trazado 773053" d="M2291.459,806.169a.793.793,0,0,1-.794-.794V794.849c0-3.6-1.887-6.42-4.924-7.375a.795.795,0,1,1,.477-1.516c3.667,1.152,6.037,4.642,6.037,8.891v10.526A.8.8,0,0,1,2291.459,806.169Z" transform="translate(-2285.184 -785.922)" fill="#121275"/>
                  </g>
                </g>
              </g>
              <g id="Grupo_1043653" data-name="Grupo 1043653" transform="translate(13.538 43.894)">
                <path id="Trazado_773054" data-name="Trazado 773054" d="M1517.876,2439.553a7.084,7.084,0,0,1-7.076-7.076v-7.449a.794.794,0,0,1,1.588,0v7.449a5.486,5.486,0,1,0,10.971,0v-7.484a.794.794,0,1,1,1.588,0v7.484A7.078,7.078,0,0,1,1517.876,2439.553Z" transform="translate(-1510.8 -2424.2)" fill="#121275"/>
              </g>
            </g>
            <g id="Grupo_1043655" data-name="Grupo 1043655" transform="translate(14.972 34.96)">
              <path id="Trazado_773055" data-name="Trazado 773055" d="M1574.393,2066.542a7.625,7.625,0,0,1-5.409-2.236.794.794,0,0,1,1.123-1.123,6.068,6.068,0,0,0,8.57,0,.794.794,0,0,1,1.123,1.123A7.625,7.625,0,0,1,1574.393,2066.542Z" transform="translate(-1568.75 -2062.95)" fill="#121275"/>
            </g>
          </g>
          <g id="Grupo_1043672" data-name="Grupo 1043672" transform="translate(0 51.581)">
            <g id="Grupo_1043657" data-name="Grupo 1043657" transform="translate(33.739 0.021)">
              <path id="Trazado_773056" data-name="Trazado 773056" d="M2035.094,2744.614a.8.8,0,0,1-.542-.213c-3.287-3.059-9.111-6.715-14.715-6.945a.795.795,0,0,1,.064-1.588c6.037.247,12.247,4.125,15.732,7.37a.794.794,0,0,1,.04,1.123.78.78,0,0,1-.579.252Z" transform="translate(-2019.074 -2735.867)" fill="#121275"/>
            </g>
            <g id="Grupo_1043658" data-name="Grupo 1043658">
              <path id="Trazado_773057" data-name="Trazado 773057" d="M718.81,2774.957H658.355a3.433,3.433,0,0,1-3.408-3.433l-.047-12.979c0-12.49,9.752-23.051,21.737-23.545h.228a.794.794,0,1,1,0,1.588h-.2c-11.112.458-20.181,10.306-20.181,21.952l.047,12.977a1.838,1.838,0,0,0,1.818,1.847h60.455a.8.8,0,0,1,0,1.593Z" transform="translate(-654.9 -2735)" fill="#121275"/>
            </g>
            <g id="Grupo_1043671" data-name="Grupo 1043671" transform="translate(9.702 0.974)">
              <g id="Grupo_1043664" data-name="Grupo 1043664" transform="translate(6.062)">
                <g id="Grupo_1043661" data-name="Grupo 1043661">
                  <g id="Grupo_1043659" data-name="Grupo 1043659">
                    <path id="Trazado_773058" data-name="Trazado 773058" d="M1297.637,2788.659a.726.726,0,0,1-.163-.017.8.8,0,0,1-.586-.509l-4.538-12.668a.795.795,0,0,1,1.5-.537l4.1,11.446,6.255-6.623a.794.794,0,1,1,1.155,1.091l-7.143,7.565A.777.777,0,0,1,1297.637,2788.659Z" transform="translate(-1292.302 -2774.402)" fill="#121275"/>
                  </g>
                  <g id="Grupo_1043660" data-name="Grupo 1043660" transform="translate(11.684 0.197)">
                    <path id="Trazado_773059" data-name="Trazado 773059" d="M1772.416,2796.192a.794.794,0,0,1-.579-.25l-6.885-7.311a.794.794,0,1,1,1.158-1.088l6.032,6.4,4.425-11.06a.8.8,0,0,1,1.476.591l-4.887,12.218a.793.793,0,0,1-.591.485A1.011,1.011,0,0,1,1772.416,2796.192Z" transform="translate(-1764.735 -2782.386)" fill="#121275"/>
                  </g>
                </g>
                <g id="Grupo_1043662" data-name="Grupo 1043662" transform="translate(7.65 16.187)">
                  <path id="Trazado_773060" data-name="Trazado 773060" d="M1610.4,3442.822a.793.793,0,0,1-.794-.794V3433.7a3.21,3.21,0,0,0-6.42,0v8.065a.794.794,0,1,1-1.588,0V3433.7a4.8,4.8,0,0,1,9.6,0v8.325A.8.8,0,0,1,1610.4,3442.822Z" transform="translate(-1601.6 -3428.9)" fill="#121275"/>
                </g>
                <g id="Grupo_1043663" data-name="Grupo 1043663" transform="translate(7.647 9.321)">
                  <path id="Trazado_773061" data-name="Trazado 773061" d="M1606.3,3159.743a4.807,4.807,0,0,1-4.8-4.8v-2.792a.794.794,0,0,1,1.588,0v2.792a3.21,3.21,0,0,0,6.42,0v-2.849a.794.794,0,1,1,1.588,0v2.849A4.8,4.8,0,0,1,1606.3,3159.743Z" transform="translate(-1601.5 -3151.3)" fill="#121275"/>
                </g>
              </g>
              <g id="Grupo_1043670" data-name="Grupo 1043670" transform="translate(0 2.152)">
                <g id="Grupo_1043665" data-name="Grupo 1043665" transform="translate(1.301)">
                  <path id="Trazado_773062" data-name="Trazado 773062" d="M1117.141,2892.344a.816.816,0,0,1-.391-.1l-.282-.158-.049-.03a30.866,30.866,0,0,1-11.948-15.878l-4.63-13.729a.795.795,0,0,1,1.506-.507l4.627,13.724a29.289,29.289,0,0,0,11.167,14.963,28.534,28.534,0,0,0,10.961-14.555l4.7-13.813a.8.8,0,0,1,1.506.512l-4.7,13.811a30.111,30.111,0,0,1-11.743,15.475.6.6,0,0,1-.052.032l-.284.158A.855.855,0,0,1,1117.141,2892.344Z" transform="translate(-1099.799 -2861.399)" fill="#121275"/>
                </g>
                <g id="Grupo_1043669" data-name="Grupo 1043669" transform="translate(0 15.757)">
                  <g id="Grupo_1043666" data-name="Grupo 1043666" transform="translate(35.701 10.613)">
                    <path id="Trazado_773063" data-name="Trazado 773063" d="M2491.494,3938.061a.793.793,0,0,1-.794-.794v-8.874a.794.794,0,0,1,1.588,0v8.874A.8.8,0,0,1,2491.494,3938.061Z" transform="translate(-2490.7 -3927.6)" fill="#121275"/>
                  </g>
                  <g id="Grupo_1043667" data-name="Grupo 1043667">
                    <path id="Trazado_773064" data-name="Trazado 773064" d="M1047.994,3519.574a.793.793,0,0,1-.794-.794v-19.487a.794.794,0,0,1,1.588,0v19.487A.8.8,0,0,1,1047.994,3519.574Z" transform="translate(-1047.2 -3498.5)" fill="#121275"/>
                  </g>
                  <g id="Grupo_1043668" data-name="Grupo 1043668" transform="translate(17.849 13.6)">
                    <path id="Trazado_773065" data-name="Trazado 773065" d="M1769.694,4055.874a.793.793,0,0,1-.794-.794v-5.886a.794.794,0,0,1,1.588,0v5.886A.8.8,0,0,1,1769.694,4055.874Z" transform="translate(-1768.9 -4048.4)" fill="#121275"/>
                  </g>
                </g>
              </g>
            </g>
          </g>
        </g>
        <g id="Grupo_1043692" data-name="Grupo 1043692" transform="translate(47.265 11.404)">
          <g id="Grupo_1043677" data-name="Grupo 1043677" transform="translate(3.945)">
            <g id="Grupo_1043674" data-name="Grupo 1043674" transform="translate(7.037 7.093)">
              <path id="Trazado_773066" data-name="Trazado 773066" d="M3020.544,1418.3a10.523,10.523,0,0,1-7.439-17.975,10.506,10.506,0,0,1,14.859.082,10.484,10.484,0,0,1-7.42,17.894Zm-.059-19.422a8.831,8.831,0,0,0-6.26,2.575,8.921,8.921,0,1,0,6.312-2.575Z" transform="translate(-3010.011 -1397.286)" fill="#121275"/>
            </g>
            <g id="Grupo_1043675" data-name="Grupo 1043675">
              <path id="Trazado_773067" data-name="Trazado 773067" d="M2744.728,1145.662l-3.364-.005a1.9,1.9,0,0,1-1.889-1.927l.027-1.521a20.284,20.284,0,0,1-3.68-1.531l-1.091,1.083a1.893,1.893,0,0,1-2.674-.012l-2.723-2.745a1.89,1.89,0,0,1,.01-2.673l1.056-1.046a12.923,12.923,0,0,1-1.5-3.754l-1.481.022a1.892,1.892,0,0,1-1.919-1.9l.012-3.386a1.887,1.887,0,0,1,1.887-1.88l1.588.005a13.827,13.827,0,0,1,1.6-3.863l-1.2-1.207a1.89,1.89,0,0,1,.01-2.673l2.308-2.29a1.9,1.9,0,0,1,2.674.012l1.177,1.187a13.932,13.932,0,0,1,3.9-1.628l.015-1.561a1.893,1.893,0,0,1,1.887-1.87l3.383.01a1.892,1.892,0,0,1,1.887,1.917l-.02,1.432a13.265,13.265,0,0,1,3.826,1.558l.955-.947a1.9,1.9,0,0,1,2.674.012l2.723,2.745a1.89,1.89,0,0,1-.01,2.673l-.99.982a20.492,20.492,0,0,1,1.516,3.767l1.343-.032a1.852,1.852,0,0,1,1.37.542,1.876,1.876,0,0,1,.569,1.36l-.015,3.379a1.891,1.891,0,0,1-1.887,1.88l-1.533,0a13.936,13.936,0,0,1-1.652,3.9l1.234,1.244a1.893,1.893,0,0,1-.01,2.674l-2.31,2.29a1.89,1.89,0,0,1-2.674-.015l-1.254-1.264a13.748,13.748,0,0,1-3.866,1.58l-.007,1.608a1.893,1.893,0,0,1-1.889,1.875Zm-9.049-6.757a.8.8,0,0,1,.386.1,17.921,17.921,0,0,0,4.41,1.81.8.8,0,0,1,.628.792l-.037,2.152a.3.3,0,0,0,.087.218.3.3,0,0,0,.218.092l3.361,0a.3.3,0,0,0,.3-.3l.012-2.243a.8.8,0,0,1,.641-.777,12.28,12.28,0,0,0,4.489-1.838.794.794,0,0,1,1,.1l1.7,1.716a.373.373,0,0,0,.215.089.3.3,0,0,0,.21-.087l2.31-2.29a.3.3,0,0,0,0-.425l-1.684-1.7a.794.794,0,0,1-.092-1.007,12.426,12.426,0,0,0,1.917-4.514.8.8,0,0,1,.777-.631l2.162,0a.3.3,0,0,0,.3-.3l.015-3.378a.3.3,0,0,0-.092-.218.316.316,0,0,0-.22-.086l-1.989.047a.793.793,0,0,1-.8-.638,18.326,18.326,0,0,0-1.788-4.509.8.8,0,0,1,.141-.94l1.407-1.395a.3.3,0,0,0,.089-.21.31.31,0,0,0-.089-.215l-2.723-2.745a.3.3,0,0,0-.426,0l-1.407,1.395a.794.794,0,0,1-1,.094,11.94,11.94,0,0,0-4.454-1.82.794.794,0,0,1-.633-.789l.027-2.075a.3.3,0,0,0-.3-.307l-3.378-.01a.287.287,0,0,0-.3.294l-.02,2.189a.794.794,0,0,1-.636.772,12.388,12.388,0,0,0-4.521,1.89.792.792,0,0,1-1.007-.1l-1.627-1.642a.3.3,0,0,0-.426,0l-2.307,2.29a.3.3,0,0,0,0,.425l1.645,1.66a.8.8,0,0,1,.1,1,12.346,12.346,0,0,0-1.862,4.484.8.8,0,0,1-.779.636l-2.221-.005a.3.3,0,0,0-.3.3l-.012,3.386a.3.3,0,0,0,.091.218.288.288,0,0,0,.218.089l2.129-.03a.781.781,0,0,1,.789.633,11.728,11.728,0,0,0,1.761,4.393.8.8,0,0,1-.1,1.007l-1.511,1.5a.3.3,0,0,0,0,.425l2.723,2.745a.3.3,0,0,0,.426,0l1.511-1.5A.776.776,0,0,1,2735.679,1138.9Z" transform="translate(-2725.499 -1110.5)" fill="#121275"/>
            </g>
            <g id="Grupo_1043676" data-name="Grupo 1043676" transform="translate(16.749 10.855)">
              <path id="Trazado_773068" data-name="Trazado 773068" d="M3407.733,1556.943h-4.239a.793.793,0,0,1-.794-.794v-5.956a.794.794,0,1,1,1.588,0v5.162h3.445a.794.794,0,0,1,0,1.588Z" transform="translate(-3402.7 -1549.4)" fill="#121275"/>
            </g>
          </g>
          <g id="Grupo_1043691" data-name="Grupo 1043691" transform="translate(0 36.649)">
            <g id="Grupo_1043678" data-name="Grupo 1043678">
              <path id="Trazado_773069" data-name="Trazado 773069" d="M2582.692,2635.813a2.215,2.215,0,0,1-.841-.166l-4.625-1.892a2.213,2.213,0,0,1-1.211-2.882l.8-1.949a16.49,16.49,0,0,1-3.888-3.918l-1.924.848a2.216,2.216,0,0,1-2.938-1.167l-1.694-4.034a2.21,2.21,0,0,1,1.177-2.888l2.052-.866a17.636,17.636,0,0,1-.044-5.7l-2.2-.9a2.213,2.213,0,0,1-1.211-2.881l1.592-3.89a2.21,2.21,0,0,1,2.884-1.2l2.169.888a17.758,17.758,0,0,1,4.024-4.113l-.838-2.03a2.212,2.212,0,0,1,1.182-2.876l4.026-1.694a2.213,2.213,0,0,1,2.906,1.2l.769,1.885a17.008,17.008,0,0,1,5.631-.079l.727-1.778a2.21,2.21,0,0,1,2.884-1.2l4.625,1.892a2.211,2.211,0,0,1,1.212,2.881l-.742,1.821a26.158,26.158,0,0,1,3.915,3.935l1.751-.792a2.221,2.221,0,0,1,2.958,1.162l1.689,4.026a2.213,2.213,0,0,1-1.175,2.886l-1.988.841a17.781,17.781,0,0,1,0,5.757l2.265.928a2.213,2.213,0,0,1,1.212,2.881l-1.593,3.89a2.208,2.208,0,0,1-2.884,1.207l-2.3-.939a17.587,17.587,0,0,1-4,4.039l.873,2.085a2.211,2.211,0,0,1-1.177,2.884l-4,1.692a2.216,2.216,0,0,1-2.916-1.212l-.8-1.991a25.734,25.734,0,0,1-5.451.044l-.816,2a2.191,2.191,0,0,1-1.192,1.2A2.279,2.279,0,0,1,2582.692,2635.813Zm-9.5-12.594a.785.785,0,0,1,.653.344,15.327,15.327,0,0,0,4.378,4.4.79.79,0,0,1,.3.964l-1.042,2.545a.621.621,0,0,0,.344.809l4.625,1.892a.623.623,0,0,0,.811-.339l1.041-2.545a.8.8,0,0,1,.819-.49,23.423,23.423,0,0,0,6.228-.074.8.8,0,0,1,.888.482l1.041,2.58a.625.625,0,0,0,.339.344.632.632,0,0,0,.485,0l4-1.692a.619.619,0,0,0,.329-.806l-1.118-2.673a.8.8,0,0,1,.287-.965,16.144,16.144,0,0,0,4.476-4.516.794.794,0,0,1,.962-.3l2.891,1.182a.623.623,0,0,0,.812-.339l1.592-3.89a.62.62,0,0,0-.344-.809l-2.861-1.17a.791.791,0,0,1-.478-.89,16.287,16.287,0,0,0,0-6.428.794.794,0,0,1,.47-.883l2.572-1.088a.618.618,0,0,0,.329-.806l-1.689-4.026a.637.637,0,0,0-.349-.341.629.629,0,0,0-.487.012l-2.342,1.061a.8.8,0,0,1-.984-.277,23.836,23.836,0,0,0-4.449-4.511.793.793,0,0,1-.237-.92l.969-2.372a.612.612,0,0,0,0-.472.626.626,0,0,0-.338-.336l-4.625-1.892a.623.623,0,0,0-.812.339l-.969,2.372a.8.8,0,0,1-.888.48,15.676,15.676,0,0,0-6.309.082.793.793,0,0,1-.89-.48l-1.014-2.483a.61.61,0,0,0-.339-.339.621.621,0,0,0-.479,0l-4.027,1.694a.618.618,0,0,0-.331.8l1.081,2.614a.8.8,0,0,1-.284.96,16.29,16.29,0,0,0-4.489,4.593.793.793,0,0,1-.967.3l-2.765-1.133a.622.622,0,0,0-.811.339l-1.593,3.89a.621.621,0,0,0,.344.809l2.795,1.145a.794.794,0,0,1,.479.885,16.191,16.191,0,0,0,.047,6.368.8.8,0,0,1-.47.888l-2.641,1.113a.618.618,0,0,0-.329.809l1.694,4.034a.613.613,0,0,0,.346.339.633.633,0,0,0,.485-.007l2.518-1.111A.775.775,0,0,1,2573.195,2623.219Z" transform="translate(-2565.975 -2592.324)" fill="#121275"/>
            </g>
            <g id="Grupo_1043690" data-name="Grupo 1043690" transform="translate(6.195 7.726)">
              <g id="Grupo_1043682" data-name="Grupo 1043682" transform="translate(11.311 5.582)">
                <g id="Grupo_1043679" data-name="Grupo 1043679" transform="translate(0 2.594)">
                  <path id="Trazado_773070" data-name="Trazado 773070" d="M3280.037,3247.911h-3.485a2.752,2.752,0,0,1-2.752-2.748v-1.113a.794.794,0,0,1,1.588,0v1.113a1.161,1.161,0,0,0,1.162,1.157h3.487a1.162,1.162,0,0,0,1.162-1.157v-1.605a1.162,1.162,0,0,0-1.162-1.157h-3.485a2.752,2.752,0,0,1-2.752-2.748v-1.6a2.754,2.754,0,0,1,2.752-2.748h3.485a2.752,2.752,0,0,1,2.753,2.748v1.081a.794.794,0,0,1-1.588,0v-1.081a1.161,1.161,0,0,0-1.162-1.157h-3.485a1.161,1.161,0,0,0-1.162,1.157v1.6a1.161,1.161,0,0,0,1.162,1.157h3.482a2.752,2.752,0,0,1,2.753,2.748v1.605A2.752,2.752,0,0,1,3280.037,3247.911Z" transform="translate(-3273.8 -3235.3)" fill="#121275"/>
                </g>
                <g id="Grupo_1043680" data-name="Grupo 1043680" transform="translate(3.702 13.615)">
                  <path id="Trazado_773071" data-name="Trazado 773071" d="M3424.294,3685.092a.793.793,0,0,1-.794-.794v-2.6a.794.794,0,0,1,1.588,0v2.6A.8.8,0,0,1,3424.294,3685.092Z" transform="translate(-3423.5 -3680.9)" fill="#121275"/>
                </g>
                <g id="Grupo_1043681" data-name="Grupo 1043681" transform="translate(3.702)">
                  <path id="Trazado_773072" data-name="Trazado 773072" d="M3424.294,3134.589a.793.793,0,0,1-.794-.794v-2.6a.794.794,0,1,1,1.588,0v2.6A.8.8,0,0,1,3424.294,3134.589Z" transform="translate(-3423.5 -3130.4)" fill="#121275"/>
                </g>
              </g>
              <g id="Grupo_1043689" data-name="Grupo 1043689">
                <g id="Grupo_1043685" data-name="Grupo 1043685">
                  <g id="Grupo_1043683" data-name="Grupo 1043683">
                    <path id="Trazado_773073" data-name="Trazado 773073" d="M2818.96,2919.509a.816.816,0,0,1-.391-.1l-1.716-.967a.8.8,0,0,1,.781-1.385l.594.334a14.064,14.064,0,0,1,27.166-3.564.8.8,0,0,1-1.491.554,12.473,12.473,0,0,0-24.151,4.333.8.8,0,0,1-.393.688A.784.784,0,0,1,2818.96,2919.509Z" transform="translate(-2816.448 -2904.7)" fill="#121275"/>
                  </g>
                  <g id="Grupo_1043684" data-name="Grupo 1043684" transform="translate(1.717 12.424)">
                    <path id="Trazado_773074" data-name="Trazado 773074" d="M2886.682,3409.43a.8.8,0,0,1-.319-1.523l1.805-.794a.8.8,0,1,1,.641,1.457l-1.805.794A.836.836,0,0,1,2886.682,3409.43Z" transform="translate(-2885.887 -3407.045)" fill="#121275"/>
                  </g>
                </g>
                <g id="Grupo_1043688" data-name="Grupo 1043688" transform="translate(2.619 13.218)">
                  <g id="Grupo_1043686" data-name="Grupo 1043686" transform="translate(0 0.002)">
                    <path id="Trazado_773075" data-name="Trazado 773075" d="M2935.585,3454.033a14.117,14.117,0,0,1-13.175-9.126.8.8,0,0,1,1.491-.554,12.473,12.473,0,0,0,24.151-4.333.8.8,0,0,1,.393-.687.793.793,0,0,1,.792,0l1.716.967a.8.8,0,1,1-.781,1.385l-.594-.334A14.062,14.062,0,0,1,2935.585,3454.033Z" transform="translate(-2922.36 -3439.224)" fill="#121275"/>
                  </g>
                  <g id="Grupo_1043687" data-name="Grupo 1043687" transform="translate(23.884)">
                    <path id="Trazado_773076" data-name="Trazado 773076" d="M3888.881,3441.53a.8.8,0,0,1-.319-1.523l1.805-.794a.8.8,0,0,1,.641,1.457l-1.806.794A.833.833,0,0,1,3888.881,3441.53Z" transform="translate(-3888.087 -3439.145)" fill="#121275"/>
                  </g>
                </g>
              </g>
            </g>
          </g>
        </g>
      </g>
    </g>
  </g>
</svg>
