<svg xmlns="http://www.w3.org/2000/svg" width="131" height="122" viewBox="0 0 131 122">
  <g id="Grupo_1043694" data-name="Grupo 1043694" transform="translate(4766 -8742)">
    <rect id="Rectángulo_355813" data-name="Rectángulo 355813" width="131" height="122" rx="12" transform="translate(-4766 8742)" fill="#fff8e8"/>
    <g id="Layer_1" data-name="Layer 1" transform="translate(-4772.394 8753.321)">
      <path id="Trazado_773010" data-name="Trazado 773010" d="M133.761,87.111h-68.2V8.679h56.051l12.147,12.446Z" transform="translate(-27.268 -3.284)" fill="#f9e0a6"/>
      <path id="Trazado_773011" data-name="Trazado 773011" d="M110.944,205.386H83.3a11.335,11.335,0,0,1-6.944-2.871l-5.244-5.23a11.335,11.335,0,0,0-6.943-2.871H40.414a4.077,4.077,0,0,0-4.065,4.065v47.181a4.077,4.077,0,0,0,4.065,4.065h70.53a4.077,4.077,0,0,0,4.065-4.065V209.452a4.077,4.077,0,0,0-4.064-4.065Z" transform="translate(-3.285 -155.763)" fill="#39c3fc"/>
      <circle id="Elipse_4864" data-name="Elipse 4864" cx="17.727" cy="17.727" r="17.727" transform="translate(54.617 53.991)" fill="#ececec"/>
      <path id="Trazado_773012" data-name="Trazado 773012" d="M256.574,361.908a17.8,17.8,0,0,0-.4-3.745l-13.588,0q-6.7,1.36-7.482,7.482v13.589a17.737,17.737,0,0,0,21.468-17.33Z" transform="translate(-166.453 -290.191)" fill="#f9e0a6"/>
      <path id="Trazado_773013" data-name="Trazado 773013" d="M213.847,321.426h-8.018v-8.018h-7.482v8.018h-8.018v7.482h8.018v8.018h7.482v-8.018h8.018Z" transform="translate(-129.693 -253.449)" fill="#fb5968"/>
      <path id="Trazado_773014" data-name="Trazado 773014" d="M390.745,21.081H378.6V8.679Z" transform="translate(-284.252 -3.284)" fill="#d3a06c"/>
      <path id="Trazado_773015" data-name="Trazado 773015" d="M235.106,365.667q.784-6.122,7.482-7.482h8.018v7.482h-8.018v8.018h-7.482Z" transform="translate(-166.453 -290.209)" fill="#cd2c5a"/>
      <path id="Trazado_773016" data-name="Trazado 773016" d="M76.852,67.26v-7.3a.716.716,0,0,0-.716-.716H68.653a.716.716,0,0,0-.716.716v7.3h-7.3a.716.716,0,0,0-.716.716v7.482a.716.716,0,0,0,.716.716h7.3v7.3a.716.716,0,0,0,.716.716h7.482a.716.716,0,0,0,.716-.716v-7.3h7.3a.716.716,0,0,0,.716-.716V67.976a.716.716,0,0,0-.716-.716Zm6.585,7.482h-7.3a.716.716,0,0,0-.716.716v7.3h-6.05v-7.3a.716.716,0,0,0-.716-.716h-7.3v-6.05h7.3a.716.716,0,0,0,.716-.716v-7.3h6.05v7.3a.716.716,0,0,0,.716.716h7.3ZM107.66,48.907h-.45V17.841a.716.716,0,0,0-.2-.5L94.859,4.895a.716.716,0,0,0-.512-.216H38.3a.716.716,0,0,0-.716.716V37.936h-.45a4.787,4.787,0,0,0-4.781,4.781V89.9a4.787,4.787,0,0,0,4.781,4.781h70.53A4.787,4.787,0,0,0,112.44,89.9V53.689A4.787,4.787,0,0,0,107.66,48.907ZM95.063,7.154l9.689,9.927H95.063ZM39.012,6.111H93.63V17.8a.716.716,0,0,0,.716.716h11.431V48.907H80.013a10.654,10.654,0,0,1-6.438-2.661l-5.245-5.23a11.94,11.94,0,0,0-7.449-3.08H39.012Zm72,83.787a3.353,3.353,0,0,1-3.348,3.348H37.129A3.353,3.353,0,0,1,33.78,89.9V42.717a3.353,3.353,0,0,1,3.348-3.348H60.881a10.655,10.655,0,0,1,6.438,2.661l5.244,5.23a11.94,11.94,0,0,0,7.449,3.08h27.646a3.353,3.353,0,0,1,3.348,3.348ZM72.394,53.275A18.443,18.443,0,1,0,90.837,71.717,18.443,18.443,0,0,0,72.394,53.275Zm0,35.453A17.01,17.01,0,1,1,89.4,71.717a17.01,17.01,0,0,1-17.01,17.01ZM49.347,25.417a.716.716,0,0,1,.716-.716H94.347a.716.716,0,0,1,0,1.432H50.063A.716.716,0,0,1,49.347,25.417Zm45,7.481H50.063a.716.716,0,0,1,0-1.432H94.347a.716.716,0,0,1,0,1.432Zm.716,6.049a.716.716,0,0,1-.716.716H73.238a.716.716,0,1,1,0-1.432H94.347A.716.716,0,0,1,95.063,38.948Zm0,6.765a.716.716,0,0,1-.716.716H78.207a.716.716,0,1,1,0-1.432H94.347A.716.716,0,0,1,95.063,45.713Z"/>
    </g>
  </g>
</svg>
