<svg xmlns="http://www.w3.org/2000/svg" width="84" height="84" viewBox="0 0 84 84">
  <g id="Grupo_1043873" data-name="Grupo 1043873" transform="translate(-331 -17387.999)">
    <rect id="Rectángulo_345189" data-name="Rectángulo 345189" width="84" height="84" rx="6" transform="translate(331 17388)" fill="#beb5dd"/>
    <g id="Layer_2_00000169516506275836610300000000581320084930623930_" transform="translate(302.844 17401.086)">
      <g id="PDF" transform="translate(46.5 0)">
        <path id="Trazado_772891" data-name="Trazado 772891" d="M99.425,57.814A7.821,7.821,0,0,1,91.6,49.989V7.825A7.821,7.821,0,0,1,99.425,0h18.022a.844.844,0,0,1,.621.26l15.492,15.492a.888.888,0,0,1,.26.632V50A7.829,7.829,0,0,1,126,57.826H99.425Z" transform="translate(-86.507 0)"/>
        <path id="Trazado_772892" data-name="Trazado 772892" d="M141.562,25.346V58.86a6.7,6.7,0,0,1-6.7,6.7H108.3a6.7,6.7,0,0,1-6.7-6.7V16.7a6.7,6.7,0,0,1,6.7-6.7h17.92Z" transform="translate(-95.378 -8.871)" fill="#ededed"/>
        <path id="Trazado_772893" data-name="Trazado 772893" d="M313.5,17.87a3.9,3.9,0,0,1-3.9-3.9V1.452a1.15,1.15,0,0,1,1.965-.813L326.82,15.894a1.157,1.157,0,0,1-.813,1.976Z" transform="translate(-279.891 -0.266)"/>
        <path id="Trazado_772894" data-name="Trazado 772894" d="M334.946,25.346H322.367a2.771,2.771,0,0,1-2.767-2.767V10Z" transform="translate(-288.762 -8.871)" fill="#3bc192"/>
        <path id="Trazado_772895" data-name="Trazado 772895" d="M90.2,207.639v9.982a5.241,5.241,0,0,1-5.228,5.239H51.739a5.243,5.243,0,0,1-5.239-5.239v-9.982a5.243,5.243,0,0,1,5.239-5.239H84.971A5.241,5.241,0,0,1,90.2,207.639Z" transform="translate(-46.5 -179.545)"/>
        <path id="Trazado_772896" data-name="Trazado 772896" d="M60.7,212.5H93.931a4.1,4.1,0,0,1,4.1,4.11v9.982a4.108,4.108,0,0,1-4.1,4.11H60.7a4.1,4.1,0,0,1-4.1-4.11V216.61A4.087,4.087,0,0,1,60.7,212.5Z" transform="translate(-55.459 -188.505)" fill="#fabf40"/>
        <g id="Grupo_1043413" data-name="Grupo 1043413" transform="translate(10.998 27.349)">
          <path id="Trazado_772897" data-name="Trazado 772897" d="M150.449,245.9c0,2.405-1.276,3.738-3.523,3.738h-1.378v4.031H143.9V242.2h3.026C149.173,242.2,150.449,243.566,150.449,245.9Zm-1.682,0c0-1.411-.61-2.134-1.852-2.134h-1.366v4.291H146.9C148.157,248.072,148.767,247.383,148.767,245.9Z" transform="translate(-143.9 -242.2)" fill="#fff"/>
          <path id="Trazado_772898" data-name="Trazado 772898" d="M214.311,242.2h2.846a3.247,3.247,0,0,1,3.534,3.568v4.291a3.264,3.264,0,0,1-3.523,3.6H214.3V242.2Zm2.857,9.892c1.174,0,1.852-.7,1.852-2.066V245.8c0-1.344-.655-2.033-1.852-2.033H215.96v8.322Z" transform="translate(-206.35 -242.2)" fill="#fff"/>
          <path id="Trazado_772899" data-name="Trazado 772899" d="M289.96,243.758v3.421H293.4v1.5H289.96v4.98H288.3V242.2h5.4v1.558Z" transform="translate(-271.995 -242.2)" fill="#fff"/>
        </g>
      </g>
    </g>
  </g>
</svg>
