<svg xmlns="http://www.w3.org/2000/svg" width="315" height="192" viewBox="0 0 315 192">
  <g id="Grupo_1043817" data-name="Grupo 1043817" transform="translate(-285 -32218)">
    <rect id="Rectángulo_355909" data-name="Rectángulo 355909" width="315" height="192" transform="translate(285 32218)" fill="#e3dff1"/>
    <g id="investigacion" transform="translate(-56.7 31643.102)">
      <g id="Grupo_1043795" data-name="Grupo 1043795" transform="translate(436.7 616.5)">
        <path id="Trazado_773371" data-name="Trazado 773371" d="M542.6,722.633H469.226a5.526,5.526,0,0,1-5.526-5.526V649.126a5.526,5.526,0,0,1,5.526-5.526H581.2a5.526,5.526,0,0,1,5.526,5.526v67.982a5.526,5.526,0,0,1-5.526,5.526H542.6Z" transform="translate(-462.619 -642.515)" fill="#bfa2fd"/>
        <path id="Trazado_773372" data-name="Trazado 773372" d="M555.281,697.7h-9.922a1.085,1.085,0,1,1,0-2.17h9.922a4.446,4.446,0,0,0,4.441-4.441V623.111a4.446,4.446,0,0,0-4.441-4.441H443.311a4.446,4.446,0,0,0-4.441,4.441v67.982a4.446,4.446,0,0,0,4.441,4.441h73.371a1.085,1.085,0,0,1,0,2.17H443.311a6.617,6.617,0,0,1-6.611-6.611V623.111a6.618,6.618,0,0,1,6.611-6.611h111.97a6.618,6.618,0,0,1,6.611,6.611v67.982A6.617,6.617,0,0,1,555.281,697.7Z" transform="translate(-436.7 -616.5)" fill="#3e2f78"/>
      </g>
      <g id="Grupo_1043796" data-name="Grupo 1043796" transform="translate(474.995 642.751)">
        <circle id="Elipse_4966" data-name="Elipse 4966" cx="23.208" cy="23.208" r="23.208" transform="translate(1.085 1.085)" fill="#89f5ed"/>
        <path id="Trazado_773373" data-name="Trazado 773373" d="M1417.393,1320.686a24.205,24.205,0,1,1,9.141-1.778A24.192,24.192,0,0,1,1417.393,1320.686Zm0-46.419a22.119,22.119,0,1,0,15.644,6.479h0A21.989,21.989,0,0,0,1417.393,1274.266Z" transform="translate(-1393.1 -1272.1)" fill="#3e2f78"/>
      </g>
      <g id="Grupo_1043797" data-name="Grupo 1043797" transform="translate(481.558 695.601)">
        <path id="Trazado_773374" data-name="Trazado 773374" d="M1584.1,2639.437V2619.1h34.059v20.341Z" transform="translate(-1583.015 -2618.015)" fill="#fff"/>
        <path id="Trazado_773375" data-name="Trazado 773375" d="M1592.144,2614.511a1.084,1.084,0,0,1-1.085-1.085V2594.17H1559.17v19.252a1.085,1.085,0,0,1-2.17,0v-20.337a1.083,1.083,0,0,1,1.085-1.085h34.059a1.083,1.083,0,0,1,1.085,1.085v20.341A1.083,1.083,0,0,1,1592.144,2614.511Z" transform="translate(-1557 -2592)" fill="#3e2f78"/>
      </g>
      <g id="Grupo_1043798" data-name="Grupo 1043798" transform="translate(437.056 635.66)">
        <path id="Trazado_773376" data-name="Trazado 773376" d="M569.351,1097.17H446.685a1.085,1.085,0,0,1,0-2.17H569.347a1.085,1.085,0,0,1,0,2.17Z" transform="translate(-445.6 -1095)" fill="#3e2f78"/>
      </g>
      <g id="Grupo_1043801" data-name="Grupo 1043801" transform="translate(494.787 651.18)">
        <g id="Grupo_1043799" data-name="Grupo 1043799" transform="translate(0 11.304)">
          <path id="Trazado_773377" data-name="Trazado 773377" d="M1917.924,1812.2h0a3.425,3.425,0,0,1-3.424-3.423v-13.358a3.425,3.425,0,0,1,3.424-3.424h0a3.425,3.425,0,0,1,3.424,3.424v13.358A3.427,3.427,0,0,1,1917.924,1812.2Z" transform="translate(-1913.415 -1790.915)" fill="#fff"/>
          <path id="Trazado_773378" data-name="Trazado 773378" d="M1891.909,1787.275a4.513,4.513,0,0,1-4.509-4.509v-13.357a4.509,4.509,0,1,1,9.017,0v13.357A4.516,4.516,0,0,1,1891.909,1787.275Zm0-20.2a2.341,2.341,0,0,0-2.338,2.338v13.358a2.338,2.338,0,0,0,4.677,0v-13.358A2.346,2.346,0,0,0,1891.909,1767.074Z" transform="translate(-1887.4 -1764.9)" fill="#3e2f78"/>
        </g>
        <g id="Grupo_1043800" data-name="Grupo 1043800" transform="translate(0 0)">
          <path id="Trazado_773379" data-name="Trazado 773379" d="M1917.924,1516.547h0a3.425,3.425,0,0,1-3.424-3.423h0a3.425,3.425,0,0,1,3.424-3.424h0a3.425,3.425,0,0,1,3.424,3.424h0A3.427,3.427,0,0,1,1917.924,1516.547Z" transform="translate(-1913.415 -1508.615)" fill="#fff"/>
          <path id="Trazado_773380" data-name="Trazado 773380" d="M1891.909,1491.617a4.509,4.509,0,1,1,4.509-4.509A4.513,4.513,0,0,1,1891.909,1491.617Zm0-6.847a2.338,2.338,0,1,0,2.339,2.338A2.341,2.341,0,0,0,1891.909,1484.77Z" transform="translate(-1887.4 -1482.6)" fill="#3e2f78"/>
        </g>
      </g>
      <g id="Grupo_1043805" data-name="Grupo 1043805" transform="translate(443.807 650.118)">
        <g id="Grupo_1043802" data-name="Grupo 1043802" transform="translate(0 0)">
          <path id="Trazado_773381" data-name="Trazado 773381" d="M636.351,1458.271H615.285a1.085,1.085,0,0,1,0-2.17h21.066a1.085,1.085,0,0,1,0,2.17Z" transform="translate(-614.2 -1456.1)" fill="#3e2f78"/>
        </g>
        <g id="Grupo_1043803" data-name="Grupo 1043803" transform="translate(0 29.038)">
          <path id="Trazado_773382" data-name="Trazado 773382" d="M636.351,2183.47H615.285a1.085,1.085,0,0,1,0-2.17h21.066a1.085,1.085,0,1,1,0,2.17Z" transform="translate(-614.2 -2181.3)" fill="#3e2f78"/>
        </g>
        <g id="Grupo_1043804" data-name="Grupo 1043804" transform="translate(0 14.783)">
          <path id="Trazado_773383" data-name="Trazado 773383" d="M626.9,1827.47H615.285a1.085,1.085,0,0,1,0-2.17H626.9a1.085,1.085,0,0,1,0,2.17Z" transform="translate(-614.2 -1825.3)" fill="#3e2f78"/>
        </g>
      </g>
      <g id="Grupo_1043809" data-name="Grupo 1043809" transform="translate(531.585 650.118)">
        <g id="Grupo_1043806" data-name="Grupo 1043806" transform="translate(0 29.038)">
          <path id="Trazado_773384" data-name="Trazado 773384" d="M2828.551,2183.47h-21.065a1.085,1.085,0,0,1,0-2.17h21.065a1.085,1.085,0,1,1,0,2.17Z" transform="translate(-2806.4 -2181.3)" fill="#3e2f78"/>
        </g>
        <g id="Grupo_1043807" data-name="Grupo 1043807" transform="translate(0 0)">
          <path id="Trazado_773385" data-name="Trazado 773385" d="M2828.551,1458.271h-21.065a1.085,1.085,0,0,1,0-2.17h21.065a1.085,1.085,0,1,1,0,2.17Z" transform="translate(-2806.4 -1456.1)" fill="#3e2f78"/>
        </g>
        <g id="Grupo_1043808" data-name="Grupo 1043808" transform="translate(9.45 14.259)">
          <path id="Trazado_773386" data-name="Trazado 773386" d="M3055.1,1814.37h-11.616a1.085,1.085,0,0,1,0-2.17H3055.1a1.085,1.085,0,0,1,0,2.17Z" transform="translate(-3042.4 -1812.2)" fill="#3e2f78"/>
        </g>
      </g>
      <g id="Grupo_1043810" data-name="Grupo 1043810" transform="translate(464.837 716.014)">
        <path id="Trazado_773387" data-name="Trazado 773387" d="M1196.41,3103.97h-55.925a1.085,1.085,0,1,1,0-2.17h55.925a1.085,1.085,0,1,1,0,2.17Z" transform="translate(-1139.4 -3101.8)" fill="#3e2f78"/>
      </g>
      <g id="Grupo_1043811" data-name="Grupo 1043811" transform="translate(514.614 682.369)">
        <path id="Trazado_773388" data-name="Trazado 773388" d="M2392.934,2273.015a1.084,1.084,0,0,1-.769-.316l-9.3-9.3a1.084,1.084,0,0,1,1.533-1.533l9.3,9.3a1.083,1.083,0,0,1,0,1.534A1.07,1.07,0,0,1,2392.934,2273.015Z" transform="translate(-2382.55 -2261.55)" fill="#3e2f78"/>
      </g>
      <g id="Grupo_1043812" data-name="Grupo 1043812" transform="translate(520.966 688.718)">
        <path id="Trazado_773389" data-name="Trazado 773389" d="M2603.485,2478.885l-3.5,3.5a4.1,4.1,0,0,1-5.79,0l-24.721-24.722a4.1,4.1,0,0,1,0-5.79l3.5-3.5a4.1,4.1,0,0,1,5.79,0l24.722,24.721A4.09,4.09,0,0,1,2603.485,2478.885Z" transform="translate(-2567.191 -2446.091)" fill="#f9e078"/>
        <path id="Trazado_773390" data-name="Trazado 773390" d="M2571.1,2458.68a5.169,5.169,0,0,1-3.664-1.514l-24.721-24.725a5.191,5.191,0,0,1,0-7.328l3.5-3.5a5.191,5.191,0,0,1,7.327,0l24.721,24.721a5.191,5.191,0,0,1,0,7.327h0l-3.5,3.5A5.162,5.162,0,0,1,2571.1,2458.68Zm-21.222-36.409a2.988,2.988,0,0,0-2.126.881l-3.5,3.5a3.015,3.015,0,0,0,0,4.257l24.722,24.721a3.013,3.013,0,0,0,4.256,0l3.5-3.5a3.013,3.013,0,0,0,0-4.256l-24.721-24.721A3,3,0,0,0,2549.877,2422.271Zm27.616,30.623Z" transform="translate(-2541.2 -2420.1)" fill="#3e2f78"/>
      </g>
      <g id="Grupo_1043813" data-name="Grupo 1043813" transform="translate(436.7 616.656)">
        <path id="Trazado_773391" data-name="Trazado 773391" d="M586.826,666.5V653.026A5.526,5.526,0,0,0,581.3,647.5H469.326a5.526,5.526,0,0,0-5.526,5.526V666.5Z" transform="translate(-462.715 -646.415)" fill="#fff"/>
        <path id="Trazado_773392" data-name="Trazado 773392" d="M560.811,641.574H437.785a1.083,1.083,0,0,1-1.085-1.085V627.011a6.62,6.62,0,0,1,6.611-6.611h111.97a6.618,6.618,0,0,1,6.611,6.611v13.478A1.083,1.083,0,0,1,560.811,641.574ZM438.87,639.4H559.726V627.011a4.446,4.446,0,0,0-4.441-4.441H443.311a4.446,4.446,0,0,0-4.441,4.441Z" transform="translate(-436.7 -620.4)" fill="#3e2f78"/>
      </g>
      <g id="Grupo_1043814" data-name="Grupo 1043814" transform="translate(446.186 622.174)">
        <circle id="Elipse_4967" data-name="Elipse 4967" cx="3.976" cy="3.976" r="3.976" transform="translate(1.085 1.085)" fill="#f9e078"/>
        <path id="Trazado_773393" data-name="Trazado 773393" d="M678.661,768.322a5.061,5.061,0,1,1,5.061-5.061A5.067,5.067,0,0,1,678.661,768.322Zm0-7.952a2.891,2.891,0,1,0,2.891,2.891A2.895,2.895,0,0,0,678.661,760.37Z" transform="translate(-673.6 -758.2)" fill="#3e2f78"/>
      </g>
      <g id="Grupo_1043815" data-name="Grupo 1043815" transform="translate(460.296 622.174)">
        <circle id="Elipse_4968" data-name="Elipse 4968" cx="3.976" cy="3.976" r="3.976" transform="translate(1.085 1.085)" fill="#f9e078"/>
        <path id="Trazado_773394" data-name="Trazado 773394" d="M1031.061,768.322a5.061,5.061,0,1,1,5.061-5.061A5.067,5.067,0,0,1,1031.061,768.322Zm0-7.952a2.891,2.891,0,1,0,2.891,2.891A2.895,2.895,0,0,0,1031.061,760.37Z" transform="translate(-1026 -758.2)" fill="#3e2f78"/>
      </g>
      <g id="Grupo_1043816" data-name="Grupo 1043816" transform="translate(474.403 622.174)">
        <circle id="Elipse_4969" data-name="Elipse 4969" cx="3.976" cy="3.976" r="3.976" transform="translate(1.085 1.085)" fill="#f9e078"/>
        <path id="Trazado_773395" data-name="Trazado 773395" d="M1383.361,768.322a5.061,5.061,0,1,1,5.061-5.061A5.067,5.067,0,0,1,1383.361,768.322Zm0-7.952a2.891,2.891,0,1,0,2.891,2.891A2.895,2.895,0,0,0,1383.361,760.37Z" transform="translate(-1378.3 -758.2)" fill="#3e2f78"/>
      </g>
    </g>
  </g>
</svg>
