<svg xmlns="http://www.w3.org/2000/svg" xmlns:xlink="http://www.w3.org/1999/xlink" width="143" height="143" viewBox="0 0 143 143">
  <defs>
    <clipPath id="clip-path">
      <path id="path1821" d="M0-682.665H94.188v94.188H0Z" transform="translate(0 682.665)"/>
    </clipPath>
  </defs>
  <g id="Grupo_1043881" data-name="Grupo 1043881" transform="translate(-378 -3139)">
    <g id="Elipse_4762" data-name="Elipse 4762" transform="translate(378 3139)" fill="#fff8e8" stroke="#452d9e" stroke-width="1">
      <circle cx="71.5" cy="71.5" r="71.5" stroke="none"/>
      <circle cx="71.5" cy="71.5" r="71" fill="none"/>
    </g>
    <g id="g1815" transform="translate(400.812 3846.07)">
      <g id="g1817" transform="translate(0 -682.665)">
        <g id="g1819" clip-path="url(#clip-path)">
          <g id="g1825" transform="translate(79.772 38.289)">
            <path id="path1827" d="M-33.165-118.883h-5.308V-137.91h5.308a7.728,7.728,0,0,1,7.728,7.728v3.571a7.728,7.728,0,0,1-7.728,7.728" transform="translate(38.473 137.91)" fill="#ffe5c2"/>
          </g>
          <g id="g1829" transform="translate(80.662 38.289)">
            <path id="path1831" d="M-27.606,0h-4.418A7.728,7.728,0,0,1-24.3,7.728V11.3a7.728,7.728,0,0,1-7.728,7.728h4.418A7.728,7.728,0,0,0-19.877,11.3V7.728A7.728,7.728,0,0,0-27.606,0" transform="translate(32.024)" fill="#fed2a4"/>
          </g>
          <g id="g1833" transform="translate(1.38 38.289)">
            <path id="path1835" d="M-81.456,0V19.027h-5.309a7.73,7.73,0,0,1-1.21-.094A7.732,7.732,0,0,1-94.493,11.3V7.728A7.731,7.731,0,0,1-87.929.086,7.85,7.85,0,0,1-86.765,0Z" transform="translate(94.493 0)" fill="#ffe5c2"/>
          </g>
          <g id="g1837" transform="translate(7.898 38.289)">
            <path id="path1839" d="M-40.734,0V19.027h-5.309a7.731,7.731,0,0,1-1.21-.094V1.437c0-.454.015-.9.046-1.35A7.85,7.85,0,0,1-46.043,0Z" transform="translate(47.253 0)" fill="#fed2a4"/>
          </g>
          <g id="g1841" transform="translate(31.011 6.344)">
            <path id="path1843" d="M-153.214-95.3c4.051-1.153,7.627-3.415,7.627-7.627a7.627,7.627,0,0,0-7.627-7.627h-5.591a17.229,17.229,0,0,0-13.071,6l-5.861,6.825s9.848,6.6,24.523,2.423" transform="translate(177.737 110.552)" fill="#ffe177"/>
          </g>
          <g id="g1845" transform="translate(43.656 6.345)">
            <path id="path1847" d="M-74.207,0h-4.418A7.626,7.626,0,0,1-71,7.627c0,4.212-3.575,6.474-7.626,7.626a35.867,35.867,0,0,1-7.459,1.31,34.672,34.672,0,0,0,11.877-1.31c4.051-1.153,7.627-3.414,7.627-7.626A7.627,7.627,0,0,0-74.207,0" transform="translate(86.084)" fill="#f7c952"/>
          </g>
          <g id="g1849" transform="translate(12.316 19.083)">
            <path id="path1851" d="M-292.092-383.842h-23.946a22.805,22.805,0,0,1-22.805-22.805v-17.987A20.644,20.644,0,0,1-318.2-445.278h28.268a20.644,20.644,0,0,1,20.644,20.644v17.987a22.805,22.805,0,0,1-22.805,22.805" transform="translate(338.843 445.278)" fill="#ffe5c2"/>
          </g>
          <g id="g1853" transform="translate(54.649 19.083)">
            <path id="path1855" d="M-41.108,0h-4.418A20.644,20.644,0,0,1-24.883,20.644V38.631A22.805,22.805,0,0,1-47.688,61.436h4.418A22.805,22.805,0,0,0-20.464,38.631V20.644A20.644,20.644,0,0,0-41.108,0" transform="translate(47.688)" fill="#fed2a4"/>
          </g>
          <g id="g1857" transform="translate(44.256 51.43)">
            <path id="path1859" d="M-19.132-54.534h-.449a2.613,2.613,0,0,1-2.614-2.613v-3.5a2.613,2.613,0,0,1,2.614-2.613h.449a2.613,2.613,0,0,1,2.613,2.613v3.5a2.613,2.613,0,0,1-2.613,2.613" transform="translate(22.195 63.263)" fill="#ffbd86"/>
          </g>
          <g id="g1861" transform="translate(63.163 57.98)">
            <path id="path1863" d="M-38.119-19.06a3.051,3.051,0,0,1-3.051,3.051,3.05,3.05,0,0,1-3.05-3.051,3.051,3.051,0,0,1,3.05-3.051,3.051,3.051,0,0,1,3.051,3.051" transform="translate(44.22 22.111)" fill="#fed2a4"/>
          </g>
          <g id="g1865" transform="translate(24.908 57.98)">
            <path id="path1867" d="M-38.119-19.06a3.051,3.051,0,0,1-3.051,3.051,3.05,3.05,0,0,1-3.05-3.051,3.051,3.051,0,0,1,3.05-3.051,3.051,3.051,0,0,1,3.051,3.051" transform="translate(44.22 22.111)" fill="#fed2a4"/>
          </g>
          <g id="g1869" transform="translate(47.6 69.848)">
            <path id="path1871" d="M-59.084-85.254l-1.839.77a2.054,2.054,0,0,1-2.72-1.182l-4.9-13.234a23.078,23.078,0,0,1,6.9,1.063l3.693,9.975a2.054,2.054,0,0,1-1.133,2.607" transform="translate(68.541 98.9)" fill="#ffceec"/>
          </g>
          <g id="g1873" transform="translate(47.6 69.848)">
            <path id="path1875" d="M-66.161-68.963l-3.693-9.975A23.079,23.079,0,0,0-76.75-80l.123.334a18.207,18.207,0,0,1,3.013.73l3.693,9.975a2.054,2.054,0,0,1-1.133,2.607l-.45.188a2.053,2.053,0,0,0,2.371.582l1.839-.77a2.054,2.054,0,0,0,1.133-2.607" transform="translate(76.75 80.001)" fill="#ffbae4"/>
          </g>
          <g id="g1877" transform="translate(27.975 24.803)">
            <path id="path1879" d="M-221.184-118.487h-32.565a2.837,2.837,0,0,1-2.837-2.837v-13.29a2.837,2.837,0,0,1,2.837-2.837h32.565a2.837,2.837,0,0,1,2.837,2.837v13.29a2.837,2.837,0,0,1-2.837,2.837" transform="translate(256.586 137.452)" fill="#e4f6f9"/>
          </g>
          <g id="g1881" transform="translate(58.958 24.803)">
            <path id="path1883" d="M-27.606,0h-4.418a2.837,2.837,0,0,1,2.837,2.837v13.29a2.837,2.837,0,0,1-2.837,2.837h4.418a2.837,2.837,0,0,0,2.837-2.837V2.837A2.837,2.837,0,0,0-27.606,0" transform="translate(32.024)" fill="#d4f3f6"/>
          </g>
          <path id="path1885" d="M296.771-462.895h12.3v7.927h-12.3Z" transform="translate(-255.825 493.217)" fill="#a6e7f0"/>
          <path id="path1887" d="M353.87-454.968h4.418v-7.927H353.87Z" transform="translate(-305.046 493.217)" fill="#6bd9e7"/>
          <g id="g1889" transform="translate(81.821 38.289)">
            <path id="path1891" d="M-.322-118.879H2.886a7.729,7.729,0,0,0,7.728-7.728v-3.571a7.729,7.729,0,0,0-7.728-7.728H-.373" transform="translate(0.373 137.906)" fill="none" stroke="#000" stroke-linecap="round" stroke-linejoin="round" stroke-miterlimit="10" stroke-width="2"/>
          </g>
          <g id="g1893" transform="translate(81.872 45.911)">
            <path id="path1895" d="M-27.606,0s-4.418,1.6-4.418,6.126" transform="translate(32.024)" fill="none" stroke="#000" stroke-linecap="round" stroke-linejoin="round" stroke-miterlimit="10" stroke-width="2"/>
          </g>
          <g id="g1897" transform="translate(1.38 38.289)">
            <path id="path1899" d="M-68.651,0h-3.26a7.728,7.728,0,0,0-7.728,7.728V11.3a7.73,7.73,0,0,0,4.544,7.044" transform="translate(79.638)" fill="none" stroke="#000" stroke-linecap="round" stroke-linejoin="round" stroke-miterlimit="10" stroke-width="2"/>
          </g>
          <g id="g1901" transform="translate(7.898 45.911)">
            <path id="path1903" d="M0,0S4.418,1.6,4.418,6.126" fill="none" stroke="#000" stroke-linecap="round" stroke-linejoin="round" stroke-miterlimit="10" stroke-width="2"/>
          </g>
          <g id="g1905" transform="translate(22.681 49.562)">
            <path id="path1907" d="M0,0A5.294,5.294,0,0,0,5.294,5.294,5.294,5.294,0,0,0,10.588,0" fill="none" stroke="#000" stroke-linecap="round" stroke-linejoin="round" stroke-miterlimit="10" stroke-width="2"/>
          </g>
          <g id="g1909" transform="translate(60.92 49.562)">
            <path id="path1911" d="M0,0A5.294,5.294,0,0,0,5.294,5.294,5.294,5.294,0,0,0,10.588,0" fill="none" stroke="#000" stroke-linecap="round" stroke-linejoin="round" stroke-miterlimit="10" stroke-width="2"/>
          </g>
          <g id="g1913" transform="translate(38.948 69.844)">
            <path id="path1915" d="M0-8.436a22,22,0,0,1,8.146-1.35c.169,0,.338,0,.506,0a23.08,23.08,0,0,1,6.9,1.063" transform="translate(0 9.787)" fill="none" stroke="#000" stroke-linecap="round" stroke-linejoin="round" stroke-miterlimit="10" stroke-width="2"/>
          </g>
          <g id="g1917" transform="translate(44.256 51.43)">
            <path id="path1919" d="M-19.132-54.534h-.449a2.613,2.613,0,0,1-2.614-2.613v-3.5a2.613,2.613,0,0,1,2.614-2.613h.449a2.613,2.613,0,0,1,2.613,2.613v3.5A2.613,2.613,0,0,1-19.132-54.534Z" transform="translate(22.195 63.263)" fill="none" stroke="#000" stroke-linecap="round" stroke-linejoin="round" stroke-miterlimit="10" stroke-width="2"/>
          </g>
          <g id="g1921" transform="translate(31.01 6.344)">
            <path id="path1923" d="M-.011-80.168l0,0L5.848-87a17.227,17.227,0,0,1,13.07-6h5.591A7.607,7.607,0,0,1,29.9-90.766a7.605,7.605,0,0,1,2.233,5.394,6.425,6.425,0,0,1-2.474,5.112" transform="translate(0.013 93)" fill="none" stroke="#000" stroke-linecap="round" stroke-linejoin="round" stroke-miterlimit="10" stroke-width="2"/>
          </g>
          <g id="g1925" transform="translate(12.316 19.084)">
            <path id="path1927" d="M-326.939-379.539a22.813,22.813,0,0,0,17.228-22.117v-17.988a20.643,20.643,0,0,0-20.644-20.642h-28.268a20.643,20.643,0,0,0-20.644,20.642v17.988a22.8,22.8,0,0,0,22.806,22.8h16.428" transform="translate(379.267 440.286)" fill="none" stroke="#000" stroke-linecap="round" stroke-linejoin="round" stroke-miterlimit="10" stroke-width="2"/>
          </g>
          <g id="g1929" transform="translate(27.975 24.803)">
            <path id="path1931" d="M-79.379,0h22.7a2.837,2.837,0,0,1,2.837,2.837v13.29a2.837,2.837,0,0,1-2.837,2.837H-89.247a2.837,2.837,0,0,1-2.837-2.837V2.837A2.837,2.837,0,0,1-89.247,0h3.35" transform="translate(92.084)" fill="none" stroke="#000" stroke-linecap="round" stroke-linejoin="round" stroke-miterlimit="10" stroke-width="2"/>
          </g>
          <path id="path1933" d="M296.771-462.895h12.3v7.927h-12.3Z" transform="translate(-255.825 493.217)" fill="none" stroke="#000" stroke-linecap="round" stroke-linejoin="round" stroke-miterlimit="10" stroke-width="2"/>
          <g id="g1935" transform="translate(47.6 69.848)">
            <path id="path1937" d="M-59.084-85.254l-1.839.77a2.054,2.054,0,0,1-2.72-1.182l-4.9-13.234a23.078,23.078,0,0,1,6.9,1.063l3.693,9.975A2.054,2.054,0,0,1-59.084-85.254Z" transform="translate(68.541 98.9)" fill="none" stroke="#000" stroke-linecap="round" stroke-linejoin="round" stroke-miterlimit="10" stroke-width="2"/>
          </g>
          <g id="g1939" transform="translate(56.262 83.826)">
            <path id="path1941" d="M-10.545-25.1l-1.688-4.018" transform="translate(12.233 29.123)" fill="none" stroke="#000" stroke-linecap="round" stroke-linejoin="round" stroke-miterlimit="10" stroke-width="2"/>
          </g>
          <g id="g1943" transform="translate(42.232 12.76)">
            <path id="path1945" d="M-55.709,0s-6.962,2.907-8.916,6.323" transform="translate(64.625)" fill="none" stroke="#000" stroke-linecap="round" stroke-linejoin="round" stroke-miterlimit="10" stroke-width="2"/>
          </g>
        </g>
      </g>
    </g>
  </g>
</svg>
