<svg xmlns="http://www.w3.org/2000/svg" width="131" height="122" viewBox="0 0 131 122">
  <g id="Grupo_1043879" data-name="Grupo 1043879" transform="translate(-356 -4128)">
    <rect id="Rectángulo_355597" data-name="Rectángulo 355597" width="131" height="122" rx="12" transform="translate(356 4128)" fill="#fff8e8"/>
    <g id="resultados" transform="translate(374.628 4136.092)">
      <path id="Trazado_771067" data-name="Trazado 771067" d="M32.194,16.412l-8.3,0a7.015,7.015,0,0,0-7.019,7.015V77.409a7.015,7.015,0,0,0,7.015,7.015H64.364a7.015,7.015,0,0,0,7.015-7.015V34.11l-.1-10.733a7.015,7.015,0,0,0-7.011-6.948L36.53,16.414Z" transform="translate(-0.991 -0.991)" fill="#fabf40"/>
      <path id="Trazado_771068" data-name="Trazado 771068" d="M63.373,83.943H22.9a7.533,7.533,0,0,1-7.525-7.525V22.433A7.525,7.525,0,0,1,22.9,14.908h0l8.3,0a.509.509,0,0,1,0,1.019h0l-8.3,0h0a6.506,6.506,0,0,0-6.506,6.506V76.418A6.513,6.513,0,0,0,22.9,82.924H63.373a6.513,6.513,0,0,0,6.505-6.506v-43.3l-.1-10.728a6.527,6.527,0,0,0-6.5-6.443L35.54,15.934a.509.509,0,0,1,0-1.019h0l27.734.014A7.55,7.55,0,0,1,70.8,22.381l.1,10.733v43.3a7.534,7.534,0,0,1-7.525,7.525Z" transform="translate(0 0)" fill="#2f2f2f"/>
      <path id="Trazado_771069" data-name="Trazado 771069" d="M218.05,26.18s1.157,4.3,4.49,4.5c0,0-4.449,1.537-4.524,4.823,0,0-.876-4.609-4.389-4.775C213.627,30.727,217.719,30.107,218.05,26.18Z" transform="translate(-130.926 -7.444)" fill="#d5de58"/>
      <path id="Trazado_771070" data-name="Trazado 771070" d="M217.025,35.02a.51.51,0,0,1-.5-.413c-.008-.042-.847-4.217-3.913-4.362a.51.51,0,0,1-.053-1.013c.15-.023,3.7-.617,3.992-4.086a.509.509,0,0,1,1-.09c.011.039,1.107,3.948,4.029,4.123a.51.51,0,0,1,.137.99c-.041.014-4.115,1.464-4.181,4.353a.509.509,0,0,1-.467.5A.361.361,0,0,1,217.025,35.02ZM214.4,29.678a5.937,5.937,0,0,1,2.577,3.015,7.24,7.24,0,0,1,3.039-2.862,6.219,6.219,0,0,1-2.83-2.962A5.466,5.466,0,0,1,214.4,29.678Z" transform="translate(-129.935 -6.454)" fill="#3a312a"/>
      <path id="Trazado_771071" data-name="Trazado 771071" d="M198.868,43.16s.819,3.041,3.176,3.182c0,0-3.147,1.087-3.2,3.411,0,0-.619-3.26-3.1-3.377A3.721,3.721,0,0,0,198.868,43.16Z" transform="translate(-119.114 -18.657)" fill="#d5de58"/>
      <path id="Trazado_771072" data-name="Trazado 771072" d="M197.853,49.272a.51.51,0,0,1-.5-.414c-.005-.028-.579-2.867-2.628-2.963a.51.51,0,0,1-.053-1.013,3.191,3.191,0,0,0,2.7-2.755.509.509,0,0,1,1-.09c.007.027.756,2.689,2.714,2.807a.509.509,0,0,1,.136.99c-.028.01-2.813,1-2.857,2.942a.51.51,0,0,1-.467.5Zm-1.535-3.915a4.353,4.353,0,0,1,1.51,1.793,5.327,5.327,0,0,1,1.822-1.689,4.543,4.543,0,0,1-1.678-1.774A4.061,4.061,0,0,1,196.318,45.357Z" transform="translate(-118.123 -17.667)" fill="#3a312a"/>
      <path id="Trazado_771073" data-name="Trazado 771073" d="M198.868,16.5s.819,3.041,3.176,3.182c0,0-3.147,1.087-3.2,3.411,0,0-.619-3.26-3.1-3.377A3.722,3.722,0,0,0,198.868,16.5Z" transform="translate(-119.114 -1.053)" fill="#d5de58"/>
      <path id="Trazado_771074" data-name="Trazado 771074" d="M197.853,22.614a.51.51,0,0,1-.5-.414c-.005-.028-.579-2.867-2.628-2.963a.51.51,0,0,1-.053-1.013,3.191,3.191,0,0,0,2.7-2.756.509.509,0,0,1,1-.09c.007.027.756,2.69,2.714,2.807a.509.509,0,0,1,.136.99c-.028.01-2.813,1-2.857,2.942a.51.51,0,0,1-.467.5l-.042,0ZM196.318,18.7a4.355,4.355,0,0,1,1.51,1.793A5.322,5.322,0,0,1,199.65,18.8a4.546,4.546,0,0,1-1.678-1.774A4.062,4.062,0,0,1,196.318,18.7Z" transform="translate(-118.123 -0.062)" fill="#3a312a"/>
      <path id="Trazado_771075" data-name="Trazado 771075" d="M153.109,33.9l-5.142-5.145-.041-4.344a6.529,6.529,0,0,0-6.5-6.442h5.094a6.529,6.529,0,0,1,6.5,6.442Z" transform="translate(-83.243 -2.023)" fill="#fabf40"/>
      <path id="Trazado_771076" data-name="Trazado 771076" d="M39.873,69.263v31.072a7.079,7.079,0,0,0,7.082,7.082H87.3a7.079,7.079,0,0,0,7.082-7.082V57.1L76.674,39.4H46.955a7.079,7.079,0,0,0-7.082,7.082V69.263Z" transform="translate(-16.18 -16.172)" fill="#e1f6ef"/>
      <g id="Grupo_1042656" data-name="Grupo 1042656" transform="translate(23.183 22.716)">
        <path id="Trazado_771077" data-name="Trazado 771077" d="M86.307,106.937H45.965a7.6,7.6,0,0,1-7.592-7.592V68.273a.509.509,0,0,1,1.019,0V99.345a6.58,6.58,0,0,0,6.573,6.573H86.307a6.58,6.58,0,0,0,6.573-6.573V56.324L75.473,38.916H45.965a6.58,6.58,0,0,0-6.573,6.573V63.784a.509.509,0,0,1-1.019,0V45.49A7.6,7.6,0,0,1,45.965,37.9H75.684a.511.511,0,0,1,.36.149L93.749,55.753a.51.51,0,0,1,.149.36V99.345A7.6,7.6,0,0,1,86.307,106.937Z" transform="translate(-38.373 -37.898)" fill="#2f2f2f"/>
        <path id="Trazado_771078" data-name="Trazado 771078" d="M102.85,154.273H68.375a.509.509,0,1,1,0-1.019H102.85a.509.509,0,0,1,0,1.019Z" transform="translate(-57.85 -114.078)" fill="#2f2f2f"/>
        <path id="Trazado_771079" data-name="Trazado 771079" d="M102.85,179.16H68.375a.509.509,0,1,1,0-1.019H102.85a.509.509,0,1,1,0,1.019Z" transform="translate(-57.85 -130.514)" fill="#2f2f2f"/>
        <path id="Trazado_771080" data-name="Trazado 771080" d="M102.85,204.046H68.375a.509.509,0,0,1,0-1.019H102.85a.509.509,0,0,1,0,1.019Z" transform="translate(-57.85 -146.948)" fill="#2f2f2f"/>
      </g>
      <path id="Trazado_771081" data-name="Trazado 771081" d="M166.013,57.174v.044H154.579a6.235,6.235,0,0,1-6.235-6.235V39.5Z" transform="translate(-87.814 -16.244)" fill="#fabf40"/>
      <path id="Trazado_771082" data-name="Trazado 771082" d="M165.023,56.737H153.59a6.752,6.752,0,0,1-6.745-6.745V38.515a.51.51,0,0,1,.87-.36l17.669,17.669a.51.51,0,0,1,.149.36v.044a.51.51,0,0,1-.509.51ZM147.864,39.745V49.992a5.732,5.732,0,0,0,5.726,5.726h10.248Z" transform="translate(-86.824 -15.253)" fill="#3a312a"/>
      <circle id="Elipse_4766" data-name="Elipse 4766" cx="16.397" cy="16.397" r="16.397" transform="translate(58.735 58.451)" fill="#3bc192"/>
      <path id="Trazado_771083" data-name="Trazado 771083" d="M158.464,175.437a16.906,16.906,0,1,1,16.906-16.906A16.925,16.925,0,0,1,158.464,175.437Zm0-32.794a15.888,15.888,0,1,0,15.887,15.888A15.906,15.906,0,0,0,158.464,142.643Z" transform="translate(-83.332 -83.682)" fill="#2f2f2f"/>
      <path id="Trazado_771084" data-name="Trazado 771084" d="M166.026,183.944a2,2,0,0,1-1.632-.844l-5.219-7.369a2,2,0,1,1,3.264-2.312l3.918,5.532,11.251-10.15a2,2,0,1,1,2.68,2.971l-12.922,11.658a2,2,0,0,1-1.339.515Z" transform="translate(-94.723 -101.29)" fill="#fff"/>
      <path id="Trazado_771085" data-name="Trazado 771085" d="M165.034,183.464a2.59,2.59,0,0,1-.275-.015,2.512,2.512,0,0,1-1.773-1.044l-5.218-7.369a2.51,2.51,0,1,1,4.1-2.9l3.587,5.064,10.825-9.766a2.51,2.51,0,0,1,3.362,3.727l-12.922,11.658a2.509,2.509,0,0,1-1.681.646Zm-5.222-11.369a1.491,1.491,0,0,0-1.213,2.353l5.218,7.369a1.493,1.493,0,0,0,1.053.62,1.508,1.508,0,0,0,1.163-.375L178.956,170.4a1.491,1.491,0,0,0-.922-2.6,1.47,1.47,0,0,0-1.076.382l-11.251,10.15a.509.509,0,0,1-.757-.084l-3.918-5.532a1.483,1.483,0,0,0-.966-.608A1.5,1.5,0,0,0,159.812,172.095Z" transform="translate(-93.732 -100.3)" fill="#3a312a"/>
      <path id="Trazado_771086" data-name="Trazado 771086" d="M69.918,99.744l13.8-13.8,2.666,2.666-13.8,13.8a1.885,1.885,0,0,1-2.666-2.666Z" transform="translate(-35.657 -46.914)" fill="#12263f"/>
      <path id="Trazado_771087" data-name="Trazado 771087" d="M70.263,102.48a2.393,2.393,0,0,1-1.693-4.086l13.8-13.8a.509.509,0,0,1,.72,0l2.666,2.666a.509.509,0,0,1,0,.72l-13.8,13.8a2.388,2.388,0,0,1-1.693.7Zm-.973-3.366a1.376,1.376,0,0,0,1.945,1.945L84.672,87.622l-1.945-1.945Z" transform="translate(-34.669 -45.923)" fill="#3a312a"/>
      <path id="Trazado_771088" data-name="Trazado 771088" d="M0,0H9.412V15.284H0Z" transform="translate(41.625 37.32) rotate(-45)" fill="#3bc192"/>
      <path id="Trazado_771089" data-name="Trazado 771089" d="M102.511,78.293a.511.511,0,0,1-.36-.149L91.343,67.336a.509.509,0,0,1,0-.72L98,59.96a.524.524,0,0,1,.72,0l10.808,10.808a.509.509,0,0,1,0,.72l-6.655,6.655A.508.508,0,0,1,102.511,78.293ZM92.423,66.976,102.51,77.063l5.935-5.935L98.358,61.041Z" transform="translate(-50.072 -29.657)" fill="#3a312a"/>
      <path id="Trazado_771090" data-name="Trazado 771090" d="M121.636,96.966a1.411,1.411,0,0,1-1.995,0l-1.559-1.559a1.411,1.411,0,0,1,0-1.995l6.724-6.724a1.411,1.411,0,0,1,1.995,0l1.559,1.559a1.411,1.411,0,0,1,0,1.995Z" transform="translate(-67.556 -47.131)" fill="#3bc192"/>
      <path id="Trazado_771091" data-name="Trazado 771091" d="M119.647,96.9a1.906,1.906,0,0,1-1.358-.562l-1.559-1.559a1.92,1.92,0,0,1,0-2.715l6.724-6.724a1.92,1.92,0,0,1,2.715,0l1.559,1.559a1.92,1.92,0,0,1,0,2.715L121,96.336A1.905,1.905,0,0,1,119.647,96.9Zm5.165-11.1a.9.9,0,0,0-.637.264l-6.724,6.724a.9.9,0,0,0,0,1.275l1.559,1.559a.924.924,0,0,0,1.275,0l6.724-6.724a.9.9,0,0,0,0-1.275l-1.559-1.559A.9.9,0,0,0,124.812,85.794Z" transform="translate(-66.565 -46.14)" fill="#3a312a"/>
      <path id="Trazado_771092" data-name="Trazado 771092" d="M93.578,55.462a1.411,1.411,0,0,1,1.995,0l1.559,1.559a1.411,1.411,0,0,1,0,1.995L90.409,65.74a1.411,1.411,0,0,1-1.995,0l-1.559-1.559a1.411,1.411,0,0,1,0-1.995Z" transform="translate(-46.934 -26.509)" fill="#3bc192"/>
      <path id="Trazado_771093" data-name="Trazado 771093" d="M88.421,65.673a1.906,1.906,0,0,1-1.358-.562L85.5,63.551a1.92,1.92,0,0,1,0-2.715l6.724-6.724a1.92,1.92,0,0,1,2.715,0L96.5,55.672a1.92,1.92,0,0,1,0,2.715l-6.724,6.724a1.91,1.91,0,0,1-1.357.562Zm5.165-11.1a.9.9,0,0,0-.637.264l-6.724,6.724a.9.9,0,0,0,0,1.275l1.559,1.559a.923.923,0,0,0,1.275,0l6.724-6.724a.9.9,0,0,0,0-1.274l-1.559-1.559a.9.9,0,0,0-.637-.264Zm-1-.1h0Z" transform="translate(-45.944 -25.519)" fill="#3a312a"/>
      <path id="Trazado_771094" data-name="Trazado 771094" d="M103.339,131.071v.776H119.31v-.776a1.384,1.384,0,0,0-1.384-1.384h-13.2A1.384,1.384,0,0,0,103.339,131.071Z" transform="translate(-58.093 -75.799)" fill="#12263f"/>
      <path id="Trazado_771095" data-name="Trazado 771095" d="M118.32,131.366h-15.97a.509.509,0,0,1-.509-.509v-.776a1.9,1.9,0,0,1,1.893-1.893h13.2a1.9,1.9,0,0,1,1.893,1.893v.776A.509.509,0,0,1,118.32,131.366Zm-15.461-1.019H117.81v-.267a.875.875,0,0,0-.874-.874h-13.2a.875.875,0,0,0-.874.874Z" transform="translate(-57.103 -74.809)" fill="#3a312a"/>
      <path id="Trazado_771096" data-name="Trazado 771096" d="M108.732,124.71v.776H121.04v-.776a1.384,1.384,0,0,0-1.384-1.384h-9.54A1.384,1.384,0,0,0,108.732,124.71Z" transform="translate(-61.654 -71.599)" fill="#87796f"/>
      <path id="Trazado_771097" data-name="Trazado 771097" d="M120.05,125.005H107.742a.509.509,0,0,1-.509-.509v-.776a1.9,1.9,0,0,1,1.893-1.893h9.54a1.9,1.9,0,0,1,1.893,1.893v.776A.509.509,0,0,1,120.05,125.005Zm-11.8-1.019H119.54v-.267a.875.875,0,0,0-.874-.874h-9.54a.875.875,0,0,0-.874.874Z" transform="translate(-60.664 -70.608)" fill="#3a312a"/>
      <path id="Trazado_771098" data-name="Trazado 771098" d="M183.872,93.158v16.651a16.9,16.9,0,0,1,2.537-.19,16.728,16.728,0,0,1,2.557.194V93.158Z" transform="translate(-111.276 -51.676)" fill="#dee9f0"/>
      <path id="Trazado_771099" data-name="Trazado 771099" d="M183.833,142.191h.014v0S183.836,142.188,183.833,142.191Z" transform="translate(-111.251 -84.055)" fill="#dcc8ab"/>
    </g>
  </g>
</svg>
