<svg xmlns="http://www.w3.org/2000/svg" width="131" height="122" viewBox="0 0 131 122">
  <g id="Grupo_1043980" data-name="Grupo 1043980" transform="translate(4791 7129)">
    <rect id="Rectángulo_355610" data-name="Rectángulo 355610" width="131" height="122" rx="12" transform="translate(-4791 -7129)" fill="#fff8e8"/>
    <g id="aplicacion-de-salud" transform="translate(-4772.677 -7118.928)">
      <path id="Trazado_771172" data-name="Trazado 771172" d="M93.738,90.819H54.675a5.943,5.943,0,0,1-5.942-5.942V7.732A5.943,5.943,0,0,1,54.675,1.79H93.738A5.943,5.943,0,0,1,99.68,7.732V84.877a5.942,5.942,0,0,1-5.942,5.942Z" transform="translate(-29.386 -0.906)" fill="#cecece"/>
      <g id="Grupo_1042680" data-name="Grupo 1042680" transform="translate(29.465 30.96)">
        <g id="Grupo_1042679" data-name="Grupo 1042679">
          <path id="Trazado_771173" data-name="Trazado 771173" d="M104.171,85.792a8.51,8.51,0,0,0-14.944-5.133,8.511,8.511,0,0,0-13.6,10.171L84.094,103.8a6.129,6.129,0,0,0,10.266,0l8.465-12.974A8.48,8.48,0,0,0,104.171,85.792Z" transform="translate(-74.273 -77.706)" fill="#fde9bc"/>
        </g>
        <path id="Trazado_771174" data-name="Trazado 771174" d="M107.813,100.88h-3.487a.513.513,0,0,1-.513-.513V96.879a.513.513,0,0,0-.513-.513H99.261a.513.513,0,0,0-.513.513v3.487a.513.513,0,0,1-.513.513H94.746a.513.513,0,0,0-.513.513v4.038a.513.513,0,0,0,.513.513h3.487a.513.513,0,0,1,.513.513v3.487a.513.513,0,0,0,.513.513H103.3a.513.513,0,0,0,.513-.513v-3.487a.513.513,0,0,1,.513-.513h3.487a.513.513,0,0,0,.513-.513v-4.038a.513.513,0,0,0-.513-.513Z" transform="translate(-86.325 -88.974)" fill="#452d9e"/>
      </g>
      <g id="Grupo_1042681" data-name="Grupo 1042681" transform="translate(19.347 0.884)">
        <path id="Trazado_771175" data-name="Trazado 771175" d="M54.675,84.876V7.732A5.943,5.943,0,0,1,60.618,1.79H54.675a5.943,5.943,0,0,0-5.942,5.942V84.877a5.943,5.943,0,0,0,5.942,5.942h5.942a5.943,5.943,0,0,1-5.942-5.943Z" transform="translate(-48.733 -1.79)" fill="#afafaf"/>
      </g>
      <path id="Trazado_771176" data-name="Trazado 771176" d="M48.733,203.1a5.943,5.943,0,0,0,5.942,5.942H93.738A5.943,5.943,0,0,0,99.68,203.1v-5.52H48.733Z" transform="translate(-29.386 -119.133)" fill="#3bc192"/>
      <g id="Grupo_1042682" data-name="Grupo 1042682" transform="translate(19.347 78.451)">
        <path id="Trazado_771177" data-name="Trazado 771177" d="M54.675,203.1v-5.52H48.733v5.52a5.943,5.943,0,0,0,5.942,5.942h5.942A5.942,5.942,0,0,1,54.675,203.1Z" transform="translate(-48.733 -197.584)" fill="#bae9d9"/>
      </g>
      <path id="Trazado_771178" data-name="Trazado 771178" d="M99.68,7.732A5.943,5.943,0,0,0,93.738,1.79H54.675a5.943,5.943,0,0,0-5.942,5.942v5.52H99.681Z" transform="translate(-29.386 -0.906)" fill="#3bc192"/>
      <g id="Grupo_1042683" data-name="Grupo 1042683" transform="translate(19.347 0.884)">
        <path id="Trazado_771179" data-name="Trazado 771179" d="M60.618,1.79H54.675a5.943,5.943,0,0,0-5.942,5.942v5.52h5.942V7.732A5.942,5.942,0,0,1,60.618,1.79Z" transform="translate(-48.733 -1.79)" fill="#bae9d9"/>
      </g>
      <path id="Trazado_771180" data-name="Trazado 771180" d="M90.023,13.008h18.012v2.573H90.023Z" transform="translate(-54.318 -7.68)" fill="#cecece"/>
      <path id="Trazado_771181" data-name="Trazado 771181" d="M157.745,47.111V68.553l-4.22-4.951a4.9,4.9,0,0,0-7.466,6.364l9.6,11.264s-2.865,12.093,4.688,19H181.7l-1.893-25.978c-.227-2.4-1.707-4.429-3.211-6.107Z" transform="translate(-87.451 -28.272)" fill="#f9c88c"/>
      <g id="Grupo_1042684" data-name="Grupo 1042684" transform="translate(70.295 18.839)">
        <path id="Trazado_771182" data-name="Trazado 771182" d="M199.4,74.253c-.227-2.4-1.707-4.429-3.211-6.107L177.335,47.111v6.63l12.91,14.4c1.5,1.679,2.984,3.708,3.211,6.107l1.893,25.978h5.942Z" transform="translate(-177.335 -47.111)" fill="#ffead0"/>
      </g>
      <path id="Trazado_771183" data-name="Trazado 771183" d="M160.064,181.2h37.37v11.451h-37.37Z" transform="translate(-96.611 -109.238)" fill="#beb5dd"/>
      <g id="Grupo_1042685" data-name="Grupo 1042685" transform="translate(94.88 71.958)">
        <path id="Trazado_771184" data-name="Trazado 771184" d="M239.393,181.2h5.942v11.451h-5.942Z" transform="translate(-239.393 -181.196)" fill="#beb5dd"/>
      </g>
      <path id="Trazado_771185" data-name="Trazado 771185" d="M165.654,210.1H198.6v12.931H165.654Z" transform="translate(-99.987 -126.691)" fill="#cecece"/>
      <g id="Grupo_1042686" data-name="Grupo 1042686" transform="translate(92.666 83.41)">
        <path id="Trazado_771186" data-name="Trazado 771186" d="M233.8,210.1h5.942v12.931H233.8Z" transform="translate(-233.804 -210.101)" fill="#e2e2e2"/>
      </g>
      <path id="Trazado_771187" data-name="Trazado 771187" d="M109.12,211.216H102.7a1.592,1.592,0,1,1,0-3.184h6.415a1.592,1.592,0,1,1,0,3.184Z" transform="translate(-61.014 -125.442)" fill="#f8af23"/>
      <path id="Trazado_771188" data-name="Trazado 771188" d="M26.018,61.058,24.374,55.69a12.2,12.2,0,1,0-4.76,4.622l5.317,1.8A.851.851,0,0,0,26.018,61.058Z" transform="translate(-0.929 -22.391)" fill="#fabf40"/>
      <g id="Grupo_1042687" data-name="Grupo 1042687" transform="translate(0.678 14.982)">
        <path id="Trazado_771189" data-name="Trazado 771189" d="M11.251,40.824a12.145,12.145,0,0,1,5.534-3.082,12.2,12.2,0,1,0,0,23.668,12.194,12.194,0,0,1-5.538-20.586Z" transform="translate(-1.607 -37.376)" fill="#fabf40"/>
      </g>
      <g id="Grupo_1042689" data-name="Grupo 1042689" transform="translate(0.068 0.29)">
        <g id="Grupo_1042688" data-name="Grupo 1042688" transform="translate(0 0)">
          <path id="Trazado_771190" data-name="Trazado 771190" d="M8.261,252.932H.662a.594.594,0,1,0,0,1.188h7.6a.594.594,0,0,0,0-1.188Z" transform="translate(-0.068 -152.844)" fill="#3f3679"/>
          <path id="Trazado_771191" data-name="Trazado 771191" d="M241.945,252.932h-7.6a.594.594,0,1,0,0,1.188h7.6a.594.594,0,0,0,0-1.188Z" transform="translate(-141.175 -152.844)" fill="#3f3679"/>
          <path id="Trazado_771192" data-name="Trazado 771192" d="M107.077,252.932H30.705a.594.594,0,1,0,0,1.188h76.372a.594.594,0,1,0,0-1.188Z" transform="translate(-18.209 -152.844)" fill="#3f3679"/>
          <path id="Trazado_771193" data-name="Trazado 771193" d="M106.907,99.38H103.5V95.974a1.109,1.109,0,0,0-1.108-1.108H98.355a1.109,1.109,0,0,0-1.108,1.108V99.38H93.841a1.109,1.109,0,0,0-1.108,1.108v4.038a1.109,1.109,0,0,0,1.108,1.108h3.407v3.407a1.109,1.109,0,0,0,1.108,1.108h4.038a1.109,1.109,0,0,0,1.108-1.108v-3.407h3.407a1.109,1.109,0,0,0,1.108-1.108v-4.038A1.109,1.109,0,0,0,106.907,99.38Zm-.08,5.065H103.42a1.109,1.109,0,0,0-1.108,1.108v3.407H98.436v-3.407a1.109,1.109,0,0,0-1.108-1.108H93.921v-3.877h3.407a1.109,1.109,0,0,0,1.108-1.108V96.054h3.877v3.407a1.109,1.109,0,0,0,1.108,1.108h3.407Z" transform="translate(-56.022 -57.398)" fill="#3f3679"/>
          <path id="Trazado_771194" data-name="Trazado 771194" d="M107.129,11.508H89.117a.594.594,0,0,0-.594.594v2.573a.594.594,0,0,0,.594.594h18.012a.594.594,0,0,0,.594-.594V12.1A.594.594,0,0,0,107.129,11.508Zm-.594,2.573H89.712V12.7h16.823Z" transform="translate(-53.48 -7.064)" fill="#3f3679"/>
          <path id="Trazado_771195" data-name="Trazado 771195" d="M65.073,95.747H.662a.594.594,0,1,0,0,1.188H100.837a.594.594,0,1,0,0-1.188H99.2V84h1.62a.594.594,0,0,0,.594-.594V71.958a.594.594,0,0,0-.594-.594H94.8l-1.854-25.44c-.253-2.674-1.929-4.851-3.359-6.448l-18.7-20.866V6.827A6.544,6.544,0,0,0,64.352.29H25.29a6.544,6.544,0,0,0-6.537,6.537v8.983a12.8,12.8,0,1,0-.017,22.757l.017.006v45.4a6.544,6.544,0,0,0,6.537,6.537H64.352c.187,0,.374-.009.56-.025.054,0,.107-.013.161-.019v5.283Zm32.941,0H66.261V84H98.014Zm2.214-12.931H64.047V72.553h36.181V82.815ZM71.479,71.364h-.59v-.7C71.078,70.906,71.276,71.138,71.479,71.364ZM88.7,40.27c1.31,1.461,2.841,3.438,3.061,5.753l1.847,25.34H73.131c-6.993-6.615-4.371-18.155-4.343-18.271a.6.6,0,0,0-.126-.522l-9.6-11.264a4.31,4.31,0,1,1,6.561-5.592l4.22,4.951,8.014,9.4a.594.594,0,1,0,.9-.771l-7.872-9.235V20.392ZM58.156,42.078l.128.149a7.869,7.869,0,0,1-.764,1.531L49.055,56.732a5.535,5.535,0,0,1-9.271,0L31.321,43.761a7.876,7.876,0,0,1-1.251-4.687A7.988,7.988,0,0,1,37.5,31.568,7.87,7.87,0,0,1,43.97,34.3a.614.614,0,0,0,.9,0,7.87,7.87,0,0,1,6.474-2.732,7.986,7.986,0,0,1,6.376,3.966A5.508,5.508,0,0,0,58.156,42.078ZM19.942,6.827A5.354,5.354,0,0,1,25.29,1.479H64.352A5.354,5.354,0,0,1,69.7,6.827v4.926H19.942Zm-1.257,30.5a.594.594,0,0,0-.283.072A11.611,11.611,0,1,1,22.93,33a.594.594,0,0,0-.054.472l1.644,5.367a.257.257,0,0,1-.328.319l-5.317-1.8a.6.6,0,0,0-.191-.031Zm5.127,2.957a1.446,1.446,0,0,0,1.846-1.793l-1.57-5.123a12.8,12.8,0,0,0-4.146-16.86V12.94H69.7V38.667l-3.174-3.724a5.506,5.506,0,0,0-7.753-.618c-.09.076-.17.158-.253.239a9.184,9.184,0,0,0-7.108-4.183,9.051,9.051,0,0,0-6.994,2.657,9.057,9.057,0,0,0-6.993-2.657,9.189,9.189,0,0,0-8.544,8.635,9.059,9.059,0,0,0,1.442,5.391l8.465,12.974a6.723,6.723,0,0,0,11.261,0l8.466-12.976a9.074,9.074,0,0,0,.632-1.164l8.418,9.876a27.629,27.629,0,0,0-.439,6.783A19.888,19.888,0,0,0,69.7,68.928v2.436H63.453a.594.594,0,0,0-.594.594v5.9H19.942V38.974ZM25.29,89.319a5.354,5.354,0,0,1-5.348-5.348V79.045H62.859V83.41a.594.594,0,0,0,.594.594h1.62v5.262l-.1.013c-.054.006-.107.015-.161.02-.153.013-.305.02-.459.02Z" transform="translate(-0.068 -0.29)" fill="#3f3679"/>
          <path id="Trazado_771196" data-name="Trazado 771196" d="M108.213,206.532H101.8a2.187,2.187,0,1,0,0,4.373h6.415a2.187,2.187,0,1,0,0-4.373Zm0,3.184H101.8a1,1,0,1,1,0-2h6.415a1,1,0,1,1,0,2Z" transform="translate(-60.176 -124.826)" fill="#3f3679"/>
          <path id="Trazado_771197" data-name="Trazado 771197" d="M31.559,41.953a.594.594,0,0,0-.594.594V57.212a.594.594,0,1,0,1.188,0V42.547a.594.594,0,0,0-.594-.594Z" transform="translate(-18.725 -25.448)" fill="#3f3679"/>
        </g>
        <circle id="Elipse_4787" data-name="Elipse 4787" cx="1.103" cy="1.103" r="1.103" transform="translate(11.7 33.072)" fill="#3f3679"/>
      </g>
    </g>
  </g>
</svg>
