<svg xmlns="http://www.w3.org/2000/svg" xmlns:xlink="http://www.w3.org/1999/xlink" width="93.257" height="93.257" viewBox="0 0 93.257 93.257">
  <defs>
    <clipPath id="clip-path">
      <path id="path13362" d="M0-682.665H93.257v93.257H0Z" transform="translate(0 682.665)"/>
    </clipPath>
  </defs>
  <g id="g13356" transform="translate(0 682.665)">
    <g id="g13358" transform="translate(0 -682.665)">
      <g id="g13360" clip-path="url(#clip-path)">
        <g id="g13366" transform="translate(16.302 28.483)">
          <path id="path13368" d="M-24.158-.061a3.82,3.82,0,0,0-3.635,4.992l.87,2.7a5.2,5.2,0,0,0,4.948,3.6l48.442-.01a5.2,5.2,0,0,0,4.948-3.6l.87-2.7A3.82,3.82,0,0,0,28.65-.071Z" transform="translate(27.981 0.071)" fill="#ffbc86"/>
        </g>
        <g id="g13370" transform="translate(10.878 49.732)">
          <path id="path13372" d="M-453.506-78.2l-.316.959S-464.2-56.376-464.2-48.719l-.357.3h-49.907l-.829-.568c0-7.657-2.73-14.567-6.7-21.113l-3.271-7.983a21.425,21.425,0,0,1,5.766-4.24l11.7-6.3,34.856-1.954,3.627,2.713,1.6.252,8.6,4.878a21.58,21.58,0,0,1,5.6,4.53" transform="translate(525.26 90.573)" fill="#f9f7f7"/>
        </g>
        <g id="g13374" transform="translate(5.42 62.374)">
          <path id="path13376" d="M-102.738-185.7v.135h-14.091l-.343-.116a1.821,1.821,0,0,1-1.821-1.821l.134-13.415a20.616,20.616,0,0,1,5.24-14.164l1.26,1.838,3.557,5.831a41.9,41.9,0,0,1,6.065,21.713" transform="translate(118.993 215.082)" fill="#ffe177"/>
        </g>
        <g id="g13378" transform="translate(5.217 62.089)">
          <path id="path13380" d="M-43.2-13.423A19.2,19.2,0,0,0-47.672-1.1V14.255h-.546a1.822,1.822,0,0,1-1.821-1.821V-1.1A21.6,21.6,0,0,1-44.5-15.547l1.655.347Z" transform="translate(50.04 15.547)" fill="#ffd15b"/>
        </g>
        <g id="g13382" transform="translate(10.757 49.732)">
          <path id="path13384" d="M-331.427,0-360.97,1.345h0l-5.865.268-2.814,1.548-8.577,4.719a21.614,21.614,0,0,0-5.641,4.477l1.3,2.124c.149-.182.306-.362.466-.541a19.188,19.188,0,0,1,5.023-3.987l8.675-4.635a.724.724,0,0,1,.828.1,16.668,16.668,0,0,0,3.76,2.577,17.063,17.063,0,0,0,6.093,1.69,9.013,9.013,0,0,0,8.009,4.932h3.442a9.016,9.016,0,0,0,8.005-4.925,16.917,16.917,0,0,0,11.932-6.539c.047-.062.093-.124.14-.188Z" transform="translate(383.866)" fill="#e9e9e9"/>
        </g>
        <g id="g13386" transform="translate(18.761 74.205)">
          <path id="path13388" d="M-349.734-36.027l-5.3-5.3a1.367,1.367,0,0,0-1.932,0l-3.948,3.948a.546.546,0,0,1-.773,0l-3.948-3.948a1.367,1.367,0,0,0-1.932,0l-3.948,3.948a.546.546,0,0,1-.773,0l-3.948-3.948a1.367,1.367,0,0,0-1.932,0l-3.948,3.948a.546.546,0,0,1-.773,0l-3.948-3.948a1.367,1.367,0,0,0-1.932,0l-3.948,3.948a.546.546,0,0,1-.773,0l-3.948-3.948a1.367,1.367,0,0,0-1.932,0l-5.3,5.3a1.366,1.366,0,0,0-.4.966c0,.362.144-.019.4.237l5.3,5.3a1.362,1.362,0,0,0,.966.4,1.362,1.362,0,0,0,.966-.4l3.948-3.948a.546.546,0,0,1,.773,0l3.948,3.948a1.362,1.362,0,0,0,.966.4,1.362,1.362,0,0,0,.966-.4l3.948-3.948a.546.546,0,0,1,.773,0l3.948,3.948a1.362,1.362,0,0,0,.966.4,1.362,1.362,0,0,0,.966-.4l3.948-3.948a.546.546,0,0,1,.773,0l3.948,3.948a1.362,1.362,0,0,0,.966.4,1.362,1.362,0,0,0,.966-.4l3.948-3.948a.546.546,0,0,1,.773,0l3.948,3.948a1.362,1.362,0,0,0,.966.4,1.362,1.362,0,0,0,.966-.4l5.3-5.3c.256-.256.4.125.4-.237a1.366,1.366,0,0,0-.4-.966" transform="translate(405.07 41.727)" fill="#ffe177"/>
        </g>
        <g id="g13390" transform="translate(71.582 62.105)">
          <path id="path13392" d="M-104.021-90.381v13.664a1.822,1.822,0,0,1-1.821,1.821H-120.48v-.135a41.9,41.9,0,0,1,6.065-21.713l4.985-7.938a21.61,21.61,0,0,1,5.408,14.3" transform="translate(120.48 104.681)" fill="#ffe177"/>
        </g>
        <g id="g13394" transform="translate(33.514 46.628)">
          <path id="path13396" d="M-164.032-62.164c0,.81.061,2.371.061,2.371a13.118,13.118,0,0,1-12.9,10.743,13.118,13.118,0,0,1-12.9-10.735,7.351,7.351,0,0,0,.866-2.379L-189.985-72h26.229Z" transform="translate(189.985 72)" fill="#fed2a4"/>
        </g>
        <g id="g13398" transform="translate(33.514 49.889)">
          <path id="path13400" d="M-165.771,0V6.575a13.228,13.228,0,0,1-.214,2.374,16.16,16.16,0,0,1-2.786.549.727.727,0,0,0-.561.362,9.017,9.017,0,0,1-7.832,4.6h-3.442a9.014,9.014,0,0,1-7.837-4.609A.725.725,0,0,0-189,9.49a17.719,17.719,0,0,1-2.783-.536A13.284,13.284,0,0,1-192,6.575V1.195Z" transform="translate(192)" fill="#ffbc86"/>
        </g>
        <g id="g13402" transform="translate(21.001 1.366)">
          <path id="path13404" d="M-323.311-125.121l-3.316,9.137.455.916v11.63a14.287,14.287,0,0,1-.743,4.542,14.257,14.257,0,0,1-2.151,4.067A14.432,14.432,0,0,1-340.1-89.178a.9.9,0,0,0-.829.582,6.6,6.6,0,0,1-6.184,4.292h-3.443a6.6,6.6,0,0,1-6.185-4.295.908.908,0,0,0-.83-.583,14.928,14.928,0,0,1-6.023-1.491,14.251,14.251,0,0,1-5.013-4.156,14.252,14.252,0,0,1-2.894-8.61v-11.63l.487-1.309-3.449-9.177,9.746-13.262a20.61,20.61,0,0,1,14.644-6.1h2.474a20.736,20.736,0,0,1,14.662,6.155Z" transform="translate(374.466 144.918)" fill="#fed2a4"/>
        </g>
        <g id="g13406" transform="translate(17.93 6.914)">
          <path id="path13408" d="M-80.927-4.522a4.112,4.112,0,0,0-1.234-.608,4.435,4.435,0,0,1-.543-.032c-4.226-.739-10.261,4.109-10.94,9.8a11.509,11.509,0,0,0,5.6,11.562l.363-1.883.019-2.578a6.037,6.037,0,0,1,3.664-5.551c4.867-2.2,6.181-8.031,3.067-10.7" transform="translate(93.731 5.237)" fill="#e9e9e9"/>
        </g>
        <g id="g13410" transform="translate(17.485 6.815)">
          <path id="path13412" d="M-19.987-62.661a12.709,12.709,0,0,0,3.337,9.734l-.02,2.621c-4.173-2.648-6.949-7.441-6.413-12.355.71-5.932,7.646-11.012,11.949-9.708-3.932.951-8.3,5.069-8.852,9.708" transform="translate(23.15 72.575)" fill="#d9d9d9"/>
        </g>
        <g id="g13414" transform="translate(60.84 6.813)">
          <path id="path13416" d="M-10.633-5.163c4.044-2.951,12.4,2.558,13.182,9.1C3.086,8.851.31,13.643-3.863,16.293l-.038-5.2A6.037,6.037,0,0,0-7.566,5.541c-4.867-2.2-6.181-8.031-3.067-10.7" transform="translate(12.315 5.98)" fill="#e9e9e9"/>
        </g>
        <g id="g13418" transform="translate(54.833 29.084)">
          <path id="path13420" d="M-91.384,0l0,13.761a14.259,14.259,0,0,1-2.893,8.611,14.262,14.262,0,0,1-11.367,5.649h-.2" transform="translate(105.842)" fill="none" stroke="#000" stroke-linecap="round" stroke-linejoin="round" stroke-miterlimit="10" stroke-width="1.5"/>
        </g>
        <g id="g13422" transform="translate(43.833 1.366)">
          <path id="path13424" d="M0-.37Q.773-.428,1.558-.428H4.032A20.741,20.741,0,0,1,18.694,5.726" transform="translate(0 0.428)" fill="none" stroke="#000" stroke-linecap="round" stroke-linejoin="round" stroke-miterlimit="10" stroke-width="1.5"/>
        </g>
        <g id="g13426" transform="translate(30.747 2.869)">
          <path id="path13428" d="M0-29.065a20.666,20.666,0,0,1,6.912-4.6" transform="translate(0 33.664)" fill="none" stroke="#000" stroke-linecap="round" stroke-linejoin="round" stroke-miterlimit="10" stroke-width="1.5"/>
        </g>
        <g id="g13430" transform="translate(23.963 29.084)">
          <path id="path13432" d="M-91.63-177.1h-.253a14.258,14.258,0,0,1-11.351-5.648,14.259,14.259,0,0,1-2.893-8.611v-13.761" transform="translate(106.128 205.116)" fill="none" stroke="#000" stroke-linecap="round" stroke-linejoin="round" stroke-miterlimit="10" stroke-width="1.5"/>
        </g>
        <g id="g13434" transform="translate(38.308 54.666)">
          <path id="path13436" d="M-105.173,0V.717a6.6,6.6,0,0,1-6.6,6.6h-3.443a6.6,6.6,0,0,1-6.6-6.6V.092" transform="translate(121.813)" fill="none" stroke="#000" stroke-linecap="round" stroke-linejoin="round" stroke-miterlimit="10" stroke-width="1.5"/>
        </g>
        <g id="g13438" transform="translate(43.042 28.988)">
          <path id="path13440" d="M0-5.438l.014-.007a7.9,7.9,0,0,1,7.159.007" transform="translate(0 6.299)" fill="none" stroke="#000" stroke-linecap="round" stroke-linejoin="round" stroke-miterlimit="10" stroke-width="1.5"/>
        </g>
        <g id="g13442" transform="translate(24.035 29.849)">
          <path id="path13444" d="M-32.206,0h-5.1" transform="translate(37.301)" fill="none" stroke="#000" stroke-linecap="round" stroke-linejoin="round" stroke-miterlimit="10" stroke-width="1.5"/>
        </g>
        <g id="g13446" transform="translate(64.158 29.849)">
          <path id="path13448" d="M0,0H5.064" fill="none" stroke="#000" stroke-linecap="round" stroke-linejoin="round" stroke-miterlimit="10" stroke-width="1.5"/>
        </g>
        <g id="g13450" transform="translate(40.603 46.633)">
          <path id="path13452" d="M0,0H0A7.531,7.531,0,0,0,12.05,0" fill="none" stroke="#000" stroke-linecap="round" stroke-linejoin="round" stroke-miterlimit="10" stroke-width="1.5"/>
        </g>
        <g id="g13454" transform="translate(43.077 40.709)">
          <path id="path13456" d="M0,0H0A4.667,4.667,0,0,0,7.1,0" fill="none" stroke="#000" stroke-linecap="round" stroke-linejoin="round" stroke-miterlimit="10" stroke-width="1.5"/>
        </g>
        <g id="g13458" transform="translate(29.314 25.832)">
          <path id="path13460" d="M-80.1-60.472H-91.865a.911.911,0,0,1-.911-.911v-7.747a.911.911,0,0,1,.911-.911H-80.1a.911.911,0,0,1,.911.911v7.747A.911.911,0,0,1-80.1-60.472Z" transform="translate(92.776 70.04)" fill="none" stroke="#000" stroke-linecap="round" stroke-linejoin="round" stroke-miterlimit="10" stroke-width="1.5"/>
        </g>
        <g id="g13462" transform="translate(50.358 25.832)">
          <path id="path13464" d="M-80.1-60.472H-91.865a.911.911,0,0,1-.911-.911v-7.747a.911.911,0,0,1,.911-.911H-80.1a.911.911,0,0,1,.911.911v7.747A.911.911,0,0,1-80.1-60.472Z" transform="translate(92.776 70.04)" fill="none" stroke="#000" stroke-linecap="round" stroke-linejoin="round" stroke-miterlimit="10" stroke-width="1.5"/>
        </g>
        <g id="g13466" transform="translate(40.603 18.341)">
          <path id="path13468" d="M0,0H0A21.932,21.932,0,0,0,12.05,0" fill="none" stroke="#000" stroke-linecap="round" stroke-linejoin="round" stroke-miterlimit="10" stroke-width="1.5"/>
        </g>
        <g id="g13470" transform="translate(42.922 12.002)">
          <path id="path13472" d="M0,0H0A13.493,13.493,0,0,0,7.413,0" fill="none" stroke="#000" stroke-linecap="round" stroke-linejoin="round" stroke-miterlimit="10" stroke-width="1.5"/>
        </g>
        <g id="g13474" transform="translate(17.495 6.843)">
          <path id="path13476" d="M-83.62-5.156C-87.658-8.1-96-2.6-96.784,3.932c-.536,4.907,2.236,9.692,6.4,12.338l.038-5.193a6.028,6.028,0,0,1,3.659-5.543C-81.823,3.341-80.51-2.487-83.62-5.156Z" transform="translate(96.85 5.972)" fill="none" stroke="#000" stroke-linecap="round" stroke-linejoin="round" stroke-miterlimit="10" stroke-width="1.5"/>
        </g>
        <g id="g13478" transform="translate(60.851 6.843)">
          <path id="path13480" d="M-90.422-48.91a9.268,9.268,0,0,1,.538,2.165c.536,4.907-2.236,9.692-6.4,12.338l-.038-5.193a6.028,6.028,0,0,0-3.659-5.543c-4.86-2.192-6.173-8.02-3.063-10.69,2.293-1.674,5.975-.623,8.872,1.794" transform="translate(104.729 56.649)" fill="none" stroke="#000" stroke-linecap="round" stroke-linejoin="round" stroke-miterlimit="10" stroke-width="1.5"/>
        </g>
        <g id="g13482" transform="translate(5.216 51.825)">
          <path id="path13484" d="M0-253.224v-15.354A21.608,21.608,0,0,1,11.182-287.5l10.571-5.786" transform="translate(0 293.29)" fill="none" stroke="#000" stroke-linecap="round" stroke-linejoin="round" stroke-miterlimit="10" stroke-width="1.5"/>
        </g>
        <g id="g13486" transform="translate(66.696 51.757)">
          <path id="path13488" d="M0,0,10.336,5.818a21.608,21.608,0,0,1,11.009,18.83V40.134" fill="none" stroke="#000" stroke-linecap="round" stroke-linejoin="round" stroke-miterlimit="10" stroke-width="1.5"/>
        </g>
        <g id="g13490" transform="translate(33.514 56.464)">
          <path id="path13492" d="M-124.661-71.6a13.055,13.055,0,0,1-6.61,1.785,13.114,13.114,0,0,1-13.114-13.114" transform="translate(144.385 82.933)" fill="none" stroke="#000" stroke-linecap="round" stroke-linejoin="round" stroke-miterlimit="10" stroke-width="1.5"/>
        </g>
        <g id="g13494" transform="translate(57.778 56.464)">
          <path id="path13496" d="M-12.42,0a13.053,13.053,0,0,1-1.965,6.909" transform="translate(14.385)" fill="none" stroke="#000" stroke-linecap="round" stroke-linejoin="round" stroke-miterlimit="10" stroke-width="1.5"/>
        </g>
        <g id="g13498" transform="translate(10.788 62.088)">
          <path id="path13500" d="M-23.4-38.615l-3.7-6.11" transform="translate(27.107 44.725)" fill="none" stroke="#000" stroke-linecap="round" stroke-linejoin="round" stroke-miterlimit="10" stroke-width="1.5"/>
        </g>
        <g id="g13502" transform="translate(17.614 73.763)">
          <path id="path13504" d="M-25.665-113.767v.128a42.491,42.491,0,0,0-4.061-18.128" transform="translate(29.725 131.768)" fill="none" stroke="#000" stroke-linecap="round" stroke-linejoin="round" stroke-miterlimit="10" stroke-width="1.5"/>
        </g>
        <g id="g13506" transform="translate(71.582 62.019)">
          <path id="path13508" d="M0-188.819v-.007a42.357,42.357,0,0,1,6.066-21.845l4.862-8.023" transform="translate(0 218.694)" fill="none" stroke="#000" stroke-linecap="round" stroke-linejoin="round" stroke-miterlimit="10" stroke-width="1.5"/>
        </g>
        <g id="g13510" transform="translate(69.8 28.678)">
          <path id="path13512" d="M0-71.374H1.132a5.2,5.2,0,0,0,4.948-3.6l.87-2.7a3.82,3.82,0,0,0-3.635-4.992H.278" transform="translate(0 82.666)" fill="none" stroke="#000" stroke-linecap="round" stroke-linejoin="round" stroke-miterlimit="10" stroke-width="1.5"/>
        </g>
        <g id="g13514" transform="translate(16.484 28.687)">
          <path id="path13516" d="M-45.111-71.374h-1.132a5.2,5.2,0,0,1-4.948-3.6l-.87-2.7a3.82,3.82,0,0,1,3.635-4.992h2.951" transform="translate(52.249 82.666)" fill="none" stroke="#000" stroke-linecap="round" stroke-linejoin="round" stroke-miterlimit="10" stroke-width="1.5"/>
        </g>
        <g id="g13518" transform="translate(36.155 26.137)">
          <path id="path13520" d="M0,0V4.189" fill="none" stroke="#000" stroke-linecap="round" stroke-linejoin="round" stroke-miterlimit="10" stroke-width="1.5"/>
        </g>
        <g id="g13522" transform="translate(57.193 26.137)">
          <path id="path13524" d="M0,0V4.189" fill="none" stroke="#000" stroke-linecap="round" stroke-linejoin="round" stroke-miterlimit="10" stroke-width="1.5"/>
        </g>
        <g id="g13526" transform="translate(20.127 75.207)">
          <path id="path13528" d="M-33.5-67l5.3-5.3-5.3-5.3-5.3,5.3,5.3,5.3" transform="translate(38.8 77.598)" fill="none" stroke="#000" stroke-linecap="round" stroke-linejoin="round" stroke-miterlimit="10" stroke-width="1.5"/>
        </g>
        <g id="g13530" transform="translate(30.727 75.207)">
          <path id="path13532" d="M-33.5,0l-5.3,5.3,5.3,5.3,5.3-5.3Z" transform="translate(38.8)" fill="none" stroke="#000" stroke-linecap="round" stroke-linejoin="round" stroke-miterlimit="10" stroke-width="1.5"/>
        </g>
        <g id="g13534" transform="translate(41.328 75.207)">
          <path id="path13536" d="M-33.5,0l-5.3,5.3,5.3,5.3,5.3-5.3Z" transform="translate(38.8)" fill="none" stroke="#000" stroke-linecap="round" stroke-linejoin="round" stroke-miterlimit="10" stroke-width="1.5"/>
        </g>
        <g id="g13538" transform="translate(51.929 75.207)">
          <path id="path13540" d="M-33.5,0l-5.3,5.3,5.3,5.3,5.3-5.3Z" transform="translate(38.8)" fill="none" stroke="#000" stroke-linecap="round" stroke-linejoin="round" stroke-miterlimit="10" stroke-width="1.5"/>
        </g>
        <g id="g13542" transform="translate(62.529 75.207)">
          <path id="path13544" d="M-33.5,0l-5.3,5.3,5.3,5.3,5.3-5.3Z" transform="translate(38.8)" fill="none" stroke="#000" stroke-linecap="round" stroke-linejoin="round" stroke-miterlimit="10" stroke-width="1.5"/>
        </g>
      </g>
    </g>
  </g>
</svg>
