<svg xmlns="http://www.w3.org/2000/svg" xmlns:xlink="http://www.w3.org/1999/xlink" width="556.826" height="279.645" viewBox="0 0 556.826 279.645">
  <defs>
    <clipPath id="clip-path">
      <rect id="Rectángulo_355647" data-name="Rectángulo 355647" width="241.117" height="212.416" fill="none"/>
    </clipPath>
    <clipPath id="clip-path-3">
      <rect id="Rectángulo_355618" data-name="Rectángulo 355618" width="20.724" height="12.687" fill="none"/>
    </clipPath>
    <clipPath id="clip-path-4">
      <rect id="Rectángulo_355619" data-name="Rectángulo 355619" width="54.691" height="7.51" fill="none"/>
    </clipPath>
    <clipPath id="clip-path-5">
      <rect id="Rectángulo_355620" data-name="Rectángulo 355620" width="55.261" height="3.754" fill="none"/>
    </clipPath>
    <clipPath id="clip-path-6">
      <rect id="Rectángulo_355621" data-name="Rectángulo 355621" width="54.02" height="3.755" fill="none"/>
    </clipPath>
    <clipPath id="clip-path-7">
      <rect id="Rectángulo_355622" data-name="Rectángulo 355622" width="20.268" height="14.599" fill="none"/>
    </clipPath>
    <clipPath id="clip-path-8">
      <path id="Trazado_771267" data-name="Trazado 771267" d="M120.219,260.3c-8.83,0-9.45-4.77-9.45-4.77s-10.494,1.115-17.792,12.552-3.246,51.532-3.246,51.532h62.024s-3.138-43.4-5.968-52.807-17.3-12.2-17.3-12.2.567,5.691-8.262,5.691" transform="translate(-88.608 -254.607)" fill="none"/>
    </clipPath>
    <clipPath id="clip-path-9">
      <rect id="Rectángulo_355624" data-name="Rectángulo 355624" width="9.371" height="67.189" fill="none"/>
    </clipPath>
    <clipPath id="clip-path-10">
      <rect id="Rectángulo_355625" data-name="Rectángulo 355625" width="8.893" height="73.114" fill="none"/>
    </clipPath>
    <clipPath id="clip-path-11">
      <rect id="Rectángulo_355626" data-name="Rectángulo 355626" width="8.939" height="79.425" fill="none"/>
    </clipPath>
    <clipPath id="clip-path-12">
      <rect id="Rectángulo_355627" data-name="Rectángulo 355627" width="8.264" height="81.597" fill="none"/>
    </clipPath>
    <clipPath id="clip-path-13">
      <rect id="Rectángulo_355628" data-name="Rectángulo 355628" width="6.206" height="80.143" fill="none"/>
    </clipPath>
    <clipPath id="clip-path-14">
      <rect id="Rectángulo_355629" data-name="Rectángulo 355629" width="61.33" height="6.846" fill="none"/>
    </clipPath>
    <clipPath id="clip-path-15">
      <rect id="Rectángulo_355630" data-name="Rectángulo 355630" width="63.492" height="6.003" fill="none"/>
    </clipPath>
    <clipPath id="clip-path-16">
      <rect id="Rectángulo_355631" data-name="Rectángulo 355631" width="64.993" height="5.625" fill="none"/>
    </clipPath>
    <clipPath id="clip-path-17">
      <rect id="Rectángulo_355632" data-name="Rectángulo 355632" width="66.715" height="5.287" fill="none"/>
    </clipPath>
    <clipPath id="clip-path-18">
      <rect id="Rectángulo_355633" data-name="Rectángulo 355633" width="66.714" height="5.287" fill="none"/>
    </clipPath>
    <clipPath id="clip-path-21">
      <rect id="Rectángulo_355635" data-name="Rectángulo 355635" width="17.813" height="10.909" fill="none"/>
    </clipPath>
    <clipPath id="clip-path-22">
      <rect id="Rectángulo_355636" data-name="Rectángulo 355636" width="15.854" height="8.464" fill="none"/>
    </clipPath>
    <clipPath id="clip-path-23">
      <rect id="Rectángulo_355637" data-name="Rectángulo 355637" width="8.497" height="5.339" fill="none"/>
    </clipPath>
    <clipPath id="clip-path-24">
      <rect id="Rectángulo_355638" data-name="Rectángulo 355638" width="7.315" height="6.87" fill="none"/>
    </clipPath>
    <clipPath id="clip-path-25">
      <rect id="Rectángulo_355639" data-name="Rectángulo 355639" width="8.511" height="5.317" fill="none"/>
    </clipPath>
    <clipPath id="clip-path-27">
      <rect id="Rectángulo_355641" data-name="Rectángulo 355641" width="7.896" height="6.194" fill="none"/>
    </clipPath>
    <clipPath id="clip-path-28">
      <rect id="Rectángulo_355642" data-name="Rectángulo 355642" width="8.619" height="5.137" fill="none"/>
    </clipPath>
    <clipPath id="clip-path-31">
      <rect id="Rectángulo_355645" data-name="Rectángulo 355645" width="56.432" height="49.097" fill="none"/>
    </clipPath>
  </defs>
  <g id="Grupo_1043978" data-name="Grupo 1043978" transform="translate(-863.174 -6313)">
    <path id="BG" d="M0,0H556.826V279.645H0Z" transform="translate(863.174 6313)" fill="#452d9e"/>
    <g id="Grupo_1042786" data-name="Grupo 1042786" transform="translate(40.23 -84.645)">
      <g id="Grupo_1042785" data-name="Grupo 1042785" transform="translate(1033.653 6421.229)">
        <g id="Grupo_1042784" data-name="Grupo 1042784" clip-path="url(#clip-path)">
          <g id="Grupo_1042713" data-name="Grupo 1042713">
            <g id="Grupo_1042712" data-name="Grupo 1042712" clip-path="url(#clip-path)">
              <path id="Trazado_771221" data-name="Trazado 771221" d="M94.925,122.889a12.659,12.659,0,0,1-3.387,1.6c-2.376.753-4.867,1.005-7.283,1.819a14.75,14.75,0,0,0-4.231,2.225,15.2,15.2,0,0,0-4.92,6.739,15.632,15.632,0,0,0-.878,5.3L73.8,138.8c-.13-.532-.281-1.154-.443-1.82s-.337-1.375-.469-2.094c-.572-2.866-1.144-5.732-1.144-5.732a14.482,14.482,0,0,1,2.351-4.249,23.187,23.187,0,0,1,3.215-3.33c1-.854,2.056-1.64,3.106-2.446.526-.4,1.046-.81,1.568-1.234s1.056-.865,1.567-1.332a26.352,26.352,0,0,0,3.377-3.754c.5-.668.964-1.351,1.4-2.043s.834-1.391,1.252-2.094c.816-1.408,1.531-2.83,2.193-4.249.331-.71.648-1.419.96-2.127s.669-1.413,1-2.114a16.329,16.329,0,0,1-3.213,2.828,29.751,29.751,0,0,1-3.848,2.177,81.876,81.876,0,0,0-7.987,3.947,20.285,20.285,0,0,0-2.219,1.6,19.074,19.074,0,0,0-2,1.966,18.417,18.417,0,0,0-2.5,3.71,17.2,17.2,0,0,0-1.594,4.4l-.2-1.26c-.087-.76-.2-1.774-.319-2.787l-.463-4.054c.14-.5.3-.976.478-1.436q.295-.693.641-1.331a16.89,16.89,0,0,1,1.551-2.365,24.16,24.16,0,0,1,3.833-3.816c1.005-.819,2.113-1.583,3.231-2.4a30.057,30.057,0,0,0,3.265-2.692,19.84,19.84,0,0,0,3.317-4.258,16.357,16.357,0,0,0,2.068-5.094,21.607,21.607,0,0,0,.36-2.574,16.865,16.865,0,0,0,.052-2.512,20.62,20.62,0,0,0-.865-4.771c.093,2.761-1.5,5.391-3.57,7.269-2.017,1.937-4.353,3.129-6.618,4.688a23.274,23.274,0,0,0-3.947,3.445,20.551,20.551,0,0,0-4.353,8.448c-.05.23-.087.465-.129.7,0,0-.011-.155-.031-.427s-.044-.662-.054-1.13l-.1-3.43c-.038-1.247-.076-2.495-.1-3.43-.017-.468-.027-.858-.018-1.131s.005-.429.005-.429q.779-2.481,1.558-4.967.378-1.231.757-2.467l.843-2.458c.487-1.429.975-2.857,1.391-4.3q.3-1.081.605-2.172c.195-.728.363-1.463.5-2.207a30.077,30.077,0,0,0,.394-5.453,37.065,37.065,0,0,0-.367-5.459c-.113-.9-.3-1.808-.419-2.7s-.284-1.784-.448-2.676c-.329-1.784-.708-3.572-1.082-5.375a16.363,16.363,0,0,1-.849,4.737c-.249.769-.542,1.526-.866,2.271s-.666,1.479-.991,2.2c-.672,1.443-1.413,2.858-2.129,4.3-.358.721-.709,1.448-1.042,2.189s-.587,1.5-.842,2.277A28.468,28.468,0,0,0,64.2,77.6a34.046,34.046,0,0,0,.712,8.892c.688,2.909,1.593,5.737,2.427,8.471,0,0,.092,3.029.184,6.059.024.757.048,1.514.07,2.224.051.708.1,1.369.14,1.936.082,1.134.137,1.889.137,1.889a31.269,31.269,0,0,0-.981-3.334c-.387-1.107-.758-2.209-1.207-3.287a58.492,58.492,0,0,0-4.136-8.381c-1.837-3-4.135-5.512-6.016-8.14a29.112,29.112,0,0,1-2.65-4.225,17.5,17.5,0,0,1-1-2.459,14.967,14.967,0,0,1-.522-2.78l-.3,2.555q-.1,1.28-.2,2.564c-.11,1.729-.169,3.517-.149,5.3a23.286,23.286,0,0,0,.163,2.68c.1.9.22,1.79.38,2.678a25.976,25.976,0,0,0,1.45,5.194,22.9,22.9,0,0,0,1.5,2.858A26.022,26.022,0,0,0,59.1,104.1c1.119.988,2.254,1.886,3.367,2.778,1.088.869,2.154,1.752,3.142,2.71a23.951,23.951,0,0,1,2.723,3.147l.694,6.075c.074.761.2,1.515.31,2.223s.214,1.369.3,1.935c.178,1.132.3,1.888.3,1.888a17.742,17.742,0,0,0,.307,3.256,36.815,36.815,0,0,0-2.906-7.38,28.128,28.128,0,0,0-5.093-7.6,22.878,22.878,0,0,0-4.343-3.423,27.191,27.191,0,0,0-4.861-2.3,62.591,62.591,0,0,0-10.007-2.427,18.443,18.443,0,0,1,6.683,6.284c.441.633.849,1.277,1.262,1.922l1.254,1.927c.822,1.278,1.629,2.532,2.494,3.7a25.007,25.007,0,0,0,3.413,3.785,48.453,48.453,0,0,0,6.437,4.669,49.846,49.846,0,0,1,6.578,4.784c-.114-.763-.274-1.527-.46-2.29l.205.58s.395,1.977.789,3.954c.195.989.389,1.978.583,2.709.178.734.3,1.224.3,1.224-.348-.51-.714-1.012-1.115-1.49a19.33,19.33,0,0,0-6.588-5.631,17.229,17.229,0,0,0-4.759-1.5,23.88,23.88,0,0,0-4.584-.29c-2.973.064-5.827.535-8.921.325a17.524,17.524,0,0,1,3.572,1.9,40.066,40.066,0,0,1,3.406,2.533c2.2,1.789,4.243,3.715,6.365,5.155.646.432,1.293.819,1.929,1.162.608.342,1.221.643,1.83.922,1.985.9,3.959,1.409,5.961,2.1a16.457,16.457,0,0,1,2.54,1.106,11.037,11.037,0,0,1,2.4,1.683l.593,2.059c.37,1.232.8,2.892,1.336,4.521l2.176,6.5a24.006,24.006,0,0,0-4.32-4.076,29.9,29.9,0,0,0-7.686-4.407,31.543,31.543,0,0,0-9.42-1.5c-3.02-.146-5.98-.211-9.153-1.583,1.2.933,2.288,1.958,3.444,3l3.488,3.186c1.165,1.056,2.353,2.1,3.573,3.05a26.466,26.466,0,0,0,3.876,2.494,23.411,23.411,0,0,0,4.749,1.812,44.714,44.714,0,0,0,7.288,1.035,19.085,19.085,0,0,1,5.793,1.341l1.17,3.059c.332.925.8,1.97,1.29,3.1l1.528,3.532c.26.6.52,1.2.776,1.794s.553,1.154.818,1.708l1.465,3.02,1.429,2.947.939-.481-1.513-3.12c-.9-1.876-2.163-4.347-3.217-6.914-1.09-2.551-2.244-5.075-2.941-7.037l-1.239-3.238a19.981,19.981,0,0,1,4.962-8.032c1.768-1.843,3.743-3.431,5.44-5.329.521-.578,1.006-1.186,1.489-1.829s.956-1.318,1.393-2.012a28.27,28.27,0,0,0,2.26-4.374c.31-.752.58-1.513.809-2.275s.476-1.543.651-2.312a20.118,20.118,0,0,0,.544-4.513c-.734,2.511-3.007,4.588-5.363,6.088-2.368,1.527-4.994,2.676-7.305,4.4a17.473,17.473,0,0,0-3.793,3.866,17,17,0,0,0-3.1,8.765c-.046.574-.054,1.15-.047,1.726l-.663-1.984c-.2-.6-.431-1.29-.681-2.034s-.458-1.555-.7-2.357l-1.275-4.423c-.174-.6-.319-1.106-.42-1.458l-.14-.558c-.018-.091-.037-.179-.056-.271a16.153,16.153,0,0,1,6.871-6.033c2-1,4.1-1.745,6.023-2.9a19.622,19.622,0,0,0,3.4-2.627,22.548,22.548,0,0,0,2.975-3.436,18.382,18.382,0,0,0,2.109-3.895c.131-.334.245-.668.354-1s.225-.673.318-1.007a12.474,12.474,0,0,0,.385-1.981,6.714,6.714,0,0,1-2.357,2.675" transform="translate(-19.145 -23.938)" fill="#fff8e8"/>
              <path id="Trazado_771222" data-name="Trazado 771222" d="M382.885,86.245a35.526,35.526,0,0,0,15.5-9.777,10.934,10.934,0,0,0,2.317-3.386,4.652,4.652,0,0,0-.158-3.986c-1-1.686-3.265-2.258-5.183-1.856a14.257,14.257,0,0,0-5.168,2.709,15.708,15.708,0,0,0-.552-6.373c-.67-1.971-2.457-3.723-4.537-3.655a4.831,4.831,0,0,0-3.71,2.322,11.469,11.469,0,0,0-1.481,4.269c-1.242,6.753.621,13.285,2.977,19.734" transform="translate(-168.835 -26.656)" fill="#fabf40"/>
              <path id="Trazado_771223" data-name="Trazado 771223" d="M89.221,17.326a33.579,33.579,0,0,0,2.8-11.456,7.847,7.847,0,0,0-.331-3.35A3.152,3.152,0,0,0,89.237.431a3.238,3.238,0,0,0-3,1.947,9.5,9.5,0,0,0-.721,3.713c-1.192-.907-2.526-2.121-4-2.391a3.3,3.3,0,0,0-3.73,1.768c-.541,1.514.516,3.1,1.6,4.294a35.405,35.405,0,0,0,9.842,7.564" transform="translate(-34.538 -0.187)" fill="#3bc192"/>
              <path id="Trazado_771224" data-name="Trazado 771224" d="M17.888,55.717a8.759,8.759,0,0,1,1.578-6.494A5.122,5.122,0,0,1,25.6,47.691c2.091,1.137,2.771,3.775,3.1,6.132a57.253,57.253,0,0,1-1.128,21.453A28.163,28.163,0,0,1,8.5,64.756,11.986,11.986,0,0,1,6,59.784,5.68,5.68,0,0,1,7.457,54.6a5.97,5.97,0,0,1,5.256-1.16,18.188,18.188,0,0,1,5.175,2.276" transform="translate(-2.62 -21)" fill="#fabf40"/>
              <path id="Trazado_771225" data-name="Trazado 771225" d="M341.042,173.31a8.53,8.53,0,0,1-3.292.14c-2.158-.293-4.167-1.1-6.375-1.376a13.136,13.136,0,0,0-4.207.143,16.173,16.173,0,0,0-9.775,6.756l.531-1.493c.306-.9.772-2.081,1.14-3.294l1.521-4.838a17.54,17.54,0,0,1,3.452-2.456,24.239,24.239,0,0,1,3.752-1.592,56.794,56.794,0,0,0,6.774-2.294A23.7,23.7,0,0,0,342,157.177c1.046-1.216,2.019-2.508,2.954-3.843s1.843-2.711,2.67-4.112a14.931,14.931,0,0,1-7.132,3.713c-2.551.663-5.14,1.01-7.638,1.82a20.042,20.042,0,0,0-2.228.868,20.324,20.324,0,0,0-2.237,1.168,18.591,18.591,0,0,0-3.15,2.41,22.974,22.974,0,0,0-2.666,3.088l.292-1.067.556-2.369.809-3.446c.26-.37.533-.721.814-1.054s.547-.655.837-.958a16.011,16.011,0,0,1,1.837-1.644,26.2,26.2,0,0,1,4.11-2.516,37.434,37.434,0,0,0,6.465-3.573,17.136,17.136,0,0,0,3.591-3.742,18.17,18.17,0,0,0,2.356-5.038,16.481,16.481,0,0,0,.57-2.661,21.618,21.618,0,0,0,.144-2.636,22.394,22.394,0,0,0-.586-4.971,10.606,10.606,0,0,1-3.344,7.377c-1.9,1.835-4.086,2.8-6.182,4.046a24.083,24.083,0,0,0-3.738,2.725,20.285,20.285,0,0,0-5.105,6.665c-.1.184-.18.374-.268.561,0,0,.026-.133.072-.365s.108-.565.168-.966l.464-2.941c.169-1.07.338-2.139.465-2.94.065-.4.117-.736.14-.971l.044-.37q.918-2.059,1.809-4.159l.883-2.114.794-2.149a33.264,33.264,0,0,0,2.167-7.823,22.644,22.644,0,0,0,.057-4.966,34.5,34.5,0,0,0-2.522-9.424c-.608-1.484-1.258-2.932-1.907-4.363a14.132,14.132,0,0,1,.154,4.162,19.713,19.713,0,0,1-.838,4.079c-.411,1.313-.886,2.592-1.335,3.871-.224.639-.443,1.279-.643,1.924s-.43,1.293-.607,1.953a22.82,22.82,0,0,0-.773,4.871,29.634,29.634,0,0,0,.45,7.426c.333,2.464.862,4.931,1.312,7.373,0,0-.406,2.571-.812,5.142-.1.642-.2,1.285-.3,1.887-.117.6-.227,1.157-.321,1.637-.188.958-.313,1.6-.313,1.6a22.355,22.355,0,0,0-.538-5.918,27.72,27.72,0,0,0-2.423-7.419,42.166,42.166,0,0,0-4.656-6.845,26.263,26.263,0,0,1-2.228-3.27,12.441,12.441,0,0,1-.832-1.826,11.218,11.218,0,0,1-.581-2.035q-.066.938-.13,1.871-.1.932-.2,1.867c-.118,1.258-.193,2.56-.2,3.866a36.545,36.545,0,0,0,.127,3.954,20.7,20.7,0,0,0,.811,3.987,17.323,17.323,0,0,0,.875,2.322,23.21,23.21,0,0,0,1.122,2.137,33.378,33.378,0,0,0,2.149,3.115c.731.974,1.491,1.9,2.229,2.849a28.621,28.621,0,0,1,2.028,2.883,13.285,13.285,0,0,1,1.47,3.25l-1.2,5.112c-.292,1.281-.679,2.536-.927,3.489l-.434,1.583a16.8,16.8,0,0,0-.918,2.648,28.885,28.885,0,0,0,.31-6.746,19.485,19.485,0,0,0-1.944-7.393,17.512,17.512,0,0,0-6.4-6.452,47.1,47.1,0,0,0-7.936-3.667,12.892,12.892,0,0,1,4.376,5.645c.238.541.461,1.091.658,1.64s.358,1.1.528,1.648c.34,1.1.668,2.2,1.064,3.265a35.691,35.691,0,0,0,1.669,3.715,59.872,59.872,0,0,0,3.535,5.571,25.842,25.842,0,0,1,3.2,6.109c.23-.621.424-1.262.6-1.914l-.084.52-1.039,3.3c-.258.827-.515,1.653-.743,2.261L317.3,176.5a14.814,14.814,0,0,0-.11-1.577,14.291,14.291,0,0,0-2.676-6.837,16,16,0,0,0-6.594-4.73c-2.366-1.02-4.77-1.725-7.159-2.918a13.974,13.974,0,0,1,2.231,2.444,24.366,24.366,0,0,1,1.691,2.837c1.006,1.959,1.879,4.047,2.866,5.885.288.55.594,1.077.91,1.577.3.487.611.954.932,1.411,1.051,1.481,2.253,2.745,3.381,4.183a13.205,13.205,0,0,1,1.312,2.013,8.35,8.35,0,0,1,.782,2.35l-.681,1.71c-.418,1.022-.931,2.4-1.519,3.753l-2.381,5.386a18.718,18.718,0,0,0-.419-5.057,18.23,18.23,0,0,0-2.836-6.868,23.95,23.95,0,0,0-5.854-5.516,30.154,30.154,0,0,1-5.977-5.074,24.851,24.851,0,0,1,1.247,3.191c.336,1.087.638,2.207.964,3.361s.65,2.3,1.038,3.454a30.115,30.115,0,0,0,1.286,3.364,24.06,24.06,0,0,0,2.127,3.6c1.26,1.784,2.727,3.269,4.045,4.83a14.228,14.228,0,0,1,2.65,4.309l-1.233,2.527c-.734,1.519-1.842,3.479-2.89,5.469-.265.5-.531.991-.792,1.48s-.552.949-.815,1.406l-1.457,2.487-1.422,2.426.779.477,1.52-2.6c.905-1.561,2.162-3.616,3.264-5.756,1.128-2.125,2.3-4.227,3.06-5.867l1.318-2.7a22.808,22.808,0,0,1,8.012-2.144c2.234-.209,4.467-.169,6.748-.594a17.742,17.742,0,0,0,4.2-1.341,23.722,23.722,0,0,0,4.108-2.4c.662-.477,1.306-.995,1.928-1.545a22.718,22.718,0,0,0,1.726-1.765,25.336,25.336,0,0,0,2.878-3.968,9.935,9.935,0,0,1-7.108,2.8c-2.488.069-4.874-.345-7.462-.227a17.419,17.419,0,0,0-4.75.891,19.415,19.415,0,0,0-6.995,4.34c-.366.346-.709.711-1.04,1.085l.734-1.66c.22-.5.477-1.079.752-1.7s.527-1.3.8-1.976l1.477-3.71c.2-.506.369-.927.487-1.222s.17-.469.17-.469l.089-.223a15.24,15.24,0,0,1,7.863-1.171,51.577,51.577,0,0,0,5.821.533,13.925,13.925,0,0,0,3.819-.661,17.013,17.013,0,0,0,3.824-1.8,18.033,18.033,0,0,0,3.461-2.832,15.153,15.153,0,0,0,2.55-3.61,5.942,5.942,0,0,1-2.942,1.751" transform="translate(-131.327 -46.46)" fill="#fff8e8"/>
              <path id="Trazado_771226" data-name="Trazado 771226" d="M56.259,281.688l1.794,2.5c.52.764,1.209,1.594,1.927,2.5l.358.449h1.268c-1.279-1.6-2.513-3.12-3.381-4.407l-1.9-2.646a18.328,18.328,0,0,1,2.642-8.451c1.187-2.08,2.624-3.973,3.743-6.073.344-.641.649-1.3.946-1.987s.583-1.406.832-2.131a26.891,26.891,0,0,0,1.116-4.436c.121-.742.2-1.483.251-2.215s.113-1.488.113-2.213a18.089,18.089,0,0,0-.434-4.147c-.153,2.4-1.794,4.761-3.627,6.634-1.836,1.9-3.992,3.524-5.72,5.6a16.176,16.176,0,0,0-2.607,4.35,15.586,15.586,0,0,0-.853,8.672c.091.532.216,1.059.356,1.581l-1.063-1.653-1.089-1.694c-.4-.619-.768-1.315-1.166-1.992l-2.153-3.749-.71-1.235-.249-.48-.11-.236a15.053,15.053,0,0,1,4.973-7c1.609-1.346,3.372-2.475,4.885-3.938a18.9,18.9,0,0,0,2.555-3.1,21.6,21.6,0,0,0,2.022-3.728,17.1,17.1,0,0,0,1.146-3.934c.093-.646.17-1.3.218-1.936a11.173,11.173,0,0,0-.031-1.85,6.328,6.328,0,0,1-1.638,2.884,12.229,12.229,0,0,1-2.782,2.149c-2.023,1.176-4.252,1.926-6.3,3.167a13.823,13.823,0,0,0-3.415,2.9,14.133,14.133,0,0,0-3.1,7.184,14.556,14.556,0,0,0,.344,5.028l-.779-1.528-.8-1.567c-.3-.571-.606-1.183-.876-1.815l-2.251-5.007A13.239,13.239,0,0,1,42,247.773a21.413,21.413,0,0,1,2.276-3.7c.747-.982,1.557-1.911,2.359-2.854s1.607-1.906,2.374-2.959a29.471,29.471,0,0,0,4.032-8.317c.492-1.428.888-2.844,1.237-4.245q.246-1.043.493-2.09c.149-.691.366-1.394.542-2.083a20.454,20.454,0,0,1-5.589,5.83,73.467,73.467,0,0,0-6.61,5.109,18.835,18.835,0,0,0-1.739,1.889,17.508,17.508,0,0,0-1.451,2.183,17.06,17.06,0,0,0-1.572,3.886,15.652,15.652,0,0,0-.591,4.354s-.175-.446-.436-1.115c-.229-.681-.534-1.589-.839-2.5l-1.221-3.632a14.064,14.064,0,0,1,.158-1.411q.14-.694.337-1.346a15.681,15.681,0,0,1,.98-2.468,22.242,22.242,0,0,1,2.808-4.216c.77-.936,1.65-1.84,2.535-2.79a28.946,28.946,0,0,0,2.524-3.052,18.694,18.694,0,0,0,2.3-4.462,14.939,14.939,0,0,0,1.031-4.974,20.6,20.6,0,0,0-.107-2.388,15.049,15.049,0,0,0-.366-2.28,18.808,18.808,0,0,0-1.59-4.176c.542,2.484-.5,5.129-2.1,7.191-1.533,2.105-3.478,3.6-5.3,5.42a21.465,21.465,0,0,0-3.041,3.858A19.07,19.07,0,0,0,32.968,229c0,.221.008.444.013.666l-.109-.387c-.076-.245-.166-.6-.259-1.03l-.721-3.141c-.263-1.142-.525-2.284-.722-3.141-.1-.428-.182-.785-.22-1.039l-.07-.4q.284-2.425.568-4.853.133-1.2.267-2.4.183-1.2.367-2.409c.21-1.4.422-2.794.565-4.19l.093-1.046.11-1.053c.064-.7.1-1.406.1-2.112a28.71,28.71,0,0,0-.5-5.084,34.589,34.589,0,0,0-1.174-4.979c-.24-.816-.558-1.626-.8-2.431s-.521-1.609-.8-2.411c-.563-1.6-1.174-3.208-1.783-4.83a15.361,15.361,0,0,1-.1,4.519,44.46,44.46,0,0,1-1.066,4.425c-.4,1.441-.874,2.867-1.317,4.317-.221.725-.436,1.456-.631,2.2s-.3,1.487-.415,2.248a26.907,26.907,0,0,0-.181,5.6,31.937,31.937,0,0,0,2.152,8.13c1.147,2.575,2.478,5.032,3.728,7.406l1.276,5.553c.161.693.321,1.387.472,2.038l.5,1.756.484,1.714a29.37,29.37,0,0,0-1.535-2.886c-.566-.948-1.1-1.9-1.716-2.811a59.431,59.431,0,0,0-5.328-7.015c-2.219-2.46-4.8-4.4-6.975-6.539a27.287,27.287,0,0,1-3.165-3.507,16.715,16.715,0,0,1-1.339-2.141,14.228,14.228,0,0,1-.935-2.527c.046.82.092,1.636.137,2.453q.125,1.218.251,2.44c.192,1.642.441,3.33.764,5a20.327,20.327,0,0,0,.617,2.485c.247.822.521,1.639.826,2.443a24.545,24.545,0,0,0,2.264,4.6,21.743,21.743,0,0,0,1.914,2.4,24.729,24.729,0,0,0,2.063,2,24.171,24.171,0,0,0,3.521,2.513c1.219.708,2.435,1.327,3.631,1.943,1.167.6,2.317,1.213,3.407,1.907a23.716,23.716,0,0,1,3.11,2.375l1.831,5.448c.446,1.366,1.026,2.684,1.4,3.694l.655,1.672a16.494,16.494,0,0,0,.945,2.927,34.919,34.919,0,0,0-4.17-6.189,27.039,27.039,0,0,0-6.185-6.008,22.229,22.229,0,0,0-4.656-2.339,25.883,25.883,0,0,0-4.915-1.22,59.677,59.677,0,0,0-9.683-.4,17.711,17.711,0,0,1,7.37,4.631c.528.507,1.028,1.032,1.534,1.554l1.539,1.553c1.011,1.031,2,2.041,3.033,2.954a22.754,22.754,0,0,0,3.9,2.838,44.419,44.419,0,0,0,6.867,3.014,49.921,49.921,0,0,1,7.028,3.032c-.265-.675-.572-1.341-.9-2l.31.489,1.554,3.456c.386.865.771,1.731,1.109,2.357l.538,1.055c-.429-.391-.873-.772-1.343-1.123a18.444,18.444,0,0,0-7.225-3.787,16.381,16.381,0,0,0-4.681-.4,22.356,22.356,0,0,0-4.262.667c-2.712.665-5.232,1.683-8.115,2.111a16.626,16.626,0,0,1,3.676,1.053,38.978,38.978,0,0,1,3.672,1.655c2.4,1.206,4.687,2.565,6.944,3.448.687.261,1.366.481,2.024.661.632.185,1.259.332,1.879.459a58.661,58.661,0,0,0,5.912.64,15.587,15.587,0,0,1,2.561.459,10.535,10.535,0,0,1,2.567,1.005l1,1.747c.615,1.04,1.376,2.464,2.237,3.825l3.487,5.422a22.778,22.778,0,0,0-4.88-2.72,29.275,29.275,0,0,0-8.023-2.3,30.039,30.039,0,0,0-8.958.689c-2.8.523-5.517,1.1-8.734.5,1.309.613,2.534,1.335,3.834,2.052l3.933,2.193c1.311.723,2.639,1.423,3.974,2.033a24.38,24.38,0,0,0,4.133,1.428,21.684,21.684,0,0,0,4.762.585,40.226,40.226,0,0,0,6.884-.739,18.217,18.217,0,0,1,5.593-.149" transform="translate(-4.238 -81.292)" fill="#fff8e8"/>
              <path id="Trazado_771227" data-name="Trazado 771227" d="M370.425,233.607a14.517,14.517,0,0,1-4,3.02,18.286,18.286,0,0,1-4.241,1.4c-1.392.3-2.763.5-4.185.736a32.7,32.7,0,0,0-5.235,1.367,28.271,28.271,0,0,0-8.475,4.732c-.186.148-.363.306-.544.46l.247-.349c.157-.222.385-.536.638-.928l1.885-2.851c.664-1.05,1.3-2.117,1.793-2.909s.793-1.336.793-1.336c1.236-1.2,2.544-2.383,3.712-3.682l1.8-1.95c.587-.666,1.142-1.359,1.718-2.052.491-.61,1.015-1.211,1.48-1.852s.923-1.293,1.368-1.961a23.448,23.448,0,0,0,2.29-4.286,16.844,16.844,0,0,0,.911-2.841,21.8,21.8,0,0,0,.546-2.936,26.131,26.131,0,0,0-.015-5.914,36.9,36.9,0,0,0-3.06-10.776,14.45,14.45,0,0,1,.171,2.386,11.037,11.037,0,0,1-.232,2.388,23.957,23.957,0,0,1-.618,2.317c-.126.377-.238.751-.394,1.115s-.324.722-.492,1.074c-.337.7-.689,1.389-1.044,2.062s-.791,1.322-1.174,1.973-.784,1.294-1.151,1.943c-.409.642-.8,1.287-1.164,1.947a35.555,35.555,0,0,0-2.243,4.953,27.518,27.518,0,0,0-1.215,3.934c-.376,1.324-.64,2.693-.9,4.075-.3,1.365-.526,2.771-.789,4.167-.29,1.382-.545,2.79-.86,4.167l-.971,1.586-1,1.625-1.206,1.824c-.414.619-.814,1.246-1.212,1.819l-1.1,1.558-1.076,1.519a26.653,26.653,0,0,0,2.221-6.413,30.793,30.793,0,0,0,.7-4.468,21.568,21.568,0,0,0-.024-4.307,23.283,23.283,0,0,0-.958-4.633c-.217-.732-.448-1.444-.683-2.141l-.785-2.064c-.507-1.336-.975-2.664-1.376-4.014a12.507,12.507,0,0,1-.4-2.032,12.093,12.093,0,0,1-.1-2.079c-.216.561-.4,1.121-.634,1.681l-.731,1.682c-.429,1.144-1,2.337-1.41,3.571a30.679,30.679,0,0,0-1.2,3.863,21.825,21.825,0,0,0-.71,4.239,19.108,19.108,0,0,0-.012,2.717c.069.9.132,1.783.253,2.66a82.244,82.244,0,0,0,1.844,8.165,26.99,26.99,0,0,1,.706,3.949,15.378,15.378,0,0,1-.084,4.076s-1.854,2.369-3.806,4.66-3.955,4.546-3.955,4.546a18.626,18.626,0,0,0-2.3,2.254,30.735,30.735,0,0,0,3.737-6.8,20.682,20.682,0,0,0,1.69-8.56,16.232,16.232,0,0,0-1.117-5.139,21.674,21.674,0,0,0-2.416-4.558A52.608,52.608,0,0,0,323,230.472a13.438,13.438,0,0,1,2.023,7.716,29.093,29.093,0,0,1-.325,3.89c-.163,1.287-.346,2.567-.485,3.842a41.059,41.059,0,0,0-.152,4.638c.033,1.257.153,2.5.309,3.756s.324,2.511.492,3.8a32.955,32.955,0,0,1,.259,7.949c.542-.534,1.057-1.107,1.557-1.7l-.341.5-2.705,2.921-2.724,2.907a17.528,17.528,0,0,0,.621-1.719,16.874,16.874,0,0,0,.611-8.45,18.531,18.531,0,0,0-4.415-8.231c-1.921-2.243-4.046-4.178-5.891-6.62a15.971,15.971,0,0,1,1.013,3.675,30.492,30.492,0,0,1,.279,3.883c.042,2.6-.187,5.242-.078,7.686.026.735.084,1.453.169,2.142.07.666.172,1.317.288,1.958.386,2.08,1.039,3.986,1.557,6.021a12.31,12.31,0,0,1,.264,5.589L310.7,281.6c-2.3,2.5-4.547,5.058-4.547,5.058a24.567,24.567,0,0,0,1.386-5.723,25.638,25.638,0,0,0-.16-8.716,29.469,29.469,0,0,0-3.7-8.6c-1.471-2.565-3.064-5.064-3.779-8.284a67.89,67.89,0,0,1-1.1,8.543,41.873,41.873,0,0,0-.761,8.89,24.127,24.127,0,0,0,.819,4.927,49.794,49.794,0,0,0,2.681,6.8,18.487,18.487,0,0,1,1.605,5.651s-1.466,1.722-3.352,4.09h1.347c2.061-2.556,3.678-4.428,3.678-4.428a20.976,20.976,0,0,1,9.388.381c2.46.612,4.836,1.526,7.353,2.022a24.077,24.077,0,0,0,4.835.444,26.428,26.428,0,0,0,5.073-.515,25.309,25.309,0,0,0,4.961-1.514,23.934,23.934,0,0,0,4.506-2.471c-2.785,1.059-5.855.411-8.417-.7-2.6-1.111-4.949-2.657-7.672-3.7a18.168,18.168,0,0,0-14.46.625,16.106,16.106,0,0,0-1.519.8s2.223-2.475,4.49-4.912l4.547-4.862.2-.193a16.85,16.85,0,0,1,8.776,2.423c1.943,1.091,3.722,2.416,5.791,3.326a18.345,18.345,0,0,0,8.95,1.337,18.543,18.543,0,0,0,9.168-3.391,6.823,6.823,0,0,1-3.875.246,9.992,9.992,0,0,1-3.445-1.534c-2.07-1.387-3.752-3.216-5.882-4.61a14.9,14.9,0,0,0-4.388-1.956,16.635,16.635,0,0,0-8.406.087,16.432,16.432,0,0,0-4.924,2.186l3.98-4.237,3.95-4.267a21.58,21.58,0,0,1,9.456-.526,63.2,63.2,0,0,0,8.124,1.058,25.628,25.628,0,0,0,10.718-2.455,57.734,57.734,0,0,0,10.029-6.033,13.474,13.474,0,0,1-2.354.767,15.292,15.292,0,0,1-2.388.3,22.124,22.124,0,0,1-4.65-.3c-2.992-.484-5.892-1.4-8.9-1.764a25.7,25.7,0,0,0-5.653-.072,23.9,23.9,0,0,0-8.785,2.75l.833-.957,1.791-2.143c.658-.773,1.293-1.566,1.764-2.165l.79-.993c3.588-2.051,7.278-2.546,10.946-2.756a38.964,38.964,0,0,0,8.569-.839,19.605,19.605,0,0,0,5.606-2.6,22.277,22.277,0,0,0,2.64-2.191c.418-.405.826-.823,1.211-1.26s.732-.912,1.068-1.383a25.024,25.024,0,0,0,4.515-12.389,13,13,0,0,1-2.692,4.722" transform="translate(-132.575 -88.398)" fill="#fff8e8"/>
              <path id="Trazado_771228" data-name="Trazado 771228" d="M395.835,131.506c-2.987,0-3.352,4.659-.336,4.659,2.988,0,3.352-4.659.336-4.659" transform="translate(-175.017 -58.504)" fill="#ffdc99"/>
              <path id="Trazado_771229" data-name="Trazado 771229" d="M402.355,119.4c-2.614,0-2.933,4.077-.294,4.077,2.614,0,2.933-4.077.294-4.077" transform="translate(-178.053 -53.118)" fill="#ffdc99"/>
              <path id="Trazado_771230" data-name="Trazado 771230" d="M385.42,126.24c-2.241,0-2.514,3.495-.251,3.495,2.241,0,2.514-3.495.251-3.495" transform="translate(-170.654 -56.161)" fill="#ffdc99"/>
              <path id="Trazado_771231" data-name="Trazado 771231" d="M110.429,80.013h-.31c-2.987,0-3.352,4.659-.335,4.659h.31c2.988,0,3.352-4.659.336-4.659" transform="translate(-47.909 -35.596)" fill="#ffdc99"/>
              <path id="Trazado_771232" data-name="Trazado 771232" d="M107.822,65.726c-2.24,0-2.514,3.495-.252,3.495,2.24,0,2.514-3.495.252-3.495" transform="translate(-47.158 -29.24)" fill="#ffdc99"/>
              <path id="Trazado_771233" data-name="Trazado 771233" d="M122.051,69.712c-2.614,0-2.933,4.077-.294,4.077,2.614,0,2.933-4.077.294-4.077" transform="translate(-53.353 -31.013)" fill="#ffdc99"/>
              <path id="Trazado_771234" data-name="Trazado 771234" d="M34.134,140.833c-3.361,0-3.771,5.242-.377,5.242,3.361,0,3.771-5.242.377-5.242" transform="translate(-13.971 -62.653)" fill="#ffdc99"/>
              <path id="Trazado_771235" data-name="Trazado 771235" d="M21.915,137.372c-2.614,0-2.933,4.077-.294,4.077,2.614,0,2.933-4.077.294-4.077" transform="translate(-8.805 -61.113)" fill="#ffdc99"/>
              <path id="Trazado_771236" data-name="Trazado 771236" d="M33.848,126.169c-2.24,0-2.514,3.495-.252,3.495,2.24,0,2.514-3.495.252-3.495" transform="translate(-14.248 -56.129)" fill="#ffdc99"/>
              <path id="Trazado_771237" data-name="Trazado 771237" d="M429.595,230.522c-2.485,0-2.789,3.876-.279,3.876,2.485,0,2.789-3.876.279-3.876" transform="translate(-190.218 -102.553)" fill="#ffdc99"/>
              <path id="Trazado_771238" data-name="Trazado 771238" d="M7.263,260.334c-2.485,0-2.789,3.876-.279,3.876,2.485,0,2.789-3.876.279-3.876" transform="translate(-2.333 -115.816)" fill="#ffdc99"/>
              <path id="Trazado_771239" data-name="Trazado 771239" d="M1.442,248.289c-1.775,0-1.992,2.769-.2,2.769,1.775,0,1.992-2.769.2-2.769" transform="translate(0 -110.457)" fill="#ffdc99"/>
              <path id="Trazado_771240" data-name="Trazado 771240" d="M422.532,243.942c-1.775,0-1.992,2.769-.2,2.769,1.775,0,1.992-2.769.2-2.769" transform="translate(-187.332 -108.524)" fill="#ffdc99"/>
              <path id="Trazado_771241" data-name="Trazado 771241" d="M423.349,218.355c-1.42,0-1.594,2.215-.159,2.215s1.593-2.215.159-2.215" transform="translate(-187.824 -97.141)" fill="#ffdc99"/>
              <path id="Trazado_771242" data-name="Trazado 771242" d="M3.529,237.657v.214c0,1.42,2.215,1.593,2.215.159v-.214c0-1.42-2.215-1.593-2.215-.159" transform="translate(-1.57 -105.285)" fill="#ffdc99"/>
              <path id="Trazado_771243" data-name="Trazado 771243" d="M184.812,114.175c.068,1.374.186,2.753.371,4.143-6.249,4.381-14.458,3.356-21.546.535A103.808,103.808,0,0,0,164.6,107.9a41.493,41.493,0,0,0-.14-4.842c6.159,1.059,15.268,1.571,20.723-1.481a110.714,110.714,0,0,0-.371,12.6" transform="translate(-72.798 -45.188)" fill="#ffbd97"/>
              <g id="Grupo_1042699" data-name="Grupo 1042699" transform="translate(91.662 56.387)" opacity="0.5" style="mix-blend-mode: overlay;isolation: isolate">
                <g id="Grupo_1042698" data-name="Grupo 1042698">
                  <g id="Grupo_1042697" data-name="Grupo 1042697" clip-path="url(#clip-path-3)">
                    <path id="Trazado_771244" data-name="Trazado 771244" d="M185.471,114.175a32.644,32.644,0,0,1-10.128-.855c-3.755-.912-7.7-2.2-10.083-5.422a41.493,41.493,0,0,0-.14-4.842c6.159,1.059,15.268,1.571,20.723-1.481a110.728,110.728,0,0,0-.371,12.6" transform="translate(-165.119 -101.575)" fill="#1d1d1b"/>
                  </g>
                </g>
              </g>
              <path id="Trazado_771245" data-name="Trazado 771245" d="M130.98,122.97s-2.712,4.967-9.991,4.967a12.4,12.4,0,0,1-10.527-6.086c-1.112-2.085-14.9,2.892-16.8,3.65a95.608,95.608,0,0,0-21.671,12.247C58.649,147.743,47,161.715,43.46,178.356c-4.323,20.3,9.213,30.656,19.245,35.429,4.774.267,9-2.952,11.672-6.7-.451,3.607-1.634,7.214-1.468,10.822,3.272,4.992,27.253,39.969,58.392,42.415,33.538,2.635,40.767-117.249,40.767-117.249S160.54,127.649,130.98,122.97" transform="translate(-18.966 -53.983)" fill="#e7e0ff"/>
              <g id="Grupo_1042702" data-name="Grupo 1042702" transform="translate(76.47 97.389)" opacity="0.998" style="mix-blend-mode: overlay;isolation: isolate">
                <g id="Grupo_1042701" data-name="Grupo 1042701">
                  <g id="Grupo_1042700" data-name="Grupo 1042700" clip-path="url(#clip-path-4)">
                    <path id="Trazado_771246" data-name="Trazado 771246" d="M137.9,182.946h54.547c-.216-2.5-.447-5.005-.632-7.51H137.754c.073,2.505.139,5.008.143,7.51" transform="translate(-137.753 -175.436)" fill="#1d1d1b"/>
                  </g>
                </g>
              </g>
              <g id="Grupo_1042705" data-name="Grupo 1042705" transform="translate(76.397 108.282)" opacity="0.998" style="mix-blend-mode: overlay;isolation: isolate">
                <g id="Grupo_1042704" data-name="Grupo 1042704">
                  <g id="Grupo_1042703" data-name="Grupo 1042703" clip-path="url(#clip-path-5)">
                    <path id="Trazado_771247" data-name="Trazado 771247" d="M137.621,198.812h55.261q-.088-1.879-.225-3.755H137.8q-.05,1.878-.178,3.755" transform="translate(-137.621 -195.058)" fill="#1d1d1b"/>
                  </g>
                </g>
              </g>
              <g id="Grupo_1042708" data-name="Grupo 1042708" transform="translate(76.316 91.258)" opacity="0.998" style="mix-blend-mode: overlay;isolation: isolate">
                <g id="Grupo_1042707" data-name="Grupo 1042707">
                  <g id="Grupo_1042706" data-name="Grupo 1042706" clip-path="url(#clip-path-6)">
                    <path id="Trazado_771248" data-name="Trazado 771248" d="M137.561,168.147h53.934q-.281-1.877-.548-3.755H137.474q.032,1.879.087,3.755" transform="translate(-137.475 -164.392)" fill="#1d1d1b"/>
                  </g>
                </g>
              </g>
              <path id="Trazado_771249" data-name="Trazado 771249" d="M291.927,55.5a15.475,15.475,0,0,1,9.122,10.255,23.415,23.415,0,0,1-.66,14,49.188,49.188,0,0,1-6.781,12.463c.165,4.566.284,8.36.449,12.926.132,3.655.228,7.481-1.376,10.767-2.126,4.353-6.955,6.908-11.77,7.439s-9.65-.667-14.26-2.155c-5.9-1.9-11.806-4.413-16.127-8.853s-6.728-11.2-4.566-17.008c1.774-4.768,6.219-8.13,8.148-12.838,1.794-4.381,1.19-9.334,1.9-14.015A23.013,23.013,0,0,1,262.133,55.9a21.32,21.32,0,0,1,14.307-6.34c5.34-.2,10.465,4.113,15.487,5.939" transform="translate(-109.061 -22.044)" fill="#12263f"/>
              <path id="Trazado_771250" data-name="Trazado 771250" d="M285.151,140.672a44.911,44.911,0,0,0-2.989,11.378c-.012.084-.023.163-.028.248-.169,1.373-.27,2.758-.31,4.143-7.319,2.156-15.555.907-21.377-4.031,1.453-2.978,3.029-6.328,4.256-9.666.062-.158.118-.321.18-.479.2-.552.389-1.1.563-1.649.315-.985.591-1.96.817-2.917a30,30,0,0,0,18.888,2.973" transform="translate(-115.866 -61.259)" fill="#ffbd97"/>
              <g id="Grupo_1042711" data-name="Grupo 1042711" transform="translate(149.017 76.44)" opacity="0.5" style="mix-blend-mode: overlay;isolation: isolate">
                <g id="Grupo_1042710" data-name="Grupo 1042710">
                  <g id="Grupo_1042709" data-name="Grupo 1042709" clip-path="url(#clip-path-7)">
                    <path id="Trazado_771251" data-name="Trazado 771251" d="M288.707,140.672a44.907,44.907,0,0,0-2.989,11.378c-.012.084-.023.163-.028.248-1.323-.236-2.629-.518-2.866-.58a27.493,27.493,0,0,1-13.974-8.9,6.128,6.128,0,0,1-.411-.557c.2-.552.389-1.1.563-1.649.315-.985.591-1.96.817-2.917a30,30,0,0,0,18.888,2.973" transform="translate(-268.439 -137.699)" fill="#1d1d1b"/>
                  </g>
                </g>
              </g>
              <path id="Trazado_771252" data-name="Trazado 771252" d="M270.466,160.963s21.815,5.016,33.936,24.212,15.948,37.163,15.789,42.055c-.117,3.582-.757,13.074-12.3,22.66-7.978,6.627-17.8,12.378-28.119,13.415-17.294-.048-22.649.043-40.678,0l-3.584-84.929-1.444-14.043s3.349-3.51,16.152-5.822a11.786,11.786,0,0,0,8.226,7.007c6.195,1.338,9.661-1.6,12.018-4.555" transform="translate(-104.132 -70.517)" fill="#ffe2bf"/>
              <path id="Trazado_771253" data-name="Trazado 771253" d="M123.268,157.737c.872.944,1.452,2.123,2.293,3.094,1.679,1.938,4.206,2.86,6.523,3.959s4.694,2.662,5.431,5.118c.712,2.375-.308,4.938,0,7.4.424,3.42,3.253,5.976,4.814,9.049a12.857,12.857,0,0,1-9.675,18.555c-3.02.424-6.086-.234-9.133-.13-5.082.173-9.821,2.43-14.663,3.987-4.279,1.375-8.641,2.455-13.054.9-2.435-.856-4.656-2.8-5.094-5.34-.382-2.22.622-4.477.4-6.718-.38-3.872-4.24-6.691-4.718-10.552-.334-2.694,1.056-5.278,2.507-7.572s3.064-4.658,3.253-7.366c.175-2.5-.518-4.083.857-6.35a11.534,11.534,0,0,1,13.642-4.976c-.239-.084,3.1-2.98,3.4-3.171a14.51,14.51,0,0,1,6.856-2.3,8.159,8.159,0,0,1,6.362,2.414" transform="translate(-38.411 -69.094)" fill="#12263f"/>
              <path id="Trazado_771254" data-name="Trazado 771254" d="M146.542,252.112c-5.022,4.3-12.256,3.3-18.691.541.033-1.763.056-3.637.028-5.546-.011-.749-.028-1.509-.062-2.263-.017-.608-.051-1.216-.09-1.824-.034-.647-.085-1.283-.141-1.92-.118-1.357-.287-2.686-.518-3.953a40.055,40.055,0,0,0,11.147.648,14.894,14.894,0,0,0,6.734-2.117c.017.485.039.969.056,1.453.113,2.792.231,5.641.535,8.535.073.732.158,1.464.259,2.2.192,1.408.434,2.821.743,4.245" transform="translate(-56.529 -104.847)" fill="#ffbd97"/>
              <path id="Trazado_771255" data-name="Trazado 771255" d="M128.481,254.607s14.475,2.787,17.3,12.2,5.968,52.807,5.968,52.807H89.73s-4.052-40.1,3.246-51.532,17.792-12.552,17.792-12.552.62,4.77,9.449,4.77,8.263-5.691,8.263-5.691" transform="translate(-39.419 -113.268)" fill="#b5d0ff"/>
            </g>
          </g>
          <g id="Grupo_1042748" data-name="Grupo 1042748" transform="translate(49.189 141.339)">
            <g id="Grupo_1042747" data-name="Grupo 1042747" clip-path="url(#clip-path-8)">
              <g id="Grupo_1042716" data-name="Grupo 1042716" transform="translate(48.867 0.441)" opacity="0.3" style="mix-blend-mode: overlay;isolation: isolate">
                <g id="Grupo_1042715" data-name="Grupo 1042715">
                  <g id="Grupo_1042714" data-name="Grupo 1042714" clip-path="url(#clip-path-9)">
                    <path id="Trazado_771256" data-name="Trazado 771256" d="M181.232,322.59q2.391-.495,4.774-1.114-1.822-31.891-4.56-63.671c-.316-3.671-5.112-2.916-4.8.755q2.759,31.954,4.581,64.029" transform="translate(-176.636 -255.401)" fill="#1d1d1b"/>
                  </g>
                </g>
              </g>
              <g id="Grupo_1042719" data-name="Grupo 1042719" transform="translate(37.934 -3.734)" opacity="0.3" style="mix-blend-mode: overlay;isolation: isolate">
                <g id="Grupo_1042718" data-name="Grupo 1042718">
                  <g id="Grupo_1042717" data-name="Grupo 1042717" clip-path="url(#clip-path-10)">
                    <path id="Trazado_771257" data-name="Trazado 771257" d="M161.033,320.994q2.4-.255,4.8-.595-1.545-35.106-4.086-70.111c-.268-3.679-5.062-2.918-4.8.755q2.541,34.919,4.079,69.95" transform="translate(-156.943 -247.88)" fill="#1d1d1b"/>
                  </g>
                </g>
              </g>
              <g id="Grupo_1042722" data-name="Grupo 1042722" transform="translate(27.306 -9.247)" opacity="0.3" style="mix-blend-mode: overlay;isolation: isolate">
                <g id="Grupo_1042721" data-name="Grupo 1042721">
                  <g id="Grupo_1042720" data-name="Grupo 1042720" clip-path="url(#clip-path-11)">
                    <path id="Trazado_771258" data-name="Trazado 771258" d="M141.923,317.373q2.408-.121,4.812-.29-1.364-38.429-4.133-76.726c-.266-3.679-5.061-2.918-4.8.755q2.757,38.056,4.116,76.261" transform="translate(-137.797 -237.949)" fill="#1d1d1b"/>
                  </g>
                </g>
              </g>
              <g id="Grupo_1042725" data-name="Grupo 1042725" transform="translate(17.256 -11.032)" opacity="0.3" style="mix-blend-mode: overlay;isolation: isolate">
                <g id="Grupo_1042724" data-name="Grupo 1042724">
                  <g id="Grupo_1042723" data-name="Grupo 1042723" clip-path="url(#clip-path-12)">
                    <path id="Trazado_771259" data-name="Trazado 771259" d="M123.148,316.331q2.4-.067,4.808-.146-.941-39.584-3.46-79.04c-.236-3.684-5.031-2.919-4.8.755q2.5,39.142,3.447,78.431" transform="translate(-119.692 -234.734)" fill="#1d1d1b"/>
                  </g>
                </g>
              </g>
              <g id="Grupo_1042728" data-name="Grupo 1042728" transform="translate(4.818 -9.066)" opacity="0.3" style="mix-blend-mode: overlay;isolation: isolate">
                <g id="Grupo_1042727" data-name="Grupo 1042727">
                  <g id="Grupo_1042726" data-name="Grupo 1042726" clip-path="url(#clip-path-13)">
                    <path id="Trazado_771260" data-name="Trazado 771260" d="M98.7,318.419q2.4-.127,4.8-.215-.046-38.787-1.409-77.513c-.13-3.693-4.925-2.918-4.8.755q1.359,38.449,1.408,76.974" transform="translate(-97.288 -238.276)" fill="#1d1d1b"/>
                  </g>
                </g>
              </g>
              <g id="Grupo_1042731" data-name="Grupo 1042731" transform="translate(-0.231 8.163)" opacity="0.3" style="mix-blend-mode: overlay;isolation: isolate">
                <g id="Grupo_1042730" data-name="Grupo 1042730">
                  <g id="Grupo_1042729" data-name="Grupo 1042729" clip-path="url(#clip-path-14)">
                    <path id="Trazado_771261" data-name="Trazado 771261" d="M149.137,269.312q-29.4.466-58.762,2.031c-3.1.165-2.807,4.977.3,4.811q29.4-1.572,58.85-2.032-.211-2.4-.384-4.81" transform="translate(-88.191 -269.312)" fill="#1d1d1b"/>
                  </g>
                </g>
              </g>
              <g id="Grupo_1042734" data-name="Grupo 1042734" transform="translate(-1.17 19.705)" opacity="0.3" style="mix-blend-mode: overlay;isolation: isolate">
                <g id="Grupo_1042733" data-name="Grupo 1042733">
                  <g id="Grupo_1042732" data-name="Grupo 1042732" clip-path="url(#clip-path-15)">
                    <path id="Trazado_771262" data-name="Trazado 771262" d="M149.434,290.1q-31.382.022-62.747,1.174c-.06,1.613-.125,3.224-.186,4.828q31.733-1.175,63.492-1.191-.3-2.4-.558-4.812" transform="translate(-86.501 -290.103)" fill="#1d1d1b"/>
                  </g>
                </g>
              </g>
              <g id="Grupo_1042737" data-name="Grupo 1042737" transform="translate(-1.42 30.283)" opacity="0.3" style="mix-blend-mode: overlay;isolation: isolate">
                <g id="Grupo_1042736" data-name="Grupo 1042736">
                  <g id="Grupo_1042735" data-name="Grupo 1042735" clip-path="url(#clip-path-16)">
                    <path id="Trazado_771263" data-name="Trazado 771263" d="M150.486,309.24q-32.179-.339-64.35.719-.058,2.411-.085,4.824,32.485-1.075,64.992-.729c-.194-1.607-.376-3.213-.557-4.815" transform="translate(-86.051 -309.158)" fill="#1d1d1b"/>
                  </g>
                </g>
              </g>
              <g id="Grupo_1042740" data-name="Grupo 1042740" transform="translate(-1.445 40.736)" opacity="0.3" style="mix-blend-mode: overlay;isolation: isolate">
                <g id="Grupo_1042739" data-name="Grupo 1042739">
                  <g id="Grupo_1042738" data-name="Grupo 1042738" clip-path="url(#clip-path-17)">
                    <path id="Trazado_771264" data-name="Trazado 771264" d="M151.845,328.456Q118.93,327.6,86,328.3q0,2.41.036,4.818,33.208-.707,66.421.155c.092,0,.172-.013.258-.019q-.5-2.384-.875-4.8" transform="translate(-86.005 -327.988)" fill="#1d1d1b"/>
                  </g>
                </g>
              </g>
              <g id="Grupo_1042743" data-name="Grupo 1042743" transform="translate(-0.231 51.46)" opacity="0.3" style="mix-blend-mode: overlay;isolation: isolate">
                <g id="Grupo_1042742" data-name="Grupo 1042742">
                  <g id="Grupo_1042741" data-name="Grupo 1042741" clip-path="url(#clip-path-18)">
                    <path id="Trazado_771265" data-name="Trazado 771265" d="M154.032,347.774q-32.915-.854-65.84-.154,0,2.41.036,4.818,33.208-.707,66.421.155c.092,0,.172-.013.258-.019q-.5-2.384-.875-4.8" transform="translate(-88.192 -347.306)" fill="#1d1d1b"/>
                  </g>
                </g>
              </g>
              <g id="Grupo_1042746" data-name="Grupo 1042746" transform="translate(0.983 62.184)" opacity="0.3" style="mix-blend-mode: overlay;isolation: isolate">
                <g id="Grupo_1042745" data-name="Grupo 1042745">
                  <g id="Grupo_1042744" data-name="Grupo 1042744" clip-path="url(#clip-path-18)">
                    <path id="Trazado_771266" data-name="Trazado 771266" d="M156.218,367.093q-32.914-.854-65.84-.154,0,2.41.036,4.819,33.208-.707,66.421.155c.092,0,.172-.013.258-.019q-.5-2.384-.875-4.8" transform="translate(-90.378 -366.625)" fill="#1d1d1b"/>
                  </g>
                </g>
              </g>
            </g>
          </g>
          <g id="Grupo_1042783" data-name="Grupo 1042783">
            <g id="Grupo_1042782" data-name="Grupo 1042782" clip-path="url(#clip-path)">
              <g id="Grupo_1042751" data-name="Grupo 1042751" transform="translate(71.197 132.284)" opacity="0.5" style="mix-blend-mode: overlay;isolation: isolate">
                <g id="Grupo_1042750" data-name="Grupo 1042750">
                  <g id="Grupo_1042749" data-name="Grupo 1042749" clip-path="url(#clip-path-21)">
                    <path id="Trazado_771268" data-name="Trazado 771268" d="M146.067,246.83a28.209,28.209,0,0,1-5.027,1.807,16.007,16.007,0,0,1-7.46.225,10.774,10.774,0,0,1-5.236-2.854c-.017-.608-.051-1.216-.09-1.824a17.542,17.542,0,0,1,5.264-2.505l11.671-3.294c.113-.033.225-.062.344-.09.112,2.793.23,5.641.535,8.535" transform="translate(-128.254 -238.295)" fill="#1d1d1b"/>
                  </g>
                </g>
              </g>
              <path id="Trazado_771269" data-name="Trazado 771269" d="M239.67,185.064a16.042,16.042,0,0,1,14.757-.582,21.123,21.123,0,0,1,10.3,10.945,31.186,31.186,0,0,1,2.114,15.067,25.837,25.837,0,0,1-4.189,12.7c-4.041,5.722-11.189,8.785-18.194,8.876s-13.84-2.512-19.741-6.288c-3.849-2.464-4.259-5.32-4.921-9.841s.155-9.121,1.116-13.589a40.485,40.485,0,0,1,2.788-9.075,15.61,15.61,0,0,1,6.2-7.026c2.77-1.547,6.969-2.66,9.777-1.183" transform="translate(-97.674 -81.398)" fill="#12263f"/>
              <path id="Trazado_771270" data-name="Trazado 771270" d="M263.052,274.95c-4.724,3.614-11.141,1.74-16.749-1.779.158-2.218.315-4.622.383-7.054.017-.552.023-1.1.028-1.65.017-1.306,0-2.606-.062-3.879-.034-.777-.084-1.543-.158-2.292-.011-.163-.028-.321-.045-.479.214.073.434.152.659.225,4.791,1.593,11.457,2.832,15.42.54-.006.428-.017.856-.023,1.283-.051,2.523-.1,5.1-.022,7.73q.042,1.884.191,3.811c.09,1.171.214,2.348.377,3.541" transform="translate(-109.574 -114.697)" fill="#ffbd97"/>
              <path id="Trazado_771271" data-name="Trazado 771271" d="M306.059,310.469a3.767,3.767,0,0,0-1.533.028,1.136,1.136,0,0,0-.311,2.152,3.767,3.767,0,0,0,1.242.415l3.476.724a12.545,12.545,0,0,0,4.269.389c.8-.112,2.45-.566,2.819-1.412.507-1.162-1.212-1.252-1.947-1.34l-8.014-.956" transform="translate(-135.047 -138.091)" fill="#ffbd97"/>
              <path id="Trazado_771272" data-name="Trazado 771272" d="M244.85,275.008a22.037,22.037,0,0,1,16.819,11.9c5.607,11.055,5.874,41.827,5.874,41.827l-60.858-.048s.548-34.277,6.325-42.815,16.008-10.865,16.008-10.865,1.01,5.453,7.942,5.453,7.89-5.453,7.89-5.453" transform="translate(-91.949 -122.344)" fill="#3bc192"/>
              <g id="Grupo_1042754" data-name="Grupo 1042754" transform="translate(137.078 145.17)" opacity="0.5" style="mix-blend-mode: overlay;isolation: isolate">
                <g id="Grupo_1042753" data-name="Grupo 1042753">
                  <g id="Grupo_1042752" data-name="Grupo 1042752" clip-path="url(#clip-path-22)">
                    <path id="Trazado_771273" data-name="Trazado 771273" d="M262.764,269.239a20.518,20.518,0,0,1-7.776.586,14.218,14.218,0,0,1-7.222-3.04c-.276-.231-.536-.45-.772-.676.017-1.306,0-2.606-.062-3.879a32.058,32.058,0,0,0,10.083-.006q2.889-.363,5.771-.715c-.051,2.522-.1,5.1-.022,7.73" transform="translate(-246.932 -261.509)" fill="#1d1d1b"/>
                  </g>
                </g>
              </g>
              <path id="Trazado_771274" data-name="Trazado 771274" d="M256.213,71.417c-3.674,2.837-4.152,7.748-4.669,12.041-.508,5.077-1.934,8.376-5.683,11.885a35.566,35.566,0,0,0-4.487,4.867,14.233,14.233,0,0,0-1.472,12.606,13.6,13.6,0,0,0,3.549,5.539,14.4,14.4,0,0,1-4.009-15.394c1.052-3.261,3.675-5.694,6.028-8.012,3.762-3.475,5.023-6.531,5.652-11.549.6-4.265,1.251-9.341,5.091-11.983" transform="translate(-106.177 -31.772)" fill="#3d6173"/>
              <path id="Trazado_771275" data-name="Trazado 771275" d="M142.121,36.282a44.091,44.091,0,0,1-2.856-14.1,21.544,21.544,0,0,1,4.23-13.532,21.328,21.328,0,0,1,9.893-6.64A42.168,42.168,0,0,1,165.264.058c4.458-.192,9.081.011,13.11,1.929,6.343,3.02,10.173,9.969,10.939,16.953s-1.122,14-3.731,20.526q.082-.4.164-.8c-2.666,3.931-7.124,6.427-11.724,7.61-10.965,2.821-28.179.7-31.9-10" transform="translate(-61.955 0)" fill="#12263f"/>
              <path id="Trazado_771276" data-name="Trazado 771276" d="M300.258,95.67a49.608,49.608,0,0,1-3.727,6.694,33.785,33.785,0,0,1-4.74,6.261,26.012,26.012,0,0,1-3.462,3.012,20.608,20.608,0,0,1-3.367,1.97,15.481,15.481,0,0,1-6.649,1.5,14.083,14.083,0,0,1-10.612-5.05,11.566,11.566,0,0,1-.839-1.137,15.711,15.711,0,0,1-1.548-2.933,24.949,24.949,0,0,1-1.639-8.073c-.479-9.571,2.7-19.581,9.329-26.546a16.03,16.03,0,0,1,12.859-4.847,18.536,18.536,0,0,1,14.784,11.125c2.55,5.884,1.914,12.239-.389,18.022" transform="translate(-117.281 -29.567)" fill="#ffbd97"/>
              <path id="Trazado_771277" data-name="Trazado 771277" d="M267.007,210.99a47.087,47.087,0,0,1-1.421,7.189,32.351,32.351,0,0,1-2.466,7.088c-2.148,4.379-5.574,8.358-10.353,9.866a13.47,13.47,0,0,1-11.136-1.469c-3.5-2.232-5.762-5.985-7.237-9.863-3.254-8.562-3.31-18.605.671-26.887a15.334,15.334,0,0,1,10.273-8.2,17.721,17.721,0,0,1,16.72,5.767c4.049,4.6,5.345,10.569,4.949,16.506" transform="translate(-103.216 -83.792)" fill="#ffbd97"/>
              <path id="Trazado_771278" data-name="Trazado 771278" d="M139.383,184.32a49.352,49.352,0,0,1,.392,7.635,33.746,33.746,0,0,1-.692,7.8c-1.059,4.977-3.511,9.874-7.963,12.616a14.055,14.055,0,0,1-11.64,1.347c-4.107-1.368-7.353-4.589-9.831-8.137-5.471-7.833-8.083-17.979-6.164-27.372a16,16,0,0,1,8.308-10.906,18.484,18.484,0,0,1,18.382,1.58c5.268,3.627,8.1,9.332,9.207,15.439" transform="translate(-45.759 -73.648)" fill="#ffbd97"/>
              <path id="Trazado_771279" data-name="Trazado 771279" d="M189.247,42.466c-.044,1.228-.1,2.457-.176,3.684-.652,10-4.8,21.376-15.362,24.6a18.516,18.516,0,0,1-13.528-1.2c-3.616-1.834-6.5-6.186-7.865-9.916a45.721,45.721,0,0,1-2.191-13.054q-.326-5.563-.349-11.137a21.187,21.187,0,0,1,.213-5.379,28.457,28.457,0,0,1,2.052-4.982,18.578,18.578,0,0,1,12.554-9.793c7.331-1.558,15.291,1.526,20.179,7.207,0,.528,1.635,2.128,1.967,2.652a23.43,23.43,0,0,1,1.631,3.047c1.2,2.707,1.21,6.064,1.069,8.963-.085,1.769-.131,3.538-.194,5.308" transform="translate(-66.603 -6.623)" fill="#ffbd97"/>
              <path id="Trazado_771280" data-name="Trazado 771280" d="M309.337,36.556a12.276,12.276,0,0,1,10.493-3.772,9.46,9.46,0,0,1,6.791,3.792,9.282,9.282,0,0,1,1.269,5.718,9.756,9.756,0,0,1-.8,3.492,9.2,9.2,0,0,1-4.944,4.448,15.027,15.027,0,0,1-6.879.909c-8.021-.662-10.952-8.9-5.929-14.587" transform="translate(-136.514 -14.544)" fill="#12263f"/>
              <path id="Trazado_771281" data-name="Trazado 771281" d="M334.309,63.379c6.27,5.444,9.346,14.619,6.965,22.674a26.685,26.685,0,0,1-3.764,7.42c-1.407,2.275-3.759,4.17-4.016,6.96-.369,4.137,1.686,8.007,2.5,12,.825,4.012.159,8.672-2.758,11.709,2.763-3.128,3.288-7.688,2.416-11.634-.918-4.021-3.035-7.889-2.657-12.128.231-2.884,2.616-4.885,4.062-7.217a26.169,26.169,0,0,0,3.738-7.25c2.362-7.931-.5-16.891-6.482-22.528" transform="translate(-148.119 -28.196)" fill="#3d6173"/>
              <path id="Trazado_771282" data-name="Trazado 771282" d="M325.85,123.283a4.176,4.176,0,0,1,.1,5.383A6.826,6.826,0,0,1,320.744,131a20.211,20.211,0,0,1-5.8-.954c.245.062,2.243-3.053,2.5-3.4a19.728,19.728,0,0,1,2.592-3.514,4.868,4.868,0,0,1,5.815.148" transform="translate(-140.112 -54.383)" fill="#ffbd97"/>
              <path id="Trazado_771283" data-name="Trazado 771283" d="M258.152,95.01a4.176,4.176,0,0,0-3.787,3.827,6.822,6.822,0,0,0,2.162,5.283,20.19,20.19,0,0,0,4.855,3.307c-.22-.124.481-3.758.535-4.181a19.753,19.753,0,0,0,.547-4.333,4.869,4.869,0,0,0-4.313-3.9" transform="translate(-113.149 -42.267)" fill="#ffbd97"/>
              <path id="Trazado_771284" data-name="Trazado 771284" d="M171.25,204.5a3.66,3.66,0,0,1,2.521,3.989,5.981,5.981,0,0,1-2.845,4.115,17.706,17.706,0,0,1-4.778,1.917c.212-.065.3-3.307.329-3.68a17.25,17.25,0,0,1,.347-3.811,4.267,4.267,0,0,1,4.426-2.53" transform="translate(-73.915 -90.946)" fill="#ffbd97"/>
              <path id="Trazado_771285" data-name="Trazado 771285" d="M97.947,219.253a3.66,3.66,0,0,0-1.1,4.589,5.981,5.981,0,0,0,4.02,2.978,17.726,17.726,0,0,0,5.141.274c-.221.006-1.346-3.035-1.5-3.377a17.285,17.285,0,0,0-1.557-3.5,4.267,4.267,0,0,0-5.006-.968" transform="translate(-42.92 -97.344)" fill="#ffbd97"/>
              <path id="Trazado_771286" data-name="Trazado 771286" d="M293.722,233.823a3.66,3.66,0,0,1,1.784,4.369,5.98,5.98,0,0,1-3.522,3.553,17.721,17.721,0,0,1-5.04,1.051c.22-.028.87-3.2.968-3.566a17.311,17.311,0,0,1,1.01-3.692,4.266,4.266,0,0,1,4.8-1.715" transform="translate(-127.654 -103.924)" fill="#ffbd97"/>
              <path id="Trazado_771287" data-name="Trazado 771287" d="M225.965,234.126a3.66,3.66,0,0,0-1.887,4.325,5.98,5.98,0,0,0,3.436,3.636,17.726,17.726,0,0,0,5.013,1.171,22.208,22.208,0,0,1-.882-3.587,17.3,17.3,0,0,0-.921-3.715,4.267,4.267,0,0,0-4.759-1.83" transform="translate(-99.627 -104.071)" fill="#ffbd97"/>
              <path id="Trazado_771288" data-name="Trazado 771288" d="M223.793,61.441a4.176,4.176,0,0,1,2.022,4.99,6.826,6.826,0,0,1-4.029,4.044,20.214,20.214,0,0,1-5.753,1.184c.25-.031,1-3.653,1.115-4.065a19.7,19.7,0,0,1,1.163-4.209,4.867,4.867,0,0,1,5.482-1.943" transform="translate(-96.108 -27.221)" fill="#ffbd97"/>
              <path id="Trazado_771289" data-name="Trazado 771289" d="M138.886,61.134a4.177,4.177,0,0,0-2.167,4.929,6.827,6.827,0,0,0,3.909,4.159,20.222,20.222,0,0,0,5.717,1.351c-.25-.038-.9-3.681-1-4.1a19.708,19.708,0,0,0-1.04-4.241,4.868,4.868,0,0,0-5.424-2.1" transform="translate(-60.757 -27.101)" fill="#ffbd97"/>
              <path id="Trazado_771290" data-name="Trazado 771290" d="M307.207,81.524a16.938,16.938,0,0,1,.013,4.2c-.081.667-.263,1.319-.346,1.983a10.117,10.117,0,0,1-.085,1.2,15.347,15.347,0,0,1-3.964,6.23,1.533,1.533,0,0,1-1.211.627,1.462,1.462,0,0,1-.94-.826c-1.65-2.851-.936-5.967-1.078-9.083a14.471,14.471,0,0,0-15.285-13.79A28.72,28.72,0,0,1,268.092,78a51.152,51.152,0,0,1,3.6-7.915,14.5,14.5,0,0,1,5.757-5.421,15.9,15.9,0,0,1,7.616-1.239A25.6,25.6,0,0,1,299.489,68.5a20.052,20.052,0,0,1,7.717,13.023" transform="translate(-119.267 -28.204)" fill="#12263f"/>
              <path id="Trazado_771291" data-name="Trazado 771291" d="M189.839,31.656a7.723,7.723,0,0,1-1.907,2.3,4.6,4.6,0,0,1-2.77,1.024,4.964,4.964,0,0,1-2.578-.807,7.8,7.8,0,0,1-2.521-3.133c-1.1,3.345-4.884,5.243-8.4,5.119s-6.773-1.857-9.681-3.839a51.807,51.807,0,0,1-7.713-5.939,19.751,19.751,0,0,1-3.642,7.715,5.372,5.372,0,0,1-2.178,1.856,3.118,3.118,0,0,1-2.207,0,19.77,19.77,0,0,1,11.053-24.727c6.75-2.826,14.832-1.608,20.954,2.4s9.57,10.994,11.59,18.027" transform="translate(-64.581 -4.31)" fill="#12263f"/>
              <path id="Trazado_771292" data-name="Trazado 771292" d="M228.134,211.531a24.708,24.708,0,0,0,12.388-15.537,27.02,27.02,0,0,0,11.338,11.619,25.857,25.857,0,0,0,15.712,2.27c.855-7.391-3.358-16.026-9.772-19.8a19.8,19.8,0,0,0-21.08.963c-6.043,4.341-10.112,13.2-8.586,20.482" transform="translate(-101.348 -83.416)" fill="#12263f"/>
              <path id="Trazado_771293" data-name="Trazado 771293" d="M139.174,183.58a7.662,7.662,0,0,1-.194,2.056,1.187,1.187,0,0,1-.578.908c-.426.167-.87-.167-1.206-.477-1.92-1.776-4.425-5.264-7.252-5.384-1.827-.078-3.358,1.269-4.773,2.428s-3.258,2.261-4.973,1.626c-1.616-.6-2.325-2.439-2.919-4.056s-1.51-3.429-3.2-3.747c-1.182-.222-1.223.988-1.751,2.069a12.976,12.976,0,0,0-.848,3.493,10.256,10.256,0,0,1-2.994,5.718c-1.684,1.66-2.649,3.84-4.616,5.279a2.143,2.143,0,0,1-2.126.323,2.816,2.816,0,0,1-1.18-1.371c-1.367-2.736-.912-5.4-1.246-8.3a18.638,18.638,0,0,1,2.21-11.507,19.608,19.608,0,0,1,30.819-3.95,22.8,22.8,0,0,1,4.8,8.01c.874,2.249,1.944,4.518,2.032,6.882" transform="translate(-44.12 -72.483)" fill="#12263f"/>
              <path id="Trazado_771294" data-name="Trazado 771294" d="M346.412,189.729a16.11,16.11,0,0,1,11.873,9.514,15.725,15.725,0,0,1,.751,8.547,15.914,15.914,0,0,1-1.363,4.111c-.508,1.029-1.533,2.27-1.645.333a16.912,16.912,0,0,1,.014-2.148,16.716,16.716,0,0,1,.8-4.057c-1.041,2.116-2.093,4.277-3.134,6.392-.27.549-.762,1.2-1.34,1-.538-.188-.572-.927-.494-1.492a37.632,37.632,0,0,1,2.468-9.122c-1.089,2.339-2.319,4.935-3.408,7.274a2.878,2.878,0,0,1-.6.945.981.981,0,0,1-1.038.232c-.545-.254-.555-1.015-.47-1.61a49.814,49.814,0,0,1,2.806-10.818c-1.288,2.184-2.572,4.481-3.861,6.665a2.836,2.836,0,0,1-.711.9.969.969,0,0,1-1.08.093c-.4-.274-.416-.854-.365-1.338.276-2.64,1.179-5.17,1.688-7.775a11.28,11.28,0,0,0-.888-7.641" transform="translate(-153.745 -84.406)" fill="#ffbd97"/>
              <path id="Trazado_771295" data-name="Trazado 771295" d="M309.46,312.753a131.691,131.691,0,0,1-14.648,7.592c-.627.293-3.485,1.26-1.993,1.879,1.113.462,3.264-.057,4.394-.3a14.879,14.879,0,0,0,4.283-1.651c-1.588.721-3.153,1.493-4.72,2.258-.784.383-1.574.755-2.358,1.139-.625.306-1.328.323-1.914.636a.914.914,0,0,0-.5,1.065c.2.514.9.565,1.452.516a29.674,29.674,0,0,0,8.941-2.24c-2.577,1.121-5.673,2.561-8.25,3.682-.333.145-.722.374-.708.737.017.452.61.6,1.062.6a20.792,20.792,0,0,0,8.774-1.871c-1.646.9-3.734,2-5.38,2.9-.436.238-.945.668-.748,1.124.179.414.763.4,1.206.316a70.226,70.226,0,0,0,12.911-3.8,8.923,8.923,0,0,0,3.773-2.38,6.235,6.235,0,0,0,1.1-4.777,15.48,15.48,0,0,0-1.7-4.724,6.882,6.882,0,0,0-1.821-2.507,3.045,3.045,0,0,0-3.16-.188" transform="translate(-129.886 -138.977)" fill="#ffbd97"/>
              <path id="Trazado_771296" data-name="Trazado 771296" d="M71.927,273.726a30.467,30.467,0,0,1,32.833-11.047,2.419,2.419,0,0,1,1.055.511.873.873,0,0,1,.189,1.073,1.3,1.3,0,0,1-1.067.387l-7.095.3a12.031,12.031,0,0,1,.528,8.492c-.108.371-.4.824-.763.687-.2-.076-.291-.3-.359-.507L94.7,265.981a29.773,29.773,0,0,1,1.181,6.8,11.664,11.664,0,0,1-.46,3.831c-.221.717-1.207,2.333-1.924,1.07a6.184,6.184,0,0,1-.226-2.393,25.7,25.7,0,0,0-.379-4.042q-.454-2.135-1.064-4.234c.658,3.768.361,8.674-1.432,12.111-.153.294-.431.586-.759.538a.653.653,0,0,1-.467-.39,1.919,1.919,0,0,1-.133-.617c-.227-2.187-.346-4.392-.544-6.584-.074-.823-.388-1.815-1.283-2.065s-1.266.668-1.659,1.349c-.889,1.541-1.537,3.284-2.967,4.43-2.011,1.612-4.907,1.534-7.395.859a6.165,6.165,0,0,1-2.1-.913,2.862,2.862,0,0,1-1.161-2.005" transform="translate(-31.998 -116.336)" fill="#ffbd97"/>
              <path id="Trazado_771297" data-name="Trazado 771297" d="M306.444,42.735a7.43,7.43,0,0,1,9.982-9.43,7.081,7.081,0,0,1,3.844,7.342c-.53,2.927-2.772,5.051-4.911,6.9,1.928-1.972,4.079-4.144,4.489-6.972a6.666,6.666,0,0,0-3.663-6.775c-5.807-2.6-11.462,2.982-9.741,8.93" transform="translate(-136.115 -14.514)" fill="#3d6173"/>
              <path id="Trazado_771298" data-name="Trazado 771298" d="M315.005,40.9a9.156,9.156,0,0,1,9.182-6.073,9.278,9.278,0,0,1,8.093,7.674,9.026,9.026,0,0,1-7.831,10.091c4.539-.761,8.134-5.406,7.333-10.007a8.971,8.971,0,0,0-7.636-7.28,9.214,9.214,0,0,0-9.141,5.6" transform="translate(-140.138 -15.484)" fill="#3d6173"/>
              <path id="Trazado_771299" data-name="Trazado 771299" d="M157.28,3.009a13.811,13.811,0,0,0-10.072,1.524c-6.175,3.478-8.94,10.948-8.609,17.782a36.034,36.034,0,0,0,2.06,10.244,31.854,31.854,0,0,1-2.486-10.223c-.505-6.98,2.4-14.752,8.83-18.176A13.393,13.393,0,0,1,157.28,3.009" transform="translate(-61.445 -1.09)" fill="#3d6173"/>
              <path id="Trazado_771300" data-name="Trazado 771300" d="M207.508,45.709a14.916,14.916,0,0,0,3.445,5.074,4.8,4.8,0,0,0,5.618.679c-1.608,1.587-4.374,1.162-5.971-.251a10.4,10.4,0,0,1-3.092-5.5" transform="translate(-92.315 -20.335)" fill="#3d6173"/>
              <path id="Trazado_771301" data-name="Trazado 771301" d="M174.61,1.535a28.861,28.861,0,0,1,13.533-.157c11.346,2.461,20.336,13.5,18.133,25.325a19.013,19.013,0,0,1-2.379,6.359,20.333,20.333,0,0,0,2.01-13.117c-2.754-14.345-17.771-21.28-31.3-18.41" transform="translate(-77.68 -0.289)" fill="#3d6173"/>
              <path id="Trazado_771302" data-name="Trazado 771302" d="M104.648,164.1a9.052,9.052,0,0,0-12.715,3.974c-1.028,2.272-1.077,4.858-1.8,7.333-.731,2.5-2.214,4.63-3.4,6.834-2.807,4.477-1.934,9.822.819,14.1a13.361,13.361,0,0,1,1.558,3.508c.576,2.487-.2,5.139.992,7.466a3.9,3.9,0,0,0,2.834,2.25c-2.771-.318-3.794-3.481-3.833-5.89a18.786,18.786,0,0,0-.333-3.741,12.993,12.993,0,0,0-1.587-3.378c-2.924-4.332-3.784-9.984-.938-14.58,1.224-2.233,2.689-4.321,3.4-6.713.724-2.375.758-5.007,1.894-7.371a9.157,9.157,0,0,1,13.1-3.793" transform="translate(-37.594 -72.379)" fill="#3d6173"/>
              <path id="Trazado_771303" data-name="Trazado 771303" d="M177.7,183.589c-.73,6.041,4.721,9.98,6.955,15.094a12.188,12.188,0,0,1-1.771,12.256,11,11,0,0,1-3.24,2.756,11.55,11.55,0,0,0,3.024-2.921,12.152,12.152,0,0,0,1.478-11.871c-2.131-4.976-7.67-9.341-6.446-15.314" transform="translate(-78.979 -81.674)" fill="#3d6173"/>
              <path id="Trazado_771304" data-name="Trazado 771304" d="M123.858,188.026c3.269.2,3.628,4.279,5.05,6.418,1.731,2.775,5.155,1.7,6.684-.743a5.782,5.782,0,0,1-1.271,1.745,3.751,3.751,0,0,1-5.873-.691c-1.557-2.3-1.427-6.018-4.591-6.729" transform="translate(-55.101 -83.648)" fill="#3d6173"/>
              <path id="Trazado_771305" data-name="Trazado 771305" d="M250.029,200.542a16.3,16.3,0,0,0,19.447,13.1,14.291,14.291,0,0,1-3.266.629,15.185,15.185,0,0,1-16.181-13.724" transform="translate(-111.232 -89.216)" fill="#3d6173"/>
              <path id="Trazado_771306" data-name="Trazado 771306" d="M256.452,185.305c11.508-4.728,24.975,2.458,27,14.853a19.59,19.59,0,0,1-1.3,11.474,20.537,20.537,0,0,0,.884-11.395c-2.211-12.1-15.148-18.954-26.577-14.933" transform="translate(-114.089 -81.786)" fill="#3d6173"/>
              <path id="Trazado_771307" data-name="Trazado 771307" d="M221.394,207.592c-1.686,4.926-3.611,9.926-3.67,15.183-.092,5.125,1.893,10.656,6.4,13.481A11.017,11.017,0,0,1,221,233.847c-6.607-7.571-3.351-18.134.4-26.255" transform="translate(-96.627 -92.352)" fill="#3d6173"/>
              <path id="Trazado_771308" data-name="Trazado 771308" d="M301.335,75.068a11.776,11.776,0,0,1,14.429,6.545c1.208,2.682,1.044,5.708.792,8.549-.213,2.782-.2,5.838,1.619,8.127-2.026-2.148-2.174-5.358-2.046-8.151.147-2.811.343-5.7-.873-8.3a11.939,11.939,0,0,0-13.921-6.766" transform="translate(-134.056 -33.129)" fill="#577987"/>
              <path id="Trazado_771309" data-name="Trazado 771309" d="M305.174,71.4c9.436-3.067,17.97,5.792,15.128,15.16-.7,2.723-1.634,5.739-.175,8.372-1.687-2.516-.856-5.748-.24-8.47A12.079,12.079,0,0,0,305.174,71.4" transform="translate(-135.764 -31.487)" fill="#577987"/>
              <path id="Trazado_771310" data-name="Trazado 771310" d="M283.139,73.836a15.706,15.706,0,0,1-12.922,5.4q-.48-.046-.955-.11c.55-.022,1.35-.058,1.906-.117a21.5,21.5,0,0,0,11.971-5.169" transform="translate(-119.788 -32.848)" fill="#577987"/>
              <path id="Trazado_771311" data-name="Trazado 771311" d="M329.4,35.639a6.983,6.983,0,0,1,4.421,11.415,6.374,6.374,0,0,1-1.585,1.362A7.385,7.385,0,0,0,329.4,35.639" transform="translate(-146.543 -15.855)" fill="#577987"/>
              <path id="Trazado_771312" data-name="Trazado 771312" d="M323.917,39.41c-3.709-.576-8.283.9-8.526,5.219a4.83,4.83,0,0,1,2.709-4.967,7.477,7.477,0,0,1,5.817-.251" transform="translate(-140.276 -17.325)" fill="#577987"/>
              <path id="Trazado_771313" data-name="Trazado 771313" d="M326.941,42.113A4.949,4.949,0,0,0,325.1,48.1a3.788,3.788,0,0,1,1.837-5.984" transform="translate(-144.254 -18.735)" fill="#577987"/>
              <path id="Trazado_771314" data-name="Trazado 771314" d="M255.818,120.871c-2.827,4.767-6.247,10.948-2.755,16.246a6.855,6.855,0,0,1-1.222-1.86c-2.184-5.087.854-10.435,3.977-14.387" transform="translate(-111.708 -53.772)" fill="#577987"/>
              <path id="Trazado_771315" data-name="Trazado 771315" d="M259.527,130.578a15.151,15.151,0,0,0-.981,8.7,8.531,8.531,0,0,1,.981-8.7" transform="translate(-114.679 -58.091)" fill="#577987"/>
              <path id="Trazado_771316" data-name="Trazado 771316" d="M325.086,141.749c0,3.194,1.633,7.27-1.122,9.8,2.043-2.933.334-6.575,1.122-9.8" transform="translate(-144.123 -63.061)" fill="#577987"/>
              <path id="Trazado_771317" data-name="Trazado 771317" d="M164.383,26.069c1.666,1.737,3.3,3.507,5.1,5.076,4.273,3.886,10.719,6.711,16.235,3.791a9.06,9.06,0,0,0,2.777-2.223,8.54,8.54,0,0,1-2.644,2.461c-5.551,3.307-12.414.434-16.653-3.713a48.643,48.643,0,0,1-4.82-5.391" transform="translate(-73.13 -11.597)" fill="#577987"/>
              <path id="Trazado_771318" data-name="Trazado 771318" d="M168.592,23.91c3.6,2.193,7.464,4.38,11.734,4.75,4.142.392,8.779-1.265,10.86-5.077a8.048,8.048,0,0,1-1.821,2.667c-6.286,5.733-14.959,2.292-20.773-2.34" transform="translate(-75.002 -10.491)" fill="#577987"/>
              <path id="Trazado_771319" data-name="Trazado 771319" d="M152.659,30.648a14.022,14.022,0,0,1-5.958,11.7c-.253.167-.508.326-.766.482.387-.344.947-.846,1.316-1.221a19.2,19.2,0,0,0,5.407-10.964" transform="translate(-64.923 -13.635)" fill="#577987"/>
              <path id="Trazado_771320" data-name="Trazado 771320" d="M213.009,10.834a16.1,16.1,0,0,1,6.689,14.11l-.125,1.245-.243,1.225q-.165.6-.348,1.194c.128-.7.27-1.728.32-2.448a18.973,18.973,0,0,0-6.293-15.326" transform="translate(-94.762 -4.82)" fill="#577987"/>
              <path id="Trazado_771321" data-name="Trazado 771321" d="M123.791,180.311a6.767,6.767,0,0,1,6.009,4.116c.481,1.075.68,2.464,1.651,3.169,1.065.708,2.228-.147,3.2-.712a9.15,9.15,0,0,1,7.5-.681,8.829,8.829,0,0,1,5.273,5.221,9.141,9.141,0,0,0-5.41-4.817,8.835,8.835,0,0,0-7.087.758,10,10,0,0,1-1.73.874c-2.476.834-3.236-1.872-3.794-3.656a6.835,6.835,0,0,0-5.613-4.272" transform="translate(-55.071 -80.216)" fill="#577987"/>
              <path id="Trazado_771322" data-name="Trazado 771322" d="M111.6,183.033a15.775,15.775,0,0,1-5.411,13.922l-.935.743-1,.652q-.52.291-1.046.562c.558-.385,1.353-.979,1.875-1.428a18.894,18.894,0,0,0,6.514-14.452" transform="translate(-45.914 -81.427)" fill="#577987"/>
              <path id="Trazado_771323" data-name="Trazado 771323" d="M132.334,162.588c.5-3,4.3-3.557,6.574-2.183,2.394,1.222,3.938,3.551,6.109,5.021,2.111,1.5,4.7,2.284,6.881,3.876,2.138,1.473,3.9,4.287,2.886,6.9.748-2.629-1-5.177-3.132-6.556-2.146-1.469-4.714-2.248-6.95-3.769-2.218-1.564-3.723-3.841-5.994-5.1-2.119-1.392-5.688-.973-6.373,1.809" transform="translate(-58.872 -71.043)" fill="#577987"/>
              <path id="Trazado_771324" data-name="Trazado 771324" d="M100.6,171.555c-3.49,1.291-3.1,5.587-3.309,8.638a8.2,8.2,0,0,1-.9,3.3c-1.66,2.955-5.321,4.41-5.716,7.927a3.38,3.38,0,0,0,1.083,2.954A3.422,3.422,0,0,1,90.4,191.4c.137-3.581,3.987-5.4,5.5-8.184a7.664,7.664,0,0,0,.884-3.077c.206-3.043.146-7.638,3.811-8.589" transform="translate(-40.216 -76.32)" fill="#577987"/>
              <path id="Trazado_771325" data-name="Trazado 771325" d="M179.936,214.924a9,9,0,0,1-2.854,11.086,8.255,8.255,0,0,1-1.524.863,11.182,11.182,0,0,0,1.352-1.074,10.642,10.642,0,0,0,3.026-10.875" transform="translate(-78.101 -95.614)" fill="#577987"/>
              <path id="Trazado_771326" data-name="Trazado 771326" d="M254.631,200.336A28.232,28.232,0,0,0,270.5,212.3c.818.238,2.008.514,2.836.682a27.228,27.228,0,0,1-2.9-.419,23.493,23.493,0,0,1-15.8-12.224" transform="translate(-113.279 -89.124)" fill="#577987"/>
              <path id="Trazado_771327" data-name="Trazado 771327" d="M258.855,199.182a32.834,32.834,0,0,0,15.612,5.974c.7.079,1.72.145,2.421.187-.4.031-.81.057-1.217.076a24.161,24.161,0,0,1-16.816-6.237" transform="translate(-115.158 -88.611)" fill="#577987"/>
              <path id="Trazado_771328" data-name="Trazado 771328" d="M238.333,199.68a16.36,16.36,0,0,1-7.438,11.688l-.943.562-.985.481q-.505.212-1.015.405c.545-.3,1.333-.766,1.859-1.119a20.741,20.741,0,0,0,8.521-12.017" transform="translate(-101.41 -88.833)" fill="#577987"/>
              <path id="Trazado_771329" data-name="Trazado 771329" d="M239.856,188.288a14.381,14.381,0,0,0-11.194,10.69,14.834,14.834,0,0,0-.391,2.327,11.894,11.894,0,0,1,.124-2.381,12.693,12.693,0,0,1,11.461-10.636" transform="translate(-101.545 -83.765)" fill="#577987"/>
              <g id="Grupo_1042757" data-name="Grupo 1042757" transform="translate(168.277 70.149)" opacity="0.3" style="mix-blend-mode: overlay;isolation: isolate">
                <g id="Grupo_1042756" data-name="Grupo 1042756">
                  <g id="Grupo_1042755" data-name="Grupo 1042755" clip-path="url(#clip-path-23)">
                    <path id="Trazado_771330" data-name="Trazado 771330" d="M303.168,128.133c.3-1.387,2.425-2.107,4.752-1.608s3.973,2.027,3.675,3.414-2.425,2.107-4.752,1.608-3.973-2.027-3.676-3.414" transform="translate(-303.134 -126.366)" fill="#1d1d1b"/>
                  </g>
                </g>
              </g>
              <g id="Grupo_1042760" data-name="Grupo 1042760" transform="translate(149.086 60.635)" opacity="0.3" style="mix-blend-mode: overlay;isolation: isolate">
                <g id="Grupo_1042759" data-name="Grupo 1042759">
                  <g id="Grupo_1042758" data-name="Grupo 1042758" clip-path="url(#clip-path-24)">
                    <path id="Trazado_771331" data-name="Trazado 771331" d="M268.98,109.822c.935-1.067,3.144-.66,4.934.909s2.484,3.705,1.549,4.772-3.144.66-4.934-.909-2.484-3.7-1.549-4.772" transform="translate(-268.563 -109.228)" fill="#1d1d1b"/>
                  </g>
                </g>
              </g>
              <g id="Grupo_1042763" data-name="Grupo 1042763" transform="translate(111.431 41.935)" opacity="0.3" style="mix-blend-mode: overlay;isolation: isolate">
                <g id="Grupo_1042762" data-name="Grupo 1042762">
                  <g id="Grupo_1042761" data-name="Grupo 1042761" clip-path="url(#clip-path-25)">
                    <path id="Trazado_771332" data-name="Trazado 771332" d="M200.763,79.052c-.28-1.391,1.384-2.9,3.717-3.369s4.452.275,4.732,1.666-1.384,2.9-3.717,3.369-4.452-.275-4.732-1.666" transform="translate(-200.732 -75.542)" fill="#1d1d1b"/>
                  </g>
                </g>
              </g>
              <g id="Grupo_1042766" data-name="Grupo 1042766" transform="translate(85.68 41.935)" opacity="0.3" style="mix-blend-mode: overlay;isolation: isolate">
                <g id="Grupo_1042765" data-name="Grupo 1042765">
                  <g id="Grupo_1042764" data-name="Grupo 1042764" clip-path="url(#clip-path-25)">
                    <path id="Trazado_771333" data-name="Trazado 771333" d="M162.825,79.052c.28-1.391-1.384-2.9-3.717-3.369s-4.452.275-4.732,1.666,1.384,2.9,3.717,3.369,4.452-.275,4.732-1.666" transform="translate(-154.344 -75.542)" fill="#1d1d1b"/>
                  </g>
                </g>
              </g>
              <g id="Grupo_1042769" data-name="Grupo 1042769" transform="translate(85.463 119.564)" opacity="0.3" style="mix-blend-mode: overlay;isolation: isolate">
                <g id="Grupo_1042768" data-name="Grupo 1042768">
                  <g id="Grupo_1042767" data-name="Grupo 1042767" clip-path="url(#clip-path-27)">
                    <path id="Trazado_771334" data-name="Trazado 771334" d="M154.168,220.633c-.709-1.228.387-3.189,2.448-4.379s4.307-1.159,5.017.069-.387,3.189-2.448,4.379-4.307,1.159-5.017-.069" transform="translate(-153.953 -215.382)" fill="#1d1d1b"/>
                  </g>
                </g>
              </g>
              <g id="Grupo_1042772" data-name="Grupo 1042772" transform="translate(62.976 125.383)" opacity="0.3" style="mix-blend-mode: overlay;isolation: isolate">
                <g id="Grupo_1042771" data-name="Grupo 1042771">
                  <g id="Grupo_1042770" data-name="Grupo 1042770" clip-path="url(#clip-path-28)">
                    <path id="Trazado_771335" data-name="Trazado 771335" d="M122.064,228.432c0-1.418-1.93-2.568-4.31-2.568s-4.309,1.15-4.309,2.568,1.93,2.568,4.309,2.568,4.31-1.15,4.31-2.568" transform="translate(-113.445 -225.864)" fill="#1d1d1b"/>
                  </g>
                </g>
              </g>
              <g id="Grupo_1042775" data-name="Grupo 1042775" transform="translate(131.382 134.521)" opacity="0.3" style="mix-blend-mode: overlay;isolation: isolate">
                <g id="Grupo_1042774" data-name="Grupo 1042774">
                  <g id="Grupo_1042773" data-name="Grupo 1042773" clip-path="url(#clip-path-28)">
                    <path id="Trazado_771336" data-name="Trazado 771336" d="M245.29,244.9c0-1.418-1.93-2.568-4.31-2.568s-4.309,1.15-4.309,2.568,1.93,2.568,4.309,2.568,4.31-1.15,4.31-2.568" transform="translate(-236.671 -242.326)" fill="#1d1d1b"/>
                  </g>
                </g>
              </g>
              <g id="Grupo_1042778" data-name="Grupo 1042778" transform="translate(151.409 134.896)" opacity="0.3" style="mix-blend-mode: overlay;isolation: isolate">
                <g id="Grupo_1042777" data-name="Grupo 1042777">
                  <g id="Grupo_1042776" data-name="Grupo 1042776" clip-path="url(#clip-path-28)">
                    <path id="Trazado_771337" data-name="Trazado 771337" d="M281.367,245.569c0-1.418-1.93-2.568-4.31-2.568s-4.309,1.15-4.309,2.568,1.93,2.568,4.309,2.568,4.31-1.15,4.31-2.568" transform="translate(-272.748 -243.001)" fill="#1d1d1b"/>
                  </g>
                </g>
              </g>
              <path id="Trazado_771338" data-name="Trazado 771338" d="M202.451,56.343c.05,1.232,5.1,1.891,5.235.419s-5.285-1.65-5.235-.419" transform="translate(-90.065 -24.702)" fill="#32586b"/>
              <path id="Trazado_771339" data-name="Trazado 771339" d="M167.329,55.625c-.05,1.232-5.1,1.891-5.235.419s5.285-1.65,5.235-.419" transform="translate(-72.11 -24.383)" fill="#32586b"/>
              <path id="Trazado_771340" data-name="Trazado 771340" d="M201.758,64.608a2.569,2.569,0,0,1,.445-1.8.762.762,0,0,1,.85-.249,1.067,1.067,0,0,1,.468.994,5.31,5.31,0,0,1-.128,1.36,1.73,1.73,0,0,1-.308.724.745.745,0,0,1-.7.291.776.776,0,0,1-.551-.649,5.833,5.833,0,0,1-.079-.671" transform="translate(-89.754 -27.809)" fill="#32586b"/>
              <path id="Trazado_771341" data-name="Trazado 771341" d="M167.82,64.608a2.569,2.569,0,0,1,.445-1.8.762.762,0,0,1,.85-.249,1.067,1.067,0,0,1,.468.994,5.308,5.308,0,0,1-.128,1.36,1.736,1.736,0,0,1-.308.724.747.747,0,0,1-.7.291.776.776,0,0,1-.551-.649,5.823,5.823,0,0,1-.079-.671" transform="translate(-74.656 -27.809)" fill="#32586b"/>
              <path id="Trazado_771342" data-name="Trazado 771342" d="M274.361,227.562c.05,1.232,5.1,1.891,5.235.419s-5.285-1.65-5.235-.419" transform="translate(-122.056 -100.873)" fill="#32586b"/>
              <path id="Trazado_771343" data-name="Trazado 771343" d="M248.366,226.844c-.05,1.232-5.1,1.891-5.235.419s5.285-1.65,5.235-.419" transform="translate(-108.162 -100.554)" fill="#32586b"/>
              <path id="Trazado_771344" data-name="Trazado 771344" d="M274.632,235.827a2.569,2.569,0,0,1,.445-1.8.762.762,0,0,1,.85-.249,1.067,1.067,0,0,1,.468.994,5.309,5.309,0,0,1-.128,1.36,1.736,1.736,0,0,1-.308.724.747.747,0,0,1-.7.291.776.776,0,0,1-.551-.649,5.83,5.83,0,0,1-.079-.671" transform="translate(-122.174 -103.98)" fill="#32586b"/>
              <path id="Trazado_771345" data-name="Trazado 771345" d="M249.822,235.827a2.569,2.569,0,0,1,.445-1.8.762.762,0,0,1,.85-.249,1.067,1.067,0,0,1,.468.994,5.308,5.308,0,0,1-.128,1.36,1.736,1.736,0,0,1-.308.724.747.747,0,0,1-.7.291.776.776,0,0,1-.551-.649,5.837,5.837,0,0,1-.079-.671" transform="translate(-111.136 -103.98)" fill="#32586b"/>
              <path id="Trazado_771346" data-name="Trazado 771346" d="M149.059,198.748c.432,1.155,5.436.2,5.1-1.239s-5.536.084-5.1,1.239" transform="translate(-66.301 -87.606)" fill="#32586b"/>
              <path id="Trazado_771347" data-name="Trazado 771347" d="M116.576,205.851c.338,1.186-4.253,3.391-4.842,2.035s4.5-3.22,4.842-2.035" transform="translate(-49.687 -91.41)" fill="#32586b"/>
              <path id="Trazado_771348" data-name="Trazado 771348" d="M152.644,208.9a2.569,2.569,0,0,1-.139-1.849.762.762,0,0,1,.729-.5c.385.039.622.435.756.8a5.328,5.328,0,0,1,.3,1.332,1.732,1.732,0,0,1-.066.784.746.746,0,0,1-.571.494.776.776,0,0,1-.726-.444,5.733,5.733,0,0,1-.285-.613" transform="translate(-67.792 -91.886)" fill="#32586b"/>
              <path id="Trazado_771349" data-name="Trazado 771349" d="M121.421,216.464a2.569,2.569,0,0,1-.139-1.849.763.763,0,0,1,.729-.5c.385.039.622.435.756.8a5.328,5.328,0,0,1,.3,1.332,1.731,1.731,0,0,1-.066.784.746.746,0,0,1-.571.494.776.776,0,0,1-.726-.444,5.732,5.732,0,0,1-.285-.613" transform="translate(-53.902 -95.252)" fill="#32586b"/>
              <path id="Trazado_771350" data-name="Trazado 771350" d="M313.506,107.945c-.718,1,2.857,4.629,3.87,3.552s-3.151-4.553-3.87-3.552" transform="translate(-139.429 -47.942)" fill="#32586b"/>
              <path id="Trazado_771351" data-name="Trazado 771351" d="M284.2,96.663c-.309,1.194-5.384.773-5.206-.694s5.515-.5,5.206.694" transform="translate(-124.113 -42.364)" fill="#32586b"/>
              <path id="Trazado_771352" data-name="Trazado 771352" d="M307.821,115.586a2.57,2.57,0,0,1,1.059-1.522.762.762,0,0,1,.883.071,1.067,1.067,0,0,1,.082,1.1,5.314,5.314,0,0,1-.606,1.225,1.722,1.722,0,0,1-.546.567.747.747,0,0,1-.755.023.777.777,0,0,1-.283-.8,5.644,5.644,0,0,1,.166-.655" transform="translate(-136.86 -50.697)" fill="#32586b"/>
              <path id="Trazado_771353" data-name="Trazado 771353" d="M281.306,104.452a2.57,2.57,0,0,1,1.059-1.522.762.762,0,0,1,.883.071,1.067,1.067,0,0,1,.082,1.1,5.314,5.314,0,0,1-.606,1.225,1.721,1.721,0,0,1-.546.567.747.747,0,0,1-.755.023.777.777,0,0,1-.283-.8,5.639,5.639,0,0,1,.166-.655" transform="translate(-125.064 -45.744)" fill="#32586b"/>
              <path id="Trazado_771354" data-name="Trazado 771354" d="M294.9,107.689q-1.157,4.532-2.313,9.065a3.457,3.457,0,0,1-.626,1.46,1.8,1.8,0,0,1-2.721-.165" transform="translate(-128.678 -47.908)" fill="none" stroke="#de8f62" stroke-linejoin="round" stroke-width="1.028"/>
              <path id="Trazado_771355" data-name="Trazado 771355" d="M326.039,128.746a3.567,3.567,0,0,1,4.289-.693" transform="translate(-145.046 -56.776)" fill="none" stroke="#de8f62" stroke-linejoin="round" stroke-width="1.028"/>
              <path id="Trazado_771356" data-name="Trazado 771356" d="M328.946,128.083l1.244,2.394" transform="translate(-146.34 -56.981)" fill="none" stroke="#de8f62" stroke-linejoin="round" stroke-width="1.028"/>
              <path id="Trazado_771357" data-name="Trazado 771357" d="M262.626,102.032a3.246,3.246,0,0,0-3.685-2.3" transform="translate(-115.196 -44.348)" fill="none" stroke="#de8f62" stroke-linejoin="round" stroke-width="1.028"/>
              <path id="Trazado_771358" data-name="Trazado 771358" d="M261.132,100.808l-2.8,1.61" transform="translate(-114.927 -44.847)" fill="none" stroke="#de8f62" stroke-linejoin="round" stroke-width="1.028"/>
              <path id="Trazado_771359" data-name="Trazado 771359" d="M278.1,124.65a6.931,6.931,0,0,0,3.734,7.191" transform="translate(-123.688 -55.454)" fill="none" stroke="#de8f62" stroke-linejoin="round" stroke-width="1.028"/>
              <path id="Trazado_771360" data-name="Trazado 771360" d="M222.115,67.487a3.412,3.412,0,0,1,4.979-1.151" transform="translate(-98.813 -29.231)" fill="none" stroke="#de8f62" stroke-linejoin="round" stroke-width="1.028"/>
              <path id="Trazado_771361" data-name="Trazado 771361" d="M225.6,65.842a5.463,5.463,0,0,1,1.241,2.833" transform="translate(-100.362 -29.291)" fill="none" stroke="#de8f62" stroke-linejoin="round" stroke-width="1.028"/>
              <path id="Trazado_771362" data-name="Trazado 771362" d="M144.238,66.738a3.4,3.4,0,0,0-5.272.165" transform="translate(-61.822 -29.168)" fill="none" stroke="#de8f62" stroke-linejoin="round" stroke-width="1.028"/>
              <path id="Trazado_771363" data-name="Trazado 771363" d="M143.506,65.841a6.862,6.862,0,0,0-1.184,3.167" transform="translate(-63.315 -29.291)" fill="none" stroke="#de8f62" stroke-linejoin="round" stroke-width="1.028"/>
              <path id="Trazado_771364" data-name="Trazado 771364" d="M186.339,60.671q.7,5.3,1.391,10.6a2.889,2.889,0,0,1-.349,2.3c-.691.789-1.944.589-2.958.323" transform="translate(-82.045 -26.991)" fill="none" stroke="#de8f62" stroke-linejoin="round" stroke-width="1.028"/>
              <path id="Trazado_771365" data-name="Trazado 771365" d="M168.24,87.49a8.315,8.315,0,0,0,6.8,7.537" transform="translate(-74.846 -38.922)" fill="none" stroke="#de8f62" stroke-linejoin="round" stroke-width="1.028"/>
              <path id="Trazado_771366" data-name="Trazado 771366" d="M171.07,210.935a3.406,3.406,0,0,1,3.5-1.482" transform="translate(-76.105 -93.151)" fill="none" stroke="#de8f62" stroke-linejoin="round" stroke-width="1.028"/>
              <path id="Trazado_771367" data-name="Trazado 771367" d="M173.506,210.1l1.321,1.842" transform="translate(-77.188 -93.469)" fill="none" stroke="#de8f62" stroke-linejoin="round" stroke-width="1.028"/>
              <path id="Trazado_771368" data-name="Trazado 771368" d="M102.788,224.11A2.985,2.985,0,0,0,99.221,224" transform="translate(-44.141 -99.413)" fill="none" stroke="#de8f62" stroke-linejoin="round" stroke-width="1.028"/>
              <path id="Trazado_771369" data-name="Trazado 771369" d="M101.689,223.54l-1.329,2.183" transform="translate(-44.648 -99.447)" fill="none" stroke="#de8f62" stroke-linejoin="round" stroke-width="1.028"/>
              <path id="Trazado_771370" data-name="Trazado 771370" d="M139.81,210.82a9.959,9.959,0,0,0,2.64,5.9c.5.532,1.1,1.117,1.046,1.845a1.578,1.578,0,0,1-.927,1.21,4.665,4.665,0,0,1-1.544.362" transform="translate(-62.198 -93.788)" fill="none" stroke="#de8f62" stroke-linejoin="round" stroke-width="1.028"/>
              <path id="Trazado_771371" data-name="Trazado 771371" d="M132.042,231.4a6.38,6.38,0,0,0,6.738,3.858" transform="translate(-58.742 -102.945)" fill="none" stroke="#de8f62" stroke-linejoin="round" stroke-width="1.028"/>
              <path id="Trazado_771372" data-name="Trazado 771372" d="M293.643,239.5a2.95,2.95,0,0,1,3.416-.81" transform="translate(-130.634 -106.079)" fill="none" stroke="#de8f62" stroke-linejoin="round" stroke-width="1.028"/>
              <path id="Trazado_771373" data-name="Trazado 771373" d="M296.167,238.939a2.549,2.549,0,0,1,1.234,1.827" transform="translate(-131.757 -106.298)" fill="none" stroke="#de8f62" stroke-linejoin="round" stroke-width="1.028"/>
              <path id="Trazado_771374" data-name="Trazado 771374" d="M229.452,239.013a2.5,2.5,0,0,0-3.063-.145" transform="translate(-100.715 -106.064)" fill="none" stroke="#de8f62" stroke-linejoin="round" stroke-width="1.028"/>
              <path id="Trazado_771375" data-name="Trazado 771375" d="M228.861,238.621a3.356,3.356,0,0,0-1.172,1.945" transform="translate(-101.293 -106.156)" fill="none" stroke="#de8f62" stroke-linejoin="round" stroke-width="1.028"/>
              <path id="Trazado_771376" data-name="Trazado 771376" d="M263.283,234.4a13.558,13.558,0,0,0,1.214,7.06c.326.693.7,1.544.261,2.169a2.064,2.064,0,0,1-1.842.543" transform="translate(-116.965 -104.276)" fill="none" stroke="#de8f62" stroke-linejoin="round" stroke-width="1.028"/>
              <path id="Trazado_771377" data-name="Trazado 771377" d="M252.525,252.933a4.622,4.622,0,0,0,5.275,4.112" transform="translate(-112.342 -112.523)" fill="none" stroke="#de8f62" stroke-linejoin="round" stroke-width="1.028"/>
              <path id="Trazado_771378" data-name="Trazado 771378" d="M234.031,158.509q.526,8.716,1.053,17.431" transform="translate(-104.114 -70.517)" fill="none" stroke="#3d6173" stroke-linejoin="round" stroke-width="1.028"/>
              <path id="Trazado_771379" data-name="Trazado 771379" d="M234.641,163.658a13.167,13.167,0,0,1,3.621-7.1" transform="translate(-104.386 -69.649)" fill="none" stroke="#3d6173" stroke-linejoin="round" stroke-width="1.028"/>
              <line id="Línea_177" data-name="Línea 177" y1="18.596" x2="17.555" transform="translate(181.305 153.339)" fill="none" stroke="#e86171" stroke-linejoin="round" stroke-width="1.028"/>
              <path id="Trazado_771380" data-name="Trazado 771380" d="M344.066,259.833c-2.465-9.741-3.423-14.033-10.432-26.562" transform="translate(-148.425 -103.776)" fill="none" stroke="#e86171" stroke-linejoin="round" stroke-width="1.028"/>
              <path id="Trazado_771381" data-name="Trazado 771381" d="M305.869,326.668a19.482,19.482,0,0,0,4.737-2.2" transform="translate(-136.073 -144.346)" fill="none" stroke="#de8f62" stroke-linejoin="round" stroke-width="1.028"/>
              <path id="Trazado_771382" data-name="Trazado 771382" d="M309.453,331.868l3.867-1.81" transform="translate(-137.668 -146.834)" fill="none" stroke="#de8f62" stroke-linejoin="round" stroke-width="1.028"/>
              <path id="Trazado_771383" data-name="Trazado 771383" d="M312.036,337.137l3.648-1.552" transform="translate(-138.817 -149.293)" fill="none" stroke="#de8f62" stroke-linejoin="round" stroke-width="1.028"/>
              <path id="Trazado_771384" data-name="Trazado 771384" d="M316.812,316.242l1.966-.925" transform="translate(-140.942 -140.276)" fill="none" stroke="#de8f62" stroke-linejoin="round" stroke-width="1.028"/>
              <path id="Trazado_771385" data-name="Trazado 771385" d="M259.336,161.756a13.841,13.841,0,0,0,24.266,2" transform="translate(-115.372 -71.961)" fill="none" stroke="#e86171" stroke-linejoin="round" stroke-width="1.028"/>
              <path id="Trazado_771386" data-name="Trazado 771386" d="M258.282,163.951l-2.268,1.486" transform="translate(-113.894 -72.938)" fill="none" stroke="#e86171" stroke-linejoin="round" stroke-width="1.028"/>
              <path id="Trazado_771387" data-name="Trazado 771387" d="M261.35,168.036l-1.955,1.8" transform="translate(-115.398 -74.755)" fill="none" stroke="#e86171" stroke-linejoin="round" stroke-width="1.028"/>
              <path id="Trazado_771388" data-name="Trazado 771388" d="M265.592,171.276l-1.408,1.877" transform="translate(-117.529 -76.196)" fill="none" stroke="#e86171" stroke-linejoin="round" stroke-width="1.028"/>
              <path id="Trazado_771389" data-name="Trazado 771389" d="M269.932,174.189l-1.162,2.117" transform="translate(-119.569 -77.492)" fill="none" stroke="#e86171" stroke-linejoin="round" stroke-width="1.028"/>
              <path id="Trazado_771390" data-name="Trazado 771390" d="M274.762,176.209l-.869,2.186" transform="translate(-121.848 -78.391)" fill="none" stroke="#e86171" stroke-linejoin="round" stroke-width="1.028"/>
              <path id="Trazado_771391" data-name="Trazado 771391" d="M280.526,176.347q-.077,1.407-.155,2.815" transform="translate(-124.73 -78.452)" fill="none" stroke="#e86171" stroke-linejoin="round" stroke-width="1.028"/>
              <path id="Trazado_771392" data-name="Trazado 771392" d="M286.283,176.208l.157,2.815" transform="translate(-127.36 -78.39)" fill="none" stroke="#e86171" stroke-linejoin="round" stroke-width="1.028"/>
              <path id="Trazado_771393" data-name="Trazado 771393" d="M291.182,175.1q.407,1.246.813,2.492" transform="translate(-129.539 -77.896)" fill="none" stroke="#e86171" stroke-linejoin="round" stroke-width="1.028"/>
              <path id="Trazado_771394" data-name="Trazado 771394" d="M295.7,172.57l1.416,2.106" transform="translate(-131.549 -76.772)" fill="none" stroke="#e86171" stroke-linejoin="round" stroke-width="1.028"/>
              <path id="Trazado_771395" data-name="Trazado 771395" d="M299.421,169.992l1.53,1.76" transform="translate(-133.205 -75.625)" fill="none" stroke="#e86171" stroke-linejoin="round" stroke-width="1.028"/>
              <path id="Trazado_771396" data-name="Trazado 771396" d="M302.375,166.61l1.826,1.545" transform="translate(-134.519 -74.121)" fill="none" stroke="#e86171" stroke-linejoin="round" stroke-width="1.028"/>
              <path id="Trazado_771397" data-name="Trazado 771397" d="M161.262,124.909a13.666,13.666,0,0,0,24.059.689" transform="translate(-71.741 -55.569)" fill="none" stroke="#3d6173" stroke-linejoin="round" stroke-width="1.028"/>
              <g id="Grupo_1042781" data-name="Grupo 1042781" transform="translate(116.169 157.01)" opacity="0.3" style="mix-blend-mode: overlay;isolation: isolate">
                <g id="Grupo_1042780" data-name="Grupo 1042780">
                  <g id="Grupo_1042779" data-name="Grupo 1042779" clip-path="url(#clip-path-31)">
                    <path id="Trazado_771398" data-name="Trazado 771398" d="M283.776,282.837c-1.371,0-1.538,2.137-.154,2.137s1.537-2.137.154-2.137" transform="translate(-241.918 -282.837)" fill="#1d1d1b"/>
                    <path id="Trazado_771399" data-name="Trazado 771399" d="M275.535,294.511c-1.371,0-1.538,2.137-.154,2.137s1.537-2.137.154-2.137" transform="translate(-238.252 -288.03)" fill="#1d1d1b"/>
                    <path id="Trazado_771400" data-name="Trazado 771400" d="M263.861,288.331c-1.371,0-1.538,2.137-.154,2.137s1.537-2.137.154-2.137" transform="translate(-233.059 -285.281)" fill="#1d1d1b"/>
                    <path id="Trazado_771401" data-name="Trazado 771401" d="M255.162,297.029c-1.371,0-1.538,2.137-.154,2.137s1.537-2.137.154-2.137" transform="translate(-229.189 -289.151)" fill="#1d1d1b"/>
                    <path id="Trazado_771402" data-name="Trazado 771402" d="M247.379,286.271c-1.371,0-1.538,2.137-.154,2.137s1.537-2.137.154-2.137" transform="translate(-225.726 -284.365)" fill="#1d1d1b"/>
                    <path id="Trazado_771403" data-name="Trazado 771403" d="M236.85,296.343c-1.37,0-1.538,2.137-.154,2.137s1.537-2.137.154-2.137" transform="translate(-221.042 -288.845)" fill="#1d1d1b"/>
                    <path id="Trazado_771404" data-name="Trazado 771404" d="M233.186,282.837h-.254a1.071,1.071,0,1,0-.154,2.137h.254a1.071,1.071,0,0,0,.154-2.137" transform="translate(-219.284 -282.837)" fill="#1d1d1b"/>
                    <path id="Trazado_771405" data-name="Trazado 771405" d="M294.534,292.68c-1.371,0-1.538,2.137-.154,2.137s1.537-2.137.154-2.137" transform="translate(-246.704 -287.216)" fill="#1d1d1b"/>
                    <path id="Trazado_771406" data-name="Trazado 771406" d="M289.727,305.957c-1.371,0-1.538,2.137-.154,2.137s1.537-2.137.154-2.137" transform="translate(-244.566 -293.122)" fill="#1d1d1b"/>
                    <path id="Trazado_771407" data-name="Trazado 771407" d="M267.981,306.872c-1.371,0-1.538,2.137-.154,2.137s1.537-2.137.154-2.137" transform="translate(-234.891 -293.53)" fill="#1d1d1b"/>
                    <path id="Trazado_771408" data-name="Trazado 771408" d="M246.922,306.872c-1.371,0-1.538,2.137-.154,2.137s1.537-2.137.154-2.137" transform="translate(-225.523 -293.53)" fill="#1d1d1b"/>
                    <path id="Trazado_771409" data-name="Trazado 771409" d="M222.657,300.005c-1.371,0-1.538,2.137-.154,2.137s1.537-2.137.154-2.137" transform="translate(-214.728 -290.475)" fill="#1d1d1b"/>
                    <path id="Trazado_771410" data-name="Trazado 771410" d="M234.124,314.632l-.26-.248a1.1,1.1,0,0,0-1.51-.128,1.084,1.084,0,0,0-.128,1.51l.26.248a1.1,1.1,0,0,0,1.51.128,1.084,1.084,0,0,0,.128-1.51" transform="translate(-219.367 -296.704)" fill="#1d1d1b"/>
                    <path id="Trazado_771411" data-name="Trazado 771411" d="M257.781,316.715h-.127a1.071,1.071,0,1,0-.154,2.137h.127a1.071,1.071,0,0,0,.154-2.137" transform="translate(-230.282 -297.908)" fill="#1d1d1b"/>
                    <path id="Trazado_771412" data-name="Trazado 771412" d="M280.01,316.715h-.381a1.071,1.071,0,0,0-.154,2.137h.381a1.071,1.071,0,0,0,.154-2.137" transform="translate(-240.059 -297.908)" fill="#1d1d1b"/>
                    <path id="Trazado_771413" data-name="Trazado 771413" d="M303.233,312.366c-1.371,0-1.538,2.137-.154,2.137s1.537-2.137.154-2.137" transform="translate(-250.574 -295.974)" fill="#1d1d1b"/>
                    <path id="Trazado_771414" data-name="Trazado 771414" d="M270.27,326.787c-1.37,0-1.538,2.137-.154,2.137s1.537-2.137.154-2.137" transform="translate(-235.91 -302.389)" fill="#1d1d1b"/>
                    <path id="Trazado_771415" data-name="Trazado 771415" d="M245.777,324.269c-1.37,0-1.538,2.137-.154,2.137s1.537-2.137.154-2.137" transform="translate(-225.014 -301.269)" fill="#1d1d1b"/>
                    <path id="Trazado_771416" data-name="Trazado 771416" d="M216.019,312.366c-1.37,0-1.538,2.137-.154,2.137s1.537-2.137.154-2.137" transform="translate(-211.775 -295.974)" fill="#1d1d1b"/>
                    <path id="Trazado_771417" data-name="Trazado 771417" d="M223.8,326.329c-1.37,0-1.538,2.137-.154,2.137s1.537-2.137.154-2.137" transform="translate(-215.237 -302.185)" fill="#1d1d1b"/>
                    <path id="Trazado_771418" data-name="Trazado 771418" d="M258.367,337.088c-1.37,0-1.538,2.137-.154,2.137s1.537-2.137.154-2.137" transform="translate(-230.615 -306.972)" fill="#1d1d1b"/>
                    <path id="Trazado_771419" data-name="Trazado 771419" d="M285.149,333.654c-1.37,0-1.538,2.137-.154,2.137s1.537-2.137.154-2.137" transform="translate(-242.529 -305.444)" fill="#1d1d1b"/>
                    <path id="Trazado_771420" data-name="Trazado 771420" d="M235.018,335.486c-1.37,0-1.538,2.137-.154,2.137s1.537-2.137.154-2.137" transform="translate(-220.227 -306.259)" fill="#1d1d1b"/>
                    <path id="Trazado_771421" data-name="Trazado 771421" d="M212.814,333.426c-1.371,0-1.538,2.137-.154,2.137s1.537-2.137.154-2.137" transform="translate(-210.349 -305.343)" fill="#1d1d1b"/>
                    <path id="Trazado_771422" data-name="Trazado 771422" d="M273.175,346.624c-1.42,0-1.594,2.215-.16,2.215s1.594-2.215.16-2.215" transform="translate(-237.184 -311.214)" fill="#1d1d1b"/>
                    <path id="Trazado_771423" data-name="Trazado 771423" d="M244.948,347.128c-1.42,0-1.594,2.215-.16,2.215s1.594-2.215.16-2.215" transform="translate(-224.627 -311.438)" fill="#1d1d1b"/>
                    <path id="Trazado_771424" data-name="Trazado 771424" d="M220.614,344.1h-.14a1.11,1.11,0,0,0-.16,2.215h.14a1.11,1.11,0,0,0,.159-2.215" transform="translate(-213.724 -310.093)" fill="#1d1d1b"/>
                    <path id="Trazado_771425" data-name="Trazado 771425" d="M231.086,358.721c-1.42,0-1.594,2.215-.16,2.215s1.594-2.215.16-2.215" transform="translate(-218.46 -316.596)" fill="#1d1d1b"/>
                    <path id="Trazado_771426" data-name="Trazado 771426" d="M260.883,359.371a1.144,1.144,0,0,0-1.478-.53l-.42.14a1.113,1.113,0,0,0-.53,1.478,1.144,1.144,0,0,0,1.478.531l.42-.14a1.113,1.113,0,0,0,.53-1.478" transform="translate(-231.103 -316.612)" fill="#1d1d1b"/>
                    <path id="Trazado_771427" data-name="Trazado 771427" d="M286.533,357.461c-1.42,0-1.594,2.215-.16,2.215s1.594-2.215.16-2.215" transform="translate(-243.127 -316.035)" fill="#1d1d1b"/>
                    <path id="Trazado_771428" data-name="Trazado 771428" d="M296.866,345.616c-1.42,0-1.594,2.215-.16,2.215s1.594-2.215.16-2.215" transform="translate(-247.724 -310.766)" fill="#1d1d1b"/>
                    <path id="Trazado_771429" data-name="Trazado 771429" d="M308.207,357.713c-1.42,0-1.594,2.215-.159,2.215s1.593-2.215.159-2.215" transform="translate(-252.769 -316.147)" fill="#1d1d1b"/>
                    <path id="Trazado_771430" data-name="Trazado 771430" d="M210.42,357.965c-1.42,0-1.594,2.215-.16,2.215s1.594-2.215.16-2.215" transform="translate(-209.266 -316.26)" fill="#1d1d1b"/>
                    <path id="Trazado_771431" data-name="Trazado 771431" d="M245.7,367.29c-1.42,0-1.594,2.215-.159,2.215s1.593-2.215.159-2.215" transform="translate(-224.963 -320.408)" fill="#1d1d1b"/>
                    <path id="Trazado_771432" data-name="Trazado 771432" d="M274.435,366.786c-1.42,0-1.594,2.215-.159,2.215s1.593-2.215.159-2.215" transform="translate(-237.745 -320.184)" fill="#1d1d1b"/>
                    <path id="Trazado_771433" data-name="Trazado 771433" d="M298.882,366.282c-1.42,0-1.594,2.215-.16,2.215s1.594-2.215.16-2.215" transform="translate(-248.621 -319.96)" fill="#1d1d1b"/>
                    <path id="Trazado_771434" data-name="Trazado 771434" d="M219.493,366.534c-1.42,0-1.594,2.215-.16,2.215s1.594-2.215.16-2.215" transform="translate(-213.303 -320.072)" fill="#1d1d1b"/>
                  </g>
                </g>
              </g>
              <path id="Trazado_771435" data-name="Trazado 771435" d="M365.789,214.454a14.941,14.941,0,0,0,.817-5.857" transform="translate(-162.73 -92.799)" fill="none" stroke="#de8f62" stroke-linejoin="round" stroke-width="1.028"/>
              <path id="Trazado_771436" data-name="Trazado 771436" d="M361.207,207.726a22.519,22.519,0,0,0,.693-7.508" transform="translate(-160.692 -89.072)" fill="none" stroke="#de8f62" stroke-linejoin="round" stroke-width="1.028"/>
              <path id="Trazado_771437" data-name="Trazado 771437" d="M356.179,201.816a15.3,15.3,0,0,0,.333-5.3" transform="translate(-158.455 -87.425)" fill="none" stroke="#de8f62" stroke-linejoin="round" stroke-width="1.028"/>
              <path id="Trazado_771438" data-name="Trazado 771438" d="M77.552,230.555l9.337,19.4" transform="translate(-34.501 -102.568)" fill="none" stroke="#3d6173" stroke-linejoin="round" stroke-width="1.028"/>
              <path id="Trazado_771439" data-name="Trazado 771439" d="M96.417,276.645a7.427,7.427,0,0,0-3.965.716" transform="translate(-41.13 -123.057)" fill="none" stroke="#de8f62" stroke-linejoin="round" stroke-width="1.028"/>
              <path id="Trazado_771440" data-name="Trazado 771440" d="M83.684,237.977l5.114-7.441" transform="translate(-37.229 -102.56)" fill="none" stroke="#3d6173" stroke-linejoin="round" stroke-width="1.028"/>
              <path id="Trazado_771441" data-name="Trazado 771441" d="M109.691,268.149a5.52,5.52,0,0,0-3.853-.908" transform="translate(-47.085 -118.866)" fill="none" stroke="#de8f62" stroke-linejoin="round" stroke-width="1.028"/>
              <path id="Trazado_771442" data-name="Trazado 771442" d="M104.159,271.264a8.31,8.31,0,0,0-3.811-.231l.1-.008" transform="translate(-44.642 -120.522)" fill="none" stroke="#de8f62" stroke-linejoin="round" stroke-width="1.028"/>
              <path id="Trazado_771443" data-name="Trazado 771443" d="M114.337,265.021a6.328,6.328,0,0,0-4.643-2.116" transform="translate(-48.8 -116.96)" fill="none" stroke="#de8f62" stroke-linejoin="round" stroke-width="1.028"/>
            </g>
          </g>
        </g>
      </g>
      <path id="Trazado_771444" data-name="Trazado 771444" d="M-7271-10916h100" transform="translate(8296 17546)" fill="none" stroke="#3bc192" stroke-linecap="round" stroke-width="5"/>
      <path id="Trazado_771445" data-name="Trazado 771445" d="M-7271-10916h142.106" transform="translate(8396.363 17546)" fill="none" stroke="#fabf40" stroke-linecap="round" stroke-width="5"/>
    </g>
  </g>
</svg>
