<svg xmlns="http://www.w3.org/2000/svg" width="108" height="108" viewBox="0 0 108 108">
  <g id="Grupo_1042935" data-name="Grupo 1042935" transform="translate(-356 -6842)">
    <rect id="Rectángulo_33830" data-name="Rectángulo 33830" width="108" height="108" rx="12" transform="translate(356 6842)" fill="#fabf40"/>
    <g id="Layer_66" transform="translate(368 6851.56)">
      <g id="Grupo_1042934" data-name="Grupo 1042934" transform="translate(0 0)">
        <g id="Grupo_1042788" data-name="Grupo 1042788" transform="translate(6.375 41.393)">
          <g id="Grupo_1042787" data-name="Grupo 1042787">
            <path id="Trazado_771446" data-name="Trazado 771446" d="M24.676,127.046a3.807,3.807,0,0,1-2.937-.715,10.883,10.883,0,0,0,.783,6.271c1.248,3.121-3.456,5.714-3.04,10.066l4.7-1.185a8.158,8.158,0,0,0,1.611-.592l2.3-1.135a2.589,2.589,0,0,0,1.444-2.322v-2.824A9.348,9.348,0,0,1,24.676,127.046Z" transform="translate(-19.456 -126.331)" fill="#fcdd86"/>
          </g>
        </g>
        <g id="Grupo_1042790" data-name="Grupo 1042790" transform="translate(0.819 56.624)">
          <g id="Grupo_1042789" data-name="Grupo 1042789">
            <path id="Trazado_771447" data-name="Trazado 771447" d="M35.479,177.585a3.35,3.35,0,0,1-3.834-2.679c-3.421,6-6.893,3.2-8.373,1.487a.732.732,0,0,1-.178-.47H22.038a.732.732,0,0,1-.178.47c-1.628,1.882-5.671,5.095-9.4-3.576l-6.339,1.6a3.819,3.819,0,0,0-2.881,3.491L2.5,198.133a1.062,1.062,0,0,0,1.06,1.121h5.9a.718.718,0,0,0,.718-.718V185.893l1.041,3.336a22.607,22.607,0,0,1,1.027,6.737v2.569a.718.718,0,0,0,.718.718H27.2l.313-5.71a3.175,3.175,0,0,1,2.395-2.9l3.88-.976c.217-.746.392-1.271,1.168-3.771v3.477l1.2-.3,1.861-.918a2.9,2.9,0,0,0,1.9-2.664v-1.249a8.073,8.073,0,0,1-4.435-6.652Z" transform="translate(-2.5 -172.817)" fill="#beb5dd"/>
          </g>
        </g>
        <g id="Grupo_1042792" data-name="Grupo 1042792" transform="translate(21.408 55.083)">
          <g id="Grupo_1042791" data-name="Grupo 1042791">
            <path id="Trazado_771448" data-name="Trazado 771448" d="M74.257,169.477a20.364,20.364,0,0,1-3.025-1.363A12.385,12.385,0,0,1,65.892,172a.763.763,0,0,0-.372,1.226c1.479,1.71,4.952,4.516,8.373-1.487A3.335,3.335,0,0,1,74.257,169.477Z" transform="translate(-65.337 -168.114)" fill="#edf4fc"/>
          </g>
        </g>
        <g id="Grupo_1042794" data-name="Grupo 1042794" transform="translate(10.777 55.083)">
          <g id="Grupo_1042793" data-name="Grupo 1042793">
            <path id="Trazado_771449" data-name="Trazado 771449" d="M41.922,172a12.382,12.382,0,0,1-5.339-3.891l-1.76.868a8.151,8.151,0,0,1-1.611.592l-.32.081c3.732,8.671,7.774,5.458,9.4,3.576A.763.763,0,0,0,41.922,172Z" transform="translate(-32.891 -168.114)" fill="#edf4fc"/>
          </g>
        </g>
        <g id="Grupo_1042796" data-name="Grupo 1042796" transform="translate(14.468 49.669)">
          <g id="Grupo_1042795" data-name="Grupo 1042795">
            <path id="Trazado_771450" data-name="Trazado 771450" d="M56.448,156.736A2.59,2.59,0,0,1,55,154.413v-2.824a9.26,9.26,0,0,1-8.86,0v2.824a2.59,2.59,0,0,1-1.444,2.322l-.543.268a12.385,12.385,0,0,0,5.339,3.891.774.774,0,0,1,.55.757H51.1a.774.774,0,0,1,.55-.757A12.382,12.382,0,0,0,56.99,157Z" transform="translate(-44.156 -151.589)" fill="#f9d0b4"/>
          </g>
        </g>
        <g id="Grupo_1042801" data-name="Grupo 1042801" transform="translate(0 55.805)">
          <g id="Grupo_1042798" data-name="Grupo 1042798" transform="translate(31.341 13.076)">
            <g id="Grupo_1042797" data-name="Grupo 1042797">
              <path id="Trazado_771451" data-name="Trazado 771451" d="M97.709,210.235a.817.817,0,0,0-.905.567c-.3.963-.509,1.632-.666,2.134-.219.7-.337,1.077-.452,1.466a.819.819,0,0,0,1.487.655.819.819,0,0,0,1.232-.707v-3.305a.819.819,0,0,0-.7-.81Z" transform="translate(-95.652 -210.225)"/>
            </g>
          </g>
          <g id="Grupo_1042800" data-name="Grupo 1042800">
            <g id="Grupo_1042799" data-name="Grupo 1042799">
              <path id="Trazado_771452" data-name="Trazado 771452" d="M25.519,196.754H11.383v-2.468a23.4,23.4,0,0,0-1.065-6.982l-1.041-3.336a.819.819,0,0,0-1.6.244v12.541h-5.8a.242.242,0,0,1-.176-.076.253.253,0,0,1-.065-.2l.735-20.209a2.987,2.987,0,0,1,2.263-2.742l6.339-1.6a.819.819,0,1,0-.4-1.588l-6.338,1.6a4.622,4.622,0,0,0-3.5,4.256L0,196.407a1.881,1.881,0,0,0,1.878,1.985h5.9a1.539,1.539,0,0,0,1.537-1.537v-6.878a21.754,21.754,0,0,1,.43,4.309v2.569a1.538,1.538,0,0,0,1.537,1.537H25.52a.819.819,0,1,0,0-1.638Z" transform="translate(0 -170.318)"/>
            </g>
          </g>
        </g>
        <g id="Grupo_1042803" data-name="Grupo 1042803" transform="translate(25.315 41.393)">
          <g id="Grupo_1042802" data-name="Grupo 1042802">
            <path id="Trazado_771453" data-name="Trazado 771453" d="M85.058,126.33a3.807,3.807,0,0,1-2.937.715,9.346,9.346,0,0,1-4.86,7.561v2.824a2.59,2.59,0,0,0,1.444,2.322l2.3,1.135a8.134,8.134,0,0,0,1.265.5,3.379,3.379,0,0,1,.84-.99h0V137.47a10.725,10.725,0,0,1,1.162-4.865l0,0a10.882,10.882,0,0,0,.783-6.27Z" transform="translate(-77.261 -126.33)" fill="#fcdd86"/>
          </g>
        </g>
        <g id="Grupo_1042805" data-name="Grupo 1042805" transform="translate(30.175 34.385)">
          <g id="Grupo_1042804" data-name="Grupo 1042804">
            <path id="Trazado_771454" data-name="Trazado 771454" d="M92.716,104.944a3.864,3.864,0,0,0-.6.048v7.051c0,.21-.01.418-.024.625a3.887,3.887,0,1,0,.621-7.723Z" transform="translate(-92.095 -104.944)" fill="#f9d0b4"/>
          </g>
        </g>
        <g id="Grupo_1042807" data-name="Grupo 1042807" transform="translate(11.571 31.13)">
          <g id="Grupo_1042806" data-name="Grupo 1042806">
            <path id="Trazado_771455" data-name="Trazado 771455" d="M53.37,97.127a7.72,7.72,0,0,1-3.4-1.956.618.618,0,0,0-.888.05c-1.418,1.656-6.448,6.679-13.768,4.594v5.547a9.314,9.314,0,1,0,18.627,0V97.837A.73.73,0,0,0,53.37,97.127Z" transform="translate(-35.316 -95.007)" fill="#f9d0b4"/>
          </g>
        </g>
        <g id="Grupo_1042809" data-name="Grupo 1042809" transform="translate(7.085 35.122)">
          <g id="Grupo_1042808" data-name="Grupo 1042808">
            <path id="Trazado_771456" data-name="Trazado 771456" d="M26.11,113.553v-5.547a15.138,15.138,0,0,1-1.97-.715,1.185,1.185,0,0,0-1.288.221,3.876,3.876,0,0,0,3.281,6.665c-.014-.207-.024-.414-.024-.625Z" transform="translate(-21.624 -107.191)" fill="#f9d0b4"/>
          </g>
        </g>
        <g id="Grupo_1042811" data-name="Grupo 1042811" transform="translate(8.221 20.586)">
          <g id="Grupo_1042810" data-name="Grupo 1042810">
            <path id="Trazado_771457" data-name="Trazado 771457" d="M37.754,62.829A12.7,12.7,0,0,0,25.089,75.494v2.289c.032-.032.061-.066.093-.1a1.184,1.184,0,0,1,1.288-.221,15.136,15.136,0,0,0,1.97.715c7.32,2.085,12.35-2.938,13.768-4.594a.618.618,0,0,1,.888-.05,7.72,7.72,0,0,0,3.4,1.956.731.731,0,0,1,.573.709v.474a3.871,3.871,0,0,1,3.351,1.1V75.493A12.7,12.7,0,0,0,37.754,62.829Z" transform="translate(-25.089 -62.829)" fill="#fcdd86"/>
          </g>
        </g>
        <g id="Grupo_1042813" data-name="Grupo 1042813" transform="translate(29.6 33.566)">
          <g id="Grupo_1042812" data-name="Grupo 1042812">
            <path id="Trazado_771458" data-name="Trazado 771458" d="M91.536,102.444c-.145,0-.289.007-.431.021a.819.819,0,0,0,.152,1.631c.092-.009.185-.013.279-.013a3.069,3.069,0,1,1,0,6.139,2.7,2.7,0,0,1-.289-.016.819.819,0,0,0-.177,1.629,4.294,4.294,0,0,0,.465.026,4.708,4.708,0,1,0,0-9.415Z" transform="translate(-90.34 -102.444)"/>
          </g>
        </g>
        <g id="Grupo_1042815" data-name="Grupo 1042815" transform="translate(17.498 43.743)">
          <g id="Grupo_1042814" data-name="Grupo 1042814">
            <path id="Trazado_771459" data-name="Trazado 771459" d="M60.156,133.7a.819.819,0,0,0-1.154.1,2.921,2.921,0,0,1-4.152,0,.819.819,0,1,0-1.256,1.052,4.549,4.549,0,0,0,6.663,0A.819.819,0,0,0,60.156,133.7Z" transform="translate(-53.403 -133.504)"/>
          </g>
        </g>
        <g id="Grupo_1042818" data-name="Grupo 1042818" transform="translate(10.752 30.31)">
          <g id="Grupo_1042817" data-name="Grupo 1042817">
            <g id="Grupo_1042816" data-name="Grupo 1042816">
              <path id="Trazado_771460" data-name="Trazado 771460" d="M51.874,94.648a7.034,7.034,0,0,1-3.033-1.765,1.459,1.459,0,0,0-1.063-.374,1.419,1.419,0,0,0-1,.5c-1.3,1.512-6.056,6.295-12.922,4.339a.819.819,0,0,0-1.044.788v5.547a10.133,10.133,0,1,0,20.265,0V96.156a1.545,1.545,0,0,0-1.207-1.508Zm-.431,9.032a8.494,8.494,0,1,1-16.989,0v-4.5c7.017,1.445,11.879-3.186,13.435-4.948a8.529,8.529,0,0,0,3.554,2Z" transform="translate(-32.816 -92.507)"/>
            </g>
          </g>
        </g>
        <g id="Grupo_1042820" data-name="Grupo 1042820" transform="translate(6.266 34.301)">
          <g id="Grupo_1042819" data-name="Grupo 1042819">
            <path id="Trazado_771461" data-name="Trazado 771461" d="M22.129,106.357a16.047,16.047,0,0,0,2.077.754.819.819,0,1,0,.449-1.576,14.362,14.362,0,0,1-1.863-.677,2,2,0,0,0-2.179.374,4.7,4.7,0,0,0,3.221,8.136c.132,0,.261-.007.39-.019a.819.819,0,0,0-.151-1.631c-.079.007-.158.011-.239.011a3.073,3.073,0,0,1-3.069-3.069,3.033,3.033,0,0,1,.97-2.233A.365.365,0,0,1,22.129,106.357Z" transform="translate(-19.125 -104.687)"/>
          </g>
        </g>
        <g id="Grupo_1042822" data-name="Grupo 1042822" transform="translate(7.401 19.767)">
          <g id="Grupo_1042821" data-name="Grupo 1042821">
            <path id="Trazado_771462" data-name="Trazado 771462" d="M36.073,60.329A13.5,13.5,0,0,0,22.589,73.813v2.095a.819.819,0,0,0,1.638,0V73.813a11.846,11.846,0,1,1,23.691,0v2.04a.819.819,0,1,0,1.638,0v-2.04A13.5,13.5,0,0,0,36.073,60.329Z" transform="translate(-22.589 -60.329)"/>
          </g>
        </g>
        <g id="Grupo_1042824" data-name="Grupo 1042824" transform="translate(31.508 40.771)">
          <g id="Grupo_1042823" data-name="Grupo 1042823">
            <path id="Trazado_771463" data-name="Trazado 771463" d="M98.61,125.11A.819.819,0,0,0,97,125.4a10.442,10.442,0,0,1-.775,5.625l-.013.035a.819.819,0,0,0,1.533.578l.006-.016A11.893,11.893,0,0,0,98.61,125.11Z" transform="translate(-96.162 -124.434)"/>
          </g>
        </g>
        <g id="Grupo_1042826" data-name="Grupo 1042826" transform="translate(5.556 40.769)">
          <g id="Grupo_1042825" data-name="Grupo 1042825">
            <path id="Trazado_771464" data-name="Trazado 771464" d="M21.6,131.017a10.437,10.437,0,0,1-.775-5.626.819.819,0,1,0-1.612-.288,11.892,11.892,0,0,0,.866,6.523c.452,1.131-.148,2.207-1.165,3.87-.98,1.6-2.092,3.419-1.948,5.749a.819.819,0,0,0,.817.769l.051,0a.819.819,0,0,0,.767-.868c-.112-1.814.815-3.328,1.71-4.793,1.017-1.663,2.069-3.382,1.288-5.334Z" transform="translate(-16.956 -124.427)"/>
          </g>
        </g>
        <g id="Grupo_1042829" data-name="Grupo 1042829" transform="translate(20.589 54.264)">
          <g id="Grupo_1042828" data-name="Grupo 1042828">
            <g id="Grupo_1042827" data-name="Grupo 1042827">
              <path id="Trazado_771465" data-name="Trazado 771465" d="M73.334,167.489a.82.82,0,0,0-.524-.477,7.4,7.4,0,0,1-1.139-.446l-1.76-.868a.818.818,0,0,0-.985.2,11.618,11.618,0,0,1-4.959,3.64,1.6,1.6,0,0,0-1.071,1.089,1.56,1.56,0,0,0,.322,1.455,6.209,6.209,0,0,0,4.435,2.453q.2,0,.4-.02c1.8-.176,3.434-1.539,4.866-4.05a.818.818,0,0,0,.093-.559,2.508,2.508,0,0,1,.274-1.714A.818.818,0,0,0,73.334,167.489ZM71.359,169.9c-1.11,1.867-2.274,2.872-3.461,2.988-1.409.141-2.7-1.038-3.377-1.8a12.743,12.743,0,0,0,5.229-3.64l1.2.591q.265.131.543.244a4.119,4.119,0,0,0-.132,1.62Z" transform="translate(-62.836 -165.615)"/>
            </g>
          </g>
        </g>
        <g id="Grupo_1042832" data-name="Grupo 1042832" transform="translate(9.958 54.265)">
          <g id="Grupo_1042831" data-name="Grupo 1042831">
            <g id="Grupo_1042830" data-name="Grupo 1042830">
              <path id="Trazado_771466" data-name="Trazado 771466" d="M41.554,170.632a1.6,1.6,0,0,0-1.071-1.089,11.618,11.618,0,0,1-4.959-3.64.819.819,0,0,0-.985-.2l-1.76.868a7.337,7.337,0,0,1-1.45.533l-.32.081a.819.819,0,0,0-.551,1.118c1.625,3.775,3.546,5.859,5.711,6.194a3.953,3.953,0,0,0,.606.047,6.121,6.121,0,0,0,4.457-2.452A1.562,1.562,0,0,0,41.554,170.632Zm-5.135,2.242c-1.4-.217-2.8-1.721-4.068-4.366a8.945,8.945,0,0,0,1.152-.471l1.2-.591a12.74,12.74,0,0,0,5.229,3.64C39.225,171.884,37.883,173.1,36.419,172.874Z" transform="translate(-30.391 -165.615)"/>
            </g>
          </g>
        </g>
        <g id="Grupo_1042834" data-name="Grupo 1042834" transform="translate(24.496 49.128)">
          <g id="Grupo_1042833" data-name="Grupo 1042833">
            <path id="Trazado_771467" data-name="Trazado 771467" d="M77.931,155.159l-.543-.268A1.759,1.759,0,0,1,76.4,153.3v-2.546a.819.819,0,1,0-1.638,0V153.3a3.387,3.387,0,0,0,1.9,3.057l.543.268a.819.819,0,1,0,.725-1.469Z" transform="translate(-74.762 -149.938)"/>
          </g>
        </g>
        <g id="Grupo_1042836" data-name="Grupo 1042836" transform="translate(19.596 58.911)">
          <g id="Grupo_1042835" data-name="Grupo 1042835">
            <path id="Trazado_771468" data-name="Trazado 771468" d="M61.566,179.8h-.94a.819.819,0,1,0,0,1.638h.94a.819.819,0,0,0,0-1.638Z" transform="translate(-59.807 -179.797)"/>
          </g>
        </g>
        <g id="Grupo_1042838" data-name="Grupo 1042838" transform="translate(13.649 49.148)">
          <g id="Grupo_1042837" data-name="Grupo 1042837">
            <path id="Trazado_771469" data-name="Trazado 771469" d="M44.462,150a.819.819,0,0,0-.819.819v2.526a1.758,1.758,0,0,1-.988,1.588l-.543.268a.819.819,0,1,0,.725,1.47l.543-.268a3.387,3.387,0,0,0,1.9-3.057v-2.526A.819.819,0,0,0,44.462,150Z" transform="translate(-41.655 -150)"/>
          </g>
        </g>
        <g id="Grupo_1042840" data-name="Grupo 1042840" transform="translate(52.143 29.509)">
          <g id="Grupo_1042839" data-name="Grupo 1042839">
            <path id="Trazado_771470" data-name="Trazado 771470" d="M178.909,93.3a.53.53,0,0,0-.51-.52c-4.107-.12-6.271-1.748-7.1-2.563a.532.532,0,0,0-.791.05c-3.611,4.541-8.937,3.9-10.728,3.525a.528.528,0,0,0-.638.51v7.959a9.886,9.886,0,1,0,19.772,0V93.451C178.911,93.4,178.91,93.348,178.909,93.3Z" transform="translate(-159.139 -90.06)" fill="#f9c1a8"/>
          </g>
        </g>
        <g id="Grupo_1042842" data-name="Grupo 1042842" transform="translate(48.933 20.3)">
          <g id="Grupo_1042841" data-name="Grupo 1042841">
            <path id="Trazado_771471" data-name="Trazado 771471" d="M170.175,63.913a5.589,5.589,0,0,0-2.885.805,5.652,5.652,0,0,0-4.843-2.764h-2.9a10.235,10.235,0,0,0-10.2,10.2v4.572a4.1,4.1,0,0,1,3.21-.855V75.4a.528.528,0,0,1,.638-.51c1.791.375,7.118,1.016,10.728-3.525a.532.532,0,0,1,.791-.05c.832.815,3,2.443,7.1,2.563a.53.53,0,0,1,.51.52c0,.051,0,.1,0,.155v1.322a4.1,4.1,0,0,1,3.5,1.108V69.56A5.664,5.664,0,0,0,170.175,63.913Z" transform="translate(-149.343 -61.954)" fill="#414344"/>
          </g>
        </g>
        <g id="Grupo_1042844" data-name="Grupo 1042844" transform="translate(71.89 34.171)">
          <g id="Grupo_1042843" data-name="Grupo 1042843">
            <path id="Trazado_771472" data-name="Trazado 771472" d="M220.066,104.29a4.089,4.089,0,0,0-.634.05v7.484c0,.223-.01.444-.025.663a4.125,4.125,0,1,0,.659-8.2Z" transform="translate(-219.407 -104.29)" fill="#f9c1a8"/>
          </g>
        </g>
        <g id="Grupo_1042846" data-name="Grupo 1042846" transform="translate(47.381 34.171)">
          <g id="Grupo_1042845" data-name="Grupo 1042845">
            <path id="Trazado_771473" data-name="Trazado 771473" d="M149.367,111.824v-7.484a4.129,4.129,0,1,0,.025,8.147C149.377,112.267,149.367,112.047,149.367,111.824Z" transform="translate(-144.605 -104.289)" fill="#f9c1a8"/>
          </g>
        </g>
        <g id="Grupo_1042848" data-name="Grupo 1042848" transform="translate(45.646 50.396)">
          <g id="Grupo_1042847" data-name="Grupo 1042847">
            <path id="Trazado_771474" data-name="Trazado 771474" d="M175.632,165.391a3.9,3.9,0,0,0-2.943-3.566l-7.678-1.933-2.714-1.338a3.415,3.415,0,0,1-1.9-3.063v-1.683a9.818,9.818,0,0,1-9.109.148v1.535a3.416,3.416,0,0,1-1.9,3.063l-2.453,1.209a3.356,3.356,0,0,1-3.412,5.041h0a8.074,8.074,0,0,1-4.2,6.533v1.37a2.905,2.905,0,0,0,1.9,2.664l1.861.918,6.248,1.573a3.175,3.175,0,0,1,2.395,2.9l.313,5.71h23.615a1.085,1.085,0,0,0,1.083-1.145Z" transform="translate(-139.312 -153.808)" fill="#fde9bc"/>
          </g>
        </g>
        <g id="Grupo_1042850" data-name="Grupo 1042850" transform="translate(55.286 50.396)">
          <g id="Grupo_1042849" data-name="Grupo 1042849">
            <path id="Trazado_771475" data-name="Trazado 771475" d="M182.079,158.554a3.415,3.415,0,0,1-1.9-3.063v-1.683a9.818,9.818,0,0,1-9.109.148v1.535a3.416,3.416,0,0,1-1.9,3.063l-.426.21a7.729,7.729,0,0,0,13.771,0Z" transform="translate(-168.734 -153.808)" fill="#f9c1a8"/>
          </g>
        </g>
        <g id="Grupo_1042853" data-name="Grupo 1042853" transform="translate(51.323 28.69)">
          <g id="Grupo_1042852" data-name="Grupo 1042852">
            <g id="Grupo_1042851" data-name="Grupo 1042851">
              <path id="Trazado_771476" data-name="Trazado 771476" d="M178.046,91.6a1.346,1.346,0,0,0-1.305-1.322c-3.886-.114-5.877-1.667-6.553-2.33a1.351,1.351,0,0,0-2.006.125c-3.267,4.107-8.026,3.63-9.919,3.233a1.351,1.351,0,0,0-1.129.274,1.336,1.336,0,0,0-.5,1.045v7.953a10.705,10.705,0,1,0,21.41,0V91.6Zm-1.637,8.977a9.067,9.067,0,0,1-18.134,0v-7.6c2.02.357,7.294.763,10.993-3.645a11.162,11.162,0,0,0,7.141,2.573Z" transform="translate(-156.637 -87.563)"/>
            </g>
          </g>
        </g>
        <g id="Grupo_1042857" data-name="Grupo 1042857" transform="translate(48.113 19.481)">
          <g id="Grupo_1042856" data-name="Grupo 1042856">
            <g id="Grupo_1042855" data-name="Grupo 1042855">
              <g id="Grupo_1042854" data-name="Grupo 1042854">
                <path id="Trazado_771477" data-name="Trazado 771477" d="M168.493,61.413a6.4,6.4,0,0,0-2.62.564,6.5,6.5,0,0,0-5.108-2.522h-2.9a11.036,11.036,0,0,0-11.024,11.024v4.572a.819.819,0,0,0,1.331.64,3.271,3.271,0,0,1,2.064-.726,3.355,3.355,0,0,1,.509.041.819.819,0,0,0,.944-.809v-.116c2.02.357,7.294.762,10.993-3.645a11.162,11.162,0,0,0,7.141,2.573V74.2a.819.819,0,0,0,.944.809,3.355,3.355,0,0,1,.509-.041,3.291,3.291,0,0,1,2.294.929.819.819,0,0,0,1.388-.59V67.88a6.473,6.473,0,0,0-6.466-6.466Zm4.828,12.355a4.913,4.913,0,0,0-1.859-.438l0-.627a1.346,1.346,0,0,0-1.305-1.322c-3.886-.114-5.877-1.667-6.553-2.33a1.351,1.351,0,0,0-2.006.125c-3.267,4.108-8.026,3.63-9.919,3.233a1.351,1.351,0,0,0-1.129.274,1.332,1.332,0,0,0-.436.645,4.945,4.945,0,0,0-1.631.323V70.478a9.4,9.4,0,0,1,9.385-9.385h2.9a4.861,4.861,0,0,1,4.14,2.366.82.82,0,0,0,1.124.282,4.811,4.811,0,0,1,7.292,4.139Z" transform="translate(-146.842 -59.455)"/>
              </g>
            </g>
          </g>
        </g>
        <g id="Grupo_1042859" data-name="Grupo 1042859" transform="translate(75.046 65.85)">
          <g id="Grupo_1042858" data-name="Grupo 1042858">
            <path id="Trazado_771478" data-name="Trazado 771478" d="M229.858,200.974a.819.819,0,0,0-.819.819v16.136a.819.819,0,0,0,1.638,0V201.793A.819.819,0,0,0,229.858,200.974Z" transform="translate(-229.039 -200.974)"/>
          </g>
        </g>
        <g id="Grupo_1042861" data-name="Grupo 1042861" transform="translate(47.66 65.85)">
          <g id="Grupo_1042860" data-name="Grupo 1042860">
            <path id="Trazado_771479" data-name="Trazado 771479" d="M146.278,200.974a.819.819,0,0,0-.819.819V207.4a.819.819,0,0,0,1.638,0v-5.606A.819.819,0,0,0,146.278,200.974Z" transform="translate(-145.459 -200.974)"/>
          </g>
        </g>
        <g id="Grupo_1042864" data-name="Grupo 1042864" transform="translate(71.07 33.352)">
          <g id="Grupo_1042863" data-name="Grupo 1042863">
            <g id="Grupo_1042862" data-name="Grupo 1042862">
              <path id="Trazado_771480" data-name="Trazado 771480" d="M218.385,101.79a5,5,0,0,0-.76.06.819.819,0,0,0-.694.81v7.484c0,.18-.007.373-.023.608a.819.819,0,0,0,.687.864,4.945,4.945,0,1,0,.789-9.826Zm.185,8.25v-6.607a3.308,3.308,0,0,1,0,6.607Z" transform="translate(-216.906 -101.79)"/>
            </g>
          </g>
        </g>
        <g id="Grupo_1042867" data-name="Grupo 1042867" transform="translate(46.561 33.352)">
          <g id="Grupo_1042866" data-name="Grupo 1042866">
            <g id="Grupo_1042865" data-name="Grupo 1042865">
              <path id="Trazado_771481" data-name="Trazado 771481" d="M148.505,110.143v-7.484a.819.819,0,0,0-.694-.81,4.946,4.946,0,1,0-.76,9.834,4.935,4.935,0,0,0,.789-.068.82.82,0,0,0,.687-.864C148.513,110.516,148.505,110.323,148.505,110.143Zm-1.638-.1a3.308,3.308,0,0,1,0-6.607Z" transform="translate(-142.105 -101.789)"/>
            </g>
          </g>
        </g>
        <g id="Grupo_1042872" data-name="Grupo 1042872" transform="translate(52.557 49.913)">
          <g id="Grupo_1042869" data-name="Grupo 1042869" transform="translate(0 0.045)">
            <g id="Grupo_1042868" data-name="Grupo 1042868">
              <path id="Trazado_771482" data-name="Trazado 771482" d="M165.464,152.469a.819.819,0,0,0-.819.819v1.3a2.58,2.58,0,0,1-1.448,2.328l-2.337,1.152a.819.819,0,1,0,.724,1.47l2.337-1.152a4.209,4.209,0,0,0,2.362-3.8v-1.3A.82.82,0,0,0,165.464,152.469Z" transform="translate(-160.404 -152.469)"/>
            </g>
          </g>
          <g id="Grupo_1042871" data-name="Grupo 1042871" transform="translate(4.985)">
            <g id="Grupo_1042870" data-name="Grupo 1042870">
              <path id="Trazado_771483" data-name="Trazado 771483" d="M201.952,184.291l-1.093-19.938a4.7,4.7,0,0,0-3.561-4.316l-7.593-1.911-2.635-1.3a2.58,2.58,0,0,1-1.448-2.328v-1.347a.819.819,0,1,0-1.638,0V154.5a4.209,4.209,0,0,0,2.362,3.8l2.714,1.338a.818.818,0,0,0,.162.06l7.678,1.932a3.069,3.069,0,0,1,2.325,2.817l1.093,19.938a.266.266,0,0,1-.265.28H176.436a.819.819,0,1,0,0,1.638h23.615a1.9,1.9,0,0,0,1.9-2.009Z" transform="translate(-175.617 -152.333)"/>
            </g>
          </g>
        </g>
        <g id="Grupo_1042874" data-name="Grupo 1042874" transform="translate(54.578 54.739)">
          <g id="Grupo_1042873" data-name="Grupo 1042873">
            <path id="Trazado_771484" data-name="Trazado 771484" d="M181.316,167.218a.819.819,0,0,0-1.116.311,6.907,6.907,0,0,1-12.093-.043.819.819,0,1,0-1.433.794,8.545,8.545,0,0,0,14.953.053A.818.818,0,0,0,181.316,167.218Z" transform="translate(-166.571 -167.063)"/>
          </g>
        </g>
        <g id="Grupo_1042876" data-name="Grupo 1042876" transform="translate(58.692 43.775)">
          <g id="Grupo_1042875" data-name="Grupo 1042875">
            <path id="Trazado_771485" data-name="Trazado 771485" d="M185.93,133.791a.819.819,0,0,0-1.154.1,2.956,2.956,0,0,1-4.2,0,.819.819,0,0,0-1.256,1.052,4.583,4.583,0,0,0,6.712,0A.819.819,0,0,0,185.93,133.791Z" transform="translate(-179.128 -133.6)"/>
          </g>
        </g>
        <g id="Grupo_1042878" data-name="Grupo 1042878" transform="translate(65.01 37.372)">
          <g id="Grupo_1042877" data-name="Grupo 1042877">
            <path id="Trazado_771486" data-name="Trazado 771486" d="M199.712,114.06a1.3,1.3,0,1,0,1.3,1.3A1.3,1.3,0,0,0,199.712,114.06Z" transform="translate(-198.411 -114.06)"/>
          </g>
        </g>
        <g id="Grupo_1042880" data-name="Grupo 1042880" transform="translate(56.897 37.372)">
          <g id="Grupo_1042879" data-name="Grupo 1042879">
            <path id="Trazado_771487" data-name="Trazado 771487" d="M174.95,114.06a1.3,1.3,0,1,0,1.3,1.3A1.3,1.3,0,0,0,174.95,114.06Z" transform="translate(-173.649 -114.06)"/>
          </g>
        </g>
        <g id="Grupo_1042882" data-name="Grupo 1042882" transform="translate(23.726 38.028)">
          <g id="Grupo_1042881" data-name="Grupo 1042881">
            <path id="Trazado_771488" data-name="Trazado 771488" d="M73.712,116.06a1.3,1.3,0,1,0,1.3,1.3A1.3,1.3,0,0,0,73.712,116.06Z" transform="translate(-72.411 -116.06)"/>
          </g>
        </g>
        <g id="Grupo_1042884" data-name="Grupo 1042884" transform="translate(15.612 38.028)">
          <g id="Grupo_1042883" data-name="Grupo 1042883">
            <path id="Trazado_771489" data-name="Trazado 771489" d="M48.95,116.06a1.3,1.3,0,1,0,1.3,1.3A1.3,1.3,0,0,0,48.95,116.06Z" transform="translate(-47.649 -116.06)"/>
          </g>
        </g>
        <g id="Grupo_1042886" data-name="Grupo 1042886" transform="translate(33.778 50.298)">
          <g id="Grupo_1042885" data-name="Grupo 1042885">
            <path id="Trazado_771490" data-name="Trazado 771490" d="M118.3,157.068h-.009a7.641,7.641,0,0,1-6.16-3.112,1.083,1.083,0,0,0-1.751,0,7.643,7.643,0,0,1-6.16,3.112q-.12,0-.239,0a.861.861,0,0,0-.887.863v6.138a8.045,8.045,0,0,0,16.09,0v-6.132A.872.872,0,0,0,118.3,157.068Z" transform="translate(-103.09 -153.51)" fill="#f9c1a8"/>
          </g>
        </g>
        <g id="Grupo_1042888" data-name="Grupo 1042888" transform="translate(31.166 41.759)">
          <g id="Grupo_1042887" data-name="Grupo 1042887">
            <path id="Trazado_771491" data-name="Trazado 771491" d="M105.891,127.447a10.774,10.774,0,0,0-10.774,10.774v2.925a3.336,3.336,0,0,1,2.612-.7V140.4a.861.861,0,0,1,.887-.863q.119,0,.239,0a7.641,7.641,0,0,0,6.16-3.112,1.083,1.083,0,0,1,1.751,0,7.643,7.643,0,0,0,6.16,3.112h.009a.871.871,0,0,1,.883.865v.041a3.339,3.339,0,0,1,2.846.9v-3.131a10.773,10.773,0,0,0-10.774-10.774Z" transform="translate(-95.117 -127.447)" fill="#414344"/>
          </g>
        </g>
        <g id="Grupo_1042890" data-name="Grupo 1042890" transform="translate(49.847 54.721)">
          <g id="Grupo_1042889" data-name="Grupo 1042889">
            <path id="Trazado_771492" data-name="Trazado 771492" d="M152.671,167.009a3.355,3.355,0,0,0-.516.041v6.09c0,.182-.008.361-.02.54a3.357,3.357,0,1,0,.537-6.671Z" transform="translate(-152.134 -167.009)" fill="#f9c1a8"/>
          </g>
        </g>
        <g id="Grupo_1042892" data-name="Grupo 1042892" transform="translate(29.902 54.721)">
          <g id="Grupo_1042891" data-name="Grupo 1042891">
            <path id="Trazado_771493" data-name="Trazado 771493" d="M95.137,173.14v-6.09a3.36,3.36,0,1,0,.02,6.63c-.011-.178-.02-.358-.02-.539Z" transform="translate(-91.262 -167.009)" fill="#f9c1a8"/>
          </g>
        </g>
        <g id="Grupo_1042894" data-name="Grupo 1042894" transform="translate(25.519 67.925)">
          <g id="Grupo_1042893" data-name="Grupo 1042893">
            <path id="Trazado_771494" data-name="Trazado 771494" d="M110.413,216.732a3.175,3.175,0,0,0-2.395-2.9l-6.248-1.573-2.208-1.089a2.779,2.779,0,0,1-1.55-2.493v-1.37a7.989,7.989,0,0,1-7.413.12v1.249a2.779,2.779,0,0,1-1.55,2.493l-2.208,1.089-6.248,1.573a3.175,3.175,0,0,0-2.395,2.9l-.313,5.709h32.841Z" transform="translate(-77.884 -207.306)" fill="#e1f6ef"/>
          </g>
        </g>
        <g id="Grupo_1042896" data-name="Grupo 1042896" transform="translate(36.336 67.925)">
          <g id="Grupo_1042895" data-name="Grupo 1042895">
            <path id="Trazado_771495" data-name="Trazado 771495" d="M121.758,211.168a2.779,2.779,0,0,1-1.55-2.493v-1.37a7.989,7.989,0,0,1-7.413.12v1.249a2.779,2.779,0,0,1-1.55,2.493l-.347.171a6.29,6.29,0,0,0,11.207,0Z" transform="translate(-110.898 -207.306)" fill="#f9c1a8"/>
          </g>
        </g>
        <g id="Grupo_1042898" data-name="Grupo 1042898" transform="translate(52.264 78.141)">
          <g id="Grupo_1042897" data-name="Grupo 1042897">
            <path id="Trazado_771496" data-name="Trazado 771496" d="M160.327,238.487a.819.819,0,0,0-.819.819v4.013a.819.819,0,0,0,1.638,0v-4.013A.819.819,0,0,0,160.327,238.487Z" transform="translate(-159.508 -238.487)"/>
          </g>
        </g>
        <g id="Grupo_1042900" data-name="Grupo 1042900" transform="translate(29.978 78.141)">
          <g id="Grupo_1042899" data-name="Grupo 1042899">
            <path id="Trazado_771497" data-name="Trazado 771497" d="M92.311,238.487a.819.819,0,0,0-.819.819v4.013a.819.819,0,0,0,1.638,0v-4.013A.819.819,0,0,0,92.311,238.487Z" transform="translate(-91.492 -238.487)"/>
          </g>
        </g>
        <g id="Grupo_1042902" data-name="Grupo 1042902" transform="translate(49.182 53.902)">
          <g id="Grupo_1042901" data-name="Grupo 1042901">
            <path id="Trazado_771498" data-name="Trazado 771498" d="M151.3,164.509a4.071,4.071,0,0,0-.472.028.819.819,0,1,0,.189,1.627,2.454,2.454,0,0,1,.283-.017,2.54,2.54,0,0,1,0,5.08,2.277,2.277,0,0,1-.281-.019.819.819,0,1,0-.2,1.626,3.89,3.89,0,0,0,.485.031,4.178,4.178,0,0,0,0-8.356Z" transform="translate(-150.102 -164.509)"/>
          </g>
        </g>
        <g id="Grupo_1042904" data-name="Grupo 1042904" transform="translate(29.084 53.902)">
          <g id="Grupo_1042903" data-name="Grupo 1042903">
            <path id="Trazado_771499" data-name="Trazado 771499" d="M94.063,171.947a.817.817,0,0,0-.9-.732c-.074.007-.149.012-.225.012a2.54,2.54,0,0,1,0-5.08c.068,0,.135,0,.2.009a.819.819,0,0,0,.14-1.632c-.112-.009-.226-.015-.341-.015a4.178,4.178,0,0,0,0,8.356,3.75,3.75,0,0,0,.39-.021A.819.819,0,0,0,94.063,171.947Z" transform="translate(-88.763 -164.509)"/>
          </g>
        </g>
        <g id="Grupo_1042906" data-name="Grupo 1042906" transform="translate(24.699 67.374)">
          <g id="Grupo_1042905" data-name="Grupo 1042905">
            <path id="Trazado_771500" data-name="Trazado 771500" d="M109.548,215.557a3.977,3.977,0,0,0-3.013-3.651l-6.164-1.551-2.13-1.05a1.948,1.948,0,0,1-1.093-1.758v-1.1a.819.819,0,0,0-1.638,0v1.1a3.576,3.576,0,0,0,2.007,3.227l2.208,1.089a.838.838,0,0,0,.162.06l6.248,1.573a2.344,2.344,0,0,1,1.777,2.152l.266,4.845H77.067l.266-4.845a2.345,2.345,0,0,1,1.777-2.153l6.248-1.573a.817.817,0,0,0,.162-.06l2.208-1.089a3.575,3.575,0,0,0,2.007-3.227v-.965a.819.819,0,1,0-1.638,0v.965A1.947,1.947,0,0,1,87,209.3l-2.13,1.05-6.164,1.551a3.977,3.977,0,0,0-3.013,3.652l-.313,5.71a.82.82,0,0,0,.818.864h32.841a.819.819,0,0,0,.818-.864Z" transform="translate(-75.382 -205.626)"/>
          </g>
        </g>
        <g id="Grupo_1042908" data-name="Grupo 1042908" transform="translate(35.653 71.323)">
          <g id="Grupo_1042907" data-name="Grupo 1042907">
            <path id="Trazado_771501" data-name="Trazado 771501" d="M121,217.781a.819.819,0,0,0-1.114.317,5.468,5.468,0,0,1-9.546.057.819.819,0,0,0-1.421.815,7.106,7.106,0,0,0,12.4-.074.82.82,0,0,0-.316-1.115Z" transform="translate(-108.814 -217.677)"/>
          </g>
        </g>
        <g id="Grupo_1042910" data-name="Grupo 1042910" transform="translate(38.955 62.384)">
          <g id="Grupo_1042909" data-name="Grupo 1042909">
            <path id="Trazado_771502" data-name="Trazado 771502" d="M124.678,190.586a.819.819,0,0,0-1.154.1,2.254,2.254,0,0,1-3.185,0,.819.819,0,1,0-1.256,1.052,3.881,3.881,0,0,0,5.7,0A.819.819,0,0,0,124.678,190.586Z" transform="translate(-118.892 -190.395)"/>
          </g>
        </g>
        <g id="Grupo_1042912" data-name="Grupo 1042912" transform="translate(44.249 57.326)">
          <g id="Grupo_1042911" data-name="Grupo 1042911">
            <path id="Trazado_771503" data-name="Trazado 771503" d="M136.108,174.96a1.058,1.058,0,1,0,1.059,1.059A1.059,1.059,0,0,0,136.108,174.96Z" transform="translate(-135.049 -174.96)"/>
          </g>
        </g>
        <g id="Grupo_1042914" data-name="Grupo 1042914" transform="translate(37.647 57.326)">
          <g id="Grupo_1042913" data-name="Grupo 1042913">
            <path id="Trazado_771504" data-name="Trazado 771504" d="M115.957,174.96a1.058,1.058,0,1,0,1.059,1.059A1.059,1.059,0,0,0,115.957,174.96Z" transform="translate(-114.898 -174.96)"/>
          </g>
        </g>
        <g id="Grupo_1042916" data-name="Grupo 1042916" transform="translate(32.958 49.48)">
          <g id="Grupo_1042915" data-name="Grupo 1042915">
            <path id="Trazado_771505" data-name="Trazado 771505" d="M117.826,155.067a1.668,1.668,0,0,0-1.212-.5,6.957,6.957,0,0,1-5.51-2.779,1.9,1.9,0,0,0-3.069,0,6.867,6.867,0,0,1-5.5,2.779q-.107,0-.212,0a1.681,1.681,0,0,0-1.733,1.682v6.138a8.864,8.864,0,1,0,17.729,0v-6.132a1.664,1.664,0,0,0-.492-1.185Zm-1.146,7.318a7.226,7.226,0,0,1-14.452,0v-6.138c0-.006,0-.02.042-.044q.132,0,.265,0a8.513,8.513,0,0,0,6.819-3.444.265.265,0,0,1,.434,0,8.513,8.513,0,0,0,6.819,3.444h.01c.027,0,.043.01.063.046Z" transform="translate(-100.589 -151.012)"/>
          </g>
        </g>
        <g id="Grupo_1042918" data-name="Grupo 1042918" transform="translate(30.346 40.939)">
          <g id="Grupo_1042917" data-name="Grupo 1042917">
            <path id="Trazado_771506" data-name="Trazado 771506" d="M104.21,124.947A11.606,11.606,0,0,0,92.617,136.54V139.3a.819.819,0,0,0,1.638,0V136.54a9.955,9.955,0,0,1,19.91,0v2.8a.819.819,0,1,0,1.638,0v-2.8A11.606,11.606,0,0,0,104.21,124.947Z" transform="translate(-92.617 -124.947)"/>
          </g>
        </g>
        <g id="Grupo_1042920" data-name="Grupo 1042920" transform="translate(32.523 8.239)">
          <g id="Grupo_1042919" data-name="Grupo 1042919">
            <path id="Trazado_771507" data-name="Trazado 771507" d="M116.416,26.523a5.34,5.34,0,0,0-7.386.222.5.5,0,0,1-.706,0,5.34,5.34,0,0,0-7.386-.222,5.257,5.257,0,0,0-.138,7.568l6.791,6.791a1.536,1.536,0,0,0,2.172,0l6.791-6.791a5.257,5.257,0,0,0-.138-7.568Z" transform="translate(-99.261 -25.146)" fill="#3bc192"/>
          </g>
        </g>
        <g id="Grupo_1042923" data-name="Grupo 1042923" transform="translate(31.704 7.434)">
          <g id="Grupo_1042922" data-name="Grupo 1042922">
            <g id="Grupo_1042921" data-name="Grupo 1042921">
              <path id="Trazado_771508" data-name="Trazado 771508" d="M115.293,24.27a6.188,6.188,0,0,0-8.3.028,6.188,6.188,0,0,0-8.3-.028,6.076,6.076,0,0,0-.159,8.746l6.791,6.791a2.356,2.356,0,0,0,3.331,0l6.791-6.791a6.077,6.077,0,0,0-.158-8.746Zm-1,7.588L107.5,38.65a.735.735,0,0,1-1.014,0L99.7,31.859a4.439,4.439,0,0,1,.117-6.39,4.346,4.346,0,0,1,2.977-1.149,4.627,4.627,0,0,1,3.271,1.351,1.321,1.321,0,0,0,1.864,0,4.542,4.542,0,0,1,6.248-.2,4.439,4.439,0,0,1,.118,6.39Z" transform="translate(-96.759 -22.687)"/>
            </g>
          </g>
        </g>
        <g id="Grupo_1042925" data-name="Grupo 1042925" transform="translate(26.24 2.294)">
          <g id="Grupo_1042924" data-name="Grupo 1042924">
            <path id="Trazado_771509" data-name="Trazado 771509" d="M86.1,9.91a3.636,3.636,0,0,1-2.915-2.856.066.066,0,0,0-.129,0A3.636,3.636,0,0,1,80.139,9.91a.064.064,0,0,0,0,.127,3.637,3.637,0,0,1,2.915,2.856.066.066,0,0,0,.129,0A3.637,3.637,0,0,1,86.1,10.037a.064.064,0,0,0,0-.127Z" transform="translate(-80.083 -7)" fill="#f5c84c"/>
          </g>
        </g>
        <g id="Grupo_1042927" data-name="Grupo 1042927" transform="translate(55.729 12.529)">
          <g id="Grupo_1042926" data-name="Grupo 1042926">
            <path id="Trazado_771510" data-name="Trazado 771510" d="M173.953,40.111a2.339,2.339,0,0,1-1.875-1.837.042.042,0,0,0-.083,0,2.338,2.338,0,0,1-1.875,1.837.041.041,0,0,0,0,.082,2.339,2.339,0,0,1,1.875,1.837.042.042,0,0,0,.083,0,2.338,2.338,0,0,1,1.875-1.837A.041.041,0,0,0,173.953,40.111Z" transform="translate(-170.084 -38.24)" fill="#70d6f9"/>
          </g>
        </g>
        <g id="Grupo_1042929" data-name="Grupo 1042929" transform="translate(0.991 21.892)">
          <g id="Grupo_1042928" data-name="Grupo 1042928">
            <path id="Trazado_771511" data-name="Trazado 771511" d="M7.655,68.613H6.892v-.763a1.034,1.034,0,1,0-2.069,0v.763H4.059a1.034,1.034,0,0,0,0,2.069h.763v.763a1.034,1.034,0,0,0,2.069,0v-.763h.763a1.034,1.034,0,0,0,0-2.069Z" transform="translate(-3.025 -66.815)" fill="#636363"/>
          </g>
        </g>
        <g id="Grupo_1042931" data-name="Grupo 1042931" transform="translate(35.087 0)">
          <g id="Grupo_1042930" data-name="Grupo 1042930">
            <circle id="Elipse_4790" data-name="Elipse 4790" cx="1.106" cy="1.106" r="1.106" fill="#87d147"/>
          </g>
        </g>
        <g id="Grupo_1042933" data-name="Grupo 1042933" transform="translate(0 32.438)">
          <g id="Grupo_1042932" data-name="Grupo 1042932">
            <path id="Trazado_771512" data-name="Trazado 771512" d="M1.106,99a1.106,1.106,0,1,0,1.106,1.106A1.107,1.107,0,0,0,1.106,99Z" transform="translate(0 -99)" fill="#f5c84c"/>
          </g>
        </g>
      </g>
    </g>
  </g>
</svg>
