<svg xmlns="http://www.w3.org/2000/svg" width="190" height="165" viewBox="0 0 190 165">
  <g id="Grupo_1043877" data-name="Grupo 1043877" transform="translate(-884 -8555)">
    <g id="Grupo_1042970" data-name="Grupo 1042970" transform="translate(884 8555)">
      <rect id="Rectángulo_33830" data-name="Rectángulo 33830" width="190" height="165" rx="12" transform="translate(0 0)" fill="#e7e0ff"/>
    </g>
    <g id="folleto" transform="translate(947.332 8603.303)">
      <g id="line" transform="translate(0.684 0.684)">
        <path id="Trazado_771618" data-name="Trazado 771618" d="M44.217,91.967,24.069,86.629a.684.684,0,0,1-.509-.661V32.827a.684.684,0,0,1,.859-.661l19.8,5.246Z" transform="translate(-23.56 -31.938)" fill="#e9e9ff"/>
        <path id="Trazado_771619" data-name="Trazado 771619" d="M345.269,90.447l-19.8-5.246V30.646l20.148,5.338a.684.684,0,0,1,.509.661v53.14a.684.684,0,0,1-.859.661Z" transform="translate(-284.16 -30.646)" fill="#e9e9ff"/>
        <path id="Trazado_771620" data-name="Trazado 771620" d="M174.5,90.675,195.161,85.2V30.646L174.5,36.119Z" transform="translate(-153.85 -30.646)" fill="#aaaaf9"/>
        <path id="Trazado_771621" data-name="Trazado 771621" d="M210.5,97.675V94.206a.547.547,0,0,0-.688-.529l-3.313.878a.547.547,0,0,0-.407.529v3.529l-4,1.06a.547.547,0,0,0-.407.529v2.936a.547.547,0,0,0,.688.529l3.72-.985v3.679a.547.547,0,0,0,.688.529l3.313-.878a.547.547,0,0,0,.407-.529v-3.74l4-1.059a.547.547,0,0,0,.407-.529V97.218a.547.547,0,0,0-.688-.529Z" transform="translate(-177.308 -85.036)" fill="#3bc192"/>
        <path id="Trazado_771622" data-name="Trazado 771622" d="M0,0H5.935V3.784A2.967,2.967,0,1,1,0,3.784V0Z" transform="translate(49.541 44.453) rotate(45)" fill="#fabf40"/>
        <path id="Trazado_771623" data-name="Trazado 771623" d="M2.967,0A2.967,2.967,0,0,1,5.934,2.967V6.751H0V2.967A2.967,2.967,0,0,1,2.967,0Z" transform="translate(54.314 39.68) rotate(45)" fill="#edf3f9"/>
        <path id="Trazado_771624" data-name="Trazado 771624" d="M63.209,341.62a5.731,5.731,0,1,1-1.417-7.137,5.731,5.731,0,0,1,1.417,7.137Z" transform="translate(-48.477 -291.787)" fill="#edf3f9"/>
        <path id="Trazado_771625" data-name="Trazado 771625" d="M74.941,336.019l-5.3,9.923a5.773,5.773,0,0,1-1.976-1.056l5.3-9.922a5.774,5.774,0,0,1,1.976,1.056Z" transform="translate(-61.626 -293.323)" fill="#cad3ea"/>
      </g>
      <g id="line_color" data-name="line color">
        <path id="Trazado_771626" data-name="Trazado 771626" d="M80.878,31.011,60.73,25.672a.745.745,0,0,0-.176-.022c-.308.007-20.382,5.4-20.654,5.449L20.279,25.9a1.368,1.368,0,0,0-1.719,1.323v53.14a1.37,1.37,0,0,0,1.018,1.323l20.148,5.338a.7.7,0,0,0,.347,0L60.555,81.6l19.622,5.2A1.377,1.377,0,0,0,81.9,85.474V32.333a1.37,1.37,0,0,0-1.018-1.323ZM59.87,80.363l-19.285,5.11V32.332l19.285-5.11ZM19.928,27.223l19.285,5.11v53.14l-19.285-5.11Zm60.6,58.251L61.239,80.363V27.223l19.289,5.111,0,53.14h0Z" transform="translate(-18.56 -25.65)" fill="#1b2230"/>
        <path id="Trazado_771627" data-name="Trazado 771627" d="M197.16,99.81a1.223,1.223,0,0,0,1.066.215l2.861-.758v2.791a1.239,1.239,0,0,0,1.547,1.19l3.313-.878a1.232,1.232,0,0,0,.916-1.19V97.966l3.492-.925a1.233,1.233,0,0,0,.916-1.19V92.915a1.238,1.238,0,0,0-1.547-1.19l-2.861.758V89.9a1.238,1.238,0,0,0-1.547-1.19L202,89.59a1.232,1.232,0,0,0-.916,1.19v3l-3.492.925a1.233,1.233,0,0,0-.916,1.19v2.936A1.223,1.223,0,0,0,197.16,99.81ZM198.048,96l3.9-1.033a.684.684,0,0,0,.509-.661V90.886l3.039-.805v3.291a.689.689,0,0,0,.859.661l3.548-.94v2.653L206,96.779a.684.684,0,0,0-.509.661v3.634l-3.039.805v-3.5a.684.684,0,0,0-.859-.661l-3.548.94Z" transform="translate(-172.308 -80.05)" fill="#1b2230"/>
        <path id="Trazado_771628" data-name="Trazado 771628" d="M361.16,325.768c-1.333,1.335-4.018,4.017-5.351,5.351a3.651,3.651,0,0,0,5.164,5.164c1.332-1.335,4.019-4.017,5.351-5.351a3.651,3.651,0,0,0-5.164-5.164Zm-1.155,9.547a2.283,2.283,0,0,1-3.229-3.229l2.192-2.192,3.229,3.229Zm5.351-5.351-2.192,2.192-3.229-3.229,2.192-2.192A2.283,2.283,0,0,1,365.356,329.965Z" transform="translate(-308.743 -283.78)" fill="#1b2230"/>
        <path id="Trazado_771629" data-name="Trazado 771629" d="M57.84,329.628a6.467,6.467,0,0,0-2.212-1.183h0a6.42,6.42,0,1,0,2.213,1.183Zm-6.063,9.6a4.895,4.895,0,0,1-.769-.41l4.744-8.875a4.941,4.941,0,0,1,.769.41Zm-2.468-7.024a5.057,5.057,0,0,1,5.088-2.629L49.95,337.9A5.063,5.063,0,0,1,49.31,332.208Zm8.909,4.763a5.063,5.063,0,0,1-5.087,2.631l4.45-8.323A5.064,5.064,0,0,1,58.22,336.971Z" transform="translate(-43.407 -286.776)" fill="#1b2230"/>
        <path id="Trazado_771630" data-name="Trazado 771630" d="M214.767,236.4l-11.578,3.068a.684.684,0,1,0,.35,1.323l11.579-3.068A.684.684,0,0,0,214.767,236.4Z" transform="translate(-177.486 -207.546)" fill="#1b2230"/>
        <path id="Trazado_771631" data-name="Trazado 771631" d="M214.767,275.853l-11.578,3.068a.684.684,0,0,0,.35,1.323l11.579-3.068A.684.684,0,0,0,214.767,275.853Z" transform="translate(-177.486 -241.599)" fill="#1b2230"/>
        <path id="Trazado_771632" data-name="Trazado 771632" d="M214.767,315.3l-11.578,3.068a.684.684,0,1,0,.35,1.323l11.579-3.068A.684.684,0,0,0,214.767,315.3Z" transform="translate(-177.486 -275.65)" fill="#1b2230"/>
        <path id="Trazado_771633" data-name="Trazado 771633" d="M214.767,354.754l-11.578,3.068a.684.684,0,1,0,.35,1.323l11.578-3.068a.684.684,0,0,0-.351-1.323Z" transform="translate(-177.486 -309.704)" fill="#1b2230"/>
        <path id="Trazado_771634" data-name="Trazado 771634" d="M366.107,149.346l-11.579-3.068a.684.684,0,0,0-.351,1.323l11.579,3.068a.684.684,0,1,0,.35-1.323Z" transform="translate(-307.819 -129.753)" fill="#1b2230"/>
        <path id="Trazado_771635" data-name="Trazado 771635" d="M366.107,188.8l-11.579-3.068a.684.684,0,0,0-.351,1.323l11.579,3.068a.684.684,0,1,0,.35-1.323Z" transform="translate(-307.819 -163.805)" fill="#1b2230"/>
        <path id="Trazado_771636" data-name="Trazado 771636" d="M366.106,228.246l-11.579-3.068a.684.684,0,0,0-.351,1.323l11.579,3.068a.684.684,0,1,0,.35-1.323Z" transform="translate(-307.819 -197.857)" fill="#1b2230"/>
        <path id="Trazado_771637" data-name="Trazado 771637" d="M366.107,267.7l-11.579-3.068a.684.684,0,0,0-.351,1.323l11.579,3.068a.684.684,0,1,0,.35-1.323Z" transform="translate(-307.819 -231.91)" fill="#1b2230"/>
        <path id="Trazado_771638" data-name="Trazado 771638" d="M47.484,140.145l11.579,3.068a.684.684,0,1,0,.351-1.323l-11.579-3.068A.684.684,0,0,0,47.484,140.145Z" transform="translate(-43.09 -123.318)" fill="#1b2230"/>
        <path id="Trazado_771639" data-name="Trazado 771639" d="M59.413,181.341l-11.579-3.068a.684.684,0,0,0-.35,1.323l11.579,3.068a.684.684,0,1,0,.351-1.322Z" transform="translate(-43.09 -157.37)" fill="#1b2230"/>
        <path id="Trazado_771640" data-name="Trazado 771640" d="M59.413,220.791l-11.579-3.068a.684.684,0,0,0-.35,1.323l11.579,3.068a.684.684,0,1,0,.351-1.323Z" transform="translate(-43.09 -191.422)" fill="#1b2230"/>
        <path id="Trazado_771641" data-name="Trazado 771641" d="M59.413,260.241l-11.579-3.068a.684.684,0,0,0-.35,1.323l11.579,3.068a.684.684,0,1,0,.351-1.322Z" transform="translate(-43.09 -225.474)" fill="#1b2230"/>
      </g>
    </g>
  </g>
</svg>
