<svg xmlns="http://www.w3.org/2000/svg" width="85" height="83" viewBox="0 0 85 83">
  <g id="Grupo_1043979" data-name="Grupo 1043979" transform="translate(-180 -10435)">
    <rect id="Rectángulo_355678" data-name="Rectángulo 355678" width="85" height="83" rx="12" transform="translate(180 10435)" fill="#f8d176"/>
    <g id="Grupo_1042973" data-name="Grupo 1042973" transform="translate(-301.936 38.322)">
      <circle id="Elipse_4801" data-name="Elipse 4801" cx="26" cy="26" r="26" transform="translate(498 10414)" fill="#eee93e"/>
      <path id="Trazado_771652" data-name="Trazado 771652" d="M25.539,24A25.69,25.69,0,0,0,8.98,30.023,25.806,25.806,0,0,0,45.322,66.365,25.806,25.806,0,0,0,25.539,24Z" transform="translate(498.494 10390.193)" fill="#fdf47c"/>
      <path id="Trazado_771657" data-name="Trazado 771657" d="M6,33H31.806v6.452H6Z" transform="translate(505.129 10410.226)" fill="#43525b"/>
      <path id="Trazado_771660" data-name="Trazado 771660" d="M6,28h6.452v6.452H6Z" transform="translate(505.129 10399.097)" fill="#43525b"/>
      <path id="Trazado_771661" data-name="Trazado 771661" d="M12,28h6.452v6.452H12Z" transform="translate(518.484 10399.097)" fill="#43525b"/>
      <path id="Trazado_771668" data-name="Trazado 771668" d="M30.032,81.065A29.032,29.032,0,1,0,1,52.032,29.032,29.032,0,0,0,30.032,81.065Zm0-51.613A22.581,22.581,0,1,1,7.452,52.032,22.581,22.581,0,0,1,30.032,29.452Z" transform="translate(494 10387.968)"/>
      <path id="Trazado_771671" data-name="Trazado 771671" d="M6,33H31.806v6.452H6Z" transform="translate(505.129 10410.226)"/>
      <path id="Trazado_771674" data-name="Trazado 771674" d="M6,28h6.452v6.452H6Z" transform="translate(505.129 10399.097)"/>
      <path id="Trazado_771675" data-name="Trazado 771675" d="M12,28h6.452v6.452H12Z" transform="translate(518.484 10399.097)"/>
    </g>
  </g>
</svg>
