<svg xmlns="http://www.w3.org/2000/svg" width="86" height="82" viewBox="0 0 86 82">
  <g id="Grupo_1043981" data-name="Grupo 1043981" transform="translate(-179 -10588)">
    <g id="Grupo_1043980" data-name="Grupo 1043980">
      <rect id="Rectángulo_355679" data-name="Rectángulo 355679" width="86" height="82" rx="12" transform="translate(179 10588)" fill="#82e3c3"/>
    </g>
    <g id="Grupo_1042974" data-name="Grupo 1042974" transform="translate(-72.032 336.968)">
      <circle id="Elipse_4803" data-name="Elipse 4803" cx="26" cy="26" r="26" transform="translate(268 10266)" fill="#4fa04b"/>
      <path id="Trazado_771654" data-name="Trazado 771654" d="M25.539,2A25.69,25.69,0,0,0,8.98,8.023,25.806,25.806,0,0,0,45.322,44.365,25.806,25.806,0,0,0,25.539,2Z" transform="translate(268.494 10264.226)" fill="#7fbc71"/>
      <path id="Trazado_771655" data-name="Trazado 771655" d="M21.062,26.67A15.59,15.59,0,0,1,5.9,14.838L5.03,11.325l6.258-1.568.877,3.516a9.171,9.171,0,0,0,17.794,0l.877-3.516,6.258,1.568-.871,3.513A15.59,15.59,0,0,1,21.062,26.67Z" transform="translate(272.97 10281.491)" fill="#f1f1f1"/>
      <path id="Trazado_771658" data-name="Trazado 771658" d="M6,6h6.452v6.452H6Z" transform="translate(275.129 10273.129)" fill="#f1f1f1"/>
      <path id="Trazado_771659" data-name="Trazado 771659" d="M12,6h6.452v6.452H12Z" transform="translate(288.484 10273.129)" fill="#f1f1f1"/>
      <path id="Trazado_771666" data-name="Trazado 771666" d="M21.062,26.67A15.59,15.59,0,0,0,36.224,14.838l.881-3.513L30.846,9.757l-.877,3.516a9.171,9.171,0,0,1-17.794,0l-.887-3.516L5.03,11.325,5.9,14.838A15.59,15.59,0,0,0,21.062,26.67Z" transform="translate(272.97 10281.491)"/>
      <path id="Trazado_771667" data-name="Trazado 771667" d="M30.032,59.065A29.032,29.032,0,1,0,1,30.032,29.032,29.032,0,0,0,30.032,59.065Zm0-51.613A22.581,22.581,0,1,1,7.452,30.032,22.581,22.581,0,0,1,30.032,7.452Z" transform="translate(264 10262)"/>
      <path id="Trazado_771672" data-name="Trazado 771672" d="M6,6h6.452v6.452H6Z" transform="translate(275.129 10273.129)"/>
      <path id="Trazado_771673" data-name="Trazado 771673" d="M12,6h6.452v6.452H12Z" transform="translate(288.484 10273.129)"/>
    </g>
  </g>
</svg>
