<svg xmlns="http://www.w3.org/2000/svg" width="72" height="72" viewBox="0 0 72 72">
  <g id="Grupo_1043954" data-name="Grupo 1043954" transform="translate(-774 -12390)">
    <circle id="Elipse_4809" data-name="Elipse 4809" cx="36" cy="36" r="36" transform="translate(774 12390)" fill="#3bc192"/>
    <g id="kit-de-primeros-auxilios" transform="translate(789.25 12406.25)">
      <g id="Flat" transform="translate(1.216 3.216)">
        <rect id="Rectángulo_355937" data-name="Rectángulo 355937" width="41.021" height="26.104" rx="2" transform="translate(0 7.458)" fill="#fa8f82"/>
        <path id="Trazado_773650" data-name="Trazado 773650" d="M7.936,33.1H4.729A3.74,3.74,0,0,1,1,29.375V10.729A3.74,3.74,0,0,1,4.729,7H7.936a4.19,4.19,0,0,0-2.275,3.729V29.375A4.19,4.19,0,0,0,7.936,33.1Z" transform="translate(-1 0.458)" fill="#e68477"/>
        <path id="Trazado_773651" data-name="Trazado 773651" d="M8.458,21.917A7.466,7.466,0,0,1,1,14.458V10.729A3.733,3.733,0,0,1,4.729,7H38.292a3.733,3.733,0,0,1,3.729,3.729v3.729a7.466,7.466,0,0,1-7.458,7.458Z" transform="translate(-1 0.458)" fill="#edf2ff"/>
        <path id="Trazado_773652" data-name="Trazado 773652" d="M10.938,21.917H8.458A7.456,7.456,0,0,1,1,14.458V10.729A3.74,3.74,0,0,1,4.729,7H7.936a4.19,4.19,0,0,0-2.275,3.729v3.729a7.917,7.917,0,0,0,5.277,7.458Z" transform="translate(-1 0.458)" fill="#bed2e8"/>
        <path id="Trazado_773653" data-name="Trazado 773653" d="M13.661,19.188a.933.933,0,0,1-.932-.932V16.391a.933.933,0,0,0-.932-.932H9.932A.933.933,0,0,1,9,14.526V12.661a.933.933,0,0,1,.932-.932H11.8a.933.933,0,0,0,.932-.932V8.932A.933.933,0,0,1,13.661,8h1.865a.933.933,0,0,1,.932.932V10.8a.933.933,0,0,0,.932.932h1.865a.933.933,0,0,1,.932.932v1.865a.933.933,0,0,1-.932.932H17.391a.933.933,0,0,0-.932.932v1.865a.933.933,0,0,1-.932.932Z" transform="translate(5.917 1.323)" fill="#fa8f82"/>
        <rect id="Rectángulo_355938" data-name="Rectángulo 355938" width="3.729" height="7.458" rx="0.5" transform="translate(7.458 18.646)" fill="#807a6e"/>
        <rect id="Rectángulo_355939" data-name="Rectángulo 355939" width="3.729" height="7.458" rx="0.5" transform="translate(29.833 18.646)" fill="#807a6e"/>
        <path id="Trazado_773654" data-name="Trazado 773654" d="M10.865,6.729a1.865,1.865,0,1,1,0-3.729h7.458a1.865,1.865,0,0,1,0,3.729Z" transform="translate(5.917 -3)" fill="#807a6e"/>
        <path id="Trazado_773655" data-name="Trazado 773655" d="M11.816,6.729h-.951a1.865,1.865,0,1,1,0-3.729h.951a2.3,2.3,0,0,0,0,3.729Z" transform="translate(5.917 -3)" fill="#524d46"/>
        <path id="Trazado_773656" data-name="Trazado 773656" d="M5.932,19.526a1.31,1.31,0,0,0,.373.932H5.932A.923.923,0,0,1,5,19.526V13.932A.923.923,0,0,1,5.932,13h.373a1.31,1.31,0,0,0-.373.932Z" transform="translate(2.458 5.646)" fill="#524d46"/>
        <path id="Trazado_773657" data-name="Trazado 773657" d="M17.932,19.526a1.31,1.31,0,0,0,.373.932h-.373A.923.923,0,0,1,17,19.526V13.932A.923.923,0,0,1,17.932,13h.373a1.31,1.31,0,0,0-.373.932Z" transform="translate(12.833 5.646)" fill="#524d46"/>
        <g id="Grupo_1043953" data-name="Grupo 1043953" transform="translate(14.917 9.323)">
          <path id="Trazado_773658" data-name="Trazado 773658" d="M9.932,12.8a1.31,1.31,0,0,0,.373.932H9.932A.923.923,0,0,1,9,12.8V10.932A.923.923,0,0,1,9.932,10h.373a1.31,1.31,0,0,0-.373.932Z" transform="translate(-9 -6.271)" fill="#e68477"/>
          <path id="Trazado_773659" data-name="Trazado 773659" d="M12.357,15.513h-.373a.923.923,0,0,1-.932-.932V12.716a.957.957,0,0,0-.112-.466h.578a.462.462,0,0,1,.466.466v1.865a1.31,1.31,0,0,0,.373.932Z" transform="translate(-7.323 -4.325)" fill="#e68477"/>
          <path id="Trazado_773660" data-name="Trazado 773660" d="M12.357,8a1.31,1.31,0,0,0-.373.932V10.8a.462.462,0,0,1-.466.466H10.94a.957.957,0,0,0,.112-.466V8.932A.923.923,0,0,1,11.984,8Z" transform="translate(-7.323 -8)" fill="#e68477"/>
        </g>
      </g>
      <g id="_1" data-name="#1" transform="translate(0.75 2.75)">
        <path id="Trazado_773661" data-name="Trazado 773661" d="M38.508,10.208H31.516V8.81A4.187,4.187,0,0,0,27.7,4.653a2.3,2.3,0,0,0-2.244-1.9H18a2.3,2.3,0,0,0-2.244,1.9A4.187,4.187,0,0,0,11.937,8.81v1.4H4.945a4.2,4.2,0,0,0-4.2,4.2V33.049a4.2,4.2,0,0,0,4.2,4.2H8.674a.466.466,0,1,0,0-.932H4.945a3.267,3.267,0,0,1-3.263-3.263V21.782A7.887,7.887,0,0,0,8.208,26.01v2.378a1.4,1.4,0,0,0,1.4,1.4h1.865a1.4,1.4,0,0,0,1.4-1.4V26.057H27.32a.466.466,0,1,0,0-.932H12.87V22.794a1.4,1.4,0,0,0-1.4-1.4H9.607a1.4,1.4,0,0,0-1.4,1.4v2.284a6.98,6.98,0,0,1-6.526-6.945V14.4a3.267,3.267,0,0,1,3.263-3.263H38.508A3.267,3.267,0,0,1,41.771,14.4v3.729a6.98,6.98,0,0,1-6.526,6.945V22.794a1.4,1.4,0,0,0-1.4-1.4H31.982a1.4,1.4,0,0,0-1.4,1.4v2.331h-1.4a.466.466,0,1,0,0,.932h1.4v2.331a1.4,1.4,0,0,0,1.4,1.4h1.865a1.4,1.4,0,0,0,1.4-1.4V26.01a7.887,7.887,0,0,0,6.526-4.228V33.049a3.267,3.267,0,0,1-3.263,3.263H10.539a.466.466,0,1,0,0,.932H38.508a4.2,4.2,0,0,0,4.2-4.2V14.4a4.2,4.2,0,0,0-4.2-4.2ZM9.141,22.794a.466.466,0,0,1,.466-.466h1.865a.466.466,0,0,1,.466.466v5.594a.466.466,0,0,1-.466.466H9.607a.466.466,0,0,1-.466-.466ZM12.87,8.81a3.256,3.256,0,0,1,2.9-3.226A2.3,2.3,0,0,0,18,7.411a.466.466,0,0,0,0-.932,1.4,1.4,0,0,1,0-2.8h7.458a1.4,1.4,0,1,1,0,2.8H19.862a.466.466,0,1,0,0,.932h5.594a2.3,2.3,0,0,0,2.229-1.827,3.256,3.256,0,0,1,2.9,3.226v1.4H12.87ZM34.313,28.388a.466.466,0,0,1-.466.466H31.982a.466.466,0,0,1-.466-.466V22.794a.466.466,0,0,1,.466-.466h1.865a.466.466,0,0,1,.466.466Z" transform="translate(-0.75 -2.75)" fill="#231f20"/>
        <path id="Trazado_773662" data-name="Trazado 773662" d="M13.878,19.87h1.865a1.4,1.4,0,0,0,1.4-1.4V16.607a.466.466,0,0,1,.466-.466h1.865a1.4,1.4,0,0,0,1.4-1.4V12.878a1.4,1.4,0,0,0-1.4-1.4H17.607a.466.466,0,0,1-.466-.466V9.148a1.4,1.4,0,0,0-1.4-1.4H13.878a1.4,1.4,0,0,0-1.4,1.4v1.865a.466.466,0,0,1-.466.466H10.148a1.4,1.4,0,0,0-1.4,1.4v1.865a1.4,1.4,0,0,0,1.4,1.4h1.865a.466.466,0,0,1,.466.466v1.865a1.4,1.4,0,0,0,1.4,1.4Zm-1.865-4.661H10.148a.466.466,0,0,1-.466-.466V12.878a.466.466,0,0,1,.466-.466h1.865a1.4,1.4,0,0,0,1.4-1.4V9.148a.466.466,0,0,1,.466-.466h1.865a.466.466,0,0,1,.466.466v1.865a1.4,1.4,0,0,0,1.4,1.4h1.865a.466.466,0,0,1,.466.466v1.865a.466.466,0,0,1-.466.466H17.607a1.4,1.4,0,0,0-1.4,1.4v1.865a.466.466,0,0,1-.466.466H13.878a.466.466,0,0,1-.466-.466V16.607a1.4,1.4,0,0,0-1.4-1.4Z" transform="translate(6.167 1.573)" fill="#231f20"/>
      </g>
    </g>
  </g>
</svg>
