<svg xmlns="http://www.w3.org/2000/svg" width="108" height="108" viewBox="0 0 108 108">
  <g id="Grupo_1043091" data-name="Grupo 1043091" transform="translate(-915 -13386)">
    <g id="Grupo_1043090" data-name="Grupo 1043090" transform="translate(559 6544)">
      <rect id="Rectángulo_33830" data-name="Rectángulo 33830" width="108" height="108" rx="12" transform="translate(356 6842)" fill="#fabf40"/>
    </g>
    <g id="historial-medico" transform="translate(930.359 13406.783)">
      <path id="Trazado_771516" data-name="Trazado 771516" d="M92.4,50.441v58.372H52.527v6.82h46.7V50.441Z" transform="translate(-42.754 -42.754)" fill="#3bc192"/>
      <path id="Trazado_771517" data-name="Trazado 771517" d="M52.527,112.4H96.046V50.441H92.4v58.372H52.527Z" transform="translate(-42.754 -42.754)" fill="#bae9d9"/>
      <rect id="Rectángulo_355661" data-name="Rectángulo 355661" width="46.698" height="65.192" transform="translate(2.953 0.867)" fill="#fff"/>
      <path id="Trazado_771518" data-name="Trazado 771518" d="M7.775,5.689h46.7V70.881" transform="translate(-4.822 -4.822)" fill="#fff6e2"/>
      <g id="Grupo_1042938" data-name="Grupo 1042938" transform="translate(2.086)">
        <path id="Trazado_771519" data-name="Trazado 771519" d="M49.651,66.926H2.953a.889.889,0,0,1-.867-.867V.867A.889.889,0,0,1,2.953,0h46.7a.889.889,0,0,1,.867.867V66.059A.889.889,0,0,1,49.651,66.926ZM3.82,65.192H48.784V1.734H3.82Z" transform="translate(-2.086)" fill="#33363a"/>
        <path id="Trazado_771520" data-name="Trazado 771520" d="M172.761,66.208H156.174a.867.867,0,1,1,0-1.734h16.587a.867.867,0,0,1,0,1.734Z" transform="translate(-131.958 -54.649)" fill="#33363a"/>
        <path id="Trazado_771521" data-name="Trazado 771521" d="M157.907,108.685h-1.734a.867.867,0,1,1,0-1.734h1.734a.867.867,0,0,1,0,1.734Z" transform="translate(-131.957 -90.653)" fill="#33363a"/>
        <path id="Trazado_771522" data-name="Trazado 771522" d="M200.387,108.685h-4.392a.867.867,0,0,1,0-1.734h4.392a.867.867,0,1,1,0,1.734Z" transform="translate(-165.711 -90.653)" fill="#33363a"/>
        <path id="Trazado_771523" data-name="Trazado 771523" d="M255.377,108.685h-1.734a.867.867,0,0,1,0-1.734h1.734a.867.867,0,0,1,0,1.734Z" transform="translate(-214.574 -90.653)" fill="#33363a"/>
        <path id="Trazado_771524" data-name="Trazado 771524" d="M172.761,151.541H156.174a.867.867,0,1,1,0-1.734h16.587a.867.867,0,0,1,0,1.734Z" transform="translate(-131.958 -126.978)" fill="#33363a"/>
        <path id="Trazado_771525" data-name="Trazado 771525" d="M49.06,194.018H47.326a.867.867,0,1,1,0-1.734H49.06a.867.867,0,1,1,0,1.734Z" transform="translate(-39.697 -162.982)" fill="#33363a"/>
        <path id="Trazado_771526" data-name="Trazado 771526" d="M103.439,194.018h-3.294a.867.867,0,1,1,0-1.734h3.294a.867.867,0,1,1,0,1.734Zm-6.646,0H93.5a.867.867,0,1,1,0-1.734h3.294a.889.889,0,0,1,.867.867A.851.851,0,0,1,96.793,194.018Zm-6.589,0H86.91a.867.867,0,1,1,0-1.734H90.2a.889.889,0,0,1,.867.867A.851.851,0,0,1,90.2,194.018Zm-6.589,0H80.322a.867.867,0,1,1,0-1.734h3.294a.867.867,0,1,1,0,1.734Z" transform="translate(-67.665 -162.982)" fill="#33363a"/>
        <path id="Trazado_771527" data-name="Trazado 771527" d="M255.377,194.018h-1.734a.867.867,0,1,1,0-1.734h1.734a.867.867,0,1,1,0,1.734Z" transform="translate(-214.574 -162.982)" fill="#33363a"/>
        <path id="Trazado_771528" data-name="Trazado 771528" d="M80.5,236.875H47.326a.867.867,0,1,1,0-1.734H80.5a.867.867,0,1,1,0,1.734Z" transform="translate(-39.697 -199.309)" fill="#33363a"/>
        <path id="Trazado_771529" data-name="Trazado 771529" d="M49.06,279.731H47.326a.867.867,0,1,1,0-1.734H49.06a.867.867,0,1,1,0,1.734Z" transform="translate(-39.697 -235.634)" fill="#33363a"/>
        <path id="Trazado_771530" data-name="Trazado 771530" d="M103.439,279.731h-3.294a.867.867,0,1,1,0-1.734h3.294a.867.867,0,1,1,0,1.734Zm-6.646,0H93.5a.867.867,0,1,1,0-1.734h3.294a.889.889,0,0,1,.867.867A.851.851,0,0,1,96.793,279.731Zm-6.589,0H86.91a.867.867,0,1,1,0-1.734H90.2a.889.889,0,0,1,.867.867A.851.851,0,0,1,90.2,279.731Zm-6.589,0H80.322a.867.867,0,1,1,0-1.734h3.294a.867.867,0,1,1,0,1.734Z" transform="translate(-67.665 -235.634)" fill="#33363a"/>
        <path id="Trazado_771531" data-name="Trazado 771531" d="M255.377,279.731h-1.734a.867.867,0,1,1,0-1.734h1.734a.867.867,0,1,1,0,1.734Z" transform="translate(-214.574 -235.634)" fill="#33363a"/>
        <path id="Trazado_771532" data-name="Trazado 771532" d="M80.5,322.208H47.326a.867.867,0,0,1,0-1.734H80.5a.867.867,0,0,1,0,1.734Z" transform="translate(-39.697 -271.638)" fill="#33363a"/>
        <path id="Trazado_771533" data-name="Trazado 771533" d="M49.06,365.064H47.326a.867.867,0,1,1,0-1.734H49.06a.867.867,0,1,1,0,1.734Z" transform="translate(-39.697 -307.963)" fill="#33363a"/>
        <path id="Trazado_771534" data-name="Trazado 771534" d="M103.439,365.064h-3.294a.867.867,0,1,1,0-1.734h3.294a.867.867,0,1,1,0,1.734Zm-6.646,0H93.5a.867.867,0,1,1,0-1.734h3.294a.889.889,0,0,1,.867.867A.851.851,0,0,1,96.793,365.064Zm-6.589,0H86.91a.867.867,0,1,1,0-1.734H90.2a.889.889,0,0,1,.867.867A.851.851,0,0,1,90.2,365.064Zm-6.589,0H80.322a.867.867,0,1,1,0-1.734h3.294a.867.867,0,1,1,0,1.734Z" transform="translate(-67.665 -307.963)" fill="#33363a"/>
        <path id="Trazado_771535" data-name="Trazado 771535" d="M255.377,365.064h-1.734a.867.867,0,1,1,0-1.734h1.734a.867.867,0,1,1,0,1.734Z" transform="translate(-214.574 -307.963)" fill="#33363a"/>
        <path id="Trazado_771536" data-name="Trazado 771536" d="M94.4,111.678H47.7a.889.889,0,0,1-.867-.867v-6.82a.889.889,0,0,1,.867-.867H86.716V45.619a.889.889,0,0,1,.867-.867H94.4a.889.889,0,0,1,.867.867v65.192A.889.889,0,0,1,94.4,111.678Zm-45.831-1.734H93.536V46.486H88.45v57.505a.889.889,0,0,1-.867.867H48.572Z" transform="translate(-40.018 -37.932)" fill="#33363a"/>
      </g>
      <path id="Trazado_771537" data-name="Trazado 771537" d="M61.519,70.756H56.9V66.132a.518.518,0,0,0-.52-.52H52.5a.518.518,0,0,0-.52.52v4.624H47.359a.518.518,0,0,0-.52.52v3.872a.518.518,0,0,0,.52.52h4.624v4.624a.518.518,0,0,0,.52.52h3.872a.518.518,0,0,0,.52-.52V75.668h4.624a.518.518,0,0,0,.52-.52V71.276A.518.518,0,0,0,61.519,70.756Z" transform="translate(-37.933 -55.614)" fill="#fabf40"/>
      <path id="Trazado_771538" data-name="Trazado 771538" d="M61.519,70.756H56.9V66.132a.518.518,0,0,0-.52-.52H52.5a.518.518,0,0,0-.52.52v4.624H47.359a.518.518,0,0,0-.52.52v1.907H62.154V71.276A.736.736,0,0,0,61.519,70.756Z" transform="translate(-37.933 -55.614)" fill="#fabf40"/>
      <g id="Grupo_1042939" data-name="Grupo 1042939" transform="translate(8.039 9.131)">
        <path id="Trazado_771539" data-name="Trazado 771539" d="M51.553,76.857H47.681a1.406,1.406,0,0,1-1.387-1.387V71.713H42.537a1.406,1.406,0,0,1-1.387-1.387V66.454a1.406,1.406,0,0,1,1.387-1.387h3.757V61.31a1.406,1.406,0,0,1,1.387-1.387h3.872A1.406,1.406,0,0,1,52.94,61.31v3.757H56.7a1.406,1.406,0,0,1,1.387,1.387v3.872A1.406,1.406,0,0,1,56.7,71.713H52.94V75.47A1.406,1.406,0,0,1,51.553,76.857Zm-3.525-1.734h3.179V70.846a.889.889,0,0,1,.867-.867H56.35V66.8H52.073a.889.889,0,0,1-.867-.867V61.657H48.027v4.277a.889.889,0,0,1-.867.867H42.884v3.179H47.16a.889.889,0,0,1,.867.867v4.277Z" transform="translate(-41.15 -59.923)" fill="#33363a"/>
        <rect id="Rectángulo_355662" data-name="Rectángulo 355662" width="2.369" height="9.825" transform="matrix(0.707, 0.707, -0.707, 0.707, 64.668, 9.756)" fill="#33363a"/>
        <path id="Trazado_771540" data-name="Trazado 771540" d="M416.883,128.513a.869.869,0,0,1-.636-.231l-1.676-1.676a.869.869,0,0,1-.231-.636,1.212,1.212,0,0,1,.231-.636l6.935-6.935a.838.838,0,0,1,1.214,0l1.676,1.676a.869.869,0,0,1,.231.636,1.213,1.213,0,0,1-.231.636l-6.935,6.935A.741.741,0,0,1,416.883,128.513Zm-.462-2.543.462.462,5.722-5.722-.462-.462Z" transform="translate(-357.471 -109.268)" fill="#33363a"/>
      </g>
      <path id="SVGCleanerId_0" d="M160.548,194.714a3.885,3.885,0,0,1-2.89-1.214,4.047,4.047,0,0,1,0-5.779l36.7-36.7a4.087,4.087,0,0,1,5.779,5.779l-36.7,36.7A4.332,4.332,0,0,1,160.548,194.714Zm36.7-43.23a2.413,2.413,0,0,0-1.676.694l-36.7,36.7a2.37,2.37,0,0,0,3.352,3.352h0l36.7-36.7a2.372,2.372,0,0,0,0-3.352A2.839,2.839,0,0,0,197.247,151.484Z" transform="translate(-130.837 -126.979)" fill="#33363a"/>
      <path id="Trazado_771541" data-name="Trazado 771541" d="M167.463,197.526a3.209,3.209,0,0,1-4.566,0h0a3.209,3.209,0,0,1,0-4.566l36.7-36.7a3.209,3.209,0,0,1,4.566,0h0a3.209,3.209,0,0,1,0,4.566Z" transform="translate(-135.498 -131.64)" fill="#474c51"/>
      <path id="Trazado_771542" data-name="Trazado 771542" d="M209.467,161.564h0a3.209,3.209,0,0,1,0,4.566l-36.7,36.7a3.209,3.209,0,0,1-4.566,0h0" transform="translate(-140.802 -136.944)" fill="#33363a"/>
      <g id="Grupo_1042940" data-name="Grupo 1042940" transform="translate(25.608 22.829)">
        <path id="SVGCleanerId_0_1_" d="M160.548,194.714a3.885,3.885,0,0,1-2.89-1.214,4.047,4.047,0,0,1,0-5.779l36.7-36.7a4.087,4.087,0,0,1,5.779,5.779l-36.7,36.7A4.332,4.332,0,0,1,160.548,194.714Zm36.7-43.23a2.413,2.413,0,0,0-1.676.694l-36.7,36.7a2.37,2.37,0,0,0,3.352,3.352h0l36.7-36.7a2.372,2.372,0,0,0,0-3.352A2.839,2.839,0,0,0,197.247,151.484Z" transform="translate(-156.445 -149.808)" fill="#33363a"/>
      </g>
      <path id="Trazado_771543" data-name="Trazado 771543" d="M133.664,406.566,128,416.622l10.056-5.606Z" transform="translate(-106.726 -344.611)" fill="#bfdee2"/>
      <path id="Trazado_771544" data-name="Trazado 771544" d="M135.34,417.564l-7.34,8.38,10.056-5.606Z" transform="translate(-106.726 -353.933)" fill="#71abff"/>
      <path id="Trazado_771545" data-name="Trazado 771545" d="M123.027,412.583a1.213,1.213,0,0,1-.636-.231.8.8,0,0,1-.116-1.04l5.664-10.056a.9.9,0,0,1,.636-.462.91.91,0,0,1,.751.231l4.392,4.45a.855.855,0,0,1,.231.751.767.767,0,0,1-.462.636l-10.056,5.606A1.069,1.069,0,0,1,123.027,412.583Zm5.837-9.478-3.583,6.357,6.357-3.525Z" transform="translate(-101.754 -339.705)" fill="#33363a"/>
      <path id="Trazado_771546" data-name="Trazado 771546" d="M310.032,221.848a.869.869,0,0,1-.636-.231.838.838,0,0,1,0-1.214l15.836-15.893a2.591,2.591,0,0,0,.809-1.792,2.72,2.72,0,0,0-.809-1.907,2.591,2.591,0,0,0-1.792-.809,2.72,2.72,0,0,0-1.907.809L305.64,216.7a.858.858,0,1,1-1.214-1.214L320.32,199.6a4.1,4.1,0,0,1,3.121-1.272,4.032,4.032,0,0,1,3.005,1.329,4.466,4.466,0,0,1,1.271,3.121,4.033,4.033,0,0,1-1.329,3.005l-15.836,15.893C310.495,221.791,310.264,221.848,310.032,221.848Z" transform="translate(-256.047 -168.1)" fill="#33363a"/>
    </g>
  </g>
</svg>
