<svg xmlns="http://www.w3.org/2000/svg" width="116" height="116" viewBox="0 0 116 116">
  <g id="Grupo_1043352" data-name="Grupo 1043352" transform="translate(-205 -14725)">
    <g id="Elipse_4814" data-name="Elipse 4814" transform="translate(205 14725)" fill="#e0ebff" stroke="#0b62f8" stroke-width="1">
      <circle cx="58" cy="58" r="58" stroke="none"/>
      <circle cx="58" cy="58" r="57.5" fill="none"/>
    </g>
    <g id="el-embarazo" transform="translate(149.059 14731.292)">
      <g id="Grupo_1043100" data-name="Grupo 1043100" transform="translate(86.469 11)">
        <g id="Grupo_1043098" data-name="Grupo 1043098" transform="translate(26.97 56.755)">
          <path id="Trazado_772167" data-name="Trazado 772167" d="M254.125,354.81c-3.65,6.462-1.935,14.43-2.16,21.608-.187.1-.279.387-.237.82h14.421a7.251,7.251,0,0,0,.291-.916,43.608,43.608,0,0,0,.8-23.745A44.158,44.158,0,0,0,254.125,354.81Z" transform="translate(-251.718 -352.578)" fill="#faaaa0"/>
        </g>
        <g id="Grupo_1043099" data-name="Grupo 1043099" transform="translate(0 0)">
          <path id="Trazado_772168" data-name="Trazado 772168" d="M127.276,17.9c3.746-.893,6.928-3.131,7.235-6.9H99.132c3.049,5.06,3.331,11.152,2.748,16.893-.5,7.065-3.5,13.647-6.97,19.719-10.788,15.57-3.983,29.976,5.407,43.984a7.092,7.092,0,0,0,.5.82h17.67a1.04,1.04,0,0,0,.032-.144,50.408,50.408,0,0,0,.608-19.556c-.3-1.789,3.479-1.585,4.686-2.133,14.25-1.45,23.853-16.179,20.156-29.928-1.95-9.579-9.395-16.813-16.691-22.759Z" transform="translate(-89.399 -11)" fill="#fac8be"/>
        </g>
        <path id="Trazado_772169" data-name="Trazado 772169" d="M289.278,210.19a1.13,1.13,0,0,1-1.6,0l-6.554-6.554c-5.609-5.609,1.744-12.962,7.353-7.353,5.814-5.814,13.168,1.539,7.353,7.353Z" transform="translate(-247.597 -163.727)" fill="#f99"/>
      </g>
      <g id="Grupo_1043101" data-name="Grupo 1043101" transform="translate(85.886 11.017)">
        <path id="Trazado_772170" data-name="Trazado 772170" d="M334.053,353.32a1.9,1.9,0,0,1-.592.38,41.037,41.037,0,0,1-.1,19.733c-.2.749-.378,1.5-.619,2.24s-.72,1.442-.948,2.167c.942.177,1.2-.959,1.419-1.612A41.06,41.06,0,0,0,334.053,353.32Z" transform="translate(-290.937 -296.459)"/>
        <path id="Trazado_772171" data-name="Trazado 772171" d="M96.549,11.769a2.48,2.48,0,0,1-.177-.656c-.342-.008-.683-.007-1.025-.007l.3.5c2.528,4.152,3.41,9.545,2.7,16.5-.531,7.445-3.97,14.239-6.909,19.329-5,7.139-6.6,14.516-4.9,22.551,1.639,7.752,6.125,15.1,10.3,21.257.063.107.119.205.169.294.264.465.632,1.016,1.243.946-1.452-2.946-3.531-5.595-5.178-8.443A61.717,61.717,0,0,1,89,75.761a30.3,30.3,0,0,1-2.145-15.97c.734-4.45,2.741-8.234,5.137-11.994l.015-.024c2.976-5.152,6.461-12.038,7-19.612a36.659,36.659,0,0,0-.064-8.981,24.56,24.56,0,0,0-2.265-7.111C96.634,11.968,96.589,11.869,96.549,11.769Z" transform="translate(-85.886 -11.106)"/>
        <path id="Trazado_772172" data-name="Trazado 772172" d="M286.368,40.658c-1.943-9.426-9.244-16.533-16.272-22.254,4.087-1.144,6.567-3.648,6.838-6.942l.029-.357h-.7v.454a.8.8,0,0,1-.029.205h0c-.416,2.981-2.919,5.217-6.93,6.163l-.656.155.523.422c7.093,5.719,14.6,12.841,16.55,22.3l0,.02a23.231,23.231,0,0,1-3.492,19.355,22.747,22.747,0,0,1-16.346,9.8l-.054.005-.05.022a7.428,7.428,0,0,1-1.549.34c-1.205.19-2.572.406-3.109,1.149a1.245,1.245,0,0,0-.211.973,45.881,45.881,0,0,1,.133,15.015c-.245,1.641-.767,3.345-.858,4.995.407.14.713-.328.771-.681a49.319,49.319,0,0,0,.608-19.439.6.6,0,0,1,.1-.479c.376-.52,1.65-.721,2.674-.882A8.246,8.246,0,0,0,266,70.625a23.416,23.416,0,0,0,16.775-10.076,23.884,23.884,0,0,0,3.589-19.891Z" transform="translate(-231.227 -11.105)"/>
        <path id="Trazado_772173" data-name="Trazado 772173" d="M286.749,209.125a1.453,1.453,0,0,1-1.034-.428l-6.554-6.554c-3.052-3.052-2.414-6.469-.53-8.353,1.836-1.836,5.127-2.488,8.118.3,3.094-2.9,6.435-2.294,8.273-.457,1.884,1.884,2.473,5.35-.684,8.508l-6.554,6.554a1.453,1.453,0,0,1-1.034.428Zm-4.338-16.245a4.689,4.689,0,0,0-3.31,1.38,4.641,4.641,0,0,0-1.379,3.341,5.872,5.872,0,0,0,1.909,4.072l6.554,6.554a.8.8,0,0,0,1.128,0l6.554-6.554c2.835-2.835,2.342-5.91.684-7.568s-4.733-2.151-7.568.684l-.235.235-.235-.235a5.812,5.812,0,0,0-4.1-1.91Z" transform="translate(-245.283 -162.016)"/>
      </g>
    </g>
  </g>
</svg>
