<svg xmlns="http://www.w3.org/2000/svg" width="116" height="116" viewBox="0 0 116 116">
  <g id="Grupo_1043348" data-name="Grupo 1043348" transform="translate(-425 -14725)">
    <g id="Elipse_4815" data-name="Elipse 4815" transform="translate(425 14725)" fill="#e0ebff" stroke="#0b62f8" stroke-width="1">
      <circle cx="58" cy="58" r="58" stroke="none"/>
      <circle cx="58" cy="58" r="57.5" fill="none"/>
    </g>
    <g id="comida-sana" transform="translate(439.622 14741.261)">
      <g id="Grupo_1043102" data-name="Grupo 1043102" transform="translate(19.13 41.488)">
        <path id="Trazado_772174" data-name="Trazado 772174" d="M68.358,77.855H21.5V66.3c0-9.093,6.809-16.091,15.209-16.091h13.83c8.4,0,17.823,7.559,17.823,16.653Z" transform="translate(-21 -49.711)" fill="#a2d5b0"/>
        <path id="Trazado_772175" data-name="Trazado 772175" d="M68.25,78.245H21.389a.5.5,0,0,1-.5-.5V66.191c0-9.3,6.9-16.588,15.707-16.588h13.83A19.39,19.39,0,0,1,62.82,54.645a16.54,16.54,0,0,1,5.929,12.109V77.747a.5.5,0,0,1-.5.5Zm-46.363-1H67.753v-10.5c0-8.949-9.477-16.156-17.325-16.156H36.6c-8.249,0-14.711,6.849-14.711,15.593Z" transform="translate(-20.892 -49.603)"/>
      </g>
      <g id="Grupo_1043103" data-name="Grupo 1043103" transform="translate(36.952 25.322)">
        <path id="Trazado_772176" data-name="Trazado 772176" d="M54.394,46.619c0,5.305-11.216,5.305-11.216,0V30.543H54.394V44.205" transform="translate(-42.68 -30.046)" fill="#fff"/>
        <path id="Trazado_772177" data-name="Trazado 772177" d="M48.678,50.987c-2.94,0-6.106-1.4-6.106-4.476V30.435a.5.5,0,0,1,.5-.5H54.286a.5.5,0,0,1,.5.5V44.1a.5.5,0,1,1-.995,0V30.933H43.567V46.511c0,2.392,2.649,3.481,5.111,3.481s5.111-1.089,5.111-3.481a.5.5,0,1,1,.995,0C54.784,49.586,51.619,50.987,48.678,50.987Z" transform="translate(-42.572 -29.938)"/>
      </g>
      <g id="Grupo_1043104" data-name="Grupo 1043104" transform="translate(10.992 66.229)">
        <path id="Trazado_772178" data-name="Trazado 772178" d="M11.6,80.3H74.736v9.218H11.6Z" transform="translate(-11.1 -79.808)" fill="#fff"/>
        <path id="Trazado_772179" data-name="Trazado 772179" d="M74.627,89.913H11.489a.5.5,0,0,1-.5-.5V80.2a.5.5,0,0,1,.5-.5H74.627a.5.5,0,0,1,.5.5v9.218A.5.5,0,0,1,74.627,89.913Zm-62.64-1H74.13V80.7H11.987Z" transform="translate(-10.992 -79.7)"/>
      </g>
      <path id="Trazado_772180" data-name="Trazado 772180" d="M66.85,76.27a.5.5,0,0,1-.5-.5v-9.79a.5.5,0,0,1,.995,0v9.79A.5.5,0,0,1,66.85,76.27Z" transform="translate(-9.852 -10.942)"/>
      <g id="Grupo_1043105" data-name="Grupo 1043105" transform="translate(28.401 60.67)">
        <path id="Trazado_772181" data-name="Trazado 772181" d="M70.269,73.544c0,3.326.568,4.879-2.12,6.964S60,82.455,55.178,82.13s-11.223-.557-12.613-.811-7.509-.209-8.575-.533c0,0-2.5-1.622-.325-1.9s8.111-.232,9.084-.51,11.364-2.193,12.986-2.657,6.151-2.175,7.455-2.175" transform="translate(-32.278 -73.046)" fill="#fff"/>
        <path id="Trazado_772182" data-name="Trazado 772182" d="M59.727,82.7c-1.517,0-3.1-.078-4.69-.185-1.823-.122-3.872-.232-5.789-.335-3.212-.172-5.985-.32-6.881-.484-.6-.11-2.273-.165-3.889-.218a30.142,30.142,0,0,1-4.741-.328.515.515,0,0,1-.126-.058c-.49-.317-1.609-1.145-1.42-1.97.105-.461.543-.745,1.3-.842,1.069-.136,2.972-.195,4.813-.252a37.238,37.238,0,0,0,4.2-.243c.423-.121,2.243-.478,5.177-1.051,3.241-.633,6.915-1.351,7.809-1.606.485-.138,1.231-.39,2.074-.673a26.23,26.23,0,0,1,5.518-1.522.5.5,0,1,1,0,.995,29.615,29.615,0,0,0-5.2,1.47c-.86.289-1.623.545-2.118.686-.935.267-4.631.989-7.892,1.626-2.412.471-4.691.916-5.094,1.032a30.207,30.207,0,0,1-4.44.281c-1.818.056-3.7.113-4.718.244a1.538,1.538,0,0,0-.433.1,3.3,3.3,0,0,0,.9.843,40.747,40.747,0,0,0,4.421.27c1.728.056,3.361.109,4.035.233.834.153,3.71.307,6.756.469,1.921.1,3.974.212,5.8.335,5.1.342,10.165.4,12.633-1.519,2.059-1.6,2.025-2.765,1.956-5.091-.013-.454-.028-.945-.028-1.481a.5.5,0,1,1,.995,0c0,.525.014,1.006.027,1.451.072,2.408.119,4-2.34,5.907-1.912,1.483-5.074,1.91-8.618,1.91Z" transform="translate(-32.17 -72.938)"/>
      </g>
      <g id="Grupo_1043106" data-name="Grupo 1043106" transform="translate(33.132 59.824)">
        <circle id="Elipse_4831" data-name="Elipse 4831" cx="1.91" cy="1.91" r="1.91" transform="translate(0.497 0.498)" fill="#94af48"/>
        <path id="Trazado_772183" data-name="Trazado 772183" d="M40.333,76.725a2.408,2.408,0,1,1,2.408-2.409A2.411,2.411,0,0,1,40.333,76.725Zm0-3.821a1.413,1.413,0,1,0,1.413,1.413A1.415,1.415,0,0,0,40.333,72.9Z" transform="translate(-37.925 -71.909)"/>
      </g>
      <g id="Grupo_1043107" data-name="Grupo 1043107" transform="translate(35.209 58.79)">
        <circle id="Elipse_4832" data-name="Elipse 4832" cx="1.743" cy="1.743" r="1.743" transform="translate(0.498 0.499)" fill="#fff"/>
        <path id="Trazado_772184" data-name="Trazado 772184" d="M42.693,75.133a2.241,2.241,0,1,1,2.241-2.241A2.244,2.244,0,0,1,42.693,75.133Zm0-3.485a1.245,1.245,0,1,0,1.245,1.245A1.247,1.247,0,0,0,42.693,71.647Z" transform="translate(-40.452 -70.651)"/>
      </g>
      <g id="Grupo_1043108" data-name="Grupo 1043108" transform="translate(36.049 59.824)">
        <circle id="Elipse_4833" data-name="Elipse 4833" cx="2.647" cy="2.647" r="2.647" transform="translate(0.497 0.497)" fill="#fff"/>
        <path id="Trazado_772185" data-name="Trazado 772185" d="M44.617,78.2a3.144,3.144,0,1,1,3.144-3.144A3.148,3.148,0,0,1,44.617,78.2Zm0-5.293a2.149,2.149,0,1,0,2.149,2.149A2.151,2.151,0,0,0,44.617,72.9Z" transform="translate(-41.473 -71.909)"/>
      </g>
      <path id="Trazado_772186" data-name="Trazado 772186" d="M50.4,87.029H44.493a8.154,8.154,0,0,1-8.154-8.154v-3.6H58.554v3.6A8.155,8.155,0,0,1,50.4,87.029Z" transform="translate(-4.511 -12.685)" fill="#94af48"/>
      <path id="Trazado_772187" data-name="Trazado 772187" d="M31.79,79.8a.5.5,0,0,1-.5-.5V75.172a.5.5,0,0,1,.995,0V79.3a.5.5,0,0,1-.5.5Z" transform="translate(-3.613 -12.577)"/>
      <path id="Trazado_772188" data-name="Trazado 772188" d="M58.08,53.175a14.462,14.462,0,0,1,10.569,3.961,13.056,13.056,0,0,1,4.019,9.416A17.807,17.807,0,0,0,67.617,58a17.068,17.068,0,0,0-9.537-4.822Z" transform="translate(-8.38 -8.748)" fill="#fff"/>
      <path id="Trazado_772189" data-name="Trazado 772189" d="M49.576,73.951s-1.78-1.711-1.941-2.9.869.316,1.223-.405-.709-2.105.6-2.717,1.754,1.545,2.494,1.19.869-.965,1.738-.708.032,1.738-.354,2.671a21.15,21.15,0,0,0-.773,2.869H49.576Z" transform="translate(-6.518 -11.357)" fill="#94af48"/>
      <g id="Grupo_1043109" data-name="Grupo 1043109" transform="translate(31.33 55.962)">
        <path id="Trazado_772190" data-name="Trazado 772190" d="M55.462,74.423a4.634,4.634,0,0,0,1.357-2.272c.45-1.562,1.706-2.109,2.124-1.337s.418,1.129,1.158,1.337-.74,2.272-.74,2.272Z" transform="translate(-39.244 -67.79)" fill="#94af48"/>
        <path id="Trazado_772191" data-name="Trazado 772191" d="M58.445,73.346H56.762a2.506,2.506,0,0,0,.482-1.77.751.751,0,0,0-.52-.484c-.367-.1-.407-.185-.625-.636-.065-.135-.138-.287-.231-.458a1.125,1.125,0,0,0-1.14-.6,2.6,2.6,0,0,0-1.9,2.036,4.461,4.461,0,0,1-1.073,1.913h-.7a16.161,16.161,0,0,1,.616-2.181c.057-.136.123-.285.192-.441.38-.848.772-1.726.478-2.364a.981.981,0,0,0-.635-.534,1.52,1.52,0,0,0-1.6.4,2.534,2.534,0,0,1-.442.315,2.9,2.9,0,0,1-.342-.365c-.416-.49-1.112-1.311-2.2-.8a1.8,1.8,0,0,0-.87,2.257,2.967,2.967,0,0,1,.064.568l-.115-.055a.853.853,0,0,0-.919-.056.933.933,0,0,0-.259.924,5.345,5.345,0,0,0,1.3,2.337H36.23a.5.5,0,0,0-.5.5v3.6a8.662,8.662,0,0,0,8.652,8.652h5.906a8.662,8.662,0,0,0,8.652-8.652v-3.6a.5.5,0,0,0-.5-.5Zm-4.659-1.637c.262-.909.783-1.294,1.051-1.323a.134.134,0,0,1,.159.085c.084.156.15.293.21.416A1.771,1.771,0,0,0,56.288,72a5.444,5.444,0,0,1-.7,1.35H53.034a5.859,5.859,0,0,0,.752-1.637Zm-7.692-.533a.931.931,0,0,0,.617.021.83.83,0,0,0,.479-.441,2.073,2.073,0,0,0,.047-1.3c-.132-.756-.108-.989.312-1.186.344-.162.545-.013,1.018.544.325.383.815.963,1.48.644a3.251,3.251,0,0,0,.7-.472c.294-.245.363-.3.7-.212.107.224-.306,1.148-.483,1.542-.073.164-.143.321-.2.466a18.289,18.289,0,0,0-.716,2.561H47.665a7.657,7.657,0,0,1-1.571-2.169Zm11.854,6.262A7.665,7.665,0,0,1,50.291,85.1H44.385a7.665,7.665,0,0,1-7.656-7.656v-3.1H57.948Z" transform="translate(-35.733 -67.211)"/>
      </g>
      <g id="Grupo_1043114" data-name="Grupo 1043114" transform="translate(29.313 9.208)">
        <g id="Grupo_1043112" data-name="Grupo 1043112" transform="translate(0 13.407)">
          <g id="Grupo_1043110" data-name="Grupo 1043110" transform="translate(0 0.406)">
            <path id="Trazado_772192" data-name="Trazado 772192" d="M37.228,29.3A3.831,3.831,0,0,0,34.9,27.765c-1.581-.338-.946,3.093-.533,4.493.641,2.171,1.286,4.585,2.6,3.231S37.228,29.3,37.228,29.3Z" transform="translate(-33.387 -27.245)" fill="#fff"/>
            <path id="Trazado_772193" data-name="Trazado 772193" d="M36.145,36.273a1.094,1.094,0,0,1-.261-.032c-1.014-.249-1.485-1.853-2.032-3.71l-.07-.238c-.111-.375-1.053-3.7-.035-4.794a1.168,1.168,0,0,1,1.149-.326,4.331,4.331,0,0,1,2.646,1.762.5.5,0,0,1,.064.158c.113.52,1.062,5.134-.392,6.637a1.52,1.52,0,0,1-1.069.544Zm-1.559-8.141a.127.127,0,0,0-.109.042c-.39.422-.177,2.36.259,3.836l.071.239c.321,1.089.857,2.912,1.314,3.024.053.012.185-.039.378-.239.8-.831.528-3.855.155-5.638a3.4,3.4,0,0,0-1.966-1.253A.618.618,0,0,0,34.587,28.132Z" transform="translate(-33.279 -27.138)"/>
          </g>
          <g id="Grupo_1043111" data-name="Grupo 1043111" transform="translate(22.953)">
            <path id="Trazado_772194" data-name="Trazado 772194" d="M62.1,28.892a3.833,3.833,0,0,1,2.276-1.613c1.569-.389,1.046,3.061.679,4.474-.57,2.191-1.137,4.624-2.492,3.313S62.1,28.892,62.1,28.892Z" transform="translate(-61.309 -26.752)" fill="#fff"/>
            <path id="Trazado_772195" data-name="Trazado 772195" d="M63.158,35.826a1.542,1.542,0,0,1-1.052-.51c-1.5-1.454-.7-6.1-.607-6.621a.524.524,0,0,1,.058-.159,4.328,4.328,0,0,1,2.588-1.847,1.172,1.172,0,0,1,1.159.289c1.053,1.065.219,4.414.121,4.793l-.062.241c-.486,1.873-.905,3.491-1.91,3.773a1.1,1.1,0,0,1-.294.041Zm-.7-6.855c-.315,1.794-.493,4.825.338,5.629.2.191.327.241.385.226.455-.127.931-1.966,1.216-3.065l.062-.243c.388-1.49.538-3.434.135-3.842-.023-.023-.061-.062-.212-.023a3.4,3.4,0,0,0-1.924,1.318Z" transform="translate(-61.201 -26.644)"/>
          </g>
        </g>
        <g id="Grupo_1043113" data-name="Grupo 1043113" transform="translate(2.498)">
          <path id="Trazado_772196" data-name="Trazado 772196" d="M47.448,10.943c-7.513.122-10.586,4.868-10.524,8.761s.11,5.3.165,8.738.744,8.464,3.573,11.052,5.51,3.461,7.328,3.431,4.469-.989,7.213-3.668,3.268-7.727,3.213-11.163-.1-4.845-.165-8.738-3.29-8.536-10.8-8.414Z" transform="translate(-36.425 -10.443)" fill="#fff"/>
          <path id="Trazado_772197" data-name="Trazado 772197" d="M47.8,43.317c-1.178,0-4.1-.375-7.584-3.562-3.135-2.867-3.686-8.38-3.735-11.412-.027-1.659-.052-2.845-.077-4.067-.027-1.309-.055-2.658-.088-4.672a8.562,8.562,0,0,1,2.568-6.156,11.953,11.953,0,0,1,8.445-3.111c7.675-.111,11.236,4.528,11.308,8.9.032,2.012.061,3.36.088,4.667.026,1.223.051,2.411.078,4.072.049,3.031-.322,8.559-3.363,11.526-3.466,3.384-6.436,3.791-7.552,3.809H47.8Zm-.455-31.983a10.991,10.991,0,0,0-7.76,2.822,7.558,7.558,0,0,0-2.274,5.434c.032,2.012.061,3.36.088,4.667.026,1.223.051,2.411.078,4.072.047,2.871.552,8.077,3.411,10.693,3.31,3.028,5.967,3.319,6.984,3.3,1-.016,3.663-.392,6.873-3.527,2.773-2.707,3.109-7.928,3.062-10.8-.027-1.659-.052-2.845-.077-4.067-.027-1.309-.055-2.658-.088-4.672-.065-3.9-3.293-8.056-10.3-7.925Zm-.008-.5h.008Z" transform="translate(-36.318 -10.336)"/>
        </g>
      </g>
      <g id="Grupo_1043121" data-name="Grupo 1043121" transform="translate(15.491 28.721)">
        <g id="Grupo_1043118" data-name="Grupo 1043118" transform="translate(8.398 2.49)">
          <g id="Grupo_1043115" data-name="Grupo 1043115" transform="translate(0 1.57)">
            <path id="Trazado_772198" data-name="Trazado 772198" d="M0,0H10.748V.625H0Z" transform="translate(0.511 2.014) rotate(-8.163)" fill="#fff"/>
            <path id="Trazado_772199" data-name="Trazado 772199" d="M27.266,42.149a.5.5,0,0,1-.492-.427l-.089-.619a.5.5,0,0,1,.422-.563l10.64-1.522a.491.491,0,0,1,.369.095.5.5,0,0,1,.194.327l.088.618a.5.5,0,0,1-.422.563L27.338,42.143A.426.426,0,0,1,27.266,42.149Z" transform="translate(-26.681 -39.012)"/>
          </g>
          <g id="Grupo_1043117" data-name="Grupo 1043117" transform="translate(10.37)">
            <g id="Grupo_1043116" data-name="Grupo 1043116">
              <path id="Trazado_772200" data-name="Trazado 772200" d="M45.165,40.217l-3.853.458a1.263,1.263,0,0,1-.3-2.508l3.853-.458" transform="translate(-39.403 -37.21)" fill="#fff"/>
              <path id="Trazado_772201" data-name="Trazado 772201" d="M41.053,41.073a1.761,1.761,0,0,1-.2-3.509l3.853-.458a.5.5,0,1,1,.118.987l-3.853.458a.766.766,0,0,0,.18,1.522L45,39.615a.5.5,0,1,1,.118.987l-3.853.458a1.675,1.675,0,0,1-.211.013Z" transform="translate(-39.296 -37.102)"/>
            </g>
            <path id="Trazado_772202" data-name="Trazado 772202" d="M39.8,40.23a.5.5,0,0,1-.058-.991l5.107-.607a.5.5,0,0,1,.118.987l-5.107.607a.358.358,0,0,1-.059,0Z" transform="translate(-39.298 -37.374)"/>
          </g>
        </g>
        <g id="Grupo_1043119" data-name="Grupo 1043119" transform="translate(21.126)">
          <path id="Trazado_772203" data-name="Trazado 772203" d="M42.87,38.744a3.355,3.355,0,0,0,4.065,2.448L45.318,34.68A3.354,3.354,0,0,0,42.87,38.744Z" transform="translate(-42.272 -34.181)" fill="#94af48"/>
          <path id="Trazado_772204" data-name="Trazado 772204" d="M46.012,41.683a3.858,3.858,0,0,1-3.733-2.926l.483-.12-.483.119a3.853,3.853,0,0,1,2.811-4.668.5.5,0,0,1,.6.363l1.616,6.513a.5.5,0,0,1-.363.6A3.813,3.813,0,0,1,46.012,41.683Zm-1.154-6.467a2.859,2.859,0,0,0,1.356,5.465Z" transform="translate(-42.164 -34.073)"/>
        </g>
        <path id="Trazado_772205" data-name="Trazado 772205" d="M44.93,36.068a2.724,2.724,0,0,0-1.03,2.3,2.666,2.666,0,0,0,1.786,2.2,3.6,3.6,0,0,1-.756-4.506Z" transform="translate(-21.347 -34.428)" fill="#fff"/>
        <g id="Grupo_1043120" data-name="Grupo 1043120" transform="translate(0 2.127)">
          <path id="Trazado_772206" data-name="Trazado 772206" d="M28.649,63.554c-1.56,6.143-4.211,8.973-7.59,9.461s-4.535-3.167-3.749-6.592,7.775-14.161,8.839-15.365-1.1-3.781-1.885-4.249a2.063,2.063,0,0,1-.8-1.61,3.3,3.3,0,0,1-.924-2.123,3.82,3.82,0,0,0-.093-1.354A1.762,1.762,0,0,1,22.292,41a3.206,3.206,0,0,1,.99-2.366,5.89,5.89,0,0,1,4.582-1.319c1.527.185,1.25,1.3.231,1.9a20.87,20.87,0,0,1,3.147,1.47c.88.612.556,2.195-.833,1.774s-1.666-.467-1.666-.467,1.805.417,1.481,1.619c0,0,2.592,2.035.556,4,0,0,.694,1.476,0,4.568s-.649,5.545-2.13,11.377Z" transform="translate(-16.573 -36.769)" fill="#fff"/>
          <path id="Trazado_772207" data-name="Trazado 772207" d="M31.971,42.167a1.613,1.613,0,0,0-.555-2,15.676,15.676,0,0,0-2.479-1.219,1.428,1.428,0,0,0,.361-1.188c-.07-.332-.355-.91-1.485-1.046a6.329,6.329,0,0,0-4.976,1.444,3.721,3.721,0,0,0-1.153,2.728,2.241,2.241,0,0,0,.2.929,2.667,2.667,0,0,1,.053.822v.332a3.723,3.723,0,0,0,.939,2.333,2.421,2.421,0,0,0,1.03,1.827,5.462,5.462,0,0,1,1.913,2.793.814.814,0,0,1-.146.7c-1.2,1.355-8.149,12.086-8.952,15.583-.567,2.469-.166,4.82,1.046,6.136a3.414,3.414,0,0,0,2.6,1.109,4.612,4.612,0,0,0,.663-.049c3.791-.549,6.483-3.857,8-9.832a67.809,67.809,0,0,0,1.538-7.92c.178-1.234.331-2.3.594-3.469a9.23,9.23,0,0,0,.084-4.553,2.6,2.6,0,0,0,.705-1.884,3.891,3.891,0,0,0-1.3-2.435,1.447,1.447,0,0,0-.031-.4,1.344,1.344,0,0,0,1.353-.741Zm-.9-.434c-.115.238-.408.206-.632.138-1.351-.409-1.678-.473-1.73-.482-.016,0-.032,0-.049,0a2.452,2.452,0,0,0-3.231,1.592.5.5,0,0,0,.3.635.492.492,0,0,0,.167.029.5.5,0,0,0,.469-.33c.374-1.051,1.092-1.282,2.527-.82a1.576,1.576,0,0,1,.657.456,3.1,3.1,0,0,0-2.76,2.2.5.5,0,0,0,.319.625.479.479,0,0,0,.155.025.5.5,0,0,0,.473-.342,2.1,2.1,0,0,1,2.16-1.486,2.981,2.981,0,0,1,1.05,1.822,1.638,1.638,0,0,1-.482,1.185.405.405,0,0,1-.25-.291c-.215-.689-.266-.891-.27-.908a.5.5,0,0,0-.869-.2,2.1,2.1,0,0,0-.485,1.489,1.231,1.231,0,0,0,.612.858.5.5,0,0,0,.661-.136,1.381,1.381,0,0,0,.429.169,8.442,8.442,0,0,1-.116,4c-.271,1.206-.427,2.29-.607,3.545a67.119,67.119,0,0,1-1.518,7.818c-1.429,5.624-3.777,8.6-7.179,9.091a2.557,2.557,0,0,1-2.385-.75c-.978-1.062-1.3-3.119-.808-5.239.773-3.363,7.707-13.994,8.728-15.146a1.786,1.786,0,0,0,.383-1.512,6.3,6.3,0,0,0-2.388-3.494,1.541,1.541,0,0,1-.557-1.189.5.5,0,0,0-.149-.349,2.817,2.817,0,0,1-.775-1.768V42.64a2.94,2.94,0,0,0-.136-1.226,1.256,1.256,0,0,1-.113-.52,2.737,2.737,0,0,1,.826-2,5.254,5.254,0,0,1,3.506-1.234,5.573,5.573,0,0,1,.681.04c.433.053.614.186.631.263.025.12-.132.384-.464.62a4.119,4.119,0,0,0-2.829.46,8.654,8.654,0,0,0-1.65,2.187.5.5,0,0,0,.878.469,7.787,7.787,0,0,1,1.4-1.887,3.475,3.475,0,0,1,2.2-.224,19.716,19.716,0,0,1,2.988,1.393.625.625,0,0,1,.233.754Z" transform="translate(-16.465 -36.66)"/>
        </g>
      </g>
      <g id="Grupo_1043122" data-name="Grupo 1043122" transform="translate(57.418 40.839)">
        <path id="Trazado_772208" data-name="Trazado 772208" d="M78.8,60.407a.5.5,0,0,1-.466-.325,14.074,14.074,0,0,0-.91-1.968.5.5,0,0,1,.868-.487,15.045,15.045,0,0,1,.975,2.107.5.5,0,0,1-.293.64.46.46,0,0,1-.173.033Z" transform="translate(-69.229 -50.338)"/>
        <path id="Trazado_772209" data-name="Trazado 772209" d="M74.709,54.792a.5.5,0,0,1-.388-.186A16.513,16.513,0,0,0,67.8,49.781a.5.5,0,0,1,.332-.938,17.212,17.212,0,0,1,6.964,5.14.5.5,0,0,1-.387.809Z" transform="translate(-67.468 -48.814)"/>
      </g>
      <path id="Trazado_772210" data-name="Trazado 772210" d="M18.72,95.785H11.489a.5.5,0,0,1,0-.995H18.72a.5.5,0,0,1,0,.995Z" transform="translate(0 -16.157)"/>
      <path id="Trazado_772211" data-name="Trazado 772211" d="M25.953,95.785H23.926a.5.5,0,0,1,0-.995h2.027a.5.5,0,0,1,0,.995Z" transform="translate(-2.213 -16.157)"/>
      <g id="Grupo_1043123" data-name="Grupo 1043123" transform="translate(28.966 4.001)">
        <path id="Trazado_772212" data-name="Trazado 772212" d="M36.448,27.493S35.3,22.151,40.1,19.866c0,0,.608,1.351,3.733,2.8s0-2.575,0-2.575S48.5,22.931,51.1,23.625c3.637.971-.612-2.858-.612-2.858s6.05,1.513,7.292,6.726c0,0,3.935-10.188.889-16.355-3.128-6.331-9.6-6.879-13.444-6.4a13.6,13.6,0,0,0-6.345,2.51s.312-1.873-.6-1.984c-1.242-.153-1.033,2.113-1.033,2.113S35.834,6.223,35.1,7.091s1.641,1.79,1.641,1.79-7.206,6.414-.3,18.611Z" transform="translate(-32.963 -4.109)" fill="#6b6d62"/>
        <path id="Trazado_772213" data-name="Trazado 772213" d="M57.674,27.882h-.034a.5.5,0,0,1-.45-.381A8.728,8.728,0,0,0,52.3,21.941c.6.776.788,1.373.565,1.784-.34.625-1.249.475-2,.274a29.613,29.613,0,0,1-5.584-2.539c.364.741.415,1.281.152,1.612-.427.537-1.251.249-1.921-.062a9.706,9.706,0,0,1-3.7-2.6c-3.93,2.174-3.03,6.679-2.988,6.876a.5.5,0,0,1-.92.349c-3.656-6.453-3.37-11.32-2.486-14.268A12.123,12.123,0,0,1,35.8,8.936c-.565-.3-1.252-.764-1.4-1.356a1.011,1.011,0,0,1,.223-.917,1.623,1.623,0,0,1,2.037-.275,2.287,2.287,0,0,1,.557-1.4,1.219,1.219,0,0,1,1.025-.329,1.072,1.072,0,0,1,.741.435,2.056,2.056,0,0,1,.336,1.068A14.484,14.484,0,0,1,45.055,4.14c3.017-.38,10.417-.487,13.953,6.669,3.107,6.291-.707,16.331-.871,16.755a.494.494,0,0,1-.462.318Zm-7.292-7.721a.506.506,0,0,1,.121.015c.235.058,5.264,1.365,7.171,5.659.922-2.949,2.709-10,.441-14.586C54.865,4.666,47.988,4.775,45.18,5.126a13.167,13.167,0,0,0-6.093,2.4.5.5,0,0,1-.8-.468,2.434,2.434,0,0,0-.1-1.368c-.192-.058-.242-.021-.277.014a2.436,2.436,0,0,0-.266,1.519.5.5,0,0,1-.81.431c-.01-.008-1.057-.823-1.448-.355,0,.219.654.7,1.441,1.007a.5.5,0,0,1,.15.834c-.266.238-6.087,5.648-1.2,16.058a6.9,6.9,0,0,1,4-5.893.5.5,0,0,1,.667.245s.627,1.226,3.489,2.552a3.636,3.636,0,0,0,.649.244,8.719,8.719,0,0,0-1.251-2.062.5.5,0,0,1,.652-.73c.046.028,4.642,2.811,7.143,3.479a3.51,3.51,0,0,0,.8.141A9.409,9.409,0,0,0,50.05,21.03a.5.5,0,0,1,.333-.869Z" transform="translate(-32.857 -4.001)"/>
      </g>
      <g id="Grupo_1043124" data-name="Grupo 1043124" transform="translate(34.17 15.464)">
        <path id="Trazado_772214" data-name="Trazado 772214" d="M41.223,22.347a5.05,5.05,0,0,1-.963-1.924,9.483,9.483,0,0,1-.466-1.873" transform="translate(-39.296 -18.053)" fill="#6b6d62"/>
        <path id="Trazado_772215" data-name="Trazado 772215" d="M41.112,22.736a.493.493,0,0,1-.351-.146,5.44,5.44,0,0,1-1.083-2.124,9.722,9.722,0,0,1-.488-1.994.5.5,0,1,1,.994-.057,6.854,6.854,0,0,0,.444,1.753,4.826,4.826,0,0,0,.845,1.728.5.5,0,0,1-.36.841Z" transform="translate(-39.188 -17.945)"/>
      </g>
      <path id="Trazado_772216" data-name="Trazado 772216" d="M41.381,8.264s2.155-2.183,8.195-2.1a10.538,10.538,0,0,1,10.5,10.083S56.742,3.5,41.381,8.264Z" transform="translate(-5.408 -0.384)" fill="#fff"/>
    </g>
  </g>
</svg>
