<svg xmlns="http://www.w3.org/2000/svg" width="116" height="116" viewBox="0 0 116 116">
  <g id="Grupo_1043349" data-name="Grupo 1043349" transform="translate(-645 -14725)">
    <g id="Elipse_4816" data-name="Elipse 4816" transform="translate(645 14725)" fill="#e0ebff" stroke="#0b62f8" stroke-width="1">
      <circle cx="58" cy="58" r="58" stroke="none"/>
      <circle cx="58" cy="58" r="57.5" fill="none"/>
    </g>
    <g id="coronavirus" transform="translate(662 14743)">
      <g id="Grupo_1043127" data-name="Grupo 1043127">
        <g id="Grupo_1043125" data-name="Grupo 1043125">
          <path id="Trazado_772217" data-name="Trazado 772217" d="M107.274,361.959c-3.364-.421-6.338-2.4-7.329-4.609a3.342,3.342,0,0,1-.04-2.887c1.473-3.077,5.051,0,5.051,0a5.926,5.926,0,0,0,2.9-4.077l2.352,1.2a18.654,18.654,0,0,0-1.234,5,4.865,4.865,0,0,1,1.982,2.174c.757,1.81-.322,3.614-3.686,3.193Z" transform="translate(-82.062 -288.703)" fill="#79e9b3"/>
          <path id="Trazado_772218" data-name="Trazado 772218" d="M131.108,117.359c0,10.818-7.605,20.027-18.235,23.472a30.028,30.028,0,0,1-9.265,1.451c-15.187,0-27.5-11.158-27.5-24.923s12.311-24.923,27.5-24.923a30.188,30.188,0,0,1,6.734.753C122.274,95.911,131.108,105.7,131.108,117.359Z" transform="translate(-62.711 -76.163)" fill="#b4ffc6"/>
          <path id="Trazado_772219" data-name="Trazado 772219" d="M109.715,140.948c-2.9.938-2.855,1.333-6.107,1.333-15.187,0-27.5-11.158-27.5-24.923s12.311-24.923,27.5-24.923a30.188,30.188,0,0,1,6.734.753C103.233,102.048,81.074,129.747,109.715,140.948Z" transform="translate(-62.711 -76.163)" fill="#79e9b3"/>
          <path id="Trazado_772220" data-name="Trazado 772220" d="M26.937,165.935v6.084a22.813,22.813,0,0,0-9,2.725,4.812,4.812,0,0,1-3.7,4.093c-4.843,1.127-9.3-13.149-3.421-18.421,3.776-3.385,5.422.1,6.116,3.024a20.808,20.808,0,0,0,7.346,2.424A14.262,14.262,0,0,0,26.937,165.935Z" transform="translate(-6.607 -131.028)" fill="#b4ffc6"/>
          <path id="Trazado_772221" data-name="Trazado 772221" d="M26.939,172.019a22.813,22.813,0,0,0-9,2.725,5.739,5.739,0,0,1-1.146,2.568,4.549,4.549,0,0,1-2.549,1.525c-4.7,1.093-9.04-12.334-3.9-17.941a6.564,6.564,0,0,1,.484-.481c3.776-3.385,5.422.1,6.116,3.024a20.808,20.808,0,0,0,7.346,2.424s4.367-2.681,4.8-1.739c.808,1.762-2.145,7.894-2.145,7.894Z" transform="translate(-6.61 -131.028)" fill="#79e9b3"/>
          <path id="Trazado_772222" data-name="Trazado 772222" d="M206.384,347.074c-3.017,5.089-21.449,4.079-21.506-1.676-.048-5.028,4.838-6.378,5.876-6.607q.214-.586.393-1.171a33.085,33.085,0,0,0,1.368-8l6.13-1.306s.062,1.208.327,2.979a31.5,31.5,0,0,0,2.118,7.788C202.386,339.585,209.111,342.463,206.384,347.074Z" transform="translate(-152.331 -270.518)" fill="#b4ffc6"/>
          <path id="Trazado_772223" data-name="Trazado 772223" d="M206.384,361.015c-3.017,5.089-21.449,4.079-21.506-1.676a5.945,5.945,0,0,1,2.063-4.725,8.983,8.983,0,0,1,3.813-1.882q.214-.586.393-1.171a11.386,11.386,0,0,0,7.825-6.325,31.5,31.5,0,0,0,2.118,7.788A12.942,12.942,0,0,1,206,356.262v0a3.846,3.846,0,0,1,.387,4.751Z" transform="translate(-152.331 -284.459)" fill="#79e9b3"/>
          <path id="Trazado_772224" data-name="Trazado 772224" d="M306.037,66.714a4.916,4.916,0,0,1-5.7-1.2,23.374,23.374,0,0,0-9.6,4.454,17.969,17.969,0,0,0-1.9,1.723l-4.861-5.547.007,0c7.316-1.671,10.508-9.837,10.508-9.837-1.271-2.739-2.183-6.579,2.929-6.225C305.292,50.625,310.549,64.626,306.037,66.714Z" transform="translate(-233.979 -41.244)" fill="#b4ffc6"/>
          <path id="Trazado_772225" data-name="Trazado 772225" d="M306.07,66.714a4.529,4.529,0,0,1-4.278-.144,7,7,0,0,1-1.421-1.056,23.374,23.374,0,0,0-9.6,4.454c0-4.683-6.528-3.855-6.758-3.825,7.316-1.671,10.508-9.837,10.508-9.837a10.184,10.184,0,0,1-.968-3.151c-.174-1.815.634-3.3,3.9-3.074C305.325,50.626,310.582,64.626,306.07,66.714Z" transform="translate(-234.012 -41.245)" fill="#79e9b3"/>
          <path id="Trazado_772226" data-name="Trazado 772226" d="M351.055,196.842a4.859,4.859,0,0,1-3.493-4.466,22.13,22.13,0,0,0-7.971-2.924,19.312,19.312,0,0,0-4.783-.146l-.028-7.376.016.007q.37.2.741.364s.005,0,.009,0c6.438,2.866,13.626-.9,13.626-.9.84-2.9,2.671-6.394,6.294-2.774,5.586,5.582.366,19.6-4.41,18.21Z" transform="translate(-275.844 -145.912)" fill="#b4ffc6"/>
          <path id="Trazado_772227" data-name="Trazado 772227" d="M354.639,196.842a4.5,4.5,0,0,1-2.693-2,6.144,6.144,0,0,1-.8-2.468,22.13,22.13,0,0,0-7.971-2.924c1.69-3.621-2.3-6.22-4.045-7.147,6.438,2.866,13.626-.9,13.626-.9.84-2.9,2.671-6.394,6.294-2.774,5.586,5.582.366,19.6-4.41,18.21Z" transform="translate(-279.428 -145.912)" fill="#79e9b3"/>
          <path id="Trazado_772228" data-name="Trazado 772228" d="M184.644,18.908a4.211,4.211,0,0,1-3.582,2.155A54.205,54.205,0,0,0,178.045,32.4a4.9,4.9,0,0,1-1.639,3.3l-4.622.344a18.633,18.633,0,0,0-5.317-14.49c-4.406-.713-5.464-3.85.995-6.059C175.4,12.778,185.952,15.894,184.644,18.908Z" transform="translate(-134.214 -11.908)" fill="#b4ffc6"/>
          <path id="Trazado_772229" data-name="Trazado 772229" d="M184.646,18.906a4.211,4.211,0,0,1-3.583,2.155c-1.6,3.919-1.061,12.609-5.081,15.36-4.183-.555-4.2-.382-4.2-.382a18.633,18.633,0,0,0-5.317-14.49,8.008,8.008,0,0,1-1.7-.454c-2.857-1.151-2.827-3.718,2.692-5.605a22.775,22.775,0,0,1,13.79.062C183.719,16.412,185.183,17.667,184.646,18.906Z" transform="translate(-134.217 -11.906)" fill="#79e9b3"/>
          <path id="Trazado_772230" data-name="Trazado 772230" fill="none" stroke="#000" stroke-linecap="round" stroke-linejoin="round" stroke-miterlimit="10" stroke-width="4"/>
          <path id="Trazado_772231" data-name="Trazado 772231" d="M64.119,56.88,57.688,60.2a20.757,20.757,0,0,0-12.059-9.126c-4.933,2.149-6.581-1.042-1.908-7.755,5.528-7.938,15.675-8.741,14.973-4.924A9.229,9.229,0,0,1,56.458,42.6a21.558,21.558,0,0,0,5.8,12.5A17.723,17.723,0,0,0,64.119,56.88Z" transform="translate(-33.743 -29.81)" fill="#b4ffc6"/>
          <path id="Trazado_772232" data-name="Trazado 772232" d="M68.306,57.806c-4.371.213-10.618,2.391-10.618,2.391a20.757,20.757,0,0,0-12.059-9.126c-.3.129-.581.239-.852.329-4.255,1.424-5.449-1.775-1.056-8.084a16.885,16.885,0,0,1,10.221-6.954c2.938-.565,5.088.2,4.751,2.03A9.23,9.23,0,0,1,56.458,42.6C56.977,48.493,66.209,55.538,68.306,57.806Z" transform="translate(-33.743 -29.811)" fill="#79e9b3"/>
          <path id="Trazado_772233" data-name="Trazado 772233" d="M327.269,304.65c-5.528,7.938-15.675,8.742-14.973,4.924a9.244,9.244,0,0,1,2.262-4.239,18.325,18.325,0,0,0-1.944-6.839,25.967,25.967,0,0,0-2.076-3.45l5.243-3.959,0,0a22.714,22.714,0,0,0,9.4,5.885C330.252,294.672,332,297.86,327.269,304.65Z" transform="translate(-255.871 -239.842)" fill="#b4ffc6"/>
          <path id="Trazado_772234" data-name="Trazado 772234" d="M335.33,304.667c-5.528,7.938-15.675,8.742-14.973,4.924a7.882,7.882,0,0,1,1.167-2.8,12.3,12.3,0,0,1,1.1-1.442,18.325,18.325,0,0,0-1.944-6.839c6.575-2.642,3.278-7.258,3.171-7.406a22.713,22.713,0,0,0,9.4,5.885,9.368,9.368,0,0,1,1.595-.574C338.626,295.46,339.522,298.649,335.33,304.667Z" transform="translate(-263.932 -239.858)" fill="#79e9b3"/>
          <path id="Trazado_772235" data-name="Trazado 772235" d="M23.036,276.1s-2.943,1.213-5.577,6.144a28.025,28.025,0,0,0-2.017,4.9c1.238,1.87,1.975,4.318-.713,6.123C9.772,296.6,2,284.808,2,280.252c0-3.637,3.5-4.149,6.278-1.329a21.6,21.6,0,0,0,6.526-2.736,15.9,15.9,0,0,0,4.547-4.241Z" transform="translate(-1.648 -224.072)" fill="#b4ffc6"/>
          <path id="Trazado_772236" data-name="Trazado 772236" d="M16.536,309.7a3.507,3.507,0,0,1-1.808,3.413C9.772,316.447,2,304.657,2,300.1q0-.24.021-.459c.285-3.216,3.6-3.567,6.257-.87a21.6,21.6,0,0,0,6.526-2.736,48.317,48.317,0,0,1,2.655,6.054,28.026,28.026,0,0,0-2.017,4.9A6.281,6.281,0,0,1,16.536,309.7Z" transform="translate(-1.648 -243.921)" fill="#79e9b3"/>
        </g>
        <g id="Grupo_1043126" data-name="Grupo 1043126" transform="translate(0.352 2.544)">
          <path id="Trazado_772237" data-name="Trazado 772237" d="M175.763,18.274c-7.876-.614-11.5.333-10.99,2.82-2.857-1.151-2.827-3.718,2.692-5.605a22.775,22.775,0,0,1,13.79.062C181.772,17.088,181.219,18.7,175.763,18.274Z" transform="translate(-134.569 -14.45)" fill="#b4ffc6"/>
          <path id="Trazado_772238" data-name="Trazado 772238" d="M53.24,42.064c-6.095,3.489-9.019,5.493-8.462,10.189-4.255,1.424-5.449-1.775-1.056-8.084a16.885,16.885,0,0,1,10.221-6.954c1.533,1.465,2.125,3.23-.7,4.848Z" transform="translate(-34.095 -33.208)" fill="#b4ffc6"/>
          <path id="Trazado_772239" data-name="Trazado 772239" d="M16.794,186.082a4.549,4.549,0,0,1-2.549,1.525c-4.7,1.093-9.04-12.334-3.9-17.941,2.164,1.044,4.933,3.119,4.016,6.706C13.065,181.419,13.548,185.388,16.794,186.082Z" transform="translate(-6.962 -142.341)" fill="#b4ffc6"/>
          <path id="Trazado_772240" data-name="Trazado 772240" d="M14.728,327.979C9.772,331.309,2,319.52,2,314.964q0-.24.021-.459c1.167-.713,3.452-1.1,6.258,3.549,3.709,6.147,5.5,6.647,8.256,6.512A3.507,3.507,0,0,1,14.728,327.979Z" transform="translate(-2 -261.327)" fill="#b4ffc6"/>
          <path id="Trazado_772241" data-name="Trazado 772241" d="M108.909,386.57c-3.364-.421-6.338-2.4-7.329-4.609.655-1.007,2.123-2.753,3.505-.87a6.6,6.6,0,0,0,7.51,2.285C113.352,385.186,112.273,386.991,108.909,386.57Z" transform="translate(-84.05 -315.857)" fill="#b4ffc6"/>
          <path id="Trazado_772242" data-name="Trazado 772242" d="M206.384,404.907c-3.017,5.089-21.449,4.079-21.506-1.676a5.945,5.945,0,0,1,2.063-4.725c.993.287,2.2,1.164,3.3,3.415,2.407,4.947,15.49,3.723,15.758-1.766A3.846,3.846,0,0,1,206.384,404.907Z" transform="translate(-152.683 -330.895)" fill="#b4ffc6"/>
          <path id="Trazado_772243" data-name="Trazado 772243" d="M335.33,328.739c-5.528,7.938-15.675,8.742-14.973,4.924a7.882,7.882,0,0,1,1.167-2.8c.937.984,2.921,2.179,6.825-.477,5.037-3.426,6.394-7.183,6.489-9.9C338.626,319.532,339.522,322.722,335.33,328.739Z" transform="translate(-264.284 -266.475)" fill="#b4ffc6"/>
          <path id="Trazado_772244" data-name="Trazado 772244" d="M414.623,196.842a4.5,4.5,0,0,1-2.693-2c1.188-3.419,5.781-4.063,5.382-9.41-.44-5.9-4.572-4.028-4.572-4.028.84-2.9,2.671-6.394,6.294-2.774C424.619,184.215,419.4,198.229,414.623,196.842Z" transform="translate(-339.764 -148.455)" fill="#b4ffc6"/>
          <path id="Trazado_772245" data-name="Trazado 772245" d="M350.616,66.714a4.529,4.529,0,0,1-4.278-.144,14.19,14.19,0,0,0-1.148-9.656c-2.487-4.611-5.477-4.361-7.095-3.76-.174-1.815.634-3.3,3.9-3.074C349.871,50.626,355.128,64.626,350.616,66.714Z" transform="translate(-278.91 -43.789)" fill="#b4ffc6"/>
        </g>
      </g>
      <path id="Trazado_772246" data-name="Trazado 772246" d="M79.871,42.719c-3.177-3.174-5.557-1.51-6.837,2.775a20.417,20.417,0,0,1-4.713,1.528,24.163,24.163,0,0,0-5.451-11.11A22.975,22.975,0,0,1,66.254,34.9a5.164,5.164,0,0,0,5.952,1.138c4.928-2.28-.568-16.739-8.746-17.305-4.481-.311-5.186,2.509-3.338,6.583a20.305,20.305,0,0,1-3.434,5.309,29.531,29.531,0,0,0-11.654-4.175A46.826,46.826,0,0,1,47.1,19.723c1.853-.284,3.115-1.088,3.655-2.335a1.8,1.8,0,0,0-.481-2.043c-1.126-1.221-3.8-2.248-6.974-2.68a22.641,22.641,0,0,0-10.163.833c-4.353,1.489-4.878,3.187-4.8,4.066.107,1.261,1.545,2.274,3.761,2.656a17.268,17.268,0,0,1,3.981,6.328,29.141,29.141,0,0,0-10.739,3.933,19.472,19.472,0,0,1-2.255-7.324A9.311,9.311,0,0,0,25.3,18.892,1.979,1.979,0,0,0,23.966,16.6c-2.982-1.244-10.026.845-14.277,6.948-2.64,3.793-3.486,6.782-2.322,8.2.807.984,2.42,1.028,4.549.125a20.945,20.945,0,0,1,7.235,3.774,24.393,24.393,0,0,0-4.868,8.325,21.007,21.007,0,0,1-3.647-1.55c-1.065-4.319-3.358-6.012-6.657-3.054C-2.114,44.839,2.417,59.631,7.715,58.4a5.1,5.1,0,0,0,3.926-4.2c.5-.258,1-.5,1.5-.72a23.193,23.193,0,0,0,1.8,7.138,20.79,20.79,0,0,1-8.2,4.1C3.738,61.8,0,62.555,0,66.428c0,4.854,8.013,16.845,13.276,13.307,2.308-1.549,2.619-3.784.9-6.468a23.839,23.839,0,0,1,3.763-7.51,26.7,26.7,0,0,0,7.392,6.648,5.841,5.841,0,0,1-2.42,3.168c-1.982-1.52-4.3-2-5.39.282a3.77,3.77,0,0,0,.217,3.544c1.5,2.742,5.383,4.52,8.424,4.519,4.024,0,4.375-3.8,1.12-5.963a15.793,15.793,0,0,1,.946-4,29.672,29.672,0,0,0,10.427,2.678c-.156.552-.324,1.084-.5,1.587-1.362.338-6.009,1.865-5.962,6.909.019,1.982,1.955,3.592,5.45,4.532a26.321,26.321,0,0,0,9.692.578c3.553-.46,6.046-1.617,7.019-3.258,2.226-3.764-1.277-6.824-5.333-8.444a24.31,24.31,0,0,1-.959-2.669,28.819,28.819,0,0,0,9.457-4.148,16.753,16.753,0,0,1,.8,3.9,9.328,9.328,0,0,0-2.245,4.3c-.8,4.334,9.828,3.64,15.607-4.66,2.649-3.8,3.492-6.8,2.313-8.212-.834-1-2.5-1.016-4.708-.042a22.568,22.568,0,0,1-4.744-2.209A23.546,23.546,0,0,0,68.4,55.45a22.864,22.864,0,0,1,2.995,1.478,5.128,5.128,0,0,0,3.721,4.589c5.211,1.511,10.559-13,4.757-18.8ZM75.31,60.84a4.459,4.459,0,0,1-3.241-4.17,9.672,9.672,0,0,1,.127-2.955.352.352,0,0,0-.686-.158,10.26,10.26,0,0,0-.194,2.515A21.427,21.427,0,0,0,58.93,53.29a.352.352,0,0,0,.068.7,19.934,19.934,0,0,1,8.729,1.2,22.845,22.845,0,0,1-3.775,9.225,20.673,20.673,0,0,1-3.784-3.166.352.352,0,0,0-.515.48,21.7,21.7,0,0,0,4.191,3.453l0,0A23.946,23.946,0,0,0,68.4,67.439a20.94,20.94,0,0,0-2.121,1.3.352.352,0,0,0,.4.58A18.381,18.381,0,0,1,69.458,67.7c1.173-.534,3.178-1.192,4-.2.73.877.5,3.271-2.35,7.359-5.327,7.651-14.932,8.43-14.336,5.19a8.753,8.753,0,0,1,2.18-4.072,16.2,16.2,0,0,1,2.7-2.433.352.352,0,0,0-.393-.584,16,16,0,0,0-2.294,1.97,17.863,17.863,0,0,0-.907-3.828A.354.354,0,0,0,58.02,71a24.15,24.15,0,0,0-3.064-5.757.352.352,0,0,0-.575.407,23.633,23.633,0,0,1,2.9,5.38,28.1,28.1,0,0,1-9.412,4.159,38.222,38.222,0,0,1-1.2-7.165.352.352,0,0,0-.7.036,38.846,38.846,0,0,0,1.319,7.647,18.075,18.075,0,0,0,3.6,7.143.352.352,0,0,0,.52-.476A12.7,12.7,0,0,1,49.476,79.5c1.427.659,3.991,2.089,4.69,4.1a3.5,3.5,0,0,1-.416,3.017c-.847,1.429-3.218,2.493-6.5,2.919a25.583,25.583,0,0,1-9.419-.56c-3.117-.838-4.913-2.244-4.929-3.858-.038-4.06,3.357-5.591,4.953-6.086a16.873,16.873,0,0,1-2.169,3.969.352.352,0,0,0,.562.425A20.46,20.46,0,0,0,39.454,76.4v0a33.872,33.872,0,0,0,1.081-7.04.352.352,0,0,0-.344-.36.356.356,0,0,0-.36.344,33.156,33.156,0,0,1-.985,6.6,28.982,28.982,0,0,1-10.373-2.65.838.838,0,0,0,.024-.1.352.352,0,1,0-.7-.111,18.007,18.007,0,0,0-1.237,5.028,15.818,15.818,0,0,0-.031,2.474.352.352,0,0,0,.7-.045,15.518,15.518,0,0,1-.012-1.755c2.439,1.894,2.177,4.892-1.97,4.375-4.524-.566-8.459-4.147-7.1-6.995a1.833,1.833,0,0,1,1.266-1.13,4.157,4.157,0,0,1,2.834.938,8.987,8.987,0,0,1-1.254.557.352.352,0,0,0,.237.663,7.1,7.1,0,0,0,4.842-4.866,2.861,2.861,0,0,0,.064-.359.352.352,0,0,0-.615-.262A25.943,25.943,0,0,1,18.4,65.2a9.8,9.8,0,0,1,3.12-2.6.352.352,0,0,0-.268-.651,10.432,10.432,0,0,0-3.574,3.011,23.587,23.587,0,0,0-4.006,7.586,14.646,14.646,0,0,0-2.111-2.236.352.352,0,0,0-.448.543A13.96,13.96,0,0,1,13.5,73.514c1.432,2.157,1.57,4.169-.615,5.636a3.61,3.61,0,0,1-3.906-.1C4.712,76.774.7,69.516.7,66.428c0-3.435,3.236-3.561,5.675-1.082h0a9.713,9.713,0,0,1,1.829,2.679.352.352,0,1,0,.637-.3A10.745,10.745,0,0,0,7.289,65.3a19.16,19.16,0,0,0,10.7-6.975.352.352,0,1,0-.576-.405,14.366,14.366,0,0,1-1.923,2.2,22.454,22.454,0,0,1-1.671-6.935,21,21,0,0,1,6.531-1.6.352.352,0,0,0-.044-.7,22.94,22.94,0,0,0-8.525,2.45,10.322,10.322,0,0,0-.04-2.688.352.352,0,0,0-.694.12,9.676,9.676,0,0,1-.065,3.127,4.429,4.429,0,0,1-3.429,3.818C3.168,58.733-1.2,44.965,4.45,39.9c1.2-1.077,2.237-1.489,3.08-1.225,1.333.418,2.072,2.443,2.458,4.069a20.745,20.745,0,0,1,.468,3.023.352.352,0,0,0,.7-.044,20.716,20.716,0,0,0-.325-2.393,19.009,19.009,0,0,0,9.521,2.179.352.352,0,1,0-.049-.7,15.753,15.753,0,0,1-5.347-.627,23.7,23.7,0,0,1,4.731-8.071,18.835,18.835,0,0,1,3.953,4.707.352.352,0,0,0,.607-.357,21.02,21.02,0,0,0-11.381-9.028A20.742,20.742,0,0,0,15.1,30.071a.352.352,0,1,0-.4-.58,18.028,18.028,0,0,1-2.955,1.692c-1.133.5-3.047,1.082-3.835.122-.722-.881-.482-3.275,2.356-7.352,3.991-5.73,10.725-7.828,13.428-6.7a1.279,1.279,0,0,1,.91,1.512,8.733,8.733,0,0,1-2.153,4.042,16.1,16.1,0,0,1-2.723,2.462.352.352,0,0,0,.394.584,16.1,16.1,0,0,0,2.327-2,20.375,20.375,0,0,0,2.442,7.3,22.781,22.781,0,0,0,5.267,6.448.352.352,0,1,0,.433-.555A22.4,22.4,0,0,1,25.675,31.1a28.453,28.453,0,0,1,10.631-3.874,19.553,19.553,0,0,1,.912,7.138.352.352,0,0,0,.7.037,19.51,19.51,0,0,0-4.715-14.042,14.87,14.87,0,0,0,2.587-.045.352.352,0,0,0-.07-.7,13.157,13.157,0,0,1-3.415-.068c-1.912-.309-3.2-1.11-3.277-2.038-.1-1.131,1.523-2.38,4.33-3.34,7.908-2.7,17.815.478,16.745,2.944-.462,1.066-1.573,1.721-3.3,1.945a11.879,11.879,0,0,1-3.051-.043.352.352,0,0,0-.115.695,12.457,12.457,0,0,0,2.67.1,48.882,48.882,0,0,0-2.051,6.86,65.515,65.515,0,0,0-1.316,8.172.352.352,0,1,0,.7.057,64.563,64.563,0,0,1,1.231-7.758,28.84,28.84,0,0,1,11.317,4.007,12.8,12.8,0,0,1-6.28,3.658.352.352,0,0,0,.156.687,13.65,13.65,0,0,0,6.937-4.173,20.864,20.864,0,0,0,3.516-5.176A20.593,20.593,0,0,0,61.7,28.149a.352.352,0,1,0,.581-.4c-1.169-1.727-3.244-5.658-2.054-7.388.5-.729,1.575-1.042,3.187-.93C70.98,19.958,76,33.505,71.911,35.4c-1.83.847-3.617.464-5.309-1.137a9.855,9.855,0,0,1-1.716-2.195.352.352,0,0,0-.621.332,10.26,10.26,0,0,0,1.4,1.914A23.024,23.024,0,0,0,54.6,40.452a.352.352,0,1,0,.511.484,21.342,21.342,0,0,1,7.074-4.743,23.491,23.491,0,0,1,5.445,10.95A13.492,13.492,0,0,1,59.1,45.955a.352.352,0,0,0-.333.621c5.623,3.014,11.938.726,14.022-.191a20.457,20.457,0,0,0-.432,2.284.352.352,0,1,0,.7.082,20.427,20.427,0,0,1,.607-2.911c.413-1.427,1.253-3.641,2.693-4.011.856-.22,1.871.247,3.014,1.389,5.367,5.363.264,18.88-4.063,17.623Z" transform="translate(0 -10.247)"/>
    </g>
  </g>
</svg>
