<svg xmlns="http://www.w3.org/2000/svg" width="116" height="116" viewBox="0 0 116 116">
  <g id="Grupo_1043979" data-name="Grupo 1043979" transform="translate(-864 -14804)">
    <g id="Elipse_4817" data-name="Elipse 4817" transform="translate(864 14804)" fill="#e0ebff" stroke="#0b62f8" stroke-width="1">
      <circle cx="58" cy="58" r="58" stroke="none"/>
      <circle cx="58" cy="58" r="57.5" fill="none"/>
    </g>
    <g id="droga" transform="translate(858.264 14829.065)">
      <g id="Grupo_1043129" data-name="Grupo 1043129" transform="translate(37.405 -7.773)">
        <path id="Trazado_772247" data-name="Trazado 772247" d="M104.733,225.607a2.507,2.507,0,0,0,1.273-1.479s.965-4.033-4.729-7.215a17.992,17.992,0,0,0-8.963-2.024,8.235,8.235,0,0,0-1.189-1.865c-2.777-3.222-7.652-2.682-15.256,1.487-7.964,4.366-11.665,4.826-12.376,4.875a16.925,16.925,0,0,0-2.479-8.526c-2.357-3.677-7.784-5.92-12.056-5.937-2.748-.01-5.02.9-5.684,2.948-.813,2.5.932,4.492,3.056,6.069A9.334,9.334,0,0,1,49.9,223.3c-.642,3.118-.146,5.238.895,6.671-1.2.187-6.942,1.164-10.06,3.163l9.206,15.807c7.309-4.247,11.87-3.874,12.227-3.837l.012,0,.012,0c4.59.941,9.752-2.73,12.987-5.625q.01.083.025.165a9.706,9.706,0,0,1,7.759-.972,27.966,27.966,0,0,1,7.859,3.8c3.7,2.554,8.217.144,8.3-3.279a4.564,4.564,0,0,0-.769-2.577c4.74.894,6.522-1.229,7.122-2.365v0a3.225,3.225,0,0,0,.271-.657s.714-1.957-2.628-4.818a18.1,18.1,0,0,0-3.633-2.327c2.723.181,4.317-.281,5.246-.838Z" transform="translate(-40.736 -169.342)" fill="#fad7d4"/>
        <g id="Grupo_1043128" data-name="Grupo 1043128" transform="translate(2.334 35.58)">
          <path id="Trazado_772248" data-name="Trazado 772248" d="M174.445,377.188c-6.216-3.793-12.7-3.188-16.464-4.512-10.126-3.342-14.5,9.007-14.5,9.007a7.6,7.6,0,0,0,4.246,2.63l.012,0,.012,0c3.142.644,6.552-.873,9.428-2.824a33.957,33.957,0,0,0,3.557-2.8c0,.013,0,.026,0,0a9.725,9.725,0,0,1,7.784-.806,27.966,27.966,0,0,1,7.859,3.8c3.7,2.554,8.217.144,8.3-3.279C184.179,379.707,179,379.97,174.445,377.188Z" transform="translate(-128.628 -344.136)" fill="#f7bcb8"/>
          <path id="Trazado_772249" data-name="Trazado 772249" d="M283.984,304.917c-.928.557-2.523,1.019-5.246.838-8.946-4.358-20.417-1.541-22.019-1.112L256,302.486S276.485,295.9,283.984,304.917Z" transform="translate(-222.321 -284.232)" fill="#f7bcb8"/>
          <path id="Trazado_772250" data-name="Trazado 772250" d="M315.361,359.434v0c-.771,1.462-3.5,4.56-11.977.754a28.738,28.738,0,0,0-9.859-2.532,2.928,2.928,0,0,0-.744-1.811c.514-.147,0,0,0,0a13.158,13.158,0,0,1,5.485-.492C305.638,356.224,309.882,361.011,315.361,359.434Z" transform="translate(-252.952 -330.109)" fill="#f7bcb8"/>
          <path id="Trazado_772251" data-name="Trazado 772251" d="M70.537,232.28a3.389,3.389,0,0,1-2.2.56,10.666,10.666,0,0,1-3.145-.734,6.413,6.413,0,0,1-2.779-2.14c-1.04-1.434-1.537-3.553-.895-6.671a9.334,9.334,0,0,0-3.571-9.356c-2.124-1.577-3.869-3.566-3.056-6.069.664-2.046,2.936-2.958,5.684-2.948a8.191,8.191,0,0,0,2.683,8.193c4.062,3.409,1.378,10.914,3.192,13.329a7.291,7.291,0,0,0,3.6,2.235,2.013,2.013,0,0,1,.488,3.6Z" transform="translate(-54.689 -204.923)" fill="#f7bcb8"/>
          <path id="Trazado_772252" data-name="Trazado 772252" d="M257.6,254.986c-8.374.151-16.278,4.876-17.56,5.679l-.815-1.68s8.424-6.522,17.185-5.865A8.235,8.235,0,0,1,257.6,254.986Z" transform="translate(-208.356 -245.02)" fill="#f7bcb8"/>
        </g>
        <path id="Trazado_772253" data-name="Trazado 772253" d="M199,85.91l-4.152,4.682-8.008,9.032a4.857,4.857,0,0,1-.39.4c-2.462,2.22-6.867,1.347-9.835-1.947a10.312,10.312,0,0,1-1.9-3.009c-1.067-2.641-.776-5.385.989-6.976a4.47,4.47,0,0,1,.825-.589l9.047-6.5,5.47-3.928a5.974,5.974,0,0,1,8.388,1.43v0A5.978,5.978,0,0,1,199,85.91Z" transform="translate(-151.78 -61.949)" fill="#ff8a65"/>
        <path id="Trazado_772254" data-name="Trazado 772254" d="M202.092,98.624l-12.16,13.714a4.861,4.861,0,0,1-.39.4c-2.462,2.22-6.867,1.347-9.835-1.947a10.312,10.312,0,0,1-1.9-3.009l0,0a14.569,14.569,0,0,0,5.509,1.133h.025a2.7,2.7,0,0,0,2.046-4.45,22.773,22.773,0,0,0-5.768-4.245c2.536-1.424,6.35-.417,9.012,2.536l.026.029a3.562,3.562,0,0,0,5.1.256c3.609-3.377,8.978-8.916,8.768-11.813A5.978,5.978,0,0,1,202.092,98.624Z" transform="translate(-154.877 -74.663)" fill="#ff7043"/>
        <path id="Trazado_772255" data-name="Trazado 772255" d="M256.152,85.91,252,90.592a6.936,6.936,0,0,0-.524-3.908,10.036,10.036,0,0,0-1.859-2.887A7.887,7.887,0,0,0,242.726,81l5.47-3.928a5.974,5.974,0,0,1,8.388,1.43v0A5.978,5.978,0,0,1,256.152,85.91Z" transform="translate(-208.937 -61.949)" fill="#fbf5f7"/>
        <path id="Trazado_772256" data-name="Trazado 772256" d="M299.712,98.624l-4.152,4.682a6.936,6.936,0,0,0-.524-3.908c2.75-2.931,5.251-6.179,5.107-8.175A5.978,5.978,0,0,1,299.712,98.624Z" transform="translate(-252.496 -74.663)" fill="#ede3e7"/>
        <path id="Trazado_772257" data-name="Trazado 772257" d="M154.448,17.4a9.664,9.664,0,0,1-2.471,3.369c-1.833,1.584-4.1,2.171-6,1.318L142.445,20.5l3.14-7,3.2-7.131,3.533,1.586C155.245,9.272,156.2,13.5,154.448,17.4Z" transform="translate(-125.431 -4.007)" fill="#ffc107"/>
        <path id="Trazado_772258" data-name="Trazado 772258" d="M170.078,17.4a9.664,9.664,0,0,1-2.471,3.369L161.215,13.5l3.2-7.131,3.533,1.586C170.876,9.272,171.827,13.5,170.078,17.4Z" transform="translate(-141.061 -4.007)" fill="#ffb300"/>
        <ellipse id="Elipse_4834" data-name="Elipse 4834" cx="7.744" cy="5.808" rx="7.744" ry="5.808" transform="translate(11.707 14.125) rotate(-65.845)" fill="#ffd54f"/>
      </g>
      <g id="Grupo_1043130" data-name="Grupo 1043130" transform="translate(36.736 -6.473)">
        <path id="Trazado_772259" data-name="Trazado 772259" d="M98.264,213a18.489,18.489,0,0,0-8.869-2.108c-3.4-6.464-10.74-3.821-17.179-.292-6.4,3.509-9.97,4.452-11.424,4.706a17.051,17.051,0,0,0-2.546-8.132c-4.082-6.37-17.005-8.788-18.94-2.835-1.143,3.518,2.2,6,3.294,6.813a8.674,8.674,0,0,1,3.315,8.684,9.637,9.637,0,0,0,.47,6.311c-2.26.409-6.664,1.38-9.341,3.1a.669.669,0,1,0,.722,1.126c2.749-1.762,7.736-2.719,9.419-3,1.671,2.006,4.32,2.651,6.3,2.832a.669.669,0,1,0,.122-1.333c-1.808-.165-4.247-.753-5.6-2.615-1.251-1.725-1.213-4.048-.782-6.144A10.017,10.017,0,0,0,43.4,210.079c-2.5-1.856-3.4-3.549-2.819-5.325,1.475-4.539,12.934-2.486,16.541,3.144a16.038,16.038,0,0,1,2.374,8.19h0a19.934,19.934,0,0,1-.382,4.814.669.669,0,0,0,1.3.312,20.475,20.475,0,0,0,.432-4.559c1.567-.245,5.3-1.2,12.015-4.88,5.491-3.01,9.453-4.055,12.114-3.194a5.323,5.323,0,0,1,2.906,2.361c-8.805.548-16.661,5.633-17,5.857a.669.669,0,0,0,.733,1.119c.084-.055,8.542-5.525,17.386-5.684h0a17.324,17.324,0,0,1,8.624,1.939c5.138,2.871,4.436,6.334,4.4,6.475a.2.2,0,0,0-.005.021c-.044.142-.748,2.084-5.7,1.791-9.739-4.663-22.04-1.193-22.561-1.042a.669.669,0,0,0,.372,1.286c.123-.036,12.441-3.506,21.73,1.019a17.084,17.084,0,0,1,3.491,2.234c2.766,2.367,2.462,3.958,2.43,4.09a.348.348,0,0,0-.016.055,3.724,3.724,0,0,1-2.015,2.211c-2.071.99-5.287.562-9.3-1.239a29.465,29.465,0,0,0-11.916-2.651.669.669,0,0,0,.01,1.338,28.735,28.735,0,0,1,11.328,2.52A23.679,23.679,0,0,0,94.6,233.89a3.446,3.446,0,0,1-.6,4.4,4.807,4.807,0,0,1-6.13.31,28.627,28.627,0,0,0-8.047-3.889,10.358,10.358,0,0,0-9.583,1.946c-4.936,4.071-10.98,6.892-15.143,2.057a.669.669,0,1,0-1.014.873,9.391,9.391,0,0,0,1.9,1.7,28.808,28.808,0,0,0-9.708,3.752.669.669,0,1,0,.672,1.157c7.042-4.092,11.427-3.787,11.808-3.751,4.285.862,8.979-1.986,12.337-4.755a9.021,9.021,0,0,1,8.346-1.7A27.29,27.29,0,0,1,87.11,239.7c4.769,3.3,10.722-.782,9.061-5.566a7.867,7.867,0,0,0,4.2-.629,5.09,5.09,0,0,0,2.687-3.04c.122-.377.624-2.561-2.842-5.527a18.156,18.156,0,0,0-1.578-1.167c3.98-.395,4.618-2.509,4.687-2.806C103.371,220.776,104.34,216.4,98.264,213Z" transform="translate(-36.736 -167.32)"/>
        <path id="Trazado_772260" data-name="Trazado 772260" d="M153.772,374.4a.668.668,0,0,0,.549-.286c2.236-3.2,6.035-6.6,11.438-4.572a.669.669,0,1,0,.47-1.253c-5.334-2-9.783.444-13,5.059A.67.67,0,0,0,153.772,374.4Z" transform="translate(-133.636 -306.094)"/>
        <path id="Trazado_772261" data-name="Trazado 772261" d="M215.876,141.381A9.626,9.626,0,0,1,221.5,147.4a.669.669,0,1,0,1.28-.391,11.009,11.009,0,0,0-6.434-6.881.669.669,0,1,0-.469,1.253Z" transform="translate(-185.547 -116.651)"/>
        <path id="Trazado_772262" data-name="Trazado 772262" d="M171.925,84.249a5.983,5.983,0,0,0-1.8,5.147c.439,4.8,5.035,9.181,9.6,9.181a5.623,5.623,0,0,0,3.838-1.4c.514-.462.692-.7,12.6-14.164a6.65,6.65,0,0,0-8.846-9.822C173,83.415,172.443,83.781,171.925,84.249ZM188.1,74.277a5.312,5.312,0,0,1,7.066,7.846l-2.941,3.325a9.669,9.669,0,0,0-2.6-5.443,8.9,8.9,0,0,0-5.372-2.985Zm-5.645,4.029a7.224,7.224,0,0,1,6.18,2.595c2.549,2.83,2.351,5.421,2.254,6.058-8.656,9.787-7.266,8.246-8.233,9.235a4.688,4.688,0,0,1-4.136.921,9.372,9.372,0,0,1-7.064-7.842,4.688,4.688,0,0,1,1.347-4.018C173.85,84.425,172.246,85.594,182.458,78.306Z" transform="translate(-147.784 -59.905)"/>
        <path id="Trazado_772263" data-name="Trazado 772263" d="M123.88,15.807l3.533,1.586a5.127,5.127,0,0,0,2.112.446c2.782,0,5.735-2.112,7.242-5.47,1.9-4.233.792-8.866-2.466-10.327L130.771.456a5.824,5.824,0,0,0-5.276.412,10.325,10.325,0,0,0-4.812,10.724A5.813,5.813,0,0,0,123.88,15.807Zm2.263-13.768a4.512,4.512,0,0,1,4.076-.364l3.535,1.587c2.585,1.159,3.389,5,1.793,8.559s-5,5.511-7.585,4.351l-.319-.143c3.33-.958,6.285-4.677,6.513-8.978a.669.669,0,1,0-1.336-.071c-.277,5.215-5.006,9.133-8.392,7.606a4.527,4.527,0,0,1-2.44-3.287,8.991,8.991,0,0,1,4.155-9.259Z" transform="translate(-106.47 0.001)"/>
      </g>
    </g>
  </g>
</svg>
