<svg xmlns="http://www.w3.org/2000/svg" xmlns:xlink="http://www.w3.org/1999/xlink" width="451.826" height="300" viewBox="0 0 451.826 300">
  <defs>
    <clipPath id="clip-path">
      <rect id="Rectángulo_355562" data-name="Rectángulo 355562" width="248.76" height="264.61" fill="none"/>
    </clipPath>
    <clipPath id="clip-path-3">
      <rect id="Rectángulo_355555" data-name="Rectángulo 355555" width="170.602" height="92.082" fill="none"/>
    </clipPath>
    <clipPath id="clip-path-4">
      <rect id="Rectángulo_355556" data-name="Rectángulo 355556" width="12.911" height="7.571" fill="none"/>
    </clipPath>
    <clipPath id="clip-path-6">
      <rect id="Rectángulo_355558" data-name="Rectángulo 355558" width="8.735" height="23.309" fill="none"/>
    </clipPath>
    <clipPath id="clip-path-7">
      <rect id="Rectángulo_355560" data-name="Rectángulo 355560" width="80.88" height="63.041"/>
    </clipPath>
  </defs>
  <g id="Grupo_1043978" data-name="Grupo 1043978" transform="translate(-285 -3323)">
    <g id="Grupo_968697" data-name="Grupo 968697" transform="translate(0 2575)">
      <rect id="BG" width="451.826" height="300" transform="translate(285 748)" fill="#452d9e"/>
    </g>
    <g id="Grupo_1042633" data-name="Grupo 1042633" transform="translate(0 -107)">
      <g id="Grupo_1042631" data-name="Grupo 1042631" transform="translate(10.62)">
        <circle id="Elipse_4717" data-name="Elipse 4717" cx="115" cy="115" r="115" transform="translate(350 3467)" fill="#e3dff1"/>
        <g id="Grupo_1042630" data-name="Grupo 1042630" transform="translate(31.223)">
          <g id="Grupo_1042629" data-name="Grupo 1042629" transform="translate(338.777 3449.773)">
            <g id="Grupo_1042628" data-name="Grupo 1042628" transform="translate(0 -0.001)" clip-path="url(#clip-path)">
              <g id="Grupo_1042627" data-name="Grupo 1042627">
                <g id="Grupo_1042626" data-name="Grupo 1042626" clip-path="url(#clip-path)">
                  <path id="Trazado_770752" data-name="Trazado 770752" d="M1.332,239.556s8.48-68.183,30.05-81.626,36.792-14.643,36.792-14.643l43.93.35s28.07,1.475,43.076,20.857,17.33,46.4,17.33,46.4l-27.824,7.157,14.541,28.5H16.366Z" transform="translate(0.081 8.749)" fill="#452d9e"/>
                  <g id="Grupo_1042610" data-name="Grupo 1042610" transform="translate(1.989 152.119)" opacity="0.5" style="mix-blend-mode: multiply;isolation: isolate">
                    <g id="Grupo_1042609" data-name="Grupo 1042609">
                      <g id="Grupo_1042608" data-name="Grupo 1042608" clip-path="url(#clip-path-3)">
                        <path id="Trazado_770753" data-name="Trazado 770753" d="M156.77,213.286l9.366-2.409s-2.324-27.02-17.329-46.4-43.077-20.857-43.077-20.857c24.78,18.483,42.6,41.04,51.04,69.669" transform="translate(4.466 -143.351)" fill="#462255"/>
                        <path id="Trazado_770754" data-name="Trazado 770754" d="M67.4,143.366c-3.29.43-17.258,2.849-36.047,14.559C9.78,171.367,1.875,235.448,1.875,235.448h9.153c2.9-17.013,9.247-46.142,20-59.673,10.146-12.77,22.734-23.43,36.372-32.409" transform="translate(-1.875 -143.366)" fill="#462255"/>
                      </g>
                    </g>
                  </g>
                  <path id="Trazado_770755" data-name="Trazado 770755" d="M88.132,130.9a67.9,67.9,0,0,0,9.553-1.585c-.173-2.292-.241-4.6-.5-6.886a4.6,4.6,0,0,0-.712-2.293,4.673,4.673,0,0,0-3.231-1.4,48.786,48.786,0,0,0-13.864.1c-4.932.743-7.094.659-7.148,5.585a33.3,33.3,0,0,1-.5,5.538,54.163,54.163,0,0,0,16.406.95" transform="translate(4.379 7.222)" fill="#e0ab6a"/>
                  <path id="Trazado_770756" data-name="Trazado 770756" d="M99.081,134.47a32.259,32.259,0,0,1-.871-5.792,67.8,67.8,0,0,1-9.553,1.585,54.159,54.159,0,0,1-16.406-.949c-1.022,5.679-3.715,10.74-9.127,13.986,2.314,5.393,9.925,8.7,15.781,9.086,13.639.91,20.84-.308,28.149-8.736-4.135-1.011-6.889-5.063-7.973-9.18" transform="translate(3.854 7.857)" fill="#f9c88c"/>
                  <path id="Trazado_770757" data-name="Trazado 770757" d="M52.653,64.573c-4.908,11.378-4.471,24.469-1.4,36.474,2.449,9.576,6.865,19.182,14.925,24.9a34.72,34.72,0,0,0,9.494,4.6c8,2.576,17.048,2.845,24.574-.9,8.041-4,13.4-12.07,16.411-20.531A58.9,58.9,0,0,0,115.5,67.037c-2.015-4.806-4.75-9.425-8.727-12.793-3.542-3-7.888-4.864-12.2-6.589-8.689-3.478-16.313-5.388-25.059-1.112A36.056,36.056,0,0,0,52.653,64.573" transform="translate(2.989 2.692)" fill="#f9c88c"/>
                  <path id="Trazado_770758" data-name="Trazado 770758" d="M62.669,76.385c1.561-5.823,8.62-9.868,14.367-7.717a13.732,13.732,0,0,0-4.313.28,15.752,15.752,0,0,0-10.054,7.437" transform="translate(3.826 4.157)" fill="#462255"/>
                  <path id="Trazado_770759" data-name="Trazado 770759" d="M105.355,76.385A15.752,15.752,0,0,0,95.3,68.948a13.732,13.732,0,0,0-4.313-.28c5.748-2.151,12.806,1.894,14.367,7.717" transform="translate(5.555 4.157)" fill="#462255"/>
                  <g id="Grupo_1042613" data-name="Grupo 1042613" transform="translate(65.963 96.039)" opacity="0.3" style="mix-blend-mode: multiply;isolation: isolate">
                    <g id="Grupo_1042612" data-name="Grupo 1042612">
                      <g id="Grupo_1042611" data-name="Grupo 1042611" clip-path="url(#clip-path-4)">
                        <path id="Trazado_770760" data-name="Trazado 770760" d="M75.075,94.639c-.11,2.082-3.089,3.617-6.652,3.428s-6.363-2.03-6.253-4.112,3.089-3.617,6.652-3.428,6.363,2.03,6.253,4.112" transform="translate(-62.167 -90.513)" fill="#ffa69e"/>
                      </g>
                    </g>
                  </g>
                  <g id="Grupo_1042616" data-name="Grupo 1042616" transform="translate(101.032 96.039)" opacity="0.3" style="mix-blend-mode: multiply;isolation: isolate">
                    <g id="Grupo_1042615" data-name="Grupo 1042615">
                      <g id="Grupo_1042614" data-name="Grupo 1042614" clip-path="url(#clip-path-4)">
                        <path id="Trazado_770761" data-name="Trazado 770761" d="M108.126,94.639c-.11,2.082-3.089,3.617-6.652,3.428s-6.363-2.03-6.253-4.112,3.089-3.617,6.652-3.428,6.363,2.03,6.253,4.112" transform="translate(-95.218 -90.513)" fill="#ffa69e"/>
                      </g>
                    </g>
                  </g>
                  <path id="Trazado_770762" data-name="Trazado 770762" d="M81.854,106.218a24.632,24.632,0,0,0-5.891-1.69c2.467,3.388,6.009,6.834,10.183,6.76a7.3,7.3,0,0,0,1.7-.238,14.116,14.116,0,0,0-5.988-4.832" transform="translate(4.638 6.382)" fill="#aa4465"/>
                  <path id="Trazado_770763" data-name="Trazado 770763" d="M98.466,97.956s-4.726,7.3-11.186,7.71-14.838-7.157-14.838-7.157a37.688,37.688,0,0,0,3.736,6.422,24.586,24.586,0,0,1,5.89,1.689,14.116,14.116,0,0,1,5.988,4.832c7.014-1.8,10.41-13.5,10.41-13.5" transform="translate(4.423 5.981)" fill="#462255"/>
                  <path id="Trazado_770764" data-name="Trazado 770764" d="M86.3,75.907a68.18,68.18,0,0,1,5.258,21.788,28.092,28.092,0,0,1-6.987,1.446,21.815,21.815,0,0,1-2.249.074c.74-.125,1.474-.256,2.2-.405a41.139,41.139,0,0,0,6.372-1.9l-.31.5a181.921,181.921,0,0,0-4.286-21.5" transform="translate(5.026 4.635)" fill="#43314b"/>
                  <g id="Grupo_1042619" data-name="Grupo 1042619" transform="translate(87.347 80.542)" opacity="0.2" style="mix-blend-mode: multiply;isolation: isolate">
                    <g id="Grupo_1042618" data-name="Grupo 1042618">
                      <g id="Grupo_1042617" data-name="Grupo 1042617" clip-path="url(#clip-path-6)">
                        <path id="Trazado_770765" data-name="Trazado 770765" d="M86.3,75.907A98.583,98.583,0,0,1,91.056,97.36a33,33,0,0,1-8.735,1.855" transform="translate(-82.321 -75.907)" fill="#ffa69e"/>
                      </g>
                    </g>
                  </g>
                  <path id="Trazado_770766" data-name="Trazado 770766" d="M67.992,83.183c3.039-3.739,9.514-3.25,12.168.692a11.351,11.351,0,0,0-12.168-.692" transform="translate(4.151 4.923)" fill="#462255"/>
                  <path id="Trazado_770767" data-name="Trazado 770767" d="M93.06,83.183c3.039-3.739,9.514-3.25,12.168.692a11.351,11.351,0,0,0-12.168-.692" transform="translate(5.682 4.923)" fill="#462255"/>
                  <path id="Trazado_770768" data-name="Trazado 770768" d="M60.252,62.543c1.926,2.458,5.807,1.388,8.647.089,7.175-3.28,15.178-6.685,22.7-4.294,4.3,1.367,7.788,4.468,11.591,6.9,6.4,4.091,15.061,6.225,21.443,2.108a18.162,18.162,0,0,0,6.3-7.735,28.834,28.834,0,0,0,1.962-18.549,17.568,17.568,0,0,1-9.751,8.189,12.08,12.08,0,0,0,3.312-8.792,35.852,35.852,0,0,0-1.716-9.472,17.46,17.46,0,0,1-9.409,10.81,12.152,12.152,0,0,0,2.433-10.909c-.274,2.691-2.879,4.518-5.412,5.462-6.489,2.418-13.74,1.459-20.447-.266S78.608,31.889,71.7,31.339c-4.985-.4-10.4.389-14.061,3.8-3.211,2.99-4.521,7.452-5.578,11.71-10.347-1.956-15.574,12.8-15.027,19.944S38.7,79.419,42.131,85.712c1.511,2.773,3.7,8.308,7.528,8.215,3.656-.089,5.71-4.982,6.991-7.736a42.961,42.961,0,0,0,3.5-11.569c.384-2.49,1.783-9.929.1-12.079" transform="translate(2.259 1.886)" fill="#292929"/>
                  <path id="Trazado_770769" data-name="Trazado 770769" d="M124.267,64.592a35.531,35.531,0,0,1,1.727,10.479,16.984,16.984,0,0,1-3.13,10c-1.533,2.027-4.107,3.686-6.523,2.9-2.131-.7-3.266-2.979-4.015-5.093a46.159,46.159,0,0,1-2.618-13.853,12.732,12.732,0,0,1,.786-5.638c1.385-3.1,4.932-4.874,8.226-4.9,3.873-.028,4.516,2.6,5.546,6.1" transform="translate(6.697 3.571)" fill="#262626"/>
                  <g id="Grupo_1042625" data-name="Grupo 1042625" transform="translate(39.259 32.773)" opacity="0.5">
                    <g id="Grupo_1042624" data-name="Grupo 1042624">
                      <g id="Grupo_1042623" data-name="Grupo 1042623" clip-path="url(#clip-path-7)">
                        <g id="Grupo_1042622" data-name="Grupo 1042622" style="mix-blend-mode: multiply;isolation: isolate">
                          <g id="Grupo_1042621" data-name="Grupo 1042621">
                            <g id="Grupo_1042620" data-name="Grupo 1042620" clip-path="url(#clip-path-7)">
                              <path id="Trazado_770770" data-name="Trazado 770770" d="M49.146,59.01c2.3-4.06,7.66-6.7,11.816-4.577A15.411,15.411,0,0,1,67.853,43.51a20.541,20.541,0,0,1,12.724-3.129c7.291.494,14.257,4.223,21.537,3.6a18.779,18.779,0,0,0,15.766-12.482c-.044-.2-.071-.407-.125-.608-.275,2.691-2.879,4.518-5.412,5.462-6.49,2.418-13.74,1.459-20.447-.266S78.608,31.889,71.7,31.339c-4.984-.4-10.4.389-14.061,3.8-3.211,2.99-4.521,7.452-5.578,11.71-10.347-1.956-15.574,12.8-15.026,19.943S38.7,79.419,42.13,85.712c1.511,2.773,3.7,8.308,7.529,8.215a4.913,4.913,0,0,0,3.4-1.681,58.033,58.033,0,0,1-5.628-19.582c-.535-4.636-.584-9.594,1.717-13.654" transform="translate(-37 -30.887)"/>
                            </g>
                          </g>
                        </g>
                      </g>
                    </g>
                  </g>
                  <path id="Trazado_770771" data-name="Trazado 770771" d="M126.271,85.289c.736,5.416-.892,11.467-5.317,14.674a5.994,5.994,0,0,1-4.385,1.333,6.08,6.08,0,0,1-3.732-2.747,16.665,16.665,0,0,1-2.659-8.482C109.47,79,124.345,71.116,126.271,85.289" transform="translate(6.726 4.741)" fill="#f9c88c"/>
                  <path id="Trazado_770772" data-name="Trazado 770772" d="M39.324,85.289c-.736,5.416.892,11.467,5.318,14.674a5.991,5.991,0,0,0,4.385,1.333,6.081,6.081,0,0,0,3.731-2.747,16.645,16.645,0,0,0,2.659-8.482C56.127,79,41.252,71.116,39.324,85.289" transform="translate(2.391 4.741)" fill="#f9c88c"/>
                  <path id="Trazado_770773" data-name="Trazado 770773" d="M122.344,78.982c-3.883,2.257-4.473,6.939-4.5,11.034l-.9-.359a2.151,2.151,0,0,1,1.9-.612c3.475.714,2.569,5.517.442,7.209a5.539,5.539,0,0,1-2.892,1.4c2.751-.919,5.015-4.508,3.351-7.042a1.447,1.447,0,0,0-2.043-.255l-.936,1.137c-.039-4.556.56-10.732,5.574-12.508" transform="translate(7.107 4.822)" fill="#43314b"/>
                  <path id="Trazado_770774" data-name="Trazado 770774" d="M42.329,78.982c5.015,1.779,5.612,7.949,5.574,12.508l-.936-1.137a1.447,1.447,0,0,0-2.043.255c-1.664,2.535.6,6.121,3.35,7.042a5.546,5.546,0,0,1-2.891-1.394c-2.126-1.691-3.033-6.5.442-7.21a2.151,2.151,0,0,1,1.9.612l-.9.359c-.029-4.094-.621-8.779-4.5-11.034" transform="translate(2.584 4.822)" fill="#43314b"/>
                  <path id="Trazado_770775" data-name="Trazado 770775" d="M151.084,247.52c-20.809,0-17.566-36.979-12.932-75.439s4.744-44.69,4.744-44.69h14.718s12.048,82.686,9.268,99.832-15.8,20.3-15.8,20.3" transform="translate(8.225 7.778)" fill="#f9c88c"/>
                  <path id="Trazado_770776" data-name="Trazado 770776" d="M41.161,180.046c.245,15.913,1.044,33.129,2.261,49a202.289,202.289,0,0,1-2.261-49" transform="translate(2.478 10.993)" fill="#ddfff7"/>
                  <path id="Trazado_770777" data-name="Trazado 770777" d="M1.332,234.936c.158-19.787,37.037-17.443,75.482-12.681s44.673,4.893,44.673,4.893l-.049,14.718S38.712,253.638,21.576,250.8s-20.3-8.869-20.244-15.865" transform="translate(0.081 13.368)" fill="#f9c88c"/>
                  <path id="Trazado_770778" data-name="Trazado 770778" d="M119.081,239.979a9.078,9.078,0,0,1-3.338,2.467,8.008,8.008,0,0,1-5.346-.579,32.528,32.528,0,0,1-6.292-3.242,6.408,6.408,0,0,1-2.006-1.838c-1.018-1.636-.556-3.755.011-5.6a73.245,73.245,0,0,1,4.345-10.915c1.008-2.04,2.234-4.155,4.274-5.162a7.888,7.888,0,0,1,3.628-.694c4.457.076,8.522,2.415,12.359,4.687a12.116,12.116,0,0,1,4.529,3.812c3.26,5.444-8.853,13.713-12.163,17.061" transform="translate(6.197 13.091)" fill="#f9c88c"/>
                  <path id="Trazado_770779" data-name="Trazado 770779" d="M140.581,212.965a1.8,1.8,0,0,0,.173-1.264c-.386-1.056-1.983-.548-2.862.154a61.1,61.1,0,0,0-10.558,10.84,80.637,80.637,0,0,0,8.387-16.027c.481-1.242.423-3.271-.907-3.219a2.058,2.058,0,0,0-1.3.8,93.848,93.848,0,0,0-11.135,14.365c1.074-3.282,3.165-6.114,4.9-9.1s4.743-8.829,2.674-9.805-10.267,9.573-14.255,15.388c3.071-4.975,8.41-14.142,6.731-15.494s-3.042.56-3.682,1.266a65.428,65.428,0,0,0-10.8,16.241,11.472,11.472,0,0,0-1.456,5.979,9.012,9.012,0,0,0,2.18,4.611c4.092,4.976,11.73,12.544,16.309,7.74,8.717-9.143,13.066-16.2,15.6-22.477" transform="translate(6.499 12.158)" fill="#f9c88c"/>
                  <path id="Trazado_770780" data-name="Trazado 770780" d="M101.527,234.5s-1.473-14.948,1.936-23.135,3.775-1.186,4.29,2.026,1,9.953,1,9.953Z" transform="translate(6.18 12.671)" fill="#f9c88c"/>
                  <path id="Trazado_770781" data-name="Trazado 770781" d="M162.4,138.805a10.818,10.818,0,0,1-2.526,4.25c-1.632,1.444-3.958,1.761-6.136,1.829a38.737,38.737,0,0,1-8.4-.655,7.65,7.65,0,0,1-3.051-1.093c-1.873-1.325-2.343-3.865-2.571-6.149A87.33,87.33,0,0,1,139.449,123c.166-2.706.536-5.591,2.312-7.639a9.372,9.372,0,0,1,3.661-2.436c4.93-1.973,10.471-1.281,15.73-.558,2.354.324,4.816.69,6.731,2.1,6.09,4.473-3.392,19.14-5.48,24.342" transform="translate(8.504 6.816)" fill="#f9c88c"/>
                  <path id="Trazado_770782" data-name="Trazado 770782" d="M147.862,115.684c1.076-6.88,1.954-22.05-.512-22.759s-3.152,1.995-3.458,3.089c-5.821,20.818-4.518,35.188-4.518,35.188s14.875-15.767,8.488-15.518" transform="translate(8.502 5.667)" fill="#f9c88c"/>
                  <path id="Trazado_770783" data-name="Trazado 770783" d="M147.8,112.069c-.569,5.09-1.145,10.189-1.313,15.306a14.228,14.228,0,0,0,.325,4.54,14.177,14.177,0,0,0,2.571-3.79c2.368-4.521,4.442-9.212,6.468-13.9a.6.6,0,0,1,1.114.422c-1,3.112-1.915,6.27-2.681,9.442-.544,2.665-1.4,5.479-1.023,8.181a.893.893,0,0,0,.157.349s-.006-.022-.017-.022a5.272,5.272,0,0,0,1.361-1.322c3.312-4.63,5.642-9.934,8.039-15.084a.563.563,0,0,1,1.033.449c-1.948,4.956-4.5,10.126-4.655,15.511.135,1.9,1.376,1.043,2.314.234,2.986-2.8,5.23-6.337,7.511-9.728a73.63,73.63,0,0,1-4.442,6.966c-1.141,1.574-5.273,7.176-6.095,2.6-.007-5.617,2.419-10.85,4.331-16.032l1.033.448c-2.644,5.615-4.929,11.585-8.921,16.413-.434.476-1.55,1.239-2.329.559a2.029,2.029,0,0,1-.575-.983c-.56-2.989.433-5.961,1.036-8.845.805-3.216,1.751-6.373,2.791-9.517l1.114.423c-1.38,3.141-2.787,6.261-4.323,9.331-1.54,2.846-2.823,5.95-5.059,8.344a1.129,1.129,0,0,1-.923.34c-2.482-.8.775-17.761,1.157-20.644" transform="translate(8.897 6.842)" fill="#43314b"/>
                  <path id="Trazado_770784" data-name="Trazado 770784" d="M139.508,123.67a49.93,49.93,0,0,1,5.414-5.1,10.95,10.95,0,0,1,3.4-2.065,2.389,2.389,0,0,1,2.671.481,2.727,2.727,0,0,1,.092,2.36,20.945,20.945,0,0,1-8.381,11.433" transform="translate(8.518 7.102)" fill="#f9c88c"/>
                  <path id="Trazado_770785" data-name="Trazado 770785" d="M139.508,123.7c2.169-2.533,7.5-9.218,11.22-7.566a2.187,2.187,0,0,1,1.091,2.125A18.8,18.8,0,0,1,142.7,130.8a22.082,22.082,0,0,0,8.079-12.6c.121-1.263-1.044-1.533-2.08-1.273-3.553,1.249-6.336,4.341-9.192,6.766" transform="translate(8.518 7.075)" fill="#43314b"/>
                  <path id="Trazado_770786" data-name="Trazado 770786" d="M240.288,49.933c-1.322,20.125-17.616,38.3-37.479,41.8a63.562,63.562,0,0,1-21.134-.32c-9.681-1.568-19.284-4.575-27.361-10.135S139.783,67.4,137.8,57.794a40.408,40.408,0,0,1,.643-17.593,53.679,53.679,0,0,1,27.9-35.177c31.908-15.681,76.436,7.025,73.948,44.91" transform="translate(8.371 0)" fill="#fabf40"/>
                  <path id="Trazado_770787" data-name="Trazado 770787" d="M134.708,80.966a28.445,28.445,0,0,0,31.366-9.872c.159-.219-6.451-9.6-7.278-9.7-2.73-.335-4.877,6.02-6.229,7.848a30.6,30.6,0,0,1-17.859,11.721" transform="translate(8.225 3.748)" fill="#fabf40"/>
                  <path id="Trazado_770788" data-name="Trazado 770788" d="M20.3,68.216s1.376-4.472,3.185-5.829,4.78-1.342,6.032.541c1.222,1.839.312,6.28-.684,8.251-2.747,5.428-5.994,8.62-9.686,13.454C13.866,78.036,8.3,70.582,8.819,62.149a3.537,3.537,0,0,1,.381-1.6,3.052,3.052,0,0,1,2.933-1.171c2.263.183,3.766.714,5.63,3.448A18.972,18.972,0,0,1,20.3,68.216" transform="translate(0.536 3.625)" fill="#452d9e"/>
                  <path id="Trazado_770789" data-name="Trazado 770789" d="M182.867,135.389s.8-2.589,1.844-3.374a2.514,2.514,0,0,1,3.492.313c.708,1.064.18,3.635-.4,4.776-1.589,3.143-3.47,4.99-5.608,7.789-3.056-3.819-6.279-8.134-5.978-13.016a2.056,2.056,0,0,1,.221-.924,1.77,1.77,0,0,1,1.7-.678,3.749,3.749,0,0,1,3.258,2,10.979,10.979,0,0,1,1.469,3.117" transform="translate(10.758 7.954)" fill="#fabf40"/>
                  <path id="Trazado_770790" data-name="Trazado 770790" d="M10.236,98.883.016,114.745q8.381-3.914,16.941-7.425L0,104.755c4.3,3.834,7.267,8.9,10.973,12.868-.042-3.924-.737-18.74-.737-18.74" transform="translate(0 6.037)" fill="#0b62f8"/>
                  <path id="Trazado_770791" data-name="Trazado 770791" d="M167.668,88.645l-10.22,15.862q8.383-3.914,16.941-7.425l-16.957-2.565c4.3,3.834,7.267,8.9,10.974,12.868-.043-3.925-.738-18.74-.738-18.74" transform="translate(9.612 5.412)" fill="#fabf40"/>
                  <path id="Trazado_770792" data-name="Trazado 770792" d="M27.418,34.923a17.09,17.09,0,0,0,1.448-5.864,17.3,17.3,0,0,0,1.158,4.081c.6,1.283.819,2.043,2.13,2.585a17.154,17.154,0,0,0,2.767.881c-5.2.2-5.714,7.949-5.714,7.949s-1.057-4.671-2.029-6.037c-.6-.839-3.685-2.049-3.685-2.049s3.49-.8,3.925-1.545" transform="translate(1.434 1.774)" fill="#452d9e"/>
                  <path id="Trazado_770793" data-name="Trazado 770793" d="M186.373,110.2a17.066,17.066,0,0,0,1.448-5.864,17.3,17.3,0,0,0,1.158,4.081c.6,1.282.819,2.043,2.13,2.585a17.187,17.187,0,0,0,2.767.881c-5.2.2-5.714,7.949-5.714,7.949s-1.057-4.671-2.029-6.037c-.6-.839-3.686-2.049-3.686-2.049s3.491-.8,3.926-1.545" transform="translate(11.139 6.37)" fill="#93e1d8"/>
                  <path id="Trazado_770794" data-name="Trazado 770794" d="M37.694,116.843a17.065,17.065,0,0,0,1.448-5.864A17.3,17.3,0,0,0,40.3,115.06c.6,1.282.819,2.043,2.13,2.585a17.188,17.188,0,0,0,2.767.881c-5.2.2-5.714,7.949-5.714,7.949s-1.057-4.671-2.029-6.037c-.6-.839-3.686-2.049-3.686-2.049s3.491-.8,3.926-1.545" transform="translate(2.062 6.776)" fill="#93e1d8"/>
                </g>
              </g>
            </g>
          </g>
          <path id="Trazado_770796" data-name="Trazado 770796" d="M1.336-4.867H3.469L3.8,2.906H1ZM3.883-7.289a1.212,1.212,0,0,1-.418.949,1.513,1.513,0,0,1-1.043.371A1.513,1.513,0,0,1,1.379-6.34a1.212,1.212,0,0,1-.418-.949,1.212,1.212,0,0,1,.418-.949,1.513,1.513,0,0,1,1.043-.371,1.513,1.513,0,0,1,1.043.371A1.212,1.212,0,0,1,3.883-7.289ZM16.109-2.125H12.352L11.7,0H8.766l4.172-11.375h2.578L19.719,0H16.773Zm-3.1-2.117h2.445L14.227-8.187ZM25.375-.914A2.714,2.714,0,0,1,23.117.156a2.662,2.662,0,0,1-2.105-.809A3.4,3.4,0,0,1,20.3-2.977V-8.453H22.93v5.492a.946.946,0,0,0,1.055,1.086,1.376,1.376,0,0,0,1.289-.648v-5.93h2.648V0H25.453Zm7.055-9.641v2.1H33.82v1.828H32.43v3.867a.987.987,0,0,0,.172.664.922.922,0,0,0,.68.188,3.862,3.862,0,0,0,.656-.047V-.07a4.859,4.859,0,0,1-1.484.227,2.758,2.758,0,0,1-2.008-.641A2.626,2.626,0,0,1,29.8-2.43v-4.2H28.719V-8.453H29.8v-2.1ZM34.289-4.3a4.989,4.989,0,0,1,.492-2.254A3.52,3.52,0,0,1,36.2-8.078a4.259,4.259,0,0,1,2.164-.531,3.887,3.887,0,0,1,2.992,1.176,4.512,4.512,0,0,1,1.094,3.2v.094A4.378,4.378,0,0,1,41.348-1,3.9,3.9,0,0,1,38.375.156a3.942,3.942,0,0,1-2.9-1.082A4.232,4.232,0,0,1,34.3-3.859Zm2.633.164a3.145,3.145,0,0,0,.367,1.719,1.223,1.223,0,0,0,1.086.547q1.406,0,1.438-2.164V-4.3q0-2.273-1.453-2.273-1.32,0-1.43,1.961Z" transform="translate(508 3491)" fill="#fff"/>
          <path id="Trazado_770797" data-name="Trazado 770797" d="M10.063-3.852a4.154,4.154,0,0,1-.641,2.1A3.866,3.866,0,0,1,7.777-.344a5.6,5.6,0,0,1-2.418.5A4.467,4.467,0,0,1,1.828-1.3,6.032,6.032,0,0,1,.539-5.43v-.562a6.885,6.885,0,0,1,.582-2.926A4.41,4.41,0,0,1,2.8-10.855a4.676,4.676,0,0,1,2.531-.684,4.9,4.9,0,0,1,3.328,1.09,4.306,4.306,0,0,1,1.43,3H7.352a2.037,2.037,0,0,0-.523-1.492,2.153,2.153,0,0,0-1.5-.453,1.638,1.638,0,0,0-1.5.766,4.921,4.921,0,0,0-.5,2.445v.8a5.445,5.445,0,0,0,.457,2.6,1.672,1.672,0,0,0,1.574.781A2.106,2.106,0,0,0,6.8-2.437a1.89,1.89,0,0,0,.531-1.414ZM16.273-.914A2.714,2.714,0,0,1,14.016.156,2.662,2.662,0,0,1,11.91-.652,3.4,3.4,0,0,1,11.2-2.977V-8.453h2.633v5.492a.946.946,0,0,0,1.055,1.086,1.376,1.376,0,0,0,1.289-.648v-5.93H18.82V0H16.352ZM23.039,0H20.4V-8.453h2.641Zm-2.8-10.633a1.175,1.175,0,0,1,.406-.922,1.533,1.533,0,0,1,1.055-.359,1.533,1.533,0,0,1,1.055.359,1.175,1.175,0,0,1,.406.922,1.175,1.175,0,0,1-.406.922,1.533,1.533,0,0,1-1.055.359,1.533,1.533,0,0,1-1.055-.359A1.175,1.175,0,0,1,20.242-10.633Zm4.086,6.344A5.164,5.164,0,0,1,25.2-7.453a2.854,2.854,0,0,1,2.422-1.156,2.428,2.428,0,0,1,1.906.891V-12h2.641V0H29.8l-.133-.906A2.493,2.493,0,0,1,27.6.156,2.849,2.849,0,0,1,25.211-1,5.327,5.327,0,0,1,24.328-4.289Zm2.633.164q0,2.25,1.313,2.25a1.3,1.3,0,0,0,1.25-.734V-5.828a1.261,1.261,0,0,0-1.234-.75q-1.219,0-1.32,1.969ZM38.422,0a2.973,2.973,0,0,1-.25-.758,2.448,2.448,0,0,1-2.031.914,3,3,0,0,1-2.031-.723,2.3,2.3,0,0,1-.836-1.816,2.364,2.364,0,0,1,1.016-2.078,5.174,5.174,0,0,1,2.953-.7h.813v-.445q0-1.164-1.008-1.164a.822.822,0,0,0-.937.922H33.477A2.364,2.364,0,0,1,34.52-7.844a4.379,4.379,0,0,1,2.66-.766,3.843,3.843,0,0,1,2.555.789A2.743,2.743,0,0,1,40.7-5.656v3.742a3.832,3.832,0,0,0,.359,1.781V0ZM36.773-1.719a1.469,1.469,0,0,0,.816-.211,1.322,1.322,0,0,0,.465-.477V-3.758h-.766q-1.375,0-1.375,1.234a.754.754,0,0,0,.242.582A.876.876,0,0,0,36.773-1.719Zm5.047-2.57a5.164,5.164,0,0,1,.867-3.164,2.854,2.854,0,0,1,2.422-1.156,2.428,2.428,0,0,1,1.906.891V-12h2.641V0H47.289l-.133-.906A2.493,2.493,0,0,1,45.094.156,2.849,2.849,0,0,1,42.7-1,5.327,5.327,0,0,1,41.82-4.289Zm2.633.164q0,2.25,1.313,2.25a1.3,1.3,0,0,0,1.25-.734V-5.828a1.261,1.261,0,0,0-1.234-.75q-1.219,0-1.32,1.969ZM50.82-4.3a4.989,4.989,0,0,1,.492-2.254,3.52,3.52,0,0,1,1.414-1.52,4.259,4.259,0,0,1,2.164-.531,3.887,3.887,0,0,1,2.992,1.176,4.512,4.512,0,0,1,1.094,3.2v.094A4.378,4.378,0,0,1,57.879-1,3.9,3.9,0,0,1,54.906.156a3.942,3.942,0,0,1-2.9-1.082,4.232,4.232,0,0,1-1.18-2.934Zm2.633.164a3.145,3.145,0,0,0,.367,1.719,1.223,1.223,0,0,0,1.086.547q1.406,0,1.438-2.164V-4.3q0-2.273-1.453-2.273-1.32,0-1.43,1.961ZM66.734-3.6H64.6l-.336-7.773h2.8ZM64.188-1.18a1.212,1.212,0,0,1,.418-.949A1.513,1.513,0,0,1,65.648-2.5a1.513,1.513,0,0,1,1.043.371,1.212,1.212,0,0,1,.418.949,1.212,1.212,0,0,1-.418.949,1.513,1.513,0,0,1-1.043.371A1.513,1.513,0,0,1,64.605-.23,1.212,1.212,0,0,1,64.188-1.18Z" transform="translate(508 3510)" fill="#fff"/>
        </g>
      </g>
      <g id="Grupo_1042632" data-name="Grupo 1042632" transform="translate(-848.36 1448.414)">
        <g id="Grupo_985886" data-name="Grupo 985886" transform="translate(1080.16 535)">
          <path id="Trazado_113856" data-name="Trazado 113856" d="M2.156-2a1.084,1.084,0,0,1,.82.3,1.045,1.045,0,0,1,.289.754,1.008,1.008,0,0,1-.289.738,1.1,1.1,0,0,1-.82.293,1.1,1.1,0,0,1-.8-.289.991.991,0,0,1-.3-.742A1.045,1.045,0,0,1,1.344-1.7,1.074,1.074,0,0,1,2.156-2Zm8.453,0a1.084,1.084,0,0,1,.82.3,1.045,1.045,0,0,1,.289.754,1.008,1.008,0,0,1-.289.738,1.1,1.1,0,0,1-.82.293A1.1,1.1,0,0,1,9.8-.2a.991.991,0,0,1-.3-.742A1.045,1.045,0,0,1,9.8-1.7,1.074,1.074,0,0,1,10.609-2Zm8.453,0a1.084,1.084,0,0,1,.82.3,1.045,1.045,0,0,1,.289.754,1.008,1.008,0,0,1-.289.738,1.1,1.1,0,0,1-.82.293,1.1,1.1,0,0,1-.8-.289.991.991,0,0,1-.3-.742A1.045,1.045,0,0,1,18.25-1.7,1.074,1.074,0,0,1,19.063-2Zm8.453,0a1.084,1.084,0,0,1,.82.3,1.045,1.045,0,0,1,.289.754,1.008,1.008,0,0,1-.289.738,1.1,1.1,0,0,1-.82.293,1.1,1.1,0,0,1-.8-.289.991.991,0,0,1-.3-.742A1.045,1.045,0,0,1,26.7-1.7,1.074,1.074,0,0,1,27.516-2Z" transform="translate(180 1657)" fill="#3bc192"/>
          <path id="Trazado_113857" data-name="Trazado 113857" d="M2.156-2a1.084,1.084,0,0,1,.82.3,1.045,1.045,0,0,1,.289.754,1.008,1.008,0,0,1-.289.738,1.1,1.1,0,0,1-.82.293,1.1,1.1,0,0,1-.8-.289.991.991,0,0,1-.3-.742A1.045,1.045,0,0,1,1.344-1.7,1.074,1.074,0,0,1,2.156-2Zm8.453,0a1.084,1.084,0,0,1,.82.3,1.045,1.045,0,0,1,.289.754,1.008,1.008,0,0,1-.289.738,1.1,1.1,0,0,1-.82.293A1.1,1.1,0,0,1,9.8-.2a.991.991,0,0,1-.3-.742A1.045,1.045,0,0,1,9.8-1.7,1.074,1.074,0,0,1,10.609-2Zm8.453,0a1.084,1.084,0,0,1,.82.3,1.045,1.045,0,0,1,.289.754,1.008,1.008,0,0,1-.289.738,1.1,1.1,0,0,1-.82.293,1.1,1.1,0,0,1-.8-.289.991.991,0,0,1-.3-.742A1.045,1.045,0,0,1,18.25-1.7,1.074,1.074,0,0,1,19.063-2Zm8.453,0a1.084,1.084,0,0,1,.82.3,1.045,1.045,0,0,1,.289.754,1.008,1.008,0,0,1-.289.738,1.1,1.1,0,0,1-.82.293,1.1,1.1,0,0,1-.8-.289.991.991,0,0,1-.3-.742A1.045,1.045,0,0,1,26.7-1.7,1.074,1.074,0,0,1,27.516-2Z" transform="translate(180 1665)" fill="#3bc192"/>
          <path id="Trazado_113858" data-name="Trazado 113858" d="M2.156-2a1.084,1.084,0,0,1,.82.3,1.045,1.045,0,0,1,.289.754,1.008,1.008,0,0,1-.289.738,1.1,1.1,0,0,1-.82.293,1.1,1.1,0,0,1-.8-.289.991.991,0,0,1-.3-.742A1.045,1.045,0,0,1,1.344-1.7,1.074,1.074,0,0,1,2.156-2Zm8.453,0a1.084,1.084,0,0,1,.82.3,1.045,1.045,0,0,1,.289.754,1.008,1.008,0,0,1-.289.738,1.1,1.1,0,0,1-.82.293A1.1,1.1,0,0,1,9.8-.2a.991.991,0,0,1-.3-.742A1.045,1.045,0,0,1,9.8-1.7,1.074,1.074,0,0,1,10.609-2Zm8.453,0a1.084,1.084,0,0,1,.82.3,1.045,1.045,0,0,1,.289.754,1.008,1.008,0,0,1-.289.738,1.1,1.1,0,0,1-.82.293,1.1,1.1,0,0,1-.8-.289.991.991,0,0,1-.3-.742A1.045,1.045,0,0,1,18.25-1.7,1.074,1.074,0,0,1,19.063-2Zm8.453,0a1.084,1.084,0,0,1,.82.3,1.045,1.045,0,0,1,.289.754,1.008,1.008,0,0,1-.289.738,1.1,1.1,0,0,1-.82.293,1.1,1.1,0,0,1-.8-.289.991.991,0,0,1-.3-.742A1.045,1.045,0,0,1,26.7-1.7,1.074,1.074,0,0,1,27.516-2Z" transform="translate(180 1674)" fill="#3bc192"/>
          <path id="Trazado_113855" data-name="Trazado 113855" d="M2.156-2a1.084,1.084,0,0,1,.82.3,1.045,1.045,0,0,1,.289.754,1.008,1.008,0,0,1-.289.738,1.1,1.1,0,0,1-.82.293,1.1,1.1,0,0,1-.8-.289.991.991,0,0,1-.3-.742A1.045,1.045,0,0,1,1.344-1.7,1.074,1.074,0,0,1,2.156-2Zm8.453,0a1.084,1.084,0,0,1,.82.3,1.045,1.045,0,0,1,.289.754,1.008,1.008,0,0,1-.289.738,1.1,1.1,0,0,1-.82.293A1.1,1.1,0,0,1,9.8-.2a.991.991,0,0,1-.3-.742A1.045,1.045,0,0,1,9.8-1.7,1.074,1.074,0,0,1,10.609-2Zm8.453,0a1.084,1.084,0,0,1,.82.3,1.045,1.045,0,0,1,.289.754,1.008,1.008,0,0,1-.289.738,1.1,1.1,0,0,1-.82.293,1.1,1.1,0,0,1-.8-.289.991.991,0,0,1-.3-.742A1.045,1.045,0,0,1,18.25-1.7,1.074,1.074,0,0,1,19.063-2Zm8.453,0a1.084,1.084,0,0,1,.82.3,1.045,1.045,0,0,1,.289.754,1.008,1.008,0,0,1-.289.738,1.1,1.1,0,0,1-.82.293,1.1,1.1,0,0,1-.8-.289.991.991,0,0,1-.3-.742A1.045,1.045,0,0,1,26.7-1.7,1.074,1.074,0,0,1,27.516-2Z" transform="translate(180 1682)" fill="#3bc192"/>
        </g>
        <g id="Grupo_985887" data-name="Grupo 985887" transform="translate(1046.16 535)">
          <path id="Trazado_113856-2" data-name="Trazado 113856" d="M2.156-2a1.084,1.084,0,0,1,.82.3,1.045,1.045,0,0,1,.289.754,1.008,1.008,0,0,1-.289.738,1.1,1.1,0,0,1-.82.293,1.1,1.1,0,0,1-.8-.289.991.991,0,0,1-.3-.742A1.045,1.045,0,0,1,1.344-1.7,1.074,1.074,0,0,1,2.156-2Zm8.453,0a1.084,1.084,0,0,1,.82.3,1.045,1.045,0,0,1,.289.754,1.008,1.008,0,0,1-.289.738,1.1,1.1,0,0,1-.82.293A1.1,1.1,0,0,1,9.8-.2a.991.991,0,0,1-.3-.742A1.045,1.045,0,0,1,9.8-1.7,1.074,1.074,0,0,1,10.609-2Zm8.453,0a1.084,1.084,0,0,1,.82.3,1.045,1.045,0,0,1,.289.754,1.008,1.008,0,0,1-.289.738,1.1,1.1,0,0,1-.82.293,1.1,1.1,0,0,1-.8-.289.991.991,0,0,1-.3-.742A1.045,1.045,0,0,1,18.25-1.7,1.074,1.074,0,0,1,19.063-2Zm8.453,0a1.084,1.084,0,0,1,.82.3,1.045,1.045,0,0,1,.289.754,1.008,1.008,0,0,1-.289.738,1.1,1.1,0,0,1-.82.293,1.1,1.1,0,0,1-.8-.289.991.991,0,0,1-.3-.742A1.045,1.045,0,0,1,26.7-1.7,1.074,1.074,0,0,1,27.516-2Z" transform="translate(180 1657)" fill="#3bc192"/>
          <path id="Trazado_113857-2" data-name="Trazado 113857" d="M2.156-2a1.084,1.084,0,0,1,.82.3,1.045,1.045,0,0,1,.289.754,1.008,1.008,0,0,1-.289.738,1.1,1.1,0,0,1-.82.293,1.1,1.1,0,0,1-.8-.289.991.991,0,0,1-.3-.742A1.045,1.045,0,0,1,1.344-1.7,1.074,1.074,0,0,1,2.156-2Zm8.453,0a1.084,1.084,0,0,1,.82.3,1.045,1.045,0,0,1,.289.754,1.008,1.008,0,0,1-.289.738,1.1,1.1,0,0,1-.82.293A1.1,1.1,0,0,1,9.8-.2a.991.991,0,0,1-.3-.742A1.045,1.045,0,0,1,9.8-1.7,1.074,1.074,0,0,1,10.609-2Zm8.453,0a1.084,1.084,0,0,1,.82.3,1.045,1.045,0,0,1,.289.754,1.008,1.008,0,0,1-.289.738,1.1,1.1,0,0,1-.82.293,1.1,1.1,0,0,1-.8-.289.991.991,0,0,1-.3-.742A1.045,1.045,0,0,1,18.25-1.7,1.074,1.074,0,0,1,19.063-2Zm8.453,0a1.084,1.084,0,0,1,.82.3,1.045,1.045,0,0,1,.289.754,1.008,1.008,0,0,1-.289.738,1.1,1.1,0,0,1-.82.293,1.1,1.1,0,0,1-.8-.289.991.991,0,0,1-.3-.742A1.045,1.045,0,0,1,26.7-1.7,1.074,1.074,0,0,1,27.516-2Z" transform="translate(180 1665)" fill="#3bc192"/>
          <path id="Trazado_113858-2" data-name="Trazado 113858" d="M2.156-2a1.084,1.084,0,0,1,.82.3,1.045,1.045,0,0,1,.289.754,1.008,1.008,0,0,1-.289.738,1.1,1.1,0,0,1-.82.293,1.1,1.1,0,0,1-.8-.289.991.991,0,0,1-.3-.742A1.045,1.045,0,0,1,1.344-1.7,1.074,1.074,0,0,1,2.156-2Zm8.453,0a1.084,1.084,0,0,1,.82.3,1.045,1.045,0,0,1,.289.754,1.008,1.008,0,0,1-.289.738,1.1,1.1,0,0,1-.82.293A1.1,1.1,0,0,1,9.8-.2a.991.991,0,0,1-.3-.742A1.045,1.045,0,0,1,9.8-1.7,1.074,1.074,0,0,1,10.609-2Zm8.453,0a1.084,1.084,0,0,1,.82.3,1.045,1.045,0,0,1,.289.754,1.008,1.008,0,0,1-.289.738,1.1,1.1,0,0,1-.82.293,1.1,1.1,0,0,1-.8-.289.991.991,0,0,1-.3-.742A1.045,1.045,0,0,1,18.25-1.7,1.074,1.074,0,0,1,19.063-2Zm8.453,0a1.084,1.084,0,0,1,.82.3,1.045,1.045,0,0,1,.289.754,1.008,1.008,0,0,1-.289.738,1.1,1.1,0,0,1-.82.293,1.1,1.1,0,0,1-.8-.289.991.991,0,0,1-.3-.742A1.045,1.045,0,0,1,26.7-1.7,1.074,1.074,0,0,1,27.516-2Z" transform="translate(180 1674)" fill="#3bc192"/>
          <path id="Trazado_113855-2" data-name="Trazado 113855" d="M2.156-2a1.084,1.084,0,0,1,.82.3,1.045,1.045,0,0,1,.289.754,1.008,1.008,0,0,1-.289.738,1.1,1.1,0,0,1-.82.293,1.1,1.1,0,0,1-.8-.289.991.991,0,0,1-.3-.742A1.045,1.045,0,0,1,1.344-1.7,1.074,1.074,0,0,1,2.156-2Zm8.453,0a1.084,1.084,0,0,1,.82.3,1.045,1.045,0,0,1,.289.754,1.008,1.008,0,0,1-.289.738,1.1,1.1,0,0,1-.82.293A1.1,1.1,0,0,1,9.8-.2a.991.991,0,0,1-.3-.742A1.045,1.045,0,0,1,9.8-1.7,1.074,1.074,0,0,1,10.609-2Zm8.453,0a1.084,1.084,0,0,1,.82.3,1.045,1.045,0,0,1,.289.754,1.008,1.008,0,0,1-.289.738,1.1,1.1,0,0,1-.82.293,1.1,1.1,0,0,1-.8-.289.991.991,0,0,1-.3-.742A1.045,1.045,0,0,1,18.25-1.7,1.074,1.074,0,0,1,19.063-2Zm8.453,0a1.084,1.084,0,0,1,.82.3,1.045,1.045,0,0,1,.289.754,1.008,1.008,0,0,1-.289.738,1.1,1.1,0,0,1-.82.293,1.1,1.1,0,0,1-.8-.289.991.991,0,0,1-.3-.742A1.045,1.045,0,0,1,26.7-1.7,1.074,1.074,0,0,1,27.516-2Z" transform="translate(180 1682)" fill="#3bc192"/>
        </g>
        <g id="Grupo_985888" data-name="Grupo 985888" transform="translate(1046.16 501)">
          <path id="Trazado_113856-3" data-name="Trazado 113856" d="M2.156-2a1.084,1.084,0,0,1,.82.3,1.045,1.045,0,0,1,.289.754,1.008,1.008,0,0,1-.289.738,1.1,1.1,0,0,1-.82.293,1.1,1.1,0,0,1-.8-.289.991.991,0,0,1-.3-.742A1.045,1.045,0,0,1,1.344-1.7,1.074,1.074,0,0,1,2.156-2Zm8.453,0a1.084,1.084,0,0,1,.82.3,1.045,1.045,0,0,1,.289.754,1.008,1.008,0,0,1-.289.738,1.1,1.1,0,0,1-.82.293A1.1,1.1,0,0,1,9.8-.2a.991.991,0,0,1-.3-.742A1.045,1.045,0,0,1,9.8-1.7,1.074,1.074,0,0,1,10.609-2Zm8.453,0a1.084,1.084,0,0,1,.82.3,1.045,1.045,0,0,1,.289.754,1.008,1.008,0,0,1-.289.738,1.1,1.1,0,0,1-.82.293,1.1,1.1,0,0,1-.8-.289.991.991,0,0,1-.3-.742A1.045,1.045,0,0,1,18.25-1.7,1.074,1.074,0,0,1,19.063-2Zm8.453,0a1.084,1.084,0,0,1,.82.3,1.045,1.045,0,0,1,.289.754,1.008,1.008,0,0,1-.289.738,1.1,1.1,0,0,1-.82.293,1.1,1.1,0,0,1-.8-.289.991.991,0,0,1-.3-.742A1.045,1.045,0,0,1,26.7-1.7,1.074,1.074,0,0,1,27.516-2Z" transform="translate(180 1657)" fill="#3bc192"/>
          <path id="Trazado_113857-3" data-name="Trazado 113857" d="M2.156-2a1.084,1.084,0,0,1,.82.3,1.045,1.045,0,0,1,.289.754,1.008,1.008,0,0,1-.289.738,1.1,1.1,0,0,1-.82.293,1.1,1.1,0,0,1-.8-.289.991.991,0,0,1-.3-.742A1.045,1.045,0,0,1,1.344-1.7,1.074,1.074,0,0,1,2.156-2Zm8.453,0a1.084,1.084,0,0,1,.82.3,1.045,1.045,0,0,1,.289.754,1.008,1.008,0,0,1-.289.738,1.1,1.1,0,0,1-.82.293A1.1,1.1,0,0,1,9.8-.2a.991.991,0,0,1-.3-.742A1.045,1.045,0,0,1,9.8-1.7,1.074,1.074,0,0,1,10.609-2Zm8.453,0a1.084,1.084,0,0,1,.82.3,1.045,1.045,0,0,1,.289.754,1.008,1.008,0,0,1-.289.738,1.1,1.1,0,0,1-.82.293,1.1,1.1,0,0,1-.8-.289.991.991,0,0,1-.3-.742A1.045,1.045,0,0,1,18.25-1.7,1.074,1.074,0,0,1,19.063-2Zm8.453,0a1.084,1.084,0,0,1,.82.3,1.045,1.045,0,0,1,.289.754,1.008,1.008,0,0,1-.289.738,1.1,1.1,0,0,1-.82.293,1.1,1.1,0,0,1-.8-.289.991.991,0,0,1-.3-.742A1.045,1.045,0,0,1,26.7-1.7,1.074,1.074,0,0,1,27.516-2Z" transform="translate(180 1665)" fill="#3bc192"/>
          <path id="Trazado_113858-3" data-name="Trazado 113858" d="M2.156-2a1.084,1.084,0,0,1,.82.3,1.045,1.045,0,0,1,.289.754,1.008,1.008,0,0,1-.289.738,1.1,1.1,0,0,1-.82.293,1.1,1.1,0,0,1-.8-.289.991.991,0,0,1-.3-.742A1.045,1.045,0,0,1,1.344-1.7,1.074,1.074,0,0,1,2.156-2Zm8.453,0a1.084,1.084,0,0,1,.82.3,1.045,1.045,0,0,1,.289.754,1.008,1.008,0,0,1-.289.738,1.1,1.1,0,0,1-.82.293A1.1,1.1,0,0,1,9.8-.2a.991.991,0,0,1-.3-.742A1.045,1.045,0,0,1,9.8-1.7,1.074,1.074,0,0,1,10.609-2Zm8.453,0a1.084,1.084,0,0,1,.82.3,1.045,1.045,0,0,1,.289.754,1.008,1.008,0,0,1-.289.738,1.1,1.1,0,0,1-.82.293,1.1,1.1,0,0,1-.8-.289.991.991,0,0,1-.3-.742A1.045,1.045,0,0,1,18.25-1.7,1.074,1.074,0,0,1,19.063-2Zm8.453,0a1.084,1.084,0,0,1,.82.3,1.045,1.045,0,0,1,.289.754,1.008,1.008,0,0,1-.289.738,1.1,1.1,0,0,1-.82.293,1.1,1.1,0,0,1-.8-.289.991.991,0,0,1-.3-.742A1.045,1.045,0,0,1,26.7-1.7,1.074,1.074,0,0,1,27.516-2Z" transform="translate(180 1674)" fill="#3bc192"/>
          <path id="Trazado_113855-3" data-name="Trazado 113855" d="M2.156-2a1.084,1.084,0,0,1,.82.3,1.045,1.045,0,0,1,.289.754,1.008,1.008,0,0,1-.289.738,1.1,1.1,0,0,1-.82.293,1.1,1.1,0,0,1-.8-.289.991.991,0,0,1-.3-.742A1.045,1.045,0,0,1,1.344-1.7,1.074,1.074,0,0,1,2.156-2Zm8.453,0a1.084,1.084,0,0,1,.82.3,1.045,1.045,0,0,1,.289.754,1.008,1.008,0,0,1-.289.738,1.1,1.1,0,0,1-.82.293A1.1,1.1,0,0,1,9.8-.2a.991.991,0,0,1-.3-.742A1.045,1.045,0,0,1,9.8-1.7,1.074,1.074,0,0,1,10.609-2Zm8.453,0a1.084,1.084,0,0,1,.82.3,1.045,1.045,0,0,1,.289.754,1.008,1.008,0,0,1-.289.738,1.1,1.1,0,0,1-.82.293,1.1,1.1,0,0,1-.8-.289.991.991,0,0,1-.3-.742A1.045,1.045,0,0,1,18.25-1.7,1.074,1.074,0,0,1,19.063-2Zm8.453,0a1.084,1.084,0,0,1,.82.3,1.045,1.045,0,0,1,.289.754,1.008,1.008,0,0,1-.289.738,1.1,1.1,0,0,1-.82.293,1.1,1.1,0,0,1-.8-.289.991.991,0,0,1-.3-.742A1.045,1.045,0,0,1,26.7-1.7,1.074,1.074,0,0,1,27.516-2Z" transform="translate(180 1682)" fill="#3bc192"/>
        </g>
        <g id="Grupo_985889" data-name="Grupo 985889" transform="translate(1080.16 501)">
          <path id="Trazado_113856-4" data-name="Trazado 113856" d="M2.156-2a1.084,1.084,0,0,1,.82.3,1.045,1.045,0,0,1,.289.754,1.008,1.008,0,0,1-.289.738,1.1,1.1,0,0,1-.82.293,1.1,1.1,0,0,1-.8-.289.991.991,0,0,1-.3-.742A1.045,1.045,0,0,1,1.344-1.7,1.074,1.074,0,0,1,2.156-2Zm8.453,0a1.084,1.084,0,0,1,.82.3,1.045,1.045,0,0,1,.289.754,1.008,1.008,0,0,1-.289.738,1.1,1.1,0,0,1-.82.293A1.1,1.1,0,0,1,9.8-.2a.991.991,0,0,1-.3-.742A1.045,1.045,0,0,1,9.8-1.7,1.074,1.074,0,0,1,10.609-2Zm8.453,0a1.084,1.084,0,0,1,.82.3,1.045,1.045,0,0,1,.289.754,1.008,1.008,0,0,1-.289.738,1.1,1.1,0,0,1-.82.293,1.1,1.1,0,0,1-.8-.289.991.991,0,0,1-.3-.742A1.045,1.045,0,0,1,18.25-1.7,1.074,1.074,0,0,1,19.063-2Zm8.453,0a1.084,1.084,0,0,1,.82.3,1.045,1.045,0,0,1,.289.754,1.008,1.008,0,0,1-.289.738,1.1,1.1,0,0,1-.82.293,1.1,1.1,0,0,1-.8-.289.991.991,0,0,1-.3-.742A1.045,1.045,0,0,1,26.7-1.7,1.074,1.074,0,0,1,27.516-2Z" transform="translate(180 1657)" fill="#3bc192"/>
          <path id="Trazado_113857-4" data-name="Trazado 113857" d="M2.156-2a1.084,1.084,0,0,1,.82.3,1.045,1.045,0,0,1,.289.754,1.008,1.008,0,0,1-.289.738,1.1,1.1,0,0,1-.82.293,1.1,1.1,0,0,1-.8-.289.991.991,0,0,1-.3-.742A1.045,1.045,0,0,1,1.344-1.7,1.074,1.074,0,0,1,2.156-2Zm8.453,0a1.084,1.084,0,0,1,.82.3,1.045,1.045,0,0,1,.289.754,1.008,1.008,0,0,1-.289.738,1.1,1.1,0,0,1-.82.293A1.1,1.1,0,0,1,9.8-.2a.991.991,0,0,1-.3-.742A1.045,1.045,0,0,1,9.8-1.7,1.074,1.074,0,0,1,10.609-2Zm8.453,0a1.084,1.084,0,0,1,.82.3,1.045,1.045,0,0,1,.289.754,1.008,1.008,0,0,1-.289.738,1.1,1.1,0,0,1-.82.293,1.1,1.1,0,0,1-.8-.289.991.991,0,0,1-.3-.742A1.045,1.045,0,0,1,18.25-1.7,1.074,1.074,0,0,1,19.063-2Zm8.453,0a1.084,1.084,0,0,1,.82.3,1.045,1.045,0,0,1,.289.754,1.008,1.008,0,0,1-.289.738,1.1,1.1,0,0,1-.82.293,1.1,1.1,0,0,1-.8-.289.991.991,0,0,1-.3-.742A1.045,1.045,0,0,1,26.7-1.7,1.074,1.074,0,0,1,27.516-2Z" transform="translate(180 1665)" fill="#3bc192"/>
          <path id="Trazado_113858-4" data-name="Trazado 113858" d="M2.156-2a1.084,1.084,0,0,1,.82.3,1.045,1.045,0,0,1,.289.754,1.008,1.008,0,0,1-.289.738,1.1,1.1,0,0,1-.82.293,1.1,1.1,0,0,1-.8-.289.991.991,0,0,1-.3-.742A1.045,1.045,0,0,1,1.344-1.7,1.074,1.074,0,0,1,2.156-2Zm8.453,0a1.084,1.084,0,0,1,.82.3,1.045,1.045,0,0,1,.289.754,1.008,1.008,0,0,1-.289.738,1.1,1.1,0,0,1-.82.293A1.1,1.1,0,0,1,9.8-.2a.991.991,0,0,1-.3-.742A1.045,1.045,0,0,1,9.8-1.7,1.074,1.074,0,0,1,10.609-2Zm8.453,0a1.084,1.084,0,0,1,.82.3,1.045,1.045,0,0,1,.289.754,1.008,1.008,0,0,1-.289.738,1.1,1.1,0,0,1-.82.293,1.1,1.1,0,0,1-.8-.289.991.991,0,0,1-.3-.742A1.045,1.045,0,0,1,18.25-1.7,1.074,1.074,0,0,1,19.063-2Zm8.453,0a1.084,1.084,0,0,1,.82.3,1.045,1.045,0,0,1,.289.754,1.008,1.008,0,0,1-.289.738,1.1,1.1,0,0,1-.82.293,1.1,1.1,0,0,1-.8-.289.991.991,0,0,1-.3-.742A1.045,1.045,0,0,1,26.7-1.7,1.074,1.074,0,0,1,27.516-2Z" transform="translate(180 1674)" fill="#3bc192"/>
          <path id="Trazado_113855-4" data-name="Trazado 113855" d="M2.156-2a1.084,1.084,0,0,1,.82.3,1.045,1.045,0,0,1,.289.754,1.008,1.008,0,0,1-.289.738,1.1,1.1,0,0,1-.82.293,1.1,1.1,0,0,1-.8-.289.991.991,0,0,1-.3-.742A1.045,1.045,0,0,1,1.344-1.7,1.074,1.074,0,0,1,2.156-2Zm8.453,0a1.084,1.084,0,0,1,.82.3,1.045,1.045,0,0,1,.289.754,1.008,1.008,0,0,1-.289.738,1.1,1.1,0,0,1-.82.293A1.1,1.1,0,0,1,9.8-.2a.991.991,0,0,1-.3-.742A1.045,1.045,0,0,1,9.8-1.7,1.074,1.074,0,0,1,10.609-2Zm8.453,0a1.084,1.084,0,0,1,.82.3,1.045,1.045,0,0,1,.289.754,1.008,1.008,0,0,1-.289.738,1.1,1.1,0,0,1-.82.293,1.1,1.1,0,0,1-.8-.289.991.991,0,0,1-.3-.742A1.045,1.045,0,0,1,18.25-1.7,1.074,1.074,0,0,1,19.063-2Zm8.453,0a1.084,1.084,0,0,1,.82.3,1.045,1.045,0,0,1,.289.754,1.008,1.008,0,0,1-.289.738,1.1,1.1,0,0,1-.82.293,1.1,1.1,0,0,1-.8-.289.991.991,0,0,1-.3-.742A1.045,1.045,0,0,1,26.7-1.7,1.074,1.074,0,0,1,27.516-2Z" transform="translate(180 1682)" fill="#3bc192"/>
        </g>
      </g>
    </g>
  </g>
</svg>
