<svg xmlns="http://www.w3.org/2000/svg" width="116" height="116" viewBox="0 0 116 116">
  <g id="Grupo_1043350" data-name="Grupo 1043350" transform="translate(-1084 -14725)">
    <g id="Elipse_4818" data-name="Elipse 4818" transform="translate(1084 14725)" fill="#e0ebff" stroke="#0b62f8" stroke-width="1">
      <circle cx="58" cy="58" r="58" stroke="none"/>
      <circle cx="58" cy="58" r="57.5" fill="none"/>
    </g>
    <g id="Calque_2" data-name="Calque 2" transform="translate(1105 14750.538)">
      <g id="_02-_Health" data-name="02- Health" transform="translate(0 0)">
        <path id="Trazado_772264" data-name="Trazado 772264" d="M38.36,69.937a23.252,23.252,0,0,1-3.136-1.308C-4.068,48.86-5.818,10.9,16.063,3.505c11.58-3.915,20.854.763,27.02,6.034.909.779,1.751,1.569,2.523,2.346a60.677,60.677,0,0,1,6.752-3.635c44.25-20.026,21.188,73.35-14,61.687Z" transform="translate(-1.699 -1.723)" fill="#ff8293"/>
        <path id="Trazado_772265" data-name="Trazado 772265" d="M102.626,87.516c-30.23-20.6-30-52.967-9.972-59.737a25.291,25.291,0,0,1,14.7-.661c.909.779,1.751,1.569,2.523,2.346a60.676,60.676,0,0,1,6.752-3.635c44.25-20.026,21.188,73.35-14,61.687Z" transform="translate(-65.964 -19.301)" fill="#ff9fb3"/>
        <path id="Trazado_772266" data-name="Trazado 772266" d="M279.608,40.565c-.579,6.316-.763,11.14-.763,11.14a42.333,42.333,0,0,0-5.989-7.505,60.672,60.672,0,0,1,6.752-3.635Z" transform="translate(-228.948 -34.037)" fill="#ff8293"/>
        <path id="Trazado_772267" data-name="Trazado 772267" d="M93.937,128.314a3.06,3.06,0,0,1-2.981-3.751l12.729-54.722a3.057,3.057,0,0,1,5.934-.09l8.243,31.143L121.9,82.131a3.057,3.057,0,0,1,5.836-.473l7.945,20.262,8.722-.14a3.057,3.057,0,1,1,.1,6.114l-10.843.173a3.057,3.057,0,0,1-2.9-1.941l-5.016-12.793-4.584,21.315a3.057,3.057,0,0,1-5.945.14l-8.359-31.582-9.942,42.742A3.059,3.059,0,0,1,93.937,128.314Z" transform="translate(-76.254 -56.618)" fill="#eeecff"/>
        <path id="Trazado_772268" data-name="Trazado 772268" d="M69.889,6.218C66.092,2.91,58.514.853,43.956,9.755,37.65,3.471,27.43-2.976,14.262,1.477A19.959,19.959,0,0,0,5.183,7.628a22.115,22.115,0,0,0-4.642,9.96A33.6,33.6,0,0,0,2.776,36.662,53.514,53.514,0,0,0,17.084,56.288L14.39,67.872A3.379,3.379,0,1,0,20.973,69.4l1.97-8.468a80.5,80.5,0,0,0,10.438,6.259,20.753,20.753,0,0,0,9.4,2.37,20.184,20.184,0,0,0,9.765-2.637C57.886,64,62.857,58.713,66.93,51.619l1.32-.021a3.377,3.377,0,0,0,1.8-6.2A61.194,61.194,0,0,0,75.3,22.932c.162-7.706-1.711-13.486-5.416-16.714ZM33.67,66.618a79.684,79.684,0,0,1-10.57-6.36l7.522-32.337L38.65,58.253a3.379,3.379,0,0,0,6.571-.154L49.58,37.827l4.627,11.8a3.389,3.389,0,0,0,3.2,2.145l8.772-.14C57.335,66.821,45.212,72.425,33.67,66.618ZM70.931,48.175a2.736,2.736,0,0,1-2.691,2.779L57.4,51.127a2.752,2.752,0,0,1-2.591-1.737L49.79,36.6a.322.322,0,0,0-.614.05L44.591,57.963a2.736,2.736,0,0,1-5.319.125L30.913,26.505a.322.322,0,0,0-.625.009L20.346,69.257a2.723,2.723,0,0,1-2.662,2.117,2.738,2.738,0,0,1-2.667-3.356L27.746,13.3a2.731,2.731,0,0,1,2.623-2.115h.044a2.729,2.729,0,0,1,2.642,2.036L41.3,44.358a.322.322,0,0,0,.626-.015L45.959,25.58a2.736,2.736,0,0,1,5.222-.424l7.945,20.262a.322.322,0,0,0,.3.2l8.722-.139a2.739,2.739,0,0,1,2.779,2.691Zm-1.453-3.081a3.36,3.36,0,0,0-1.336-.255l-8.5.136L51.78,24.921a3.379,3.379,0,0,0-6.45.523L41.577,42.9l-7.9-29.845a3.379,3.379,0,0,0-6.558.1L18.694,49.368c-5.761-9.693-7.345-19.973-4.335-28.314A19.637,19.637,0,0,1,26.708,8.834a.322.322,0,1,0-.206-.61A20.27,20.27,0,0,0,13.754,20.835a28.638,28.638,0,0,0-1.132,13.952,41.674,41.674,0,0,0,5.863,15.482l-1.234,5.3C4.86,44.446-1.3,29.981,1.173,17.714c1.55-7.7,6.272-13.253,13.3-15.628C27.447-2.3,37.517,4.179,43.68,10.389l0,0a42.528,42.528,0,0,1,5.938,7.439.322.322,0,1,0,.555-.326,42.941,42.941,0,0,0-5.753-7.279C55.627,3.409,64.282,2.187,69.467,6.7c7.882,6.868,5.895,24.832.011,38.391Z" transform="translate(0 0)"/>
      </g>
    </g>
  </g>
</svg>
