<svg xmlns="http://www.w3.org/2000/svg" width="116" height="116" viewBox="0 0 116 116">
  <g id="Grupo_1043351" data-name="Grupo 1043351" transform="translate(-1304 -14725)">
    <g id="Elipse_4820" data-name="Elipse 4820" transform="translate(1304 14725)" fill="#e0ebff" stroke="#0b62f8" stroke-width="1">
      <circle cx="58" cy="58" r="58" stroke="none"/>
      <circle cx="58" cy="58" r="57.5" fill="none"/>
    </g>
    <g id="conciencia" transform="translate(1335.538 14751.421)">
      <path id="Trazado_772269" data-name="Trazado 772269" d="M18.077,7A12.033,12.033,0,0,0,12.5,8.338a8.364,8.364,0,0,0,.223,2.454,9.35,9.35,0,0,1,5.354-1.561,9.35,9.35,0,0,1,5.354,1.561c0-.892.223-1.561.223-2.454A12.033,12.033,0,0,0,18.077,7Z" transform="translate(9.891 6.153)" fill="#4eb8ff"/>
      <path id="Trazado_772270" data-name="Trazado 772270" d="M51.39,45.051l-.669-.669A52.434,52.434,0,0,1,37.337,37.69c4.461-5.8,7.584-12.492,7.584-18.96A17.2,17.2,0,0,0,27.968,2a16.852,16.852,0,0,0-16.73,16.73c0,5.8,2.454,12.269,7.584,18.96A57.158,57.158,0,0,1,5.215,44.382a1.152,1.152,0,0,0-.669,1.561l6.692,13.384a1.205,1.205,0,0,0,1.785.446A99.833,99.833,0,0,0,27.968,47.951,113.173,113.173,0,0,0,42.913,59.774a.987.987,0,0,0,1.561-.446l6.692-13.384a1.341,1.341,0,0,0,.223-.892ZM12.8,57.32,7.223,46.167c5.577-2.008,28.552-11.6,28.552-31.9a7.807,7.807,0,0,0-15.615,0c0,6.246,2.231,11.822,6.246,16.953a41.554,41.554,0,0,1-5.8,5.13c-4.684-6.469-7.138-12.269-7.138-17.845a14.5,14.5,0,0,1,29,.223c0,17.176-24.314,34.8-29.668,38.59Zm9.592-43.051a5.577,5.577,0,1,1,11.153,0A24.488,24.488,0,0,1,27.968,29.66a23.8,23.8,0,0,1-5.577-15.391ZM43.136,57.32A134.011,134.011,0,0,1,29.529,46.39c2.008-2.008,4.238-4.461,6.246-6.692A72.016,72.016,0,0,0,48.713,46.39Z" fill="#1237a5"/>
    </g>
  </g>
</svg>
