<svg xmlns="http://www.w3.org/2000/svg" width="116" height="116" viewBox="0 0 116 116">
  <g id="Grupo_1043353" data-name="Grupo 1043353" transform="translate(-205 -14969)">
    <g id="Elipse_4821" data-name="Elipse 4821" transform="translate(205 14969)" fill="#e0ebff" stroke="#0b62f8" stroke-width="1">
      <circle cx="58" cy="58" r="58" stroke="none"/>
      <circle cx="58" cy="58" r="57.5" fill="none"/>
    </g>
    <g id="Layer_2" data-name="Layer 2" transform="translate(221.024 14986.308)">
      <g id="_1" data-name="1" transform="translate(-0.003 -0.042)">
        <g id="vision">
          <path id="Trazado_772271" data-name="Trazado 772271" d="M85.188,68.669S66.5,97.649,43.457,97.649,1.725,68.669,1.725,68.669s18.684-28.98,41.732-28.98S85.188,68.669,85.188,68.669Z" transform="translate(-1.145 -26.344)" fill="#ec7ced"/>
          <path id="Trazado_772272" data-name="Trazado 772272" d="M42.309,97.083c-23.1,0-42.03-28.953-42.22-29.246a.583.583,0,0,1,0-.628c.189-.293,19.122-29.246,42.22-29.246s42.03,28.953,42.22,29.246a.581.581,0,0,1,0,.628C84.339,68.13,65.406,97.083,42.309,97.083ZM1.274,67.523c2.114,3.128,19.855,28.4,41.036,28.4s38.923-25.272,41.035-28.4c-2.113-3.128-19.855-28.4-41.035-28.4S3.386,64.394,1.274,67.523Z" transform="translate(0.003 -25.198)" fill="#494821"/>
          <circle id="Elipse_4835" data-name="Elipse 4835" cx="19.706" cy="19.706" r="19.706" transform="translate(14.438 42.325) rotate(-45)" fill="#a39cf2"/>
          <path id="Trazado_772273" data-name="Trazado 772273" d="M85.858,106.141a20.287,20.287,0,1,1,20.287-20.287A20.287,20.287,0,0,1,85.858,106.141Zm0-39.413a19.127,19.127,0,1,0,19.127,19.127A19.127,19.127,0,0,0,85.858,66.728Z" transform="translate(-43.546 -43.53)" fill="#494821"/>
          <path id="Trazado_772274" data-name="Trazado 772274" d="M79.954,95.611a.579.579,0,0,1-.58-.58,15.667,15.667,0,0,1,15.65-15.649.58.58,0,0,1,0,1.159A14.506,14.506,0,0,0,80.535,95.03a.579.579,0,0,1-.581.581Z" transform="translate(-52.713 -52.705)" fill="#fff"/>
          <path id="Trazado_772275" data-name="Trazado 772275" d="M118.04,109.926a8.115,8.115,0,1,1-8.114-8.114,8.115,8.115,0,0,1,8.114,8.114Z" transform="translate(-67.614 -67.601)" fill="#fff"/>
          <g id="Grupo_1043131" data-name="Grupo 1043131" transform="translate(20.866)">
            <path id="Trazado_772276" data-name="Trazado 772276" d="M108.78,117.474a8.694,8.694,0,1,1,8.694-8.694A8.694,8.694,0,0,1,108.78,117.474Zm0-16.229a7.535,7.535,0,1,0,7.533,7.534A7.535,7.535,0,0,0,108.78,101.244Z" transform="translate(-87.334 -66.454)" fill="#494821"/>
            <path id="Trazado_772277" data-name="Trazado 772277" d="M124.824,9.246a.579.579,0,0,1-.58-.58V.552a.58.58,0,1,1,1.159,0V8.666a.579.579,0,0,1-.579.58Z" transform="translate(-103.379 0.042)" fill="#494821"/>
            <path id="Trazado_772278" data-name="Trazado 772278" d="M124.824,233.577a.579.579,0,0,1-.58-.58v-8.114a.58.58,0,1,1,1.159,0V233A.579.579,0,0,1,124.824,233.577Z" transform="translate(-103.379 -148.941)" fill="#494821"/>
            <path id="Trazado_772279" data-name="Trazado 772279" d="M66.759,24.832a.58.58,0,0,1-.5-.29L62.2,17.515a.58.58,0,1,1,1-.579l4.057,7.027a.58.58,0,0,1-.5.87Z" transform="translate(-62.122 -11.04)" fill="#494821"/>
            <path id="Trazado_772280" data-name="Trazado 772280" d="M178.928,219.113a.579.579,0,0,1-.5-.29l-4.057-7.027a.58.58,0,1,1,1-.58l4.057,7.027a.579.579,0,0,1-.5.869Z" transform="translate(-136.614 -140.066)" fill="#494821"/>
            <path id="Trazado_772281" data-name="Trazado 772281" d="M174.867,24.832a.58.58,0,0,1-.5-.87l4.058-7.027a.58.58,0,1,1,1,.579l-4.057,7.027A.579.579,0,0,1,174.867,24.832Z" transform="translate(-136.613 -11.04)" fill="#494821"/>
            <path id="Trazado_772282" data-name="Trazado 772282" d="M62.7,219.113a.579.579,0,0,1-.5-.869l4.057-7.027a.58.58,0,1,1,1,.58L63.2,218.822A.58.58,0,0,1,62.7,219.113Z" transform="translate(-62.122 -140.066)" fill="#494821"/>
          </g>
        </g>
      </g>
    </g>
  </g>
</svg>
