<svg xmlns="http://www.w3.org/2000/svg" width="116" height="116" viewBox="0 0 116 116">
  <g id="Grupo_1043355" data-name="Grupo 1043355" transform="translate(-645 -14969)">
    <g id="Elipse_4823" data-name="Elipse 4823" transform="translate(645 14969)" fill="#e0ebff" stroke="#0b62f8" stroke-width="1">
      <circle cx="58" cy="58" r="58" stroke="none"/>
      <circle cx="58" cy="58" r="57.5" fill="none"/>
    </g>
    <g id="boca" transform="translate(-551.145 14354.966)">
      <g id="Grupo_1043148" data-name="Grupo 1043148" transform="translate(1254.389 698.411)">
        <path id="Trazado_772323" data-name="Trazado 772323" d="M2510.8,3674.1v5.261a20.825,20.825,0,0,0,12.014-4.12A63.443,63.443,0,0,0,2510.8,3674.1Z" transform="translate(-2510.8 -3674.1)" fill="#fff"/>
      </g>
      <g id="Grupo_1043149" data-name="Grupo 1043149" transform="translate(1232.41 645.232)">
        <path id="Trazado_772324" data-name="Trazado 772324" d="M1542.5,1342.159l6.056,3.777a22.347,22.347,0,0,1,6.893-7.808l-4.955-6.927c-.036.032-.075.059-.111.091s-.084.07-.127.107A30.57,30.57,0,0,0,1542.5,1342.159Z" transform="translate(-1542.5 -1331.2)" fill="#fff"/>
      </g>
      <g id="Grupo_1043150" data-name="Grupo 1043150" transform="translate(1229.664 656.645)">
        <path id="Trazado_772325" data-name="Trazado 772325" d="M1422.619,1843.781a3.839,3.839,0,0,0,5.749-2,27.272,27.272,0,0,1,1.7-4.022l-6.026-3.757q-.558,1.311-1.019,2.694l-.089.275c-.111.343-.218.69-.322,1.04-.05.17-.1.34-.145.511-.075.268-.145.54-.216.81-.059.232-.116.463-.172.7-.048.2-.093.411-.139.62-.064.291-.125.581-.182.876-.025.132-.048.266-.073.4-.066.361-.132.724-.186,1.092Q1422.052,1843.4,1422.619,1843.781Z" transform="translate(-1421.5 -1834)" fill="#fff"/>
      </g>
      <path id="Trazado_772326" data-name="Trazado 772326" d="M1390.8,2626.548a.245.245,0,0,1-.079.129s0,0,0,0a28.639,28.639,0,0,1-6.535,7.155.24.24,0,0,1-.127.093,20.806,20.806,0,0,1-25.892.007.243.243,0,0,1-.139-.1,28.637,28.637,0,0,1-6.53-7.15s0,0,0,0a.243.243,0,0,1-.079-.129,37.459,37.459,0,0,1-5.67-18.05c-2.113,13.256-.291,23.8,5.327,30.583,4.567,5.516,11.494,8.432,20.036,8.432s15.469-2.917,20.036-8.432c5.618-6.784,7.443-17.328,5.327-30.583A37.4,37.4,0,0,1,1390.8,2626.548Z" transform="translate(-116.965 -1934.276)" fill="#ffa1b4"/>
      <g id="Grupo_1043153" data-name="Grupo 1043153" transform="translate(1227.925 674.222)">
        <g id="Grupo_1043151" data-name="Grupo 1043151" transform="translate(11.506 0)">
          <path id="Trazado_772327" data-name="Trazado 772327" d="M1855.4,2635.7a.251.251,0,0,0,.138.1,20.806,20.806,0,0,0,25.892-.007.257.257,0,0,0,.127-.093,28.546,28.546,0,0,0,6.535-7.154s0,0,0,0a.244.244,0,0,0,.079-.129,35.74,35.74,0,0,0,4.553-10.677,65.448,65.448,0,0,0-.847-9.336,37.465,37.465,0,0,1-5.67,18.049.243.243,0,0,1-.079.129s0,0,0,0a28.632,28.632,0,0,1-6.535,7.154.24.24,0,0,1-.127.093,20.806,20.806,0,0,1-25.892.007.241.241,0,0,1-.138-.1q-.838-.644-1.632-1.367A27.073,27.073,0,0,0,1855.4,2635.7Z" transform="translate(-1851.8 -2608.4)" fill="#fff"/>
        </g>
        <g id="Grupo_1043152" data-name="Grupo 1043152" transform="translate(0 0.002)">
          <path id="Trazado_772328" data-name="Trazado 772328" d="M1353.036,2641.047c-4.741-5.727-6.769-14.139-6.02-24.589a39.942,39.942,0,0,1-1.273-7.958c-2.113,13.256-.291,23.8,5.327,30.583a21.6,21.6,0,0,0,2.4,2.46C1353.329,2641.378,1353.177,2641.217,1353.036,2641.047Z" transform="translate(-1344.89 -2608.5)" fill="#fff"/>
        </g>
      </g>
      <g id="Grupo_1043154" data-name="Grupo 1043154" transform="translate(1270.055 656.638)">
        <path id="Trazado_772329" data-name="Trazado 772329" d="M3201,1837.461a27.057,27.057,0,0,1,1.7,4.022,3.825,3.825,0,0,0,2.4,2.424,3.778,3.778,0,0,0,3.348-.422q.568-.378,1.117-.772c-.057-.368-.12-.729-.186-1.092-.025-.132-.045-.266-.073-.4-.057-.3-.12-.586-.182-.876-.045-.207-.091-.413-.139-.62-.054-.234-.113-.465-.17-.7-.07-.272-.141-.545-.216-.815-.048-.17-.1-.34-.145-.508-.1-.35-.211-.7-.322-1.042l-.089-.272q-.463-1.382-1.019-2.694Z" transform="translate(-3201 -1833.7)" fill="#fff"/>
      </g>
      <g id="Grupo_1043155" data-name="Grupo 1043155" transform="translate(1254.384 639.955)">
        <path id="Trazado_772330" data-name="Trazado 772330" d="M2510.6,1108.061a15.546,15.546,0,0,1,8.126,2.574l4.985-6.968c-.107-.086-.213-.177-.32-.263s-.188-.145-.284-.218c-.225-.17-.449-.336-.679-.5-.125-.089-.252-.177-.379-.263-.2-.136-.4-.268-.606-.4-.147-.1-.3-.188-.447-.279-.184-.111-.37-.216-.559-.322-.168-.1-.333-.193-.5-.281s-.34-.173-.511-.257c-.411-.2-.826-.4-1.246-.574-.106-.045-.211-.1-.32-.139-.209-.084-.42-.159-.629-.236-.159-.059-.318-.118-.477-.173-.2-.068-.406-.129-.611-.193-.175-.052-.347-.107-.522-.154-.2-.055-.395-.1-.592-.152s-.381-.091-.572-.132-.377-.077-.565-.114c-.211-.038-.424-.073-.638-.1-.175-.025-.347-.052-.522-.075-.25-.029-.5-.052-.751-.073-.143-.011-.284-.027-.427-.036-.315-.018-.635-.027-.956-.032Z" transform="translate(-2510.6 -1098.7)" fill="#fff"/>
      </g>
      <g id="Grupo_1043156" data-name="Grupo 1043156" transform="translate(1262.926 645.232)">
        <path id="Trazado_772331" data-name="Trazado 772331" d="M2886.9,1338.128a22.309,22.309,0,0,1,6.894,7.808l6.056-3.777a30.535,30.535,0,0,0-7.76-10.763l-.12-.1c-.036-.032-.077-.061-.113-.093Z" transform="translate(-2886.9 -1331.2)" fill="#fff"/>
      </g>
      <path id="Trazado_772332" data-name="Trazado 772332" d="M1450.3,1548.7c-.3.216-.608.431-.922.638a4.263,4.263,0,0,1-3.779.477,4.312,4.312,0,0,1-2.708-2.735,27.04,27.04,0,0,0-1.759-4.117.068.068,0,0,1-.014-.014c-.007-.014-.009-.027-.016-.041-3.466-6.483-9.261-10.6-15.355-10.6a15.065,15.065,0,0,0-8.292,2.619,21.784,21.784,0,0,0-7.062,7.981.182.182,0,0,1-.016.045c0,.007-.011.009-.016.014a26.693,26.693,0,0,0-1.759,4.115,4.364,4.364,0,0,1-4.127,2.976,4.261,4.261,0,0,1-2.363-.717c-.313-.207-.617-.425-.922-.638a40.4,40.4,0,0,0-.4,5.62,37.5,37.5,0,0,0,5.529,19.972,12.593,12.593,0,0,1,9.608-4.331l.048,0a16.936,16.936,0,0,1-.311-21.858,3.575,3.575,0,0,1,4.508-.862,3.671,3.671,0,0,1,1.891,4.247,9.777,9.777,0,0,0-.393,2.293c0,2.717,1.26,5.457,4.072,5.457s4.07-2.742,4.07-5.457a9.8,9.8,0,0,0-.393-2.293,3.672,3.672,0,0,1,1.888-4.247,3.574,3.574,0,0,1,4.508.862,16.936,16.936,0,0,1-.311,21.858l.048,0a12.6,12.6,0,0,1,9.608,4.331,37.506,37.506,0,0,0,5.529-19.972A40.748,40.748,0,0,0,1450.3,1548.7Z" transform="translate(-171.606 -882.504)" fill="#f2dac9"/>
      <path id="Trazado_772333" data-name="Trazado 772333" d="M1915.936,2193.171a3.108,3.108,0,0,0-3.909.747,16.428,16.428,0,0,0,.629,21.561,12.871,12.871,0,0,1,5.318,1.482,9.969,9.969,0,0,1,1.1.763c.288.216.606.456.951.7a9.373,9.373,0,0,0,5.173-1.3l.293-.159a12.871,12.871,0,0,1,5.318-1.482,16.428,16.428,0,0,0,.629-21.561,3.111,3.111,0,0,0-3.909-.747,3.15,3.15,0,0,0-1.641,3.686,10.317,10.317,0,0,1,.409,2.417c0,3.557-1.834,5.949-4.562,5.949s-4.562-2.39-4.562-5.949a10.322,10.322,0,0,1,.409-2.417A3.154,3.154,0,0,0,1915.936,2193.171Z" transform="translate(-667.587 -1527.999)" fill="#eb7f95"/>
      <g id="Grupo_1043157" data-name="Grupo 1043157" transform="translate(1241.885 698.411)">
        <path id="Trazado_772334" data-name="Trazado 772334" d="M1959.9,3675.242a20.826,20.826,0,0,0,12.014,4.12V3674.1A63.446,63.446,0,0,0,1959.9,3675.242Z" transform="translate(-1959.9 -3674.1)" fill="#fff"/>
      </g>
      <path id="Trazado_772335" data-name="Trazado 772335" d="M1271.777,707.948c0-.03.009-.057.014-.084.052-.336.109-.667.168-1,.032-.177.064-.356.1-.533.054-.277.111-.552.17-.826.052-.243.107-.484.161-.724.05-.213.1-.427.154-.638.082-.322.166-.64.254-.958.036-.132.073-.266.111-.4.129-.443.266-.883.409-1.316,0-.009.007-.018.009-.027,3.577-10.779,12.82-20.517,24.968-19.661,10.836.763,18.669,9.906,21.906,19.659,0,.011.007.023.011.034q.215.647.406,1.31c.039.132.075.266.113.4.089.316.175.633.254.953.054.213.1.427.154.64.057.238.109.479.161.72.059.275.116.552.17.828.034.177.066.354.1.531.059.331.116.665.168,1,0,.03.009.057.014.093a40.794,40.794,0,0,1,.438,5.1c5.554-11.172.71-22.464-2.742-28.284-4.356-7.341-10.148-12.273-12.824-12.273a7.273,7.273,0,0,0-4.665,1.814,7.824,7.824,0,0,1-10.382,0,7.272,7.272,0,0,0-4.664-1.814c-2.676,0-8.469,4.932-12.824,12.273-3.455,5.82-8.3,17.112-2.742,28.284A41.065,41.065,0,0,1,1271.777,707.948Z" transform="translate(-42.62 -42.219)" fill="#ffa1b4"/>
      <g id="Grupo_1043158" data-name="Grupo 1043158" transform="translate(1226.196 630.283)">
        <path id="Trazado_772336" data-name="Trazado 772336" d="M1275.949,686.836c4.356-7.341,10.148-12.273,12.825-12.273a7.272,7.272,0,0,1,4.664,1.814,7.824,7.824,0,0,0,10.382,0,7.272,7.272,0,0,1,4.664-1.814c1.314,0,3.382,1.194,5.663,3.275-3.019-3.282-5.94-5.239-7.627-5.239a7.272,7.272,0,0,0-4.664,1.814,7.824,7.824,0,0,1-10.382,0,7.272,7.272,0,0,0-4.664-1.814c-2.676,0-8.469,4.932-12.824,12.273-3.455,5.82-8.3,17.112-2.742,28.284q.034-1.464.172-2.892C1269.035,700.787,1273,691.812,1275.949,686.836Z" transform="translate(-1268.718 -672.6)" fill="#fff"/>
      </g>
      <g id="Grupo_1043159" data-name="Grupo 1043159" transform="translate(1240.791 639.957)">
        <path id="Trazado_772337" data-name="Trazado 772337" d="M1916.682,1110.732a15.547,15.547,0,0,1,8.126-2.574V1098.8c-.32,0-.638.011-.956.032-.143.009-.284.025-.427.036-.252.02-.5.043-.751.073-.175.02-.349.048-.522.075-.213.032-.425.066-.636.1-.191.034-.379.073-.567.114s-.381.084-.57.129-.4.1-.593.152c-.175.048-.347.1-.522.154-.2.063-.411.125-.613.193-.159.055-.316.114-.474.172-.211.077-.424.152-.633.236-.1.041-.2.089-.3.132-.427.179-.849.377-1.267.586-.168.084-.338.166-.5.254s-.338.188-.506.284c-.186.1-.37.209-.554.32-.152.091-.3.186-.449.281-.2.129-.4.259-.6.395q-.191.129-.381.266-.341.242-.674.5c-.1.073-.191.145-.286.22s-.213.175-.32.261Z" transform="translate(-1911.7 -1098.8)" fill="#fff"/>
      </g>
      <path id="Trazado_772338" data-name="Trazado 772338" d="M1685.458,3213.1a12.381,12.381,0,0,0-5.824,1.446l-.291.156a11.871,11.871,0,0,1-1.843.849,10.1,10.1,0,0,1-2.027.413,3.367,3.367,0,0,1-1.825.016,5.417,5.417,0,0,1-.958-.713,9.7,9.7,0,0,0-1.033-.722,12.38,12.38,0,0,0-5.824-1.446,12.1,12.1,0,0,0-9.333,4.274,28.061,28.061,0,0,0,6.349,6.937,66.682,66.682,0,0,1,25.594,0,28.01,28.01,0,0,0,6.349-6.937A12.1,12.1,0,0,0,1685.458,3213.1Z" transform="translate(-421.502 -2525.152)" fill="#eb7f95"/>
      <path id="Trazado_772339" data-name="Trazado 772339" d="M1685.458,3213.1a12.381,12.381,0,0,0-5.824,1.446l-.291.156a11.871,11.871,0,0,1-1.843.849,10.1,10.1,0,0,1-2.027.413,3.367,3.367,0,0,1-1.825.016,5.417,5.417,0,0,1-.958-.713,9.7,9.7,0,0,0-1.033-.722,12.38,12.38,0,0,0-5.824-1.446,12.1,12.1,0,0,0-9.333,4.274,28.836,28.836,0,0,0,4.787,5.629,30.014,30.014,0,0,1-2.824-3.666,12.1,12.1,0,0,1,9.333-4.274,12.377,12.377,0,0,1,5.824,1.446,2.859,2.859,0,0,1,.279.175.322.322,0,0,1,.168-.02,7.882,7.882,0,0,1,1.848.6,7.508,7.508,0,0,0,1.741.6.439.439,0,0,1,.091.03,9.3,9.3,0,0,0,1.718-.372,11.993,11.993,0,0,0,1.843-.849l.291-.157a12.39,12.39,0,0,1,5.824-1.446,12.25,12.25,0,0,1,7.32,2.383c.016-.025.034-.048.05-.073A12.105,12.105,0,0,0,1685.458,3213.1Z" transform="translate(-421.502 -2525.152)" fill="#fff"/>
      <g id="Grupo_1043160" data-name="Grupo 1043160" transform="translate(1228.211 638.969)">
        <path id="Trazado_772340" data-name="Trazado 772340" d="M1383.433,1120.993c-14.3,0-25.933-14.736-25.933-32.847s11.633-32.846,25.933-32.846,25.933,14.736,25.933,32.846S1397.732,1120.993,1383.433,1120.993Zm0-64.222c-13.487,0-24.459,14.075-24.459,31.373s10.972,31.374,24.459,31.374,24.46-14.075,24.46-31.374S1396.92,1056.771,1383.433,1056.771Z" transform="translate(-1357.5 -1055.3)" fill="#080075"/>
      </g>
      <g id="Grupo_1043161" data-name="Grupo 1043161" transform="translate(1240.534 697.429)">
        <path id="Trazado_772341" data-name="Trazado 772341" d="M1901.129,3633.531a.735.735,0,0,1-.152-1.455,67.138,67.138,0,0,1,26.051,0,.736.736,0,0,1-.3,1.439,65.658,65.658,0,0,0-25.442,0A.714.714,0,0,1,1901.129,3633.531Z" transform="translate(-1900.394 -3630.8)" fill="#080075"/>
      </g>
      <g id="Grupo_1043162" data-name="Grupo 1043162" transform="translate(1239.733 663.815)">
        <path id="Trazado_772342" data-name="Trazado 772342" d="M1888.7,2174.546a.737.737,0,0,1-.524-1.253,15.938,15.938,0,0,0,.667-20.964,2.63,2.63,0,0,0-3.307-.629,2.672,2.672,0,0,0-1.394,3.125,10.538,10.538,0,0,1,.424,2.542c0,3.852-2.029,6.439-5.053,6.439s-5.053-2.588-5.053-6.439a10.567,10.567,0,0,1,.424-2.542,2.673,2.673,0,0,0-1.4-3.125,2.633,2.633,0,0,0-3.307.629,15.938,15.938,0,0,0,.667,20.964.737.737,0,0,1-1.051,1.033,17.407,17.407,0,0,1-.738-22.95,4.108,4.108,0,0,1,5.109-.979,4.15,4.15,0,0,1,2.136,4.805,9.388,9.388,0,0,0-.377,2.167c0,2.472,1.108,4.967,3.579,4.967s3.58-2.495,3.58-4.967a9.4,9.4,0,0,0-.377-2.167,4.151,4.151,0,0,1,2.136-4.805,4.108,4.108,0,0,1,5.109.979,17.41,17.41,0,0,1-.738,22.952A.719.719,0,0,1,1888.7,2174.546Z" transform="translate(-1865.1 -2149.907)" fill="#080075"/>
      </g>
      <g id="Grupo_1043163" data-name="Grupo 1043163" transform="translate(1233.948 686.967)">
        <path id="Trazado_772343" data-name="Trazado 772343" d="M1633.682,3176.289c-2.726,0-5.094-1.782-6.51-2.849a9.83,9.83,0,0,0-.967-.681,11.9,11.9,0,0,0-5.593-1.389,11.6,11.6,0,0,0-9.077,4.238.736.736,0,0,1-1.142-.928,13.066,13.066,0,0,1,10.219-4.78,13.379,13.379,0,0,1,6.287,1.562,10.229,10.229,0,0,1,1.16.8c1.351,1.017,3.391,2.551,5.625,2.551a.737.737,0,1,1,0,1.473Z" transform="translate(-1610.228 -3169.9)" fill="#080075"/>
      </g>
      <g id="Grupo_1043164" data-name="Grupo 1043164" transform="translate(1251.622 686.967)">
        <path id="Trazado_772344" data-name="Trazado 772344" d="M2410.883,3175.881a.735.735,0,0,1-.572-.272,11.612,11.612,0,0,0-9.077-4.238,11.9,11.9,0,0,0-5.593,1.389l-.286.154a10.359,10.359,0,0,1-5.72,1.423.735.735,0,1,1,0-1.471,8.882,8.882,0,0,0,5.014-1.244l.3-.161a13.381,13.381,0,0,1,6.288-1.562,13.074,13.074,0,0,1,10.219,4.78.737.737,0,0,1-.57,1.2Z" transform="translate(-2388.9 -3169.9)" fill="#080075"/>
      </g>
      <g id="Grupo_1043165" data-name="Grupo 1043165" transform="translate(1228.666 638.967)">
        <path id="Trazado_772345" data-name="Trazado 772345" d="M1381.745,1084.274a4.744,4.744,0,0,1-2.633-.8q-.647-.429-1.271-.883a.737.737,0,0,1-.3-.706c2.315-15.464,13.027-26.686,25.472-26.686s23.157,11.224,25.472,26.686a.738.738,0,0,1-.3.706c-.415.3-.84.595-1.271.883a4.749,4.749,0,0,1-4.21.531,4.8,4.8,0,0,1-3.014-3.044c-2.871-8.637-9.574-14.438-16.679-14.438s-13.81,5.8-16.681,14.438a4.8,4.8,0,0,1-3.012,3.044A4.862,4.862,0,0,1,1381.745,1084.274Zm-2.676-2.613q.422.3.856.586a3.3,3.3,0,0,0,2.919.368,3.338,3.338,0,0,0,2.095-2.115c3.071-9.238,10.337-15.446,18.077-15.446s15.006,6.208,18.077,15.446a3.333,3.333,0,0,0,2.1,2.115,3.294,3.294,0,0,0,2.917-.368c.288-.191.574-.386.856-.586-2.34-14.506-12.355-24.988-23.946-24.988S1381.411,1067.155,1379.069,1081.662Z" transform="translate(-1377.538 -1055.2)" fill="#080075"/>
      </g>
      <g id="Grupo_1043166" data-name="Grupo 1043166" transform="translate(1253.408 638.969)">
        <path id="Trazado_772346" data-name="Trazado 772346" d="M2468.335,1066.622a.735.735,0,0,1-.735-.735v-9.851a.735.735,0,1,1,1.471,0v9.851A.735.735,0,0,1,2468.335,1066.622Z" transform="translate(-2467.6 -1055.3)" fill="#080075"/>
      </g>
      <g id="Grupo_1043167" data-name="Grupo 1043167" transform="translate(1239.709 644.125)">
        <path id="Trazado_772347" data-name="Trazado 772347" d="M1870.041,1291.274a.732.732,0,0,1-.6-.309l-5.264-7.359a.737.737,0,0,1,1.2-.858l5.264,7.359a.737.737,0,0,1-.17,1.028A.726.726,0,0,1,1870.041,1291.274Z" transform="translate(-1864.041 -1282.441)" fill="#080075"/>
      </g>
      <g id="Grupo_1043168" data-name="Grupo 1043168" transform="translate(1231.358 655.544)">
        <path id="Trazado_772348" data-name="Trazado 772348" d="M1503.335,1791.037a.731.731,0,0,1-.388-.111l-6.471-4.036a.737.737,0,0,1,.779-1.251l6.471,4.036a.737.737,0,0,1-.391,1.362Z" transform="translate(-1496.129 -1785.529)" fill="#080075"/>
      </g>
      <g id="Grupo_1043169" data-name="Grupo 1043169" transform="translate(1261.844 644.125)">
        <path id="Trazado_772349" data-name="Trazado 772349" d="M2839.975,1291.274a.738.738,0,0,1-.6-1.167l5.264-7.359a.737.737,0,0,1,1.2.858l-5.266,7.361A.736.736,0,0,1,2839.975,1291.274Z" transform="translate(-2839.241 -1282.441)" fill="#080075"/>
      </g>
      <g id="Grupo_1043170" data-name="Grupo 1043170" transform="translate(1268.986 655.543)">
        <path id="Trazado_772350" data-name="Trazado 772350" d="M3154.623,1790.994a.737.737,0,0,1-.39-1.362l6.471-4.036a.737.737,0,1,1,.779,1.251l-6.471,4.036A.73.73,0,0,1,3154.623,1790.994Z" transform="translate(-3153.885 -1785.485)" fill="#080075"/>
      </g>
      <g id="Grupo_1043171" data-name="Grupo 1043171" transform="translate(1253.408 629.302)">
        <path id="Trazado_772351" data-name="Trazado 772351" d="M2493.531,672.649a.737.737,0,0,1-.645-1.09c6.133-11.236,1.2-22.775-2.292-28.656-4.6-7.747-10.25-12.032-12.4-12.032a6.794,6.794,0,0,0-4.376,1.721,8.59,8.59,0,0,1-5.479,2.063.735.735,0,1,1,0-1.471,7.172,7.172,0,0,0,4.617-1.784,8.179,8.179,0,0,1,5.239-2c3.364,0,9.495,5.722,13.669,12.754,3.648,6.149,8.8,18.238,2.318,30.111A.736.736,0,0,1,2493.531,672.649Z" transform="translate(-2467.6 -629.4)" fill="#080075"/>
      </g>
      <g id="Grupo_1043172" data-name="Grupo 1043172" transform="translate(1225.208 629.3)">
        <path id="Trazado_772352" data-name="Trazado 772352" d="M1254.144,714.221c-8.843,0-16.032-3.039-20.792-8.789-6.1-7.375-7.892-18.953-5.175-33.5-6.29-11.8-1.18-23.772,2.445-29.88,4.172-7.032,10.3-12.754,13.669-12.754a8.18,8.18,0,0,1,5.239,2,7.171,7.171,0,0,0,4.617,1.784.735.735,0,0,1,0,1.471,8.6,8.6,0,0,1-5.479-2.063,6.781,6.781,0,0,0-4.376-1.721c-2.152,0-7.8,4.285-12.4,12.032-3.489,5.879-8.426,17.421-2.292,28.656a.737.737,0,0,1,.077.49c-2.7,14.22-1.037,25.474,4.814,32.542,4.472,5.4,11.267,8.255,19.657,8.255a.737.737,0,0,1,0,1.473Z" transform="translate(-1225.208 -629.3)" fill="#080075"/>
      </g>
      <g id="Grupo_1043173" data-name="Grupo 1043173" transform="translate(1226.942 671.077)">
        <path id="Trazado_772353" data-name="Trazado 772353" d="M1328.783,2512.979c-8.843,0-16.032-3.039-20.792-8.789-6.14-7.418-7.915-19.089-5.128-33.757a.736.736,0,0,1,1.446.275c-2.7,14.22-1.037,25.474,4.814,32.542,4.472,5.4,11.267,8.255,19.657,8.255a.737.737,0,0,1,0,1.473Z" transform="translate(-1301.582 -2469.836)" fill="#080075"/>
      </g>
      <g id="Grupo_1043174" data-name="Grupo 1043174" transform="translate(1253.408 671.079)">
        <path id="Trazado_772354" data-name="Trazado 772354" d="M2468.335,2513.078a.735.735,0,0,1,0-1.471c8.389,0,15.188-2.855,19.657-8.255,5.852-7.068,7.518-18.32,4.814-32.542a.736.736,0,1,1,1.446-.274c2.785,14.665,1.012,26.339-5.128,33.756C2484.367,2510.041,2477.179,2513.078,2468.335,2513.078Z" transform="translate(-2467.6 -2469.936)" fill="#080075"/>
      </g>
      <g id="Grupo_1043175" data-name="Grupo 1043175" transform="translate(1253.408 697.429)">
        <path id="Trazado_772355" data-name="Trazado 772355" d="M2468.335,3638.034a.735.735,0,0,1-.735-.735v-5.763a.735.735,0,0,1,1.471,0v5.761A.736.736,0,0,1,2468.335,3638.034Z" transform="translate(-2467.6 -3630.8)" fill="#080075"/>
      </g>
    </g>
  </g>
</svg>
