<svg xmlns="http://www.w3.org/2000/svg" width="116" height="116" viewBox="0 0 116 116">
  <g id="Grupo_1043356" data-name="Grupo 1043356" transform="translate(-864 -14969)">
    <g id="Elipse_4824" data-name="Elipse 4824" transform="translate(864 14969)" fill="#e0ebff" stroke="#0b62f8" stroke-width="1">
      <circle cx="58" cy="58" r="58" stroke="none"/>
      <circle cx="58" cy="58" r="57.5" fill="none"/>
    </g>
    <g id="_x32_9_Mind_Mapping" transform="translate(878.981 14980)">
      <g id="_x32_9_Mind_Mapping_1_" transform="translate(0.001 0)">
        <g id="Grupo_1043244" data-name="Grupo 1043244" transform="translate(0 0)">
          <g id="Grupo_1043178" data-name="Grupo 1043178" transform="translate(40.474 0.562)">
            <g id="Grupo_1043177" data-name="Grupo 1043177">
              <g id="Grupo_1043176" data-name="Grupo 1043176">
                <circle id="Elipse_4836" data-name="Elipse 4836" cx="3.544" cy="3.544" r="3.544" fill="#f8664f"/>
              </g>
            </g>
          </g>
          <g id="Grupo_1043181" data-name="Grupo 1043181" transform="translate(21.366 21.528)">
            <g id="Grupo_1043180" data-name="Grupo 1043180">
              <g id="Grupo_1043179" data-name="Grupo 1043179">
                <path id="Trazado_772356" data-name="Trazado 772356" d="M169.568,147.861a22.652,22.652,0,1,1-22.655-22.655A22.557,22.557,0,0,1,169.568,147.861Z" transform="translate(-124.265 -125.206)" fill="#f9e109"/>
              </g>
            </g>
          </g>
          <g id="Grupo_1043184" data-name="Grupo 1043184" transform="translate(36.377 21.527)" opacity="0.1">
            <g id="Grupo_1043183" data-name="Grupo 1043183">
              <g id="Grupo_1043182" data-name="Grupo 1043182">
                <path id="Trazado_772357" data-name="Trazado 772357" d="M241.856,147.856a22.665,22.665,0,0,1-18.8,22.323,22.658,22.658,0,0,0-11.494-43.658,22.664,22.664,0,0,1,30.292,21.334Z" transform="translate(-211.564 -125.2)"/>
              </g>
            </g>
          </g>
          <g id="Grupo_1043187" data-name="Grupo 1043187" transform="translate(25.665 50.457)">
            <g id="Grupo_1043186" data-name="Grupo 1043186">
              <g id="Grupo_1043185" data-name="Grupo 1043185">
                <path id="Trazado_772358" data-name="Trazado 772358" d="M150.925,297.482a19.364,19.364,0,0,1-1.621-3.266.562.562,0,0,1,1.05-.4,18.178,18.178,0,0,0,1.527,3.075.562.562,0,0,1-.956.593Z" transform="translate(-149.267 -293.453)" fill="#fff"/>
              </g>
            </g>
          </g>
          <g id="Grupo_1043190" data-name="Grupo 1043190" transform="translate(24.586 46.284)">
            <g id="Grupo_1043189" data-name="Grupo 1043189">
              <g id="Grupo_1043188" data-name="Grupo 1043188">
                <path id="Trazado_772359" data-name="Trazado 772359" d="M143.266,271.331c-.113-.5-.205-1.014-.274-1.513a.562.562,0,0,1,1.114-.152c.064.468.151.945.257,1.419a.562.562,0,0,1-1.1.247Z" transform="translate(-142.987 -269.18)" fill="#fff"/>
              </g>
            </g>
          </g>
          <g id="Grupo_1043193" data-name="Grupo 1043193" transform="translate(12.252 12.252)">
            <g id="Grupo_1043192" data-name="Grupo 1043192">
              <g id="Grupo_1043191" data-name="Grupo 1043191">
                <circle id="Elipse_4837" data-name="Elipse 4837" cx="3.544" cy="3.544" r="3.544" fill="#f8664f"/>
              </g>
            </g>
          </g>
          <g id="Grupo_1043196" data-name="Grupo 1043196" transform="translate(0.562 40.474)">
            <g id="Grupo_1043195" data-name="Grupo 1043195">
              <g id="Grupo_1043194" data-name="Grupo 1043194">
                <circle id="Elipse_4838" data-name="Elipse 4838" cx="3.544" cy="3.544" r="3.544" fill="#f8664f"/>
              </g>
            </g>
          </g>
          <g id="Grupo_1043199" data-name="Grupo 1043199" transform="translate(12.252 68.695)">
            <g id="Grupo_1043198" data-name="Grupo 1043198">
              <g id="Grupo_1043197" data-name="Grupo 1043197">
                <circle id="Elipse_4839" data-name="Elipse 4839" cx="3.544" cy="3.544" r="3.544" fill="#f8664f"/>
              </g>
            </g>
          </g>
          <g id="Grupo_1043202" data-name="Grupo 1043202" transform="translate(40.474 80.385)">
            <g id="Grupo_1043201" data-name="Grupo 1043201">
              <g id="Grupo_1043200" data-name="Grupo 1043200">
                <circle id="Elipse_4840" data-name="Elipse 4840" cx="3.544" cy="3.544" r="3.544" fill="#f8664f"/>
              </g>
            </g>
          </g>
          <g id="Grupo_1043205" data-name="Grupo 1043205" transform="translate(68.695 68.695)">
            <g id="Grupo_1043204" data-name="Grupo 1043204">
              <g id="Grupo_1043203" data-name="Grupo 1043203">
                <circle id="Elipse_4841" data-name="Elipse 4841" cx="3.544" cy="3.544" r="3.544" fill="#f8664f"/>
              </g>
            </g>
          </g>
          <g id="Grupo_1043208" data-name="Grupo 1043208" transform="translate(80.385 40.474)">
            <g id="Grupo_1043207" data-name="Grupo 1043207">
              <g id="Grupo_1043206" data-name="Grupo 1043206">
                <circle id="Elipse_4842" data-name="Elipse 4842" cx="3.544" cy="3.544" r="3.544" fill="#f8664f"/>
              </g>
            </g>
          </g>
          <g id="Grupo_1043211" data-name="Grupo 1043211" transform="translate(68.695 12.252)">
            <g id="Grupo_1043210" data-name="Grupo 1043210">
              <g id="Grupo_1043209" data-name="Grupo 1043209">
                <circle id="Elipse_4843" data-name="Elipse 4843" cx="3.544" cy="3.544" r="3.544" fill="#f8664f"/>
              </g>
            </g>
          </g>
          <g id="Grupo_1043243" data-name="Grupo 1043243">
            <g id="Grupo_1043214" data-name="Grupo 1043214" transform="translate(30.441 28.987)">
              <g id="Grupo_1043213" data-name="Grupo 1043213">
                <g id="Grupo_1043212" data-name="Grupo 1043212">
                  <path id="Trazado_772360" data-name="Trazado 772360" d="M190.621,169.7a2.724,2.724,0,0,0-2.657-1.094,2.968,2.968,0,0,0-2.5,1.354c-1.876-.012-2.8.794-3.23,2.032-3.777,1.293-4.732,3.851-4.064,7.135a0,0,0,0,1,0,0,5.912,5.912,0,0,0-.781,5.467v0a4.156,4.156,0,0,0,2.36,2.365.07.07,0,0,1,.035.091c-.711,1.616-.96,3.616,2.187,5.72a0,0,0,0,1,0,0c-.378,1.649.411,2.779,2.032,3.54,2.272,2.77,4.491,3.673,6.616,1.25Z" transform="translate(-177.044 -168.583)" fill="#65c5ef"/>
                </g>
              </g>
            </g>
            <g id="Grupo_1043217" data-name="Grupo 1043217" transform="translate(44.018 28.987)">
              <g id="Grupo_1043216" data-name="Grupo 1043216">
                <g id="Grupo_1043215" data-name="Grupo 1043215">
                  <path id="Trazado_772361" data-name="Trazado 772361" d="M256,169.7a2.724,2.724,0,0,1,2.657-1.094,2.968,2.968,0,0,1,2.5,1.354c1.876-.012,2.8.794,3.23,2.032,3.777,1.293,4.732,3.851,4.064,7.135a0,0,0,0,0,0,0,5.912,5.912,0,0,1,.781,5.467v0a4.156,4.156,0,0,1-2.36,2.365.07.07,0,0,0-.035.091c.711,1.616.96,3.616-2.187,5.72a0,0,0,0,0,0,0c.378,1.649-.411,2.779-2.032,3.54-2.272,2.77-4.491,3.673-6.616,1.25Z" transform="translate(-256.005 -168.583)" fill="#65c5ef"/>
                </g>
              </g>
            </g>
            <g id="Grupo_1043242" data-name="Grupo 1043242">
              <g id="Grupo_1043219" data-name="Grupo 1043219" transform="translate(68.958 48.298)">
                <g id="Grupo_1043218" data-name="Grupo 1043218">
                  <path id="Trazado_772362" data-name="Trazado 772362" d="M402.159,283.157c.124-.509.234-1.033.335-1.6a.562.562,0,0,0-1.107-.2c-.1.543-.2,1.044-.322,1.531a.562.562,0,1,0,1.093.266Z" transform="translate(-401.05 -280.897)"/>
                </g>
              </g>
              <g id="Grupo_1043221" data-name="Grupo 1043221" transform="translate(63.971 52.688)">
                <g id="Grupo_1043220" data-name="Grupo 1043220">
                  <path id="Trazado_772363" data-name="Trazado 772363" d="M376.922,306.46a.562.562,0,0,0-.721.335,25.3,25.3,0,0,1-4.03,7.145.562.562,0,0,0,.877.7,26.411,26.411,0,0,0,4.209-7.462A.562.562,0,0,0,376.922,306.46Z" transform="translate(-372.048 -306.426)"/>
                </g>
              </g>
              <g id="Grupo_1043223" data-name="Grupo 1043223" transform="translate(27.626 21.757)">
                <g id="Grupo_1043222" data-name="Grupo 1043222">
                  <path id="Trazado_772364" data-name="Trazado 772364" d="M161.572,128.479c.387-.3.8-.588,1.247-.886a.563.563,0,1,0-.581-.964c-.489.323-.931.636-1.35.959a.562.562,0,1,0,.684.891Z" transform="translate(-160.668 -126.536)"/>
                </g>
              </g>
              <g id="Grupo_1043225" data-name="Grupo 1043225" transform="translate(31.511 17.665)">
                <g id="Grupo_1043224" data-name="Grupo 1043224">
                  <path id="Trazado_772365" data-name="Trazado 772365" d="M184.084,106.381a25.556,25.556,0,0,1,7.793-2.526.562.562,0,1,0-.171-1.111,26.684,26.684,0,0,0-8.135,2.636.562.562,0,1,0,.514,1Z" transform="translate(-183.265 -102.739)"/>
                </g>
              </g>
              <g id="Grupo_1043227" data-name="Grupo 1043227">
                <g id="Grupo_1043226" data-name="Grupo 1043226">
                  <path id="Trazado_772366" data-name="Trazado 772366" d="M83.93,39.911a4.111,4.111,0,0,0-4.086,3.71H67.218a23.126,23.126,0,0,0-6.4-15.439l9.046-9.046a4.094,4.094,0,1,0-.82-.769L60.02,27.387A23.126,23.126,0,0,0,44.581,20.98V8.169a4.106,4.106,0,1,0-1.125,0V20.981a23.118,23.118,0,0,0-15.439,6.407L19,18.367a4.119,4.119,0,1,0-.82.769l9.046,9.046a23.129,23.129,0,0,0-6.4,15.439H8.193a4.116,4.116,0,1,0-.049,1.125H20.819a23.066,23.066,0,0,0,6.4,15.447l-8.847,8.847a4.119,4.119,0,1,0,.769.82l8.87-8.87a22.922,22.922,0,0,0,15.449,6.4v12.48a4.106,4.106,0,1,0,1.125,0V67.386a22.931,22.931,0,0,0,15.449-6.4l8.87,8.87a4.093,4.093,0,1,0,.769-.82l-8.846-8.846a23.093,23.093,0,0,0,6.4-15.447H79.892a4.1,4.1,0,1,0,4.037-4.835ZM17.905,74.347a2.982,2.982,0,1,1,0-4.217A2.987,2.987,0,0,1,17.905,74.347ZM74.348,70.13a2.982,2.982,0,1,1-4.217,0A2.986,2.986,0,0,1,74.348,70.13ZM70.131,13.688a2.982,2.982,0,1,1,0,4.216A2.98,2.98,0,0,1,70.131,13.688ZM41.037,4.106a2.981,2.981,0,1,1,2.981,2.981A2.985,2.985,0,0,1,41.037,4.106ZM13.688,17.9a2.982,2.982,0,1,1,4.217,0A2.985,2.985,0,0,1,13.688,17.9ZM4.107,47a2.981,2.981,0,1,1,2.981-2.981A2.985,2.985,0,0,1,4.107,47ZM47,83.929a2.981,2.981,0,1,1-2.981-2.981A2.985,2.985,0,0,1,47,83.929ZM44.016,66.275A22.092,22.092,0,1,1,66.108,44.183,22.084,22.084,0,0,1,44.016,66.275ZM83.93,47a2.981,2.981,0,1,1,2.981-2.981A2.985,2.985,0,0,1,83.93,47Z" transform="translate(-0.001 0)"/>
                </g>
              </g>
              <g id="Grupo_1043229" data-name="Grupo 1043229" transform="translate(29.858 28.407)">
                <g id="Grupo_1043228" data-name="Grupo 1043228">
                  <path id="Trazado_772367" data-name="Trazado 772367" d="M196.633,168.761a3.47,3.47,0,0,0-3.387-2.147,3.889,3.889,0,0,0-5.433-.529,3.882,3.882,0,0,0-5.433.529,3.47,3.47,0,0,0-3.387,2.147c-3.475,1.281-4.9,3.789-4.225,7.46-1.823,2.842-1.474,6.612,1.52,8.25-.567,1.532-.724,3.64,2.26,5.773-.164,1.2.175,2.7,2.295,3.74,1.529,1.836,2.946,2.74,4.331,2.763a3.7,3.7,0,0,0,2.64-1.159,3.743,3.743,0,0,0,2.587,1.16c1.744,0,3.267-1.422,4.384-2.763,2.12-1.042,2.459-2.541,2.295-3.74,2.985-2.134,2.828-4.243,2.26-5.773,2.986-1.635,3.35-5.4,1.52-8.25C201.528,172.55,200.108,170.042,196.633,168.761Zm-11.441,26.862c-1.044-.017-2.242-.841-3.56-2.449a.567.567,0,0,0-.2-.152c-1.934-.907-1.909-2.093-1.723-2.906a.568.568,0,0,0-.237-.6c-2.621-1.752-2.625-3.33-2.129-4.668,2.188.437,4.449-.141,5.393-2.235a.562.562,0,1,0-1.025-.462c-1.081,2.4-4.172,1.607-4.565,1.5-2.844-1.4-2.839-4.5-1.519-6.675,2.758.487,5.129-.574,5.715-3.474a.562.562,0,1,0-1.1-.223c-.451,2.223-2.164,2.97-4.393,2.594-.524-3.124.673-5.082,3.756-6.138a.563.563,0,0,0,.349-.349,2.419,2.419,0,0,1,2.656-1.653h.014c2.2.252,3.206,1.359,2.176,3.366a.562.562,0,0,0,1,.513c1.225-2.389.279-4.1-2.039-4.787a2.826,2.826,0,0,1,3.486.284v27.454A2.782,2.782,0,0,1,185.191,195.623Zm13.246-11.952c-2.555.939-4.208-2.089-4.278-2.219a.562.562,0,0,0-.993.527c.956,1.807,2.943,3.387,5.122,2.9.485,1.334.46,2.9-2.139,4.637a.567.567,0,0,0-.237.6h0c.187.813.211,2-1.723,2.906a.565.565,0,0,0-.2.153c-.871,1.062-2.229,2.449-3.594,2.449a2.8,2.8,0,0,1-2.024-1.059V167.109a2.822,2.822,0,0,1,3.5-.269c-2.306.7-3.192,2.423-1.987,4.772a.562.562,0,0,0,1-.513c-1.026-2-.015-3.136,2.159-3.364a2.4,2.4,0,0,1,2.618,1.65.562.562,0,0,0,.349.349c3.088,1.057,4.284,3.02,3.753,6.152-.764.151-2.619.336-3.333-1.205a.562.562,0,1,0-1.02.473c.811,1.748,2.758,2.206,4.585,1.833C201.325,179.177,201.317,182.269,198.437,183.671Z" transform="translate(-173.653 -165.213)"/>
                </g>
              </g>
              <g id="Grupo_1043231" data-name="Grupo 1043231" transform="translate(37.237 48.925)">
                <g id="Grupo_1043230" data-name="Grupo 1043230">
                  <path id="Trazado_772368" data-name="Trazado 772368" d="M221.189,288.6a2.363,2.363,0,0,1-1.809-.987,2.646,2.646,0,0,1,.387-2.246.562.562,0,0,0-1-.515,3.489,3.489,0,0,0-.261,3.486,1.546,1.546,0,0,1-1.086-.291.562.562,0,0,0-.586.96,2.376,2.376,0,0,0,2.589.163,5,5,0,0,0,1.56.535.562.562,0,0,0,.206-1.1Z" transform="translate(-216.566 -284.543)"/>
                </g>
              </g>
              <g id="Grupo_1043233" data-name="Grupo 1043233" transform="translate(45.243 36.327)">
                <g id="Grupo_1043232" data-name="Grupo 1043232">
                  <path id="Trazado_772369" data-name="Trazado 772369" d="M267.337,214.858a5.046,5.046,0,0,0-1.034.321,5.955,5.955,0,0,0-2.238-3.761.562.562,0,0,0-.749.838c1.407,1.258,1.981,2.378,1.859,3.6a6.178,6.178,0,0,0-1.913,3.113.562.562,0,0,0,1.078.321,4.211,4.211,0,0,1,3.2-3.328.562.562,0,0,0-.207-1.1Z" transform="translate(-263.128 -211.275)"/>
                </g>
              </g>
              <g id="Grupo_1043235" data-name="Grupo 1043235" transform="translate(47.118 47.049)">
                <g id="Grupo_1043234" data-name="Grupo 1043234">
                  <path id="Trazado_772370" data-name="Trazado 772370" d="M274.037,274.166a.562.562,0,0,0,.531.591c.61.033,1.2.237,1.37,1.5a.562.562,0,1,0,1.114-.151,2.472,2.472,0,0,0-2.424-2.471A.56.56,0,0,0,274.037,274.166Z" transform="translate(-274.036 -273.634)"/>
                </g>
              </g>
              <g id="Grupo_1043237" data-name="Grupo 1043237" transform="translate(39.512 42.628)">
                <g id="Grupo_1043236" data-name="Grupo 1043236">
                  <path id="Trazado_772371" data-name="Trazado 772371" d="M230.389,247.919a.562.562,0,0,0-.06,1.122c.61.033,1.2.237,1.37,1.5a.562.562,0,1,0,1.114-.151,2.473,2.473,0,0,0-2.424-2.471Z" transform="translate(-229.797 -247.919)"/>
                </g>
              </g>
              <g id="Grupo_1043239" data-name="Grupo 1043239" transform="translate(46.225 51.744)">
                <g id="Grupo_1043238" data-name="Grupo 1043238">
                  <path id="Trazado_772372" data-name="Trazado 772372" d="M269.432,300.939a.562.562,0,0,0-.06,1.122c.61.032,1.2.237,1.37,1.5a.562.562,0,1,0,1.114-.151A2.473,2.473,0,0,0,269.432,300.939Z" transform="translate(-268.84 -300.939)"/>
                </g>
              </g>
              <g id="Grupo_1043241" data-name="Grupo 1043241" transform="translate(38.724 36.938)">
                <g id="Grupo_1043240" data-name="Grupo 1043240">
                  <path id="Trazado_772373" data-name="Trazado 772373" d="M227.115,217.452a.562.562,0,1,0,1.114-.151,2.474,2.474,0,0,0-2.424-2.471.562.562,0,1,0-.06,1.122c.611.033,1.2.237,1.37,1.5Z" transform="translate(-225.212 -214.828)"/>
                </g>
              </g>
            </g>
          </g>
        </g>
      </g>
    </g>
  </g>
</svg>
