<svg xmlns="http://www.w3.org/2000/svg" width="116" height="116" viewBox="0 0 116 116">
  <g id="Grupo_1043360" data-name="Grupo 1043360" transform="translate(-645 -15218)">
    <g id="Elipse_4828" data-name="Elipse 4828" transform="translate(645 15218)" fill="#e0ebff" stroke="#0b62f8" stroke-width="1">
      <circle cx="58" cy="58" r="58" stroke="none"/>
      <circle cx="58" cy="58" r="57.5" fill="none"/>
    </g>
    <g id="lesion" transform="translate(525.466 15229.284)">
      <g id="Grupo_1043298" data-name="Grupo 1043298" transform="translate(160.092 -0.017)">
        <g id="Grupo_1043296" data-name="Grupo 1043296" transform="translate(0 0)">
          <path id="Trazado_772454" data-name="Trazado 772454" d="M189.129,180.2a4.178,4.178,0,0,1-8.356,0V151.689a.776.776,0,0,0-.775-.775h-.121a.776.776,0,0,0-.775.775V180.2a4.178,4.178,0,1,1-8.356,0V123.534a.776.776,0,0,0-.775-.775h-.121a.776.776,0,0,0-.775.775V145.35a3.272,3.272,0,0,1-6.545,0V121.689a9.33,9.33,0,0,1,9.312-9.312h16.191a9.33,9.33,0,0,1,9.312,9.312v9.791H190.8v-7.946a.776.776,0,0,0-.775-.775H189.9a.776.776,0,0,0-.775.775Z" transform="translate(-162.531 -91.446)" fill="#8ac9fe" fill-rule="evenodd"/>
          <path id="Trazado_772455" data-name="Trazado 772455" d="M190.107,196.28a.776.776,0,0,0-.775.775v28.512a4.181,4.181,0,0,1-5.109,4.073,4.179,4.179,0,0,0,3.247-4.073V197.054a.777.777,0,0,1,.775-.775h1.862ZM180.08,168.124a.776.776,0,0,0-.775.775v21.816a3.274,3.274,0,0,1-4.2,3.138,3.274,3.274,0,0,0,2.341-3.138V168.9a.776.776,0,0,1,.775-.775Zm19.279,57.442V168.9a.776.776,0,0,1,.775-.775h-1.862a.777.777,0,0,0-.775.775v11.41h-16.52v2.217h14.844A1.679,1.679,0,0,1,197.5,184.2v41.364a4.18,4.18,0,0,1-3.247,4.073,4.181,4.181,0,0,0,5.109-4.073Z" transform="translate(-172.761 -136.811)" fill="#60b7ff" fill-rule="evenodd"/>
          <path id="Trazado_772456" data-name="Trazado 772456" d="M215.251,208.078H193.836a3.272,3.272,0,0,1,0-6.545h21.415v6.545Z" transform="translate(-185.343 -163.998)" fill="#8ac9fe" fill-rule="evenodd"/>
          <path id="Trazado_772457" data-name="Trazado 772457" d="M213.1,126.579l4.115-17.136,3.361-.018,6.357,12.664c1.144,2.279-.541,4.566-2.064,4.566-6.684,0-5.085-.076-11.769-.076Z" transform="translate(-203.68 -89.043)" fill="#c4e2ff" fill-rule="evenodd"/>
          <path id="Trazado_772458" data-name="Trazado 772458" d="M226.922,132.927l9.419-23.672,3.848-.07a8.35,8.35,0,0,1,1.472.117l8.084,18.3v2.553a2.777,2.777,0,0,1-2.769,2.769Z" transform="translate(-214.93 -88.847)" fill="#d8ecfe" fill-rule="evenodd"/>
          <path id="Trazado_772459" data-name="Trazado 772459" d="M226.922,132.941l.445-1.117h19.608a1.659,1.659,0,0,0,1.652-1.652v-2.317c-2.665-6.02-5.574-12.634-8.239-18.654a9.272,9.272,0,0,1,1.273.115l8.084,18.3v2.553a2.777,2.777,0,0,1-2.769,2.769Z" transform="translate(-214.93 -88.861)" fill="#c4e2ff" fill-rule="evenodd"/>
          <circle id="Elipse_4844" data-name="Elipse 4844" cx="8.021" cy="8.021" r="8.021" transform="matrix(0.925, -0.379, 0.379, 0.925, 6.932, 6.08)" fill="#f6dccd"/>
          <path id="Trazado_772460" data-name="Trazado 772460" d="M251.936,13a8.021,8.021,0,1,1-.931,15.989,8.021,8.021,0,0,0,0-15.934A8.087,8.087,0,0,1,251.936,13Z" transform="translate(-234.528 -10.576)" fill="#f1cbbc" fill-rule="evenodd"/>
        </g>
        <g id="Grupo_1043297" data-name="Grupo 1043297" transform="translate(9.385 2.424)">
          <path id="Trazado_772461" data-name="Trazado 772461" d="M220.954,13a8.022,8.022,0,0,1,7.995,7.369,71.161,71.161,0,0,0-10.041-.675l-5.7,3.394h0A8.026,8.026,0,0,1,220.954,13Z" transform="translate(-212.931 -13)" fill="#d8ecfe" fill-rule="evenodd"/>
          <path id="Trazado_772462" data-name="Trazado 772462" d="M223.992,16.226l-10.847,5.557a7.975,7.975,0,0,0,.051,3.93l13.266-7.894A7.971,7.971,0,0,0,223.992,16.226Z" transform="translate(-212.924 -15.625)" fill="#add5fa" fill-rule="evenodd"/>
          <path id="Trazado_772463" data-name="Trazado 772463" d="M222.719,36.8c2.052.091,4.047.265,5.964.511a8.014,8.014,0,0,1,.565,2.367c-2.254-.316-4.5-.509-6.63-.6a68.339,68.339,0,0,0-9.32.2,8.1,8.1,0,0,1,.681-2.336A70.434,70.434,0,0,1,222.719,36.8Z" transform="translate(-213.228 -32.309)" fill="#c4e2ff" fill-rule="evenodd"/>
        </g>
      </g>
      <path id="Trazado_772464" data-name="Trazado 772464" d="M177.508,11.255a7.47,7.47,0,0,1,1.562.167l-6.212,3.18c-.541.022-1.082.048-1.614.083A7.446,7.446,0,0,1,177.508,11.255Zm6.456,3.754q-1.479-.168-2.984-.274l1.928-1.145A7.7,7.7,0,0,1,183.964,15.008Zm-13.9,3.684c0-.179.009-.355.026-.53q1.61-.139,3.272-.195l-3.2,1.906A7.529,7.529,0,0,1,170.065,18.692Zm8.926-4.077H179l3.045-1.811a7.875,7.875,0,0,0-1.483-.893l-5.139,2.631C176.6,14.539,177.8,14.562,178.991,14.615Zm-8.359,1.234a69.585,69.585,0,0,1,8.306-.117c1.876.083,3.743.242,5.575.466a8.92,8.92,0,0,1,.314,1.2c-1.937-.25-3.926-.425-5.933-.515a68.884,68.884,0,0,0-8.638.145,7.613,7.613,0,0,1,.375-1.178Zm6.876,10.281a7.443,7.443,0,0,0,7.434-7.437.919.919,0,0,0-.009-.155c-1.981-.264-4.022-.447-6.09-.538-1.091-.048-2.164-.071-3.228-.07l-5.174,3.081A7.446,7.446,0,0,0,177.508,26.129Zm0,1.117a8.555,8.555,0,1,0-8.559-8.554A8.564,8.564,0,0,0,177.508,27.246Zm14.632,24.5H172.91l9-22.607H186.4L194.347,47.1v2.435A2.209,2.209,0,0,1,192.14,51.742Zm-6,45.234a3.621,3.621,0,0,1-7.242,0V68.465a1.332,1.332,0,0,0-1.335-1.333h-.113a1.332,1.332,0,0,0-1.335,1.333V96.977a3.621,3.621,0,0,1-7.242,0V52.86h17.267ZM166.078,62.125V52.246a3.83,3.83,0,0,1,0-6.437v-5.5a1.338,1.338,0,0,1,1.335-1.334h.122a1.332,1.332,0,0,1,1.335,1.333V45.2h.2L172.8,29.711h-3.385a8.757,8.757,0,0,0-8.751,8.753V62.125a2.709,2.709,0,1,0,5.418,0Zm1.675-16.907a3.619,3.619,0,0,0-.55.1V40.309a.215.215,0,0,1,.21-.216h.122a.216.216,0,0,1,.218.216Zm.4,6.524h3.551l2.164-5.427h-5.715a2.714,2.714,0,1,0,0,5.427Zm5.933-22.607L170.222,45.2h4.092L178.9,33.67l-2.277-4.535Zm6.387.576h-2.321l1.3,2.57Zm13.873,8.753a8.837,8.837,0,0,0-6.317-8.4l6.317,14.277Zm-6.884-9.69-.192-.424a.554.554,0,0,0-.506-.332H181.53a.56.56,0,0,0-.523.353l-.087.223H177.6l-.131-.268a.563.563,0,0,0-.506-.308h-3.315a.561.561,0,0,0-.541.428l-.035.147h-3.656a9.886,9.886,0,0,0-9.877,9.871V62.125a3.835,3.835,0,0,0,7.669,0V52.734a3.529,3.529,0,0,0,.55.1V96.976a4.738,4.738,0,0,0,9.476,0V68.465a.217.217,0,0,1,.218-.216h.113a.217.217,0,0,1,.218.216V96.977a4.738,4.738,0,0,0,9.476,0V52.86h4.886a3.33,3.33,0,0,0,3.324-3.328V38.464a9.951,9.951,0,0,0-8-9.69Z" transform="translate(0 -8.263)" fill-rule="evenodd"/>
    </g>
  </g>
</svg>
