<svg xmlns="http://www.w3.org/2000/svg" width="131" height="122" viewBox="0 0 131 122">
  <g id="Grupo_1043695" data-name="Grupo 1043695" transform="translate(4766 -8344)">
    <rect id="Rectángulo_355809" data-name="Rectángulo 355809" width="131" height="122" rx="12" transform="translate(-4766 8344)" fill="#fff8e8"/>
    <g id="Layer_x0020_1" transform="translate(-4743.961 8365.04)">
      <g id="_243931896" transform="translate(0 1.379)">
        <path id="_243934944" d="M75.638,16.281h0a.791.791,0,0,1-.791.79h-.791v6.679h.791a.791.791,0,0,1,.791.791Zm0,16.52h0a.791.791,0,0,1-.791.79h-.791v6.677h.791a.791.791,0,0,1,.791.791ZM12.883,41.052h0a.791.791,0,0,1,.791-.782h.791V33.592h-.791a.791.791,0,0,1-.791-.777ZM75.638,11.418v4.862a.791.791,0,0,0-.791-.791H59.553a.79.79,0,0,1,.791.791v.791H74.057v6.679H60.344v1.582H74.057V32.01H60.344v1.582H74.057v6.677H60.344V41.85H74.056v4.136a2.546,2.546,0,0,1-2.543,2.541H60.344v.791a.79.79,0,0,1-.791.791H28.969a.791.791,0,0,1-.791-.791v-.791H17.008a2.546,2.546,0,0,1-2.543-2.541V41.85H28.177V40.269H14.465V33.592H28.177V32.01h-14.5a.791.791,0,0,0-.791.778V24.559c0-.006,0-.011,0-.017s0-.011,0-.017V16.3c0-.007,0-.013,0-.02s0-.013,0-.02V11.418a4.129,4.129,0,0,1,4.125-4.123h54.5a4.128,4.128,0,0,1,4.125,4.123ZM3.58,2.14a2.823,2.823,0,0,0-2.82,2.82V55.267h87V4.959a2.822,2.822,0,0,0-2.82-2.82H3.58Z" transform="translate(0.821 -0.558)" fill="#e0f6ff" fill-rule="evenodd"/>
        <g id="Grupo_1043637" data-name="Grupo 1043637">
          <path id="_243934704" d="M4.4,2.961a2.823,2.823,0,0,0-2.82,2.82V64.273A2.824,2.824,0,0,0,4.4,67.094H85.762a2.824,2.824,0,0,0,2.82-2.822V5.781a2.822,2.822,0,0,0-2.82-2.82H4.4ZM85.762,68.676H4.4a4.408,4.408,0,0,1-4.4-4.4V5.781a4.406,4.406,0,0,1,4.4-4.4H85.762a4.406,4.406,0,0,1,4.4,4.4V64.273A4.408,4.408,0,0,1,85.762,68.676Z" transform="translate(0 -1.379)" fill-rule="evenodd"/>
          <path id="_243934632" d="M16.34,51.686a.792.792,0,0,1-.692-1.174,18.316,18.316,0,0,0,0-16.365.791.791,0,0,1,1.386-.764,19.751,19.751,0,0,1,0,17.894.79.79,0,0,1-.694.41Z" transform="translate(16.793 32.741)" fill-rule="evenodd"/>
          <path id="_243935064" d="M28.893,51.686a.794.794,0,0,1-.694-.41,19.752,19.752,0,0,1,0-17.894.791.791,0,0,1,1.386.764,18.331,18.331,0,0,0,0,16.365.792.792,0,0,1-.692,1.174Z" transform="translate(28.139 32.741)" fill-rule="evenodd"/>
          <path id="_243935208" d="M50.016,42.791H13.247a.791.791,0,1,1,0-1.582H50.016a.791.791,0,0,1,0,1.582Z" transform="translate(13.452 41.635)" fill-rule="evenodd"/>
          <path id="_243934608" d="M89.373,29.262H.791a.79.79,0,1,1,0-1.58H89.373a.79.79,0,1,1,0,1.58Z" transform="translate(0 27.026)" fill-rule="evenodd"/>
          <path id="_243934992" d="M29.811,31.909H19.641a.791.791,0,1,1,0-1.582h10.17a.791.791,0,0,1,0,1.582Z" transform="translate(20.356 29.883)" fill-rule="evenodd"/>
          <path id="_243934824" d="M10.714,6.2A2.546,2.546,0,0,0,8.171,8.742V43.309a2.546,2.546,0,0,0,2.543,2.541h54.5a2.546,2.546,0,0,0,2.543-2.541V8.742A2.546,2.546,0,0,0,65.219,6.2Zm54.5,41.233h-54.5a4.13,4.13,0,0,1-4.126-4.123V8.742a4.129,4.129,0,0,1,4.125-4.123h54.5a4.128,4.128,0,0,1,4.125,4.123V43.309a4.128,4.128,0,0,1-4.125,4.123Z" transform="translate(7.116 2.119)" fill-rule="evenodd"/>
          <path id="_243935280" d="M68.553,10.14H7.38a.791.791,0,1,1,0-1.582H68.553a.791.791,0,0,1,0,1.582Z" transform="translate(7.116 6.374)" fill-rule="evenodd"/>
          <path id="_243935232" d="M68.553,14.112H7.38a.791.791,0,1,1,0-1.582H68.553a.791.791,0,0,1,0,1.582Z" transform="translate(7.116 10.663)" fill-rule="evenodd"/>
          <path id="_243934056" d="M68.553,18.082H7.38a.791.791,0,1,1,0-1.582H68.553a.791.791,0,1,1,0,1.582Z" transform="translate(7.116 14.951)" fill-rule="evenodd"/>
          <path id="_243934176" d="M68.553,22.053H7.38a.791.791,0,1,1,0-1.582H68.553a.791.791,0,0,1,0,1.582Z" transform="translate(7.116 19.239)" fill-rule="evenodd"/>
          <path id="_243933960" d="M29.438,43.178a.791.791,0,0,1-.791-.791V9.349a.791.791,0,1,1,1.582,0V42.387a.79.79,0,0,1-.791.791Z" transform="translate(30.937 6.374)" fill-rule="evenodd"/>
          <path id="_243933912" d="M22.085,43.178a.791.791,0,0,1-.791-.791V9.349a.791.791,0,1,1,1.582,0V42.387a.791.791,0,0,1-.791.791Z" transform="translate(22.997 6.374)" fill-rule="evenodd"/>
          <path id="_243934416" d="M14.733,43.178a.791.791,0,0,1-.791-.791V9.349a.791.791,0,1,1,1.582,0V42.387a.791.791,0,0,1-.79.791Z" transform="translate(15.057 6.374)" fill-rule="evenodd"/>
        </g>
        <g id="Grupo_1043638" data-name="Grupo 1043638" transform="translate(15.286 8.319)">
          <path id="_243934128" d="M29.407,21.232v6.677H40.577a2.546,2.546,0,0,0,2.543-2.541V21.232Z" transform="translate(16.472 11.742)" fill="#a5d6a7" fill-rule="evenodd"/>
          <path id="_243934008" d="M29.407,23.938H43.12V17.261H29.407Z" transform="translate(16.472 7.454)" fill="#a5d6a7" fill-rule="evenodd"/>
          <path id="_243934248" d="M29.407,19.968H43.12V13.29H29.407Z" transform="translate(16.472 3.165)" fill="#a5d6a7" fill-rule="evenodd"/>
          <path id="_243934200" d="M29.407,16H43.12V9.319H29.407Z" transform="translate(16.472 -1.124)" fill="#a5d6a7" fill-rule="evenodd"/>
          <path id="_243933312" d="M35.766,16V9.319H22.055V16Z" transform="translate(8.532 -1.124)" fill="#a5d6a7" fill-rule="evenodd"/>
          <path id="_243933144" d="M35.766,13.29H22.055v6.677H35.766Z" transform="translate(8.532 3.165)" fill="#a5d6a7" fill-rule="evenodd"/>
          <path id="_243933120" d="M35.766,17.261H22.055v6.677H35.766Z" transform="translate(8.532 7.454)" fill="#a5d6a7" fill-rule="evenodd"/>
          <path id="_243933072" d="M35.765,21.232H22.055v6.677H35.765Z" transform="translate(8.532 11.742)" fill="#a5d6a7" fill-rule="evenodd"/>
          <path id="_243933576" d="M28.413,27.909V21.232H14.7v6.677Z" transform="translate(0.592 11.742)" fill="#a5d6a7" fill-rule="evenodd"/>
          <path id="_243933672" d="M14.7,23.938H28.413V17.261H14.7Z" transform="translate(0.592 7.454)" fill="#a5d6a7" fill-rule="evenodd"/>
          <path id="_243933288" d="M14.7,19.968H28.413V13.29H14.7Z" transform="translate(0.592 3.165)" fill="#a5d6a7" fill-rule="evenodd"/>
          <path id="_243933360" d="M14.7,16H28.413V9.319H14.7Z" transform="translate(0.592 -1.124)" fill="#a5d6a7" fill-rule="evenodd"/>
          <path id="_243932640" d="M21.062,16V9.319H7.349V16Z" transform="translate(-7.349 -1.124)" fill="#a5d6a7" fill-rule="evenodd"/>
          <path id="_243932520" d="M21.062,13.29H7.349v6.677H21.062Z" transform="translate(-7.349 3.165)" fill="#a5d6a7" fill-rule="evenodd"/>
          <path id="_243933000" d="M21.062,17.261H7.349v6.677H21.062Z" transform="translate(-7.349 7.454)" fill="#a5d6a7" fill-rule="evenodd"/>
          <path id="_243932496" d="M21.062,21.232H7.349v4.136a2.546,2.546,0,0,0,2.543,2.541H21.062Z" transform="translate(-7.349 11.742)" fill="#a5d6a7" fill-rule="evenodd"/>
          <path id="_243932472" d="M21.853,11.992H66.941V7.92A2.546,2.546,0,0,0,64.4,5.379H9.893A2.546,2.546,0,0,0,7.349,7.92v4.072Z" transform="translate(-7.349 -5.379)" fill="#a5d6a7" fill-rule="evenodd"/>
        </g>
        <path id="_243932880" d="M87.761,28.442h-87v6.605A2.824,2.824,0,0,0,3.58,37.868H32.272c.026,0,.052,0,.077,0H56.173c.026,0,.051,0,.077,0H84.941a2.824,2.824,0,0,0,2.82-2.822ZM50.137,33.154a.79.79,0,0,1-.791.791H39.175a.791.791,0,1,1,0-1.582h10.17A.791.791,0,0,1,50.137,33.154Z" transform="translate(0.821 27.847)" fill="#ffcc80" fill-rule="evenodd"/>
        <path id="_243932424" d="M37.892,33.734H16.543a20.129,20.129,0,0,1,0,15.548h21.35A20.13,20.13,0,0,1,37.892,33.734Z" transform="translate(17.865 33.562)" fill="#ffcc80" fill-rule="evenodd"/>
      </g>
    </g>
  </g>
</svg>
