<svg xmlns="http://www.w3.org/2000/svg" width="131" height="122" viewBox="0 0 131 122">
  <g id="Grupo_1043696" data-name="Grupo 1043696" transform="translate(4766 -7956)">
    <rect id="Rectángulo_355805" data-name="Rectángulo 355805" width="131" height="122" rx="12" transform="translate(-4766 7956)" fill="#fff8e8"/>
    <g id="ciencias" transform="translate(-5542.514 7134.378)">
      <path id="Trazado_772974" data-name="Trazado 772974" d="M2699.959,3403.522a6.191,6.191,0,1,0,.12,0Z" transform="translate(-1845.166 -2496.071)" fill="#82fffb"/>
      <path id="Trazado_772975" data-name="Trazado 772975" d="M1426.62,2515.081c-3.358-1.945-6.047-3.527-8.434-4.962-8.639,5.2-14.09,8.994-17.593,12.24a11.718,11.718,0,0,1,3.6,3.664,11.452,11.452,0,0,1,12.644-4.937,9.776,9.776,0,0,1,6.432,5.659c1.061-.565,2.153-1.162,3.427-1.865C1426.639,2521.564,1426.625,2518.082,1426.62,2515.081Z" transform="translate(-588.154 -1627.658)" fill="#82b8ff"/>
      <path id="Trazado_772976" data-name="Trazado 772976" d="M2981.814,2515.271c0,3.013-.019,6.506-.078,9.8,15.788,8.757,26.977,13.4,30.286,7.677s-6.3-13.111-21.774-22.44C2987.376,2512.032,2984.387,2513.777,2981.814,2515.271Z" transform="translate(-2125.07 -1627.843)" fill="#82b8ff"/>
      <path id="Trazado_772977" data-name="Trazado 772977" d="M3012.036,1598.981c-1.488-2.573-4.675-3.159-9.73-1.8a6.729,6.729,0,0,1-6.371,8.839,6.754,6.754,0,0,1-1.75-.232,6.681,6.681,0,0,1-4.083-3.132c-.068-.119-.125-.241-.185-.362-2.287,1.151-4.9,2.538-8.178,4.347.059,3.3.073,6.79.078,9.8,3.348,1.94,6.037,3.522,8.434,4.962C3005.73,1612.087,3015.347,1604.7,3012.036,1598.981Z" transform="translate(-2125.073 -739.567)" fill="#82b8ff"/>
      <path id="Trazado_772978" data-name="Trazado 772978" d="M1258.941,1615.291c0-3,.018-6.477.078-9.8-15.786-8.757-26.975-13.4-30.286-7.677-1.483,2.563-.41,5.606,3.266,9.3a6.721,6.721,0,0,1,10.888,7.784c-.084.144-.178.281-.271.417,2.237,1.47,4.823,3.09,7.891,4.943C1253.058,1618.719,1255.735,1617.153,1258.941,1615.291Z" transform="translate(-420.474 -738.42)" fill="#82b8ff"/>
      <path id="Trazado_772979" data-name="Trazado 772979" d="M2361.815,908.982c3.236-1.864,6.023-3.447,8.512-4.832-.325-18.052-1.907-30.064-8.518-30.064s-8.192,12.01-8.517,30.059C2355.731,905.5,2358.448,907.04,2361.815,908.982Z" transform="translate(-1514.204 -37.387)" fill="#82b8ff"/>
      <path id="Trazado_772980" data-name="Trazado 772980" d="M1339.547,1963.8s.006-.005.009-.009a6.262,6.262,0,0,0,.4-.6,6.279,6.279,0,1,0-.415.616Z" transform="translate(-518.014 -1086.989)" fill="#82fffb"/>
      <path id="Trazado_772981" data-name="Trazado 772981" d="M865.92,2904.971a10.952,10.952,0,0,0-12.275,5.068.3.3,0,0,1-.232.126.269.269,0,0,1-.228-.133,10.717,10.717,0,0,0-9.341-5.514,10.155,10.155,0,0,0-2.662.35,9.693,9.693,0,0,0-7.208,9.824c0,10.052,7.086,18.783,19.443,23.968,12.358-5.185,19.443-13.916,19.443-23.968A9.611,9.611,0,0,0,865.92,2904.971Z" transform="translate(-37.384 -2011.025)" fill="#ff9070"/>
      <g id="Grupo_1043466" data-name="Grupo 1043466" transform="translate(830.554 867.366)">
        <path id="Trazado_772982" data-name="Trazado 772982" d="M2361.8,2876.525c-3.462,1.988-6.1,3.485-8.512,4.827.325,18.055,1.906,30.069,8.517,30.069,2.924,0,5-2.394,6.36-7.3a6.722,6.722,0,0,1,.959-13.392,6.759,6.759,0,0,1,.864.079c.162-2.726.272-5.822.334-9.45C2367.492,2879.786,2364.562,2878.111,2361.8,2876.525Z" transform="translate(-2344.76 -2851.182)" fill="#82b8ff"/>
        <path id="Trazado_772983" data-name="Trazado 772983" d="M2992.465,2337.369c-2.266-1.36-4.8-2.852-7.91-4.653,0,1.533,0,3.081,0,4.654s0,3.121,0,4.653C2986.989,2340.608,2989.77,2338.984,2992.465,2337.369Z" transform="translate(-2958.364 -2322.584)" fill="#82b8ff"/>
        <path id="Trazado_772984" data-name="Trazado 772984" d="M2048.22,2337.205c2.258,1.354,4.8,2.847,7.911,4.654q-.007-2.294,0-4.648t0-4.658C2053.15,2334.284,2050.623,2335.764,2048.22,2337.205Z" transform="translate(-2048.22 -2322.425)" fill="#82b8ff"/>
        <path id="Trazado_772985" data-name="Trazado 772985" d="M2354.353,1977.36q2.045-1.18,4.039-2.328c-3.125-1.8-5.689-3.257-7.995-4.538-.053,3.119-.067,6.356-.073,9.193Z" transform="translate(-2341.875 -1970.494)" fill="#82b8ff"/>
        <path id="Trazado_772986" data-name="Trazado 772986" d="M2682.346,1978.187q1.491.863,2.95,1.71c-.005-2.848-.019-6.092-.072-9.191-2.352,1.311-4.973,2.8-7.984,4.533Z" transform="translate(-2659.646 -1970.7)" fill="#82b8ff"/>
        <path id="Trazado_772987" data-name="Trazado 772987" d="M2364.888,2160.136q1.219-.7,2.417-1.4.007-2.45,0-4.966t0-4.966q-1.593-.925-3.221-1.867l-5.375-3.1q-2.123,1.222-4.309,2.483l-4.3,2.483q-.007,2.451-.005,4.971c0,1.674,0,3.332.005,4.96q1.646.957,3.329,1.93l.964.559q2.182,1.259,4.3,2.488,1.58-.915,3.2-1.847Zm-11.271-6.364a5.085,5.085,0,1,1,5.085,5.085A5.091,5.091,0,0,1,2353.618,2153.772Z" transform="translate(-2341.653 -2138.989)" fill="#82b8ff"/>
      </g>
      <path id="Trazado_772988" data-name="Trazado 772988" d="M2499.73,2336.421a4.547,4.547,0,1,0,4.548,4.548A4.553,4.553,0,0,0,2499.73,2336.421Z" transform="translate(-1652.126 -1458.819)" fill="#82fffb"/>
      <path id="Trazado_772989" data-name="Trazado 772989" d="M3268.191,1485.057s0,.007,0,.011a6.269,6.269,0,0,0,.288.564,6.213,6.213,0,1,0-.294-.579Z" transform="translate(-2402.987 -622.81)" fill="#82fffb"/>
      <path id="Trazado_772990" data-name="Trazado 772990" d="M2682.786,2700.072l-2.993,1.729-2.927,1.691c2.6,1.492,5.331,3.055,7.995,4.533.053-3.094.067-6.342.072-9.193Z" transform="translate(-1828.726 -1811.093)" fill="#82b8ff"/>
      <path id="Trazado_772991" data-name="Trazado 772991" d="M2354.349,2701.013l-.965-.558-3.058-1.773c.005,2.84.02,6.078.073,9.192,2.276-1.269,4.776-2.687,7.984-4.528Q2356.39,2702.19,2354.349,2701.013Z" transform="translate(-1511.321 -1810.946)" fill="#82b8ff"/>
      <path id="Trazado_772992" data-name="Trazado 772992" d="M2695.931,3411.743a6.185,6.185,0,0,1,6.181-6.068h.12a6.142,6.142,0,0,1,3.037.871,6.182,6.182,0,0,0-5.189-3.023h-.12a6.185,6.185,0,0,0-4.453,10.475,6.214,6.214,0,0,0,1.3,1.024A6.137,6.137,0,0,1,2695.931,3411.743Z" transform="translate(-1845.166 -2496.072)" fill="#fff"/>
      <g id="Grupo_1043467" data-name="Grupo 1043467" transform="translate(812.439 882.461)">
        <path id="Trazado_772993" data-name="Trazado 772993" d="M1410.485,2518.524c1.863-1.272,3.761-2.495,5.673-3.691.864-.541,1.922-.948,2.4-1.85a3.7,3.7,0,0,0,.251-2.491l-.623-.373c-8.639,5.2-14.09,8.993-17.593,12.24a11.4,11.4,0,0,1,2.367,2.022C1404.153,2523.542,1409.924,2518.907,1410.485,2518.524Z" transform="translate(-1400.593 -2510.118)" fill="#fff"/>
      </g>
      <path id="Trazado_772994" data-name="Trazado 772994" d="M1230.624,1600.789c3.157-5.459,13.742-1,28.638,6.321,0-.321-.249-1.3-.243-1.618-15.786-8.757-26.975-13.4-30.286-7.677-1.483,2.563-.41,5.606,3.266,9.3.045-.052.094-.1.141-.149C1230.137,1604.281,1229.461,1602.8,1230.624,1600.789Z" transform="translate(-420.474 -738.421)" fill="#fff"/>
      <path id="Trazado_772995" data-name="Trazado 772995" d="M2363.961,876.237a4.661,4.661,0,0,1,2.342.608,5.213,5.213,0,0,0-4.494-2.759c-6.611,0-8.192,12.01-8.517,30.059q1.045.58,2.171,1.214C2355.826,887.834,2357.466,876.237,2363.961,876.237Z" transform="translate(-1514.204 -37.387)" fill="#fff"/>
      <path id="Trazado_772996" data-name="Trazado 772996" d="M1331.443,1959.11a6.188,6.188,0,0,1,8.459-2.226c.015.009.028.019.043.028a6.182,6.182,0,1,0-8.471,8.476A6.187,6.187,0,0,1,1331.443,1959.11Z" transform="translate(-518.029 -1086.989)" fill="#fff"/>
      <g id="Grupo_1043468" data-name="Grupo 1043468" transform="translate(796.59 893.493)">
        <path id="Trazado_772997" data-name="Trazado 772997" d="M1541.826,2912.479c2.816.053,4.331-1.787,6.782-2.7a10.588,10.588,0,0,1,6.566-.3,9.721,9.721,0,0,1,2.957,1.439,9.552,9.552,0,0,0-5.108-3.591,10.936,10.936,0,0,0-12.174,4.92A2.2,2.2,0,0,0,1541.826,2912.479Z" transform="translate(-1521.076 -2906.877)" fill="#fff"/>
        <path id="Trazado_772998" data-name="Trazado 772998" d="M836.127,2916.843a9.693,9.693,0,0,1,7.208-9.824,10.165,10.165,0,0,1,2.662-.349,10.615,10.615,0,0,1,6.156,1.973c.074.053.137.106.2.158a10.607,10.607,0,0,0-8.512-4.283,10.176,10.176,0,0,0-2.663.349,9.693,9.693,0,0,0-7.208,9.825c0,6.392,2.869,12.247,8.132,17A21.94,21.94,0,0,1,836.127,2916.843Z" transform="translate(-833.975 -2904.518)" fill="#fff"/>
      </g>
      <path id="Trazado_772999" data-name="Trazado 772999" d="M2497.335,2343.12a4.537,4.537,0,0,1,6.5-4.1,4.544,4.544,0,1,0-6.052,6.052A4.514,4.514,0,0,1,2497.335,2343.12Z" transform="translate(-1652.127 -1458.819)" fill="#fff"/>
      <path id="Trazado_773000" data-name="Trazado 773000" d="M3270.636,1487.8a6.3,6.3,0,0,1-.288-.564s0-.008,0-.011l0,0a6.181,6.181,0,0,1,8.812-7.825,6.183,6.183,0,0,0-10.963,5.674l0,0s0,.008,0,.011a6.27,6.27,0,0,0,.288.564,6.146,6.146,0,0,0,2.2,2.221C3270.667,1487.85,3270.65,1487.829,3270.636,1487.8Z" transform="translate(-2402.989 -622.831)" fill="#fff"/>
      <g id="Grupo_1043469" data-name="Grupo 1043469" transform="translate(841.981 876.526)">
        <path id="Trazado_773001" data-name="Trazado 773001" d="M2462.344,2309.206a5.623,5.623,0,1,1,5.624-5.623A5.63,5.63,0,0,1,2462.344,2309.206Zm0-9.633a4.01,4.01,0,1,0,4.01,4.01A4.014,4.014,0,0,0,2462.344,2299.573Z" transform="translate(-2456.721 -2297.959)" fill="#001259"/>
      </g>
      <g id="Grupo_1043470" data-name="Grupo 1043470" transform="translate(837.923 835.622)">
        <path id="Trazado_773002" data-name="Trazado 773002" d="M2321.319,928.682c-7.533,0-9.257-11.972-9.6-31.287-.062-3.425-.076-7.041-.08-10.126-.005-1.678-.005-3.389-.005-5.117s0-3.444.005-5.129c0-3.08.018-6.693.08-10.125.34-19.309,2.063-31.276,9.6-31.276s9.257,11.969,9.6,31.282c.062,3.407.075,7.031.081,10.126q.008,2.526.005,5.122t-.005,5.124c-.005,3.1-.018,6.724-.081,10.125-.064,3.845-.181,7.1-.356,9.954a.807.807,0,1,1-1.611-.1c.174-2.828.289-6.061.354-9.883.063-3.391.076-7.009.08-10.1q.008-2.526.005-5.12t-.005-5.118c0-3.09-.018-6.7-.08-10.1-.271-15.424-1.426-29.7-7.983-29.7s-7.712,14.27-7.983,29.691c-.062,3.421-.076,7.025-.08,10.1q-.008,2.526-.006,5.125c0,1.726,0,3.436.006,5.113,0,3.08.018,6.687.08,10.1.271,15.427,1.426,29.7,7.983,29.7,2.707,0,4.646-2.358,5.928-7.21a.807.807,0,0,1,1.56.412C2327.311,925.931,2324.862,928.682,2321.319,928.682Z" transform="translate(-2311.636 -835.622)" fill="#001259"/>
      </g>
      <g id="Grupo_1043471" data-name="Grupo 1043471" transform="translate(811.199 861.561)">
        <path id="Trazado_773003" data-name="Trazado 773003" d="M1357.061,1796.921a.807.807,0,0,1-.554-1.394c3.569-3.369,9.171-7.284,18.164-12.692,2.633-1.583,5.388-3.195,8.714-5.127l4.434-2.562q2.252-1.3,4.444-2.561c3.357-1.934,6.234-3.567,8.794-4.992,3.479-1.919,6.21-3.37,8.6-4.567a.807.807,0,0,1,.723,1.443c-2.37,1.187-5.084,2.629-8.541,4.536-2.551,1.419-5.421,3.048-8.771,4.979q-2.187,1.259-4.443,2.56l-4.432,2.56c-3.319,1.928-6.068,3.535-8.692,5.114-8.89,5.346-14.406,9.2-17.888,12.483A.8.8,0,0,1,1357.061,1796.921Z" transform="translate(-1356.254 -1762.941)" fill="#001259"/>
      </g>
      <g id="Grupo_1043472" data-name="Grupo 1043472" transform="translate(834.179 855.822)">
        <path id="Trazado_773004" data-name="Trazado 773004" d="M2178.592,1602.233a.807.807,0,0,1-.379-1.52c1.18-.625,2.379-1.282,3.819-2.076,2.473-1.376,5.179-2.91,8.772-4.974q1.642-.952,3.33-1.924l2.992-1.728q1.286-.744,2.552-1.474c2.636-1.531,5.733-3.338,8.691-5.114,13.229-7.955,25.018-16.1,21.733-21.776-1.375-2.377-4.449-2.861-9.4-1.477a.807.807,0,1,1-.435-1.554c5.763-1.61,9.437-.883,11.233,2.224,3.773,6.523-5.735,14.007-22.3,23.968-2.967,1.781-6.07,3.591-8.714,5.127q-1.27.731-2.552,1.474l-2.994,1.729q-1.683.971-3.33,1.924c-3.6,2.069-6.314,3.607-8.8,4.988-1.449.8-2.655,1.459-3.844,2.089A.805.805,0,0,1,2178.592,1602.233Z" transform="translate(-2177.784 -1557.786)" fill="#001259"/>
      </g>
      <g id="Grupo_1043473" data-name="Grupo 1043473" transform="translate(863.592 852.469)">
        <path id="Trazado_773005" data-name="Trazado 773005" d="M3236.586,1452.42a7.322,7.322,0,0,1-1.89-.25,7.222,7.222,0,1,1,1.89.25Zm-.021-12.91a5.611,5.611,0,0,0-2.814.756h0a5.65,5.65,0,1,0,2.814-.756Zm-3.218.057h0Z" transform="translate(-3229.316 -1437.897)" fill="#001259"/>
      </g>
      <g id="Grupo_1043474" data-name="Grupo 1043474" transform="translate(806.522 855.776)">
        <path id="Trazado_773006" data-name="Trazado 773006" d="M1264.434,1608.881c-5.688,0-14.5-4.106-25.894-10.431-2.928-1.62-5.962-3.357-8.806-4.993q-2.189-1.269-4.439-2.567l-.965-.559q-1.752-1.014-3.464-2.008c-3.489-2.02-6.258-3.65-8.714-5.127-3.251-1.961-5.966-3.663-8.3-5.2a.807.807,0,1,1,.888-1.347c2.318,1.528,5.015,3.219,8.246,5.168,2.447,1.472,5.209,3.1,8.691,5.114q1.711.994,3.463,2.007l.964.558q2.25,1.3,4.438,2.566c2.835,1.631,5.863,3.364,8.781,4.979,13.487,7.488,26.418,13.635,29.7,7.956s-8.5-13.828-21.724-21.793c-2.458-1.479-5.22-3.1-8.692-5.114q-1.658-.964-3.355-1.944l-5.508-3.181c-3.49-2.014-6.281-3.6-8.784-4.985-13.486-7.488-26.418-13.636-29.7-7.956-1.371,2.368-.265,5.262,3.38,8.849a.807.807,0,0,1-1.132,1.151c-4.244-4.176-5.436-7.711-3.645-10.807,3.771-6.524,14.995-2.023,31.88,7.353,2.51,1.392,5.309,2.98,8.807,5l5.511,3.182q1.7.982,3.356,1.946c3.478,2.014,6.248,3.644,8.714,5.127,16.559,9.974,26.064,17.464,22.288,23.984C1269.193,1607.926,1267.177,1608.881,1264.434,1608.881Z" transform="translate(-1189.059 -1556.135)" fill="#001259"/>
      </g>
      <g id="Grupo_1043475" data-name="Grupo 1043475" transform="translate(809.345 865.826)">
        <path id="Trazado_773007" data-name="Trazado 773007" d="M1297.224,1929.96a7.283,7.283,0,1,1,1.86-.242A7.3,7.3,0,0,1,1297.224,1929.96Zm.022-12.913a5.674,5.674,0,0,0-1.447.189,5.61,5.61,0,1,0,1.447-.189Z" transform="translate(-1289.977 -1915.437)" fill="#001259"/>
      </g>
      <g id="Grupo_1043476" data-name="Grupo 1043476" transform="translate(847.536 906.375)">
        <path id="Trazado_773008" data-name="Trazado 773008" d="M2662.581,3379.571h-.14a7.265,7.265,0,1,1,.14,0Zm0-12.908a5.647,5.647,0,0,0-.1,11.293,5.647,5.647,0,1,0,.214-11.292Zm6.455,5.77h0Z" transform="translate(-2655.317 -3365.049)" fill="#001259"/>
      </g>
      <g id="Grupo_1043477" data-name="Grupo 1043477" transform="translate(795.514 892.417)">
        <path id="Trazado_773009" data-name="Trazado 773009" d="M816.033,2902.375a.8.8,0,0,1-.31-.062c-12.843-5.354-20.209-14.469-20.209-25a10.866,10.866,0,0,1,8-10.863,11.656,11.656,0,0,1,12.538,4.616,11.937,11.937,0,0,1,12.781-4.509c4.761,1.37,7.719,5.491,7.719,10.755,0,10.536-7.366,19.65-20.209,25A.8.8,0,0,1,816.033,2902.375Zm-9.5-34.712a9.914,9.914,0,0,0-2.589.34,9.173,9.173,0,0,0-6.811,9.305c0,9.769,6.885,18.278,18.905,23.384,12.021-5.107,18.905-13.615,18.905-23.384a9.09,9.09,0,0,0-6.551-9.2,10.417,10.417,0,0,0-11.671,4.837.816.816,0,0,1-.7.378.807.807,0,0,1-.684-.4A10.02,10.02,0,0,0,806.528,2867.663Z" transform="translate(-795.514 -2866.059)" fill="#001259"/>
      </g>
    </g>
  </g>
</svg>
